<?xml version="1.0" encoding="UTF-8" standalone="no"?>
<!DOCTYPE svg PUBLIC "-//W3C//DTD SVG 1.1//EN"
 "http://www.w3.org/Graphics/SVG/1.1/DTD/svg11.dtd">
<!-- Generated by graphviz version 2.43.0 (0)
 -->
<!-- Title: include/mini/riemann/euler/ausm.hpp Pages: 1 -->
<svg width="503pt" height="218pt"
 viewBox="0.00 0.00 502.91 218.00" xmlns="http://www.w3.org/2000/svg" xmlns:xlink="http://www.w3.org/1999/xlink">
<g id="graph0" class="graph" transform="scale(1 1) rotate(0) translate(4 214)">
<title>include/mini/riemann/euler/ausm.hpp</title>
<polygon fill="white" stroke="transparent" points="-4,4 -4,-214 498.91,-214 498.91,4 -4,4"/>
<!-- Node1 -->
<g id="node1" class="node">
<title>Node1</title>
<g id="a_node1"><a xlink:title=" ">
<polygon fill="#bfbfbf" stroke="black" points="111,-179.5 111,-209.5 231,-209.5 231,-179.5 111,-179.5"/>
<text text-anchor="start" x="119" y="-197.5" font-family="Helvetica,sans-Serif" font-size="10.00">include/mini/riemann</text>
<text text-anchor="middle" x="171" y="-186.5" font-family="Helvetica,sans-Serif" font-size="10.00">/euler/ausm.hpp</text>
</a>
</g>
</g>
<!-- Node2 -->
<g id="node2" class="node">
<title>Node2</title>
<g id="a_node2"><a xlink:title=" ">
<polygon fill="white" stroke="#bfbfbf" points="0,-118 0,-137 42,-137 42,-118 0,-118"/>
<text text-anchor="middle" x="21" y="-125" font-family="Helvetica,sans-Serif" font-size="10.00">array</text>
</a>
</g>
</g>
<!-- Node1&#45;&gt;Node2 -->
<g id="edge1" class="edge">
<title>Node1&#45;&gt;Node2</title>
<path fill="none" stroke="midnightblue" d="M138.45,-179.4C112.13,-167.99 75.41,-152.08 50.07,-141.1"/>
<polygon fill="midnightblue" stroke="midnightblue" points="51.2,-137.77 40.63,-137.01 48.42,-144.19 51.2,-137.77"/>
</g>
<!-- Node3 -->
<g id="node3" class="node">
<title>Node3</title>
<g id="a_node3"><a xlink:title=" ">
<polygon fill="white" stroke="#bfbfbf" points="43,-0.5 43,-19.5 107,-19.5 107,-0.5 43,-0.5"/>
<text text-anchor="middle" x="75" y="-7.5" font-family="Helvetica,sans-Serif" font-size="10.00">algorithm</text>
</a>
</g>
</g>
<!-- Node1&#45;&gt;Node3 -->
<g id="edge2" class="edge">
<title>Node1&#45;&gt;Node3</title>
<path fill="none" stroke="midnightblue" d="M158.34,-179.44C140.15,-158.47 106.88,-117.05 89,-76 82.58,-61.27 79.01,-43.33 77.08,-30.04"/>
<polygon fill="midnightblue" stroke="midnightblue" points="80.5,-29.23 75.78,-19.75 73.56,-30.11 80.5,-29.23"/>
</g>
<!-- Node4 -->
<g id="node4" class="node">
<title>Node4</title>
<g id="a_node4"><a xlink:title=" ">
<polygon fill="white" stroke="#bfbfbf" points="370.5,-0.5 370.5,-19.5 417.5,-19.5 417.5,-0.5 370.5,-0.5"/>
<text text-anchor="middle" x="394" y="-7.5" font-family="Helvetica,sans-Serif" font-size="10.00">cmath</text>
</a>
</g>
</g>
<!-- Node1&#45;&gt;Node4 -->
<g id="edge3" class="edge">
<title>Node1&#45;&gt;Node4</title>
<path fill="none" stroke="midnightblue" d="M231.04,-192.45C308.19,-187.37 438.41,-165.23 491,-76 508.14,-46.91 461.92,-28.16 427.53,-18.61"/>
<polygon fill="midnightblue" stroke="midnightblue" points="428.32,-15.2 417.76,-16.05 426.54,-21.97 428.32,-15.2"/>
</g>
<!-- Node5 -->
<g id="node5" class="node">
<title>Node5</title>
<g id="a_node5"><a xlink:href="types_8hpp.html" target="_top" xlink:title=" ">
<polygon fill="white" stroke="black" points="251,-112.5 251,-142.5 361,-142.5 361,-112.5 251,-112.5"/>
<text text-anchor="start" x="259" y="-130.5" font-family="Helvetica,sans-Serif" font-size="10.00">mini/riemann/euler</text>
<text text-anchor="middle" x="306" y="-119.5" font-family="Helvetica,sans-Serif" font-size="10.00">/types.hpp</text>
</a>
</g>
</g>
<!-- Node1&#45;&gt;Node5 -->
<g id="edge4" class="edge">
<title>Node1&#45;&gt;Node5</title>
<path fill="none" stroke="midnightblue" d="M200.29,-179.4C220.02,-169.9 246.23,-157.28 267.62,-146.98"/>
<polygon fill="midnightblue" stroke="midnightblue" points="269.27,-150.07 276.76,-142.58 266.24,-143.76 269.27,-150.07"/>
</g>
<!-- Node5&#45;&gt;Node4 -->
<g id="edge7" class="edge">
<title>Node5&#45;&gt;Node4</title>
<path fill="none" stroke="midnightblue" d="M333.34,-112.3C347.64,-103.59 364.34,-91.19 375,-76 384.6,-62.31 389.4,-43.78 391.77,-30"/>
<polygon fill="midnightblue" stroke="midnightblue" points="395.28,-30.16 393.24,-19.76 388.35,-29.16 395.28,-30.16"/>
</g>
<!-- Node6 -->
<g id="node6" class="node">
<title>Node6</title>
<g id="a_node6"><a xlink:title=" ">
<polygon fill="white" stroke="#bfbfbf" points="422,-56.5 422,-75.5 482,-75.5 482,-56.5 422,-56.5"/>
<text text-anchor="middle" x="452" y="-63.5" font-family="Helvetica,sans-Serif" font-size="10.00">concepts</text>
</a>
</g>
</g>
<!-- Node5&#45;&gt;Node6 -->
<g id="edge5" class="edge">
<title>Node5&#45;&gt;Node6</title>
<path fill="none" stroke="midnightblue" d="M340.6,-112.4C365.1,-102.42 397.66,-89.15 421.25,-79.53"/>
<polygon fill="midnightblue" stroke="midnightblue" points="422.82,-82.67 430.76,-75.66 420.17,-76.19 422.82,-82.67"/>
</g>
<!-- Node7 -->
<g id="node7" class="node">
<title>Node7</title>
<g id="a_node7"><a xlink:title=" ">
<polygon fill="white" stroke="#bfbfbf" points="246,-56.5 246,-75.5 298,-75.5 298,-56.5 246,-56.5"/>
<text text-anchor="middle" x="272" y="-63.5" font-family="Helvetica,sans-Serif" font-size="10.00">cassert</text>
</a>
</g>
</g>
<!-- Node5&#45;&gt;Node7 -->
<g id="edge6" class="edge">
<title>Node5&#45;&gt;Node7</title>
<path fill="none" stroke="midnightblue" d="M297.94,-112.4C293.15,-104.02 287.04,-93.33 281.96,-84.42"/>
<polygon fill="midnightblue" stroke="midnightblue" points="284.95,-82.6 276.95,-75.66 278.87,-86.08 284.95,-82.6"/>
</g>
<!-- Node8 -->
<g id="node8" class="node">
<title>Node8</title>
<g id="a_node8"><a xlink:title=" ">
<polygon fill="white" stroke="#bfbfbf" points="316,-56.5 316,-75.5 366,-75.5 366,-56.5 316,-56.5"/>
<text text-anchor="middle" x="341" y="-63.5" font-family="Helvetica,sans-Serif" font-size="10.00">cstring</text>
</a>
</g>
</g>
<!-- Node5&#45;&gt;Node8 -->
<g id="edge8" class="edge">
<title>Node5&#45;&gt;Node8</title>
<path fill="none" stroke="midnightblue" d="M314.29,-112.4C319.22,-104.02 325.51,-93.33 330.75,-84.42"/>
<polygon fill="midnightblue" stroke="midnightblue" points="333.85,-86.05 335.91,-75.66 327.82,-82.5 333.85,-86.05"/>
</g>
<!-- Node9 -->
<g id="node9" class="node">
<title>Node9</title>
<g id="a_node9"><a xlink:href="algebra_2eigen_8hpp.html" target="_top" xlink:title=" ">
<polygon fill="white" stroke="black" points="98.5,-56.5 98.5,-75.5 227.5,-75.5 227.5,-56.5 98.5,-56.5"/>
<text text-anchor="middle" x="163" y="-63.5" font-family="Helvetica,sans-Serif" font-size="10.00">mini/algebra/eigen.hpp</text>
</a>
</g>
</g>
<!-- Node5&#45;&gt;Node9 -->
<g id="edge9" class="edge">
<title>Node5&#45;&gt;Node9</title>
<path fill="none" stroke="midnightblue" d="M272.11,-112.4C248.12,-102.42 216.23,-89.15 193.12,-79.53"/>
<polygon fill="midnightblue" stroke="midnightblue" points="194.39,-76.27 183.81,-75.66 191.7,-82.73 194.39,-76.27"/>
</g>
<!-- Node9&#45;&gt;Node3 -->
<g id="edge10" class="edge">
<title>Node9&#45;&gt;Node3</title>
<path fill="none" stroke="midnightblue" d="M148.86,-56.32C135.13,-47.9 114.06,-34.97 97.94,-25.07"/>
<polygon fill="midnightblue" stroke="midnightblue" points="99.46,-21.9 89.1,-19.65 95.8,-27.87 99.46,-21.9"/>
</g>
<!-- Node9&#45;&gt;Node4 -->
<g id="edge11" class="edge">
<title>Node9&#45;&gt;Node4</title>
<path fill="none" stroke="midnightblue" d="M199.6,-56.44C243.79,-46.11 317.5,-28.88 360.33,-18.87"/>
<polygon fill="midnightblue" stroke="midnightblue" points="361.32,-22.23 370.26,-16.55 359.73,-15.42 361.32,-22.23"/>
</g>
<!-- Node10 -->
<g id="node10" class="node">
<title>Node10</title>
<g id="a_node10"><a xlink:title=" ">
<polygon fill="white" stroke="#bfbfbf" points="129.5,-0.5 129.5,-19.5 178.5,-19.5 178.5,-0.5 129.5,-0.5"/>
<text text-anchor="middle" x="154" y="-7.5" font-family="Helvetica,sans-Serif" font-size="10.00">cstdlib</text>
</a>
</g>
</g>
<!-- Node9&#45;&gt;Node10 -->
<g id="edge12" class="edge">
<title>Node9&#45;&gt;Node10</title>
<path fill="none" stroke="midnightblue" d="M161.51,-56.08C160.32,-48.93 158.61,-38.64 157.12,-29.69"/>
<polygon fill="midnightblue" stroke="midnightblue" points="160.55,-29.04 155.46,-19.75 153.65,-30.19 160.55,-29.04"/>
</g>
<!-- Node11 -->
<g id="node11" class="node">
<title>Node11</title>
<g id="a_node11"><a xlink:title=" ">
<polygon fill="white" stroke="#bfbfbf" points="197,-0.5 197,-19.5 271,-19.5 271,-0.5 197,-0.5"/>
<text text-anchor="middle" x="234" y="-7.5" font-family="Helvetica,sans-Serif" font-size="10.00">Eigen/Eigen</text>
</a>
</g>
</g>
<!-- Node9&#45;&gt;Node11 -->
<g id="edge13" class="edge">
<title>Node9&#45;&gt;Node11</title>
<path fill="none" stroke="midnightblue" d="M174.41,-56.32C185.11,-48.18 201.34,-35.84 214.16,-26.09"/>
<polygon fill="midnightblue" stroke="midnightblue" points="216.54,-28.67 222.39,-19.83 212.31,-23.1 216.54,-28.67"/>
</g>
</g>
</svg>
