<?xml version="1.0" encoding="UTF-8" standalone="no"?>
<!DOCTYPE svg PUBLIC "-//W3C//DTD SVG 1.1//EN"
 "http://www.w3.org/Graphics/SVG/1.1/DTD/svg11.dtd">
<!-- Generated by graphviz version 2.43.0 (0)
 -->
<!-- Title: include/mini/basis/linear.hpp Pages: 1 -->
<svg width="1369pt" height="319pt"
 viewBox="0.00 0.00 1369.00 319.00" xmlns="http://www.w3.org/2000/svg" xmlns:xlink="http://www.w3.org/1999/xlink">
<g id="graph0" class="graph" transform="scale(1 1) rotate(0) translate(4 315)">
<title>include/mini/basis/linear.hpp</title>
<polygon fill="white" stroke="transparent" points="-4,4 -4,-315 1365,-315 1365,4 -4,4"/>
<!-- Node1 -->
<g id="node1" class="node">
<title>Node1</title>
<g id="a_node1"><a xlink:title=" ">
<polygon fill="#bfbfbf" stroke="black" points="498.5,-280.5 498.5,-310.5 603.5,-310.5 603.5,-280.5 498.5,-280.5"/>
<text text-anchor="start" x="506.5" y="-298.5" font-family="Helvetica,sans-Serif" font-size="10.00">include/mini/basis</text>
<text text-anchor="middle" x="551" y="-287.5" font-family="Helvetica,sans-Serif" font-size="10.00">/linear.hpp</text>
</a>
</g>
</g>
<!-- Node2 -->
<g id="node2" class="node">
<title>Node2</title>
<g id="a_node2"><a xlink:title=" ">
<polygon fill="white" stroke="#bfbfbf" points="393,-56.5 393,-75.5 453,-75.5 453,-56.5 393,-56.5"/>
<text text-anchor="middle" x="423" y="-63.5" font-family="Helvetica,sans-Serif" font-size="10.00">concepts</text>
</a>
</g>
</g>
<!-- Node1&#45;&gt;Node2 -->
<g id="edge1" class="edge">
<title>Node1&#45;&gt;Node2</title>
<path fill="none" stroke="midnightblue" d="M498.47,-292.61C429.98,-286.98 312.5,-265.8 258,-188 252.9,-180.72 253.65,-175.75 258,-168 284.56,-120.6 343.45,-92.77 383.2,-78.71"/>
<polygon fill="midnightblue" stroke="midnightblue" points="384.52,-81.96 392.86,-75.43 382.27,-75.33 384.52,-81.96"/>
</g>
<!-- Node3 -->
<g id="node3" class="node">
<title>Node3</title>
<g id="a_node3"><a xlink:title=" ">
<polygon fill="white" stroke="#bfbfbf" points="697,-56.5 697,-75.5 749,-75.5 749,-56.5 697,-56.5"/>
<text text-anchor="middle" x="723" y="-63.5" font-family="Helvetica,sans-Serif" font-size="10.00">cassert</text>
</a>
</g>
</g>
<!-- Node1&#45;&gt;Node3 -->
<g id="edge2" class="edge">
<title>Node1&#45;&gt;Node3</title>
<path fill="none" stroke="midnightblue" d="M603.6,-289.6C726.23,-277.37 1027.08,-242.53 1111,-188 1136.86,-171.19 1142.41,-161.32 1152,-132 1154.76,-123.55 1157.99,-118.57 1152,-112 1123.94,-81.26 834,-83.05 759.31,-75.38"/>
<polygon fill="midnightblue" stroke="midnightblue" points="759.62,-71.89 749.25,-74.06 758.71,-78.83 759.62,-71.89"/>
</g>
<!-- Node4 -->
<g id="node4" class="node">
<title>Node4</title>
<g id="a_node4"><a xlink:title=" ">
<polygon fill="white" stroke="#bfbfbf" points="79.5,-0.5 79.5,-19.5 126.5,-19.5 126.5,-0.5 79.5,-0.5"/>
<text text-anchor="middle" x="103" y="-7.5" font-family="Helvetica,sans-Serif" font-size="10.00">cmath</text>
</a>
</g>
</g>
<!-- Node1&#45;&gt;Node4 -->
<g id="edge3" class="edge">
<title>Node1&#45;&gt;Node4</title>
<path fill="none" stroke="midnightblue" d="M498.17,-294.54C360.26,-293.24 0,-280.16 0,-179 0,-179 0,-179 0,-121 0,-76.43 45.62,-42.46 76.14,-24.73"/>
<polygon fill="midnightblue" stroke="midnightblue" points="78.03,-27.68 85.06,-19.75 74.62,-21.57 78.03,-27.68"/>
</g>
<!-- Node5 -->
<g id="node5" class="node">
<title>Node5</title>
<g id="a_node5"><a xlink:title=" ">
<polygon fill="white" stroke="#bfbfbf" points="927,-0.5 927,-19.5 987,-19.5 987,-0.5 927,-0.5"/>
<text text-anchor="middle" x="957" y="-7.5" font-family="Helvetica,sans-Serif" font-size="10.00">iostream</text>
</a>
</g>
</g>
<!-- Node1&#45;&gt;Node5 -->
<g id="edge4" class="edge">
<title>Node1&#45;&gt;Node5</title>
<path fill="none" stroke="midnightblue" d="M603.71,-292.77C739.35,-287.95 1097.82,-272.79 1213,-244 1282.7,-226.58 1361,-250.84 1361,-179 1361,-179 1361,-179 1361,-121 1361,-82.87 1338.58,-74.07 1305,-56 1194.52,3.46 1149.41,-36.23 1025,-20 1015.99,-18.82 1006.31,-17.55 997.16,-16.34"/>
<polygon fill="midnightblue" stroke="midnightblue" points="997.5,-12.85 987.12,-15.01 996.58,-19.79 997.5,-12.85"/>
</g>
<!-- Node6 -->
<g id="node6" class="node">
<title>Node6</title>
<g id="a_node6"><a xlink:title=" ">
<polygon fill="white" stroke="#bfbfbf" points="699.5,-0.5 699.5,-19.5 768.5,-19.5 768.5,-0.5 699.5,-0.5"/>
<text text-anchor="middle" x="734" y="-7.5" font-family="Helvetica,sans-Serif" font-size="10.00">type_traits</text>
</a>
</g>
</g>
<!-- Node1&#45;&gt;Node6 -->
<g id="edge5" class="edge">
<title>Node1&#45;&gt;Node6</title>
<path fill="none" stroke="midnightblue" d="M603.76,-292.18C777.85,-283.84 1323,-251.88 1323,-179 1323,-179 1323,-179 1323,-121 1323,-85.61 1307.73,-73.55 1277,-56 1255.48,-43.71 905.17,-21.38 778.91,-13.69"/>
<polygon fill="midnightblue" stroke="midnightblue" points="779,-10.19 768.81,-13.07 778.58,-17.17 779,-10.19"/>
</g>
<!-- Node7 -->
<g id="node7" class="node">
<title>Node7</title>
<g id="a_node7"><a xlink:href="algebra_2eigen_8hpp.html" target="_top" xlink:title=" ">
<polygon fill="white" stroke="black" points="131.5,-56.5 131.5,-75.5 260.5,-75.5 260.5,-56.5 131.5,-56.5"/>
<text text-anchor="middle" x="196" y="-63.5" font-family="Helvetica,sans-Serif" font-size="10.00">mini/algebra/eigen.hpp</text>
</a>
</g>
</g>
<!-- Node1&#45;&gt;Node7 -->
<g id="edge6" class="edge">
<title>Node1&#45;&gt;Node7</title>
<path fill="none" stroke="midnightblue" d="M498.19,-291.65C414.47,-286.31 255.89,-272.68 208,-244 154.85,-212.17 144.42,-190.83 125,-132 122.21,-123.56 120.72,-119.79 125,-112 132.89,-97.66 147.49,-87.25 161.4,-80.08"/>
<polygon fill="midnightblue" stroke="midnightblue" points="163.29,-83.06 170.84,-75.62 160.3,-76.73 163.29,-83.06"/>
</g>
<!-- Node11 -->
<g id="node11" class="node">
<title>Node11</title>
<g id="a_node11"><a xlink:href="function_8hpp.html" target="_top" xlink:title=" ">
<polygon fill="white" stroke="black" points="267.5,-168.5 267.5,-187.5 420.5,-187.5 420.5,-168.5 267.5,-168.5"/>
<text text-anchor="middle" x="344" y="-175.5" font-family="Helvetica,sans-Serif" font-size="10.00">mini/integrator/function.hpp</text>
</a>
</g>
</g>
<!-- Node1&#45;&gt;Node11 -->
<g id="edge11" class="edge">
<title>Node1&#45;&gt;Node11</title>
<path fill="none" stroke="midnightblue" d="M525.62,-280.34C485.51,-257.96 407.98,-214.7 368.46,-192.65"/>
<polygon fill="midnightblue" stroke="midnightblue" points="369.71,-189.34 359.27,-187.52 366.3,-195.45 369.71,-189.34"/>
</g>
<!-- Node13 -->
<g id="node13" class="node">
<title>Node13</title>
<g id="a_node13"><a xlink:href="integrator_2face_8hpp.html" target="_top" xlink:title=" ">
<polygon fill="white" stroke="black" points="710,-224.5 710,-243.5 844,-243.5 844,-224.5 710,-224.5"/>
<text text-anchor="middle" x="777" y="-231.5" font-family="Helvetica,sans-Serif" font-size="10.00">mini/integrator/face.hpp</text>
</a>
</g>
</g>
<!-- Node1&#45;&gt;Node13 -->
<g id="edge17" class="edge">
<title>Node1&#45;&gt;Node13</title>
<path fill="none" stroke="midnightblue" d="M603.7,-280.62C643.52,-270.14 697.47,-255.94 734.54,-246.18"/>
<polygon fill="midnightblue" stroke="midnightblue" points="735.74,-249.48 744.52,-243.55 733.96,-242.71 735.74,-249.48"/>
</g>
<!-- Node24 -->
<g id="node24" class="node">
<title>Node24</title>
<g id="a_node24"><a xlink:href="integrator_2cell_8hpp.html" target="_top" xlink:title=" ">
<polygon fill="white" stroke="black" points="520.5,-224.5 520.5,-243.5 651.5,-243.5 651.5,-224.5 520.5,-224.5"/>
<text text-anchor="middle" x="586" y="-231.5" font-family="Helvetica,sans-Serif" font-size="10.00">mini/integrator/cell.hpp</text>
</a>
</g>
</g>
<!-- Node1&#45;&gt;Node24 -->
<g id="edge47" class="edge">
<title>Node1&#45;&gt;Node24</title>
<path fill="none" stroke="midnightblue" d="M559.29,-280.4C564.22,-272.02 570.51,-261.33 575.75,-252.42"/>
<polygon fill="midnightblue" stroke="midnightblue" points="578.85,-254.05 580.91,-243.66 572.82,-250.5 578.85,-254.05"/>
</g>
<!-- Node26 -->
<g id="node26" class="node">
<title>Node26</title>
<g id="a_node26"><a xlink:href="taylor_8hpp.html" target="_top" xlink:title=" ">
<polygon fill="white" stroke="black" points="142.5,-112.5 142.5,-131.5 261.5,-131.5 261.5,-112.5 142.5,-112.5"/>
<text text-anchor="middle" x="202" y="-119.5" font-family="Helvetica,sans-Serif" font-size="10.00">mini/basis/taylor.hpp</text>
</a>
</g>
</g>
<!-- Node1&#45;&gt;Node26 -->
<g id="edge59" class="edge">
<title>Node1&#45;&gt;Node26</title>
<path fill="none" stroke="midnightblue" d="M498.47,-293.5C416.38,-290.79 263.09,-280.82 225,-244 197.41,-217.33 197.2,-168.6 199.54,-141.84"/>
<polygon fill="midnightblue" stroke="midnightblue" points="203.06,-141.86 200.66,-131.54 196.1,-141.1 203.06,-141.86"/>
</g>
<!-- Node7&#45;&gt;Node4 -->
<g id="edge8" class="edge">
<title>Node7&#45;&gt;Node4</title>
<path fill="none" stroke="midnightblue" d="M181.06,-56.32C166.41,-47.82 143.87,-34.73 126.76,-24.8"/>
<polygon fill="midnightblue" stroke="midnightblue" points="128.31,-21.65 117.9,-19.65 124.8,-27.7 128.31,-21.65"/>
</g>
<!-- Node8 -->
<g id="node8" class="node">
<title>Node8</title>
<g id="a_node8"><a xlink:title=" ">
<polygon fill="white" stroke="#bfbfbf" points="449,-0.5 449,-19.5 513,-19.5 513,-0.5 449,-0.5"/>
<text text-anchor="middle" x="481" y="-7.5" font-family="Helvetica,sans-Serif" font-size="10.00">algorithm</text>
</a>
</g>
</g>
<!-- Node7&#45;&gt;Node8 -->
<g id="edge7" class="edge">
<title>Node7&#45;&gt;Node8</title>
<path fill="none" stroke="midnightblue" d="M241.16,-56.44C295.46,-46.16 385.87,-29.02 438.81,-18.99"/>
<polygon fill="midnightblue" stroke="midnightblue" points="439.7,-22.39 448.88,-17.09 438.4,-15.51 439.7,-22.39"/>
</g>
<!-- Node9 -->
<g id="node9" class="node">
<title>Node9</title>
<g id="a_node9"><a xlink:title=" ">
<polygon fill="white" stroke="#bfbfbf" points="158.5,-0.5 158.5,-19.5 207.5,-19.5 207.5,-0.5 158.5,-0.5"/>
<text text-anchor="middle" x="183" y="-7.5" font-family="Helvetica,sans-Serif" font-size="10.00">cstdlib</text>
</a>
</g>
</g>
<!-- Node7&#45;&gt;Node9 -->
<g id="edge9" class="edge">
<title>Node7&#45;&gt;Node9</title>
<path fill="none" stroke="midnightblue" d="M193.85,-56.08C192.13,-48.93 189.65,-38.64 187.5,-29.69"/>
<polygon fill="midnightblue" stroke="midnightblue" points="190.85,-28.65 185.11,-19.75 184.04,-30.29 190.85,-28.65"/>
</g>
<!-- Node10 -->
<g id="node10" class="node">
<title>Node10</title>
<g id="a_node10"><a xlink:title=" ">
<polygon fill="white" stroke="#bfbfbf" points="226,-0.5 226,-19.5 300,-19.5 300,-0.5 226,-0.5"/>
<text text-anchor="middle" x="263" y="-7.5" font-family="Helvetica,sans-Serif" font-size="10.00">Eigen/Eigen</text>
</a>
</g>
</g>
<!-- Node7&#45;&gt;Node10 -->
<g id="edge10" class="edge">
<title>Node7&#45;&gt;Node10</title>
<path fill="none" stroke="midnightblue" d="M206.76,-56.32C216.77,-48.26 231.89,-36.08 243.93,-26.37"/>
<polygon fill="midnightblue" stroke="midnightblue" points="246.45,-28.83 252.04,-19.83 242.06,-23.38 246.45,-28.83"/>
</g>
<!-- Node11&#45;&gt;Node2 -->
<g id="edge12" class="edge">
<title>Node11&#45;&gt;Node2</title>
<path fill="none" stroke="midnightblue" d="M349.14,-168.38C356.77,-155.73 371.73,-131.53 386,-112 393.08,-102.3 401.56,-91.92 408.61,-83.57"/>
<polygon fill="midnightblue" stroke="midnightblue" points="411.48,-85.6 415.32,-75.73 406.16,-81.05 411.48,-85.6"/>
</g>
<!-- Node11&#45;&gt;Node4 -->
<g id="edge13" class="edge">
<title>Node11&#45;&gt;Node4</title>
<path fill="none" stroke="midnightblue" d="M267.35,-169.58C212.83,-162.8 145.72,-150.9 125,-132 96.56,-106.07 97.26,-56.67 100.17,-29.7"/>
<polygon fill="midnightblue" stroke="midnightblue" points="103.66,-30.02 101.47,-19.65 96.72,-29.12 103.66,-30.02"/>
</g>
<!-- Node11&#45;&gt;Node6 -->
<g id="edge14" class="edge">
<title>Node11&#45;&gt;Node6</title>
<path fill="none" stroke="midnightblue" d="M343.96,-168.27C344.36,-145.68 348.84,-85 384,-56 407.16,-36.9 600,-20.67 689.14,-14.11"/>
<polygon fill="midnightblue" stroke="midnightblue" points="689.5,-17.59 699.22,-13.38 688.99,-10.61 689.5,-17.59"/>
</g>
<!-- Node11&#45;&gt;Node7 -->
<g id="edge16" class="edge">
<title>Node11&#45;&gt;Node7</title>
<path fill="none" stroke="midnightblue" d="M267.36,-170.67C214.16,-164.5 149.91,-152.89 133,-132 117.55,-112.91 144.43,-92.91 167.73,-80.22"/>
<polygon fill="midnightblue" stroke="midnightblue" points="169.43,-83.28 176.71,-75.57 166.22,-77.06 169.43,-83.28"/>
</g>
<!-- Node12 -->
<g id="node12" class="node">
<title>Node12</title>
<g id="a_node12"><a xlink:title=" ">
<polygon fill="white" stroke="#bfbfbf" points="394.5,-112.5 394.5,-131.5 439.5,-131.5 439.5,-112.5 394.5,-112.5"/>
<text text-anchor="middle" x="417" y="-119.5" font-family="Helvetica,sans-Serif" font-size="10.00">utility</text>
</a>
</g>
</g>
<!-- Node11&#45;&gt;Node12 -->
<g id="edge15" class="edge">
<title>Node11&#45;&gt;Node12</title>
<path fill="none" stroke="midnightblue" d="M355.73,-168.32C366.84,-160.11 383.74,-147.6 396.98,-137.81"/>
<polygon fill="midnightblue" stroke="midnightblue" points="399.1,-140.59 405.06,-131.83 394.94,-134.97 399.1,-140.59"/>
</g>
<!-- Node13&#45;&gt;Node2 -->
<g id="edge18" class="edge">
<title>Node13&#45;&gt;Node2</title>
<path fill="none" stroke="midnightblue" d="M709.96,-224.55C651.63,-216.38 572.15,-203.07 544,-188 502.16,-165.61 502.63,-145.48 469,-112 459.18,-102.22 448.08,-91.36 439.24,-82.75"/>
<polygon fill="midnightblue" stroke="midnightblue" points="441.47,-80.04 431.86,-75.58 436.59,-85.06 441.47,-80.04"/>
</g>
<!-- Node13&#45;&gt;Node11 -->
<g id="edge46" class="edge">
<title>Node13&#45;&gt;Node11</title>
<path fill="none" stroke="midnightblue" d="M709.82,-224.62C632.17,-214.94 504.57,-199.03 422.44,-188.78"/>
<polygon fill="midnightblue" stroke="midnightblue" points="422.77,-185.3 412.41,-187.53 421.9,-192.24 422.77,-185.3"/>
</g>
<!-- Node13&#45;&gt;Node12 -->
<g id="edge20" class="edge">
<title>Node13&#45;&gt;Node12</title>
<path fill="none" stroke="midnightblue" d="M709.96,-225.04C643.33,-216.52 546.14,-202.29 511,-188 481.46,-175.99 451.97,-153.44 434.1,-138.32"/>
<polygon fill="midnightblue" stroke="midnightblue" points="436.16,-135.48 426.31,-131.57 431.58,-140.77 436.16,-135.48"/>
</g>
<!-- Node14 -->
<g id="node14" class="node">
<title>Node14</title>
<g id="a_node14"><a xlink:title=" ">
<polygon fill="white" stroke="#bfbfbf" points="900,-112.5 900,-131.5 958,-131.5 958,-112.5 900,-112.5"/>
<text text-anchor="middle" x="929" y="-119.5" font-family="Helvetica,sans-Serif" font-size="10.00">memory</text>
</a>
</g>
</g>
<!-- Node13&#45;&gt;Node14 -->
<g id="edge19" class="edge">
<title>Node13&#45;&gt;Node14</title>
<path fill="none" stroke="midnightblue" d="M830.16,-224.44C854.95,-218.06 883.26,-207.01 903,-188 915.84,-175.64 922.5,-156.11 925.85,-141.69"/>
<polygon fill="midnightblue" stroke="midnightblue" points="929.28,-142.34 927.81,-131.85 922.42,-140.97 929.28,-142.34"/>
</g>
<!-- Node15 -->
<g id="node15" class="node">
<title>Node15</title>
<g id="a_node15"><a xlink:title=" ">
<polygon fill="white" stroke="#bfbfbf" points="1033.5,-0.5 1033.5,-19.5 1080.5,-19.5 1080.5,-0.5 1033.5,-0.5"/>
<text text-anchor="middle" x="1057" y="-7.5" font-family="Helvetica,sans-Serif" font-size="10.00">vector</text>
</a>
</g>
</g>
<!-- Node13&#45;&gt;Node15 -->
<g id="edge21" class="edge">
<title>Node13&#45;&gt;Node15</title>
<path fill="none" stroke="midnightblue" d="M844.07,-228.48C912.13,-222.84 1020.1,-211 1111,-188 1179.18,-170.75 1200.1,-170.43 1259,-132 1288.22,-112.94 1300.8,-108.29 1314,-76 1317.36,-67.77 1319.72,-62.81 1314,-56 1285.91,-22.56 1154.3,-13.96 1091.08,-11.76"/>
<polygon fill="midnightblue" stroke="midnightblue" points="1090.93,-8.25 1080.82,-11.44 1090.71,-15.25 1090.93,-8.25"/>
</g>
<!-- Node16 -->
<g id="node16" class="node">
<title>Node16</title>
<g id="a_node16"><a xlink:href="coordinate_2face_8hpp.html" target="_top" xlink:title=" ">
<polygon fill="white" stroke="black" points="964,-168.5 964,-187.5 1102,-187.5 1102,-168.5 964,-168.5"/>
<text text-anchor="middle" x="1033" y="-175.5" font-family="Helvetica,sans-Serif" font-size="10.00">mini/coordinate/face.hpp</text>
</a>
</g>
</g>
<!-- Node13&#45;&gt;Node16 -->
<g id="edge22" class="edge">
<title>Node13&#45;&gt;Node16</title>
<path fill="none" stroke="midnightblue" d="M817.56,-224.44C862.32,-215 934.38,-199.8 982.7,-189.61"/>
<polygon fill="midnightblue" stroke="midnightblue" points="983.56,-193.01 992.63,-187.52 982.12,-186.16 983.56,-193.01"/>
</g>
<!-- Node23 -->
<g id="node23" class="node">
<title>Node23</title>
<g id="a_node23"><a xlink:href="integrator_2element_8hpp.html" target="_top" xlink:title=" ">
<polygon fill="white" stroke="black" points="705,-168.5 705,-187.5 859,-187.5 859,-168.5 705,-168.5"/>
<text text-anchor="middle" x="782" y="-175.5" font-family="Helvetica,sans-Serif" font-size="10.00">mini/integrator/element.hpp</text>
</a>
</g>
</g>
<!-- Node13&#45;&gt;Node23 -->
<g id="edge43" class="edge">
<title>Node13&#45;&gt;Node23</title>
<path fill="none" stroke="midnightblue" d="M777.83,-224.08C778.48,-217.01 779.42,-206.86 780.24,-197.99"/>
<polygon fill="midnightblue" stroke="midnightblue" points="783.75,-198.03 781.19,-187.75 776.78,-197.39 783.75,-198.03"/>
</g>
<!-- Node16&#45;&gt;Node2 -->
<g id="edge23" class="edge">
<title>Node16&#45;&gt;Node2</title>
<path fill="none" stroke="midnightblue" d="M1027.32,-168.35C1017.19,-153.75 994.48,-124.61 967,-112 921.54,-91.14 581.05,-74.08 463.09,-68.74"/>
<polygon fill="midnightblue" stroke="midnightblue" points="463.18,-65.24 453.03,-68.29 462.87,-72.23 463.18,-65.24"/>
</g>
<!-- Node16&#45;&gt;Node6 -->
<g id="edge27" class="edge">
<title>Node16&#45;&gt;Node6</title>
<path fill="none" stroke="midnightblue" d="M1062.79,-168.4C1119.47,-151.36 1239.12,-111.84 1261,-76 1265.63,-68.41 1267.01,-62.55 1261,-56 1244.76,-38.32 903.28,-19.49 778.85,-13.19"/>
<polygon fill="midnightblue" stroke="midnightblue" points="778.7,-9.68 768.54,-12.67 778.35,-16.67 778.7,-9.68"/>
</g>
<!-- Node16&#45;&gt;Node8 -->
<g id="edge24" class="edge">
<title>Node16&#45;&gt;Node8</title>
<path fill="none" stroke="midnightblue" d="M1038.39,-168.38C1047.61,-154.37 1067.78,-126.73 1092,-112 1147.86,-78.04 1272.81,-103.59 1228,-56 1215.84,-43.08 680.35,-19.44 523.65,-12.78"/>
<polygon fill="midnightblue" stroke="midnightblue" points="523.6,-9.28 513.46,-12.35 523.3,-16.27 523.6,-9.28"/>
</g>
<!-- Node16&#45;&gt;Node14 -->
<g id="edge26" class="edge">
<title>Node16&#45;&gt;Node14</title>
<path fill="none" stroke="midnightblue" d="M1016.29,-168.32C999.69,-159.7 974,-146.36 954.78,-136.39"/>
<polygon fill="midnightblue" stroke="midnightblue" points="956.16,-133.16 945.67,-131.65 952.93,-139.37 956.16,-133.16"/>
</g>
<!-- Node16&#45;&gt;Node15 -->
<g id="edge28" class="edge">
<title>Node16&#45;&gt;Node15</title>
<path fill="none" stroke="midnightblue" d="M1096.71,-168.49C1134.64,-161.84 1183.01,-150.52 1223,-132 1261.07,-114.36 1280.08,-113.45 1299,-76 1303.01,-68.07 1304.68,-62.84 1299,-56 1272.91,-24.61 1151,-15.01 1090.81,-12.16"/>
<polygon fill="midnightblue" stroke="midnightblue" points="1090.81,-8.66 1080.67,-11.71 1090.5,-15.65 1090.81,-8.66"/>
</g>
<!-- Node17 -->
<g id="node17" class="node">
<title>Node17</title>
<g id="a_node17"><a xlink:title=" ">
<polygon fill="white" stroke="#bfbfbf" points="1101,-112.5 1101,-131.5 1143,-131.5 1143,-112.5 1101,-112.5"/>
<text text-anchor="middle" x="1122" y="-119.5" font-family="Helvetica,sans-Serif" font-size="10.00">array</text>
</a>
</g>
</g>
<!-- Node16&#45;&gt;Node17 -->
<g id="edge25" class="edge">
<title>Node16&#45;&gt;Node17</title>
<path fill="none" stroke="midnightblue" d="M1047.3,-168.32C1061.18,-159.9 1082.49,-146.97 1098.8,-137.07"/>
<polygon fill="midnightblue" stroke="midnightblue" points="1101,-139.83 1107.74,-131.65 1097.37,-133.85 1101,-139.83"/>
</g>
<!-- Node18 -->
<g id="node18" class="node">
<title>Node18</title>
<g id="a_node18"><a xlink:href="coordinate_2element_8hpp.html" target="_top" xlink:title=" ">
<polygon fill="white" stroke="black" points="686,-112.5 686,-131.5 844,-131.5 844,-112.5 686,-112.5"/>
<text text-anchor="middle" x="765" y="-119.5" font-family="Helvetica,sans-Serif" font-size="10.00">mini/coordinate/element.hpp</text>
</a>
</g>
</g>
<!-- Node16&#45;&gt;Node18 -->
<g id="edge29" class="edge">
<title>Node16&#45;&gt;Node18</title>
<path fill="none" stroke="midnightblue" d="M990.53,-168.44C943.59,-158.98 867.92,-143.74 817.35,-133.55"/>
<polygon fill="midnightblue" stroke="midnightblue" points="817.76,-130.06 807.27,-131.52 816.38,-136.92 817.76,-130.06"/>
</g>
<!-- Node18&#45;&gt;Node2 -->
<g id="edge30" class="edge">
<title>Node18&#45;&gt;Node2</title>
<path fill="none" stroke="midnightblue" d="M710.81,-112.44C641.9,-101.56 524.53,-83.03 463.13,-73.34"/>
<polygon fill="midnightblue" stroke="midnightblue" points="463.48,-69.85 453.05,-71.75 462.39,-76.76 463.48,-69.85"/>
</g>
<!-- Node18&#45;&gt;Node3 -->
<g id="edge31" class="edge">
<title>Node18&#45;&gt;Node3</title>
<path fill="none" stroke="midnightblue" d="M758.06,-112.08C752.07,-104.38 743.25,-93.03 735.95,-83.65"/>
<polygon fill="midnightblue" stroke="midnightblue" points="738.71,-81.5 729.81,-75.75 733.18,-85.79 738.71,-81.5"/>
</g>
<!-- Node18&#45;&gt;Node4 -->
<g id="edge32" class="edge">
<title>Node18&#45;&gt;Node4</title>
<path fill="none" stroke="midnightblue" d="M730.67,-112.5C674.71,-98.9 560.21,-72.14 462,-56 323.83,-33.29 287.37,-41.46 149,-20 145.04,-19.39 140.91,-18.68 136.81,-17.93"/>
<polygon fill="midnightblue" stroke="midnightblue" points="137.29,-14.46 126.81,-16.03 135.98,-21.33 137.29,-14.46"/>
</g>
<!-- Node18&#45;&gt;Node5 -->
<g id="edge35" class="edge">
<title>Node18&#45;&gt;Node5</title>
<path fill="none" stroke="midnightblue" d="M832.45,-112.5C898.02,-103.54 989.28,-88.97 1000,-76 1013.29,-59.93 994.99,-39.65 978.32,-26.05"/>
<polygon fill="midnightblue" stroke="midnightblue" points="979.99,-22.92 969.93,-19.61 975.73,-28.47 979.99,-22.92"/>
</g>
<!-- Node18&#45;&gt;Node7 -->
<g id="edge37" class="edge">
<title>Node18&#45;&gt;Node7</title>
<path fill="none" stroke="midnightblue" d="M685.88,-113.49C575.99,-103.06 378.54,-84.32 270.92,-74.11"/>
<polygon fill="midnightblue" stroke="midnightblue" points="271.08,-70.61 260.8,-73.15 270.42,-77.58 271.08,-70.61"/>
</g>
<!-- Node18&#45;&gt;Node15 -->
<g id="edge36" class="edge">
<title>Node18&#45;&gt;Node15</title>
<path fill="none" stroke="midnightblue" d="M827.5,-112.47C896.69,-102.62 1000.53,-86.42 1016,-76 1032.72,-64.74 1043.99,-44.12 1050.42,-29.12"/>
<polygon fill="midnightblue" stroke="midnightblue" points="1053.67,-30.4 1054.1,-19.81 1047.16,-27.82 1053.67,-30.4"/>
</g>
<!-- Node19 -->
<g id="node19" class="node">
<title>Node19</title>
<g id="a_node19"><a xlink:title=" ">
<polygon fill="white" stroke="#bfbfbf" points="623,-56.5 623,-75.5 679,-75.5 679,-56.5 623,-56.5"/>
<text text-anchor="middle" x="651" y="-63.5" font-family="Helvetica,sans-Serif" font-size="10.00">numeric</text>
</a>
</g>
</g>
<!-- Node18&#45;&gt;Node19 -->
<g id="edge33" class="edge">
<title>Node18&#45;&gt;Node19</title>
<path fill="none" stroke="midnightblue" d="M746.94,-112.44C728.43,-103.68 699.42,-89.94 678.14,-79.86"/>
<polygon fill="midnightblue" stroke="midnightblue" points="679.51,-76.63 668.98,-75.52 676.52,-82.96 679.51,-76.63"/>
</g>
<!-- Node20 -->
<g id="node20" class="node">
<title>Node20</title>
<g id="a_node20"><a xlink:title=" ">
<polygon fill="white" stroke="#bfbfbf" points="767.5,-56.5 767.5,-75.5 850.5,-75.5 850.5,-56.5 767.5,-56.5"/>
<text text-anchor="middle" x="809" y="-63.5" font-family="Helvetica,sans-Serif" font-size="10.00">initializer_list</text>
</a>
</g>
</g>
<!-- Node18&#45;&gt;Node20 -->
<g id="edge34" class="edge">
<title>Node18&#45;&gt;Node20</title>
<path fill="none" stroke="midnightblue" d="M772.27,-112.08C778.54,-104.38 787.79,-93.03 795.43,-83.65"/>
<polygon fill="midnightblue" stroke="midnightblue" points="798.27,-85.71 801.87,-75.75 792.84,-81.29 798.27,-85.71"/>
</g>
<!-- Node21 -->
<g id="node21" class="node">
<title>Node21</title>
<g id="a_node21"><a xlink:href="root_8hpp.html" target="_top" xlink:title=" ">
<polygon fill="white" stroke="black" points="869,-56.5 869,-75.5 991,-75.5 991,-56.5 869,-56.5"/>
<text text-anchor="middle" x="930" y="-63.5" font-family="Helvetica,sans-Serif" font-size="10.00">mini/algebra/root.hpp</text>
</a>
</g>
</g>
<!-- Node18&#45;&gt;Node21 -->
<g id="edge38" class="edge">
<title>Node18&#45;&gt;Node21</title>
<path fill="none" stroke="midnightblue" d="M791.14,-112.44C819.02,-103.32 863.35,-88.81 894.4,-78.65"/>
<polygon fill="midnightblue" stroke="midnightblue" points="895.56,-81.95 903.98,-75.52 893.38,-75.3 895.56,-81.95"/>
</g>
<!-- Node22 -->
<g id="node22" class="node">
<title>Node22</title>
<g id="a_node22"><a xlink:href="index_8hpp.html" target="_top" xlink:title=" ">
<polygon fill="white" stroke="black" points="1085,-56.5 1085,-75.5 1219,-75.5 1219,-56.5 1085,-56.5"/>
<text text-anchor="middle" x="1152" y="-63.5" font-family="Helvetica,sans-Serif" font-size="10.00">mini/constant/index.hpp</text>
</a>
</g>
</g>
<!-- Node18&#45;&gt;Node22 -->
<g id="edge42" class="edge">
<title>Node18&#45;&gt;Node22</title>
<path fill="none" stroke="midnightblue" d="M826.32,-112.44C895.53,-102.79 1007.95,-87.1 1080.94,-76.92"/>
<polygon fill="midnightblue" stroke="midnightblue" points="1081.55,-80.36 1090.97,-75.52 1080.58,-73.43 1081.55,-80.36"/>
</g>
<!-- Node21&#45;&gt;Node5 -->
<g id="edge40" class="edge">
<title>Node21&#45;&gt;Node5</title>
<path fill="none" stroke="midnightblue" d="M934.46,-56.08C938.15,-48.69 943.52,-37.95 948.09,-28.81"/>
<polygon fill="midnightblue" stroke="midnightblue" points="951.28,-30.26 952.62,-19.75 945.02,-27.13 951.28,-30.26"/>
</g>
<!-- Node21&#45;&gt;Node6 -->
<g id="edge41" class="edge">
<title>Node21&#45;&gt;Node6</title>
<path fill="none" stroke="midnightblue" d="M898.94,-56.44C865.4,-47.2 811.8,-32.44 774.86,-22.26"/>
<polygon fill="midnightblue" stroke="midnightblue" points="775.48,-18.8 764.91,-19.52 773.62,-25.55 775.48,-18.8"/>
</g>
<!-- Node21&#45;&gt;Node15 -->
<g id="edge39" class="edge">
<title>Node21&#45;&gt;Node15</title>
<path fill="none" stroke="midnightblue" d="M950.12,-56.44C971.02,-47.56 1003.93,-33.56 1027.72,-23.45"/>
<polygon fill="midnightblue" stroke="midnightblue" points="1029.14,-26.65 1036.97,-19.52 1026.4,-20.21 1029.14,-26.65"/>
</g>
<!-- Node23&#45;&gt;Node18 -->
<g id="edge44" class="edge">
<title>Node23&#45;&gt;Node18</title>
<path fill="none" stroke="midnightblue" d="M779.19,-168.08C776.92,-160.85 773.63,-150.41 770.79,-141.4"/>
<polygon fill="midnightblue" stroke="midnightblue" points="774.1,-140.24 767.75,-131.75 767.42,-142.34 774.1,-140.24"/>
</g>
<!-- Node23&#45;&gt;Node22 -->
<g id="edge45" class="edge">
<title>Node23&#45;&gt;Node22</title>
<path fill="none" stroke="midnightblue" d="M794.93,-168.47C819.23,-152.57 871.06,-119.37 891,-112 950.56,-89.97 1021.81,-78.62 1074.81,-72.83"/>
<polygon fill="midnightblue" stroke="midnightblue" points="1075.24,-76.3 1084.82,-71.78 1074.51,-69.34 1075.24,-76.3"/>
</g>
<!-- Node24&#45;&gt;Node2 -->
<g id="edge48" class="edge">
<title>Node24&#45;&gt;Node2</title>
<path fill="none" stroke="midnightblue" d="M567.35,-224.47C551.27,-216.53 528.03,-203.58 511,-188 476.49,-156.42 446.99,-109.39 432.52,-84.28"/>
<polygon fill="midnightblue" stroke="midnightblue" points="435.54,-82.51 427.58,-75.52 429.45,-85.95 435.54,-82.51"/>
</g>
<!-- Node24&#45;&gt;Node11 -->
<g id="edge58" class="edge">
<title>Node24&#45;&gt;Node11</title>
<path fill="none" stroke="midnightblue" d="M547.65,-224.44C505.53,-215.04 437.79,-199.93 392.13,-189.74"/>
<polygon fill="midnightblue" stroke="midnightblue" points="392.69,-186.28 382.17,-187.52 391.16,-193.11 392.69,-186.28"/>
</g>
<!-- Node24&#45;&gt;Node14 -->
<g id="edge49" class="edge">
<title>Node24&#45;&gt;Node14</title>
<path fill="none" stroke="midnightblue" d="M651.61,-227.47C722.89,-220.6 831.48,-207.37 868,-188 889.06,-176.83 906.86,-155.57 917.7,-140.41"/>
<polygon fill="midnightblue" stroke="midnightblue" points="920.76,-142.13 923.52,-131.9 914.98,-138.18 920.76,-142.13"/>
</g>
<!-- Node24&#45;&gt;Node23 -->
<g id="edge57" class="edge">
<title>Node24&#45;&gt;Node23</title>
<path fill="none" stroke="midnightblue" d="M617.06,-224.44C650.6,-215.2 704.2,-200.44 741.14,-190.26"/>
<polygon fill="midnightblue" stroke="midnightblue" points="742.38,-193.55 751.09,-187.52 740.52,-186.8 742.38,-193.55"/>
</g>
<!-- Node25 -->
<g id="node25" class="node">
<title>Node25</title>
<g id="a_node25"><a xlink:href="coordinate_2cell_8hpp.html" target="_top" xlink:title=" ">
<polygon fill="white" stroke="black" points="553,-168.5 553,-187.5 687,-187.5 687,-168.5 553,-168.5"/>
<text text-anchor="middle" x="620" y="-175.5" font-family="Helvetica,sans-Serif" font-size="10.00">mini/coordinate/cell.hpp</text>
</a>
</g>
</g>
<!-- Node24&#45;&gt;Node25 -->
<g id="edge50" class="edge">
<title>Node24&#45;&gt;Node25</title>
<path fill="none" stroke="midnightblue" d="M591.61,-224.08C596.37,-216.53 603.32,-205.49 609.15,-196.23"/>
<polygon fill="midnightblue" stroke="midnightblue" points="612.12,-198.08 614.49,-187.75 606.2,-194.35 612.12,-198.08"/>
</g>
<!-- Node25&#45;&gt;Node2 -->
<g id="edge51" class="edge">
<title>Node25&#45;&gt;Node2</title>
<path fill="none" stroke="midnightblue" d="M608.03,-168.42C589.61,-155.4 552.97,-130.24 520,-112 498.18,-99.93 472.56,-88.14 453.13,-79.66"/>
<polygon fill="midnightblue" stroke="midnightblue" points="454.43,-76.4 443.86,-75.65 451.65,-82.83 454.43,-76.4"/>
</g>
<!-- Node25&#45;&gt;Node6 -->
<g id="edge54" class="edge">
<title>Node25&#45;&gt;Node6</title>
<path fill="none" stroke="midnightblue" d="M618.53,-168.17C615.93,-154.82 609.49,-129.24 596,-112 574.88,-85.01 521.73,-82.87 543,-56 560.91,-33.39 638.69,-21 689.31,-15.2"/>
<polygon fill="midnightblue" stroke="midnightblue" points="689.8,-18.67 699.35,-14.1 689.03,-11.71 689.8,-18.67"/>
</g>
<!-- Node25&#45;&gt;Node8 -->
<g id="edge52" class="edge">
<title>Node25&#45;&gt;Node8</title>
<path fill="none" stroke="midnightblue" d="M612.58,-168.41C597.6,-151.04 562.75,-110.5 534,-76 520.52,-59.82 505.35,-41.18 494.71,-28.02"/>
<polygon fill="midnightblue" stroke="midnightblue" points="497.15,-25.46 488.14,-19.88 491.7,-29.86 497.15,-25.46"/>
</g>
<!-- Node25&#45;&gt;Node14 -->
<g id="edge53" class="edge">
<title>Node25&#45;&gt;Node14</title>
<path fill="none" stroke="midnightblue" d="M668.96,-168.44C730.16,-157.75 833.68,-139.66 889.87,-129.84"/>
<polygon fill="midnightblue" stroke="midnightblue" points="890.54,-133.27 899.79,-128.1 889.34,-126.38 890.54,-133.27"/>
</g>
<!-- Node25&#45;&gt;Node15 -->
<g id="edge55" class="edge">
<title>Node25&#45;&gt;Node15</title>
<path fill="none" stroke="midnightblue" d="M619.42,-168.47C617.57,-141.24 612.11,-58.08 614,-56 642.7,-24.47 953.68,-25.11 996,-20 1004.86,-18.93 1014.42,-17.6 1023.28,-16.3"/>
<polygon fill="midnightblue" stroke="midnightblue" points="1023.92,-19.74 1033.28,-14.79 1022.88,-12.82 1023.92,-19.74"/>
</g>
<!-- Node25&#45;&gt;Node18 -->
<g id="edge56" class="edge">
<title>Node25&#45;&gt;Node18</title>
<path fill="none" stroke="midnightblue" d="M642.98,-168.44C667.16,-159.44 705.42,-145.19 732.65,-135.05"/>
<polygon fill="midnightblue" stroke="midnightblue" points="733.98,-138.29 742.13,-131.52 731.54,-131.73 733.98,-138.29"/>
</g>
<!-- Node26&#45;&gt;Node2 -->
<g id="edge60" class="edge">
<title>Node26&#45;&gt;Node2</title>
<path fill="none" stroke="midnightblue" d="M237.02,-112.44C276.71,-102.75 341.29,-86.97 382.95,-76.79"/>
<polygon fill="midnightblue" stroke="midnightblue" points="383.88,-80.16 392.76,-74.39 382.22,-73.36 383.88,-80.16"/>
</g>
<!-- Node26&#45;&gt;Node3 -->
<g id="edge61" class="edge">
<title>Node26&#45;&gt;Node3</title>
<path fill="none" stroke="midnightblue" d="M261.5,-118.55C351.63,-114.16 528.21,-102.94 686.79,-75.95"/>
<polygon fill="midnightblue" stroke="midnightblue" points="687.47,-79.39 696.72,-74.24 686.27,-72.49 687.47,-79.39"/>
</g>
<!-- Node26&#45;&gt;Node4 -->
<g id="edge62" class="edge">
<title>Node26&#45;&gt;Node4</title>
<path fill="none" stroke="midnightblue" d="M176.16,-112.41C158.5,-105.29 135.88,-93.47 122,-76 111.38,-62.64 106.7,-43.52 104.63,-29.48"/>
<polygon fill="midnightblue" stroke="midnightblue" points="108.1,-29.04 103.47,-19.51 101.15,-29.85 108.1,-29.04"/>
</g>
<!-- Node26&#45;&gt;Node5 -->
<g id="edge63" class="edge">
<title>Node26&#45;&gt;Node5</title>
<path fill="none" stroke="midnightblue" d="M220.65,-112.47C253.08,-98.06 322.32,-69.19 384,-56 435.73,-44.94 794.97,-21.32 916.74,-13.54"/>
<polygon fill="midnightblue" stroke="midnightblue" points="917.01,-17.03 926.77,-12.9 916.57,-10.05 917.01,-17.03"/>
</g>
<!-- Node26&#45;&gt;Node6 -->
<g id="edge64" class="edge">
<title>Node26&#45;&gt;Node6</title>
<path fill="none" stroke="midnightblue" d="M215.14,-112.35C239.84,-96.26 292.53,-62.74 313,-56 382.06,-33.26 595.81,-18.79 689.37,-13.39"/>
<polygon fill="midnightblue" stroke="midnightblue" points="689.59,-16.88 699.37,-12.82 689.19,-9.9 689.59,-16.88"/>
</g>
<!-- Node26&#45;&gt;Node7 -->
<g id="edge65" class="edge">
<title>Node26&#45;&gt;Node7</title>
<path fill="none" stroke="midnightblue" d="M201.01,-112.08C200.21,-104.93 199.07,-94.64 198.08,-85.69"/>
<polygon fill="midnightblue" stroke="midnightblue" points="201.56,-85.3 196.97,-75.75 194.6,-86.08 201.56,-85.3"/>
</g>
</g>
</svg>
