<?xml version="1.0" encoding="UTF-8" standalone="no"?>
<!DOCTYPE svg PUBLIC "-//W3C//DTD SVG 1.1//EN"
 "http://www.w3.org/Graphics/SVG/1.1/DTD/svg11.dtd">
<!-- Generated by graphviz version 2.43.0 (0)
 -->
<!-- Title: include/mini/aircraft/blade.hpp Pages: 1 -->
<svg width="675pt" height="319pt"
 viewBox="0.00 0.00 674.50 319.00" xmlns="http://www.w3.org/2000/svg" xmlns:xlink="http://www.w3.org/1999/xlink">
<g id="graph0" class="graph" transform="scale(1 1) rotate(0) translate(4 315)">
<title>include/mini/aircraft/blade.hpp</title>
<polygon fill="white" stroke="transparent" points="-4,4 -4,-315 670.5,-315 670.5,4 -4,4"/>
<!-- Node1 -->
<g id="node1" class="node">
<title>Node1</title>
<g id="a_node1"><a xlink:title=" ">
<polygon fill="#bfbfbf" stroke="black" points="451,-280.5 451,-310.5 565,-310.5 565,-280.5 451,-280.5"/>
<text text-anchor="start" x="459" y="-298.5" font-family="Helvetica,sans-Serif" font-size="10.00">include/mini/aircraft</text>
<text text-anchor="middle" x="508" y="-287.5" font-family="Helvetica,sans-Serif" font-size="10.00">/blade.hpp</text>
</a>
</g>
</g>
<!-- Node2 -->
<g id="node2" class="node">
<title>Node2</title>
<g id="a_node2"><a xlink:title=" ">
<polygon fill="white" stroke="#bfbfbf" points="0,-112.5 0,-131.5 60,-131.5 60,-112.5 0,-112.5"/>
<text text-anchor="middle" x="30" y="-119.5" font-family="Helvetica,sans-Serif" font-size="10.00">concepts</text>
</a>
</g>
</g>
<!-- Node1&#45;&gt;Node2 -->
<g id="edge1" class="edge">
<title>Node1&#45;&gt;Node2</title>
<path fill="none" stroke="midnightblue" d="M450.89,-290.9C334.22,-282.19 75.21,-255.52 24,-188 13.96,-174.76 17.39,-155.36 22.15,-141.21"/>
<polygon fill="midnightblue" stroke="midnightblue" points="25.53,-142.18 25.85,-131.59 18.99,-139.67 25.53,-142.18"/>
</g>
<!-- Node3 -->
<g id="node3" class="node">
<title>Node3</title>
<g id="a_node3"><a xlink:title=" ">
<polygon fill="white" stroke="#bfbfbf" points="446,-112.5 446,-131.5 506,-131.5 506,-112.5 446,-112.5"/>
<text text-anchor="middle" x="476" y="-119.5" font-family="Helvetica,sans-Serif" font-size="10.00">iostream</text>
</a>
</g>
</g>
<!-- Node1&#45;&gt;Node3 -->
<g id="edge2" class="edge">
<title>Node1&#45;&gt;Node3</title>
<path fill="none" stroke="midnightblue" d="M505.38,-280.47C499.64,-249.7 485.95,-176.33 479.49,-141.7"/>
<polygon fill="midnightblue" stroke="midnightblue" points="482.87,-140.75 477.6,-131.56 475.99,-142.03 482.87,-140.75"/>
</g>
<!-- Node4 -->
<g id="node4" class="node">
<title>Node4</title>
<g id="a_node4"><a xlink:title=" ">
<polygon fill="white" stroke="#bfbfbf" points="536.5,-224.5 536.5,-243.5 601.5,-243.5 601.5,-224.5 536.5,-224.5"/>
<text text-anchor="middle" x="569" y="-231.5" font-family="Helvetica,sans-Serif" font-size="10.00">stdexcept</text>
</a>
</g>
</g>
<!-- Node1&#45;&gt;Node4 -->
<g id="edge3" class="edge">
<title>Node1&#45;&gt;Node4</title>
<path fill="none" stroke="midnightblue" d="M522.46,-280.4C531.59,-271.49 543.42,-259.95 552.86,-250.74"/>
<polygon fill="midnightblue" stroke="midnightblue" points="555.41,-253.15 560.12,-243.66 550.52,-248.13 555.41,-253.15"/>
</g>
<!-- Node5 -->
<g id="node5" class="node">
<title>Node5</title>
<g id="a_node5"><a xlink:title=" ">
<polygon fill="white" stroke="#bfbfbf" points="619.5,-224.5 619.5,-243.5 666.5,-243.5 666.5,-224.5 619.5,-224.5"/>
<text text-anchor="middle" x="643" y="-231.5" font-family="Helvetica,sans-Serif" font-size="10.00">vector</text>
</a>
</g>
</g>
<!-- Node1&#45;&gt;Node5 -->
<g id="edge4" class="edge">
<title>Node1&#45;&gt;Node5</title>
<path fill="none" stroke="midnightblue" d="M539.99,-280.4C562.44,-270.51 592.21,-257.38 613.98,-247.79"/>
<polygon fill="midnightblue" stroke="midnightblue" points="615.62,-250.89 623.36,-243.66 612.79,-244.49 615.62,-250.89"/>
</g>
<!-- Node6 -->
<g id="node6" class="node">
<title>Node6</title>
<g id="a_node6"><a xlink:href="section_8hpp.html" target="_top" xlink:title=" ">
<polygon fill="white" stroke="black" points="233.5,-224.5 233.5,-243.5 368.5,-243.5 368.5,-224.5 233.5,-224.5"/>
<text text-anchor="middle" x="301" y="-231.5" font-family="Helvetica,sans-Serif" font-size="10.00">mini/aircraft/section.hpp</text>
</a>
</g>
</g>
<!-- Node1&#45;&gt;Node6 -->
<g id="edge5" class="edge">
<title>Node1&#45;&gt;Node6</title>
<path fill="none" stroke="midnightblue" d="M459.21,-280.47C423.03,-270.08 374.33,-256.08 340.56,-246.37"/>
<polygon fill="midnightblue" stroke="midnightblue" points="341.17,-242.91 330.59,-243.51 339.24,-249.63 341.17,-242.91"/>
</g>
<!-- Node6&#45;&gt;Node2 -->
<g id="edge6" class="edge">
<title>Node6&#45;&gt;Node2</title>
<path fill="none" stroke="midnightblue" d="M233.34,-230.5C164.12,-226.43 63.12,-215.78 37,-188 25.6,-175.88 24.96,-156.32 26.5,-141.82"/>
<polygon fill="midnightblue" stroke="midnightblue" points="29.96,-142.33 27.95,-131.92 23.04,-141.31 29.96,-142.33"/>
</g>
<!-- Node6&#45;&gt;Node3 -->
<g id="edge8" class="edge">
<title>Node6&#45;&gt;Node3</title>
<path fill="none" stroke="midnightblue" d="M368.79,-225.95C397.17,-219.9 428.67,-208.7 451,-188 464,-175.95 470.31,-156.38 473.33,-141.86"/>
<polygon fill="midnightblue" stroke="midnightblue" points="476.79,-142.4 475.05,-131.94 469.89,-141.2 476.79,-142.4"/>
</g>
<!-- Node7 -->
<g id="node7" class="node">
<title>Node7</title>
<g id="a_node7"><a xlink:title=" ">
<polygon fill="white" stroke="#bfbfbf" points="390,-168.5 390,-187.5 442,-187.5 442,-168.5 390,-168.5"/>
<text text-anchor="middle" x="416" y="-175.5" font-family="Helvetica,sans-Serif" font-size="10.00">cassert</text>
</a>
</g>
</g>
<!-- Node6&#45;&gt;Node7 -->
<g id="edge7" class="edge">
<title>Node6&#45;&gt;Node7</title>
<path fill="none" stroke="midnightblue" d="M319.22,-224.44C337.9,-215.68 367.16,-201.94 388.62,-191.86"/>
<polygon fill="midnightblue" stroke="midnightblue" points="390.3,-194.93 397.86,-187.52 387.32,-188.6 390.3,-194.93"/>
</g>
<!-- Node8 -->
<g id="node8" class="node">
<title>Node8</title>
<g id="a_node8"><a xlink:title=" ">
<polygon fill="white" stroke="#bfbfbf" points="194.5,-56.5 194.5,-75.5 239.5,-75.5 239.5,-56.5 194.5,-56.5"/>
<text text-anchor="middle" x="217" y="-63.5" font-family="Helvetica,sans-Serif" font-size="10.00">utility</text>
</a>
</g>
</g>
<!-- Node6&#45;&gt;Node8 -->
<g id="edge9" class="edge">
<title>Node6&#45;&gt;Node8</title>
<path fill="none" stroke="midnightblue" d="M270.96,-224.36C253.16,-217.55 232,-206.12 221,-188 201.8,-156.37 207.11,-111.03 212.31,-85.78"/>
<polygon fill="midnightblue" stroke="midnightblue" points="215.79,-86.25 214.6,-75.72 208.96,-84.7 215.79,-86.25"/>
</g>
<!-- Node9 -->
<g id="node9" class="node">
<title>Node9</title>
<g id="a_node9"><a xlink:href="airfoil_8hpp.html" target="_top" xlink:title=" ">
<polygon fill="white" stroke="black" points="46,-168.5 46,-187.5 174,-187.5 174,-168.5 46,-168.5"/>
<text text-anchor="middle" x="110" y="-175.5" font-family="Helvetica,sans-Serif" font-size="10.00">mini/aircraft/airfoil.hpp</text>
</a>
</g>
</g>
<!-- Node6&#45;&gt;Node9 -->
<g id="edge10" class="edge">
<title>Node6&#45;&gt;Node9</title>
<path fill="none" stroke="midnightblue" d="M270.74,-224.44C238.04,-215.2 185.82,-200.44 149.82,-190.26"/>
<polygon fill="midnightblue" stroke="midnightblue" points="150.7,-186.87 140.12,-187.52 148.79,-193.61 150.7,-186.87"/>
</g>
<!-- Node12 -->
<g id="node12" class="node">
<title>Node12</title>
<g id="a_node12"><a xlink:href="frame_8hpp.html" target="_top" xlink:title=" ">
<polygon fill="white" stroke="black" points="230,-168.5 230,-187.5 372,-187.5 372,-168.5 230,-168.5"/>
<text text-anchor="middle" x="301" y="-175.5" font-family="Helvetica,sans-Serif" font-size="10.00">mini/geometry/frame.hpp</text>
</a>
</g>
</g>
<!-- Node6&#45;&gt;Node12 -->
<g id="edge14" class="edge">
<title>Node6&#45;&gt;Node12</title>
<path fill="none" stroke="midnightblue" d="M301,-224.08C301,-217.01 301,-206.86 301,-197.99"/>
<polygon fill="midnightblue" stroke="midnightblue" points="304.5,-197.75 301,-187.75 297.5,-197.75 304.5,-197.75"/>
</g>
<!-- Node9&#45;&gt;Node2 -->
<g id="edge11" class="edge">
<title>Node9&#45;&gt;Node2</title>
<path fill="none" stroke="midnightblue" d="M97.15,-168.32C84.78,-159.98 65.87,-147.21 51.26,-137.35"/>
<polygon fill="midnightblue" stroke="midnightblue" points="53.07,-134.35 42.82,-131.65 49.15,-140.15 53.07,-134.35"/>
</g>
<!-- Node10 -->
<g id="node10" class="node">
<title>Node10</title>
<g id="a_node10"><a xlink:title=" ">
<polygon fill="white" stroke="#bfbfbf" points="244.5,-0.5 244.5,-19.5 291.5,-19.5 291.5,-0.5 244.5,-0.5"/>
<text text-anchor="middle" x="268" y="-7.5" font-family="Helvetica,sans-Serif" font-size="10.00">cmath</text>
</a>
</g>
</g>
<!-- Node9&#45;&gt;Node10 -->
<g id="edge12" class="edge">
<title>Node9&#45;&gt;Node10</title>
<path fill="none" stroke="midnightblue" d="M115.89,-168.46C122.04,-159.48 131.9,-144.88 140,-132 160.89,-98.77 156.72,-83.23 185,-56 199.41,-42.12 218.95,-31.25 235.44,-23.67"/>
<polygon fill="midnightblue" stroke="midnightblue" points="236.99,-26.81 244.74,-19.59 234.18,-20.4 236.99,-26.81"/>
</g>
<!-- Node11 -->
<g id="node11" class="node">
<title>Node11</title>
<g id="a_node11"><a xlink:title=" ">
<polygon fill="white" stroke="#bfbfbf" points="89,-112.5 89,-131.5 131,-131.5 131,-112.5 89,-112.5"/>
<text text-anchor="middle" x="110" y="-119.5" font-family="Helvetica,sans-Serif" font-size="10.00">array</text>
</a>
</g>
</g>
<!-- Node9&#45;&gt;Node11 -->
<g id="edge13" class="edge">
<title>Node9&#45;&gt;Node11</title>
<path fill="none" stroke="midnightblue" d="M110,-168.08C110,-161.01 110,-150.86 110,-141.99"/>
<polygon fill="midnightblue" stroke="midnightblue" points="113.5,-141.75 110,-131.75 106.5,-141.75 113.5,-141.75"/>
</g>
<!-- Node12&#45;&gt;Node2 -->
<g id="edge15" class="edge">
<title>Node12&#45;&gt;Node2</title>
<path fill="none" stroke="midnightblue" d="M258.06,-168.44C206.4,-158.15 120.35,-141 70.02,-130.98"/>
<polygon fill="midnightblue" stroke="midnightblue" points="70.64,-127.53 60.15,-129.01 69.28,-134.4 70.64,-127.53"/>
</g>
<!-- Node12&#45;&gt;Node3 -->
<g id="edge16" class="edge">
<title>Node12&#45;&gt;Node3</title>
<path fill="none" stroke="midnightblue" d="M328.73,-168.44C358.43,-159.28 405.72,-144.69 438.67,-134.52"/>
<polygon fill="midnightblue" stroke="midnightblue" points="439.88,-137.81 448.4,-131.52 437.81,-131.12 439.88,-137.81"/>
</g>
<!-- Node12&#45;&gt;Node8 -->
<g id="edge17" class="edge">
<title>Node12&#45;&gt;Node8</title>
<path fill="none" stroke="midnightblue" d="M292.15,-168.45C283.29,-159.69 269.51,-145.48 259,-132 247.03,-116.65 235.16,-97.87 227.11,-84.44"/>
<polygon fill="midnightblue" stroke="midnightblue" points="230.07,-82.57 221.98,-75.74 224.04,-86.13 230.07,-82.57"/>
</g>
<!-- Node13 -->
<g id="node13" class="node">
<title>Node13</title>
<g id="a_node13"><a xlink:href="algebra_2eigen_8hpp.html" target="_top" xlink:title=" ">
<polygon fill="white" stroke="black" points="373.5,-56.5 373.5,-75.5 502.5,-75.5 502.5,-56.5 373.5,-56.5"/>
<text text-anchor="middle" x="438" y="-63.5" font-family="Helvetica,sans-Serif" font-size="10.00">mini/algebra/eigen.hpp</text>
</a>
</g>
</g>
<!-- Node12&#45;&gt;Node13 -->
<g id="edge18" class="edge">
<title>Node12&#45;&gt;Node13</title>
<path fill="none" stroke="midnightblue" d="M331.1,-168.43C352,-161.31 379.48,-149.49 399,-132 413.51,-119 424.29,-99.29 430.79,-84.99"/>
<polygon fill="midnightblue" stroke="midnightblue" points="434.05,-86.27 434.76,-75.7 427.61,-83.52 434.05,-86.27"/>
</g>
<!-- Node17 -->
<g id="node17" class="node">
<title>Node17</title>
<g id="a_node17"><a xlink:href="pi_8hpp.html" target="_top" xlink:title=" ">
<polygon fill="white" stroke="black" points="268,-112.5 268,-131.5 390,-131.5 390,-112.5 268,-112.5"/>
<text text-anchor="middle" x="329" y="-119.5" font-family="Helvetica,sans-Serif" font-size="10.00">mini/geometry/pi.hpp</text>
</a>
</g>
</g>
<!-- Node12&#45;&gt;Node17 -->
<g id="edge23" class="edge">
<title>Node12&#45;&gt;Node17</title>
<path fill="none" stroke="midnightblue" d="M305.62,-168.08C309.46,-160.69 315.02,-149.95 319.76,-140.81"/>
<polygon fill="midnightblue" stroke="midnightblue" points="322.97,-142.24 324.46,-131.75 316.75,-139.02 322.97,-142.24"/>
</g>
<!-- Node13&#45;&gt;Node10 -->
<g id="edge20" class="edge">
<title>Node13&#45;&gt;Node10</title>
<path fill="none" stroke="midnightblue" d="M411.06,-56.44C381.33,-47 333.43,-31.78 301.34,-21.59"/>
<polygon fill="midnightblue" stroke="midnightblue" points="302.12,-18.16 291.53,-18.47 300,-24.84 302.12,-18.16"/>
</g>
<!-- Node14 -->
<g id="node14" class="node">
<title>Node14</title>
<g id="a_node14"><a xlink:title=" ">
<polygon fill="white" stroke="#bfbfbf" points="493,-0.5 493,-19.5 557,-19.5 557,-0.5 493,-0.5"/>
<text text-anchor="middle" x="525" y="-7.5" font-family="Helvetica,sans-Serif" font-size="10.00">algorithm</text>
</a>
</g>
</g>
<!-- Node13&#45;&gt;Node14 -->
<g id="edge19" class="edge">
<title>Node13&#45;&gt;Node14</title>
<path fill="none" stroke="midnightblue" d="M451.98,-56.32C465.55,-47.9 486.38,-34.97 502.32,-25.07"/>
<polygon fill="midnightblue" stroke="midnightblue" points="504.41,-27.9 511.06,-19.65 500.71,-21.95 504.41,-27.9"/>
</g>
<!-- Node15 -->
<g id="node15" class="node">
<title>Node15</title>
<g id="a_node15"><a xlink:title=" ">
<polygon fill="white" stroke="#bfbfbf" points="333.5,-0.5 333.5,-19.5 382.5,-19.5 382.5,-0.5 333.5,-0.5"/>
<text text-anchor="middle" x="358" y="-7.5" font-family="Helvetica,sans-Serif" font-size="10.00">cstdlib</text>
</a>
</g>
</g>
<!-- Node13&#45;&gt;Node15 -->
<g id="edge21" class="edge">
<title>Node13&#45;&gt;Node15</title>
<path fill="none" stroke="midnightblue" d="M425.15,-56.32C412.78,-47.98 393.87,-35.21 379.26,-25.35"/>
<polygon fill="midnightblue" stroke="midnightblue" points="381.07,-22.35 370.82,-19.65 377.15,-28.15 381.07,-22.35"/>
</g>
<!-- Node16 -->
<g id="node16" class="node">
<title>Node16</title>
<g id="a_node16"><a xlink:title=" ">
<polygon fill="white" stroke="#bfbfbf" points="401,-0.5 401,-19.5 475,-19.5 475,-0.5 401,-0.5"/>
<text text-anchor="middle" x="438" y="-7.5" font-family="Helvetica,sans-Serif" font-size="10.00">Eigen/Eigen</text>
</a>
</g>
</g>
<!-- Node13&#45;&gt;Node16 -->
<g id="edge22" class="edge">
<title>Node13&#45;&gt;Node16</title>
<path fill="none" stroke="midnightblue" d="M438,-56.08C438,-49.01 438,-38.86 438,-29.99"/>
<polygon fill="midnightblue" stroke="midnightblue" points="441.5,-29.75 438,-19.75 434.5,-29.75 441.5,-29.75"/>
</g>
<!-- Node17&#45;&gt;Node8 -->
<g id="edge26" class="edge">
<title>Node17&#45;&gt;Node8</title>
<path fill="none" stroke="midnightblue" d="M311.01,-112.32C292.96,-103.62 264.95,-90.12 244.2,-80.11"/>
<polygon fill="midnightblue" stroke="midnightblue" points="245.48,-76.84 234.95,-75.65 242.44,-83.15 245.48,-76.84"/>
</g>
<!-- Node17&#45;&gt;Node10 -->
<g id="edge24" class="edge">
<title>Node17&#45;&gt;Node10</title>
<path fill="none" stroke="midnightblue" d="M318.56,-112.4C309.04,-104.03 295.25,-90.49 287,-76 278.82,-61.63 273.89,-43.44 271.11,-29.95"/>
<polygon fill="midnightblue" stroke="midnightblue" points="274.52,-29.12 269.26,-19.92 267.64,-30.39 274.52,-29.12"/>
</g>
<!-- Node17&#45;&gt;Node13 -->
<g id="edge27" class="edge">
<title>Node17&#45;&gt;Node13</title>
<path fill="none" stroke="midnightblue" d="M346.51,-112.32C364.07,-103.62 391.33,-90.12 411.53,-80.11"/>
<polygon fill="midnightblue" stroke="midnightblue" points="413.12,-83.23 420.53,-75.65 410.02,-76.96 413.12,-83.23"/>
</g>
<!-- Node18 -->
<g id="node18" class="node">
<title>Node18</title>
<g id="a_node18"><a xlink:title=" ">
<polygon fill="white" stroke="#bfbfbf" points="296.5,-56.5 296.5,-75.5 355.5,-75.5 355.5,-56.5 296.5,-56.5"/>
<text text-anchor="middle" x="326" y="-63.5" font-family="Helvetica,sans-Serif" font-size="10.00">numbers</text>
</a>
</g>
</g>
<!-- Node17&#45;&gt;Node18 -->
<g id="edge25" class="edge">
<title>Node17&#45;&gt;Node18</title>
<path fill="none" stroke="midnightblue" d="M328.5,-112.08C328.11,-105.01 327.55,-94.86 327.05,-85.99"/>
<polygon fill="midnightblue" stroke="midnightblue" points="330.54,-85.54 326.49,-75.75 323.55,-85.93 330.54,-85.54"/>
</g>
</g>
</svg>
