<?xml version="1.0" encoding="UTF-8" standalone="no"?>
<!DOCTYPE svg PUBLIC "-//W3C//DTD SVG 1.1//EN"
 "http://www.w3.org/Graphics/SVG/1.1/DTD/svg11.dtd">
<!-- Generated by graphviz version 2.43.0 (0)
 -->
<!-- Title: include/mini/mesh/cgal.hpp Pages: 1 -->
<svg width="1245pt" height="95pt"
 viewBox="0.00 0.00 1244.50 95.00" xmlns="http://www.w3.org/2000/svg" xmlns:xlink="http://www.w3.org/1999/xlink">
<g id="graph0" class="graph" transform="scale(1 1) rotate(0) translate(4 91)">
<title>include/mini/mesh/cgal.hpp</title>
<polygon fill="white" stroke="transparent" points="-4,4 -4,-91 1240.5,-91 1240.5,4 -4,4"/>
<!-- Node1 -->
<g id="node1" class="node">
<title>Node1</title>
<g id="a_node1"><a xlink:title=" ">
<polygon fill="#bfbfbf" stroke="black" points="329.5,-67.5 329.5,-86.5 480.5,-86.5 480.5,-67.5 329.5,-67.5"/>
<text text-anchor="middle" x="405" y="-74.5" font-family="Helvetica,sans-Serif" font-size="10.00">include/mini/mesh/cgal.hpp</text>
</a>
</g>
</g>
<!-- Node2 -->
<g id="node2" class="node">
<title>Node2</title>
<g id="a_node2"><a xlink:title=" ">
<polygon fill="white" stroke="#bfbfbf" points="0,-6 0,-25 60,-25 60,-6 0,-6"/>
<text text-anchor="middle" x="30" y="-13" font-family="Helvetica,sans-Serif" font-size="10.00">concepts</text>
</a>
</g>
</g>
<!-- Node1&#45;&gt;Node2 -->
<g id="edge1" class="edge">
<title>Node1&#45;&gt;Node2</title>
<path fill="none" stroke="midnightblue" d="M329.36,-70.71C260.67,-64.77 156.94,-52.94 69,-31 66.01,-30.25 62.94,-29.36 59.89,-28.37"/>
<polygon fill="midnightblue" stroke="midnightblue" points="60.97,-25.04 50.37,-25.05 58.66,-31.65 60.97,-25.04"/>
</g>
<!-- Node3 -->
<g id="node3" class="node">
<title>Node3</title>
<g id="a_node3"><a xlink:title=" ">
<polygon fill="white" stroke="#bfbfbf" points="78,-6 78,-25 130,-25 130,-6 78,-6"/>
<text text-anchor="middle" x="104" y="-13" font-family="Helvetica,sans-Serif" font-size="10.00">cassert</text>
</a>
</g>
</g>
<!-- Node1&#45;&gt;Node3 -->
<g id="edge2" class="edge">
<title>Node1&#45;&gt;Node3</title>
<path fill="none" stroke="midnightblue" d="M329.46,-67.82C275.66,-60.89 202.01,-49.13 139,-31 136.71,-30.34 134.36,-29.58 132.02,-28.75"/>
<polygon fill="midnightblue" stroke="midnightblue" points="133.2,-25.45 122.61,-25.12 130.68,-31.99 133.2,-25.45"/>
</g>
<!-- Node4 -->
<g id="node4" class="node">
<title>Node4</title>
<g id="a_node4"><a xlink:title=" ">
<polygon fill="white" stroke="#bfbfbf" points="148.5,-6 148.5,-25 195.5,-25 195.5,-6 148.5,-6"/>
<text text-anchor="middle" x="172" y="-13" font-family="Helvetica,sans-Serif" font-size="10.00">vector</text>
</a>
</g>
</g>
<!-- Node1&#45;&gt;Node4 -->
<g id="edge3" class="edge">
<title>Node1&#45;&gt;Node4</title>
<path fill="none" stroke="midnightblue" d="M353.4,-67.47C312.33,-59.96 253.68,-47.62 204,-31 202.33,-30.44 200.63,-29.82 198.93,-29.17"/>
<polygon fill="midnightblue" stroke="midnightblue" points="199.92,-25.79 189.35,-25.14 197.21,-32.24 199.92,-25.79"/>
</g>
<!-- Node5 -->
<g id="node5" class="node">
<title>Node5</title>
<g id="a_node5"><a xlink:title=" ">
<polygon fill="white" stroke="#bfbfbf" points="213.5,-6 213.5,-25 258.5,-25 258.5,-6 213.5,-6"/>
<text text-anchor="middle" x="236" y="-13" font-family="Helvetica,sans-Serif" font-size="10.00">utility</text>
</a>
</g>
</g>
<!-- Node1&#45;&gt;Node5 -->
<g id="edge4" class="edge">
<title>Node1&#45;&gt;Node5</title>
<path fill="none" stroke="midnightblue" d="M375.29,-67.46C347.08,-59.09 303.68,-45.49 267,-31 265.58,-30.44 264.14,-29.85 262.69,-29.23"/>
<polygon fill="midnightblue" stroke="midnightblue" points="263.77,-25.88 253.22,-25.01 260.92,-32.28 263.77,-25.88"/>
</g>
<!-- Node6 -->
<g id="node6" class="node">
<title>Node6</title>
<g id="a_node6"><a xlink:title=" ">
<polygon fill="white" stroke="#bfbfbf" points="276.5,-6 276.5,-25 317.5,-25 317.5,-6 276.5,-6"/>
<text text-anchor="middle" x="297" y="-13" font-family="Helvetica,sans-Serif" font-size="10.00">tuple</text>
</a>
</g>
</g>
<!-- Node1&#45;&gt;Node6 -->
<g id="edge5" class="edge">
<title>Node1&#45;&gt;Node6</title>
<path fill="none" stroke="midnightblue" d="M389.53,-67.48C371.72,-57.67 342.26,-41.43 321.37,-29.92"/>
<polygon fill="midnightblue" stroke="midnightblue" points="322.89,-26.77 312.45,-25.01 319.51,-32.9 322.89,-26.77"/>
</g>
<!-- Node7 -->
<g id="node7" class="node">
<title>Node7</title>
<g id="a_node7"><a xlink:title=" ">
<polygon fill="white" stroke="#bfbfbf" points="335.5,-6 335.5,-25 474.5,-25 474.5,-6 335.5,-6"/>
<text text-anchor="middle" x="405" y="-13" font-family="Helvetica,sans-Serif" font-size="10.00">CGAL/Simple_cartesian.h</text>
</a>
</g>
</g>
<!-- Node1&#45;&gt;Node7 -->
<g id="edge6" class="edge">
<title>Node1&#45;&gt;Node7</title>
<path fill="none" stroke="midnightblue" d="M405,-67.48C405,-59.08 405,-45.98 405,-35.16"/>
<polygon fill="midnightblue" stroke="midnightblue" points="408.5,-35.01 405,-25.01 401.5,-35.01 408.5,-35.01"/>
</g>
<!-- Node8 -->
<g id="node8" class="node">
<title>Node8</title>
<g id="a_node8"><a xlink:title=" ">
<polygon fill="white" stroke="#bfbfbf" points="492.5,-6 492.5,-25 641.5,-25 641.5,-6 492.5,-6"/>
<text text-anchor="middle" x="567" y="-13" font-family="Helvetica,sans-Serif" font-size="10.00">CGAL/point_generators_3.h</text>
</a>
</g>
</g>
<!-- Node1&#45;&gt;Node8 -->
<g id="edge7" class="edge">
<title>Node1&#45;&gt;Node8</title>
<path fill="none" stroke="midnightblue" d="M428.21,-67.48C456,-57.27 502.72,-40.11 534.19,-28.55"/>
<polygon fill="midnightblue" stroke="midnightblue" points="535.65,-31.74 543.83,-25.01 533.24,-25.17 535.65,-31.74"/>
</g>
<!-- Node9 -->
<g id="node9" class="node">
<title>Node9</title>
<g id="a_node9"><a xlink:title=" ">
<polygon fill="white" stroke="#bfbfbf" points="659.5,-0.5 659.5,-30.5 818.5,-30.5 818.5,-0.5 659.5,-0.5"/>
<text text-anchor="start" x="667.5" y="-18.5" font-family="Helvetica,sans-Serif" font-size="10.00">CGAL/Orthogonal_k_neighbor</text>
<text text-anchor="middle" x="739" y="-7.5" font-family="Helvetica,sans-Serif" font-size="10.00">_search.h</text>
</a>
</g>
</g>
<!-- Node1&#45;&gt;Node9 -->
<g id="edge8" class="edge">
<title>Node1&#45;&gt;Node9</title>
<path fill="none" stroke="midnightblue" d="M452.85,-67.48C504.22,-58.32 586.96,-43.58 650.29,-32.3"/>
<polygon fill="midnightblue" stroke="midnightblue" points="651.05,-35.72 660.28,-30.52 649.82,-28.83 651.05,-35.72"/>
</g>
<!-- Node10 -->
<g id="node10" class="node">
<title>Node10</title>
<g id="a_node10"><a xlink:title=" ">
<polygon fill="white" stroke="#bfbfbf" points="837,-6 837,-25 967,-25 967,-6 837,-6"/>
<text text-anchor="middle" x="902" y="-13" font-family="Helvetica,sans-Serif" font-size="10.00">CGAL/Search_traits_3.h</text>
</a>
</g>
</g>
<!-- Node1&#45;&gt;Node10 -->
<g id="edge9" class="edge">
<title>Node1&#45;&gt;Node10</title>
<path fill="none" stroke="midnightblue" d="M480.52,-69.97C565.33,-62.74 706.96,-49.26 828,-31 835.74,-29.83 843.89,-28.42 851.85,-26.94"/>
<polygon fill="midnightblue" stroke="midnightblue" points="852.62,-30.36 861.79,-25.04 851.31,-23.48 852.62,-30.36"/>
</g>
<!-- Node11 -->
<g id="node11" class="node">
<title>Node11</title>
<g id="a_node11"><a xlink:title=" ">
<polygon fill="white" stroke="#bfbfbf" points="985,-0.5 985,-30.5 1095,-30.5 1095,-0.5 985,-0.5"/>
<text text-anchor="start" x="993" y="-18.5" font-family="Helvetica,sans-Serif" font-size="10.00">CGAL/Search_traits</text>
<text text-anchor="middle" x="1040" y="-7.5" font-family="Helvetica,sans-Serif" font-size="10.00">_adapter.h</text>
</a>
</g>
</g>
<!-- Node1&#45;&gt;Node11 -->
<g id="edge10" class="edge">
<title>Node1&#45;&gt;Node11</title>
<path fill="none" stroke="midnightblue" d="M480.68,-73.51C588.41,-69.19 792.24,-58.17 974.88,-31.02"/>
<polygon fill="midnightblue" stroke="midnightblue" points="975.57,-34.46 984.94,-29.5 974.53,-27.53 975.57,-34.46"/>
</g>
<!-- Node12 -->
<g id="node12" class="node">
<title>Node12</title>
<g id="a_node12"><a xlink:title=" ">
<polygon fill="white" stroke="#bfbfbf" points="1113.5,-6 1113.5,-25 1236.5,-25 1236.5,-6 1113.5,-6"/>
<text text-anchor="middle" x="1175" y="-13" font-family="Helvetica,sans-Serif" font-size="10.00">CGAL/property_map.h</text>
</a>
</g>
</g>
<!-- Node1&#45;&gt;Node12 -->
<g id="edge11" class="edge">
<title>Node1&#45;&gt;Node12</title>
<path fill="none" stroke="midnightblue" d="M480.59,-74.53C609.16,-71.26 878.45,-61.15 1104,-31 1111.8,-29.96 1120.03,-28.56 1128.02,-27.04"/>
<polygon fill="midnightblue" stroke="midnightblue" points="1128.82,-30.45 1137.95,-25.07 1127.46,-23.58 1128.82,-30.45"/>
</g>
</g>
</svg>
