<?xml version="1.0" encoding="UTF-8" standalone="no"?>
<!DOCTYPE svg PUBLIC "-//W3C//DTD SVG 1.1//EN"
 "http://www.w3.org/Graphics/SVG/1.1/DTD/svg11.dtd">
<!-- Generated by graphviz version 2.43.0 (0)
 -->
<!-- Title: include/mini/mesh/cgns.hpp Pages: 1 -->
<svg width="474pt" height="140pt"
 viewBox="0.00 0.00 473.50 140.00" xmlns="http://www.w3.org/2000/svg" xmlns:xlink="http://www.w3.org/1999/xlink">
<g id="graph0" class="graph" transform="scale(1 1) rotate(0) translate(4 136)">
<title>include/mini/mesh/cgns.hpp</title>
<polygon fill="white" stroke="transparent" points="-4,4 -4,-136 469.5,-136 469.5,4 -4,4"/>
<!-- Node1 -->
<g id="node1" class="node">
<title>Node1</title>
<g id="a_node1"><a xlink:title=" ">
<polygon fill="#bfbfbf" stroke="black" points="155,-112.5 155,-131.5 308,-131.5 308,-112.5 155,-112.5"/>
<text text-anchor="middle" x="231.5" y="-119.5" font-family="Helvetica,sans-Serif" font-size="10.00">include/mini/mesh/cgns.hpp</text>
</a>
</g>
</g>
<!-- Node2 -->
<g id="node2" class="node">
<title>Node2</title>
<g id="a_node2"><a xlink:href="mapper_8hpp.html" target="_top" xlink:title=" ">
<polygon fill="white" stroke="black" points="93,-56.5 93,-75.5 260,-75.5 260,-56.5 93,-56.5"/>
<text text-anchor="middle" x="176.5" y="-63.5" font-family="Helvetica,sans-Serif" font-size="10.00">include/mini/mesh/mapper.hpp</text>
</a>
</g>
</g>
<!-- Node1&#45;&gt;Node2 -->
<g id="edge1" class="edge">
<title>Node1&#45;&gt;Node2</title>
<path fill="none" stroke="midnightblue" d="M215.21,-105C205.46,-95.43 193.45,-83.64 185.41,-75.75"/>
<polygon fill="midnightblue" stroke="midnightblue" points="212.83,-107.57 222.42,-112.08 217.73,-102.58 212.83,-107.57"/>
</g>
<!-- Node3 -->
<g id="node3" class="node">
<title>Node3</title>
<g id="a_node3"><a xlink:href="overset_8hpp.html" target="_top" xlink:title=" ">
<polygon fill="white" stroke="black" points="0,-0.5 0,-19.5 167,-19.5 167,-0.5 0,-0.5"/>
<text text-anchor="middle" x="83.5" y="-7.5" font-family="Helvetica,sans-Serif" font-size="10.00">include/mini/mesh/overset.hpp</text>
</a>
</g>
</g>
<!-- Node1&#45;&gt;Node3 -->
<g id="edge4" class="edge">
<title>Node1&#45;&gt;Node3</title>
<path fill="none" stroke="midnightblue" d="M144.87,-113.12C121.67,-106.6 99.02,-95.32 84.5,-76 72.02,-59.4 76.96,-33.08 80.73,-19.59"/>
<polygon fill="midnightblue" stroke="midnightblue" points="144.27,-116.58 154.82,-115.63 145.98,-109.79 144.27,-116.58"/>
</g>
<!-- Node4 -->
<g id="node4" class="node">
<title>Node4</title>
<g id="a_node4"><a xlink:href="shuffler_8hpp.html" target="_top" xlink:title=" ">
<polygon fill="white" stroke="black" points="194,-0.5 194,-19.5 361,-19.5 361,-0.5 194,-0.5"/>
<text text-anchor="middle" x="277.5" y="-7.5" font-family="Helvetica,sans-Serif" font-size="10.00">include/mini/mesh/shuffler.hpp</text>
</a>
</g>
</g>
<!-- Node1&#45;&gt;Node4 -->
<g id="edge6" class="edge">
<title>Node1&#45;&gt;Node4</title>
<path fill="none" stroke="midnightblue" d="M248.71,-105.3C256.36,-97.3 264.71,-86.96 269.5,-76 277.69,-57.25 278.32,-32.73 277.97,-19.83"/>
<polygon fill="midnightblue" stroke="midnightblue" points="246.11,-102.95 241.44,-112.46 251.02,-107.93 246.11,-102.95"/>
</g>
<!-- Node5 -->
<g id="node5" class="node">
<title>Node5</title>
<g id="a_node5"><a xlink:href="part_8hpp.html" target="_top" xlink:title=" ">
<polygon fill="white" stroke="black" points="315.5,-56.5 315.5,-75.5 465.5,-75.5 465.5,-56.5 315.5,-56.5"/>
<text text-anchor="middle" x="390.5" y="-63.5" font-family="Helvetica,sans-Serif" font-size="10.00">include/mini/mesh/part.hpp</text>
</a>
</g>
</g>
<!-- Node1&#45;&gt;Node5 -->
<g id="edge5" class="edge">
<title>Node1&#45;&gt;Node5</title>
<path fill="none" stroke="midnightblue" d="M266.33,-109.17C296.27,-99 338.72,-84.59 365.42,-75.52"/>
<polygon fill="midnightblue" stroke="midnightblue" points="265.04,-105.91 256.69,-112.44 267.29,-112.54 265.04,-105.91"/>
</g>
<!-- Node2&#45;&gt;Node3 -->
<g id="edge2" class="edge">
<title>Node2&#45;&gt;Node3</title>
<path fill="none" stroke="midnightblue" d="M152.69,-51.18C135.58,-41.24 113.03,-28.15 98.4,-19.65"/>
<polygon fill="midnightblue" stroke="midnightblue" points="151.15,-54.33 161.56,-56.32 154.67,-48.28 151.15,-54.33"/>
</g>
<!-- Node2&#45;&gt;Node4 -->
<g id="edge3" class="edge">
<title>Node2&#45;&gt;Node4</title>
<path fill="none" stroke="midnightblue" d="M201.58,-51.59C220.26,-41.61 245.2,-28.27 261.31,-19.65"/>
<polygon fill="midnightblue" stroke="midnightblue" points="199.9,-48.52 192.73,-56.32 203.2,-54.7 199.9,-48.52"/>
</g>
</g>
</svg>
