<?xml version="1.0" encoding="UTF-8" standalone="no"?>
<!DOCTYPE svg PUBLIC "-//W3C//DTD SVG 1.1//EN"
 "http://www.w3.org/Graphics/SVG/1.1/DTD/svg11.dtd">
<!-- Generated by graphviz version 2.43.0 (0)
 -->
<!-- Title: include/mini/mesh/cgns.hpp Pages: 1 -->
<svg width="655pt" height="140pt"
 viewBox="0.00 0.00 655.00 140.00" xmlns="http://www.w3.org/2000/svg" xmlns:xlink="http://www.w3.org/1999/xlink">
<g id="graph0" class="graph" transform="scale(1 1) rotate(0) translate(4 136)">
<title>include/mini/mesh/cgns.hpp</title>
<polygon fill="white" stroke="transparent" points="-4,4 -4,-136 651,-136 651,4 -4,4"/>
<!-- Node1 -->
<g id="node1" class="node">
<title>Node1</title>
<g id="a_node1"><a xlink:title=" ">
<polygon fill="#bfbfbf" stroke="black" points="211,-112.5 211,-131.5 364,-131.5 364,-112.5 211,-112.5"/>
<text text-anchor="middle" x="287.5" y="-119.5" font-family="Helvetica,sans-Serif" font-size="10.00">include/mini/mesh/cgns.hpp</text>
</a>
</g>
</g>
<!-- Node2 -->
<g id="node2" class="node">
<title>Node2</title>
<g id="a_node2"><a xlink:href="mapper_8hpp.html" target="_top" xlink:title=" ">
<polygon fill="white" stroke="black" points="93,-56.5 93,-75.5 260,-75.5 260,-56.5 93,-56.5"/>
<text text-anchor="middle" x="176.5" y="-63.5" font-family="Helvetica,sans-Serif" font-size="10.00">include/mini/mesh/mapper.hpp</text>
</a>
</g>
</g>
<!-- Node1&#45;&gt;Node2 -->
<g id="edge1" class="edge">
<title>Node1&#45;&gt;Node2</title>
<path fill="none" stroke="midnightblue" d="M260.49,-107.86C239.91,-97.85 212.16,-84.35 194.29,-75.65"/>
<polygon fill="midnightblue" stroke="midnightblue" points="259.14,-111.1 269.67,-112.32 262.2,-104.8 259.14,-111.1"/>
</g>
<!-- Node3 -->
<g id="node3" class="node">
<title>Node3</title>
<g id="a_node3"><a xlink:href="overset_8hpp.html" target="_top" xlink:title=" ">
<polygon fill="white" stroke="black" points="0,-0.5 0,-19.5 167,-19.5 167,-0.5 0,-0.5"/>
<text text-anchor="middle" x="83.5" y="-7.5" font-family="Helvetica,sans-Serif" font-size="10.00">include/mini/mesh/overset.hpp</text>
</a>
</g>
</g>
<!-- Node1&#45;&gt;Node3 -->
<g id="edge4" class="edge">
<title>Node1&#45;&gt;Node3</title>
<path fill="none" stroke="midnightblue" d="M200.7,-112.46C152.57,-105.75 99.49,-94.38 84.5,-76 71.38,-59.91 76.6,-33.37 80.58,-19.71"/>
<polygon fill="midnightblue" stroke="midnightblue" points="200.5,-115.96 210.88,-113.82 201.43,-109.03 200.5,-115.96"/>
</g>
<!-- Node4 -->
<g id="node4" class="node">
<title>Node4</title>
<g id="a_node4"><a xlink:href="shuffler_8hpp.html" target="_top" xlink:title=" ">
<polygon fill="white" stroke="black" points="194,-0.5 194,-19.5 361,-19.5 361,-0.5 194,-0.5"/>
<text text-anchor="middle" x="277.5" y="-7.5" font-family="Helvetica,sans-Serif" font-size="10.00">include/mini/mesh/shuffler.hpp</text>
</a>
</g>
</g>
<!-- Node1&#45;&gt;Node4 -->
<g id="edge7" class="edge">
<title>Node1&#45;&gt;Node4</title>
<path fill="none" stroke="midnightblue" d="M285.8,-102.35C283.61,-78.25 279.89,-37.31 278.28,-19.59"/>
<polygon fill="midnightblue" stroke="midnightblue" points="282.32,-102.73 286.72,-112.37 289.3,-102.09 282.32,-102.73"/>
</g>
<!-- Node5 -->
<g id="node5" class="node">
<title>Node5</title>
<g id="a_node5"><a xlink:href="part_8hpp.html" target="_top" xlink:title=" ">
<polygon fill="white" stroke="black" points="315.5,-56.5 315.5,-75.5 465.5,-75.5 465.5,-56.5 315.5,-56.5"/>
<text text-anchor="middle" x="390.5" y="-63.5" font-family="Helvetica,sans-Serif" font-size="10.00">include/mini/mesh/part.hpp</text>
</a>
</g>
</g>
<!-- Node1&#45;&gt;Node5 -->
<g id="edge5" class="edge">
<title>Node1&#45;&gt;Node5</title>
<path fill="none" stroke="midnightblue" d="M313.08,-107.59C332.12,-97.61 357.56,-84.27 373.99,-75.65"/>
<polygon fill="midnightblue" stroke="midnightblue" points="311.28,-104.58 304.05,-112.32 314.53,-110.78 311.28,-104.58"/>
</g>
<!-- Node6 -->
<g id="node6" class="node">
<title>Node6</title>
<g id="a_node6"><a xlink:href="quality_8hpp.html" target="_top" xlink:title=" ">
<polygon fill="white" stroke="black" points="484,-56.5 484,-75.5 647,-75.5 647,-56.5 484,-56.5"/>
<text text-anchor="middle" x="565.5" y="-63.5" font-family="Helvetica,sans-Serif" font-size="10.00">include/mini/mesh/quality.hpp</text>
</a>
</g>
</g>
<!-- Node1&#45;&gt;Node6 -->
<g id="edge6" class="edge">
<title>Node1&#45;&gt;Node6</title>
<path fill="none" stroke="midnightblue" d="M341.69,-110.47C394.23,-100.27 472.94,-84.98 521.66,-75.52"/>
<polygon fill="midnightblue" stroke="midnightblue" points="340.7,-107.1 331.55,-112.44 342.03,-113.97 340.7,-107.1"/>
</g>
<!-- Node2&#45;&gt;Node3 -->
<g id="edge2" class="edge">
<title>Node2&#45;&gt;Node3</title>
<path fill="none" stroke="midnightblue" d="M152.69,-51.18C135.58,-41.24 113.03,-28.15 98.4,-19.65"/>
<polygon fill="midnightblue" stroke="midnightblue" points="151.15,-54.33 161.56,-56.32 154.67,-48.28 151.15,-54.33"/>
</g>
<!-- Node2&#45;&gt;Node4 -->
<g id="edge3" class="edge">
<title>Node2&#45;&gt;Node4</title>
<path fill="none" stroke="midnightblue" d="M201.58,-51.59C220.26,-41.61 245.2,-28.27 261.31,-19.65"/>
<polygon fill="midnightblue" stroke="midnightblue" points="199.9,-48.52 192.73,-56.32 203.2,-54.7 199.9,-48.52"/>
</g>
</g>
</svg>
