<?xml version="1.0" encoding="UTF-8" standalone="no"?>
<!DOCTYPE svg PUBLIC "-//W3C//DTD SVG 1.1//EN"
 "http://www.w3.org/Graphics/SVG/1.1/DTD/svg11.dtd">
<!-- Generated by graphviz version 2.43.0 (0)
 -->
<!-- Title: include/mini/mesh/cgns.hpp Pages: 1 -->
<svg width="1290pt" height="196pt"
 viewBox="0.00 0.00 1289.50 196.00" xmlns="http://www.w3.org/2000/svg" xmlns:xlink="http://www.w3.org/1999/xlink">
<g id="graph0" class="graph" transform="scale(1 1) rotate(0) translate(4 192)">
<title>include/mini/mesh/cgns.hpp</title>
<polygon fill="white" stroke="transparent" points="-4,4 -4,-192 1285.5,-192 1285.5,4 -4,4"/>
<!-- Node1 -->
<g id="node1" class="node">
<title>Node1</title>
<g id="a_node1"><a xlink:title=" ">
<polygon fill="#bfbfbf" stroke="black" points="475.5,-168.5 475.5,-187.5 628.5,-187.5 628.5,-168.5 475.5,-168.5"/>
<text text-anchor="middle" x="552" y="-175.5" font-family="Helvetica,sans-Serif" font-size="10.00">include/mini/mesh/cgns.hpp</text>
</a>
</g>
</g>
<!-- Node2 -->
<g id="node2" class="node">
<title>Node2</title>
<g id="a_node2"><a xlink:title=" ">
<polygon fill="white" stroke="#bfbfbf" points="0,-112.5 0,-131.5 60,-131.5 60,-112.5 0,-112.5"/>
<text text-anchor="middle" x="30" y="-119.5" font-family="Helvetica,sans-Serif" font-size="10.00">concepts</text>
</a>
</g>
</g>
<!-- Node1&#45;&gt;Node2 -->
<g id="edge1" class="edge">
<title>Node1&#45;&gt;Node2</title>
<path fill="none" stroke="midnightblue" d="M475.48,-173.04C382.05,-167.5 219.12,-155.54 70.38,-132.02"/>
<polygon fill="midnightblue" stroke="midnightblue" points="70.58,-128.51 60.15,-130.38 69.47,-135.42 70.58,-128.51"/>
</g>
<!-- Node3 -->
<g id="node3" class="node">
<title>Node3</title>
<g id="a_node3"><a xlink:title=" ">
<polygon fill="white" stroke="#bfbfbf" points="78,-112.5 78,-131.5 128,-131.5 128,-112.5 78,-112.5"/>
<text text-anchor="middle" x="103" y="-119.5" font-family="Helvetica,sans-Serif" font-size="10.00">ranges</text>
</a>
</g>
</g>
<!-- Node1&#45;&gt;Node3 -->
<g id="edge2" class="edge">
<title>Node1&#45;&gt;Node3</title>
<path fill="none" stroke="midnightblue" d="M475.31,-171.29C392.66,-164.51 257.43,-151.58 142,-132 140.73,-131.78 139.44,-131.55 138.13,-131.31"/>
<polygon fill="midnightblue" stroke="midnightblue" points="138.59,-127.83 128.09,-129.25 137.18,-134.69 138.59,-127.83"/>
</g>
<!-- Node4 -->
<g id="node4" class="node">
<title>Node4</title>
<g id="a_node4"><a xlink:title=" ">
<polygon fill="white" stroke="#bfbfbf" points="524,-0.5 524,-19.5 588,-19.5 588,-0.5 524,-0.5"/>
<text text-anchor="middle" x="556" y="-7.5" font-family="Helvetica,sans-Serif" font-size="10.00">algorithm</text>
</a>
</g>
</g>
<!-- Node1&#45;&gt;Node4 -->
<g id="edge3" class="edge">
<title>Node1&#45;&gt;Node4</title>
<path fill="none" stroke="midnightblue" d="M475.07,-173.2C370.61,-167.23 194.56,-154.03 175,-132 78.4,-23.18 395.61,-11.45 513.59,-10.76"/>
<polygon fill="midnightblue" stroke="midnightblue" points="513.72,-14.26 523.71,-10.73 513.7,-7.26 513.72,-14.26"/>
</g>
<!-- Node5 -->
<g id="node5" class="node">
<title>Node5</title>
<g id="a_node5"><a xlink:title=" ">
<polygon fill="white" stroke="#bfbfbf" points="184,-112.5 184,-131.5 226,-131.5 226,-112.5 184,-112.5"/>
<text text-anchor="middle" x="205" y="-119.5" font-family="Helvetica,sans-Serif" font-size="10.00">array</text>
</a>
</g>
</g>
<!-- Node1&#45;&gt;Node5 -->
<g id="edge4" class="edge">
<title>Node1&#45;&gt;Node5</title>
<path fill="none" stroke="midnightblue" d="M475.2,-169.37C412.97,-162.44 322.95,-150.72 235.97,-131.93"/>
<polygon fill="midnightblue" stroke="midnightblue" points="236.72,-128.51 226.2,-129.79 235.22,-135.35 236.72,-128.51"/>
</g>
<!-- Node6 -->
<g id="node6" class="node">
<title>Node6</title>
<g id="a_node6"><a xlink:title=" ">
<polygon fill="white" stroke="#bfbfbf" points="244,-112.5 244,-131.5 296,-131.5 296,-112.5 244,-112.5"/>
<text text-anchor="middle" x="270" y="-119.5" font-family="Helvetica,sans-Serif" font-size="10.00">cassert</text>
</a>
</g>
</g>
<!-- Node1&#45;&gt;Node6 -->
<g id="edge5" class="edge">
<title>Node1&#45;&gt;Node6</title>
<path fill="none" stroke="midnightblue" d="M498.78,-168.43C450.86,-160.47 378.3,-147.77 306.45,-132.2"/>
<polygon fill="midnightblue" stroke="midnightblue" points="306.84,-128.7 296.33,-129.98 305.35,-135.54 306.84,-128.7"/>
</g>
<!-- Node7 -->
<g id="node7" class="node">
<title>Node7</title>
<g id="a_node7"><a xlink:title=" ">
<polygon fill="white" stroke="#bfbfbf" points="314,-112.5 314,-131.5 374,-131.5 374,-112.5 314,-112.5"/>
<text text-anchor="middle" x="344" y="-119.5" font-family="Helvetica,sans-Serif" font-size="10.00">iostream</text>
</a>
</g>
</g>
<!-- Node1&#45;&gt;Node7 -->
<g id="edge6" class="edge">
<title>Node1&#45;&gt;Node7</title>
<path fill="none" stroke="midnightblue" d="M519.04,-168.44C482.37,-158.92 423.12,-143.54 383.87,-133.35"/>
<polygon fill="midnightblue" stroke="midnightblue" points="384.66,-129.94 374.1,-130.82 382.9,-136.72 384.66,-129.94"/>
</g>
<!-- Node8 -->
<g id="node8" class="node">
<title>Node8</title>
<g id="a_node8"><a xlink:title=" ">
<polygon fill="white" stroke="#bfbfbf" points="392,-112.5 392,-131.5 430,-131.5 430,-112.5 392,-112.5"/>
<text text-anchor="middle" x="411" y="-119.5" font-family="Helvetica,sans-Serif" font-size="10.00">map</text>
</a>
</g>
</g>
<!-- Node1&#45;&gt;Node8 -->
<g id="edge7" class="edge">
<title>Node1&#45;&gt;Node8</title>
<path fill="none" stroke="midnightblue" d="M529.66,-168.44C505.28,-159.11 466.2,-144.14 439.6,-133.95"/>
<polygon fill="midnightblue" stroke="midnightblue" points="440.66,-130.61 430.07,-130.3 438.16,-137.15 440.66,-130.61"/>
</g>
<!-- Node9 -->
<g id="node9" class="node">
<title>Node9</title>
<g id="a_node9"><a xlink:title=" ">
<polygon fill="white" stroke="#bfbfbf" points="448,-112.5 448,-131.5 506,-131.5 506,-112.5 448,-112.5"/>
<text text-anchor="middle" x="477" y="-119.5" font-family="Helvetica,sans-Serif" font-size="10.00">memory</text>
</a>
</g>
</g>
<!-- Node1&#45;&gt;Node9 -->
<g id="edge8" class="edge">
<title>Node1&#45;&gt;Node9</title>
<path fill="none" stroke="midnightblue" d="M539.95,-168.32C528.54,-160.11 511.17,-147.6 497.57,-137.81"/>
<polygon fill="midnightblue" stroke="midnightblue" points="499.43,-134.84 489.27,-131.83 495.34,-140.52 499.43,-134.84"/>
</g>
<!-- Node10 -->
<g id="node10" class="node">
<title>Node10</title>
<g id="a_node10"><a xlink:title=" ">
<polygon fill="white" stroke="#bfbfbf" points="524,-112.5 524,-131.5 580,-131.5 580,-112.5 524,-112.5"/>
<text text-anchor="middle" x="552" y="-119.5" font-family="Helvetica,sans-Serif" font-size="10.00">numeric</text>
</a>
</g>
</g>
<!-- Node1&#45;&gt;Node10 -->
<g id="edge9" class="edge">
<title>Node1&#45;&gt;Node10</title>
<path fill="none" stroke="midnightblue" d="M552,-168.08C552,-161.01 552,-150.86 552,-141.99"/>
<polygon fill="midnightblue" stroke="midnightblue" points="555.5,-141.75 552,-131.75 548.5,-141.75 555.5,-141.75"/>
</g>
<!-- Node11 -->
<g id="node11" class="node">
<title>Node11</title>
<g id="a_node11"><a xlink:title=" ">
<polygon fill="white" stroke="#bfbfbf" points="598.5,-112.5 598.5,-131.5 663.5,-131.5 663.5,-112.5 598.5,-112.5"/>
<text text-anchor="middle" x="631" y="-119.5" font-family="Helvetica,sans-Serif" font-size="10.00">stdexcept</text>
</a>
</g>
</g>
<!-- Node1&#45;&gt;Node11 -->
<g id="edge10" class="edge">
<title>Node1&#45;&gt;Node11</title>
<path fill="none" stroke="midnightblue" d="M564.69,-168.32C576.9,-159.98 595.58,-147.21 610,-137.35"/>
<polygon fill="midnightblue" stroke="midnightblue" points="612.06,-140.19 618.34,-131.65 608.11,-134.41 612.06,-140.19"/>
</g>
<!-- Node12 -->
<g id="node12" class="node">
<title>Node12</title>
<g id="a_node12"><a xlink:title=" ">
<polygon fill="white" stroke="#bfbfbf" points="682,-112.5 682,-131.5 726,-131.5 726,-112.5 682,-112.5"/>
<text text-anchor="middle" x="704" y="-119.5" font-family="Helvetica,sans-Serif" font-size="10.00">string</text>
</a>
</g>
</g>
<!-- Node1&#45;&gt;Node12 -->
<g id="edge11" class="edge">
<title>Node1&#45;&gt;Node12</title>
<path fill="none" stroke="midnightblue" d="M576.08,-168.44C601.99,-159.24 643.32,-144.56 671.96,-134.38"/>
<polygon fill="midnightblue" stroke="midnightblue" points="673.26,-137.63 681.51,-130.99 670.92,-131.04 673.26,-137.63"/>
</g>
<!-- Node13 -->
<g id="node13" class="node">
<title>Node13</title>
<g id="a_node13"><a xlink:title=" ">
<polygon fill="white" stroke="#bfbfbf" points="744.5,-112.5 744.5,-131.5 837.5,-131.5 837.5,-112.5 744.5,-112.5"/>
<text text-anchor="middle" x="791" y="-119.5" font-family="Helvetica,sans-Serif" font-size="10.00">unordered_map</text>
</a>
</g>
</g>
<!-- Node1&#45;&gt;Node13 -->
<g id="edge12" class="edge">
<title>Node1&#45;&gt;Node13</title>
<path fill="none" stroke="midnightblue" d="M589.87,-168.44C631.48,-159.04 698.37,-143.93 743.47,-133.74"/>
<polygon fill="midnightblue" stroke="midnightblue" points="744.32,-137.13 753.31,-131.52 742.78,-130.31 744.32,-137.13"/>
</g>
<!-- Node14 -->
<g id="node14" class="node">
<title>Node14</title>
<g id="a_node14"><a xlink:title=" ">
<polygon fill="white" stroke="#bfbfbf" points="856,-112.5 856,-131.5 942,-131.5 942,-112.5 856,-112.5"/>
<text text-anchor="middle" x="899" y="-119.5" font-family="Helvetica,sans-Serif" font-size="10.00">unordered_set</text>
</a>
</g>
</g>
<!-- Node1&#45;&gt;Node14 -->
<g id="edge13" class="edge">
<title>Node1&#45;&gt;Node14</title>
<path fill="none" stroke="midnightblue" d="M609.51,-168.48C668.8,-159.63 763.93,-145.25 846,-132 846.1,-131.98 846.2,-131.97 846.3,-131.95"/>
<polygon fill="midnightblue" stroke="midnightblue" points="846.61,-135.45 855.91,-130.38 845.48,-128.54 846.61,-135.45"/>
</g>
<!-- Node15 -->
<g id="node15" class="node">
<title>Node15</title>
<g id="a_node15"><a xlink:title=" ">
<polygon fill="white" stroke="#bfbfbf" points="956.5,-56.5 956.5,-75.5 1001.5,-75.5 1001.5,-56.5 956.5,-56.5"/>
<text text-anchor="middle" x="979" y="-63.5" font-family="Helvetica,sans-Serif" font-size="10.00">utility</text>
</a>
</g>
</g>
<!-- Node1&#45;&gt;Node15 -->
<g id="edge14" class="edge">
<title>Node1&#45;&gt;Node15</title>
<path fill="none" stroke="midnightblue" d="M628.81,-177.28C730.16,-176.17 901.52,-168.7 951,-132 965.63,-121.15 972.7,-101.08 976.07,-86.09"/>
<polygon fill="midnightblue" stroke="midnightblue" points="979.58,-86.34 977.98,-75.87 972.7,-85.05 979.58,-86.34"/>
</g>
<!-- Node16 -->
<g id="node16" class="node">
<title>Node16</title>
<g id="a_node16"><a xlink:title=" ">
<polygon fill="white" stroke="#bfbfbf" points="998.5,-112.5 998.5,-131.5 1045.5,-131.5 1045.5,-112.5 998.5,-112.5"/>
<text text-anchor="middle" x="1022" y="-119.5" font-family="Helvetica,sans-Serif" font-size="10.00">vector</text>
</a>
</g>
</g>
<!-- Node1&#45;&gt;Node16 -->
<g id="edge15" class="edge">
<title>Node1&#45;&gt;Node16</title>
<path fill="none" stroke="midnightblue" d="M628.88,-171.99C715.59,-165.65 860.59,-152.95 984,-132 985.46,-131.75 986.95,-131.48 988.45,-131.19"/>
<polygon fill="midnightblue" stroke="midnightblue" points="989.32,-134.59 998.38,-129.09 987.87,-127.74 989.32,-134.59"/>
</g>
<!-- Node17 -->
<g id="node17" class="node">
<title>Node17</title>
<g id="a_node17"><a xlink:title=" ">
<polygon fill="white" stroke="#bfbfbf" points="1064,-112.5 1064,-131.5 1124,-131.5 1124,-112.5 1064,-112.5"/>
<text text-anchor="middle" x="1094" y="-119.5" font-family="Helvetica,sans-Serif" font-size="10.00">cgnslib.h</text>
</a>
</g>
</g>
<!-- Node1&#45;&gt;Node17 -->
<g id="edge16" class="edge">
<title>Node1&#45;&gt;Node17</title>
<path fill="none" stroke="midnightblue" d="M628.93,-173.26C727.77,-167.74 904.44,-155.42 1054,-132 1054.1,-131.98 1054.2,-131.97 1054.3,-131.95"/>
<polygon fill="midnightblue" stroke="midnightblue" points="1054.72,-135.43 1063.94,-130.21 1053.48,-128.54 1054.72,-135.43"/>
</g>
<!-- Node18 -->
<g id="node18" class="node">
<title>Node18</title>
<g id="a_node18"><a xlink:href="pi_8hpp.html" target="_top" xlink:title=" ">
<polygon fill="white" stroke="black" points="1142,-112.5 1142,-131.5 1264,-131.5 1264,-112.5 1142,-112.5"/>
<text text-anchor="middle" x="1203" y="-119.5" font-family="Helvetica,sans-Serif" font-size="10.00">mini/geometry/pi.hpp</text>
</a>
</g>
</g>
<!-- Node1&#45;&gt;Node18 -->
<g id="edge17" class="edge">
<title>Node1&#45;&gt;Node18</title>
<path fill="none" stroke="midnightblue" d="M628.71,-172.3C738.03,-165.32 945.16,-151.08 1131.93,-132.06"/>
<polygon fill="midnightblue" stroke="midnightblue" points="1132.35,-135.54 1141.94,-131.04 1131.63,-128.57 1132.35,-135.54"/>
</g>
<!-- Node18&#45;&gt;Node15 -->
<g id="edge20" class="edge">
<title>Node18&#45;&gt;Node15</title>
<path fill="none" stroke="midnightblue" d="M1167.51,-112.44C1124.63,-102.11 1053.11,-84.86 1011.58,-74.85"/>
<polygon fill="midnightblue" stroke="midnightblue" points="1012.25,-71.41 1001.71,-72.47 1010.61,-78.22 1012.25,-71.41"/>
</g>
<!-- Node19 -->
<g id="node19" class="node">
<title>Node19</title>
<g id="a_node19"><a xlink:title=" ">
<polygon fill="white" stroke="#bfbfbf" points="1163.5,-0.5 1163.5,-19.5 1210.5,-19.5 1210.5,-0.5 1163.5,-0.5"/>
<text text-anchor="middle" x="1187" y="-7.5" font-family="Helvetica,sans-Serif" font-size="10.00">cmath</text>
</a>
</g>
</g>
<!-- Node18&#45;&gt;Node19 -->
<g id="edge18" class="edge">
<title>Node18&#45;&gt;Node19</title>
<path fill="none" stroke="midnightblue" d="M1201.74,-112.37C1199.16,-94.62 1193.21,-53.67 1189.71,-29.6"/>
<polygon fill="midnightblue" stroke="midnightblue" points="1193.15,-28.98 1188.25,-19.59 1186.23,-29.99 1193.15,-28.98"/>
</g>
<!-- Node20 -->
<g id="node20" class="node">
<title>Node20</title>
<g id="a_node20"><a xlink:title=" ">
<polygon fill="white" stroke="#bfbfbf" points="1222.5,-56.5 1222.5,-75.5 1281.5,-75.5 1281.5,-56.5 1222.5,-56.5"/>
<text text-anchor="middle" x="1252" y="-63.5" font-family="Helvetica,sans-Serif" font-size="10.00">numbers</text>
</a>
</g>
</g>
<!-- Node18&#45;&gt;Node20 -->
<g id="edge19" class="edge">
<title>Node18&#45;&gt;Node20</title>
<path fill="none" stroke="midnightblue" d="M1211.09,-112.08C1218.16,-104.3 1228.59,-92.8 1237.15,-83.37"/>
<polygon fill="midnightblue" stroke="midnightblue" points="1239.93,-85.51 1244.06,-75.75 1234.75,-80.8 1239.93,-85.51"/>
</g>
<!-- Node21 -->
<g id="node21" class="node">
<title>Node21</title>
<g id="a_node21"><a xlink:href="algebra_2eigen_8hpp.html" target="_top" xlink:title=" ">
<polygon fill="white" stroke="black" points="1036.5,-56.5 1036.5,-75.5 1165.5,-75.5 1165.5,-56.5 1036.5,-56.5"/>
<text text-anchor="middle" x="1101" y="-63.5" font-family="Helvetica,sans-Serif" font-size="10.00">mini/algebra/eigen.hpp</text>
</a>
</g>
</g>
<!-- Node18&#45;&gt;Node21 -->
<g id="edge21" class="edge">
<title>Node18&#45;&gt;Node21</title>
<path fill="none" stroke="midnightblue" d="M1186.61,-112.32C1170.33,-103.7 1145.13,-90.36 1126.28,-80.39"/>
<polygon fill="midnightblue" stroke="midnightblue" points="1127.82,-77.24 1117.35,-75.65 1124.55,-83.43 1127.82,-77.24"/>
</g>
<!-- Node21&#45;&gt;Node4 -->
<g id="edge22" class="edge">
<title>Node21&#45;&gt;Node4</title>
<path fill="none" stroke="midnightblue" d="M1036.34,-58.59C923.42,-47.4 693.26,-24.6 598.36,-15.2"/>
<polygon fill="midnightblue" stroke="midnightblue" points="598.57,-11.7 588.27,-14.2 597.88,-18.67 598.57,-11.7"/>
</g>
<!-- Node21&#45;&gt;Node19 -->
<g id="edge23" class="edge">
<title>Node21&#45;&gt;Node19</title>
<path fill="none" stroke="midnightblue" d="M1114.82,-56.32C1128.23,-47.9 1148.82,-34.97 1164.59,-25.07"/>
<polygon fill="midnightblue" stroke="midnightblue" points="1166.61,-27.94 1173.22,-19.65 1162.89,-22.01 1166.61,-27.94"/>
</g>
<!-- Node22 -->
<g id="node22" class="node">
<title>Node22</title>
<g id="a_node22"><a xlink:title=" ">
<polygon fill="white" stroke="#bfbfbf" points="1089.5,-0.5 1089.5,-19.5 1138.5,-19.5 1138.5,-0.5 1089.5,-0.5"/>
<text text-anchor="middle" x="1114" y="-7.5" font-family="Helvetica,sans-Serif" font-size="10.00">cstdlib</text>
</a>
</g>
</g>
<!-- Node21&#45;&gt;Node22 -->
<g id="edge24" class="edge">
<title>Node21&#45;&gt;Node22</title>
<path fill="none" stroke="midnightblue" d="M1103.15,-56.08C1104.87,-48.93 1107.35,-38.64 1109.5,-29.69"/>
<polygon fill="midnightblue" stroke="midnightblue" points="1112.96,-30.29 1111.89,-19.75 1106.15,-28.65 1112.96,-30.29"/>
</g>
<!-- Node23 -->
<g id="node23" class="node">
<title>Node23</title>
<g id="a_node23"><a xlink:title=" ">
<polygon fill="white" stroke="#bfbfbf" points="997,-0.5 997,-19.5 1071,-19.5 1071,-0.5 997,-0.5"/>
<text text-anchor="middle" x="1034" y="-7.5" font-family="Helvetica,sans-Serif" font-size="10.00">Eigen/Eigen</text>
</a>
</g>
</g>
<!-- Node21&#45;&gt;Node23 -->
<g id="edge25" class="edge">
<title>Node21&#45;&gt;Node23</title>
<path fill="none" stroke="midnightblue" d="M1090.24,-56.32C1080.23,-48.26 1065.11,-36.08 1053.07,-26.37"/>
<polygon fill="midnightblue" stroke="midnightblue" points="1054.94,-23.38 1044.96,-19.83 1050.55,-28.83 1054.94,-23.38"/>
</g>
</g>
</svg>
