<?xml version="1.0" encoding="UTF-8" standalone="no"?>
<!DOCTYPE svg PUBLIC "-//W3C//DTD SVG 1.1//EN"
 "http://www.w3.org/Graphics/SVG/1.1/DTD/svg11.dtd">
<!-- Generated by graphviz version 2.43.0 (0)
 -->
<!-- Title: python.limiter.CompactWENO Pages: 1 -->
<svg width="626pt" height="116pt"
 viewBox="0.00 0.00 626.00 115.50" xmlns="http://www.w3.org/2000/svg" xmlns:xlink="http://www.w3.org/1999/xlink">
<g id="graph0" class="graph" transform="scale(1 1) rotate(0) translate(4 111.5)">
<title>python.limiter.CompactWENO</title>
<polygon fill="white" stroke="transparent" points="-4,4 -4,-111.5 622,-111.5 622,4 -4,4"/>
<!-- Node1 -->
<g id="node1" class="node">
<title>Node1</title>
<g id="a_node1"><a xlink:title="A high&#45;order WENO limiter, which is compact (using only immediate neighbors).">
<polygon fill="#bfbfbf" stroke="black" points="258,-50 258,-69 420,-69 420,-50 258,-50"/>
<text text-anchor="middle" x="339" y="-57" font-family="Helvetica,sans-Serif" font-size="10.00">python.limiter.CompactWENO</text>
</a>
</g>
</g>
<!-- Node4 -->
<g id="node4" class="node">
<title>Node4</title>
<g id="a_node4"><a xlink:href="classpython_1_1limiter_1_1LiWanAi2020.html" target="_top" xlink:title="A high&#45;order compact WENO limiter, whose linear weights are related to candidates&#39; degrees.">
<polygon fill="white" stroke="black" points="461.5,-88 461.5,-107 612.5,-107 612.5,-88 461.5,-88"/>
<text text-anchor="middle" x="537" y="-95" font-family="Helvetica,sans-Serif" font-size="10.00">python.limiter.LiWanAi2020</text>
</a>
</g>
</g>
<!-- Node1&#45;&gt;Node4 -->
<g id="edge3" class="edge">
<title>Node1&#45;&gt;Node4</title>
<path fill="none" stroke="midnightblue" d="M399.26,-70.99C427.23,-76.41 460.21,-82.81 486.77,-87.96"/>
<polygon fill="midnightblue" stroke="midnightblue" points="399.69,-67.51 389.21,-69.04 398.36,-74.38 399.69,-67.51"/>
</g>
<!-- Node5 -->
<g id="node5" class="node">
<title>Node5</title>
<g id="a_node5"><a xlink:href="classpython_1_1limiter_1_1XuXiaoRui2023.html" target="_top" xlink:title="A limiter using min&#45;max compression.">
<polygon fill="white" stroke="black" points="456,-50 456,-69 618,-69 618,-50 456,-50"/>
<text text-anchor="middle" x="537" y="-57" font-family="Helvetica,sans-Serif" font-size="10.00">python.limiter.XuXiaoRui2023</text>
</a>
</g>
</g>
<!-- Node1&#45;&gt;Node5 -->
<g id="edge4" class="edge">
<title>Node1&#45;&gt;Node5</title>
<path fill="none" stroke="midnightblue" d="M430.08,-59.5C438.7,-59.5 447.41,-59.5 455.93,-59.5"/>
<polygon fill="midnightblue" stroke="midnightblue" points="430,-56 420,-59.5 430,-63 430,-56"/>
</g>
<!-- Node6 -->
<g id="node6" class="node">
<title>Node6</title>
<g id="a_node6"><a xlink:href="classpython_1_1limiter_1_1ZhongXingHui2013.html" target="_top" xlink:title="A high&#45;order compact WENO limiter, which is simple (just borrowing immediate neighbors&#39; expansions).">
<polygon fill="white" stroke="black" points="467,-0.5 467,-30.5 607,-30.5 607,-0.5 467,-0.5"/>
<text text-anchor="start" x="475" y="-18.5" font-family="Helvetica,sans-Serif" font-size="10.00">python.limiter.ZhongXing</text>
<text text-anchor="middle" x="537" y="-7.5" font-family="Helvetica,sans-Serif" font-size="10.00">Hui2013</text>
</a>
</g>
</g>
<!-- Node1&#45;&gt;Node6 -->
<g id="edge5" class="edge">
<title>Node1&#45;&gt;Node6</title>
<path fill="none" stroke="midnightblue" d="M392.31,-47.76C415.82,-42.48 443.85,-36.19 468.89,-30.57"/>
<polygon fill="midnightblue" stroke="midnightblue" points="391.52,-44.35 382.53,-49.95 393.05,-51.18 391.52,-44.35"/>
</g>
<!-- Node2 -->
<g id="node2" class="node">
<title>Node2</title>
<g id="a_node2"><a xlink:href="classpython_1_1concept_1_1Limiter.html" target="_top" xlink:title="An object that limits oscillations on an element.">
<polygon fill="white" stroke="black" points="93,-50 93,-69 222,-69 222,-50 93,-50"/>
<text text-anchor="middle" x="157.5" y="-57" font-family="Helvetica,sans-Serif" font-size="10.00">python.concept.Limiter</text>
</a>
</g>
</g>
<!-- Node2&#45;&gt;Node1 -->
<g id="edge1" class="edge">
<title>Node2&#45;&gt;Node1</title>
<path fill="none" stroke="midnightblue" d="M232.23,-59.5C240.69,-59.5 249.34,-59.5 257.88,-59.5"/>
<polygon fill="midnightblue" stroke="midnightblue" points="232.04,-56 222.04,-59.5 232.04,-63 232.04,-56"/>
</g>
<!-- Node3 -->
<g id="node3" class="node">
<title>Node3</title>
<g id="a_node3"><a xlink:title=" ">
<polygon fill="white" stroke="#bfbfbf" points="0,-50 0,-69 57,-69 57,-50 0,-50"/>
<text text-anchor="middle" x="28.5" y="-57" font-family="Helvetica,sans-Serif" font-size="10.00">abc.ABC</text>
</a>
</g>
</g>
<!-- Node3&#45;&gt;Node2 -->
<g id="edge2" class="edge">
<title>Node3&#45;&gt;Node2</title>
<path fill="none" stroke="midnightblue" d="M67.22,-59.5C75.29,-59.5 84.03,-59.5 92.77,-59.5"/>
<polygon fill="midnightblue" stroke="midnightblue" points="67.06,-56 57.06,-59.5 67.06,-63 67.06,-56"/>
</g>
</g>
</svg>
