<?xml version="1.0" encoding="UTF-8" standalone="no"?>
<!DOCTYPE svg PUBLIC "-//W3C//DTD SVG 1.1//EN"
 "http://www.w3.org/Graphics/SVG/1.1/DTD/svg11.dtd">
<!-- Generated by graphviz version 2.43.0 (0)
 -->
<!-- Title: python.spatial.DiscontinuousGalerkin Pages: 1 -->
<svg width="1039pt" height="176pt"
 viewBox="0.00 0.00 1039.00 175.50" xmlns="http://www.w3.org/2000/svg" xmlns:xlink="http://www.w3.org/1999/xlink">
<g id="graph0" class="graph" transform="scale(1 1) rotate(0) translate(4 171.5)">
<title>python.spatial.DiscontinuousGalerkin</title>
<polygon fill="white" stroke="transparent" points="-4,4 -4,-171.5 1035,-171.5 1035,4 -4,4"/>
<!-- Node1 -->
<g id="node1" class="node">
<title>Node1</title>
<g id="a_node1"><a xlink:title="An mid&#45;level class that defines common methods for all DG schemes.">
<polygon fill="#bfbfbf" stroke="black" points="676,-63 676,-93 834,-93 834,-63 676,-63"/>
<text text-anchor="start" x="684" y="-81" font-family="Helvetica,sans-Serif" font-size="10.00">python.spatial.Discontinuous</text>
<text text-anchor="middle" x="755" y="-70" font-family="Helvetica,sans-Serif" font-size="10.00">Galerkin</text>
</a>
</g>
</g>
<!-- Node7 -->
<g id="node7" class="node">
<title>Node7</title>
<g id="a_node7"><a xlink:href="classpython_1_1spatial_1_1DGonLegendreRoots.html" target="_top" xlink:title="The ODE system given by the DG method using a Lagrange expansion on Legendre roots.">
<polygon fill="white" stroke="black" points="870,-137 870,-167 1031,-167 1031,-137 870,-137"/>
<text text-anchor="start" x="878" y="-155" font-family="Helvetica,sans-Serif" font-size="10.00">python.spatial.DGonLegendre</text>
<text text-anchor="middle" x="950.5" y="-144" font-family="Helvetica,sans-Serif" font-size="10.00">Roots</text>
</a>
</g>
</g>
<!-- Node1&#45;&gt;Node7 -->
<g id="edge7" class="edge">
<title>Node1&#45;&gt;Node7</title>
<path fill="none" stroke="midnightblue" d="M796.7,-97.27C818.23,-107.1 845.27,-118.88 870,-128 878.39,-131.09 887.37,-134.09 896.18,-136.87"/>
<polygon fill="midnightblue" stroke="midnightblue" points="798.07,-94.05 787.52,-93.05 795.14,-100.41 798.07,-94.05"/>
</g>
<!-- Node8 -->
<g id="node8" class="node">
<title>Node8</title>
<g id="a_node8"><a xlink:href="classpython_1_1spatial_1_1DGonLobattoRoots.html" target="_top" xlink:title="The ODE system given by the DG method using a Lagrange expansion on Lobatto roots.">
<polygon fill="white" stroke="black" points="874,-88 874,-118 1027,-118 1027,-88 874,-88"/>
<text text-anchor="start" x="882" y="-106" font-family="Helvetica,sans-Serif" font-size="10.00">python.spatial.DGonLobatto</text>
<text text-anchor="middle" x="950.5" y="-95" font-family="Helvetica,sans-Serif" font-size="10.00">Roots</text>
</a>
</g>
</g>
<!-- Node1&#45;&gt;Node8 -->
<g id="edge8" class="edge">
<title>Node1&#45;&gt;Node8</title>
<path fill="none" stroke="midnightblue" d="M844.36,-89.42C854.23,-90.69 864.21,-91.98 873.89,-93.23"/>
<polygon fill="midnightblue" stroke="midnightblue" points="844.51,-85.91 834.15,-88.1 843.62,-92.85 844.51,-85.91"/>
</g>
<!-- Node9 -->
<g id="node9" class="node">
<title>Node9</title>
<g id="a_node9"><a xlink:href="classpython_1_1spatial_1_1DGonUniformRoots.html" target="_top" xlink:title="The ODE system given by the DG method using a Lagrange expansion on uniform roots.">
<polygon fill="white" stroke="black" points="872.5,-39 872.5,-69 1028.5,-69 1028.5,-39 872.5,-39"/>
<text text-anchor="start" x="880.5" y="-57" font-family="Helvetica,sans-Serif" font-size="10.00">python.spatial.DGonUniform</text>
<text text-anchor="middle" x="950.5" y="-46" font-family="Helvetica,sans-Serif" font-size="10.00">Roots</text>
</a>
</g>
</g>
<!-- Node1&#45;&gt;Node9 -->
<g id="edge9" class="edge">
<title>Node1&#45;&gt;Node9</title>
<path fill="none" stroke="midnightblue" d="M844.25,-67.05C853.62,-65.89 863.09,-64.72 872.32,-63.57"/>
<polygon fill="midnightblue" stroke="midnightblue" points="843.64,-63.6 834.15,-68.31 844.5,-70.55 843.64,-63.6"/>
</g>
<!-- Node10 -->
<g id="node10" class="node">
<title>Node10</title>
<g id="a_node10"><a xlink:href="classpython_1_1spatial_1_1LegendreDG.html" target="_top" xlink:title="The ODE system given by the DG method using a Legendre expansion.">
<polygon fill="white" stroke="black" points="876,-0.5 876,-19.5 1025,-19.5 1025,-0.5 876,-0.5"/>
<text text-anchor="middle" x="950.5" y="-7.5" font-family="Helvetica,sans-Serif" font-size="10.00">python.spatial.LegendreDG</text>
</a>
</g>
</g>
<!-- Node1&#45;&gt;Node10 -->
<g id="edge10" class="edge">
<title>Node1&#45;&gt;Node10</title>
<path fill="none" stroke="midnightblue" d="M796.53,-58.57C818.02,-48.78 845.06,-37.27 870,-29 880.78,-25.43 892.58,-22.23 903.72,-19.53"/>
<polygon fill="midnightblue" stroke="midnightblue" points="794.99,-55.42 787.38,-62.78 797.92,-61.78 794.99,-55.42"/>
</g>
<!-- Node2 -->
<g id="node2" class="node">
<title>Node2</title>
<g id="a_node2"><a xlink:href="classpython_1_1spatial_1_1FiniteElement.html" target="_top" xlink:title="An ODE system given by some FiniteElement scheme.">
<polygon fill="white" stroke="black" points="483,-68.5 483,-87.5 640,-87.5 640,-68.5 483,-68.5"/>
<text text-anchor="middle" x="561.5" y="-75.5" font-family="Helvetica,sans-Serif" font-size="10.00">python.spatial.FiniteElement</text>
</a>
</g>
</g>
<!-- Node2&#45;&gt;Node1 -->
<g id="edge1" class="edge">
<title>Node2&#45;&gt;Node1</title>
<path fill="none" stroke="midnightblue" d="M650.16,-78C658.77,-78 667.46,-78 675.96,-78"/>
<polygon fill="midnightblue" stroke="midnightblue" points="650.11,-74.5 640.11,-78 650.11,-81.5 650.11,-74.5"/>
</g>
<!-- Node3 -->
<g id="node3" class="node">
<title>Node3</title>
<g id="a_node3"><a xlink:href="classpython_1_1concept_1_1SpatialScheme.html" target="_top" xlink:title="An ODE system given by some FiniteElement scheme.">
<polygon fill="white" stroke="black" points="280,-68.5 280,-87.5 447,-87.5 447,-68.5 280,-68.5"/>
<text text-anchor="middle" x="363.5" y="-75.5" font-family="Helvetica,sans-Serif" font-size="10.00">python.concept.SpatialScheme</text>
</a>
</g>
</g>
<!-- Node3&#45;&gt;Node2 -->
<g id="edge2" class="edge">
<title>Node3&#45;&gt;Node2</title>
<path fill="none" stroke="midnightblue" d="M457.09,-78C465.67,-78 474.3,-78 482.73,-78"/>
<polygon fill="midnightblue" stroke="midnightblue" points="457.05,-74.5 447.05,-78 457.05,-81.5 457.05,-74.5"/>
</g>
<!-- Node4 -->
<g id="node4" class="node">
<title>Node4</title>
<g id="a_node4"><a xlink:href="classpython_1_1concept_1_1Grid.html" target="_top" xlink:title=" ">
<polygon fill="white" stroke="black" points="111,-87.5 111,-106.5 226,-106.5 226,-87.5 111,-87.5"/>
<text text-anchor="middle" x="168.5" y="-94.5" font-family="Helvetica,sans-Serif" font-size="10.00">python.concept.Grid</text>
</a>
</g>
</g>
<!-- Node4&#45;&gt;Node3 -->
<g id="edge3" class="edge">
<title>Node4&#45;&gt;Node3</title>
<path fill="none" stroke="midnightblue" d="M236.15,-90.44C250.2,-89.06 265.18,-87.58 279.74,-86.15"/>
<polygon fill="midnightblue" stroke="midnightblue" points="235.71,-86.96 226.1,-91.43 236.4,-93.93 235.71,-86.96"/>
</g>
<!-- Node5 -->
<g id="node5" class="node">
<title>Node5</title>
<g id="a_node5"><a xlink:title=" ">
<polygon fill="white" stroke="#bfbfbf" points="0,-68.5 0,-87.5 57,-87.5 57,-68.5 0,-68.5"/>
<text text-anchor="middle" x="28.5" y="-75.5" font-family="Helvetica,sans-Serif" font-size="10.00">abc.ABC</text>
</a>
</g>
</g>
<!-- Node5&#45;&gt;Node4 -->
<g id="edge4" class="edge">
<title>Node5&#45;&gt;Node4</title>
<path fill="none" stroke="midnightblue" d="M67.38,-83.22C80.81,-85.06 96.22,-87.19 110.86,-89.2"/>
<polygon fill="midnightblue" stroke="midnightblue" points="67.48,-79.7 57.09,-81.8 66.52,-86.63 67.48,-79.7"/>
</g>
<!-- Node6 -->
<g id="node6" class="node">
<title>Node6</title>
<g id="a_node6"><a xlink:href="classpython_1_1concept_1_1OdeSystem.html" target="_top" xlink:title="A system of ODEs in the form of dU/∂t = R.">
<polygon fill="white" stroke="black" points="93,-49.5 93,-68.5 244,-68.5 244,-49.5 93,-49.5"/>
<text text-anchor="middle" x="168.5" y="-56.5" font-family="Helvetica,sans-Serif" font-size="10.00">python.concept.OdeSystem</text>
</a>
</g>
</g>
<!-- Node5&#45;&gt;Node6 -->
<g id="edge6" class="edge">
<title>Node5&#45;&gt;Node6</title>
<path fill="none" stroke="midnightblue" d="M67.13,-72.82C76.8,-71.49 87.52,-70.01 98.24,-68.54"/>
<polygon fill="midnightblue" stroke="midnightblue" points="66.52,-69.37 57.09,-74.2 67.48,-76.3 66.52,-69.37"/>
</g>
<!-- Node6&#45;&gt;Node3 -->
<g id="edge5" class="edge">
<title>Node6&#45;&gt;Node3</title>
<path fill="none" stroke="midnightblue" d="M254.33,-67.35C262.77,-68.18 271.33,-69.02 279.74,-69.85"/>
<polygon fill="midnightblue" stroke="midnightblue" points="254.41,-63.84 244.12,-66.35 253.73,-70.81 254.41,-63.84"/>
</g>
</g>
</svg>
