<?xml version="1.0" encoding="UTF-8" standalone="no"?>
<!DOCTYPE svg PUBLIC "-//W3C//DTD SVG 1.1//EN"
 "http://www.w3.org/Graphics/SVG/1.1/DTD/svg11.dtd">
<!-- Generated by graphviz version 2.43.0 (0)
 -->
<!-- Title: mini::coordinate::Wedge&lt; Scalar &gt; Pages: 1 -->
<svg width="662pt" height="137pt"
 viewBox="0.00 0.00 662.00 137.00" xmlns="http://www.w3.org/2000/svg" xmlns:xlink="http://www.w3.org/1999/xlink">
<g id="graph0" class="graph" transform="scale(1 1) rotate(0) translate(4 133)">
<title>mini::coordinate::Wedge&lt; Scalar &gt;</title>
<polygon fill="white" stroke="transparent" points="-4,4 -4,-133 658,-133 658,4 -4,4"/>
<!-- Node1 -->
<g id="node1" class="node">
<title>Node1</title>
<g id="a_node1"><a xlink:title="Abstract coordinate map on wedge elements.">
<polygon fill="#bfbfbf" stroke="black" points="336,-49.5 336,-79.5 471,-79.5 471,-49.5 336,-49.5"/>
<text text-anchor="start" x="344" y="-67.5" font-family="Helvetica,sans-Serif" font-size="10.00">mini::coordinate::Wedge</text>
<text text-anchor="middle" x="403.5" y="-56.5" font-family="Helvetica,sans-Serif" font-size="10.00">&lt; Scalar &gt;</text>
</a>
</g>
</g>
<!-- Node4 -->
<g id="node4" class="node">
<title>Node4</title>
<g id="a_node4"><a xlink:href="classmini_1_1coordinate_1_1Wedge15.html" target="_top" xlink:title="Coordinate map on 15&#45;node wedge elements.">
<polygon fill="white" stroke="black" points="507,-98.5 507,-128.5 654,-128.5 654,-98.5 507,-98.5"/>
<text text-anchor="start" x="515" y="-116.5" font-family="Helvetica,sans-Serif" font-size="10.00">mini::coordinate::Wedge15</text>
<text text-anchor="middle" x="580.5" y="-105.5" font-family="Helvetica,sans-Serif" font-size="10.00">&lt; Scalar &gt;</text>
</a>
</g>
</g>
<!-- Node1&#45;&gt;Node4 -->
<g id="edge3" class="edge">
<title>Node1&#45;&gt;Node4</title>
<path fill="none" stroke="midnightblue" d="M468.15,-82.32C487.04,-87.61 507.54,-93.35 525.74,-98.45"/>
<polygon fill="midnightblue" stroke="midnightblue" points="469.01,-78.93 458.43,-79.6 467.12,-85.67 469.01,-78.93"/>
</g>
<!-- Node5 -->
<g id="node5" class="node">
<title>Node5</title>
<g id="a_node5"><a xlink:href="classmini_1_1coordinate_1_1Wedge18.html" target="_top" xlink:title="Coordinate map on 18&#45;node wedge elements.">
<polygon fill="white" stroke="black" points="507,-49.5 507,-79.5 654,-79.5 654,-49.5 507,-49.5"/>
<text text-anchor="start" x="515" y="-67.5" font-family="Helvetica,sans-Serif" font-size="10.00">mini::coordinate::Wedge18</text>
<text text-anchor="middle" x="580.5" y="-56.5" font-family="Helvetica,sans-Serif" font-size="10.00">&lt; Scalar &gt;</text>
</a>
</g>
</g>
<!-- Node1&#45;&gt;Node5 -->
<g id="edge4" class="edge">
<title>Node1&#45;&gt;Node5</title>
<path fill="none" stroke="midnightblue" d="M481.4,-64.5C489.88,-64.5 498.48,-64.5 506.9,-64.5"/>
<polygon fill="midnightblue" stroke="midnightblue" points="481.16,-61 471.16,-64.5 481.16,-68 481.16,-61"/>
</g>
<!-- Node6 -->
<g id="node6" class="node">
<title>Node6</title>
<g id="a_node6"><a xlink:href="classmini_1_1coordinate_1_1Wedge6.html" target="_top" xlink:title="Coordinate map on 6&#45;node wedge elements.">
<polygon fill="white" stroke="black" points="510,-0.5 510,-30.5 651,-30.5 651,-0.5 510,-0.5"/>
<text text-anchor="start" x="518" y="-18.5" font-family="Helvetica,sans-Serif" font-size="10.00">mini::coordinate::Wedge6</text>
<text text-anchor="middle" x="580.5" y="-7.5" font-family="Helvetica,sans-Serif" font-size="10.00">&lt; Scalar &gt;</text>
</a>
</g>
</g>
<!-- Node1&#45;&gt;Node6 -->
<g id="edge5" class="edge">
<title>Node1&#45;&gt;Node6</title>
<path fill="none" stroke="midnightblue" d="M468.15,-46.68C487.04,-41.39 507.54,-35.65 525.74,-30.55"/>
<polygon fill="midnightblue" stroke="midnightblue" points="467.12,-43.33 458.43,-49.4 469.01,-50.07 467.12,-43.33"/>
</g>
<!-- Node2 -->
<g id="node2" class="node">
<title>Node2</title>
<g id="a_node2"><a xlink:href="classmini_1_1coordinate_1_1Cell.html" target="_top" xlink:title="Abstract coordinate map on volume elements.">
<polygon fill="white" stroke="black" points="179,-49.5 179,-79.5 300,-79.5 300,-49.5 179,-49.5"/>
<text text-anchor="start" x="187" y="-67.5" font-family="Helvetica,sans-Serif" font-size="10.00">mini::coordinate::Cell</text>
<text text-anchor="middle" x="239.5" y="-56.5" font-family="Helvetica,sans-Serif" font-size="10.00">&lt; Scalar &gt;</text>
</a>
</g>
</g>
<!-- Node2&#45;&gt;Node1 -->
<g id="edge1" class="edge">
<title>Node2&#45;&gt;Node1</title>
<path fill="none" stroke="midnightblue" d="M310.5,-64.5C318.89,-64.5 327.44,-64.5 335.79,-64.5"/>
<polygon fill="midnightblue" stroke="midnightblue" points="310.36,-61 300.36,-64.5 310.36,-68 310.36,-61"/>
</g>
<!-- Node3 -->
<g id="node3" class="node">
<title>Node3</title>
<g id="a_node3"><a xlink:href="classmini_1_1coordinate_1_1Element.html" target="_top" xlink:title=" ">
<polygon fill="white" stroke="black" points="0,-49.5 0,-79.5 143,-79.5 143,-49.5 0,-49.5"/>
<text text-anchor="start" x="8" y="-67.5" font-family="Helvetica,sans-Serif" font-size="10.00">mini::coordinate::Element</text>
<text text-anchor="middle" x="71.5" y="-56.5" font-family="Helvetica,sans-Serif" font-size="10.00">&lt; Scalar, 3, 3 &gt;</text>
</a>
</g>
</g>
<!-- Node3&#45;&gt;Node2 -->
<g id="edge2" class="edge">
<title>Node3&#45;&gt;Node2</title>
<path fill="none" stroke="midnightblue" d="M153.4,-64.5C161.97,-64.5 170.56,-64.5 178.82,-64.5"/>
<polygon fill="midnightblue" stroke="midnightblue" points="153.38,-61 143.38,-64.5 153.38,-68 153.38,-61"/>
</g>
</g>
</svg>
