<?xml version="1.0" encoding="UTF-8" standalone="no"?>
<!DOCTYPE svg PUBLIC "-//W3C//DTD SVG 1.1//EN"
 "http://www.w3.org/Graphics/SVG/1.1/DTD/svg11.dtd">
<!-- Generated by graphviz version 2.43.0 (0)
 -->
<!-- Title: python.element.LegendreDG Pages: 1 -->
<svg width="174pt" height="207pt"
 viewBox="0.00 0.00 174.00 207.00" xmlns="http://www.w3.org/2000/svg" xmlns:xlink="http://www.w3.org/1999/xlink">
<g id="graph0" class="graph" transform="scale(1 1) rotate(0) translate(4 203)">
<title>python.element.LegendreDG</title>
<polygon fill="white" stroke="transparent" points="-4,4 -4,-203 170,-203 170,4 -4,4"/>
<!-- Node1 -->
<g id="node1" class="node">
<title>Node1</title>
<g id="a_node1"><a xlink:title="Element for implement the DG scheme based on Legendre polynomials.">
<polygon fill="#bfbfbf" stroke="black" points="4.5,-0.5 4.5,-19.5 161.5,-19.5 161.5,-0.5 4.5,-0.5"/>
<text text-anchor="middle" x="83" y="-7.5" font-family="Helvetica,sans-Serif" font-size="10.00">python.element.LegendreDG</text>
</a>
</g>
</g>
<!-- Node2 -->
<g id="node2" class="node">
<title>Node2</title>
<g id="a_node2"><a xlink:href="classpython_1_1element_1_1DiscontinuousGalerkin.html" target="_top" xlink:title="Element for implement DG schemes.">
<polygon fill="white" stroke="black" points="0,-56.5 0,-86.5 166,-86.5 166,-56.5 0,-56.5"/>
<text text-anchor="start" x="8" y="-74.5" font-family="Helvetica,sans-Serif" font-size="10.00">python.element.Discontinuous</text>
<text text-anchor="middle" x="83" y="-63.5" font-family="Helvetica,sans-Serif" font-size="10.00">Galerkin</text>
</a>
</g>
</g>
<!-- Node2&#45;&gt;Node1 -->
<g id="edge1" class="edge">
<title>Node2&#45;&gt;Node1</title>
<path fill="none" stroke="midnightblue" d="M83,-46.29C83,-36.86 83,-26.65 83,-19.66"/>
<polygon fill="midnightblue" stroke="midnightblue" points="79.5,-46.4 83,-56.4 86.5,-46.4 79.5,-46.4"/>
</g>
<!-- Node3 -->
<g id="node3" class="node">
<title>Node3</title>
<g id="a_node3"><a xlink:href="classpython_1_1concept_1_1Element.html" target="_top" xlink:title="A cell&#45;like object that carries some expansion of the solution.">
<polygon fill="white" stroke="black" points="15.5,-123.5 15.5,-142.5 150.5,-142.5 150.5,-123.5 15.5,-123.5"/>
<text text-anchor="middle" x="83" y="-130.5" font-family="Helvetica,sans-Serif" font-size="10.00">python.concept.Element</text>
</a>
</g>
</g>
<!-- Node3&#45;&gt;Node2 -->
<g id="edge2" class="edge">
<title>Node3&#45;&gt;Node2</title>
<path fill="none" stroke="midnightblue" d="M83,-113.23C83,-104.59 83,-94.5 83,-86.52"/>
<polygon fill="midnightblue" stroke="midnightblue" points="79.5,-113.48 83,-123.48 86.5,-113.48 79.5,-113.48"/>
</g>
<!-- Node4 -->
<g id="node4" class="node">
<title>Node4</title>
<g id="a_node4"><a xlink:title=" ">
<polygon fill="white" stroke="#bfbfbf" points="54.5,-179.5 54.5,-198.5 111.5,-198.5 111.5,-179.5 54.5,-179.5"/>
<text text-anchor="middle" x="83" y="-186.5" font-family="Helvetica,sans-Serif" font-size="10.00">abc.ABC</text>
</a>
</g>
</g>
<!-- Node4&#45;&gt;Node3 -->
<g id="edge3" class="edge">
<title>Node4&#45;&gt;Node3</title>
<path fill="none" stroke="midnightblue" d="M83,-168.8C83,-159.91 83,-149.78 83,-142.75"/>
<polygon fill="midnightblue" stroke="midnightblue" points="79.5,-169.08 83,-179.08 86.5,-169.08 79.5,-169.08"/>
</g>
</g>
</svg>
