<?xml version="1.0" encoding="UTF-8" standalone="no"?>
<!DOCTYPE svg PUBLIC "-//W3C//DTD SVG 1.1//EN"
 "http://www.w3.org/Graphics/SVG/1.1/DTD/svg11.dtd">
<!-- Generated by graphviz version 2.43.0 (0)
 -->
<!-- Title: mini::spatial::fr::Lobatto&lt; P, R &gt; Pages: 1 -->
<svg width="290pt" height="253pt"
 viewBox="0.00 0.00 290.00 253.00" xmlns="http://www.w3.org/2000/svg" xmlns:xlink="http://www.w3.org/1999/xlink">
<g id="graph0" class="graph" transform="scale(1 1) rotate(0) translate(4 249)">
<title>mini::spatial::fr::Lobatto&lt; P, R &gt;</title>
<polygon fill="white" stroke="transparent" points="-4,4 -4,-249 286,-249 286,4 -4,4"/>
<!-- Node1 -->
<g id="node1" class="node">
<title>Node1</title>
<g id="a_node1"><a xlink:title="A specialized version of FR using a Lagrange expansion on Lobatto roots with the &quot;Lumping Lobatto&quot; co...">
<polygon fill="#bfbfbf" stroke="black" points="139,-0.5 139,-30.5 236,-30.5 236,-0.5 139,-0.5"/>
<text text-anchor="start" x="147" y="-18.5" font-family="Helvetica,sans-Serif" font-size="10.00">mini::spatial::fr::</text>
<text text-anchor="middle" x="187.5" y="-7.5" font-family="Helvetica,sans-Serif" font-size="10.00">Lobatto&lt; P, R &gt;</text>
</a>
</g>
</g>
<!-- Node2 -->
<g id="node2" class="node">
<title>Node2</title>
<g id="a_node2"><a xlink:href="classmini_1_1spatial_1_1fr_1_1General.html" target="_top" xlink:title="A general version of FR using a Lagrange expansion whose flux points are also solution points.">
<polygon fill="white" stroke="black" points="139,-68.5 139,-98.5 236,-98.5 236,-68.5 139,-68.5"/>
<text text-anchor="start" x="147" y="-86.5" font-family="Helvetica,sans-Serif" font-size="10.00">mini::spatial::fr::</text>
<text text-anchor="middle" x="187.5" y="-75.5" font-family="Helvetica,sans-Serif" font-size="10.00">General&lt; P, R &gt;</text>
</a>
</g>
</g>
<!-- Node2&#45;&gt;Node1 -->
<g id="edge1" class="edge">
<title>Node2&#45;&gt;Node1</title>
<path fill="none" stroke="midnightblue" d="M187.5,-58.03C187.5,-48.86 187.5,-38.74 187.5,-30.79"/>
<polygon fill="midnightblue" stroke="midnightblue" points="184,-58.18 187.5,-68.18 191,-58.18 184,-58.18"/>
</g>
<!-- Node3 -->
<g id="node3" class="node">
<title>Node3</title>
<g id="a_node3"><a xlink:href="classmini_1_1spatial_1_1FiniteElement.html" target="_top" xlink:title=" ">
<polygon fill="white" stroke="black" points="0,-146.5 0,-176.5 151,-176.5 151,-146.5 0,-146.5"/>
<text text-anchor="start" x="8" y="-164.5" font-family="Helvetica,sans-Serif" font-size="10.00">mini::spatial::FiniteElement</text>
<text text-anchor="middle" x="75.5" y="-153.5" font-family="Helvetica,sans-Serif" font-size="10.00">&lt; P, R &gt;</text>
</a>
</g>
</g>
<!-- Node3&#45;&gt;Node2 -->
<g id="edge2" class="edge">
<title>Node3&#45;&gt;Node2</title>
<path fill="none" stroke="midnightblue" d="M104.81,-140.61C124.29,-127.39 149.4,-110.36 166.81,-98.54"/>
<polygon fill="midnightblue" stroke="midnightblue" points="102.61,-137.87 96.3,-146.38 106.54,-143.66 102.61,-137.87"/>
</g>
<!-- Node4 -->
<g id="node4" class="node">
<title>Node4</title>
<g id="a_node4"><a xlink:href="classmini_1_1temporal_1_1System.html" target="_top" xlink:title=" ">
<polygon fill="white" stroke="black" points="10,-214.5 10,-244.5 141,-244.5 141,-214.5 10,-214.5"/>
<text text-anchor="start" x="18" y="-232.5" font-family="Helvetica,sans-Serif" font-size="10.00">mini::temporal::System</text>
<text text-anchor="middle" x="75.5" y="-221.5" font-family="Helvetica,sans-Serif" font-size="10.00">&lt; P::Scalar &gt;</text>
</a>
</g>
</g>
<!-- Node4&#45;&gt;Node3 -->
<g id="edge3" class="edge">
<title>Node4&#45;&gt;Node3</title>
<path fill="none" stroke="midnightblue" d="M75.5,-204.03C75.5,-194.86 75.5,-184.74 75.5,-176.79"/>
<polygon fill="midnightblue" stroke="midnightblue" points="72,-204.18 75.5,-214.18 79,-204.18 72,-204.18"/>
</g>
<!-- Node5 -->
<g id="node5" class="node">
<title>Node5</title>
<g id="a_node5"><a xlink:href="classmini_1_1basis_1_1Vincent.html" target="_top" xlink:title=" ">
<polygon fill="white" stroke="black" points="169,-146.5 169,-176.5 282,-176.5 282,-146.5 169,-146.5"/>
<text text-anchor="start" x="177" y="-164.5" font-family="Helvetica,sans-Serif" font-size="10.00">mini::basis::Vincent</text>
<text text-anchor="middle" x="225.5" y="-153.5" font-family="Helvetica,sans-Serif" font-size="10.00">&lt; Scalar &gt;</text>
</a>
</g>
</g>
<!-- Node5&#45;&gt;Node2 -->
<g id="edge4" class="edge">
<title>Node5&#45;&gt;Node2</title>
<path fill="none" stroke="#9a32cd" stroke-dasharray="5,2" d="M213.85,-137.2C207.57,-124.64 200.02,-109.54 194.62,-98.73"/>
<polygon fill="#9a32cd" stroke="#9a32cd" points="210.75,-138.83 218.35,-146.2 217.01,-135.7 210.75,-138.83"/>
<text text-anchor="middle" x="231" y="-120" font-family="Helvetica,sans-Serif" font-size="10.00"> vincent_</text>
</g>
</g>
</svg>
