<?xml version="1.0" encoding="UTF-8" standalone="no"?>
<!DOCTYPE svg PUBLIC "-//W3C//DTD SVG 1.1//EN"
 "http://www.w3.org/Graphics/SVG/1.1/DTD/svg11.dtd">
<!-- Generated by graphviz version 2.43.0 (0)
 -->
<!-- Title: python.concept.Detector Pages: 1 -->
<svg width="653pt" height="186pt"
 viewBox="0.00 0.00 653.00 186.00" xmlns="http://www.w3.org/2000/svg" xmlns:xlink="http://www.w3.org/1999/xlink">
<g id="graph0" class="graph" transform="scale(1 1) rotate(0) translate(4 182)">
<title>python.concept.Detector</title>
<polygon fill="white" stroke="transparent" points="-4,4 -4,-182 649,-182 649,4 -4,4"/>
<!-- Node1 -->
<g id="node1" class="node">
<title>Node1</title>
<g id="a_node1"><a xlink:title="An object that detects jumps on an element.">
<polygon fill="#bfbfbf" stroke="black" points="93,-120.5 93,-139.5 230,-139.5 230,-120.5 93,-120.5"/>
<text text-anchor="middle" x="161.5" y="-127.5" font-family="Helvetica,sans-Serif" font-size="10.00">python.concept.Detector</text>
</a>
</g>
</g>
<!-- Node3 -->
<g id="node3" class="node">
<title>Node3</title>
<g id="a_node3"><a xlink:href="classpython_1_1detector_1_1All.html" target="_top" xlink:title="A jump detector that reports all cells as troubled.">
<polygon fill="white" stroke="black" points="292,-158.5 292,-177.5 401,-177.5 401,-158.5 292,-158.5"/>
<text text-anchor="middle" x="346.5" y="-165.5" font-family="Helvetica,sans-Serif" font-size="10.00">python.detector.All</text>
</a>
</g>
</g>
<!-- Node1&#45;&gt;Node3 -->
<g id="edge2" class="edge">
<title>Node1&#45;&gt;Node3</title>
<path fill="none" stroke="midnightblue" d="M218.75,-141.68C244.71,-147.07 275.12,-153.39 299.65,-158.48"/>
<polygon fill="midnightblue" stroke="midnightblue" points="219.18,-138.2 208.68,-139.59 217.76,-145.05 219.18,-138.2"/>
</g>
<!-- Node4 -->
<g id="node4" class="node">
<title>Node4</title>
<g id="a_node4"><a xlink:href="classpython_1_1detector_1_1LiYanHui2022.html" target="_top" xlink:title="A jump detector for high&#45;order FD schemes.">
<polygon fill="white" stroke="black" points="266,-120.5 266,-139.5 427,-139.5 427,-120.5 266,-120.5"/>
<text text-anchor="middle" x="346.5" y="-127.5" font-family="Helvetica,sans-Serif" font-size="10.00">python.detector.LiYanHui2022</text>
</a>
</g>
</g>
<!-- Node1&#45;&gt;Node4 -->
<g id="edge3" class="edge">
<title>Node1&#45;&gt;Node4</title>
<path fill="none" stroke="midnightblue" d="M240.31,-130C248.74,-130 257.32,-130 265.78,-130"/>
<polygon fill="midnightblue" stroke="midnightblue" points="240.12,-126.5 230.12,-130 240.12,-133.5 240.12,-126.5"/>
</g>
<!-- Node5 -->
<g id="node5" class="node">
<title>Node5</title>
<g id="a_node5"><a xlink:href="classpython_1_1detector_1_1SmoothnessBased.html" target="_top" xlink:title=" ">
<polygon fill="white" stroke="black" points="268.5,-71 268.5,-101 424.5,-101 424.5,-71 268.5,-71"/>
<text text-anchor="start" x="276.5" y="-89" font-family="Helvetica,sans-Serif" font-size="10.00">python.detector.Smoothness</text>
<text text-anchor="middle" x="346.5" y="-78" font-family="Helvetica,sans-Serif" font-size="10.00">Based</text>
</a>
</g>
</g>
<!-- Node1&#45;&gt;Node5 -->
<g id="edge4" class="edge">
<title>Node1&#45;&gt;Node5</title>
<path fill="none" stroke="midnightblue" d="M212.22,-118.04C233.99,-112.81 259.78,-106.61 282.84,-101.07"/>
<polygon fill="midnightblue" stroke="midnightblue" points="211.11,-114.71 202.21,-120.45 212.75,-121.52 211.11,-114.71"/>
</g>
<!-- Node2 -->
<g id="node2" class="node">
<title>Node2</title>
<g id="a_node2"><a xlink:title=" ">
<polygon fill="white" stroke="#bfbfbf" points="0,-120.5 0,-139.5 57,-139.5 57,-120.5 0,-120.5"/>
<text text-anchor="middle" x="28.5" y="-127.5" font-family="Helvetica,sans-Serif" font-size="10.00">abc.ABC</text>
</a>
</g>
</g>
<!-- Node2&#45;&gt;Node1 -->
<g id="edge1" class="edge">
<title>Node2&#45;&gt;Node1</title>
<path fill="none" stroke="midnightblue" d="M67.39,-130C75.41,-130 84.11,-130 92.87,-130"/>
<polygon fill="midnightblue" stroke="midnightblue" points="67.28,-126.5 57.28,-130 67.28,-133.5 67.28,-126.5"/>
</g>
<!-- Node6 -->
<g id="node6" class="node">
<title>Node6</title>
<g id="a_node6"><a xlink:href="classpython_1_1detector_1_1Kloeckner2011.html" target="_top" xlink:title="A jump detector based on decay of modal coefficients.">
<polygon fill="white" stroke="black" points="469.5,-152.5 469.5,-171.5 638.5,-171.5 638.5,-152.5 469.5,-152.5"/>
<text text-anchor="middle" x="554" y="-159.5" font-family="Helvetica,sans-Serif" font-size="10.00">python.detector.Kloeckner2011</text>
</a>
</g>
</g>
<!-- Node5&#45;&gt;Node6 -->
<g id="edge5" class="edge">
<title>Node5&#45;&gt;Node6</title>
<path fill="none" stroke="midnightblue" d="M414.89,-104.93C419.07,-106.79 423.14,-108.81 427,-111 445.62,-121.56 443.89,-133.36 463,-143 470.7,-146.89 479.15,-149.98 487.7,-152.44"/>
<polygon fill="midnightblue" stroke="midnightblue" points="416.18,-101.68 405.6,-101.1 413.51,-108.15 416.18,-101.68"/>
</g>
<!-- Node7 -->
<g id="node7" class="node">
<title>Node7</title>
<g id="a_node7"><a xlink:href="classpython_1_1detector_1_1Krivodonova2004.html" target="_top" xlink:title="A jump detector for high&#45;order DG schemes.">
<polygon fill="white" stroke="black" points="463,-114.5 463,-133.5 645,-133.5 645,-114.5 463,-114.5"/>
<text text-anchor="middle" x="554" y="-121.5" font-family="Helvetica,sans-Serif" font-size="10.00">python.detector.Krivodonova2004</text>
</a>
</g>
</g>
<!-- Node5&#45;&gt;Node7 -->
<g id="edge6" class="edge">
<title>Node5&#45;&gt;Node7</title>
<path fill="none" stroke="midnightblue" d="M434.61,-102.11C457.35,-106.31 481.12,-110.71 501.35,-114.45"/>
<polygon fill="midnightblue" stroke="midnightblue" points="435.08,-98.63 424.61,-100.26 433.8,-105.52 435.08,-98.63"/>
</g>
<!-- Node8 -->
<g id="node8" class="node">
<title>Node8</title>
<g id="a_node8"><a xlink:href="classpython_1_1detector_1_1LiWanAi2011.html" target="_top" xlink:title="A jump detector for high&#45;order finite volume schemes.">
<polygon fill="white" stroke="black" points="474.5,-76.5 474.5,-95.5 633.5,-95.5 633.5,-76.5 474.5,-76.5"/>
<text text-anchor="middle" x="554" y="-83.5" font-family="Helvetica,sans-Serif" font-size="10.00">python.detector.LiWanAi2011</text>
</a>
</g>
</g>
<!-- Node5&#45;&gt;Node8 -->
<g id="edge7" class="edge">
<title>Node5&#45;&gt;Node8</title>
<path fill="none" stroke="midnightblue" d="M434.63,-86C447.85,-86 461.41,-86 474.44,-86"/>
<polygon fill="midnightblue" stroke="midnightblue" points="434.61,-82.5 424.61,-86 434.61,-89.5 434.61,-82.5"/>
</g>
<!-- Node9 -->
<g id="node9" class="node">
<title>Node9</title>
<g id="a_node9"><a xlink:href="classpython_1_1detector_1_1Persson2006.html" target="_top" xlink:title="A jump detector based on decay of modal coefficients.">
<polygon fill="white" stroke="black" points="475,-38.5 475,-57.5 633,-57.5 633,-38.5 475,-38.5"/>
<text text-anchor="middle" x="554" y="-45.5" font-family="Helvetica,sans-Serif" font-size="10.00">python.detector.Persson2006</text>
</a>
</g>
</g>
<!-- Node5&#45;&gt;Node9 -->
<g id="edge8" class="edge">
<title>Node5&#45;&gt;Node9</title>
<path fill="none" stroke="midnightblue" d="M434.61,-69.89C457.35,-65.69 481.12,-61.29 501.35,-57.55"/>
<polygon fill="midnightblue" stroke="midnightblue" points="433.8,-66.48 424.61,-71.74 435.08,-73.37 433.8,-66.48"/>
</g>
<!-- Node10 -->
<g id="node10" class="node">
<title>Node10</title>
<g id="a_node10"><a xlink:href="classpython_1_1detector_1_1ZhuJun2021.html" target="_top" xlink:title="A jump detector for high&#45;order DG schemes.">
<polygon fill="white" stroke="black" points="477,-0.5 477,-19.5 631,-19.5 631,-0.5 477,-0.5"/>
<text text-anchor="middle" x="554" y="-7.5" font-family="Helvetica,sans-Serif" font-size="10.00">python.detector.ZhuJun2021</text>
</a>
</g>
</g>
<!-- Node5&#45;&gt;Node10 -->
<g id="edge9" class="edge">
<title>Node5&#45;&gt;Node10</title>
<path fill="none" stroke="midnightblue" d="M382.1,-66.07C404.55,-53.87 434.77,-38.77 463,-29 473.87,-25.24 485.74,-22.09 497.19,-19.51"/>
<polygon fill="midnightblue" stroke="midnightblue" points="380.36,-63.03 373.3,-70.93 383.74,-69.16 380.36,-63.03"/>
</g>
</g>
</svg>
