<?xml version="1.0" encoding="UTF-8" standalone="no"?>
<!DOCTYPE svg PUBLIC "-//W3C//DTD SVG 1.1//EN"
 "http://www.w3.org/Graphics/SVG/1.1/DTD/svg11.dtd">
<!-- Generated by graphviz version 2.43.0 (0)
 -->
<!-- Title: python.riemann.Euler Pages: 1 -->
<svg width="304pt" height="319pt"
 viewBox="0.00 0.00 303.50 319.00" xmlns="http://www.w3.org/2000/svg" xmlns:xlink="http://www.w3.org/1999/xlink">
<g id="graph0" class="graph" transform="scale(1 1) rotate(0) translate(4 315)">
<title>python.riemann.Euler</title>
<polygon fill="white" stroke="transparent" points="-4,4 -4,-315 299.5,-315 299.5,4 -4,4"/>
<!-- Node1 -->
<g id="node1" class="node">
<title>Node1</title>
<g id="a_node1"><a xlink:title=" ">
<polygon fill="#bfbfbf" stroke="black" points="97.5,-123.5 97.5,-142.5 219.5,-142.5 219.5,-123.5 97.5,-123.5"/>
<text text-anchor="middle" x="158.5" y="-130.5" font-family="Helvetica,sans-Serif" font-size="10.00">python.riemann.Euler</text>
</a>
</g>
</g>
<!-- Node5 -->
<g id="node5" class="node">
<title>Node5</title>
<g id="a_node5"><a xlink:href="classpython_1_1riemann_1_1ApproximateEuler.html" target="_top" xlink:title=" ">
<polygon fill="white" stroke="black" points="78.5,-56.5 78.5,-86.5 238.5,-86.5 238.5,-56.5 78.5,-56.5"/>
<text text-anchor="start" x="86.5" y="-74.5" font-family="Helvetica,sans-Serif" font-size="10.00">python.riemann.Approximate</text>
<text text-anchor="middle" x="158.5" y="-63.5" font-family="Helvetica,sans-Serif" font-size="10.00">Euler</text>
</a>
</g>
</g>
<!-- Node1&#45;&gt;Node5 -->
<g id="edge4" class="edge">
<title>Node1&#45;&gt;Node5</title>
<path fill="none" stroke="midnightblue" d="M158.5,-113.23C158.5,-104.59 158.5,-94.5 158.5,-86.52"/>
<polygon fill="midnightblue" stroke="midnightblue" points="155,-113.48 158.5,-123.48 162,-113.48 155,-113.48"/>
</g>
<!-- Node2 -->
<g id="node2" class="node">
<title>Node2</title>
<g id="a_node2"><a xlink:href="classpython_1_1riemann_1_1Solver.html" target="_top" xlink:title=" ">
<polygon fill="white" stroke="black" points="94.5,-179.5 94.5,-198.5 222.5,-198.5 222.5,-179.5 94.5,-179.5"/>
<text text-anchor="middle" x="158.5" y="-186.5" font-family="Helvetica,sans-Serif" font-size="10.00">python.riemann.Solver</text>
</a>
</g>
</g>
<!-- Node2&#45;&gt;Node1 -->
<g id="edge1" class="edge">
<title>Node2&#45;&gt;Node1</title>
<path fill="none" stroke="midnightblue" d="M158.5,-168.8C158.5,-159.91 158.5,-149.78 158.5,-142.75"/>
<polygon fill="midnightblue" stroke="midnightblue" points="155,-169.08 158.5,-179.08 162,-169.08 155,-169.08"/>
</g>
<!-- Node3 -->
<g id="node3" class="node">
<title>Node3</title>
<g id="a_node3"><a xlink:href="classpython_1_1concept_1_1RiemannSolver.html" target="_top" xlink:title="An exact or approximate solver for the Riemann problem of an Equation.">
<polygon fill="white" stroke="black" points="74,-235.5 74,-254.5 243,-254.5 243,-235.5 74,-235.5"/>
<text text-anchor="middle" x="158.5" y="-242.5" font-family="Helvetica,sans-Serif" font-size="10.00">python.concept.RiemannSolver</text>
</a>
</g>
</g>
<!-- Node3&#45;&gt;Node2 -->
<g id="edge2" class="edge">
<title>Node3&#45;&gt;Node2</title>
<path fill="none" stroke="midnightblue" d="M158.5,-224.8C158.5,-215.91 158.5,-205.78 158.5,-198.75"/>
<polygon fill="midnightblue" stroke="midnightblue" points="155,-225.08 158.5,-235.08 162,-225.08 155,-225.08"/>
</g>
<!-- Node4 -->
<g id="node4" class="node">
<title>Node4</title>
<g id="a_node4"><a xlink:title=" ">
<polygon fill="white" stroke="#bfbfbf" points="130,-291.5 130,-310.5 187,-310.5 187,-291.5 130,-291.5"/>
<text text-anchor="middle" x="158.5" y="-298.5" font-family="Helvetica,sans-Serif" font-size="10.00">abc.ABC</text>
</a>
</g>
</g>
<!-- Node4&#45;&gt;Node3 -->
<g id="edge3" class="edge">
<title>Node4&#45;&gt;Node3</title>
<path fill="none" stroke="midnightblue" d="M158.5,-280.8C158.5,-271.91 158.5,-261.78 158.5,-254.75"/>
<polygon fill="midnightblue" stroke="midnightblue" points="155,-281.08 158.5,-291.08 162,-281.08 155,-281.08"/>
</g>
<!-- Node6 -->
<g id="node6" class="node">
<title>Node6</title>
<g id="a_node6"><a xlink:href="classpython_1_1riemann_1_1LaxFriedrichs.html" target="_top" xlink:title=" ">
<polygon fill="white" stroke="black" points="0,-0.5 0,-19.5 161,-19.5 161,-0.5 0,-0.5"/>
<text text-anchor="middle" x="80.5" y="-7.5" font-family="Helvetica,sans-Serif" font-size="10.00">python.riemann.LaxFriedrichs</text>
</a>
</g>
</g>
<!-- Node5&#45;&gt;Node6 -->
<g id="edge5" class="edge">
<title>Node5&#45;&gt;Node6</title>
<path fill="none" stroke="midnightblue" d="M131.87,-50.19C118.22,-39.77 102.3,-27.63 91.85,-19.66"/>
<polygon fill="midnightblue" stroke="midnightblue" points="129.94,-53.12 140.02,-56.4 134.19,-47.55 129.94,-53.12"/>
</g>
<!-- Node7 -->
<g id="node7" class="node">
<title>Node7</title>
<g id="a_node7"><a xlink:href="classpython_1_1riemann_1_1Roe.html" target="_top" xlink:title=" ">
<polygon fill="white" stroke="black" points="179.5,-0.5 179.5,-19.5 295.5,-19.5 295.5,-0.5 179.5,-0.5"/>
<text text-anchor="middle" x="237.5" y="-7.5" font-family="Helvetica,sans-Serif" font-size="10.00">python.riemann.Roe</text>
</a>
</g>
</g>
<!-- Node5&#45;&gt;Node7 -->
<g id="edge6" class="edge">
<title>Node5&#45;&gt;Node7</title>
<path fill="none" stroke="midnightblue" d="M185.47,-50.19C199.3,-39.77 215.42,-27.63 226,-19.66"/>
<polygon fill="midnightblue" stroke="midnightblue" points="183.1,-47.59 177.22,-56.4 187.32,-53.18 183.1,-47.59"/>
</g>
</g>
</svg>
