<?xml version="1.0" encoding="UTF-8" standalone="no"?>
<!DOCTYPE svg PUBLIC "-//W3C//DTD SVG 1.1//EN"
 "http://www.w3.org/Graphics/SVG/1.1/DTD/svg11.dtd">
<!-- Generated by graphviz version 2.43.0 (0)
 -->
<!-- Title: python.spatial.DGonLobattoRoots Pages: 1 -->
<svg width="292pt" height="330pt"
 viewBox="0.00 0.00 292.00 330.00" xmlns="http://www.w3.org/2000/svg" xmlns:xlink="http://www.w3.org/1999/xlink">
<g id="graph0" class="graph" transform="scale(1 1) rotate(0) translate(4 326)">
<title>python.spatial.DGonLobattoRoots</title>
<polygon fill="white" stroke="transparent" points="-4,4 -4,-326 288,-326 288,4 -4,4"/>
<!-- Node1 -->
<g id="node1" class="node">
<title>Node1</title>
<g id="a_node1"><a xlink:title="The ODE system given by the DG method using a Lagrange expansion on Lobatto roots.">
<polygon fill="#bfbfbf" stroke="black" points="56,-0.5 56,-30.5 209,-30.5 209,-0.5 56,-0.5"/>
<text text-anchor="start" x="64" y="-18.5" font-family="Helvetica,sans-Serif" font-size="10.00">python.spatial.DGonLobatto</text>
<text text-anchor="middle" x="132.5" y="-7.5" font-family="Helvetica,sans-Serif" font-size="10.00">Roots</text>
</a>
</g>
</g>
<!-- Node2 -->
<g id="node2" class="node">
<title>Node2</title>
<g id="a_node2"><a xlink:href="classpython_1_1spatial_1_1DiscontinuousGalerkin.html" target="_top" xlink:title="An mid&#45;level class that defines common methods for all DG schemes.">
<polygon fill="white" stroke="black" points="53.5,-67.5 53.5,-97.5 211.5,-97.5 211.5,-67.5 53.5,-67.5"/>
<text text-anchor="start" x="61.5" y="-85.5" font-family="Helvetica,sans-Serif" font-size="10.00">python.spatial.Discontinuous</text>
<text text-anchor="middle" x="132.5" y="-74.5" font-family="Helvetica,sans-Serif" font-size="10.00">Galerkin</text>
</a>
</g>
</g>
<!-- Node2&#45;&gt;Node1 -->
<g id="edge1" class="edge">
<title>Node2&#45;&gt;Node1</title>
<path fill="none" stroke="midnightblue" d="M132.5,-57.11C132.5,-48.15 132.5,-38.32 132.5,-30.58"/>
<polygon fill="midnightblue" stroke="midnightblue" points="129,-57.4 132.5,-67.4 136,-57.4 129,-57.4"/>
</g>
<!-- Node3 -->
<g id="node3" class="node">
<title>Node3</title>
<g id="a_node3"><a xlink:href="classpython_1_1spatial_1_1FiniteElement.html" target="_top" xlink:title="An ODE system given by some FiniteElement scheme.">
<polygon fill="white" stroke="black" points="54,-134.5 54,-153.5 211,-153.5 211,-134.5 54,-134.5"/>
<text text-anchor="middle" x="132.5" y="-141.5" font-family="Helvetica,sans-Serif" font-size="10.00">python.spatial.FiniteElement</text>
</a>
</g>
</g>
<!-- Node3&#45;&gt;Node2 -->
<g id="edge2" class="edge">
<title>Node3&#45;&gt;Node2</title>
<path fill="none" stroke="midnightblue" d="M132.5,-124.23C132.5,-115.59 132.5,-105.5 132.5,-97.52"/>
<polygon fill="midnightblue" stroke="midnightblue" points="129,-124.48 132.5,-134.48 136,-124.48 129,-124.48"/>
</g>
<!-- Node4 -->
<g id="node4" class="node">
<title>Node4</title>
<g id="a_node4"><a xlink:href="classpython_1_1concept_1_1SpatialScheme.html" target="_top" xlink:title="An ODE system given by some FiniteElement scheme.">
<polygon fill="white" stroke="black" points="49,-190.5 49,-209.5 216,-209.5 216,-190.5 49,-190.5"/>
<text text-anchor="middle" x="132.5" y="-197.5" font-family="Helvetica,sans-Serif" font-size="10.00">python.concept.SpatialScheme</text>
</a>
</g>
</g>
<!-- Node4&#45;&gt;Node3 -->
<g id="edge3" class="edge">
<title>Node4&#45;&gt;Node3</title>
<path fill="none" stroke="midnightblue" d="M132.5,-179.8C132.5,-170.91 132.5,-160.78 132.5,-153.75"/>
<polygon fill="midnightblue" stroke="midnightblue" points="129,-180.08 132.5,-190.08 136,-180.08 129,-180.08"/>
</g>
<!-- Node5 -->
<g id="node5" class="node">
<title>Node5</title>
<g id="a_node5"><a xlink:href="classpython_1_1concept_1_1Grid.html" target="_top" xlink:title=" ">
<polygon fill="white" stroke="black" points="0,-246.5 0,-265.5 115,-265.5 115,-246.5 0,-246.5"/>
<text text-anchor="middle" x="57.5" y="-253.5" font-family="Helvetica,sans-Serif" font-size="10.00">python.concept.Grid</text>
</a>
</g>
</g>
<!-- Node5&#45;&gt;Node4 -->
<g id="edge4" class="edge">
<title>Node5&#45;&gt;Node4</title>
<path fill="none" stroke="midnightblue" d="M77.81,-240.38C91.36,-230.62 108.74,-218.11 120.23,-209.83"/>
<polygon fill="midnightblue" stroke="midnightblue" points="75.62,-237.64 69.55,-246.32 79.71,-243.32 75.62,-237.64"/>
</g>
<!-- Node6 -->
<g id="node6" class="node">
<title>Node6</title>
<g id="a_node6"><a xlink:title=" ">
<polygon fill="white" stroke="#bfbfbf" points="104,-302.5 104,-321.5 161,-321.5 161,-302.5 104,-302.5"/>
<text text-anchor="middle" x="132.5" y="-309.5" font-family="Helvetica,sans-Serif" font-size="10.00">abc.ABC</text>
</a>
</g>
</g>
<!-- Node6&#45;&gt;Node5 -->
<g id="edge5" class="edge">
<title>Node6&#45;&gt;Node5</title>
<path fill="none" stroke="midnightblue" d="M112.19,-296.38C98.64,-286.62 81.26,-274.11 69.77,-265.83"/>
<polygon fill="midnightblue" stroke="midnightblue" points="110.29,-299.32 120.45,-302.32 114.38,-293.64 110.29,-299.32"/>
</g>
<!-- Node7 -->
<g id="node7" class="node">
<title>Node7</title>
<g id="a_node7"><a xlink:href="classpython_1_1concept_1_1OdeSystem.html" target="_top" xlink:title="A system of ODEs in the form of dU/∂t = R.">
<polygon fill="white" stroke="black" points="133,-246.5 133,-265.5 284,-265.5 284,-246.5 133,-246.5"/>
<text text-anchor="middle" x="208.5" y="-253.5" font-family="Helvetica,sans-Serif" font-size="10.00">python.concept.OdeSystem</text>
</a>
</g>
</g>
<!-- Node6&#45;&gt;Node7 -->
<g id="edge7" class="edge">
<title>Node6&#45;&gt;Node7</title>
<path fill="none" stroke="midnightblue" d="M153.08,-296.38C166.81,-286.62 184.43,-274.11 196.07,-265.83"/>
<polygon fill="midnightblue" stroke="midnightblue" points="150.84,-293.68 144.71,-302.32 154.89,-299.38 150.84,-293.68"/>
</g>
<!-- Node7&#45;&gt;Node4 -->
<g id="edge6" class="edge">
<title>Node7&#45;&gt;Node4</title>
<path fill="none" stroke="midnightblue" d="M187.92,-240.38C174.19,-230.62 156.57,-218.11 144.93,-209.83"/>
<polygon fill="midnightblue" stroke="midnightblue" points="186.11,-243.38 196.29,-246.32 190.16,-237.68 186.11,-243.38"/>
</g>
</g>
</svg>
