<?xml version="1.0" encoding="UTF-8" standalone="no"?>
<!DOCTYPE svg PUBLIC "-//W3C//DTD SVG 1.1//EN"
 "http://www.w3.org/Graphics/SVG/1.1/DTD/svg11.dtd">
<!-- Generated by graphviz version 2.43.0 (0)
 -->
<!-- Title: python.element.FRonGaussPoints Pages: 1 -->
<svg width="199pt" height="263pt"
 viewBox="0.00 0.00 199.00 263.00" xmlns="http://www.w3.org/2000/svg" xmlns:xlink="http://www.w3.org/1999/xlink">
<g id="graph0" class="graph" transform="scale(1 1) rotate(0) translate(4 259)">
<title>python.element.FRonGaussPoints</title>
<polygon fill="white" stroke="transparent" points="-4,4 -4,-259 195,-259 195,4 -4,4"/>
<!-- Node1 -->
<g id="node1" class="node">
<title>Node1</title>
<g id="a_node1"><a xlink:title="Specialized LagrangeFR using Gauss points as solution points.">
<polygon fill="#bfbfbf" stroke="black" points="19.5,-0.5 19.5,-30.5 171.5,-30.5 171.5,-0.5 19.5,-0.5"/>
<text text-anchor="start" x="27.5" y="-18.5" font-family="Helvetica,sans-Serif" font-size="10.00">python.element.FRonGauss</text>
<text text-anchor="middle" x="95.5" y="-7.5" font-family="Helvetica,sans-Serif" font-size="10.00">Points</text>
</a>
</g>
</g>
<!-- Node2 -->
<g id="node2" class="node">
<title>Node2</title>
<g id="a_node2"><a xlink:href="classpython_1_1element_1_1LagrangeFR.html" target="_top" xlink:title="Element for implement the FR scheme using a Lagrange expansion.">
<polygon fill="white" stroke="black" points="18,-67.5 18,-86.5 173,-86.5 173,-67.5 18,-67.5"/>
<text text-anchor="middle" x="95.5" y="-74.5" font-family="Helvetica,sans-Serif" font-size="10.00">python.element.LagrangeFR</text>
</a>
</g>
</g>
<!-- Node2&#45;&gt;Node1 -->
<g id="edge1" class="edge">
<title>Node2&#45;&gt;Node1</title>
<path fill="none" stroke="midnightblue" d="M95.5,-57.23C95.5,-48.59 95.5,-38.5 95.5,-30.52"/>
<polygon fill="midnightblue" stroke="midnightblue" points="92,-57.48 95.5,-67.48 99,-57.48 92,-57.48"/>
</g>
<!-- Node3 -->
<g id="node3" class="node">
<title>Node3</title>
<g id="a_node3"><a xlink:href="classpython_1_1element_1_1FluxReconstruction.html" target="_top" xlink:title="Element for implement FR schemes.">
<polygon fill="white" stroke="black" points="0,-123.5 0,-142.5 191,-142.5 191,-123.5 0,-123.5"/>
<text text-anchor="middle" x="95.5" y="-130.5" font-family="Helvetica,sans-Serif" font-size="10.00">python.element.FluxReconstruction</text>
</a>
</g>
</g>
<!-- Node3&#45;&gt;Node2 -->
<g id="edge2" class="edge">
<title>Node3&#45;&gt;Node2</title>
<path fill="none" stroke="midnightblue" d="M95.5,-112.8C95.5,-103.91 95.5,-93.78 95.5,-86.75"/>
<polygon fill="midnightblue" stroke="midnightblue" points="92,-113.08 95.5,-123.08 99,-113.08 92,-113.08"/>
</g>
<!-- Node4 -->
<g id="node4" class="node">
<title>Node4</title>
<g id="a_node4"><a xlink:href="classpython_1_1concept_1_1Element.html" target="_top" xlink:title="A cell&#45;like object that carries some expansion of the solution.">
<polygon fill="white" stroke="black" points="28,-179.5 28,-198.5 163,-198.5 163,-179.5 28,-179.5"/>
<text text-anchor="middle" x="95.5" y="-186.5" font-family="Helvetica,sans-Serif" font-size="10.00">python.concept.Element</text>
</a>
</g>
</g>
<!-- Node4&#45;&gt;Node3 -->
<g id="edge3" class="edge">
<title>Node4&#45;&gt;Node3</title>
<path fill="none" stroke="midnightblue" d="M95.5,-168.8C95.5,-159.91 95.5,-149.78 95.5,-142.75"/>
<polygon fill="midnightblue" stroke="midnightblue" points="92,-169.08 95.5,-179.08 99,-169.08 92,-169.08"/>
</g>
<!-- Node5 -->
<g id="node5" class="node">
<title>Node5</title>
<g id="a_node5"><a xlink:title=" ">
<polygon fill="white" stroke="#bfbfbf" points="67,-235.5 67,-254.5 124,-254.5 124,-235.5 67,-235.5"/>
<text text-anchor="middle" x="95.5" y="-242.5" font-family="Helvetica,sans-Serif" font-size="10.00">abc.ABC</text>
</a>
</g>
</g>
<!-- Node5&#45;&gt;Node4 -->
<g id="edge4" class="edge">
<title>Node5&#45;&gt;Node4</title>
<path fill="none" stroke="midnightblue" d="M95.5,-224.8C95.5,-215.91 95.5,-205.78 95.5,-198.75"/>
<polygon fill="midnightblue" stroke="midnightblue" points="92,-225.08 95.5,-235.08 99,-225.08 92,-225.08"/>
</g>
</g>
</svg>
