<?xml version="1.0" encoding="UTF-8" standalone="no"?>
<!DOCTYPE svg PUBLIC "-//W3C//DTD SVG 1.1//EN"
 "http://www.w3.org/Graphics/SVG/1.1/DTD/svg11.dtd">
<!-- Generated by graphviz version 2.43.0 (0)
 -->
<!-- Title: mini::mesh::metis::SparseGraph&lt; Int &gt; Pages: 1 -->
<svg width="122pt" height="128pt"
 viewBox="0.00 0.00 122.00 128.00" xmlns="http://www.w3.org/2000/svg" xmlns:xlink="http://www.w3.org/1999/xlink">
<g id="graph0" class="graph" transform="scale(1 1) rotate(0) translate(4 124)">
<title>mini::mesh::metis::SparseGraph&lt; Int &gt;</title>
<polygon fill="white" stroke="transparent" points="-4,4 -4,-124 118,-124 118,4 -4,4"/>
<!-- Node1 -->
<g id="node1" class="node">
<title>Node1</title>
<g id="a_node1"><a xlink:title="A CSR (Compressed Sparse Row) representation of sparse graphs.">
<polygon fill="#bfbfbf" stroke="black" points="0,-0.5 0,-30.5 114,-30.5 114,-0.5 0,-0.5"/>
<text text-anchor="start" x="8" y="-18.5" font-family="Helvetica,sans-Serif" font-size="10.00">mini::mesh::metis::</text>
<text text-anchor="middle" x="57" y="-7.5" font-family="Helvetica,sans-Serif" font-size="10.00">SparseGraph&lt; Int &gt;</text>
</a>
</g>
</g>
<!-- Node2 -->
<g id="node2" class="node">
<title>Node2</title>
<g id="a_node2"><a xlink:title=" ">
<polygon fill="white" stroke="#bfbfbf" points="42.5,-100.5 42.5,-119.5 71.5,-119.5 71.5,-100.5 42.5,-100.5"/>
<text text-anchor="middle" x="57" y="-107.5" font-family="Helvetica,sans-Serif" font-size="10.00">Int</text>
</a>
</g>
</g>
<!-- Node2&#45;&gt;Node1 -->
<g id="edge1" class="edge">
<title>Node2&#45;&gt;Node1</title>
<path fill="none" stroke="#9a32cd" stroke-dasharray="5,2" d="M57,-90.29C57,-72.67 57,-46.67 57,-30.7"/>
<polygon fill="#9a32cd" stroke="#9a32cd" points="53.5,-90.46 57,-100.46 60.5,-90.46 53.5,-90.46"/>
<text text-anchor="middle" x="81.5" y="-74" font-family="Helvetica,sans-Serif" font-size="10.00"> index_</text>
<text text-anchor="middle" x="81.5" y="-63" font-family="Helvetica,sans-Serif" font-size="10.00">n_vertex_</text>
<text text-anchor="middle" x="81.5" y="-52" font-family="Helvetica,sans-Serif" font-size="10.00">range_</text>
</g>
</g>
</svg>
