<?xml version="1.0" encoding="UTF-8" standalone="no"?>
<!DOCTYPE svg PUBLIC "-//W3C//DTD SVG 1.1//EN"
 "http://www.w3.org/Graphics/SVG/1.1/DTD/svg11.dtd">
<!-- Generated by graphviz version 2.43.0 (0)
 -->
<!-- Title: python.expansion.LagrangeOnLegendreRoots Pages: 1 -->
<svg width="160pt" height="330pt"
 viewBox="0.00 0.00 160.00 330.00" xmlns="http://www.w3.org/2000/svg" xmlns:xlink="http://www.w3.org/1999/xlink">
<g id="graph0" class="graph" transform="scale(1 1) rotate(0) translate(4 326)">
<title>python.expansion.LagrangeOnLegendreRoots</title>
<polygon fill="white" stroke="transparent" points="-4,4 -4,-326 156,-326 156,4 -4,4"/>
<!-- Node1 -->
<g id="node1" class="node">
<title>Node1</title>
<g id="a_node1"><a xlink:title="Specialized Lagrange expansion using Legendre roots as nodes.">
<polygon fill="#bfbfbf" stroke="black" points="0,-0.5 0,-30.5 152,-30.5 152,-0.5 0,-0.5"/>
<text text-anchor="start" x="8" y="-18.5" font-family="Helvetica,sans-Serif" font-size="10.00">python.expansion.Lagrange</text>
<text text-anchor="middle" x="76" y="-7.5" font-family="Helvetica,sans-Serif" font-size="10.00">OnLegendreRoots</text>
</a>
</g>
</g>
<!-- Node2 -->
<g id="node2" class="node">
<title>Node2</title>
<g id="a_node2"><a xlink:href="classpython_1_1expansion_1_1LagrangeOnGaussPoints.html" target="_top" xlink:title="Specialized Lagrange expansion using Gauss points as nodes.">
<polygon fill="white" stroke="black" points="0,-67.5 0,-97.5 152,-97.5 152,-67.5 0,-67.5"/>
<text text-anchor="start" x="8" y="-85.5" font-family="Helvetica,sans-Serif" font-size="10.00">python.expansion.Lagrange</text>
<text text-anchor="middle" x="76" y="-74.5" font-family="Helvetica,sans-Serif" font-size="10.00">OnGaussPoints</text>
</a>
</g>
</g>
<!-- Node2&#45;&gt;Node1 -->
<g id="edge1" class="edge">
<title>Node2&#45;&gt;Node1</title>
<path fill="none" stroke="midnightblue" d="M76,-57.11C76,-48.15 76,-38.32 76,-30.58"/>
<polygon fill="midnightblue" stroke="midnightblue" points="72.5,-57.4 76,-67.4 79.5,-57.4 72.5,-57.4"/>
</g>
<!-- Node3 -->
<g id="node3" class="node">
<title>Node3</title>
<g id="a_node3"><a xlink:href="classpython_1_1expansion_1_1Lagrange.html" target="_top" xlink:title="The Lagrange expansion of a general function.">
<polygon fill="white" stroke="black" points="0,-134.5 0,-153.5 152,-153.5 152,-134.5 0,-134.5"/>
<text text-anchor="middle" x="76" y="-141.5" font-family="Helvetica,sans-Serif" font-size="10.00">python.expansion.Lagrange</text>
</a>
</g>
</g>
<!-- Node3&#45;&gt;Node2 -->
<g id="edge2" class="edge">
<title>Node3&#45;&gt;Node2</title>
<path fill="none" stroke="midnightblue" d="M76,-124.23C76,-115.59 76,-105.5 76,-97.52"/>
<polygon fill="midnightblue" stroke="midnightblue" points="72.5,-124.48 76,-134.48 79.5,-124.48 72.5,-124.48"/>
</g>
<!-- Node4 -->
<g id="node4" class="node">
<title>Node4</title>
<g id="a_node4"><a xlink:href="classpython_1_1expansion_1_1Taylor.html" target="_top" xlink:title="The Taylor expansion of a general function.">
<polygon fill="white" stroke="black" points="8,-190.5 8,-209.5 144,-209.5 144,-190.5 8,-190.5"/>
<text text-anchor="middle" x="76" y="-197.5" font-family="Helvetica,sans-Serif" font-size="10.00">python.expansion.Taylor</text>
</a>
</g>
</g>
<!-- Node4&#45;&gt;Node3 -->
<g id="edge3" class="edge">
<title>Node4&#45;&gt;Node3</title>
<path fill="none" stroke="midnightblue" d="M76,-179.8C76,-170.91 76,-160.78 76,-153.75"/>
<polygon fill="midnightblue" stroke="midnightblue" points="72.5,-180.08 76,-190.08 79.5,-180.08 72.5,-180.08"/>
</g>
<!-- Node5 -->
<g id="node5" class="node">
<title>Node5</title>
<g id="a_node5"><a xlink:href="classpython_1_1concept_1_1Expansion.html" target="_top" xlink:title="The polynomial approximation of a general function.">
<polygon fill="white" stroke="black" points="3.5,-246.5 3.5,-265.5 148.5,-265.5 148.5,-246.5 3.5,-246.5"/>
<text text-anchor="middle" x="76" y="-253.5" font-family="Helvetica,sans-Serif" font-size="10.00">python.concept.Expansion</text>
</a>
</g>
</g>
<!-- Node5&#45;&gt;Node4 -->
<g id="edge4" class="edge">
<title>Node5&#45;&gt;Node4</title>
<path fill="none" stroke="midnightblue" d="M76,-235.8C76,-226.91 76,-216.78 76,-209.75"/>
<polygon fill="midnightblue" stroke="midnightblue" points="72.5,-236.08 76,-246.08 79.5,-236.08 72.5,-236.08"/>
</g>
<!-- Node6 -->
<g id="node6" class="node">
<title>Node6</title>
<g id="a_node6"><a xlink:title=" ">
<polygon fill="white" stroke="#bfbfbf" points="47.5,-302.5 47.5,-321.5 104.5,-321.5 104.5,-302.5 47.5,-302.5"/>
<text text-anchor="middle" x="76" y="-309.5" font-family="Helvetica,sans-Serif" font-size="10.00">abc.ABC</text>
</a>
</g>
</g>
<!-- Node6&#45;&gt;Node5 -->
<g id="edge5" class="edge">
<title>Node6&#45;&gt;Node5</title>
<path fill="none" stroke="midnightblue" d="M76,-291.8C76,-282.91 76,-272.78 76,-265.75"/>
<polygon fill="midnightblue" stroke="midnightblue" points="72.5,-292.08 76,-302.08 79.5,-292.08 72.5,-292.08"/>
</g>
</g>
</svg>
