<?xml version="1.0" encoding="UTF-8" standalone="no"?>
<!DOCTYPE svg PUBLIC "-//W3C//DTD SVG 1.1//EN"
 "http://www.w3.org/Graphics/SVG/1.1/DTD/svg11.dtd">
<!-- Generated by graphviz version 2.43.0 (0)
 -->
<!-- Title: python.concept.Polynomial Pages: 1 -->
<svg width="455pt" height="192pt"
 viewBox="0.00 0.00 455.00 192.00" xmlns="http://www.w3.org/2000/svg" xmlns:xlink="http://www.w3.org/1999/xlink">
<g id="graph0" class="graph" transform="scale(1 1) rotate(0) translate(4 188)">
<title>python.concept.Polynomial</title>
<polygon fill="white" stroke="transparent" points="-4,4 -4,-188 451,-188 451,4 -4,4"/>
<!-- Node1 -->
<g id="node1" class="node">
<title>Node1</title>
<g id="a_node1"><a xlink:title="Polynomial functions defined on [&#45;1, 1].">
<polygon fill="#bfbfbf" stroke="black" points="93,-82.5 93,-101.5 242,-101.5 242,-82.5 93,-82.5"/>
<text text-anchor="middle" x="167.5" y="-89.5" font-family="Helvetica,sans-Serif" font-size="10.00">python.concept.Polynomial</text>
</a>
</g>
</g>
<!-- Node3 -->
<g id="node3" class="node">
<title>Node3</title>
<g id="a_node3"><a xlink:href="classpython_1_1polynomial_1_1Huynh.html" target="_top" xlink:title="The left and right &#160;in Huynh&#39;s FR schemes.">
<polygon fill="white" stroke="black" points="291,-164.5 291,-183.5 434,-183.5 434,-164.5 291,-164.5"/>
<text text-anchor="middle" x="362.5" y="-171.5" font-family="Helvetica,sans-Serif" font-size="10.00">python.polynomial.Huynh</text>
</a>
</g>
</g>
<!-- Node1&#45;&gt;Node3 -->
<g id="edge2" class="edge">
<title>Node1&#45;&gt;Node3</title>
<path fill="none" stroke="midnightblue" d="M190.37,-107.21C211.8,-121.47 245.83,-142.41 278,-155 287.69,-158.79 298.33,-161.93 308.66,-164.49"/>
<polygon fill="midnightblue" stroke="midnightblue" points="192.25,-104.26 182,-101.56 188.33,-110.06 192.25,-104.26"/>
</g>
<!-- Node4 -->
<g id="node4" class="node">
<title>Node4</title>
<g id="a_node4"><a xlink:href="classpython_1_1polynomial_1_1IthLagrange.html" target="_top" xlink:title="The Ith Lagrange polynomial for N given points.">
<polygon fill="white" stroke="black" points="278,-126.5 278,-145.5 447,-145.5 447,-126.5 278,-126.5"/>
<text text-anchor="middle" x="362.5" y="-133.5" font-family="Helvetica,sans-Serif" font-size="10.00">python.polynomial.IthLagrange</text>
</a>
</g>
</g>
<!-- Node1&#45;&gt;Node4 -->
<g id="edge3" class="edge">
<title>Node1&#45;&gt;Node4</title>
<path fill="none" stroke="midnightblue" d="M219.99,-103.76C238.3,-107.95 259.07,-112.69 278,-117 291.48,-120.07 306.19,-123.42 319.45,-126.44"/>
<polygon fill="midnightblue" stroke="midnightblue" points="220.62,-100.32 210.1,-101.5 219.07,-107.14 220.62,-100.32"/>
</g>
<!-- Node5 -->
<g id="node5" class="node">
<title>Node5</title>
<g id="a_node5"><a xlink:href="classpython_1_1polynomial_1_1LagrangeBasis.html" target="_top" xlink:title="All Lagrange polynomials, which form a basis.">
<polygon fill="white" stroke="black" points="284.5,-77 284.5,-107 440.5,-107 440.5,-77 284.5,-77"/>
<text text-anchor="start" x="292.5" y="-95" font-family="Helvetica,sans-Serif" font-size="10.00">python.polynomial.Lagrange</text>
<text text-anchor="middle" x="362.5" y="-84" font-family="Helvetica,sans-Serif" font-size="10.00">Basis</text>
</a>
</g>
</g>
<!-- Node1&#45;&gt;Node5 -->
<g id="edge4" class="edge">
<title>Node1&#45;&gt;Node5</title>
<path fill="none" stroke="midnightblue" d="M252.18,-92C262.86,-92 273.76,-92 284.34,-92"/>
<polygon fill="midnightblue" stroke="midnightblue" points="252.02,-88.5 242.02,-92 252.02,-95.5 252.02,-88.5"/>
</g>
<!-- Node6 -->
<g id="node6" class="node">
<title>Node6</title>
<g id="a_node6"><a xlink:href="classpython_1_1polynomial_1_1Radau.html" target="_top" xlink:title="The left and right Radau polynomials.">
<polygon fill="white" stroke="black" points="291.5,-38.5 291.5,-57.5 433.5,-57.5 433.5,-38.5 291.5,-38.5"/>
<text text-anchor="middle" x="362.5" y="-45.5" font-family="Helvetica,sans-Serif" font-size="10.00">python.polynomial.Radau</text>
</a>
</g>
</g>
<!-- Node1&#45;&gt;Node6 -->
<g id="edge5" class="edge">
<title>Node1&#45;&gt;Node6</title>
<path fill="none" stroke="midnightblue" d="M219.99,-80.24C238.3,-76.05 259.07,-71.31 278,-67 291.48,-63.93 306.19,-60.58 319.45,-57.56"/>
<polygon fill="midnightblue" stroke="midnightblue" points="219.07,-76.86 210.1,-82.5 220.62,-83.68 219.07,-76.86"/>
</g>
<!-- Node7 -->
<g id="node7" class="node">
<title>Node7</title>
<g id="a_node7"><a xlink:href="classpython_1_1polynomial_1_1Vincent.html" target="_top" xlink:title="The left and right &#160;in Vincent&#39;s ESFR schemes.">
<polygon fill="white" stroke="black" points="288.5,-0.5 288.5,-19.5 436.5,-19.5 436.5,-0.5 288.5,-0.5"/>
<text text-anchor="middle" x="362.5" y="-7.5" font-family="Helvetica,sans-Serif" font-size="10.00">python.polynomial.Vincent</text>
</a>
</g>
</g>
<!-- Node1&#45;&gt;Node7 -->
<g id="edge6" class="edge">
<title>Node1&#45;&gt;Node7</title>
<path fill="none" stroke="midnightblue" d="M190.37,-76.79C211.8,-62.53 245.83,-41.59 278,-29 287.69,-25.21 298.33,-22.07 308.66,-19.51"/>
<polygon fill="midnightblue" stroke="midnightblue" points="188.33,-73.94 182,-82.44 192.25,-79.74 188.33,-73.94"/>
</g>
<!-- Node2 -->
<g id="node2" class="node">
<title>Node2</title>
<g id="a_node2"><a xlink:title=" ">
<polygon fill="white" stroke="#bfbfbf" points="0,-82.5 0,-101.5 57,-101.5 57,-82.5 0,-82.5"/>
<text text-anchor="middle" x="28.5" y="-89.5" font-family="Helvetica,sans-Serif" font-size="10.00">abc.ABC</text>
</a>
</g>
</g>
<!-- Node2&#45;&gt;Node1 -->
<g id="edge1" class="edge">
<title>Node2&#45;&gt;Node1</title>
<path fill="none" stroke="midnightblue" d="M67.31,-92C75.33,-92 84.05,-92 92.89,-92"/>
<polygon fill="midnightblue" stroke="midnightblue" points="67.22,-88.5 57.22,-92 67.22,-95.5 67.22,-88.5"/>
</g>
</g>
</svg>
