<?xml version="1.0" encoding="UTF-8" standalone="no"?>
<!DOCTYPE svg PUBLIC "-//W3C//DTD SVG 1.1//EN"
 "http://www.w3.org/Graphics/SVG/1.1/DTD/svg11.dtd">
<!-- Generated by graphviz version 2.43.0 (0)
 -->
<!-- Title: mini::temporal::Solver&lt; Scalar &gt; Pages: 1 -->
<svg width="296pt" height="106pt"
 viewBox="0.00 0.00 296.00 106.00" xmlns="http://www.w3.org/2000/svg" xmlns:xlink="http://www.w3.org/1999/xlink">
<g id="graph0" class="graph" transform="scale(1 1) rotate(0) translate(4 102)">
<title>mini::temporal::Solver&lt; Scalar &gt;</title>
<polygon fill="white" stroke="transparent" points="-4,4 -4,-102 292,-102 292,4 -4,4"/>
<!-- Node1 -->
<g id="node1" class="node">
<title>Node1</title>
<g id="a_node1"><a xlink:title="The abstract base of all ODE solvers.">
<polygon fill="#bfbfbf" stroke="black" points="73,-67.5 73,-97.5 198,-97.5 198,-67.5 73,-67.5"/>
<text text-anchor="start" x="81" y="-85.5" font-family="Helvetica,sans-Serif" font-size="10.00">mini::temporal::Solver</text>
<text text-anchor="middle" x="135.5" y="-74.5" font-family="Helvetica,sans-Serif" font-size="10.00">&lt; Scalar &gt;</text>
</a>
</g>
</g>
<!-- Node2 -->
<g id="node2" class="node">
<title>Node2</title>
<g id="a_node2"><a xlink:href="classmini_1_1temporal_1_1Euler.html" target="_top" xlink:title="The simplest ODE Solver: .">
<polygon fill="white" stroke="black" points="0,-0.5 0,-30.5 119,-30.5 119,-0.5 0,-0.5"/>
<text text-anchor="start" x="8" y="-18.5" font-family="Helvetica,sans-Serif" font-size="10.00">mini::temporal::Euler</text>
<text text-anchor="middle" x="59.5" y="-7.5" font-family="Helvetica,sans-Serif" font-size="10.00">&lt; Scalar &gt;</text>
</a>
</g>
</g>
<!-- Node1&#45;&gt;Node2 -->
<g id="edge1" class="edge">
<title>Node1&#45;&gt;Node2</title>
<path fill="none" stroke="midnightblue" d="M111.39,-60.88C99.84,-51.01 86.31,-39.43 75.96,-30.58"/>
<polygon fill="midnightblue" stroke="midnightblue" points="109.13,-63.56 119.01,-67.4 113.68,-58.24 109.13,-63.56"/>
</g>
<!-- Node3 -->
<g id="node3" class="node">
<title>Node3</title>
<g id="a_node3"><a xlink:href="structmini_1_1temporal_1_1RungeKutta.html" target="_top" xlink:title=" ">
<polygon fill="white" stroke="black" points="137,-0.5 137,-30.5 288,-30.5 288,-0.5 137,-0.5"/>
<text text-anchor="start" x="145" y="-18.5" font-family="Helvetica,sans-Serif" font-size="10.00">mini::temporal::RungeKutta</text>
<text text-anchor="middle" x="212.5" y="-7.5" font-family="Helvetica,sans-Serif" font-size="10.00">&lt; kOrders, Scalar &gt;</text>
</a>
</g>
</g>
<!-- Node1&#45;&gt;Node3 -->
<g id="edge2" class="edge">
<title>Node1&#45;&gt;Node3</title>
<path fill="none" stroke="midnightblue" d="M159.92,-60.88C171.62,-51.01 185.34,-39.43 195.82,-30.58"/>
<polygon fill="midnightblue" stroke="midnightblue" points="157.59,-58.27 152.21,-67.4 162.11,-63.62 157.59,-58.27"/>
</g>
</g>
</svg>
