<?xml version="1.0" encoding="UTF-8" standalone="no"?>
<!DOCTYPE svg PUBLIC "-//W3C//DTD SVG 1.1//EN"
 "http://www.w3.org/Graphics/SVG/1.1/DTD/svg11.dtd">
<!-- Generated by graphviz version 2.43.0 (0)
 -->
<!-- Title: mini::coordinate::Pyramid&lt; Scalar &gt; Pages: 1 -->
<svg width="678pt" height="137pt"
 viewBox="0.00 0.00 678.00 137.00" xmlns="http://www.w3.org/2000/svg" xmlns:xlink="http://www.w3.org/1999/xlink">
<g id="graph0" class="graph" transform="scale(1 1) rotate(0) translate(4 133)">
<title>mini::coordinate::Pyramid&lt; Scalar &gt;</title>
<polygon fill="white" stroke="transparent" points="-4,4 -4,-133 674,-133 674,4 -4,4"/>
<!-- Node1 -->
<g id="node1" class="node">
<title>Node1</title>
<g id="a_node1"><a xlink:title="Abstract coordinate map on pyramidal elements.">
<polygon fill="#bfbfbf" stroke="black" points="336,-49.5 336,-79.5 479,-79.5 479,-49.5 336,-49.5"/>
<text text-anchor="start" x="344" y="-67.5" font-family="Helvetica,sans-Serif" font-size="10.00">mini::coordinate::Pyramid</text>
<text text-anchor="middle" x="407.5" y="-56.5" font-family="Helvetica,sans-Serif" font-size="10.00">&lt; Scalar &gt;</text>
</a>
</g>
</g>
<!-- Node4 -->
<g id="node4" class="node">
<title>Node4</title>
<g id="a_node4"><a xlink:href="classmini_1_1coordinate_1_1Pyramid13.html" target="_top" xlink:title="Coordinate map on 13&#45;node pyramidal elements.">
<polygon fill="white" stroke="black" points="515,-98.5 515,-128.5 670,-128.5 670,-98.5 515,-98.5"/>
<text text-anchor="start" x="523" y="-116.5" font-family="Helvetica,sans-Serif" font-size="10.00">mini::coordinate::Pyramid13</text>
<text text-anchor="middle" x="592.5" y="-105.5" font-family="Helvetica,sans-Serif" font-size="10.00">&lt; Scalar &gt;</text>
</a>
</g>
</g>
<!-- Node1&#45;&gt;Node4 -->
<g id="edge3" class="edge">
<title>Node1&#45;&gt;Node4</title>
<path fill="none" stroke="midnightblue" d="M474.79,-82.25C494.62,-87.56 516.17,-93.33 535.29,-98.45"/>
<polygon fill="midnightblue" stroke="midnightblue" points="475.46,-78.81 464.9,-79.6 473.65,-85.57 475.46,-78.81"/>
</g>
<!-- Node5 -->
<g id="node5" class="node">
<title>Node5</title>
<g id="a_node5"><a xlink:href="classmini_1_1coordinate_1_1Pyramid14.html" target="_top" xlink:title="Coordinate map on 14&#45;node pyramidal elements.">
<polygon fill="white" stroke="black" points="515,-49.5 515,-79.5 670,-79.5 670,-49.5 515,-49.5"/>
<text text-anchor="start" x="523" y="-67.5" font-family="Helvetica,sans-Serif" font-size="10.00">mini::coordinate::Pyramid14</text>
<text text-anchor="middle" x="592.5" y="-56.5" font-family="Helvetica,sans-Serif" font-size="10.00">&lt; Scalar &gt;</text>
</a>
</g>
</g>
<!-- Node1&#45;&gt;Node5 -->
<g id="edge4" class="edge">
<title>Node1&#45;&gt;Node5</title>
<path fill="none" stroke="midnightblue" d="M489.47,-64.5C497.91,-64.5 506.47,-64.5 514.86,-64.5"/>
<polygon fill="midnightblue" stroke="midnightblue" points="489.25,-61 479.25,-64.5 489.25,-68 489.25,-61"/>
</g>
<!-- Node6 -->
<g id="node6" class="node">
<title>Node6</title>
<g id="a_node6"><a xlink:href="classmini_1_1coordinate_1_1Pyramid5.html" target="_top" xlink:title="Coordinate map on 5&#45;node pyramidal elements.">
<polygon fill="white" stroke="black" points="518,-0.5 518,-30.5 667,-30.5 667,-0.5 518,-0.5"/>
<text text-anchor="start" x="526" y="-18.5" font-family="Helvetica,sans-Serif" font-size="10.00">mini::coordinate::Pyramid5</text>
<text text-anchor="middle" x="592.5" y="-7.5" font-family="Helvetica,sans-Serif" font-size="10.00">&lt; Scalar &gt;</text>
</a>
</g>
</g>
<!-- Node1&#45;&gt;Node6 -->
<g id="edge5" class="edge">
<title>Node1&#45;&gt;Node6</title>
<path fill="none" stroke="midnightblue" d="M474.79,-46.75C494.62,-41.44 516.17,-35.67 535.29,-30.55"/>
<polygon fill="midnightblue" stroke="midnightblue" points="473.65,-43.43 464.9,-49.4 475.46,-50.19 473.65,-43.43"/>
</g>
<!-- Node2 -->
<g id="node2" class="node">
<title>Node2</title>
<g id="a_node2"><a xlink:href="classmini_1_1coordinate_1_1Cell.html" target="_top" xlink:title="Abstract coordinate map on volume elements.">
<polygon fill="white" stroke="black" points="179,-49.5 179,-79.5 300,-79.5 300,-49.5 179,-49.5"/>
<text text-anchor="start" x="187" y="-67.5" font-family="Helvetica,sans-Serif" font-size="10.00">mini::coordinate::Cell</text>
<text text-anchor="middle" x="239.5" y="-56.5" font-family="Helvetica,sans-Serif" font-size="10.00">&lt; Scalar &gt;</text>
</a>
</g>
</g>
<!-- Node2&#45;&gt;Node1 -->
<g id="edge1" class="edge">
<title>Node2&#45;&gt;Node1</title>
<path fill="none" stroke="midnightblue" d="M310.55,-64.5C318.95,-64.5 327.52,-64.5 335.92,-64.5"/>
<polygon fill="midnightblue" stroke="midnightblue" points="310.43,-61 300.43,-64.5 310.43,-68 310.43,-61"/>
</g>
<!-- Node3 -->
<g id="node3" class="node">
<title>Node3</title>
<g id="a_node3"><a xlink:href="classmini_1_1coordinate_1_1Element.html" target="_top" xlink:title=" ">
<polygon fill="white" stroke="black" points="0,-49.5 0,-79.5 143,-79.5 143,-49.5 0,-49.5"/>
<text text-anchor="start" x="8" y="-67.5" font-family="Helvetica,sans-Serif" font-size="10.00">mini::coordinate::Element</text>
<text text-anchor="middle" x="71.5" y="-56.5" font-family="Helvetica,sans-Serif" font-size="10.00">&lt; Scalar, 3, 3 &gt;</text>
</a>
</g>
</g>
<!-- Node3&#45;&gt;Node2 -->
<g id="edge2" class="edge">
<title>Node3&#45;&gt;Node2</title>
<path fill="none" stroke="midnightblue" d="M153.4,-64.5C161.97,-64.5 170.56,-64.5 178.82,-64.5"/>
<polygon fill="midnightblue" stroke="midnightblue" points="153.38,-61 143.38,-64.5 153.38,-68 153.38,-61"/>
</g>
</g>
</svg>
