<?xml version="1.0" encoding="UTF-8" standalone="no"?>
<!DOCTYPE svg PUBLIC "-//W3C//DTD SVG 1.1//EN"
 "http://www.w3.org/Graphics/SVG/1.1/DTD/svg11.dtd">
<!-- Generated by graphviz version 2.43.0 (0)
 -->
<!-- Title: mini::mesh::metis::SparseGraphWithDeleter&lt; Int &gt; Pages: 1 -->
<svg width="145pt" height="207pt"
 viewBox="0.00 0.00 145.00 207.00" xmlns="http://www.w3.org/2000/svg" xmlns:xlink="http://www.w3.org/1999/xlink">
<g id="graph0" class="graph" transform="scale(1 1) rotate(0) translate(4 203)">
<title>mini::mesh::metis::SparseGraphWithDeleter&lt; Int &gt;</title>
<polygon fill="white" stroke="transparent" points="-4,4 -4,-203 141,-203 141,4 -4,4"/>
<!-- Node1 -->
<g id="node1" class="node">
<title>Node1</title>
<g id="a_node1"><a xlink:title="A wrapper, which holds arrays allocated by METIS, on SparseGraph.">
<polygon fill="#bfbfbf" stroke="black" points="0,-0.5 0,-41.5 137,-41.5 137,-0.5 0,-0.5"/>
<text text-anchor="start" x="8" y="-29.5" font-family="Helvetica,sans-Serif" font-size="10.00">mini::mesh::metis::</text>
<text text-anchor="start" x="8" y="-18.5" font-family="Helvetica,sans-Serif" font-size="10.00">SparseGraphWithDeleter</text>
<text text-anchor="middle" x="68.5" y="-7.5" font-family="Helvetica,sans-Serif" font-size="10.00">&lt; Int &gt;</text>
</a>
</g>
</g>
<!-- Node2 -->
<g id="node2" class="node">
<title>Node2</title>
<g id="a_node2"><a xlink:href="classmini_1_1mesh_1_1metis_1_1SparseGraph.html" target="_top" xlink:title="A CSR (Compressed Sparse Row) representation of sparse graphs.">
<polygon fill="white" stroke="black" points="11.5,-79.5 11.5,-109.5 125.5,-109.5 125.5,-79.5 11.5,-79.5"/>
<text text-anchor="start" x="19.5" y="-97.5" font-family="Helvetica,sans-Serif" font-size="10.00">mini::mesh::metis::</text>
<text text-anchor="middle" x="68.5" y="-86.5" font-family="Helvetica,sans-Serif" font-size="10.00">SparseGraph&lt; Int &gt;</text>
</a>
</g>
</g>
<!-- Node2&#45;&gt;Node1 -->
<g id="edge1" class="edge">
<title>Node2&#45;&gt;Node1</title>
<path fill="none" stroke="midnightblue" d="M68.5,-69.1C68.5,-60.1 68.5,-50.02 68.5,-41.51"/>
<polygon fill="midnightblue" stroke="midnightblue" points="65,-69.37 68.5,-79.37 72,-69.37 65,-69.37"/>
</g>
<!-- Node3 -->
<g id="node3" class="node">
<title>Node3</title>
<g id="a_node3"><a xlink:title=" ">
<polygon fill="white" stroke="#bfbfbf" points="54,-179.5 54,-198.5 83,-198.5 83,-179.5 54,-179.5"/>
<text text-anchor="middle" x="68.5" y="-186.5" font-family="Helvetica,sans-Serif" font-size="10.00">Int</text>
</a>
</g>
</g>
<!-- Node3&#45;&gt;Node2 -->
<g id="edge2" class="edge">
<title>Node3&#45;&gt;Node2</title>
<path fill="none" stroke="#9a32cd" stroke-dasharray="5,2" d="M68.5,-169.29C68.5,-151.67 68.5,-125.67 68.5,-109.7"/>
<polygon fill="#9a32cd" stroke="#9a32cd" points="65,-169.46 68.5,-179.46 72,-169.46 65,-169.46"/>
<text text-anchor="middle" x="93" y="-153" font-family="Helvetica,sans-Serif" font-size="10.00"> index_</text>
<text text-anchor="middle" x="93" y="-142" font-family="Helvetica,sans-Serif" font-size="10.00">n_vertex_</text>
<text text-anchor="middle" x="93" y="-131" font-family="Helvetica,sans-Serif" font-size="10.00">range_</text>
</g>
</g>
</svg>
