<?xml version="1.0" encoding="UTF-8" standalone="no"?>
<!DOCTYPE svg PUBLIC "-//W3C//DTD SVG 1.1//EN"
 "http://www.w3.org/Graphics/SVG/1.1/DTD/svg11.dtd">
<!-- Generated by graphviz version 2.43.0 (0)
 -->
<!-- Title: mini::coordinate::Quadrangle&lt; Scalar, kPhysDim &gt; Pages: 1 -->
<svg width="706pt" height="137pt"
 viewBox="0.00 0.00 706.00 137.00" xmlns="http://www.w3.org/2000/svg" xmlns:xlink="http://www.w3.org/1999/xlink">
<g id="graph0" class="graph" transform="scale(1 1) rotate(0) translate(4 133)">
<title>mini::coordinate::Quadrangle&lt; Scalar, kPhysDim &gt;</title>
<polygon fill="white" stroke="transparent" points="-4,4 -4,-133 702,-133 702,4 -4,4"/>
<!-- Node1 -->
<g id="node1" class="node">
<title>Node1</title>
<g id="a_node1"><a xlink:title="Abstract coordinate map on quadrilateral elements.">
<polygon fill="#bfbfbf" stroke="black" points="340,-49.5 340,-79.5 498,-79.5 498,-49.5 340,-49.5"/>
<text text-anchor="start" x="348" y="-67.5" font-family="Helvetica,sans-Serif" font-size="10.00">mini::coordinate::Quadrangle</text>
<text text-anchor="middle" x="419" y="-56.5" font-family="Helvetica,sans-Serif" font-size="10.00">&lt; Scalar, kPhysDim &gt;</text>
</a>
</g>
</g>
<!-- Node4 -->
<g id="node4" class="node">
<title>Node4</title>
<g id="a_node4"><a xlink:href="classmini_1_1coordinate_1_1Quadrangle4.html" target="_top" xlink:title="Coordinate map on 4&#45;node quadrilateral elements.">
<polygon fill="white" stroke="black" points="534,-98.5 534,-128.5 698,-128.5 698,-98.5 534,-98.5"/>
<text text-anchor="start" x="542" y="-116.5" font-family="Helvetica,sans-Serif" font-size="10.00">mini::coordinate::Quadrangle4</text>
<text text-anchor="middle" x="616" y="-105.5" font-family="Helvetica,sans-Serif" font-size="10.00">&lt; Scalar, kPhysDim &gt;</text>
</a>
</g>
</g>
<!-- Node1&#45;&gt;Node4 -->
<g id="edge3" class="edge">
<title>Node1&#45;&gt;Node4</title>
<path fill="none" stroke="midnightblue" d="M489.55,-81.98C511.04,-87.38 534.51,-93.28 555.28,-98.49"/>
<polygon fill="midnightblue" stroke="midnightblue" points="490.38,-78.58 479.83,-79.53 488.68,-85.37 490.38,-78.58"/>
</g>
<!-- Node5 -->
<g id="node5" class="node">
<title>Node5</title>
<g id="a_node5"><a xlink:href="classmini_1_1coordinate_1_1Quadrangle8.html" target="_top" xlink:title="Coordinate map on 8&#45;node quadrilateral elements.">
<polygon fill="white" stroke="black" points="534,-49.5 534,-79.5 698,-79.5 698,-49.5 534,-49.5"/>
<text text-anchor="start" x="542" y="-67.5" font-family="Helvetica,sans-Serif" font-size="10.00">mini::coordinate::Quadrangle8</text>
<text text-anchor="middle" x="616" y="-56.5" font-family="Helvetica,sans-Serif" font-size="10.00">&lt; Scalar, kPhysDim &gt;</text>
</a>
</g>
</g>
<!-- Node1&#45;&gt;Node5 -->
<g id="edge4" class="edge">
<title>Node1&#45;&gt;Node5</title>
<path fill="none" stroke="midnightblue" d="M508.19,-64.5C516.76,-64.5 525.43,-64.5 533.92,-64.5"/>
<polygon fill="midnightblue" stroke="midnightblue" points="508.19,-61 498.19,-64.5 508.19,-68 508.19,-61"/>
</g>
<!-- Node6 -->
<g id="node6" class="node">
<title>Node6</title>
<g id="a_node6"><a xlink:href="classmini_1_1coordinate_1_1Quadrangle9.html" target="_top" xlink:title="Coordinate map on 9&#45;node quadrilateral elements.">
<polygon fill="white" stroke="black" points="534,-0.5 534,-30.5 698,-30.5 698,-0.5 534,-0.5"/>
<text text-anchor="start" x="542" y="-18.5" font-family="Helvetica,sans-Serif" font-size="10.00">mini::coordinate::Quadrangle9</text>
<text text-anchor="middle" x="616" y="-7.5" font-family="Helvetica,sans-Serif" font-size="10.00">&lt; Scalar, kPhysDim &gt;</text>
</a>
</g>
</g>
<!-- Node1&#45;&gt;Node6 -->
<g id="edge5" class="edge">
<title>Node1&#45;&gt;Node6</title>
<path fill="none" stroke="midnightblue" d="M489.55,-47.02C511.04,-41.62 534.51,-35.72 555.28,-30.51"/>
<polygon fill="midnightblue" stroke="midnightblue" points="488.68,-43.63 479.83,-49.47 490.38,-50.42 488.68,-43.63"/>
</g>
<!-- Node2 -->
<g id="node2" class="node">
<title>Node2</title>
<g id="a_node2"><a xlink:href="classmini_1_1coordinate_1_1Face.html" target="_top" xlink:title="Abstract coordinate map on surface elements.">
<polygon fill="white" stroke="black" points="179,-49.5 179,-79.5 304,-79.5 304,-49.5 179,-49.5"/>
<text text-anchor="start" x="187" y="-67.5" font-family="Helvetica,sans-Serif" font-size="10.00">mini::coordinate::Face</text>
<text text-anchor="middle" x="241.5" y="-56.5" font-family="Helvetica,sans-Serif" font-size="10.00">&lt; Scalar, kPhysDim &gt;</text>
</a>
</g>
</g>
<!-- Node2&#45;&gt;Node1 -->
<g id="edge1" class="edge">
<title>Node2&#45;&gt;Node1</title>
<path fill="none" stroke="midnightblue" d="M314.44,-64.5C322.79,-64.5 331.34,-64.5 339.77,-64.5"/>
<polygon fill="midnightblue" stroke="midnightblue" points="314.37,-61 304.37,-64.5 314.37,-68 314.37,-61"/>
</g>
<!-- Node3 -->
<g id="node3" class="node">
<title>Node3</title>
<g id="a_node3"><a xlink:href="classmini_1_1coordinate_1_1Element.html" target="_top" xlink:title=" ">
<polygon fill="white" stroke="black" points="0,-49.5 0,-79.5 143,-79.5 143,-49.5 0,-49.5"/>
<text text-anchor="start" x="8" y="-67.5" font-family="Helvetica,sans-Serif" font-size="10.00">mini::coordinate::Element</text>
<text text-anchor="middle" x="71.5" y="-56.5" font-family="Helvetica,sans-Serif" font-size="10.00">&lt; Scalar, kPhysDim, 2 &gt;</text>
</a>
</g>
</g>
<!-- Node3&#45;&gt;Node2 -->
<g id="edge2" class="edge">
<title>Node3&#45;&gt;Node2</title>
<path fill="none" stroke="midnightblue" d="M153.31,-64.5C161.91,-64.5 170.55,-64.5 178.88,-64.5"/>
<polygon fill="midnightblue" stroke="midnightblue" points="153.26,-61 143.26,-64.5 153.26,-68 153.26,-61"/>
</g>
</g>
</svg>
