<?xml version="1.0" encoding="UTF-8" standalone="no"?>
<!DOCTYPE svg PUBLIC "-//W3C//DTD SVG 1.1//EN"
 "http://www.w3.org/Graphics/SVG/1.1/DTD/svg11.dtd">
<!-- Generated by graphviz version 2.43.0 (0)
 -->
<!-- Title: mini::integrator::Hexahedron&lt; Gx, Gy, Gz &gt; Pages: 1 -->
<svg width="184pt" height="173pt"
 viewBox="0.00 0.00 184.00 173.00" xmlns="http://www.w3.org/2000/svg" xmlns:xlink="http://www.w3.org/1999/xlink">
<g id="graph0" class="graph" transform="scale(1 1) rotate(0) translate(4 169)">
<title>mini::integrator::Hexahedron&lt; Gx, Gy, Gz &gt;</title>
<polygon fill="white" stroke="transparent" points="-4,4 -4,-169 180,-169 180,4 -4,4"/>
<!-- Node1 -->
<g id="node1" class="node">
<title>Node1</title>
<g id="a_node1"><a xlink:title="Numerical integrators on hexahedral elements.">
<polygon fill="#bfbfbf" stroke="black" points="9,-0.5 9,-30.5 167,-30.5 167,-0.5 9,-0.5"/>
<text text-anchor="start" x="17" y="-18.5" font-family="Helvetica,sans-Serif" font-size="10.00">mini::integrator::Hexahedron</text>
<text text-anchor="middle" x="88" y="-7.5" font-family="Helvetica,sans-Serif" font-size="10.00">&lt; Gx, Gy, Gz &gt;</text>
</a>
</g>
</g>
<!-- Node2 -->
<g id="node2" class="node">
<title>Node2</title>
<g id="a_node2"><a xlink:href="classmini_1_1integrator_1_1Cell.html" target="_top" xlink:title=" ">
<polygon fill="white" stroke="black" points="29.5,-67.5 29.5,-97.5 146.5,-97.5 146.5,-67.5 29.5,-67.5"/>
<text text-anchor="start" x="37.5" y="-85.5" font-family="Helvetica,sans-Serif" font-size="10.00">mini::integrator::Cell</text>
<text text-anchor="middle" x="88" y="-74.5" font-family="Helvetica,sans-Serif" font-size="10.00">&lt; Gx::Scalar &gt;</text>
</a>
</g>
</g>
<!-- Node2&#45;&gt;Node1 -->
<g id="edge1" class="edge">
<title>Node2&#45;&gt;Node1</title>
<path fill="none" stroke="midnightblue" d="M88,-57.11C88,-48.15 88,-38.32 88,-30.58"/>
<polygon fill="midnightblue" stroke="midnightblue" points="84.5,-57.4 88,-67.4 91.5,-57.4 84.5,-57.4"/>
</g>
<!-- Node3 -->
<g id="node3" class="node">
<title>Node3</title>
<g id="a_node3"><a xlink:href="classmini_1_1integrator_1_1Element.html" target="_top" xlink:title="Abstract numerical integrators on elements.">
<polygon fill="white" stroke="black" points="0,-134.5 0,-164.5 176,-164.5 176,-134.5 0,-134.5"/>
<text text-anchor="start" x="8" y="-152.5" font-family="Helvetica,sans-Serif" font-size="10.00">mini::integrator::Element</text>
<text text-anchor="middle" x="88" y="-141.5" font-family="Helvetica,sans-Serif" font-size="10.00">&lt; Scalar, kPhysDim, kCellDim &gt;</text>
</a>
</g>
</g>
<!-- Node3&#45;&gt;Node2 -->
<g id="edge2" class="edge">
<title>Node3&#45;&gt;Node2</title>
<path fill="none" stroke="midnightblue" d="M88,-124.11C88,-115.15 88,-105.32 88,-97.58"/>
<polygon fill="midnightblue" stroke="midnightblue" points="84.5,-124.4 88,-134.4 91.5,-124.4 84.5,-124.4"/>
</g>
</g>
</svg>
