<?xml version="1.0" encoding="UTF-8" standalone="no"?>
<!DOCTYPE svg PUBLIC "-//W3C//DTD SVG 1.1//EN"
 "http://www.w3.org/Graphics/SVG/1.1/DTD/svg11.dtd">
<!-- Generated by graphviz version 2.43.0 (0)
 -->
<!-- Title: python.concept.Grid Pages: 1 -->
<svg width="1028pt" height="362pt"
 viewBox="0.00 0.00 1028.00 361.50" xmlns="http://www.w3.org/2000/svg" xmlns:xlink="http://www.w3.org/1999/xlink">
<g id="graph0" class="graph" transform="scale(1 1) rotate(0) translate(4 357.5)">
<title>python.concept.Grid</title>
<polygon fill="white" stroke="transparent" points="-4,4 -4,-357.5 1024,-357.5 1024,4 -4,4"/>
<!-- Node1 -->
<g id="node1" class="node">
<title>Node1</title>
<g id="a_node1"><a xlink:title=" ">
<polygon fill="#bfbfbf" stroke="black" points="93,-143.5 93,-162.5 208,-162.5 208,-143.5 93,-143.5"/>
<text text-anchor="middle" x="150.5" y="-150.5" font-family="Helvetica,sans-Serif" font-size="10.00">python.concept.Grid</text>
</a>
</g>
</g>
<!-- Node3 -->
<g id="node3" class="node">
<title>Node3</title>
<g id="a_node3"><a xlink:href="classpython_1_1concept_1_1SpatialScheme.html" target="_top" xlink:title="An ODE system given by some FiniteElement scheme.">
<polygon fill="white" stroke="black" points="244,-143.5 244,-162.5 411,-162.5 411,-143.5 244,-143.5"/>
<text text-anchor="middle" x="327.5" y="-150.5" font-family="Helvetica,sans-Serif" font-size="10.00">python.concept.SpatialScheme</text>
</a>
</g>
</g>
<!-- Node1&#45;&gt;Node3 -->
<g id="edge2" class="edge">
<title>Node1&#45;&gt;Node3</title>
<path fill="none" stroke="midnightblue" d="M218.36,-153C226.72,-153 235.35,-153 243.91,-153"/>
<polygon fill="midnightblue" stroke="midnightblue" points="218.32,-149.5 208.32,-153 218.32,-156.5 218.32,-149.5"/>
</g>
<!-- Node2 -->
<g id="node2" class="node">
<title>Node2</title>
<g id="a_node2"><a xlink:title=" ">
<polygon fill="white" stroke="#bfbfbf" points="0,-143.5 0,-162.5 57,-162.5 57,-143.5 0,-143.5"/>
<text text-anchor="middle" x="28.5" y="-150.5" font-family="Helvetica,sans-Serif" font-size="10.00">abc.ABC</text>
</a>
</g>
</g>
<!-- Node2&#45;&gt;Node1 -->
<g id="edge1" class="edge">
<title>Node2&#45;&gt;Node1</title>
<path fill="none" stroke="midnightblue" d="M67.25,-153C75.35,-153 84.08,-153 92.72,-153"/>
<polygon fill="midnightblue" stroke="midnightblue" points="67.03,-149.5 57.03,-153 67.03,-156.5 67.03,-149.5"/>
</g>
<!-- Node4 -->
<g id="node4" class="node">
<title>Node4</title>
<g id="a_node4"><a xlink:href="classpython_1_1spatial_1_1FiniteElement.html" target="_top" xlink:title="An ODE system given by some FiniteElement scheme.">
<polygon fill="white" stroke="black" points="447,-162.5 447,-181.5 604,-181.5 604,-162.5 447,-162.5"/>
<text text-anchor="middle" x="525.5" y="-169.5" font-family="Helvetica,sans-Serif" font-size="10.00">python.spatial.FiniteElement</text>
</a>
</g>
</g>
<!-- Node3&#45;&gt;Node4 -->
<g id="edge3" class="edge">
<title>Node3&#45;&gt;Node4</title>
<path fill="none" stroke="midnightblue" d="M421.09,-161.98C429.67,-162.81 438.3,-163.64 446.73,-164.46"/>
<polygon fill="midnightblue" stroke="midnightblue" points="421.34,-158.48 411.05,-161 420.67,-165.45 421.34,-158.48"/>
</g>
<!-- Node15 -->
<g id="node15" class="node">
<title>Node15</title>
<g id="a_node15"><a xlink:href="classpython_1_1spatial_1_1FiniteVolume.html" target="_top" xlink:title="An ODE system given by some FiniteVolume scheme.">
<polygon fill="white" stroke="black" points="449,-124.5 449,-143.5 602,-143.5 602,-124.5 449,-124.5"/>
<text text-anchor="middle" x="525.5" y="-131.5" font-family="Helvetica,sans-Serif" font-size="10.00">python.spatial.FiniteVolume</text>
</a>
</g>
</g>
<!-- Node3&#45;&gt;Node15 -->
<g id="edge14" class="edge">
<title>Node3&#45;&gt;Node15</title>
<path fill="none" stroke="midnightblue" d="M421.12,-144.02C430.43,-143.12 439.8,-142.21 448.91,-141.33"/>
<polygon fill="midnightblue" stroke="midnightblue" points="420.67,-140.55 411.05,-145 421.34,-147.52 420.67,-140.55"/>
</g>
<!-- Node5 -->
<g id="node5" class="node">
<title>Node5</title>
<g id="a_node5"><a xlink:href="classpython_1_1spatial_1_1DiscontinuousGalerkin.html" target="_top" xlink:title="An mid&#45;level class that defines common methods for all DG schemes.">
<polygon fill="white" stroke="black" points="652.5,-225 652.5,-255 810.5,-255 810.5,-225 652.5,-225"/>
<text text-anchor="start" x="660.5" y="-243" font-family="Helvetica,sans-Serif" font-size="10.00">python.spatial.Discontinuous</text>
<text text-anchor="middle" x="731.5" y="-232" font-family="Helvetica,sans-Serif" font-size="10.00">Galerkin</text>
</a>
</g>
</g>
<!-- Node4&#45;&gt;Node5 -->
<g id="edge4" class="edge">
<title>Node4&#45;&gt;Node5</title>
<path fill="none" stroke="midnightblue" d="M564.93,-184.81C599.14,-196.21 649.22,-212.91 685.33,-224.94"/>
<polygon fill="midnightblue" stroke="midnightblue" points="565.89,-181.44 555.3,-181.6 563.68,-188.08 565.89,-181.44"/>
</g>
<!-- Node10 -->
<g id="node10" class="node">
<title>Node10</title>
<g id="a_node10"><a xlink:href="classpython_1_1spatial_1_1FluxReconstruction.html" target="_top" xlink:title="An mid&#45;level class that defines common methods for all FR schemes.">
<polygon fill="white" stroke="black" points="640,-93.5 640,-112.5 823,-112.5 823,-93.5 640,-93.5"/>
<text text-anchor="middle" x="731.5" y="-100.5" font-family="Helvetica,sans-Serif" font-size="10.00">python.spatial.FluxReconstruction</text>
</a>
</g>
</g>
<!-- Node4&#45;&gt;Node10 -->
<g id="edge9" class="edge">
<title>Node4&#45;&gt;Node10</title>
<path fill="none" stroke="midnightblue" d="M579.71,-159.97C587.9,-157.83 596.21,-155.48 604,-153 641.58,-141.03 683.96,-123.4 708.89,-112.59"/>
<polygon fill="midnightblue" stroke="midnightblue" points="578.66,-156.63 569.83,-162.48 580.39,-163.41 578.66,-156.63"/>
</g>
<!-- Node6 -->
<g id="node6" class="node">
<title>Node6</title>
<g id="a_node6"><a xlink:href="classpython_1_1spatial_1_1DGonLegendreRoots.html" target="_top" xlink:title="The ODE system given by the DG method using a Lagrange expansion on Legendre roots.">
<polygon fill="white" stroke="black" points="859,-323 859,-353 1020,-353 1020,-323 859,-323"/>
<text text-anchor="start" x="867" y="-341" font-family="Helvetica,sans-Serif" font-size="10.00">python.spatial.DGonLegendre</text>
<text text-anchor="middle" x="939.5" y="-330" font-family="Helvetica,sans-Serif" font-size="10.00">Roots</text>
</a>
</g>
</g>
<!-- Node5&#45;&gt;Node6 -->
<g id="edge5" class="edge">
<title>Node5&#45;&gt;Node6</title>
<path fill="none" stroke="midnightblue" d="M763.15,-260.71C788.12,-276.88 824.73,-299.05 859,-314 866.53,-317.29 874.65,-320.3 882.72,-322.99"/>
<polygon fill="midnightblue" stroke="midnightblue" points="764.78,-257.59 754.5,-255.04 760.95,-263.45 764.78,-257.59"/>
</g>
<!-- Node7 -->
<g id="node7" class="node">
<title>Node7</title>
<g id="a_node7"><a xlink:href="classpython_1_1spatial_1_1DGonLobattoRoots.html" target="_top" xlink:title="The ODE system given by the DG method using a Lagrange expansion on Lobatto roots.">
<polygon fill="white" stroke="black" points="863,-274 863,-304 1016,-304 1016,-274 863,-274"/>
<text text-anchor="start" x="871" y="-292" font-family="Helvetica,sans-Serif" font-size="10.00">python.spatial.DGonLobatto</text>
<text text-anchor="middle" x="939.5" y="-281" font-family="Helvetica,sans-Serif" font-size="10.00">Roots</text>
</a>
</g>
</g>
<!-- Node5&#45;&gt;Node7 -->
<g id="edge6" class="edge">
<title>Node5&#45;&gt;Node7</title>
<path fill="none" stroke="midnightblue" d="M805.67,-257.4C828.46,-262.82 853.38,-268.75 875.41,-273.99"/>
<polygon fill="midnightblue" stroke="midnightblue" points="806.25,-253.94 795.71,-255.03 804.63,-260.75 806.25,-253.94"/>
</g>
<!-- Node8 -->
<g id="node8" class="node">
<title>Node8</title>
<g id="a_node8"><a xlink:href="classpython_1_1spatial_1_1DGonUniformRoots.html" target="_top" xlink:title="The ODE system given by the DG method using a Lagrange expansion on uniform roots.">
<polygon fill="white" stroke="black" points="861.5,-225 861.5,-255 1017.5,-255 1017.5,-225 861.5,-225"/>
<text text-anchor="start" x="869.5" y="-243" font-family="Helvetica,sans-Serif" font-size="10.00">python.spatial.DGonUniform</text>
<text text-anchor="middle" x="939.5" y="-232" font-family="Helvetica,sans-Serif" font-size="10.00">Roots</text>
</a>
</g>
</g>
<!-- Node5&#45;&gt;Node8 -->
<g id="edge7" class="edge">
<title>Node5&#45;&gt;Node8</title>
<path fill="none" stroke="midnightblue" d="M820.9,-240C834.38,-240 848.19,-240 861.4,-240"/>
<polygon fill="midnightblue" stroke="midnightblue" points="820.67,-236.5 810.67,-240 820.67,-243.5 820.67,-236.5"/>
</g>
<!-- Node9 -->
<g id="node9" class="node">
<title>Node9</title>
<g id="a_node9"><a xlink:href="classpython_1_1spatial_1_1LegendreDG.html" target="_top" xlink:title="The ODE system given by the DG method using a Legendre expansion.">
<polygon fill="white" stroke="black" points="865,-186.5 865,-205.5 1014,-205.5 1014,-186.5 865,-186.5"/>
<text text-anchor="middle" x="939.5" y="-193.5" font-family="Helvetica,sans-Serif" font-size="10.00">python.spatial.LegendreDG</text>
</a>
</g>
</g>
<!-- Node5&#45;&gt;Node9 -->
<g id="edge8" class="edge">
<title>Node5&#45;&gt;Node9</title>
<path fill="none" stroke="midnightblue" d="M812.86,-222.84C840.43,-216.95 870.28,-210.57 893.96,-205.51"/>
<polygon fill="midnightblue" stroke="midnightblue" points="811.87,-219.47 802.82,-224.98 813.33,-226.31 811.87,-219.47"/>
</g>
<!-- Node11 -->
<g id="node11" class="node">
<title>Node11</title>
<g id="a_node11"><a xlink:href="classpython_1_1spatial_1_1FRonLegendreRoots.html" target="_top" xlink:title="The ODE system given by the FR method using a Lagrange expansion on Legendre roots.">
<polygon fill="white" stroke="black" points="860,-137 860,-167 1019,-167 1019,-137 860,-137"/>
<text text-anchor="start" x="868" y="-155" font-family="Helvetica,sans-Serif" font-size="10.00">python.spatial.FRonLegendre</text>
<text text-anchor="middle" x="939.5" y="-144" font-family="Helvetica,sans-Serif" font-size="10.00">Roots</text>
</a>
</g>
</g>
<!-- Node10&#45;&gt;Node11 -->
<g id="edge10" class="edge">
<title>Node10&#45;&gt;Node11</title>
<path fill="none" stroke="midnightblue" d="M782.64,-114.93C810.54,-121.56 845.53,-129.89 875.28,-136.96"/>
<polygon fill="midnightblue" stroke="midnightblue" points="783.25,-111.47 772.71,-112.56 781.63,-118.28 783.25,-111.47"/>
</g>
<!-- Node12 -->
<g id="node12" class="node">
<title>Node12</title>
<g id="a_node12"><a xlink:href="classpython_1_1spatial_1_1FRonLobattoRoots.html" target="_top" xlink:title="The ODE system given by the FR method using a Lagrange expansion on Lobatto roots.">
<polygon fill="white" stroke="black" points="864,-88 864,-118 1015,-118 1015,-88 864,-88"/>
<text text-anchor="start" x="872" y="-106" font-family="Helvetica,sans-Serif" font-size="10.00">python.spatial.FRonLobatto</text>
<text text-anchor="middle" x="939.5" y="-95" font-family="Helvetica,sans-Serif" font-size="10.00">Roots</text>
</a>
</g>
</g>
<!-- Node10&#45;&gt;Node12 -->
<g id="edge11" class="edge">
<title>Node10&#45;&gt;Node12</title>
<path fill="none" stroke="midnightblue" d="M833.39,-103C843.66,-103 853.95,-103 863.86,-103"/>
<polygon fill="midnightblue" stroke="midnightblue" points="833.15,-99.5 823.15,-103 833.15,-106.5 833.15,-99.5"/>
</g>
<!-- Node13 -->
<g id="node13" class="node">
<title>Node13</title>
<g id="a_node13"><a xlink:href="classpython_1_1spatial_1_1FRonUniformRoots.html" target="_top" xlink:title="The ODE system given by the DG method using a Lagrange expansion on uniform roots.">
<polygon fill="white" stroke="black" points="862.5,-39 862.5,-69 1016.5,-69 1016.5,-39 862.5,-39"/>
<text text-anchor="start" x="870.5" y="-57" font-family="Helvetica,sans-Serif" font-size="10.00">python.spatial.FRonUniform</text>
<text text-anchor="middle" x="939.5" y="-46" font-family="Helvetica,sans-Serif" font-size="10.00">Roots</text>
</a>
</g>
</g>
<!-- Node10&#45;&gt;Node13 -->
<g id="edge12" class="edge">
<title>Node10&#45;&gt;Node13</title>
<path fill="none" stroke="midnightblue" d="M782.64,-91.07C810.54,-84.44 845.53,-76.11 875.28,-69.04"/>
<polygon fill="midnightblue" stroke="midnightblue" points="781.63,-87.72 772.71,-93.44 783.25,-94.53 781.63,-87.72"/>
</g>
<!-- Node14 -->
<g id="node14" class="node">
<title>Node14</title>
<g id="a_node14"><a xlink:href="classpython_1_1spatial_1_1LegendreFR.html" target="_top" xlink:title="The ODE system given by the FR method using a Legendre expansion.">
<polygon fill="white" stroke="black" points="866,-0.5 866,-19.5 1013,-19.5 1013,-0.5 866,-0.5"/>
<text text-anchor="middle" x="939.5" y="-7.5" font-family="Helvetica,sans-Serif" font-size="10.00">python.spatial.LegendreFR</text>
</a>
</g>
</g>
<!-- Node10&#45;&gt;Node14 -->
<g id="edge13" class="edge">
<title>Node10&#45;&gt;Node14</title>
<path fill="none" stroke="midnightblue" d="M754.35,-87.51C778.79,-70.84 820.06,-44.64 859,-29 868.35,-25.24 878.63,-22.11 888.6,-19.54"/>
<polygon fill="midnightblue" stroke="midnightblue" points="752.09,-84.82 745.85,-93.38 756.07,-90.58 752.09,-84.82"/>
</g>
</g>
</svg>
