<?xml version="1.0" encoding="UTF-8" standalone="no"?>
<!DOCTYPE svg PUBLIC "-//W3C//DTD SVG 1.1//EN"
 "http://www.w3.org/Graphics/SVG/1.1/DTD/svg11.dtd">
<!-- Generated by graphviz version 2.43.0 (0)
 -->
<!-- Title: mini::riemann::euler::Primitives&lt; ScalarType, kDimensions &gt; Pages: 1 -->
<svg width="147pt" height="195pt"
 viewBox="0.00 0.00 147.00 195.00" xmlns="http://www.w3.org/2000/svg" xmlns:xlink="http://www.w3.org/1999/xlink">
<g id="graph0" class="graph" transform="scale(1 1) rotate(0) translate(4 191)">
<title>mini::riemann::euler::Primitives&lt; ScalarType, kDimensions &gt;</title>
<polygon fill="white" stroke="transparent" points="-4,4 -4,-191 143,-191 143,4 -4,4"/>
<!-- Node1 -->
<g id="node1" class="node">
<title>Node1</title>
<g id="a_node1"><a xlink:title=" ">
<polygon fill="#bfbfbf" stroke="black" points="0,-0.5 0,-41.5 139,-41.5 139,-0.5 0,-0.5"/>
<text text-anchor="start" x="8" y="-29.5" font-family="Helvetica,sans-Serif" font-size="10.00">mini::riemann::euler</text>
<text text-anchor="start" x="8" y="-18.5" font-family="Helvetica,sans-Serif" font-size="10.00">::Primitives&lt; ScalarType,</text>
<text text-anchor="middle" x="69.5" y="-7.5" font-family="Helvetica,sans-Serif" font-size="10.00"> kDimensions &gt;</text>
</a>
</g>
</g>
<!-- Node2 -->
<g id="node2" class="node">
<title>Node2</title>
<g id="a_node2"><a xlink:href="classmini_1_1riemann_1_1euler_1_1Tuple.html" target="_top" xlink:title=" ">
<polygon fill="white" stroke="black" points="11.5,-78.5 11.5,-119.5 127.5,-119.5 127.5,-78.5 11.5,-78.5"/>
<text text-anchor="start" x="19.5" y="-107.5" font-family="Helvetica,sans-Serif" font-size="10.00">mini::riemann::euler</text>
<text text-anchor="start" x="19.5" y="-96.5" font-family="Helvetica,sans-Serif" font-size="10.00">::Tuple&lt; ScalarType,</text>
<text text-anchor="middle" x="69.5" y="-85.5" font-family="Helvetica,sans-Serif" font-size="10.00"> kDimensions &gt;</text>
</a>
</g>
</g>
<!-- Node2&#45;&gt;Node1 -->
<g id="edge1" class="edge">
<title>Node2&#45;&gt;Node1</title>
<path fill="none" stroke="midnightblue" d="M69.5,-68.3C69.5,-59.3 69.5,-49.65 69.5,-41.51"/>
<polygon fill="midnightblue" stroke="midnightblue" points="66,-68.43 69.5,-78.43 73,-68.43 66,-68.43"/>
</g>
<!-- Node3 -->
<g id="node3" class="node">
<title>Node3</title>
<g id="a_node3"><a xlink:title=" ">
<polygon fill="white" stroke="#bfbfbf" points="12.5,-156.5 12.5,-186.5 126.5,-186.5 126.5,-156.5 12.5,-156.5"/>
<text text-anchor="start" x="20.5" y="-174.5" font-family="Helvetica,sans-Serif" font-size="10.00">Vector&lt; ScalarType,</text>
<text text-anchor="middle" x="69.5" y="-163.5" font-family="Helvetica,sans-Serif" font-size="10.00"> kDimensions+2 &gt;</text>
</a>
</g>
</g>
<!-- Node3&#45;&gt;Node2 -->
<g id="edge2" class="edge">
<title>Node3&#45;&gt;Node2</title>
<path fill="none" stroke="midnightblue" d="M69.5,-145.98C69.5,-137.35 69.5,-127.76 69.5,-119.59"/>
<polygon fill="midnightblue" stroke="midnightblue" points="66,-146.23 69.5,-156.23 73,-146.23 66,-146.23"/>
</g>
</g>
</svg>
