<?xml version="1.0" encoding="UTF-8" standalone="no"?>
<!DOCTYPE svg PUBLIC "-//W3C//DTD SVG 1.1//EN"
 "http://www.w3.org/Graphics/SVG/1.1/DTD/svg11.dtd">
<!-- Generated by graphviz version 2.43.0 (0)
 -->
<!-- Title: python.concept.Equation Pages: 1 -->
<svg width="876pt" height="160pt"
 viewBox="0.00 0.00 876.00 159.50" xmlns="http://www.w3.org/2000/svg" xmlns:xlink="http://www.w3.org/1999/xlink">
<g id="graph0" class="graph" transform="scale(1 1) rotate(0) translate(4 155.5)">
<title>python.concept.Equation</title>
<polygon fill="white" stroke="transparent" points="-4,4 -4,-155.5 872,-155.5 872,4 -4,4"/>
<!-- Node1 -->
<g id="node1" class="node">
<title>Node1</title>
<g id="a_node1"><a xlink:title="A PDE in the form of .">
<polygon fill="#bfbfbf" stroke="black" points="93,-72 93,-91 230,-91 230,-72 93,-72"/>
<text text-anchor="middle" x="161.5" y="-79" font-family="Helvetica,sans-Serif" font-size="10.00">python.concept.Equation</text>
</a>
</g>
</g>
<!-- Node3 -->
<g id="node3" class="node">
<title>Node3</title>
<g id="a_node3"><a xlink:href="classpython_1_1concept_1_1EquationSystem.html" target="_top" xlink:title=" ">
<polygon fill="white" stroke="black" points="266,-94 266,-113 440,-113 440,-94 266,-94"/>
<text text-anchor="middle" x="353" y="-101" font-family="Helvetica,sans-Serif" font-size="10.00">python.concept.EquationSystem</text>
</a>
</g>
</g>
<!-- Node1&#45;&gt;Node3 -->
<g id="edge2" class="edge">
<title>Node1&#45;&gt;Node3</title>
<path fill="none" stroke="midnightblue" d="M240.27,-90.53C250.12,-91.67 260.23,-92.85 270.15,-94"/>
<polygon fill="midnightblue" stroke="midnightblue" points="240.45,-87.03 230.11,-89.35 239.64,-93.98 240.45,-87.03"/>
</g>
<!-- Node6 -->
<g id="node6" class="node">
<title>Node6</title>
<g id="a_node6"><a xlink:href="classpython_1_1concept_1_1ScalarEquation.html" target="_top" xlink:title=" ">
<polygon fill="white" stroke="black" points="269.5,-50 269.5,-69 436.5,-69 436.5,-50 269.5,-50"/>
<text text-anchor="middle" x="353" y="-57" font-family="Helvetica,sans-Serif" font-size="10.00">python.concept.ScalarEquation</text>
</a>
</g>
</g>
<!-- Node1&#45;&gt;Node6 -->
<g id="edge5" class="edge">
<title>Node1&#45;&gt;Node6</title>
<path fill="none" stroke="midnightblue" d="M240.27,-72.47C250.12,-71.33 260.23,-70.15 270.15,-69"/>
<polygon fill="midnightblue" stroke="midnightblue" points="239.64,-69.02 230.11,-73.65 240.45,-75.97 239.64,-69.02"/>
</g>
<!-- Node2 -->
<g id="node2" class="node">
<title>Node2</title>
<g id="a_node2"><a xlink:title=" ">
<polygon fill="white" stroke="#bfbfbf" points="0,-72 0,-91 57,-91 57,-72 0,-72"/>
<text text-anchor="middle" x="28.5" y="-79" font-family="Helvetica,sans-Serif" font-size="10.00">abc.ABC</text>
</a>
</g>
</g>
<!-- Node2&#45;&gt;Node1 -->
<g id="edge1" class="edge">
<title>Node2&#45;&gt;Node1</title>
<path fill="none" stroke="midnightblue" d="M67.39,-81.5C75.41,-81.5 84.11,-81.5 92.87,-81.5"/>
<polygon fill="midnightblue" stroke="midnightblue" points="67.28,-78 57.28,-81.5 67.28,-85 67.28,-78"/>
</g>
<!-- Node4 -->
<g id="node4" class="node">
<title>Node4</title>
<g id="a_node4"><a xlink:href="classpython_1_1equation_1_1Coupled.html" target="_top" xlink:title="A system of two linearly coupled scalar equations.">
<polygon fill="white" stroke="black" points="495.5,-132 495.5,-151 634.5,-151 634.5,-132 495.5,-132"/>
<text text-anchor="middle" x="565" y="-139" font-family="Helvetica,sans-Serif" font-size="10.00">python.equation.Coupled</text>
</a>
</g>
</g>
<!-- Node3&#45;&gt;Node4 -->
<g id="edge3" class="edge">
<title>Node3&#45;&gt;Node4</title>
<path fill="none" stroke="midnightblue" d="M416.71,-114.85C446.84,-120.3 482.55,-126.76 511.26,-131.96"/>
<polygon fill="midnightblue" stroke="midnightblue" points="417.18,-111.38 406.72,-113.04 415.94,-118.26 417.18,-111.38"/>
</g>
<!-- Node5 -->
<g id="node5" class="node">
<title>Node5</title>
<g id="a_node5"><a xlink:href="classpython_1_1equation_1_1Euler.html" target="_top" xlink:title=" ">
<polygon fill="white" stroke="black" points="503,-94 503,-113 627,-113 627,-94 503,-94"/>
<text text-anchor="middle" x="565" y="-101" font-family="Helvetica,sans-Serif" font-size="10.00">python.equation.Euler</text>
</a>
</g>
</g>
<!-- Node3&#45;&gt;Node5 -->
<g id="edge4" class="edge">
<title>Node3&#45;&gt;Node5</title>
<path fill="none" stroke="midnightblue" d="M450.46,-103.5C468.28,-103.5 486.43,-103.5 502.84,-103.5"/>
<polygon fill="midnightblue" stroke="midnightblue" points="450.02,-100 440.02,-103.5 450.02,-107 450.02,-100"/>
</g>
<!-- Node7 -->
<g id="node7" class="node">
<title>Node7</title>
<g id="a_node7"><a xlink:href="classpython_1_1equation_1_1InviscidBurgers.html" target="_top" xlink:title=" ">
<polygon fill="white" stroke="black" points="496.5,-44.5 496.5,-74.5 633.5,-74.5 633.5,-44.5 496.5,-44.5"/>
<text text-anchor="start" x="504.5" y="-62.5" font-family="Helvetica,sans-Serif" font-size="10.00">python.equation.Inviscid</text>
<text text-anchor="middle" x="565" y="-51.5" font-family="Helvetica,sans-Serif" font-size="10.00">Burgers</text>
</a>
</g>
</g>
<!-- Node6&#45;&gt;Node7 -->
<g id="edge6" class="edge">
<title>Node6&#45;&gt;Node7</title>
<path fill="none" stroke="midnightblue" d="M446.96,-59.5C463.55,-59.5 480.54,-59.5 496.26,-59.5"/>
<polygon fill="midnightblue" stroke="midnightblue" points="446.7,-56 436.7,-59.5 446.7,-63 446.7,-56"/>
</g>
<!-- Node9 -->
<g id="node9" class="node">
<title>Node9</title>
<g id="a_node9"><a xlink:href="classpython_1_1equation_1_1LinearAdvection.html" target="_top" xlink:title=" ">
<polygon fill="white" stroke="black" points="476,-6 476,-25 654,-25 654,-6 476,-6"/>
<text text-anchor="middle" x="565" y="-13" font-family="Helvetica,sans-Serif" font-size="10.00">python.equation.LinearAdvection</text>
</a>
</g>
</g>
<!-- Node6&#45;&gt;Node9 -->
<g id="edge8" class="edge">
<title>Node6&#45;&gt;Node9</title>
<path fill="none" stroke="midnightblue" d="M409.36,-47.9C443.4,-40.77 486.48,-31.74 518.52,-25.03"/>
<polygon fill="midnightblue" stroke="midnightblue" points="408.64,-44.48 399.57,-49.95 410.07,-51.33 408.64,-44.48"/>
</g>
<!-- Node8 -->
<g id="node8" class="node">
<title>Node8</title>
<g id="a_node8"><a xlink:href="classpython_1_1equation_1_1Burgers.html" target="_top" xlink:title=" ">
<polygon fill="white" stroke="black" points="710.5,-50 710.5,-69 847.5,-69 847.5,-50 710.5,-50"/>
<text text-anchor="middle" x="779" y="-57" font-family="Helvetica,sans-Serif" font-size="10.00">python.equation.Burgers</text>
</a>
</g>
</g>
<!-- Node7&#45;&gt;Node8 -->
<g id="edge7" class="edge">
<title>Node7&#45;&gt;Node8</title>
<path fill="none" stroke="midnightblue" d="M643.86,-59.5C665.64,-59.5 689.12,-59.5 710.25,-59.5"/>
<polygon fill="midnightblue" stroke="midnightblue" points="643.66,-56 633.66,-59.5 643.66,-63 643.66,-56"/>
</g>
<!-- Node10 -->
<g id="node10" class="node">
<title>Node10</title>
<g id="a_node10"><a xlink:href="classpython_1_1equation_1_1LinearAdvectionDiffusion.html" target="_top" xlink:title=" ">
<polygon fill="white" stroke="black" points="690,-0.5 690,-30.5 868,-30.5 868,-0.5 690,-0.5"/>
<text text-anchor="start" x="698" y="-18.5" font-family="Helvetica,sans-Serif" font-size="10.00">python.equation.LinearAdvection</text>
<text text-anchor="middle" x="779" y="-7.5" font-family="Helvetica,sans-Serif" font-size="10.00">Diffusion</text>
</a>
</g>
</g>
<!-- Node9&#45;&gt;Node10 -->
<g id="edge9" class="edge">
<title>Node9&#45;&gt;Node10</title>
<path fill="none" stroke="midnightblue" d="M664.11,-15.5C672.7,-15.5 681.36,-15.5 689.87,-15.5"/>
<polygon fill="midnightblue" stroke="midnightblue" points="664.07,-12 654.07,-15.5 664.07,-19 664.07,-12"/>
</g>
</g>
</svg>
