<?xml version="1.0" encoding="UTF-8" standalone="no"?>
<!DOCTYPE svg PUBLIC "-//W3C//DTD SVG 1.1//EN"
 "http://www.w3.org/Graphics/SVG/1.1/DTD/svg11.dtd">
<!-- Generated by graphviz version 2.43.0 (0)
 -->
<!-- Title: python.detector.SmoothnessBased Pages: 1 -->
<svg width="648pt" height="180pt"
 viewBox="0.00 0.00 648.00 180.00" xmlns="http://www.w3.org/2000/svg" xmlns:xlink="http://www.w3.org/1999/xlink">
<g id="graph0" class="graph" transform="scale(1 1) rotate(0) translate(4 176)">
<title>python.detector.SmoothnessBased</title>
<polygon fill="white" stroke="transparent" points="-4,4 -4,-176 644,-176 644,4 -4,4"/>
<!-- Node1 -->
<g id="node1" class="node">
<title>Node1</title>
<g id="a_node1"><a xlink:title=" ">
<polygon fill="#bfbfbf" stroke="black" points="266,-71 266,-101 422,-101 422,-71 266,-71"/>
<text text-anchor="start" x="274" y="-89" font-family="Helvetica,sans-Serif" font-size="10.00">python.detector.Smoothness</text>
<text text-anchor="middle" x="344" y="-78" font-family="Helvetica,sans-Serif" font-size="10.00">Based</text>
</a>
</g>
</g>
<!-- Node4 -->
<g id="node4" class="node">
<title>Node4</title>
<g id="a_node4"><a xlink:href="classpython_1_1detector_1_1Kloeckner2011.html" target="_top" xlink:title="A jump detector based on decay of modal coefficients.">
<polygon fill="white" stroke="black" points="464.5,-152.5 464.5,-171.5 633.5,-171.5 633.5,-152.5 464.5,-152.5"/>
<text text-anchor="middle" x="549" y="-159.5" font-family="Helvetica,sans-Serif" font-size="10.00">python.detector.Kloeckner2011</text>
</a>
</g>
</g>
<!-- Node1&#45;&gt;Node4 -->
<g id="edge3" class="edge">
<title>Node1&#45;&gt;Node4</title>
<path fill="none" stroke="midnightblue" d="M379.09,-106.13C401,-118.31 430.43,-133.32 458,-143 468.7,-146.76 480.38,-149.89 491.69,-152.46"/>
<polygon fill="midnightblue" stroke="midnightblue" points="380.62,-102.97 370.19,-101.1 377.18,-109.07 380.62,-102.97"/>
</g>
<!-- Node5 -->
<g id="node5" class="node">
<title>Node5</title>
<g id="a_node5"><a xlink:href="classpython_1_1detector_1_1Krivodonova2004.html" target="_top" xlink:title="A jump detector for high&#45;order DG schemes.">
<polygon fill="white" stroke="black" points="458,-114.5 458,-133.5 640,-133.5 640,-114.5 458,-114.5"/>
<text text-anchor="middle" x="549" y="-121.5" font-family="Helvetica,sans-Serif" font-size="10.00">python.detector.Krivodonova2004</text>
</a>
</g>
</g>
<!-- Node1&#45;&gt;Node5 -->
<g id="edge4" class="edge">
<title>Node1&#45;&gt;Node5</title>
<path fill="none" stroke="midnightblue" d="M432.14,-102.31C454.32,-106.46 477.43,-110.79 497.12,-114.48"/>
<polygon fill="midnightblue" stroke="midnightblue" points="432.51,-98.82 422.04,-100.42 431.22,-105.7 432.51,-98.82"/>
</g>
<!-- Node6 -->
<g id="node6" class="node">
<title>Node6</title>
<g id="a_node6"><a xlink:href="classpython_1_1detector_1_1LiWanAi2011.html" target="_top" xlink:title="A jump detector for high&#45;order finite volume schemes.">
<polygon fill="white" stroke="black" points="469.5,-76.5 469.5,-95.5 628.5,-95.5 628.5,-76.5 469.5,-76.5"/>
<text text-anchor="middle" x="549" y="-83.5" font-family="Helvetica,sans-Serif" font-size="10.00">python.detector.LiWanAi2011</text>
</a>
</g>
</g>
<!-- Node1&#45;&gt;Node6 -->
<g id="edge5" class="edge">
<title>Node1&#45;&gt;Node6</title>
<path fill="none" stroke="midnightblue" d="M432.29,-86C444.6,-86 457.2,-86 469.33,-86"/>
<polygon fill="midnightblue" stroke="midnightblue" points="432.04,-82.5 422.04,-86 432.04,-89.5 432.04,-82.5"/>
</g>
<!-- Node7 -->
<g id="node7" class="node">
<title>Node7</title>
<g id="a_node7"><a xlink:href="classpython_1_1detector_1_1Persson2006.html" target="_top" xlink:title="A jump detector based on decay of modal coefficients.">
<polygon fill="white" stroke="black" points="470,-38.5 470,-57.5 628,-57.5 628,-38.5 470,-38.5"/>
<text text-anchor="middle" x="549" y="-45.5" font-family="Helvetica,sans-Serif" font-size="10.00">python.detector.Persson2006</text>
</a>
</g>
</g>
<!-- Node1&#45;&gt;Node7 -->
<g id="edge6" class="edge">
<title>Node1&#45;&gt;Node7</title>
<path fill="none" stroke="midnightblue" d="M432.14,-69.69C454.32,-65.54 477.43,-61.21 497.12,-57.52"/>
<polygon fill="midnightblue" stroke="midnightblue" points="431.22,-66.3 422.04,-71.58 432.51,-73.18 431.22,-66.3"/>
</g>
<!-- Node8 -->
<g id="node8" class="node">
<title>Node8</title>
<g id="a_node8"><a xlink:href="classpython_1_1detector_1_1ZhuJun2021.html" target="_top" xlink:title="A jump detector for high&#45;order DG schemes.">
<polygon fill="white" stroke="black" points="472,-0.5 472,-19.5 626,-19.5 626,-0.5 472,-0.5"/>
<text text-anchor="middle" x="549" y="-7.5" font-family="Helvetica,sans-Serif" font-size="10.00">python.detector.ZhuJun2021</text>
</a>
</g>
</g>
<!-- Node1&#45;&gt;Node8 -->
<g id="edge7" class="edge">
<title>Node1&#45;&gt;Node8</title>
<path fill="none" stroke="midnightblue" d="M379.09,-65.87C401,-53.69 430.43,-38.68 458,-29 468.7,-25.24 480.38,-22.11 491.69,-19.54"/>
<polygon fill="midnightblue" stroke="midnightblue" points="377.18,-62.93 370.19,-70.9 380.62,-69.03 377.18,-62.93"/>
</g>
<!-- Node2 -->
<g id="node2" class="node">
<title>Node2</title>
<g id="a_node2"><a xlink:href="classpython_1_1concept_1_1Detector.html" target="_top" xlink:title="An object that detects jumps on an element.">
<polygon fill="white" stroke="black" points="93,-76.5 93,-95.5 230,-95.5 230,-76.5 93,-76.5"/>
<text text-anchor="middle" x="161.5" y="-83.5" font-family="Helvetica,sans-Serif" font-size="10.00">python.concept.Detector</text>
</a>
</g>
</g>
<!-- Node2&#45;&gt;Node1 -->
<g id="edge1" class="edge">
<title>Node2&#45;&gt;Node1</title>
<path fill="none" stroke="midnightblue" d="M240.4,-86C248.82,-86 257.38,-86 265.79,-86"/>
<polygon fill="midnightblue" stroke="midnightblue" points="240.23,-82.5 230.23,-86 240.23,-89.5 240.23,-82.5"/>
</g>
<!-- Node3 -->
<g id="node3" class="node">
<title>Node3</title>
<g id="a_node3"><a xlink:title=" ">
<polygon fill="white" stroke="#bfbfbf" points="0,-76.5 0,-95.5 57,-95.5 57,-76.5 0,-76.5"/>
<text text-anchor="middle" x="28.5" y="-83.5" font-family="Helvetica,sans-Serif" font-size="10.00">abc.ABC</text>
</a>
</g>
</g>
<!-- Node3&#45;&gt;Node2 -->
<g id="edge2" class="edge">
<title>Node3&#45;&gt;Node2</title>
<path fill="none" stroke="midnightblue" d="M67.39,-86C75.41,-86 84.11,-86 92.87,-86"/>
<polygon fill="midnightblue" stroke="midnightblue" points="67.28,-82.5 57.28,-86 67.28,-89.5 67.28,-82.5"/>
</g>
</g>
</svg>
