<?xml version="1.0" encoding="UTF-8" standalone="no"?>
<!DOCTYPE svg PUBLIC "-//W3C//DTD SVG 1.1//EN"
 "http://www.w3.org/Graphics/SVG/1.1/DTD/svg11.dtd">
<!-- Generated by graphviz version 2.43.0 (0)
 -->
<!-- Title: python.concept.Integrator Pages: 1 -->
<svg width="376pt" height="140pt"
 viewBox="0.00 0.00 375.50 140.00" xmlns="http://www.w3.org/2000/svg" xmlns:xlink="http://www.w3.org/1999/xlink">
<g id="graph0" class="graph" transform="scale(1 1) rotate(0) translate(4 136)">
<title>python.concept.Integrator</title>
<polygon fill="white" stroke="transparent" points="-4,4 -4,-136 371.5,-136 371.5,4 -4,4"/>
<!-- Node1 -->
<g id="node1" class="node">
<title>Node1</title>
<g id="a_node1"><a xlink:title="A cell&#45;like object that performs integrations on it.">
<polygon fill="#bfbfbf" stroke="black" points="114,-56.5 114,-75.5 257,-75.5 257,-56.5 114,-56.5"/>
<text text-anchor="middle" x="185.5" y="-63.5" font-family="Helvetica,sans-Serif" font-size="10.00">python.concept.Integrator</text>
</a>
</g>
</g>
<!-- Node3 -->
<g id="node3" class="node">
<title>Node3</title>
<g id="a_node3"><a xlink:href="classpython_1_1integrator_1_1GaussLegendre.html" target="_top" xlink:title=" ">
<polygon fill="white" stroke="black" points="0,-0.5 0,-19.5 179,-19.5 179,-0.5 0,-0.5"/>
<text text-anchor="middle" x="89.5" y="-7.5" font-family="Helvetica,sans-Serif" font-size="10.00">python.integrator.GaussLegendre</text>
</a>
</g>
</g>
<!-- Node1&#45;&gt;Node3 -->
<g id="edge2" class="edge">
<title>Node1&#45;&gt;Node3</title>
<path fill="none" stroke="midnightblue" d="M160.93,-51.18C143.26,-41.24 119.99,-28.15 104.89,-19.65"/>
<polygon fill="midnightblue" stroke="midnightblue" points="159.64,-54.47 170.08,-56.32 163.08,-48.37 159.64,-54.47"/>
</g>
<!-- Node4 -->
<g id="node4" class="node">
<title>Node4</title>
<g id="a_node4"><a xlink:href="classpython_1_1integrator_1_1GaussLobatto.html" target="_top" xlink:title=" ">
<polygon fill="white" stroke="black" points="197.5,-0.5 197.5,-19.5 367.5,-19.5 367.5,-0.5 197.5,-0.5"/>
<text text-anchor="middle" x="282.5" y="-7.5" font-family="Helvetica,sans-Serif" font-size="10.00">python.integrator.GaussLobatto</text>
</a>
</g>
</g>
<!-- Node1&#45;&gt;Node4 -->
<g id="edge3" class="edge">
<title>Node1&#45;&gt;Node4</title>
<path fill="none" stroke="midnightblue" d="M209.84,-51.45C227.74,-41.48 251.55,-28.23 266.95,-19.65"/>
<polygon fill="midnightblue" stroke="midnightblue" points="208.12,-48.4 201.08,-56.32 211.52,-54.52 208.12,-48.4"/>
</g>
<!-- Node2 -->
<g id="node2" class="node">
<title>Node2</title>
<g id="a_node2"><a xlink:title=" ">
<polygon fill="white" stroke="#bfbfbf" points="157,-112.5 157,-131.5 214,-131.5 214,-112.5 157,-112.5"/>
<text text-anchor="middle" x="185.5" y="-119.5" font-family="Helvetica,sans-Serif" font-size="10.00">abc.ABC</text>
</a>
</g>
</g>
<!-- Node2&#45;&gt;Node1 -->
<g id="edge1" class="edge">
<title>Node2&#45;&gt;Node1</title>
<path fill="none" stroke="midnightblue" d="M185.5,-101.8C185.5,-92.91 185.5,-82.78 185.5,-75.75"/>
<polygon fill="midnightblue" stroke="midnightblue" points="182,-102.08 185.5,-112.08 189,-102.08 182,-102.08"/>
</g>
</g>
</svg>
