<?xml version="1.0" encoding="UTF-8" standalone="no"?>
<!DOCTYPE svg PUBLIC "-//W3C//DTD SVG 1.1//EN"
 "http://www.w3.org/Graphics/SVG/1.1/DTD/svg11.dtd">
<!-- Generated by graphviz version 2.43.0 (0)
 -->
<!-- Title: mini::coordinate::Tetrahedron&lt; Scalar &gt; Pages: 1 -->
<svg width="712pt" height="88pt"
 viewBox="0.00 0.00 712.00 88.00" xmlns="http://www.w3.org/2000/svg" xmlns:xlink="http://www.w3.org/1999/xlink">
<g id="graph0" class="graph" transform="scale(1 1) rotate(0) translate(4 84)">
<title>mini::coordinate::Tetrahedron&lt; Scalar &gt;</title>
<polygon fill="white" stroke="transparent" points="-4,4 -4,-84 708,-84 708,4 -4,4"/>
<!-- Node1 -->
<g id="node1" class="node">
<title>Node1</title>
<g id="a_node1"><a xlink:title="Abstract coordinate map on tetrahedral elements.">
<polygon fill="#bfbfbf" stroke="black" points="336,-24.5 336,-54.5 496,-54.5 496,-24.5 336,-24.5"/>
<text text-anchor="start" x="344" y="-42.5" font-family="Helvetica,sans-Serif" font-size="10.00">mini::coordinate::Tetrahedron</text>
<text text-anchor="middle" x="416" y="-31.5" font-family="Helvetica,sans-Serif" font-size="10.00">&lt; Scalar &gt;</text>
</a>
</g>
</g>
<!-- Node4 -->
<g id="node4" class="node">
<title>Node4</title>
<g id="a_node4"><a xlink:href="classmini_1_1coordinate_1_1Tetrahedron10.html" target="_top" xlink:title="Coordinate map on 10&#45;node tetrahedral elements.">
<polygon fill="white" stroke="black" points="532,-49.5 532,-79.5 704,-79.5 704,-49.5 532,-49.5"/>
<text text-anchor="start" x="540" y="-67.5" font-family="Helvetica,sans-Serif" font-size="10.00">mini::coordinate::Tetrahedron10</text>
<text text-anchor="middle" x="618" y="-56.5" font-family="Helvetica,sans-Serif" font-size="10.00">&lt; Scalar &gt;</text>
</a>
</g>
</g>
<!-- Node1&#45;&gt;Node4 -->
<g id="edge3" class="edge">
<title>Node1&#45;&gt;Node4</title>
<path fill="none" stroke="midnightblue" d="M506.08,-50.63C514.68,-51.71 523.39,-52.8 531.95,-53.87"/>
<polygon fill="midnightblue" stroke="midnightblue" points="506.4,-47.15 496.05,-49.38 505.53,-54.09 506.4,-47.15"/>
</g>
<!-- Node5 -->
<g id="node5" class="node">
<title>Node5</title>
<g id="a_node5"><a xlink:href="classmini_1_1coordinate_1_1Tetrahedron4.html" target="_top" xlink:title="Coordinate map on 4&#45;node tetrahedral elements.">
<polygon fill="white" stroke="black" points="535,-0.5 535,-30.5 701,-30.5 701,-0.5 535,-0.5"/>
<text text-anchor="start" x="543" y="-18.5" font-family="Helvetica,sans-Serif" font-size="10.00">mini::coordinate::Tetrahedron4</text>
<text text-anchor="middle" x="618" y="-7.5" font-family="Helvetica,sans-Serif" font-size="10.00">&lt; Scalar &gt;</text>
</a>
</g>
</g>
<!-- Node1&#45;&gt;Node5 -->
<g id="edge4" class="edge">
<title>Node1&#45;&gt;Node5</title>
<path fill="none" stroke="midnightblue" d="M506.01,-28.82C515.63,-27.66 525.38,-26.49 534.92,-25.35"/>
<polygon fill="midnightblue" stroke="midnightblue" points="505.56,-25.35 496.05,-30.01 506.39,-32.3 505.56,-25.35"/>
</g>
<!-- Node2 -->
<g id="node2" class="node">
<title>Node2</title>
<g id="a_node2"><a xlink:href="classmini_1_1coordinate_1_1Cell.html" target="_top" xlink:title="Abstract coordinate map on volume elements.">
<polygon fill="white" stroke="black" points="179,-24.5 179,-54.5 300,-54.5 300,-24.5 179,-24.5"/>
<text text-anchor="start" x="187" y="-42.5" font-family="Helvetica,sans-Serif" font-size="10.00">mini::coordinate::Cell</text>
<text text-anchor="middle" x="239.5" y="-31.5" font-family="Helvetica,sans-Serif" font-size="10.00">&lt; Scalar &gt;</text>
</a>
</g>
</g>
<!-- Node2&#45;&gt;Node1 -->
<g id="edge1" class="edge">
<title>Node2&#45;&gt;Node1</title>
<path fill="none" stroke="midnightblue" d="M310.24,-39.5C318.7,-39.5 327.38,-39.5 335.95,-39.5"/>
<polygon fill="midnightblue" stroke="midnightblue" points="310.06,-36 300.06,-39.5 310.06,-43 310.06,-36"/>
</g>
<!-- Node3 -->
<g id="node3" class="node">
<title>Node3</title>
<g id="a_node3"><a xlink:href="classmini_1_1coordinate_1_1Element.html" target="_top" xlink:title=" ">
<polygon fill="white" stroke="black" points="0,-24.5 0,-54.5 143,-54.5 143,-24.5 0,-24.5"/>
<text text-anchor="start" x="8" y="-42.5" font-family="Helvetica,sans-Serif" font-size="10.00">mini::coordinate::Element</text>
<text text-anchor="middle" x="71.5" y="-31.5" font-family="Helvetica,sans-Serif" font-size="10.00">&lt; Scalar, 3, 3 &gt;</text>
</a>
</g>
</g>
<!-- Node3&#45;&gt;Node2 -->
<g id="edge2" class="edge">
<title>Node3&#45;&gt;Node2</title>
<path fill="none" stroke="midnightblue" d="M153.4,-39.5C161.97,-39.5 170.56,-39.5 178.82,-39.5"/>
<polygon fill="midnightblue" stroke="midnightblue" points="153.38,-36 143.38,-39.5 153.38,-43 153.38,-36"/>
</g>
</g>
</svg>
