<?xml version="1.0" encoding="UTF-8" standalone="no"?>
<!DOCTYPE svg PUBLIC "-//W3C//DTD SVG 1.1//EN"
 "http://www.w3.org/Graphics/SVG/1.1/DTD/svg11.dtd">
<!-- Generated by graphviz version 2.43.0 (0)
 -->
<!-- Title: python.riemann.Solver Pages: 1 -->
<svg width="177pt" height="140pt"
 viewBox="0.00 0.00 177.00 140.00" xmlns="http://www.w3.org/2000/svg" xmlns:xlink="http://www.w3.org/1999/xlink">
<g id="graph0" class="graph" transform="scale(1 1) rotate(0) translate(4 136)">
<title>python.riemann.Solver</title>
<polygon fill="white" stroke="transparent" points="-4,4 -4,-136 173,-136 173,4 -4,4"/>
<!-- Node1 -->
<g id="node1" class="node">
<title>Node1</title>
<g id="a_node1"><a xlink:title=" ">
<polygon fill="#bfbfbf" stroke="black" points="20.5,-0.5 20.5,-19.5 148.5,-19.5 148.5,-0.5 20.5,-0.5"/>
<text text-anchor="middle" x="84.5" y="-7.5" font-family="Helvetica,sans-Serif" font-size="10.00">python.riemann.Solver</text>
</a>
</g>
</g>
<!-- Node2 -->
<g id="node2" class="node">
<title>Node2</title>
<g id="a_node2"><a xlink:href="classpython_1_1concept_1_1RiemannSolver.html" target="_top" xlink:title="An exact or approximate solver for the Riemann problem of an Equation.">
<polygon fill="white" stroke="black" points="0,-56.5 0,-75.5 169,-75.5 169,-56.5 0,-56.5"/>
<text text-anchor="middle" x="84.5" y="-63.5" font-family="Helvetica,sans-Serif" font-size="10.00">python.concept.RiemannSolver</text>
</a>
</g>
</g>
<!-- Node2&#45;&gt;Node1 -->
<g id="edge1" class="edge">
<title>Node2&#45;&gt;Node1</title>
<path fill="none" stroke="midnightblue" d="M84.5,-45.8C84.5,-36.91 84.5,-26.78 84.5,-19.75"/>
<polygon fill="midnightblue" stroke="midnightblue" points="81,-46.08 84.5,-56.08 88,-46.08 81,-46.08"/>
</g>
<!-- Node3 -->
<g id="node3" class="node">
<title>Node3</title>
<g id="a_node3"><a xlink:title=" ">
<polygon fill="white" stroke="#bfbfbf" points="56,-112.5 56,-131.5 113,-131.5 113,-112.5 56,-112.5"/>
<text text-anchor="middle" x="84.5" y="-119.5" font-family="Helvetica,sans-Serif" font-size="10.00">abc.ABC</text>
</a>
</g>
</g>
<!-- Node3&#45;&gt;Node2 -->
<g id="edge2" class="edge">
<title>Node3&#45;&gt;Node2</title>
<path fill="none" stroke="midnightblue" d="M84.5,-101.8C84.5,-92.91 84.5,-82.78 84.5,-75.75"/>
<polygon fill="midnightblue" stroke="midnightblue" points="81,-102.08 84.5,-112.08 88,-102.08 81,-102.08"/>
</g>
</g>
</svg>
