<?xml version="1.0" encoding="UTF-8" standalone="no"?>
<!DOCTYPE svg PUBLIC "-//W3C//DTD SVG 1.1//EN"
 "http://www.w3.org/Graphics/SVG/1.1/DTD/svg11.dtd">
<!-- Generated by graphviz version 2.43.0 (0)
 -->
<!-- Title: mini::coordinate::Face&lt; Scalar, kPhysDim &gt; Pages: 1 -->
<svg width="706pt" height="235pt"
 viewBox="0.00 0.00 706.00 235.00" xmlns="http://www.w3.org/2000/svg" xmlns:xlink="http://www.w3.org/1999/xlink">
<g id="graph0" class="graph" transform="scale(1 1) rotate(0) translate(4 231)">
<title>mini::coordinate::Face&lt; Scalar, kPhysDim &gt;</title>
<polygon fill="white" stroke="transparent" points="-4,4 -4,-231 702,-231 702,4 -4,4"/>
<!-- Node1 -->
<g id="node1" class="node">
<title>Node1</title>
<g id="a_node1"><a xlink:title="Abstract coordinate map on surface elements.">
<polygon fill="#bfbfbf" stroke="black" points="179,-73.5 179,-103.5 304,-103.5 304,-73.5 179,-73.5"/>
<text text-anchor="start" x="187" y="-91.5" font-family="Helvetica,sans-Serif" font-size="10.00">mini::coordinate::Face</text>
<text text-anchor="middle" x="241.5" y="-80.5" font-family="Helvetica,sans-Serif" font-size="10.00">&lt; Scalar, kPhysDim &gt;</text>
</a>
</g>
</g>
<!-- Node3 -->
<g id="node3" class="node">
<title>Node3</title>
<g id="a_node3"><a xlink:href="classmini_1_1coordinate_1_1Quadrangle.html" target="_top" xlink:title="Abstract coordinate map on quadrilateral elements.">
<polygon fill="white" stroke="black" points="340,-122.5 340,-152.5 498,-152.5 498,-122.5 340,-122.5"/>
<text text-anchor="start" x="348" y="-140.5" font-family="Helvetica,sans-Serif" font-size="10.00">mini::coordinate::Quadrangle</text>
<text text-anchor="middle" x="419" y="-129.5" font-family="Helvetica,sans-Serif" font-size="10.00">&lt; Scalar, kPhysDim &gt;</text>
</a>
</g>
</g>
<!-- Node1&#45;&gt;Node3 -->
<g id="edge2" class="edge">
<title>Node1&#45;&gt;Node3</title>
<path fill="none" stroke="midnightblue" d="M306.33,-106.32C325.28,-111.61 345.84,-117.35 364.09,-122.45"/>
<polygon fill="midnightblue" stroke="midnightblue" points="307.16,-102.92 296.59,-103.6 305.28,-109.66 307.16,-102.92"/>
</g>
<!-- Node7 -->
<g id="node7" class="node">
<title>Node7</title>
<g id="a_node7"><a xlink:href="classmini_1_1coordinate_1_1Triangle.html" target="_top" xlink:title="Abstract coordinate map on triangular elements.">
<polygon fill="white" stroke="black" points="349,-49.5 349,-79.5 489,-79.5 489,-49.5 349,-49.5"/>
<text text-anchor="start" x="357" y="-67.5" font-family="Helvetica,sans-Serif" font-size="10.00">mini::coordinate::Triangle</text>
<text text-anchor="middle" x="419" y="-56.5" font-family="Helvetica,sans-Serif" font-size="10.00">&lt; Scalar, kPhysDim &gt;</text>
</a>
</g>
</g>
<!-- Node1&#45;&gt;Node7 -->
<g id="edge6" class="edge">
<title>Node1&#45;&gt;Node7</title>
<path fill="none" stroke="midnightblue" d="M314.3,-78.68C325.74,-77.12 337.54,-75.5 348.91,-73.95"/>
<polygon fill="midnightblue" stroke="midnightblue" points="313.81,-75.22 304.37,-80.04 314.76,-82.15 313.81,-75.22"/>
</g>
<!-- Node2 -->
<g id="node2" class="node">
<title>Node2</title>
<g id="a_node2"><a xlink:href="classmini_1_1coordinate_1_1Element.html" target="_top" xlink:title=" ">
<polygon fill="white" stroke="black" points="0,-73.5 0,-103.5 143,-103.5 143,-73.5 0,-73.5"/>
<text text-anchor="start" x="8" y="-91.5" font-family="Helvetica,sans-Serif" font-size="10.00">mini::coordinate::Element</text>
<text text-anchor="middle" x="71.5" y="-80.5" font-family="Helvetica,sans-Serif" font-size="10.00">&lt; Scalar, kPhysDim, 2 &gt;</text>
</a>
</g>
</g>
<!-- Node2&#45;&gt;Node1 -->
<g id="edge1" class="edge">
<title>Node2&#45;&gt;Node1</title>
<path fill="none" stroke="midnightblue" d="M153.31,-88.5C161.91,-88.5 170.55,-88.5 178.88,-88.5"/>
<polygon fill="midnightblue" stroke="midnightblue" points="153.26,-85 143.26,-88.5 153.26,-92 153.26,-85"/>
</g>
<!-- Node4 -->
<g id="node4" class="node">
<title>Node4</title>
<g id="a_node4"><a xlink:href="classmini_1_1coordinate_1_1Quadrangle4.html" target="_top" xlink:title="Coordinate map on 4&#45;node quadrilateral elements.">
<polygon fill="white" stroke="black" points="534,-196.5 534,-226.5 698,-226.5 698,-196.5 534,-196.5"/>
<text text-anchor="start" x="542" y="-214.5" font-family="Helvetica,sans-Serif" font-size="10.00">mini::coordinate::Quadrangle4</text>
<text text-anchor="middle" x="616" y="-203.5" font-family="Helvetica,sans-Serif" font-size="10.00">&lt; Scalar, kPhysDim &gt;</text>
</a>
</g>
</g>
<!-- Node3&#45;&gt;Node4 -->
<g id="edge3" class="edge">
<title>Node3&#45;&gt;Node4</title>
<path fill="none" stroke="midnightblue" d="M460.68,-156.82C482.21,-166.67 509.25,-178.45 534,-187.5 542.54,-190.62 551.69,-193.64 560.66,-196.42"/>
<polygon fill="midnightblue" stroke="midnightblue" points="462.05,-153.6 451.51,-152.59 459.12,-159.96 462.05,-153.6"/>
</g>
<!-- Node5 -->
<g id="node5" class="node">
<title>Node5</title>
<g id="a_node5"><a xlink:href="classmini_1_1coordinate_1_1Quadrangle8.html" target="_top" xlink:title="Coordinate map on 8&#45;node quadrilateral elements.">
<polygon fill="white" stroke="black" points="534,-147.5 534,-177.5 698,-177.5 698,-147.5 534,-147.5"/>
<text text-anchor="start" x="542" y="-165.5" font-family="Helvetica,sans-Serif" font-size="10.00">mini::coordinate::Quadrangle8</text>
<text text-anchor="middle" x="616" y="-154.5" font-family="Helvetica,sans-Serif" font-size="10.00">&lt; Scalar, kPhysDim &gt;</text>
</a>
</g>
</g>
<!-- Node3&#45;&gt;Node5 -->
<g id="edge4" class="edge">
<title>Node3&#45;&gt;Node5</title>
<path fill="none" stroke="midnightblue" d="M508.19,-148.81C516.76,-149.91 525.43,-151.02 533.92,-152.11"/>
<polygon fill="midnightblue" stroke="midnightblue" points="508.55,-145.32 498.19,-147.52 507.66,-152.27 508.55,-145.32"/>
</g>
<!-- Node6 -->
<g id="node6" class="node">
<title>Node6</title>
<g id="a_node6"><a xlink:href="classmini_1_1coordinate_1_1Quadrangle9.html" target="_top" xlink:title="Coordinate map on 9&#45;node quadrilateral elements.">
<polygon fill="white" stroke="black" points="534,-98.5 534,-128.5 698,-128.5 698,-98.5 534,-98.5"/>
<text text-anchor="start" x="542" y="-116.5" font-family="Helvetica,sans-Serif" font-size="10.00">mini::coordinate::Quadrangle9</text>
<text text-anchor="middle" x="616" y="-105.5" font-family="Helvetica,sans-Serif" font-size="10.00">&lt; Scalar, kPhysDim &gt;</text>
</a>
</g>
</g>
<!-- Node3&#45;&gt;Node6 -->
<g id="edge5" class="edge">
<title>Node3&#45;&gt;Node6</title>
<path fill="none" stroke="midnightblue" d="M508.19,-126.65C516.76,-125.59 525.43,-124.52 533.92,-123.48"/>
<polygon fill="midnightblue" stroke="midnightblue" points="507.69,-123.18 498.19,-127.88 508.54,-130.13 507.69,-123.18"/>
</g>
<!-- Node8 -->
<g id="node8" class="node">
<title>Node8</title>
<g id="a_node8"><a xlink:href="classmini_1_1coordinate_1_1Triangle3.html" target="_top" xlink:title="Coordinate map on 3&#45;node triangular elements.">
<polygon fill="white" stroke="black" points="543,-49.5 543,-79.5 689,-79.5 689,-49.5 543,-49.5"/>
<text text-anchor="start" x="551" y="-67.5" font-family="Helvetica,sans-Serif" font-size="10.00">mini::coordinate::Triangle3</text>
<text text-anchor="middle" x="616" y="-56.5" font-family="Helvetica,sans-Serif" font-size="10.00">&lt; Scalar, kPhysDim &gt;</text>
</a>
</g>
</g>
<!-- Node7&#45;&gt;Node8 -->
<g id="edge7" class="edge">
<title>Node7&#45;&gt;Node8</title>
<path fill="none" stroke="midnightblue" d="M499.36,-64.5C513.72,-64.5 528.63,-64.5 542.77,-64.5"/>
<polygon fill="midnightblue" stroke="midnightblue" points="499.02,-61 489.02,-64.5 499.02,-68 499.02,-61"/>
</g>
<!-- Node9 -->
<g id="node9" class="node">
<title>Node9</title>
<g id="a_node9"><a xlink:href="classmini_1_1coordinate_1_1Triangle6.html" target="_top" xlink:title="Coordinate map on 6&#45;node triangular elements.">
<polygon fill="white" stroke="black" points="543,-0.5 543,-30.5 689,-30.5 689,-0.5 543,-0.5"/>
<text text-anchor="start" x="551" y="-18.5" font-family="Helvetica,sans-Serif" font-size="10.00">mini::coordinate::Triangle6</text>
<text text-anchor="middle" x="616" y="-7.5" font-family="Helvetica,sans-Serif" font-size="10.00">&lt; Scalar, kPhysDim &gt;</text>
</a>
</g>
</g>
<!-- Node7&#45;&gt;Node9 -->
<g id="edge8" class="edge">
<title>Node7&#45;&gt;Node9</title>
<path fill="none" stroke="midnightblue" d="M489.55,-47.02C511.04,-41.62 534.51,-35.72 555.28,-30.51"/>
<polygon fill="midnightblue" stroke="midnightblue" points="488.68,-43.63 479.83,-49.47 490.38,-50.42 488.68,-43.63"/>
</g>
</g>
</svg>
