<?xml version="1.0" encoding="UTF-8" standalone="no"?>
<!DOCTYPE svg PUBLIC "-//W3C//DTD SVG 1.1//EN"
 "http://www.w3.org/Graphics/SVG/1.1/DTD/svg11.dtd">
<!-- Generated by graphviz version 2.43.0 (0)
 -->
<!-- Title: mini::mesh::vtk::Element Pages: 1 -->
<svg width="354pt" height="382pt"
 viewBox="0.00 0.00 354.00 382.00" xmlns="http://www.w3.org/2000/svg" xmlns:xlink="http://www.w3.org/1999/xlink">
<g id="graph0" class="graph" transform="scale(1 1) rotate(0) translate(4 378)">
<title>mini::mesh::vtk::Element</title>
<polygon fill="white" stroke="transparent" points="-4,4 -4,-378 350,-378 350,4 -4,4"/>
<!-- Node1 -->
<g id="node1" class="node">
<title>Node1</title>
<g id="a_node1"><a xlink:title="Mimic VTK&#39;s cells.">
<polygon fill="#bfbfbf" stroke="black" points="0,-177 0,-196 140,-196 140,-177 0,-177"/>
<text text-anchor="middle" x="70" y="-184" font-family="Helvetica,sans-Serif" font-size="10.00">mini::mesh::vtk::Element</text>
</a>
</g>
</g>
<!-- Node2 -->
<g id="node2" class="node">
<title>Node2</title>
<g id="a_node2"><a xlink:href="classmini_1_1mesh_1_1vtk_1_1Hexahedron20.html" target="_top" xlink:title="Mimic VTK&#39;s vtkQuadraticHexahedron.">
<polygon fill="white" stroke="black" points="176,-343.5 176,-373.5 346,-373.5 346,-343.5 176,-343.5"/>
<text text-anchor="start" x="184" y="-361.5" font-family="Helvetica,sans-Serif" font-size="10.00">mini::mesh::vtk::Hexahedron20</text>
<text text-anchor="middle" x="261" y="-350.5" font-family="Helvetica,sans-Serif" font-size="10.00">&lt; Local &gt;</text>
</a>
</g>
</g>
<!-- Node1&#45;&gt;Node2 -->
<g id="edge1" class="edge">
<title>Node1&#45;&gt;Node2</title>
<path fill="none" stroke="midnightblue" d="M79.32,-205.6C94.1,-237.26 127.95,-300.48 176,-334.5 180.83,-337.92 186.13,-340.85 191.66,-343.37"/>
<polygon fill="midnightblue" stroke="midnightblue" points="82.36,-203.83 75.05,-196.16 75.98,-206.72 82.36,-203.83"/>
</g>
<!-- Node3 -->
<g id="node3" class="node">
<title>Node3</title>
<g id="a_node3"><a xlink:href="classmini_1_1mesh_1_1vtk_1_1Hexahedron27.html" target="_top" xlink:title="Mimic VTK&#39;s vtkTriQuadraticHexahedron.">
<polygon fill="white" stroke="black" points="176,-294.5 176,-324.5 346,-324.5 346,-294.5 176,-294.5"/>
<text text-anchor="start" x="184" y="-312.5" font-family="Helvetica,sans-Serif" font-size="10.00">mini::mesh::vtk::Hexahedron27</text>
<text text-anchor="middle" x="261" y="-301.5" font-family="Helvetica,sans-Serif" font-size="10.00">&lt; Local &gt;</text>
</a>
</g>
</g>
<!-- Node1&#45;&gt;Node3 -->
<g id="edge2" class="edge">
<title>Node1&#45;&gt;Node3</title>
<path fill="none" stroke="midnightblue" d="M85.06,-204.2C103.61,-226.38 138.32,-264.07 176,-285.5 181.93,-288.87 188.38,-291.8 194.96,-294.34"/>
<polygon fill="midnightblue" stroke="midnightblue" points="87.61,-201.79 78.57,-196.26 82.19,-206.22 87.61,-201.79"/>
</g>
<!-- Node4 -->
<g id="node4" class="node">
<title>Node4</title>
<g id="a_node4"><a xlink:href="classmini_1_1mesh_1_1vtk_1_1Hexahedron64.html" target="_top" xlink:title="Mimic VTK&#39;s vtkLagrangeHexahedron.">
<polygon fill="white" stroke="black" points="176,-245.5 176,-275.5 346,-275.5 346,-245.5 176,-245.5"/>
<text text-anchor="start" x="184" y="-263.5" font-family="Helvetica,sans-Serif" font-size="10.00">mini::mesh::vtk::Hexahedron64</text>
<text text-anchor="middle" x="261" y="-252.5" font-family="Helvetica,sans-Serif" font-size="10.00">&lt; Local &gt;</text>
</a>
</g>
</g>
<!-- Node1&#45;&gt;Node4 -->
<g id="edge3" class="edge">
<title>Node1&#45;&gt;Node4</title>
<path fill="none" stroke="midnightblue" d="M97.73,-200.75C118.64,-211.52 148.65,-226.16 176,-236.5 184.51,-239.72 193.65,-242.74 202.65,-245.49"/>
<polygon fill="midnightblue" stroke="midnightblue" points="99.3,-197.62 88.81,-196.11 96.07,-203.83 99.3,-197.62"/>
</g>
<!-- Node5 -->
<g id="node5" class="node">
<title>Node5</title>
<g id="a_node5"><a xlink:href="classmini_1_1mesh_1_1vtk_1_1Hexahedron8.html" target="_top" xlink:title="Mimic VTK&#39;s vtkHexahedron.">
<polygon fill="white" stroke="black" points="179,-196.5 179,-226.5 343,-226.5 343,-196.5 179,-196.5"/>
<text text-anchor="start" x="187" y="-214.5" font-family="Helvetica,sans-Serif" font-size="10.00">mini::mesh::vtk::Hexahedron8</text>
<text text-anchor="middle" x="261" y="-203.5" font-family="Helvetica,sans-Serif" font-size="10.00">&lt; Local &gt;</text>
</a>
</g>
</g>
<!-- Node1&#45;&gt;Node5 -->
<g id="edge4" class="edge">
<title>Node1&#45;&gt;Node5</title>
<path fill="none" stroke="midnightblue" d="M150.24,-196.98C159.74,-198.24 169.45,-199.52 178.97,-200.78"/>
<polygon fill="midnightblue" stroke="midnightblue" points="150.41,-193.47 140.04,-195.63 149.49,-200.41 150.41,-193.47"/>
</g>
<!-- Node6 -->
<g id="node6" class="node">
<title>Node6</title>
<g id="a_node6"><a xlink:href="classmini_1_1mesh_1_1vtk_1_1Tetrahedron10.html" target="_top" xlink:title="Mimic VTK&#39;s vtkQuadraticTetra.">
<polygon fill="white" stroke="black" points="176.5,-147.5 176.5,-177.5 345.5,-177.5 345.5,-147.5 176.5,-147.5"/>
<text text-anchor="start" x="184.5" y="-165.5" font-family="Helvetica,sans-Serif" font-size="10.00">mini::mesh::vtk::Tetrahedron10</text>
<text text-anchor="middle" x="261" y="-154.5" font-family="Helvetica,sans-Serif" font-size="10.00">&lt; Local &gt;</text>
</a>
</g>
</g>
<!-- Node1&#45;&gt;Node6 -->
<g id="edge5" class="edge">
<title>Node1&#45;&gt;Node6</title>
<path fill="none" stroke="midnightblue" d="M150.12,-176.45C158.79,-175.35 167.64,-174.23 176.37,-173.12"/>
<polygon fill="midnightblue" stroke="midnightblue" points="149.52,-173 140.04,-177.73 150.4,-179.95 149.52,-173"/>
</g>
<!-- Node7 -->
<g id="node7" class="node">
<title>Node7</title>
<g id="a_node7"><a xlink:href="classmini_1_1mesh_1_1vtk_1_1Tetrahedron4.html" target="_top" xlink:title="Mimic VTK&#39;s vtkTetra.">
<polygon fill="white" stroke="black" points="179.5,-98.5 179.5,-128.5 342.5,-128.5 342.5,-98.5 179.5,-98.5"/>
<text text-anchor="start" x="187.5" y="-116.5" font-family="Helvetica,sans-Serif" font-size="10.00">mini::mesh::vtk::Tetrahedron4</text>
<text text-anchor="middle" x="261" y="-105.5" font-family="Helvetica,sans-Serif" font-size="10.00">&lt; Local &gt;</text>
</a>
</g>
</g>
<!-- Node1&#45;&gt;Node7 -->
<g id="edge6" class="edge">
<title>Node1&#45;&gt;Node7</title>
<path fill="none" stroke="midnightblue" d="M99.25,-172.28C120.14,-162.09 149.43,-148.47 176,-138.5 185.4,-134.97 195.54,-131.6 205.41,-128.54"/>
<polygon fill="midnightblue" stroke="midnightblue" points="97.44,-169.27 90.01,-176.83 100.53,-175.55 97.44,-169.27"/>
</g>
<!-- Node8 -->
<g id="node8" class="node">
<title>Node8</title>
<g id="a_node8"><a xlink:href="classmini_1_1mesh_1_1vtk_1_1Wedge15.html" target="_top" xlink:title="Mimic VTK&#39;s vtkQuadraticWedge.">
<polygon fill="white" stroke="black" points="189,-49.5 189,-79.5 333,-79.5 333,-49.5 189,-49.5"/>
<text text-anchor="start" x="197" y="-67.5" font-family="Helvetica,sans-Serif" font-size="10.00">mini::mesh::vtk::Wedge15</text>
<text text-anchor="middle" x="261" y="-56.5" font-family="Helvetica,sans-Serif" font-size="10.00">&lt; Local &gt;</text>
</a>
</g>
</g>
<!-- Node1&#45;&gt;Node8 -->
<g id="edge7" class="edge">
<title>Node1&#45;&gt;Node8</title>
<path fill="none" stroke="midnightblue" d="M85.18,-169.23C103.84,-147.59 138.68,-110.75 176,-89.5 182.74,-85.66 190.13,-82.36 197.65,-79.53"/>
<polygon fill="midnightblue" stroke="midnightblue" points="82.41,-167.08 78.63,-176.98 87.76,-171.6 82.41,-167.08"/>
</g>
<!-- Node9 -->
<g id="node9" class="node">
<title>Node9</title>
<g id="a_node9"><a xlink:href="classmini_1_1mesh_1_1vtk_1_1Wedge6.html" target="_top" xlink:title="Mimic VTK&#39;s vtkWedge.">
<polygon fill="white" stroke="black" points="192,-0.5 192,-30.5 330,-30.5 330,-0.5 192,-0.5"/>
<text text-anchor="start" x="200" y="-18.5" font-family="Helvetica,sans-Serif" font-size="10.00">mini::mesh::vtk::Wedge6</text>
<text text-anchor="middle" x="261" y="-7.5" font-family="Helvetica,sans-Serif" font-size="10.00">&lt; Local &gt;</text>
</a>
</g>
</g>
<!-- Node1&#45;&gt;Node9 -->
<g id="edge8" class="edge">
<title>Node1&#45;&gt;Node9</title>
<path fill="none" stroke="midnightblue" d="M79.43,-167.71C94.37,-136.56 128.46,-74.32 176,-40.5 181.46,-36.62 187.52,-33.33 193.82,-30.55"/>
<polygon fill="midnightblue" stroke="midnightblue" points="76.16,-166.45 75.11,-177 82.5,-169.41 76.16,-166.45"/>
</g>
</g>
</svg>
