<?xml version="1.0" encoding="UTF-8" standalone="no"?>
<!DOCTYPE svg PUBLIC "-//W3C//DTD SVG 1.1//EN"
 "http://www.w3.org/Graphics/SVG/1.1/DTD/svg11.dtd">
<!-- Generated by graphviz version 2.43.0 (0)
 -->
<!-- Title: python.riemann.InviscidBurgers Pages: 1 -->
<svg width="180pt" height="196pt"
 viewBox="0.00 0.00 180.00 196.00" xmlns="http://www.w3.org/2000/svg" xmlns:xlink="http://www.w3.org/1999/xlink">
<g id="graph0" class="graph" transform="scale(1 1) rotate(0) translate(4 192)">
<title>python.riemann.InviscidBurgers</title>
<polygon fill="white" stroke="transparent" points="-4,4 -4,-192 176,-192 176,4 -4,4"/>
<!-- Node1 -->
<g id="node1" class="node">
<title>Node1</title>
<g id="a_node1"><a xlink:title=" ">
<polygon fill="#bfbfbf" stroke="black" points="0,-0.5 0,-19.5 172,-19.5 172,-0.5 0,-0.5"/>
<text text-anchor="middle" x="86" y="-7.5" font-family="Helvetica,sans-Serif" font-size="10.00">python.riemann.InviscidBurgers</text>
</a>
</g>
</g>
<!-- Node2 -->
<g id="node2" class="node">
<title>Node2</title>
<g id="a_node2"><a xlink:href="classpython_1_1riemann_1_1Solver.html" target="_top" xlink:title=" ">
<polygon fill="white" stroke="black" points="22,-56.5 22,-75.5 150,-75.5 150,-56.5 22,-56.5"/>
<text text-anchor="middle" x="86" y="-63.5" font-family="Helvetica,sans-Serif" font-size="10.00">python.riemann.Solver</text>
</a>
</g>
</g>
<!-- Node2&#45;&gt;Node1 -->
<g id="edge1" class="edge">
<title>Node2&#45;&gt;Node1</title>
<path fill="none" stroke="midnightblue" d="M86,-45.8C86,-36.91 86,-26.78 86,-19.75"/>
<polygon fill="midnightblue" stroke="midnightblue" points="82.5,-46.08 86,-56.08 89.5,-46.08 82.5,-46.08"/>
</g>
<!-- Node3 -->
<g id="node3" class="node">
<title>Node3</title>
<g id="a_node3"><a xlink:href="classpython_1_1concept_1_1RiemannSolver.html" target="_top" xlink:title="An exact or approximate solver for the Riemann problem of an Equation.">
<polygon fill="white" stroke="black" points="1.5,-112.5 1.5,-131.5 170.5,-131.5 170.5,-112.5 1.5,-112.5"/>
<text text-anchor="middle" x="86" y="-119.5" font-family="Helvetica,sans-Serif" font-size="10.00">python.concept.RiemannSolver</text>
</a>
</g>
</g>
<!-- Node3&#45;&gt;Node2 -->
<g id="edge2" class="edge">
<title>Node3&#45;&gt;Node2</title>
<path fill="none" stroke="midnightblue" d="M86,-101.8C86,-92.91 86,-82.78 86,-75.75"/>
<polygon fill="midnightblue" stroke="midnightblue" points="82.5,-102.08 86,-112.08 89.5,-102.08 82.5,-102.08"/>
</g>
<!-- Node4 -->
<g id="node4" class="node">
<title>Node4</title>
<g id="a_node4"><a xlink:title=" ">
<polygon fill="white" stroke="#bfbfbf" points="57.5,-168.5 57.5,-187.5 114.5,-187.5 114.5,-168.5 57.5,-168.5"/>
<text text-anchor="middle" x="86" y="-175.5" font-family="Helvetica,sans-Serif" font-size="10.00">abc.ABC</text>
</a>
</g>
</g>
<!-- Node4&#45;&gt;Node3 -->
<g id="edge3" class="edge">
<title>Node4&#45;&gt;Node3</title>
<path fill="none" stroke="midnightblue" d="M86,-157.8C86,-148.91 86,-138.78 86,-131.75"/>
<polygon fill="midnightblue" stroke="midnightblue" points="82.5,-158.08 86,-168.08 89.5,-158.08 82.5,-158.08"/>
</g>
</g>
</svg>
