<?xml version="1.0" encoding="UTF-8" standalone="no"?>
<!DOCTYPE svg PUBLIC "-//W3C//DTD SVG 1.1//EN"
 "http://www.w3.org/Graphics/SVG/1.1/DTD/svg11.dtd">
<!-- Generated by graphviz version 2.43.0 (0)
 -->
<!-- Title: python.element.DiscontinuousGalerkin Pages: 1 -->
<svg width="525pt" height="341pt"
 viewBox="0.00 0.00 525.00 341.00" xmlns="http://www.w3.org/2000/svg" xmlns:xlink="http://www.w3.org/1999/xlink">
<g id="graph0" class="graph" transform="scale(1 1) rotate(0) translate(4 337)">
<title>python.element.DiscontinuousGalerkin</title>
<polygon fill="white" stroke="transparent" points="-4,4 -4,-337 521,-337 521,4 -4,4"/>
<!-- Node1 -->
<g id="node1" class="node">
<title>Node1</title>
<g id="a_node1"><a xlink:title="Element for implement DG schemes.">
<polygon fill="#bfbfbf" stroke="black" points="267.5,-190.5 267.5,-220.5 433.5,-220.5 433.5,-190.5 267.5,-190.5"/>
<text text-anchor="start" x="275.5" y="-208.5" font-family="Helvetica,sans-Serif" font-size="10.00">python.element.Discontinuous</text>
<text text-anchor="middle" x="350.5" y="-197.5" font-family="Helvetica,sans-Serif" font-size="10.00">Galerkin</text>
</a>
</g>
</g>
<!-- Node4 -->
<g id="node4" class="node">
<title>Node4</title>
<g id="a_node4"><a xlink:href="classpython_1_1element_1_1LagrangeDG.html" target="_top" xlink:title="Element for implement the DG scheme using a Lagrange expansion.">
<polygon fill="white" stroke="black" points="185,-134.5 185,-153.5 342,-153.5 342,-134.5 185,-134.5"/>
<text text-anchor="middle" x="263.5" y="-141.5" font-family="Helvetica,sans-Serif" font-size="10.00">python.element.LagrangeDG</text>
</a>
</g>
</g>
<!-- Node1&#45;&gt;Node4 -->
<g id="edge3" class="edge">
<title>Node1&#45;&gt;Node4</title>
<path fill="none" stroke="midnightblue" d="M321.23,-184.48C305.91,-174 287.93,-161.71 276.16,-153.66"/>
<polygon fill="midnightblue" stroke="midnightblue" points="319.65,-187.64 329.88,-190.4 323.6,-181.87 319.65,-187.64"/>
</g>
<!-- Node9 -->
<g id="node9" class="node">
<title>Node9</title>
<g id="a_node9"><a xlink:href="classpython_1_1element_1_1LegendreDG.html" target="_top" xlink:title="Element for implement the DG scheme based on Legendre polynomials.">
<polygon fill="white" stroke="black" points="360,-134.5 360,-153.5 517,-153.5 517,-134.5 360,-134.5"/>
<text text-anchor="middle" x="438.5" y="-141.5" font-family="Helvetica,sans-Serif" font-size="10.00">python.element.LegendreDG</text>
</a>
</g>
</g>
<!-- Node1&#45;&gt;Node9 -->
<g id="edge8" class="edge">
<title>Node1&#45;&gt;Node9</title>
<path fill="none" stroke="midnightblue" d="M379.67,-184.78C395.27,-174.23 413.68,-161.78 425.7,-153.66"/>
<polygon fill="midnightblue" stroke="midnightblue" points="377.68,-181.9 371.35,-190.4 381.6,-187.7 377.68,-181.9"/>
</g>
<!-- Node2 -->
<g id="node2" class="node">
<title>Node2</title>
<g id="a_node2"><a xlink:href="classpython_1_1concept_1_1Element.html" target="_top" xlink:title="A cell&#45;like object that carries some expansion of the solution.">
<polygon fill="white" stroke="black" points="283,-257.5 283,-276.5 418,-276.5 418,-257.5 283,-257.5"/>
<text text-anchor="middle" x="350.5" y="-264.5" font-family="Helvetica,sans-Serif" font-size="10.00">python.concept.Element</text>
</a>
</g>
</g>
<!-- Node2&#45;&gt;Node1 -->
<g id="edge1" class="edge">
<title>Node2&#45;&gt;Node1</title>
<path fill="none" stroke="midnightblue" d="M350.5,-247.23C350.5,-238.59 350.5,-228.5 350.5,-220.52"/>
<polygon fill="midnightblue" stroke="midnightblue" points="347,-247.48 350.5,-257.48 354,-247.48 347,-247.48"/>
</g>
<!-- Node3 -->
<g id="node3" class="node">
<title>Node3</title>
<g id="a_node3"><a xlink:title=" ">
<polygon fill="white" stroke="#bfbfbf" points="322,-313.5 322,-332.5 379,-332.5 379,-313.5 322,-313.5"/>
<text text-anchor="middle" x="350.5" y="-320.5" font-family="Helvetica,sans-Serif" font-size="10.00">abc.ABC</text>
</a>
</g>
</g>
<!-- Node3&#45;&gt;Node2 -->
<g id="edge2" class="edge">
<title>Node3&#45;&gt;Node2</title>
<path fill="none" stroke="midnightblue" d="M350.5,-302.8C350.5,-293.91 350.5,-283.78 350.5,-276.75"/>
<polygon fill="midnightblue" stroke="midnightblue" points="347,-303.08 350.5,-313.08 354,-303.08 347,-303.08"/>
</g>
<!-- Node5 -->
<g id="node5" class="node">
<title>Node5</title>
<g id="a_node5"><a xlink:href="classpython_1_1element_1_1DGonGaussPoints.html" target="_top" xlink:title="Specialized LagrangeDG using Gauss points as solution points.">
<polygon fill="white" stroke="black" points="98.5,-67.5 98.5,-97.5 252.5,-97.5 252.5,-67.5 98.5,-67.5"/>
<text text-anchor="start" x="106.5" y="-85.5" font-family="Helvetica,sans-Serif" font-size="10.00">python.element.DGonGauss</text>
<text text-anchor="middle" x="175.5" y="-74.5" font-family="Helvetica,sans-Serif" font-size="10.00">Points</text>
</a>
</g>
</g>
<!-- Node4&#45;&gt;Node5 -->
<g id="edge4" class="edge">
<title>Node4&#45;&gt;Node5</title>
<path fill="none" stroke="midnightblue" d="M242.41,-128.74C228.42,-119.28 210.15,-106.93 196.24,-97.52"/>
<polygon fill="midnightblue" stroke="midnightblue" points="240.65,-131.77 250.89,-134.48 244.57,-125.97 240.65,-131.77"/>
</g>
<!-- Node8 -->
<g id="node8" class="node">
<title>Node8</title>
<g id="a_node8"><a xlink:href="classpython_1_1element_1_1DGonUniformRoots.html" target="_top" xlink:title="Specialized LagrangeDG using uniform (internal) roots as solution points.">
<polygon fill="white" stroke="black" points="270.5,-67.5 270.5,-97.5 434.5,-97.5 434.5,-67.5 270.5,-67.5"/>
<text text-anchor="start" x="278.5" y="-85.5" font-family="Helvetica,sans-Serif" font-size="10.00">python.element.DGonUniform</text>
<text text-anchor="middle" x="352.5" y="-74.5" font-family="Helvetica,sans-Serif" font-size="10.00">Roots</text>
</a>
</g>
</g>
<!-- Node4&#45;&gt;Node8 -->
<g id="edge7" class="edge">
<title>Node4&#45;&gt;Node8</title>
<path fill="none" stroke="midnightblue" d="M284.83,-128.74C298.98,-119.28 317.45,-106.93 331.52,-97.52"/>
<polygon fill="midnightblue" stroke="midnightblue" points="282.62,-126.01 276.25,-134.48 286.51,-131.83 282.62,-126.01"/>
</g>
<!-- Node6 -->
<g id="node6" class="node">
<title>Node6</title>
<g id="a_node6"><a xlink:href="classpython_1_1element_1_1DGonLegendreRoots.html" target="_top" xlink:title="Specialized DGonGaussPoints using Legendre roots as solution points.">
<polygon fill="white" stroke="black" points="0,-0.5 0,-30.5 169,-30.5 169,-0.5 0,-0.5"/>
<text text-anchor="start" x="8" y="-18.5" font-family="Helvetica,sans-Serif" font-size="10.00">python.element.DGonLegendre</text>
<text text-anchor="middle" x="84.5" y="-7.5" font-family="Helvetica,sans-Serif" font-size="10.00">Roots</text>
</a>
</g>
</g>
<!-- Node5&#45;&gt;Node6 -->
<g id="edge5" class="edge">
<title>Node5&#45;&gt;Node6</title>
<path fill="none" stroke="midnightblue" d="M147.43,-61.45C133.43,-51.45 116.84,-39.6 104.21,-30.58"/>
<polygon fill="midnightblue" stroke="midnightblue" points="145.58,-64.43 155.75,-67.4 149.65,-58.74 145.58,-64.43"/>
</g>
<!-- Node7 -->
<g id="node7" class="node">
<title>Node7</title>
<g id="a_node7"><a xlink:href="classpython_1_1element_1_1DGonLobattoRoots.html" target="_top" xlink:title="Specialized DGonGaussPoints using Lobatto roots as solution points.">
<polygon fill="white" stroke="black" points="187,-0.5 187,-30.5 348,-30.5 348,-0.5 187,-0.5"/>
<text text-anchor="start" x="195" y="-18.5" font-family="Helvetica,sans-Serif" font-size="10.00">python.element.DGonLobatto</text>
<text text-anchor="middle" x="267.5" y="-7.5" font-family="Helvetica,sans-Serif" font-size="10.00">Roots</text>
</a>
</g>
</g>
<!-- Node5&#45;&gt;Node7 -->
<g id="edge6" class="edge">
<title>Node5&#45;&gt;Node7</title>
<path fill="none" stroke="midnightblue" d="M203.88,-61.45C218.03,-51.45 234.81,-39.6 247.58,-30.58"/>
<polygon fill="midnightblue" stroke="midnightblue" points="201.61,-58.77 195.46,-67.4 205.65,-64.48 201.61,-58.77"/>
</g>
</g>
</svg>
