<?xml version="1.0" encoding="UTF-8" standalone="no"?>
<!DOCTYPE svg PUBLIC "-//W3C//DTD SVG 1.1//EN"
 "http://www.w3.org/Graphics/SVG/1.1/DTD/svg11.dtd">
<!-- Generated by graphviz version 2.43.0 (0)
 -->
<!-- Title: mini::aircraft::Rotor&lt; Scalar &gt; Pages: 1 -->
<svg width="137pt" height="150pt"
 viewBox="0.00 0.00 136.50 150.00" xmlns="http://www.w3.org/2000/svg" xmlns:xlink="http://www.w3.org/1999/xlink">
<g id="graph0" class="graph" transform="scale(1 1) rotate(0) translate(4 146)">
<title>mini::aircraft::Rotor&lt; Scalar &gt;</title>
<polygon fill="white" stroke="transparent" points="-4,4 -4,-146 132.5,-146 132.5,4 -4,4"/>
<!-- Node1 -->
<g id="node1" class="node">
<title>Node1</title>
<g id="a_node1"><a xlink:title=" ">
<polygon fill="#bfbfbf" stroke="black" points="0,-0.5 0,-30.5 111,-30.5 111,-0.5 0,-0.5"/>
<text text-anchor="start" x="8" y="-18.5" font-family="Helvetica,sans-Serif" font-size="10.00">mini::aircraft::Rotor</text>
<text text-anchor="middle" x="55.5" y="-7.5" font-family="Helvetica,sans-Serif" font-size="10.00">&lt; Scalar &gt;</text>
</a>
</g>
</g>
<!-- Node2 -->
<g id="node2" class="node">
<title>Node2</title>
<g id="a_node2"><a xlink:title=" ">
<polygon fill="white" stroke="#bfbfbf" points="32,-122.5 32,-141.5 79,-141.5 79,-122.5 32,-122.5"/>
<text text-anchor="middle" x="55.5" y="-129.5" font-family="Helvetica,sans-Serif" font-size="10.00">Scalar</text>
</a>
</g>
</g>
<!-- Node2&#45;&gt;Node1 -->
<g id="edge1" class="edge">
<title>Node2&#45;&gt;Node1</title>
<path fill="none" stroke="#9a32cd" stroke-dasharray="5,2" d="M55.5,-112.29C55.5,-89.48 55.5,-51.41 55.5,-30.81"/>
<polygon fill="#9a32cd" stroke="#9a32cd" points="52,-112.39 55.5,-122.39 59,-112.39 52,-112.39"/>
<text text-anchor="middle" x="92" y="-96" font-family="Helvetica,sans-Serif" font-size="10.00"> azimuth_</text>
<text text-anchor="start" x="55.5" y="-85" font-family="Helvetica,sans-Serif" font-size="10.00">initial_azimuth</text>
<text text-anchor="middle" x="92" y="-74" font-family="Helvetica,sans-Serif" font-size="10.00">_</text>
<text text-anchor="middle" x="92" y="-63" font-family="Helvetica,sans-Serif" font-size="10.00">omega_</text>
<text text-anchor="middle" x="92" y="-52" font-family="Helvetica,sans-Serif" font-size="10.00">time_</text>
</g>
</g>
</svg>
