<?xml version="1.0" encoding="UTF-8" standalone="no"?>
<!DOCTYPE svg PUBLIC "-//W3C//DTD SVG 1.1//EN"
 "http://www.w3.org/Graphics/SVG/1.1/DTD/svg11.dtd">
<!-- Generated by graphviz version 2.43.0 (0)
 -->
<!-- Title: python.concept.Face Pages: 1 -->
<svg width="280pt" height="140pt"
 viewBox="0.00 0.00 280.00 140.00" xmlns="http://www.w3.org/2000/svg" xmlns:xlink="http://www.w3.org/1999/xlink">
<g id="graph0" class="graph" transform="scale(1 1) rotate(0) translate(4 136)">
<title>python.concept.Face</title>
<polygon fill="white" stroke="transparent" points="-4,4 -4,-136 276,-136 276,4 -4,4"/>
<!-- Node1 -->
<g id="node1" class="node">
<title>Node1</title>
<g id="a_node1"><a xlink:title="An object for carrying a given state or the Riemann solution between two elements.">
<polygon fill="#bfbfbf" stroke="black" points="72,-56.5 72,-75.5 188,-75.5 188,-56.5 72,-56.5"/>
<text text-anchor="middle" x="130" y="-63.5" font-family="Helvetica,sans-Serif" font-size="10.00">python.concept.Face</text>
</a>
</g>
</g>
<!-- Node3 -->
<g id="node3" class="node">
<title>Node3</title>
<g id="a_node3"><a xlink:href="classpython_1_1concept_1_1Inlet.html" target="_top" xlink:title="A Face object at the boundary with a given state.">
<polygon fill="white" stroke="black" points="0,-0.5 0,-19.5 116,-19.5 116,-0.5 0,-0.5"/>
<text text-anchor="middle" x="58" y="-7.5" font-family="Helvetica,sans-Serif" font-size="10.00">python.concept.Inlet</text>
</a>
</g>
</g>
<!-- Node1&#45;&gt;Node3 -->
<g id="edge2" class="edge">
<title>Node1&#45;&gt;Node3</title>
<path fill="none" stroke="midnightblue" d="M110.13,-50.1C97.18,-40.38 80.7,-28.03 69.78,-19.83"/>
<polygon fill="midnightblue" stroke="midnightblue" points="108.33,-53.12 118.43,-56.32 112.53,-47.52 108.33,-53.12"/>
</g>
<!-- Node4 -->
<g id="node4" class="node">
<title>Node4</title>
<g id="a_node4"><a xlink:href="classpython_1_1concept_1_1Interface.html" target="_top" xlink:title="The common interface of two elements.">
<polygon fill="white" stroke="black" points="134,-0.5 134,-19.5 272,-19.5 272,-0.5 134,-0.5"/>
<text text-anchor="middle" x="203" y="-7.5" font-family="Helvetica,sans-Serif" font-size="10.00">python.concept.Interface</text>
</a>
</g>
</g>
<!-- Node1&#45;&gt;Node4 -->
<g id="edge3" class="edge">
<title>Node1&#45;&gt;Node4</title>
<path fill="none" stroke="midnightblue" d="M150.14,-50.1C163.28,-40.38 179.98,-28.03 191.06,-19.83"/>
<polygon fill="midnightblue" stroke="midnightblue" points="147.69,-47.56 141.73,-56.32 151.85,-53.19 147.69,-47.56"/>
</g>
<!-- Node2 -->
<g id="node2" class="node">
<title>Node2</title>
<g id="a_node2"><a xlink:title=" ">
<polygon fill="white" stroke="#bfbfbf" points="101.5,-112.5 101.5,-131.5 158.5,-131.5 158.5,-112.5 101.5,-112.5"/>
<text text-anchor="middle" x="130" y="-119.5" font-family="Helvetica,sans-Serif" font-size="10.00">abc.ABC</text>
</a>
</g>
</g>
<!-- Node2&#45;&gt;Node1 -->
<g id="edge1" class="edge">
<title>Node2&#45;&gt;Node1</title>
<path fill="none" stroke="midnightblue" d="M130,-101.8C130,-92.91 130,-82.78 130,-75.75"/>
<polygon fill="midnightblue" stroke="midnightblue" points="126.5,-102.08 130,-112.08 133.5,-102.08 126.5,-102.08"/>
</g>
</g>
</svg>
