<?xml version="1.0" encoding="UTF-8" standalone="no"?>
<!DOCTYPE svg PUBLIC "-//W3C//DTD SVG 1.1//EN"
 "http://www.w3.org/Graphics/SVG/1.1/DTD/svg11.dtd">
<!-- Generated by graphviz version 2.43.0 (0)
 -->
<!-- Title: python.equation.LinearAdvection Pages: 1 -->
<svg width="186pt" height="196pt"
 viewBox="0.00 0.00 186.00 196.00" xmlns="http://www.w3.org/2000/svg" xmlns:xlink="http://www.w3.org/1999/xlink">
<g id="graph0" class="graph" transform="scale(1 1) rotate(0) translate(4 192)">
<title>python.equation.LinearAdvection</title>
<polygon fill="white" stroke="transparent" points="-4,4 -4,-192 182,-192 182,4 -4,4"/>
<!-- Node1 -->
<g id="node1" class="node">
<title>Node1</title>
<g id="a_node1"><a xlink:title=" ">
<polygon fill="#bfbfbf" stroke="black" points="0,-0.5 0,-19.5 178,-19.5 178,-0.5 0,-0.5"/>
<text text-anchor="middle" x="89" y="-7.5" font-family="Helvetica,sans-Serif" font-size="10.00">python.equation.LinearAdvection</text>
</a>
</g>
</g>
<!-- Node2 -->
<g id="node2" class="node">
<title>Node2</title>
<g id="a_node2"><a xlink:href="classpython_1_1concept_1_1ScalarEquation.html" target="_top" xlink:title=" ">
<polygon fill="white" stroke="black" points="5.5,-56.5 5.5,-75.5 172.5,-75.5 172.5,-56.5 5.5,-56.5"/>
<text text-anchor="middle" x="89" y="-63.5" font-family="Helvetica,sans-Serif" font-size="10.00">python.concept.ScalarEquation</text>
</a>
</g>
</g>
<!-- Node2&#45;&gt;Node1 -->
<g id="edge1" class="edge">
<title>Node2&#45;&gt;Node1</title>
<path fill="none" stroke="midnightblue" d="M89,-45.8C89,-36.91 89,-26.78 89,-19.75"/>
<polygon fill="midnightblue" stroke="midnightblue" points="85.5,-46.08 89,-56.08 92.5,-46.08 85.5,-46.08"/>
</g>
<!-- Node3 -->
<g id="node3" class="node">
<title>Node3</title>
<g id="a_node3"><a xlink:href="classpython_1_1concept_1_1Equation.html" target="_top" xlink:title="A PDE in the form of .">
<polygon fill="white" stroke="black" points="20.5,-112.5 20.5,-131.5 157.5,-131.5 157.5,-112.5 20.5,-112.5"/>
<text text-anchor="middle" x="89" y="-119.5" font-family="Helvetica,sans-Serif" font-size="10.00">python.concept.Equation</text>
</a>
</g>
</g>
<!-- Node3&#45;&gt;Node2 -->
<g id="edge2" class="edge">
<title>Node3&#45;&gt;Node2</title>
<path fill="none" stroke="midnightblue" d="M89,-101.8C89,-92.91 89,-82.78 89,-75.75"/>
<polygon fill="midnightblue" stroke="midnightblue" points="85.5,-102.08 89,-112.08 92.5,-102.08 85.5,-102.08"/>
</g>
<!-- Node4 -->
<g id="node4" class="node">
<title>Node4</title>
<g id="a_node4"><a xlink:title=" ">
<polygon fill="white" stroke="#bfbfbf" points="60.5,-168.5 60.5,-187.5 117.5,-187.5 117.5,-168.5 60.5,-168.5"/>
<text text-anchor="middle" x="89" y="-175.5" font-family="Helvetica,sans-Serif" font-size="10.00">abc.ABC</text>
</a>
</g>
</g>
<!-- Node4&#45;&gt;Node3 -->
<g id="edge3" class="edge">
<title>Node4&#45;&gt;Node3</title>
<path fill="none" stroke="midnightblue" d="M89,-157.8C89,-148.91 89,-138.78 89,-131.75"/>
<polygon fill="midnightblue" stroke="midnightblue" points="85.5,-158.08 89,-168.08 92.5,-158.08 85.5,-158.08"/>
</g>
</g>
</svg>
