<?xml version="1.0" encoding="UTF-8" standalone="no"?>
<!DOCTYPE svg PUBLIC "-//W3C//DTD SVG 1.1//EN"
 "http://www.w3.org/Graphics/SVG/1.1/DTD/svg11.dtd">
<!-- Generated by graphviz version 2.43.0 (0)
 -->
<!-- Title: python.solver.ShockTube Pages: 1 -->
<svg width="234pt" height="196pt"
 viewBox="0.00 0.00 233.50 196.00" xmlns="http://www.w3.org/2000/svg" xmlns:xlink="http://www.w3.org/1999/xlink">
<g id="graph0" class="graph" transform="scale(1 1) rotate(0) translate(4 192)">
<title>python.solver.ShockTube</title>
<polygon fill="white" stroke="transparent" points="-4,4 -4,-192 229.5,-192 229.5,4 -4,4"/>
<!-- Node1 -->
<g id="node1" class="node">
<title>Node1</title>
<g id="a_node1"><a xlink:title="Demo the usage of Euler related classes.">
<polygon fill="#bfbfbf" stroke="black" points="44,-56.5 44,-75.5 181,-75.5 181,-56.5 44,-56.5"/>
<text text-anchor="middle" x="112.5" y="-63.5" font-family="Helvetica,sans-Serif" font-size="10.00">python.solver.ShockTube</text>
</a>
</g>
</g>
<!-- Node4 -->
<g id="node4" class="node">
<title>Node4</title>
<g id="a_node4"><a xlink:href="classpython_1_1solver_1_1Lax.html" target="_top" xlink:title=" ">
<polygon fill="white" stroke="black" points="0,-0.5 0,-19.5 103,-19.5 103,-0.5 0,-0.5"/>
<text text-anchor="middle" x="51.5" y="-7.5" font-family="Helvetica,sans-Serif" font-size="10.00">python.solver.Lax</text>
</a>
</g>
</g>
<!-- Node1&#45;&gt;Node4 -->
<g id="edge3" class="edge">
<title>Node1&#45;&gt;Node4</title>
<path fill="none" stroke="midnightblue" d="M95.03,-49.54C84.16,-39.91 70.56,-27.87 61.48,-19.83"/>
<polygon fill="midnightblue" stroke="midnightblue" points="92.89,-52.32 102.7,-56.32 97.53,-47.07 92.89,-52.32"/>
</g>
<!-- Node5 -->
<g id="node5" class="node">
<title>Node5</title>
<g id="a_node5"><a xlink:href="classpython_1_1solver_1_1Sod.html" target="_top" xlink:title=" ">
<polygon fill="white" stroke="black" points="121.5,-0.5 121.5,-19.5 225.5,-19.5 225.5,-0.5 121.5,-0.5"/>
<text text-anchor="middle" x="173.5" y="-7.5" font-family="Helvetica,sans-Serif" font-size="10.00">python.solver.Sod</text>
</a>
</g>
</g>
<!-- Node1&#45;&gt;Node5 -->
<g id="edge4" class="edge">
<title>Node1&#45;&gt;Node5</title>
<path fill="none" stroke="midnightblue" d="M129.97,-49.54C140.84,-39.91 154.44,-27.87 163.52,-19.83"/>
<polygon fill="midnightblue" stroke="midnightblue" points="127.47,-47.07 122.3,-56.32 132.11,-52.32 127.47,-47.07"/>
</g>
<!-- Node2 -->
<g id="node2" class="node">
<title>Node2</title>
<g id="a_node2"><a xlink:href="classpython_1_1solver_1_1SolverBase.html" target="_top" xlink:title="Define common methods for all solvers.">
<polygon fill="white" stroke="black" points="42.5,-112.5 42.5,-131.5 182.5,-131.5 182.5,-112.5 42.5,-112.5"/>
<text text-anchor="middle" x="112.5" y="-119.5" font-family="Helvetica,sans-Serif" font-size="10.00">python.solver.SolverBase</text>
</a>
</g>
</g>
<!-- Node2&#45;&gt;Node1 -->
<g id="edge1" class="edge">
<title>Node2&#45;&gt;Node1</title>
<path fill="none" stroke="midnightblue" d="M112.5,-101.8C112.5,-92.91 112.5,-82.78 112.5,-75.75"/>
<polygon fill="midnightblue" stroke="midnightblue" points="109,-102.08 112.5,-112.08 116,-102.08 109,-102.08"/>
</g>
<!-- Node3 -->
<g id="node3" class="node">
<title>Node3</title>
<g id="a_node3"><a xlink:title=" ">
<polygon fill="white" stroke="#bfbfbf" points="84,-168.5 84,-187.5 141,-187.5 141,-168.5 84,-168.5"/>
<text text-anchor="middle" x="112.5" y="-175.5" font-family="Helvetica,sans-Serif" font-size="10.00">abc.ABC</text>
</a>
</g>
</g>
<!-- Node3&#45;&gt;Node2 -->
<g id="edge2" class="edge">
<title>Node3&#45;&gt;Node2</title>
<path fill="none" stroke="midnightblue" d="M112.5,-157.8C112.5,-148.91 112.5,-138.78 112.5,-131.75"/>
<polygon fill="midnightblue" stroke="midnightblue" points="109,-158.08 112.5,-168.08 116,-158.08 109,-158.08"/>
</g>
</g>
</svg>
