<?xml version="1.0" encoding="UTF-8" standalone="no"?>
<!DOCTYPE svg PUBLIC "-//W3C//DTD SVG 1.1//EN"
 "http://www.w3.org/Graphics/SVG/1.1/DTD/svg11.dtd">
<!-- Generated by graphviz version 2.43.0 (0)
 -->
<!-- Title: mini::spatial::fr::Lobatto&lt; P, R &gt; Pages: 1 -->
<svg width="159pt" height="240pt"
 viewBox="0.00 0.00 159.00 240.00" xmlns="http://www.w3.org/2000/svg" xmlns:xlink="http://www.w3.org/1999/xlink">
<g id="graph0" class="graph" transform="scale(1 1) rotate(0) translate(4 236)">
<title>mini::spatial::fr::Lobatto&lt; P, R &gt;</title>
<polygon fill="white" stroke="transparent" points="-4,4 -4,-236 155,-236 155,4 -4,4"/>
<!-- Node1 -->
<g id="node1" class="node">
<title>Node1</title>
<g id="a_node1"><a xlink:title="A specialized version of FR using a Lagrange expansion on Lobatto roots with the &quot;Lumping Lobatto&quot; co...">
<polygon fill="#bfbfbf" stroke="black" points="27,-0.5 27,-30.5 124,-30.5 124,-0.5 27,-0.5"/>
<text text-anchor="start" x="35" y="-18.5" font-family="Helvetica,sans-Serif" font-size="10.00">mini::spatial::fr::</text>
<text text-anchor="middle" x="75.5" y="-7.5" font-family="Helvetica,sans-Serif" font-size="10.00">Lobatto&lt; P, R &gt;</text>
</a>
</g>
</g>
<!-- Node2 -->
<g id="node2" class="node">
<title>Node2</title>
<g id="a_node2"><a xlink:href="classmini_1_1spatial_1_1fr_1_1General.html" target="_top" xlink:title="A general version of FR using a Lagrange expansion whose flux points are also solution points.">
<polygon fill="white" stroke="black" points="27,-67.5 27,-97.5 124,-97.5 124,-67.5 27,-67.5"/>
<text text-anchor="start" x="35" y="-85.5" font-family="Helvetica,sans-Serif" font-size="10.00">mini::spatial::fr::</text>
<text text-anchor="middle" x="75.5" y="-74.5" font-family="Helvetica,sans-Serif" font-size="10.00">General&lt; P, R &gt;</text>
</a>
</g>
</g>
<!-- Node2&#45;&gt;Node1 -->
<g id="edge1" class="edge">
<title>Node2&#45;&gt;Node1</title>
<path fill="none" stroke="midnightblue" d="M75.5,-57.11C75.5,-48.15 75.5,-38.32 75.5,-30.58"/>
<polygon fill="midnightblue" stroke="midnightblue" points="72,-57.4 75.5,-67.4 79,-57.4 72,-57.4"/>
</g>
<!-- Node3 -->
<g id="node3" class="node">
<title>Node3</title>
<g id="a_node3"><a xlink:href="classmini_1_1spatial_1_1FiniteElement.html" target="_top" xlink:title=" ">
<polygon fill="white" stroke="black" points="0,-134.5 0,-164.5 151,-164.5 151,-134.5 0,-134.5"/>
<text text-anchor="start" x="8" y="-152.5" font-family="Helvetica,sans-Serif" font-size="10.00">mini::spatial::FiniteElement</text>
<text text-anchor="middle" x="75.5" y="-141.5" font-family="Helvetica,sans-Serif" font-size="10.00">&lt; P, R &gt;</text>
</a>
</g>
</g>
<!-- Node3&#45;&gt;Node2 -->
<g id="edge2" class="edge">
<title>Node3&#45;&gt;Node2</title>
<path fill="none" stroke="midnightblue" d="M75.5,-124.11C75.5,-115.15 75.5,-105.32 75.5,-97.58"/>
<polygon fill="midnightblue" stroke="midnightblue" points="72,-124.4 75.5,-134.4 79,-124.4 72,-124.4"/>
</g>
<!-- Node4 -->
<g id="node4" class="node">
<title>Node4</title>
<g id="a_node4"><a xlink:href="classmini_1_1temporal_1_1System.html" target="_top" xlink:title=" ">
<polygon fill="white" stroke="black" points="10,-201.5 10,-231.5 141,-231.5 141,-201.5 10,-201.5"/>
<text text-anchor="start" x="18" y="-219.5" font-family="Helvetica,sans-Serif" font-size="10.00">mini::temporal::System</text>
<text text-anchor="middle" x="75.5" y="-208.5" font-family="Helvetica,sans-Serif" font-size="10.00">&lt; P::Scalar &gt;</text>
</a>
</g>
</g>
<!-- Node4&#45;&gt;Node3 -->
<g id="edge3" class="edge">
<title>Node4&#45;&gt;Node3</title>
<path fill="none" stroke="midnightblue" d="M75.5,-191.11C75.5,-182.15 75.5,-172.32 75.5,-164.58"/>
<polygon fill="midnightblue" stroke="midnightblue" points="72,-191.4 75.5,-201.4 79,-191.4 72,-191.4"/>
</g>
</g>
</svg>
