<?xml version="1.0" encoding="UTF-8" standalone="no"?>
<!DOCTYPE svg PUBLIC "-//W3C//DTD SVG 1.1//EN"
 "http://www.w3.org/Graphics/SVG/1.1/DTD/svg11.dtd">
<!-- Generated by graphviz version 2.43.0 (0)
 -->
<!-- Title: python.concept.EquationSystem Pages: 1 -->
<svg width="290pt" height="196pt"
 viewBox="0.00 0.00 289.50 196.00" xmlns="http://www.w3.org/2000/svg" xmlns:xlink="http://www.w3.org/1999/xlink">
<g id="graph0" class="graph" transform="scale(1 1) rotate(0) translate(4 192)">
<title>python.concept.EquationSystem</title>
<polygon fill="white" stroke="transparent" points="-4,4 -4,-192 285.5,-192 285.5,4 -4,4"/>
<!-- Node1 -->
<g id="node1" class="node">
<title>Node1</title>
<g id="a_node1"><a xlink:title=" ">
<polygon fill="#bfbfbf" stroke="black" points="57.5,-56.5 57.5,-75.5 231.5,-75.5 231.5,-56.5 57.5,-56.5"/>
<text text-anchor="middle" x="144.5" y="-63.5" font-family="Helvetica,sans-Serif" font-size="10.00">python.concept.EquationSystem</text>
</a>
</g>
</g>
<!-- Node4 -->
<g id="node4" class="node">
<title>Node4</title>
<g id="a_node4"><a xlink:href="classpython_1_1equation_1_1Coupled.html" target="_top" xlink:title="A system of two linearly coupled scalar equations.">
<polygon fill="white" stroke="black" points="0,-0.5 0,-19.5 139,-19.5 139,-0.5 0,-0.5"/>
<text text-anchor="middle" x="69.5" y="-7.5" font-family="Helvetica,sans-Serif" font-size="10.00">python.equation.Coupled</text>
</a>
</g>
</g>
<!-- Node1&#45;&gt;Node4 -->
<g id="edge3" class="edge">
<title>Node1&#45;&gt;Node4</title>
<path fill="none" stroke="midnightblue" d="M124.19,-50.38C110.64,-40.62 93.26,-28.11 81.77,-19.83"/>
<polygon fill="midnightblue" stroke="midnightblue" points="122.29,-53.32 132.45,-56.32 126.38,-47.64 122.29,-53.32"/>
</g>
<!-- Node5 -->
<g id="node5" class="node">
<title>Node5</title>
<g id="a_node5"><a xlink:href="classpython_1_1equation_1_1Euler.html" target="_top" xlink:title=" ">
<polygon fill="white" stroke="black" points="157.5,-0.5 157.5,-19.5 281.5,-19.5 281.5,-0.5 157.5,-0.5"/>
<text text-anchor="middle" x="219.5" y="-7.5" font-family="Helvetica,sans-Serif" font-size="10.00">python.equation.Euler</text>
</a>
</g>
</g>
<!-- Node1&#45;&gt;Node5 -->
<g id="edge4" class="edge">
<title>Node1&#45;&gt;Node5</title>
<path fill="none" stroke="midnightblue" d="M164.81,-50.38C178.36,-40.62 195.74,-28.11 207.23,-19.83"/>
<polygon fill="midnightblue" stroke="midnightblue" points="162.62,-47.64 156.55,-56.32 166.71,-53.32 162.62,-47.64"/>
</g>
<!-- Node2 -->
<g id="node2" class="node">
<title>Node2</title>
<g id="a_node2"><a xlink:href="classpython_1_1concept_1_1Equation.html" target="_top" xlink:title="A PDE in the form of .">
<polygon fill="white" stroke="black" points="76,-112.5 76,-131.5 213,-131.5 213,-112.5 76,-112.5"/>
<text text-anchor="middle" x="144.5" y="-119.5" font-family="Helvetica,sans-Serif" font-size="10.00">python.concept.Equation</text>
</a>
</g>
</g>
<!-- Node2&#45;&gt;Node1 -->
<g id="edge1" class="edge">
<title>Node2&#45;&gt;Node1</title>
<path fill="none" stroke="midnightblue" d="M144.5,-101.8C144.5,-92.91 144.5,-82.78 144.5,-75.75"/>
<polygon fill="midnightblue" stroke="midnightblue" points="141,-102.08 144.5,-112.08 148,-102.08 141,-102.08"/>
</g>
<!-- Node3 -->
<g id="node3" class="node">
<title>Node3</title>
<g id="a_node3"><a xlink:title=" ">
<polygon fill="white" stroke="#bfbfbf" points="116,-168.5 116,-187.5 173,-187.5 173,-168.5 116,-168.5"/>
<text text-anchor="middle" x="144.5" y="-175.5" font-family="Helvetica,sans-Serif" font-size="10.00">abc.ABC</text>
</a>
</g>
</g>
<!-- Node3&#45;&gt;Node2 -->
<g id="edge2" class="edge">
<title>Node3&#45;&gt;Node2</title>
<path fill="none" stroke="midnightblue" d="M144.5,-157.8C144.5,-148.91 144.5,-138.78 144.5,-131.75"/>
<polygon fill="midnightblue" stroke="midnightblue" points="141,-158.08 144.5,-168.08 148,-158.08 141,-158.08"/>
</g>
</g>
</svg>
