<?xml version="1.0" encoding="UTF-8" standalone="no"?>
<!DOCTYPE svg PUBLIC "-//W3C//DTD SVG 1.1//EN"
 "http://www.w3.org/Graphics/SVG/1.1/DTD/svg11.dtd">
<!-- Generated by graphviz version 2.43.0 (0)
 -->
<!-- Title: python.expansion.Lagrange Pages: 1 -->
<svg width="415pt" height="330pt"
 viewBox="0.00 0.00 415.00 330.00" xmlns="http://www.w3.org/2000/svg" xmlns:xlink="http://www.w3.org/1999/xlink">
<g id="graph0" class="graph" transform="scale(1 1) rotate(0) translate(4 326)">
<title>python.expansion.Lagrange</title>
<polygon fill="white" stroke="transparent" points="-4,4 -4,-326 411,-326 411,4 -4,4"/>
<!-- Node1 -->
<g id="node1" class="node">
<title>Node1</title>
<g id="a_node1"><a xlink:title="The Lagrange expansion of a general function.">
<polygon fill="#bfbfbf" stroke="black" points="170,-134.5 170,-153.5 322,-153.5 322,-134.5 170,-134.5"/>
<text text-anchor="middle" x="246" y="-141.5" font-family="Helvetica,sans-Serif" font-size="10.00">python.expansion.Lagrange</text>
</a>
</g>
</g>
<!-- Node5 -->
<g id="node5" class="node">
<title>Node5</title>
<g id="a_node5"><a xlink:href="classpython_1_1expansion_1_1LagrangeOnGaussPoints.html" target="_top" xlink:title="Specialized Lagrange expansion using Gauss points as nodes.">
<polygon fill="white" stroke="black" points="85,-67.5 85,-97.5 237,-97.5 237,-67.5 85,-67.5"/>
<text text-anchor="start" x="93" y="-85.5" font-family="Helvetica,sans-Serif" font-size="10.00">python.expansion.Lagrange</text>
<text text-anchor="middle" x="161" y="-74.5" font-family="Helvetica,sans-Serif" font-size="10.00">OnGaussPoints</text>
</a>
</g>
</g>
<!-- Node1&#45;&gt;Node5 -->
<g id="edge4" class="edge">
<title>Node1&#45;&gt;Node5</title>
<path fill="none" stroke="midnightblue" d="M225.63,-128.74C212.12,-119.28 194.47,-106.93 181.03,-97.52"/>
<polygon fill="midnightblue" stroke="midnightblue" points="223.62,-131.61 233.82,-134.48 227.64,-125.87 223.62,-131.61"/>
</g>
<!-- Node8 -->
<g id="node8" class="node">
<title>Node8</title>
<g id="a_node8"><a xlink:href="classpython_1_1expansion_1_1LagrangeOnUniformRoots.html" target="_top" xlink:title="Specialized Lagrange expansion using uniform roots as nodes.">
<polygon fill="white" stroke="black" points="255,-67.5 255,-97.5 407,-97.5 407,-67.5 255,-67.5"/>
<text text-anchor="start" x="263" y="-85.5" font-family="Helvetica,sans-Serif" font-size="10.00">python.expansion.Lagrange</text>
<text text-anchor="middle" x="331" y="-74.5" font-family="Helvetica,sans-Serif" font-size="10.00">OnUniformRoots</text>
</a>
</g>
</g>
<!-- Node1&#45;&gt;Node8 -->
<g id="edge7" class="edge">
<title>Node1&#45;&gt;Node8</title>
<path fill="none" stroke="midnightblue" d="M266.37,-128.74C279.88,-119.28 297.53,-106.93 310.97,-97.52"/>
<polygon fill="midnightblue" stroke="midnightblue" points="264.36,-125.87 258.18,-134.48 268.38,-131.61 264.36,-125.87"/>
</g>
<!-- Node2 -->
<g id="node2" class="node">
<title>Node2</title>
<g id="a_node2"><a xlink:href="classpython_1_1expansion_1_1Taylor.html" target="_top" xlink:title="The Taylor expansion of a general function.">
<polygon fill="white" stroke="black" points="178,-190.5 178,-209.5 314,-209.5 314,-190.5 178,-190.5"/>
<text text-anchor="middle" x="246" y="-197.5" font-family="Helvetica,sans-Serif" font-size="10.00">python.expansion.Taylor</text>
</a>
</g>
</g>
<!-- Node2&#45;&gt;Node1 -->
<g id="edge1" class="edge">
<title>Node2&#45;&gt;Node1</title>
<path fill="none" stroke="midnightblue" d="M246,-179.8C246,-170.91 246,-160.78 246,-153.75"/>
<polygon fill="midnightblue" stroke="midnightblue" points="242.5,-180.08 246,-190.08 249.5,-180.08 242.5,-180.08"/>
</g>
<!-- Node3 -->
<g id="node3" class="node">
<title>Node3</title>
<g id="a_node3"><a xlink:href="classpython_1_1concept_1_1Expansion.html" target="_top" xlink:title="The polynomial approximation of a general function.">
<polygon fill="white" stroke="black" points="173.5,-246.5 173.5,-265.5 318.5,-265.5 318.5,-246.5 173.5,-246.5"/>
<text text-anchor="middle" x="246" y="-253.5" font-family="Helvetica,sans-Serif" font-size="10.00">python.concept.Expansion</text>
</a>
</g>
</g>
<!-- Node3&#45;&gt;Node2 -->
<g id="edge2" class="edge">
<title>Node3&#45;&gt;Node2</title>
<path fill="none" stroke="midnightblue" d="M246,-235.8C246,-226.91 246,-216.78 246,-209.75"/>
<polygon fill="midnightblue" stroke="midnightblue" points="242.5,-236.08 246,-246.08 249.5,-236.08 242.5,-236.08"/>
</g>
<!-- Node4 -->
<g id="node4" class="node">
<title>Node4</title>
<g id="a_node4"><a xlink:title=" ">
<polygon fill="white" stroke="#bfbfbf" points="217.5,-302.5 217.5,-321.5 274.5,-321.5 274.5,-302.5 217.5,-302.5"/>
<text text-anchor="middle" x="246" y="-309.5" font-family="Helvetica,sans-Serif" font-size="10.00">abc.ABC</text>
</a>
</g>
</g>
<!-- Node4&#45;&gt;Node3 -->
<g id="edge3" class="edge">
<title>Node4&#45;&gt;Node3</title>
<path fill="none" stroke="midnightblue" d="M246,-291.8C246,-282.91 246,-272.78 246,-265.75"/>
<polygon fill="midnightblue" stroke="midnightblue" points="242.5,-292.08 246,-302.08 249.5,-292.08 242.5,-292.08"/>
</g>
<!-- Node6 -->
<g id="node6" class="node">
<title>Node6</title>
<g id="a_node6"><a xlink:href="classpython_1_1expansion_1_1LagrangeOnLegendreRoots.html" target="_top" xlink:title="Specialized Lagrange expansion using Legendre roots as nodes.">
<polygon fill="white" stroke="black" points="0,-0.5 0,-30.5 152,-30.5 152,-0.5 0,-0.5"/>
<text text-anchor="start" x="8" y="-18.5" font-family="Helvetica,sans-Serif" font-size="10.00">python.expansion.Lagrange</text>
<text text-anchor="middle" x="76" y="-7.5" font-family="Helvetica,sans-Serif" font-size="10.00">OnLegendreRoots</text>
</a>
</g>
</g>
<!-- Node5&#45;&gt;Node6 -->
<g id="edge5" class="edge">
<title>Node5&#45;&gt;Node6</title>
<path fill="none" stroke="midnightblue" d="M134.41,-61.17C121.41,-51.23 106.1,-39.51 94.41,-30.58"/>
<polygon fill="midnightblue" stroke="midnightblue" points="132.49,-64.1 142.56,-67.4 136.74,-58.54 132.49,-64.1"/>
</g>
<!-- Node7 -->
<g id="node7" class="node">
<title>Node7</title>
<g id="a_node7"><a xlink:href="classpython_1_1expansion_1_1LagrangeOnLobattoRoots.html" target="_top" xlink:title="Specialized Lagrange expansion using Lobatto roots as nodes.">
<polygon fill="white" stroke="black" points="170,-0.5 170,-30.5 322,-30.5 322,-0.5 170,-0.5"/>
<text text-anchor="start" x="178" y="-18.5" font-family="Helvetica,sans-Serif" font-size="10.00">python.expansion.Lagrange</text>
<text text-anchor="middle" x="246" y="-7.5" font-family="Helvetica,sans-Serif" font-size="10.00">OnLobattoRoots</text>
</a>
</g>
</g>
<!-- Node5&#45;&gt;Node7 -->
<g id="edge6" class="edge">
<title>Node5&#45;&gt;Node7</title>
<path fill="none" stroke="midnightblue" d="M187.59,-61.17C200.59,-51.23 215.9,-39.51 227.59,-30.58"/>
<polygon fill="midnightblue" stroke="midnightblue" points="185.26,-58.54 179.44,-67.4 189.51,-64.1 185.26,-58.54"/>
</g>
</g>
</svg>
