<?xml version="1.0" encoding="UTF-8" standalone="no"?>
<!DOCTYPE svg PUBLIC "-//W3C//DTD SVG 1.1//EN"
 "http://www.w3.org/Graphics/SVG/1.1/DTD/svg11.dtd">
<!-- Generated by graphviz version 2.43.0 (0)
 -->
<!-- Title: python.expansion.LagrangeOnUniformRoots Pages: 1 -->
<svg width="160pt" height="263pt"
 viewBox="0.00 0.00 160.00 263.00" xmlns="http://www.w3.org/2000/svg" xmlns:xlink="http://www.w3.org/1999/xlink">
<g id="graph0" class="graph" transform="scale(1 1) rotate(0) translate(4 259)">
<title>python.expansion.LagrangeOnUniformRoots</title>
<polygon fill="white" stroke="transparent" points="-4,4 -4,-259 156,-259 156,4 -4,4"/>
<!-- Node1 -->
<g id="node1" class="node">
<title>Node1</title>
<g id="a_node1"><a xlink:title="Specialized Lagrange expansion using uniform roots as nodes.">
<polygon fill="#bfbfbf" stroke="black" points="0,-0.5 0,-30.5 152,-30.5 152,-0.5 0,-0.5"/>
<text text-anchor="start" x="8" y="-18.5" font-family="Helvetica,sans-Serif" font-size="10.00">python.expansion.Lagrange</text>
<text text-anchor="middle" x="76" y="-7.5" font-family="Helvetica,sans-Serif" font-size="10.00">OnUniformRoots</text>
</a>
</g>
</g>
<!-- Node2 -->
<g id="node2" class="node">
<title>Node2</title>
<g id="a_node2"><a xlink:href="classpython_1_1expansion_1_1Lagrange.html" target="_top" xlink:title="The Lagrange expansion of a general function.">
<polygon fill="white" stroke="black" points="0,-67.5 0,-86.5 152,-86.5 152,-67.5 0,-67.5"/>
<text text-anchor="middle" x="76" y="-74.5" font-family="Helvetica,sans-Serif" font-size="10.00">python.expansion.Lagrange</text>
</a>
</g>
</g>
<!-- Node2&#45;&gt;Node1 -->
<g id="edge1" class="edge">
<title>Node2&#45;&gt;Node1</title>
<path fill="none" stroke="midnightblue" d="M76,-57.23C76,-48.59 76,-38.5 76,-30.52"/>
<polygon fill="midnightblue" stroke="midnightblue" points="72.5,-57.48 76,-67.48 79.5,-57.48 72.5,-57.48"/>
</g>
<!-- Node3 -->
<g id="node3" class="node">
<title>Node3</title>
<g id="a_node3"><a xlink:href="classpython_1_1expansion_1_1Taylor.html" target="_top" xlink:title="The Taylor expansion of a general function.">
<polygon fill="white" stroke="black" points="8,-123.5 8,-142.5 144,-142.5 144,-123.5 8,-123.5"/>
<text text-anchor="middle" x="76" y="-130.5" font-family="Helvetica,sans-Serif" font-size="10.00">python.expansion.Taylor</text>
</a>
</g>
</g>
<!-- Node3&#45;&gt;Node2 -->
<g id="edge2" class="edge">
<title>Node3&#45;&gt;Node2</title>
<path fill="none" stroke="midnightblue" d="M76,-112.8C76,-103.91 76,-93.78 76,-86.75"/>
<polygon fill="midnightblue" stroke="midnightblue" points="72.5,-113.08 76,-123.08 79.5,-113.08 72.5,-113.08"/>
</g>
<!-- Node4 -->
<g id="node4" class="node">
<title>Node4</title>
<g id="a_node4"><a xlink:href="classpython_1_1concept_1_1Expansion.html" target="_top" xlink:title="The polynomial approximation of a general function.">
<polygon fill="white" stroke="black" points="3.5,-179.5 3.5,-198.5 148.5,-198.5 148.5,-179.5 3.5,-179.5"/>
<text text-anchor="middle" x="76" y="-186.5" font-family="Helvetica,sans-Serif" font-size="10.00">python.concept.Expansion</text>
</a>
</g>
</g>
<!-- Node4&#45;&gt;Node3 -->
<g id="edge3" class="edge">
<title>Node4&#45;&gt;Node3</title>
<path fill="none" stroke="midnightblue" d="M76,-168.8C76,-159.91 76,-149.78 76,-142.75"/>
<polygon fill="midnightblue" stroke="midnightblue" points="72.5,-169.08 76,-179.08 79.5,-169.08 72.5,-169.08"/>
</g>
<!-- Node5 -->
<g id="node5" class="node">
<title>Node5</title>
<g id="a_node5"><a xlink:title=" ">
<polygon fill="white" stroke="#bfbfbf" points="47.5,-235.5 47.5,-254.5 104.5,-254.5 104.5,-235.5 47.5,-235.5"/>
<text text-anchor="middle" x="76" y="-242.5" font-family="Helvetica,sans-Serif" font-size="10.00">abc.ABC</text>
</a>
</g>
</g>
<!-- Node5&#45;&gt;Node4 -->
<g id="edge4" class="edge">
<title>Node5&#45;&gt;Node4</title>
<path fill="none" stroke="midnightblue" d="M76,-224.8C76,-215.91 76,-205.78 76,-198.75"/>
<polygon fill="midnightblue" stroke="midnightblue" points="72.5,-225.08 76,-235.08 79.5,-225.08 72.5,-225.08"/>
</g>
</g>
</svg>
