<?xml version="1.0" encoding="UTF-8" standalone="no"?>
<!DOCTYPE svg PUBLIC "-//W3C//DTD SVG 1.1//EN"
 "http://www.w3.org/Graphics/SVG/1.1/DTD/svg11.dtd">
<!-- Generated by graphviz version 2.43.0 (0)
 -->
<!-- Title: python.expansion.Taylor Pages: 1 -->
<svg width="984pt" height="171pt"
 viewBox="0.00 0.00 984.00 171.00" xmlns="http://www.w3.org/2000/svg" xmlns:xlink="http://www.w3.org/1999/xlink">
<g id="graph0" class="graph" transform="scale(1 1) rotate(0) translate(4 167)">
<title>python.expansion.Taylor</title>
<polygon fill="white" stroke="transparent" points="-4,4 -4,-167 980,-167 980,4 -4,4"/>
<!-- Node1 -->
<g id="node1" class="node">
<title>Node1</title>
<g id="a_node1"><a xlink:title="The Taylor expansion of a general function.">
<polygon fill="#bfbfbf" stroke="black" points="274,-50 274,-69 410,-69 410,-50 274,-50"/>
<text text-anchor="middle" x="342" y="-57" font-family="Helvetica,sans-Serif" font-size="10.00">python.expansion.Taylor</text>
</a>
</g>
</g>
<!-- Node4 -->
<g id="node4" class="node">
<title>Node4</title>
<g id="a_node4"><a xlink:href="classpython_1_1expansion_1_1Lagrange.html" target="_top" xlink:title="The Lagrange expansion of a general function.">
<polygon fill="white" stroke="black" points="447,-88 447,-107 599,-107 599,-88 447,-88"/>
<text text-anchor="middle" x="523" y="-95" font-family="Helvetica,sans-Serif" font-size="10.00">python.expansion.Lagrange</text>
</a>
</g>
</g>
<!-- Node1&#45;&gt;Node4 -->
<g id="edge3" class="edge">
<title>Node1&#45;&gt;Node4</title>
<path fill="none" stroke="midnightblue" d="M398.02,-71.18C423.41,-76.57 453.16,-82.89 477.16,-87.98"/>
<polygon fill="midnightblue" stroke="midnightblue" points="398.68,-67.74 388.17,-69.09 397.22,-74.59 398.68,-67.74"/>
</g>
<!-- Node9 -->
<g id="node9" class="node">
<title>Node9</title>
<g id="a_node9"><a xlink:href="classpython_1_1expansion_1_1Legendre.html" target="_top" xlink:title="Approximate a general function based on Legendre polynomials.">
<polygon fill="white" stroke="black" points="447,-50 447,-69 599,-69 599,-50 447,-50"/>
<text text-anchor="middle" x="523" y="-57" font-family="Helvetica,sans-Serif" font-size="10.00">python.expansion.Legendre</text>
</a>
</g>
</g>
<!-- Node1&#45;&gt;Node9 -->
<g id="edge8" class="edge">
<title>Node1&#45;&gt;Node9</title>
<path fill="none" stroke="midnightblue" d="M420.41,-59.5C429.21,-59.5 438.18,-59.5 446.95,-59.5"/>
<polygon fill="midnightblue" stroke="midnightblue" points="420.16,-56 410.16,-59.5 420.16,-63 420.16,-56"/>
</g>
<!-- Node10 -->
<g id="node10" class="node">
<title>Node10</title>
<g id="a_node10"><a xlink:href="classpython_1_1expansion_1_1TruncatedLegendre.html" target="_top" xlink:title="A lower&#45;order view of a higher&#45;order Legendre expansion.">
<polygon fill="white" stroke="black" points="446,-0.5 446,-30.5 600,-30.5 600,-0.5 446,-0.5"/>
<text text-anchor="start" x="454" y="-18.5" font-family="Helvetica,sans-Serif" font-size="10.00">python.expansion.Truncated</text>
<text text-anchor="middle" x="523" y="-7.5" font-family="Helvetica,sans-Serif" font-size="10.00">Legendre</text>
</a>
</g>
</g>
<!-- Node1&#45;&gt;Node10 -->
<g id="edge9" class="edge">
<title>Node1&#45;&gt;Node10</title>
<path fill="none" stroke="midnightblue" d="M391.64,-47.54C412.93,-42.31 438.15,-36.11 460.71,-30.57"/>
<polygon fill="midnightblue" stroke="midnightblue" points="390.72,-44.17 381.84,-49.95 392.39,-50.96 390.72,-44.17"/>
</g>
<!-- Node2 -->
<g id="node2" class="node">
<title>Node2</title>
<g id="a_node2"><a xlink:href="classpython_1_1concept_1_1Expansion.html" target="_top" xlink:title="The polynomial approximation of a general function.">
<polygon fill="white" stroke="black" points="93,-50 93,-69 238,-69 238,-50 93,-50"/>
<text text-anchor="middle" x="165.5" y="-57" font-family="Helvetica,sans-Serif" font-size="10.00">python.concept.Expansion</text>
</a>
</g>
</g>
<!-- Node2&#45;&gt;Node1 -->
<g id="edge1" class="edge">
<title>Node2&#45;&gt;Node1</title>
<path fill="none" stroke="midnightblue" d="M248.5,-59.5C256.96,-59.5 265.48,-59.5 273.76,-59.5"/>
<polygon fill="midnightblue" stroke="midnightblue" points="248.23,-56 238.23,-59.5 248.23,-63 248.23,-56"/>
</g>
<!-- Node3 -->
<g id="node3" class="node">
<title>Node3</title>
<g id="a_node3"><a xlink:title=" ">
<polygon fill="white" stroke="#bfbfbf" points="0,-50 0,-69 57,-69 57,-50 0,-50"/>
<text text-anchor="middle" x="28.5" y="-57" font-family="Helvetica,sans-Serif" font-size="10.00">abc.ABC</text>
</a>
</g>
</g>
<!-- Node3&#45;&gt;Node2 -->
<g id="edge2" class="edge">
<title>Node3&#45;&gt;Node2</title>
<path fill="none" stroke="midnightblue" d="M67.24,-59.5C75.27,-59.5 84,-59.5 92.82,-59.5"/>
<polygon fill="midnightblue" stroke="midnightblue" points="67.15,-56 57.15,-59.5 67.14,-63 67.15,-56"/>
</g>
<!-- Node5 -->
<g id="node5" class="node">
<title>Node5</title>
<g id="a_node5"><a xlink:href="classpython_1_1expansion_1_1LagrangeOnGaussPoints.html" target="_top" xlink:title="Specialized Lagrange expansion using Gauss points as nodes.">
<polygon fill="white" stroke="black" points="636,-107.5 636,-137.5 788,-137.5 788,-107.5 636,-107.5"/>
<text text-anchor="start" x="644" y="-125.5" font-family="Helvetica,sans-Serif" font-size="10.00">python.expansion.Lagrange</text>
<text text-anchor="middle" x="712" y="-114.5" font-family="Helvetica,sans-Serif" font-size="10.00">OnGaussPoints</text>
</a>
</g>
</g>
<!-- Node4&#45;&gt;Node5 -->
<g id="edge4" class="edge">
<title>Node4&#45;&gt;Node5</title>
<path fill="none" stroke="midnightblue" d="M605.32,-108.37C615.49,-109.73 625.86,-111.12 635.93,-112.46"/>
<polygon fill="midnightblue" stroke="midnightblue" points="605.61,-104.88 595.23,-107.02 604.68,-111.82 605.61,-104.88"/>
</g>
<!-- Node8 -->
<g id="node8" class="node">
<title>Node8</title>
<g id="a_node8"><a xlink:href="classpython_1_1expansion_1_1LagrangeOnUniformRoots.html" target="_top" xlink:title="Specialized Lagrange expansion using uniform roots as nodes.">
<polygon fill="white" stroke="black" points="636,-58.5 636,-88.5 788,-88.5 788,-58.5 636,-58.5"/>
<text text-anchor="start" x="644" y="-76.5" font-family="Helvetica,sans-Serif" font-size="10.00">python.expansion.Lagrange</text>
<text text-anchor="middle" x="712" y="-65.5" font-family="Helvetica,sans-Serif" font-size="10.00">OnUniformRoots</text>
</a>
</g>
</g>
<!-- Node4&#45;&gt;Node8 -->
<g id="edge7" class="edge">
<title>Node4&#45;&gt;Node8</title>
<path fill="none" stroke="midnightblue" d="M608.17,-86.7C617.45,-85.51 626.84,-84.3 636,-83.13"/>
<polygon fill="midnightblue" stroke="midnightblue" points="607.65,-83.24 598.18,-87.98 608.54,-90.18 607.65,-83.24"/>
</g>
<!-- Node6 -->
<g id="node6" class="node">
<title>Node6</title>
<g id="a_node6"><a xlink:href="classpython_1_1expansion_1_1LagrangeOnLegendreRoots.html" target="_top" xlink:title="Specialized Lagrange expansion using Legendre roots as nodes.">
<polygon fill="white" stroke="black" points="824,-132.5 824,-162.5 976,-162.5 976,-132.5 824,-132.5"/>
<text text-anchor="start" x="832" y="-150.5" font-family="Helvetica,sans-Serif" font-size="10.00">python.expansion.Lagrange</text>
<text text-anchor="middle" x="900" y="-139.5" font-family="Helvetica,sans-Serif" font-size="10.00">OnLegendreRoots</text>
</a>
</g>
</g>
<!-- Node5&#45;&gt;Node6 -->
<g id="edge5" class="edge">
<title>Node5&#45;&gt;Node6</title>
<path fill="none" stroke="midnightblue" d="M798.15,-133.94C806.74,-135.1 815.43,-136.27 823.9,-137.41"/>
<polygon fill="midnightblue" stroke="midnightblue" points="798.49,-130.46 788.12,-132.6 797.56,-137.4 798.49,-130.46"/>
</g>
<!-- Node7 -->
<g id="node7" class="node">
<title>Node7</title>
<g id="a_node7"><a xlink:href="classpython_1_1expansion_1_1LagrangeOnLobattoRoots.html" target="_top" xlink:title="Specialized Lagrange expansion using Lobatto roots as nodes.">
<polygon fill="white" stroke="black" points="824,-83.5 824,-113.5 976,-113.5 976,-83.5 824,-83.5"/>
<text text-anchor="start" x="832" y="-101.5" font-family="Helvetica,sans-Serif" font-size="10.00">python.expansion.Lagrange</text>
<text text-anchor="middle" x="900" y="-90.5" font-family="Helvetica,sans-Serif" font-size="10.00">OnLobattoRoots</text>
</a>
</g>
</g>
<!-- Node5&#45;&gt;Node7 -->
<g id="edge6" class="edge">
<title>Node5&#45;&gt;Node7</title>
<path fill="none" stroke="midnightblue" d="M798.15,-111.51C806.74,-110.4 815.43,-109.28 823.9,-108.19"/>
<polygon fill="midnightblue" stroke="midnightblue" points="797.59,-108.06 788.12,-112.81 798.48,-115 797.59,-108.06"/>
</g>
</g>
</svg>
