<?xml version="1.0" encoding="UTF-8" standalone="no"?>
<!DOCTYPE svg PUBLIC "-//W3C//DTD SVG 1.1//EN"
 "http://www.w3.org/Graphics/SVG/1.1/DTD/svg11.dtd">
<!-- Generated by graphviz version 2.43.0 (0)
 -->
<!-- Title: python.equation.Euler Pages: 1 -->
<svg width="182pt" height="196pt"
 viewBox="0.00 0.00 182.00 196.00" xmlns="http://www.w3.org/2000/svg" xmlns:xlink="http://www.w3.org/1999/xlink">
<g id="graph0" class="graph" transform="scale(1 1) rotate(0) translate(4 192)">
<title>python.equation.Euler</title>
<polygon fill="white" stroke="transparent" points="-4,4 -4,-192 178,-192 178,4 -4,4"/>
<!-- Node1 -->
<g id="node1" class="node">
<title>Node1</title>
<g id="a_node1"><a xlink:title=" ">
<polygon fill="#bfbfbf" stroke="black" points="25,-0.5 25,-19.5 149,-19.5 149,-0.5 25,-0.5"/>
<text text-anchor="middle" x="87" y="-7.5" font-family="Helvetica,sans-Serif" font-size="10.00">python.equation.Euler</text>
</a>
</g>
</g>
<!-- Node2 -->
<g id="node2" class="node">
<title>Node2</title>
<g id="a_node2"><a xlink:href="classpython_1_1concept_1_1EquationSystem.html" target="_top" xlink:title=" ">
<polygon fill="white" stroke="black" points="0,-56.5 0,-75.5 174,-75.5 174,-56.5 0,-56.5"/>
<text text-anchor="middle" x="87" y="-63.5" font-family="Helvetica,sans-Serif" font-size="10.00">python.concept.EquationSystem</text>
</a>
</g>
</g>
<!-- Node2&#45;&gt;Node1 -->
<g id="edge1" class="edge">
<title>Node2&#45;&gt;Node1</title>
<path fill="none" stroke="midnightblue" d="M87,-45.8C87,-36.91 87,-26.78 87,-19.75"/>
<polygon fill="midnightblue" stroke="midnightblue" points="83.5,-46.08 87,-56.08 90.5,-46.08 83.5,-46.08"/>
</g>
<!-- Node3 -->
<g id="node3" class="node">
<title>Node3</title>
<g id="a_node3"><a xlink:href="classpython_1_1concept_1_1Equation.html" target="_top" xlink:title="A PDE in the form of .">
<polygon fill="white" stroke="black" points="18.5,-112.5 18.5,-131.5 155.5,-131.5 155.5,-112.5 18.5,-112.5"/>
<text text-anchor="middle" x="87" y="-119.5" font-family="Helvetica,sans-Serif" font-size="10.00">python.concept.Equation</text>
</a>
</g>
</g>
<!-- Node3&#45;&gt;Node2 -->
<g id="edge2" class="edge">
<title>Node3&#45;&gt;Node2</title>
<path fill="none" stroke="midnightblue" d="M87,-101.8C87,-92.91 87,-82.78 87,-75.75"/>
<polygon fill="midnightblue" stroke="midnightblue" points="83.5,-102.08 87,-112.08 90.5,-102.08 83.5,-102.08"/>
</g>
<!-- Node4 -->
<g id="node4" class="node">
<title>Node4</title>
<g id="a_node4"><a xlink:title=" ">
<polygon fill="white" stroke="#bfbfbf" points="58.5,-168.5 58.5,-187.5 115.5,-187.5 115.5,-168.5 58.5,-168.5"/>
<text text-anchor="middle" x="87" y="-175.5" font-family="Helvetica,sans-Serif" font-size="10.00">abc.ABC</text>
</a>
</g>
</g>
<!-- Node4&#45;&gt;Node3 -->
<g id="edge3" class="edge">
<title>Node4&#45;&gt;Node3</title>
<path fill="none" stroke="midnightblue" d="M87,-157.8C87,-148.91 87,-138.78 87,-131.75"/>
<polygon fill="midnightblue" stroke="midnightblue" points="83.5,-158.08 87,-168.08 90.5,-158.08 83.5,-158.08"/>
</g>
</g>
</svg>
