<?xml version="1.0" encoding="UTF-8" standalone="no"?>
<!DOCTYPE svg PUBLIC "-//W3C//DTD SVG 1.1//EN"
 "http://www.w3.org/Graphics/SVG/1.1/DTD/svg11.dtd">
<!-- Generated by graphviz version 2.43.0 (0)
 -->
<!-- Title: python.element.DGonLegendreRoots Pages: 1 -->
<svg width="177pt" height="341pt"
 viewBox="0.00 0.00 177.00 341.00" xmlns="http://www.w3.org/2000/svg" xmlns:xlink="http://www.w3.org/1999/xlink">
<g id="graph0" class="graph" transform="scale(1 1) rotate(0) translate(4 337)">
<title>python.element.DGonLegendreRoots</title>
<polygon fill="white" stroke="transparent" points="-4,4 -4,-337 173,-337 173,4 -4,4"/>
<!-- Node1 -->
<g id="node1" class="node">
<title>Node1</title>
<g id="a_node1"><a xlink:title="Specialized DGonGaussPoints using Legendre roots as solution points.">
<polygon fill="#bfbfbf" stroke="black" points="0,-0.5 0,-30.5 169,-30.5 169,-0.5 0,-0.5"/>
<text text-anchor="start" x="8" y="-18.5" font-family="Helvetica,sans-Serif" font-size="10.00">python.element.DGonLegendre</text>
<text text-anchor="middle" x="84.5" y="-7.5" font-family="Helvetica,sans-Serif" font-size="10.00">Roots</text>
</a>
</g>
</g>
<!-- Node2 -->
<g id="node2" class="node">
<title>Node2</title>
<g id="a_node2"><a xlink:href="classpython_1_1element_1_1DGonGaussPoints.html" target="_top" xlink:title="Specialized LagrangeDG using Gauss points as solution points.">
<polygon fill="white" stroke="black" points="7.5,-67.5 7.5,-97.5 161.5,-97.5 161.5,-67.5 7.5,-67.5"/>
<text text-anchor="start" x="15.5" y="-85.5" font-family="Helvetica,sans-Serif" font-size="10.00">python.element.DGonGauss</text>
<text text-anchor="middle" x="84.5" y="-74.5" font-family="Helvetica,sans-Serif" font-size="10.00">Points</text>
</a>
</g>
</g>
<!-- Node2&#45;&gt;Node1 -->
<g id="edge1" class="edge">
<title>Node2&#45;&gt;Node1</title>
<path fill="none" stroke="midnightblue" d="M84.5,-57.11C84.5,-48.15 84.5,-38.32 84.5,-30.58"/>
<polygon fill="midnightblue" stroke="midnightblue" points="81,-57.4 84.5,-67.4 88,-57.4 81,-57.4"/>
</g>
<!-- Node3 -->
<g id="node3" class="node">
<title>Node3</title>
<g id="a_node3"><a xlink:href="classpython_1_1element_1_1LagrangeDG.html" target="_top" xlink:title="Element for implement the DG scheme using a Lagrange expansion.">
<polygon fill="white" stroke="black" points="6,-134.5 6,-153.5 163,-153.5 163,-134.5 6,-134.5"/>
<text text-anchor="middle" x="84.5" y="-141.5" font-family="Helvetica,sans-Serif" font-size="10.00">python.element.LagrangeDG</text>
</a>
</g>
</g>
<!-- Node3&#45;&gt;Node2 -->
<g id="edge2" class="edge">
<title>Node3&#45;&gt;Node2</title>
<path fill="none" stroke="midnightblue" d="M84.5,-124.23C84.5,-115.59 84.5,-105.5 84.5,-97.52"/>
<polygon fill="midnightblue" stroke="midnightblue" points="81,-124.48 84.5,-134.48 88,-124.48 81,-124.48"/>
</g>
<!-- Node4 -->
<g id="node4" class="node">
<title>Node4</title>
<g id="a_node4"><a xlink:href="classpython_1_1element_1_1DiscontinuousGalerkin.html" target="_top" xlink:title="Element for implement DG schemes.">
<polygon fill="white" stroke="black" points="1.5,-190.5 1.5,-220.5 167.5,-220.5 167.5,-190.5 1.5,-190.5"/>
<text text-anchor="start" x="9.5" y="-208.5" font-family="Helvetica,sans-Serif" font-size="10.00">python.element.Discontinuous</text>
<text text-anchor="middle" x="84.5" y="-197.5" font-family="Helvetica,sans-Serif" font-size="10.00">Galerkin</text>
</a>
</g>
</g>
<!-- Node4&#45;&gt;Node3 -->
<g id="edge3" class="edge">
<title>Node4&#45;&gt;Node3</title>
<path fill="none" stroke="midnightblue" d="M84.5,-180.29C84.5,-170.86 84.5,-160.65 84.5,-153.66"/>
<polygon fill="midnightblue" stroke="midnightblue" points="81,-180.4 84.5,-190.4 88,-180.4 81,-180.4"/>
</g>
<!-- Node5 -->
<g id="node5" class="node">
<title>Node5</title>
<g id="a_node5"><a xlink:href="classpython_1_1concept_1_1Element.html" target="_top" xlink:title="A cell&#45;like object that carries some expansion of the solution.">
<polygon fill="white" stroke="black" points="17,-257.5 17,-276.5 152,-276.5 152,-257.5 17,-257.5"/>
<text text-anchor="middle" x="84.5" y="-264.5" font-family="Helvetica,sans-Serif" font-size="10.00">python.concept.Element</text>
</a>
</g>
</g>
<!-- Node5&#45;&gt;Node4 -->
<g id="edge4" class="edge">
<title>Node5&#45;&gt;Node4</title>
<path fill="none" stroke="midnightblue" d="M84.5,-247.23C84.5,-238.59 84.5,-228.5 84.5,-220.52"/>
<polygon fill="midnightblue" stroke="midnightblue" points="81,-247.48 84.5,-257.48 88,-247.48 81,-247.48"/>
</g>
<!-- Node6 -->
<g id="node6" class="node">
<title>Node6</title>
<g id="a_node6"><a xlink:title=" ">
<polygon fill="white" stroke="#bfbfbf" points="56,-313.5 56,-332.5 113,-332.5 113,-313.5 56,-313.5"/>
<text text-anchor="middle" x="84.5" y="-320.5" font-family="Helvetica,sans-Serif" font-size="10.00">abc.ABC</text>
</a>
</g>
</g>
<!-- Node6&#45;&gt;Node5 -->
<g id="edge5" class="edge">
<title>Node6&#45;&gt;Node5</title>
<path fill="none" stroke="midnightblue" d="M84.5,-302.8C84.5,-293.91 84.5,-283.78 84.5,-276.75"/>
<polygon fill="midnightblue" stroke="midnightblue" points="81,-303.08 84.5,-313.08 88,-303.08 81,-303.08"/>
</g>
</g>
</svg>
