<?xml version="1.0" encoding="UTF-8" standalone="no"?>
<!DOCTYPE svg PUBLIC "-//W3C//DTD SVG 1.1//EN"
 "http://www.w3.org/Graphics/SVG/1.1/DTD/svg11.dtd">
<!-- Generated by graphviz version 2.43.0 (0)
 -->
<!-- Title: python.spatial.FluxReconstruction Pages: 1 -->
<svg width="1062pt" height="176pt"
 viewBox="0.00 0.00 1062.00 175.50" xmlns="http://www.w3.org/2000/svg" xmlns:xlink="http://www.w3.org/1999/xlink">
<g id="graph0" class="graph" transform="scale(1 1) rotate(0) translate(4 171.5)">
<title>python.spatial.FluxReconstruction</title>
<polygon fill="white" stroke="transparent" points="-4,4 -4,-171.5 1058,-171.5 1058,4 -4,4"/>
<!-- Node1 -->
<g id="node1" class="node">
<title>Node1</title>
<g id="a_node1"><a xlink:title="An mid&#45;level class that defines common methods for all FR schemes.">
<polygon fill="#bfbfbf" stroke="black" points="676,-68.5 676,-87.5 859,-87.5 859,-68.5 676,-68.5"/>
<text text-anchor="middle" x="767.5" y="-75.5" font-family="Helvetica,sans-Serif" font-size="10.00">python.spatial.FluxReconstruction</text>
</a>
</g>
</g>
<!-- Node7 -->
<g id="node7" class="node">
<title>Node7</title>
<g id="a_node7"><a xlink:href="classpython_1_1spatial_1_1FRonLegendreRoots.html" target="_top" xlink:title="The ODE system given by the FR method using a Lagrange expansion on Legendre roots.">
<polygon fill="white" stroke="black" points="895,-137 895,-167 1054,-167 1054,-137 895,-137"/>
<text text-anchor="start" x="903" y="-155" font-family="Helvetica,sans-Serif" font-size="10.00">python.spatial.FRonLegendre</text>
<text text-anchor="middle" x="974.5" y="-144" font-family="Helvetica,sans-Serif" font-size="10.00">Roots</text>
</a>
</g>
</g>
<!-- Node1&#45;&gt;Node7 -->
<g id="edge7" class="edge">
<title>Node1&#45;&gt;Node7</title>
<path fill="none" stroke="midnightblue" d="M800.65,-91.53C826.06,-102.02 862.53,-116.64 895,-128 903.74,-131.06 913.11,-134.11 922.21,-136.96"/>
<polygon fill="midnightblue" stroke="midnightblue" points="801.72,-88.19 791.15,-87.58 799.04,-94.65 801.72,-88.19"/>
</g>
<!-- Node8 -->
<g id="node8" class="node">
<title>Node8</title>
<g id="a_node8"><a xlink:href="classpython_1_1spatial_1_1FRonLobattoRoots.html" target="_top" xlink:title="The ODE system given by the FR method using a Lagrange expansion on Lobatto roots.">
<polygon fill="white" stroke="black" points="899,-88 899,-118 1050,-118 1050,-88 899,-88"/>
<text text-anchor="start" x="907" y="-106" font-family="Helvetica,sans-Serif" font-size="10.00">python.spatial.FRonLobatto</text>
<text text-anchor="middle" x="974.5" y="-95" font-family="Helvetica,sans-Serif" font-size="10.00">Roots</text>
</a>
</g>
</g>
<!-- Node1&#45;&gt;Node8 -->
<g id="edge8" class="edge">
<title>Node1&#45;&gt;Node8</title>
<path fill="none" stroke="midnightblue" d="M856.69,-88.76C870.68,-90.46 885.03,-92.21 898.67,-93.87"/>
<polygon fill="midnightblue" stroke="midnightblue" points="856.94,-85.26 846.59,-87.52 856.09,-92.21 856.94,-85.26"/>
</g>
<!-- Node9 -->
<g id="node9" class="node">
<title>Node9</title>
<g id="a_node9"><a xlink:href="classpython_1_1spatial_1_1FRonUniformRoots.html" target="_top" xlink:title="The ODE system given by the DG method using a Lagrange expansion on uniform roots.">
<polygon fill="white" stroke="black" points="897.5,-39 897.5,-69 1051.5,-69 1051.5,-39 897.5,-39"/>
<text text-anchor="start" x="905.5" y="-57" font-family="Helvetica,sans-Serif" font-size="10.00">python.spatial.FRonUniform</text>
<text text-anchor="middle" x="974.5" y="-46" font-family="Helvetica,sans-Serif" font-size="10.00">Roots</text>
</a>
</g>
</g>
<!-- Node1&#45;&gt;Node9 -->
<g id="edge9" class="edge">
<title>Node1&#45;&gt;Node9</title>
<path fill="none" stroke="midnightblue" d="M859.8,-67.31C872.32,-65.85 885.07,-64.35 897.29,-62.92"/>
<polygon fill="midnightblue" stroke="midnightblue" points="859.34,-63.84 849.82,-68.48 860.16,-70.79 859.34,-63.84"/>
</g>
<!-- Node10 -->
<g id="node10" class="node">
<title>Node10</title>
<g id="a_node10"><a xlink:href="classpython_1_1spatial_1_1LegendreFR.html" target="_top" xlink:title="The ODE system given by the FR method using a Legendre expansion.">
<polygon fill="white" stroke="black" points="901,-0.5 901,-19.5 1048,-19.5 1048,-0.5 901,-0.5"/>
<text text-anchor="middle" x="974.5" y="-7.5" font-family="Helvetica,sans-Serif" font-size="10.00">python.spatial.LegendreFR</text>
</a>
</g>
</g>
<!-- Node1&#45;&gt;Node10 -->
<g id="edge10" class="edge">
<title>Node1&#45;&gt;Node10</title>
<path fill="none" stroke="midnightblue" d="M800.04,-64.44C825.38,-53.88 862.06,-39.32 895,-29 906.11,-25.52 918.26,-22.3 929.62,-19.54"/>
<polygon fill="midnightblue" stroke="midnightblue" points="798.44,-61.32 790.58,-68.42 801.15,-67.77 798.44,-61.32"/>
</g>
<!-- Node2 -->
<g id="node2" class="node">
<title>Node2</title>
<g id="a_node2"><a xlink:href="classpython_1_1spatial_1_1FiniteElement.html" target="_top" xlink:title="An ODE system given by some FiniteElement scheme.">
<polygon fill="white" stroke="black" points="483,-68.5 483,-87.5 640,-87.5 640,-68.5 483,-68.5"/>
<text text-anchor="middle" x="561.5" y="-75.5" font-family="Helvetica,sans-Serif" font-size="10.00">python.spatial.FiniteElement</text>
</a>
</g>
</g>
<!-- Node2&#45;&gt;Node1 -->
<g id="edge1" class="edge">
<title>Node2&#45;&gt;Node1</title>
<path fill="none" stroke="midnightblue" d="M650.36,-78C658.75,-78 667.27,-78 675.68,-78"/>
<polygon fill="midnightblue" stroke="midnightblue" points="650.21,-74.5 640.21,-78 650.21,-81.5 650.21,-74.5"/>
</g>
<!-- Node3 -->
<g id="node3" class="node">
<title>Node3</title>
<g id="a_node3"><a xlink:href="classpython_1_1concept_1_1SpatialScheme.html" target="_top" xlink:title="An ODE system given by some FiniteElement scheme.">
<polygon fill="white" stroke="black" points="280,-68.5 280,-87.5 447,-87.5 447,-68.5 280,-68.5"/>
<text text-anchor="middle" x="363.5" y="-75.5" font-family="Helvetica,sans-Serif" font-size="10.00">python.concept.SpatialScheme</text>
</a>
</g>
</g>
<!-- Node3&#45;&gt;Node2 -->
<g id="edge2" class="edge">
<title>Node3&#45;&gt;Node2</title>
<path fill="none" stroke="midnightblue" d="M457.09,-78C465.67,-78 474.3,-78 482.73,-78"/>
<polygon fill="midnightblue" stroke="midnightblue" points="457.05,-74.5 447.05,-78 457.05,-81.5 457.05,-74.5"/>
</g>
<!-- Node4 -->
<g id="node4" class="node">
<title>Node4</title>
<g id="a_node4"><a xlink:href="classpython_1_1concept_1_1Grid.html" target="_top" xlink:title=" ">
<polygon fill="white" stroke="black" points="111,-87.5 111,-106.5 226,-106.5 226,-87.5 111,-87.5"/>
<text text-anchor="middle" x="168.5" y="-94.5" font-family="Helvetica,sans-Serif" font-size="10.00">python.concept.Grid</text>
</a>
</g>
</g>
<!-- Node4&#45;&gt;Node3 -->
<g id="edge3" class="edge">
<title>Node4&#45;&gt;Node3</title>
<path fill="none" stroke="midnightblue" d="M236.15,-90.44C250.2,-89.06 265.18,-87.58 279.74,-86.15"/>
<polygon fill="midnightblue" stroke="midnightblue" points="235.71,-86.96 226.1,-91.43 236.4,-93.93 235.71,-86.96"/>
</g>
<!-- Node5 -->
<g id="node5" class="node">
<title>Node5</title>
<g id="a_node5"><a xlink:title=" ">
<polygon fill="white" stroke="#bfbfbf" points="0,-68.5 0,-87.5 57,-87.5 57,-68.5 0,-68.5"/>
<text text-anchor="middle" x="28.5" y="-75.5" font-family="Helvetica,sans-Serif" font-size="10.00">abc.ABC</text>
</a>
</g>
</g>
<!-- Node5&#45;&gt;Node4 -->
<g id="edge4" class="edge">
<title>Node5&#45;&gt;Node4</title>
<path fill="none" stroke="midnightblue" d="M67.38,-83.22C80.81,-85.06 96.22,-87.19 110.86,-89.2"/>
<polygon fill="midnightblue" stroke="midnightblue" points="67.48,-79.7 57.09,-81.8 66.52,-86.63 67.48,-79.7"/>
</g>
<!-- Node6 -->
<g id="node6" class="node">
<title>Node6</title>
<g id="a_node6"><a xlink:href="classpython_1_1concept_1_1OdeSystem.html" target="_top" xlink:title="A system of ODEs in the form of dU/∂t = R.">
<polygon fill="white" stroke="black" points="93,-49.5 93,-68.5 244,-68.5 244,-49.5 93,-49.5"/>
<text text-anchor="middle" x="168.5" y="-56.5" font-family="Helvetica,sans-Serif" font-size="10.00">python.concept.OdeSystem</text>
</a>
</g>
</g>
<!-- Node5&#45;&gt;Node6 -->
<g id="edge6" class="edge">
<title>Node5&#45;&gt;Node6</title>
<path fill="none" stroke="midnightblue" d="M67.13,-72.82C76.8,-71.49 87.52,-70.01 98.24,-68.54"/>
<polygon fill="midnightblue" stroke="midnightblue" points="66.52,-69.37 57.09,-74.2 67.48,-76.3 66.52,-69.37"/>
</g>
<!-- Node6&#45;&gt;Node3 -->
<g id="edge5" class="edge">
<title>Node6&#45;&gt;Node3</title>
<path fill="none" stroke="midnightblue" d="M254.33,-67.35C262.77,-68.18 271.33,-69.02 279.74,-69.85"/>
<polygon fill="midnightblue" stroke="midnightblue" points="254.41,-63.84 244.12,-66.35 253.73,-70.81 254.41,-63.84"/>
</g>
</g>
</svg>
