<?xml version="1.0" encoding="UTF-8" standalone="no"?>
<!DOCTYPE svg PUBLIC "-//W3C//DTD SVG 1.1//EN"
 "http://www.w3.org/Graphics/SVG/1.1/DTD/svg11.dtd">
<!-- Generated by graphviz version 2.43.0 (0)
 -->
<!-- Title: python.element.DGonUniformRoots Pages: 1 -->
<svg width="174pt" height="274pt"
 viewBox="0.00 0.00 174.00 274.00" xmlns="http://www.w3.org/2000/svg" xmlns:xlink="http://www.w3.org/1999/xlink">
<g id="graph0" class="graph" transform="scale(1 1) rotate(0) translate(4 270)">
<title>python.element.DGonUniformRoots</title>
<polygon fill="white" stroke="transparent" points="-4,4 -4,-270 170,-270 170,4 -4,4"/>
<!-- Node1 -->
<g id="node1" class="node">
<title>Node1</title>
<g id="a_node1"><a xlink:title="Specialized LagrangeDG using uniform (internal) roots as solution points.">
<polygon fill="#bfbfbf" stroke="black" points="1,-0.5 1,-30.5 165,-30.5 165,-0.5 1,-0.5"/>
<text text-anchor="start" x="9" y="-18.5" font-family="Helvetica,sans-Serif" font-size="10.00">python.element.DGonUniform</text>
<text text-anchor="middle" x="83" y="-7.5" font-family="Helvetica,sans-Serif" font-size="10.00">Roots</text>
</a>
</g>
</g>
<!-- Node2 -->
<g id="node2" class="node">
<title>Node2</title>
<g id="a_node2"><a xlink:href="classpython_1_1element_1_1LagrangeDG.html" target="_top" xlink:title="Element for implement the DG scheme using a Lagrange expansion.">
<polygon fill="white" stroke="black" points="4.5,-67.5 4.5,-86.5 161.5,-86.5 161.5,-67.5 4.5,-67.5"/>
<text text-anchor="middle" x="83" y="-74.5" font-family="Helvetica,sans-Serif" font-size="10.00">python.element.LagrangeDG</text>
</a>
</g>
</g>
<!-- Node2&#45;&gt;Node1 -->
<g id="edge1" class="edge">
<title>Node2&#45;&gt;Node1</title>
<path fill="none" stroke="midnightblue" d="M83,-57.23C83,-48.59 83,-38.5 83,-30.52"/>
<polygon fill="midnightblue" stroke="midnightblue" points="79.5,-57.48 83,-67.48 86.5,-57.48 79.5,-57.48"/>
</g>
<!-- Node3 -->
<g id="node3" class="node">
<title>Node3</title>
<g id="a_node3"><a xlink:href="classpython_1_1element_1_1DiscontinuousGalerkin.html" target="_top" xlink:title="Element for implement DG schemes.">
<polygon fill="white" stroke="black" points="0,-123.5 0,-153.5 166,-153.5 166,-123.5 0,-123.5"/>
<text text-anchor="start" x="8" y="-141.5" font-family="Helvetica,sans-Serif" font-size="10.00">python.element.Discontinuous</text>
<text text-anchor="middle" x="83" y="-130.5" font-family="Helvetica,sans-Serif" font-size="10.00">Galerkin</text>
</a>
</g>
</g>
<!-- Node3&#45;&gt;Node2 -->
<g id="edge2" class="edge">
<title>Node3&#45;&gt;Node2</title>
<path fill="none" stroke="midnightblue" d="M83,-113.29C83,-103.86 83,-93.65 83,-86.66"/>
<polygon fill="midnightblue" stroke="midnightblue" points="79.5,-113.4 83,-123.4 86.5,-113.4 79.5,-113.4"/>
</g>
<!-- Node4 -->
<g id="node4" class="node">
<title>Node4</title>
<g id="a_node4"><a xlink:href="classpython_1_1concept_1_1Element.html" target="_top" xlink:title="A cell&#45;like object that carries some expansion of the solution.">
<polygon fill="white" stroke="black" points="15.5,-190.5 15.5,-209.5 150.5,-209.5 150.5,-190.5 15.5,-190.5"/>
<text text-anchor="middle" x="83" y="-197.5" font-family="Helvetica,sans-Serif" font-size="10.00">python.concept.Element</text>
</a>
</g>
</g>
<!-- Node4&#45;&gt;Node3 -->
<g id="edge3" class="edge">
<title>Node4&#45;&gt;Node3</title>
<path fill="none" stroke="midnightblue" d="M83,-180.23C83,-171.59 83,-161.5 83,-153.52"/>
<polygon fill="midnightblue" stroke="midnightblue" points="79.5,-180.48 83,-190.48 86.5,-180.48 79.5,-180.48"/>
</g>
<!-- Node5 -->
<g id="node5" class="node">
<title>Node5</title>
<g id="a_node5"><a xlink:title=" ">
<polygon fill="white" stroke="#bfbfbf" points="54.5,-246.5 54.5,-265.5 111.5,-265.5 111.5,-246.5 54.5,-246.5"/>
<text text-anchor="middle" x="83" y="-253.5" font-family="Helvetica,sans-Serif" font-size="10.00">abc.ABC</text>
</a>
</g>
</g>
<!-- Node5&#45;&gt;Node4 -->
<g id="edge4" class="edge">
<title>Node5&#45;&gt;Node4</title>
<path fill="none" stroke="midnightblue" d="M83,-235.8C83,-226.91 83,-216.78 83,-209.75"/>
<polygon fill="midnightblue" stroke="midnightblue" points="79.5,-236.08 83,-246.08 86.5,-236.08 79.5,-236.08"/>
</g>
</g>
</svg>
