<?xml version="1.0" encoding="UTF-8" standalone="no"?>
<!DOCTYPE svg PUBLIC "-//W3C//DTD SVG 1.1//EN"
 "http://www.w3.org/Graphics/SVG/1.1/DTD/svg11.dtd">
<!-- Generated by graphviz version 2.43.0 (0)
 -->
<!-- Title: python.concept.Expansion Pages: 1 -->
<svg width="988pt" height="171pt"
 viewBox="0.00 0.00 988.00 171.00" xmlns="http://www.w3.org/2000/svg" xmlns:xlink="http://www.w3.org/1999/xlink">
<g id="graph0" class="graph" transform="scale(1 1) rotate(0) translate(4 167)">
<title>python.concept.Expansion</title>
<polygon fill="white" stroke="transparent" points="-4,4 -4,-167 984,-167 984,4 -4,4"/>
<!-- Node1 -->
<g id="node1" class="node">
<title>Node1</title>
<g id="a_node1"><a xlink:title="The polynomial approximation of a general function.">
<polygon fill="#bfbfbf" stroke="black" points="93,-69 93,-88 238,-88 238,-69 93,-69"/>
<text text-anchor="middle" x="165.5" y="-76" font-family="Helvetica,sans-Serif" font-size="10.00">python.concept.Expansion</text>
</a>
</g>
</g>
<!-- Node3 -->
<g id="node3" class="node">
<title>Node3</title>
<g id="a_node3"><a xlink:href="classpython_1_1expansion_1_1Shifted.html" target="_top" xlink:title="An wrapper that acts as if a given expansion is shifted along x&#45;axis by a given amount.">
<polygon fill="white" stroke="black" points="274,-88 274,-107 414,-107 414,-88 274,-88"/>
<text text-anchor="middle" x="344" y="-95" font-family="Helvetica,sans-Serif" font-size="10.00">python.expansion.Shifted</text>
</a>
</g>
</g>
<!-- Node1&#45;&gt;Node3 -->
<g id="edge2" class="edge">
<title>Node1&#45;&gt;Node3</title>
<path fill="none" stroke="midnightblue" d="M248.11,-87.29C256.75,-88.21 265.47,-89.15 273.94,-90.07"/>
<polygon fill="midnightblue" stroke="midnightblue" points="248.35,-83.79 238.03,-86.2 247.6,-90.75 248.35,-83.79"/>
</g>
<!-- Node4 -->
<g id="node4" class="node">
<title>Node4</title>
<g id="a_node4"><a xlink:href="classpython_1_1expansion_1_1Taylor.html" target="_top" xlink:title="The Taylor expansion of a general function.">
<polygon fill="white" stroke="black" points="276,-50 276,-69 412,-69 412,-50 276,-50"/>
<text text-anchor="middle" x="344" y="-57" font-family="Helvetica,sans-Serif" font-size="10.00">python.expansion.Taylor</text>
</a>
</g>
</g>
<!-- Node1&#45;&gt;Node4 -->
<g id="edge3" class="edge">
<title>Node1&#45;&gt;Node4</title>
<path fill="none" stroke="midnightblue" d="M248.09,-69.72C257.41,-68.71 266.83,-67.7 275.93,-66.72"/>
<polygon fill="midnightblue" stroke="midnightblue" points="247.6,-66.25 238.03,-70.8 248.35,-73.21 247.6,-66.25"/>
</g>
<!-- Node2 -->
<g id="node2" class="node">
<title>Node2</title>
<g id="a_node2"><a xlink:title=" ">
<polygon fill="white" stroke="#bfbfbf" points="0,-69 0,-88 57,-88 57,-69 0,-69"/>
<text text-anchor="middle" x="28.5" y="-76" font-family="Helvetica,sans-Serif" font-size="10.00">abc.ABC</text>
</a>
</g>
</g>
<!-- Node2&#45;&gt;Node1 -->
<g id="edge1" class="edge">
<title>Node2&#45;&gt;Node1</title>
<path fill="none" stroke="midnightblue" d="M67.24,-78.5C75.27,-78.5 84,-78.5 92.82,-78.5"/>
<polygon fill="midnightblue" stroke="midnightblue" points="67.15,-75 57.15,-78.5 67.14,-82 67.15,-75"/>
</g>
<!-- Node5 -->
<g id="node5" class="node">
<title>Node5</title>
<g id="a_node5"><a xlink:href="classpython_1_1expansion_1_1Lagrange.html" target="_top" xlink:title="The Lagrange expansion of a general function.">
<polygon fill="white" stroke="black" points="451,-88 451,-107 603,-107 603,-88 451,-88"/>
<text text-anchor="middle" x="527" y="-95" font-family="Helvetica,sans-Serif" font-size="10.00">python.expansion.Lagrange</text>
</a>
</g>
</g>
<!-- Node4&#45;&gt;Node5 -->
<g id="edge4" class="edge">
<title>Node4&#45;&gt;Node5</title>
<path fill="none" stroke="midnightblue" d="M400.64,-71.18C426.31,-76.57 456.39,-82.89 480.65,-87.98"/>
<polygon fill="midnightblue" stroke="midnightblue" points="401.18,-67.72 390.67,-69.09 399.74,-74.57 401.18,-67.72"/>
</g>
<!-- Node10 -->
<g id="node10" class="node">
<title>Node10</title>
<g id="a_node10"><a xlink:href="classpython_1_1expansion_1_1Legendre.html" target="_top" xlink:title="Approximate a general function based on Legendre polynomials.">
<polygon fill="white" stroke="black" points="451,-50 451,-69 603,-69 603,-50 451,-50"/>
<text text-anchor="middle" x="527" y="-57" font-family="Helvetica,sans-Serif" font-size="10.00">python.expansion.Legendre</text>
</a>
</g>
</g>
<!-- Node4&#45;&gt;Node10 -->
<g id="edge9" class="edge">
<title>Node4&#45;&gt;Node10</title>
<path fill="none" stroke="midnightblue" d="M422.28,-59.5C431.71,-59.5 441.34,-59.5 450.74,-59.5"/>
<polygon fill="midnightblue" stroke="midnightblue" points="422.14,-56 412.14,-59.5 422.14,-63 422.14,-56"/>
</g>
<!-- Node11 -->
<g id="node11" class="node">
<title>Node11</title>
<g id="a_node11"><a xlink:href="classpython_1_1expansion_1_1TruncatedLegendre.html" target="_top" xlink:title="A lower&#45;order view of a higher&#45;order Legendre expansion.">
<polygon fill="white" stroke="black" points="450,-0.5 450,-30.5 604,-30.5 604,-0.5 450,-0.5"/>
<text text-anchor="start" x="458" y="-18.5" font-family="Helvetica,sans-Serif" font-size="10.00">python.expansion.Truncated</text>
<text text-anchor="middle" x="527" y="-7.5" font-family="Helvetica,sans-Serif" font-size="10.00">Legendre</text>
</a>
</g>
</g>
<!-- Node4&#45;&gt;Node11 -->
<g id="edge10" class="edge">
<title>Node4&#45;&gt;Node11</title>
<path fill="none" stroke="midnightblue" d="M394.18,-47.54C415.71,-42.31 441.22,-36.11 464.03,-30.57"/>
<polygon fill="midnightblue" stroke="midnightblue" points="393.16,-44.19 384.27,-49.95 394.82,-50.99 393.16,-44.19"/>
</g>
<!-- Node6 -->
<g id="node6" class="node">
<title>Node6</title>
<g id="a_node6"><a xlink:href="classpython_1_1expansion_1_1LagrangeOnGaussPoints.html" target="_top" xlink:title="Specialized Lagrange expansion using Gauss points as nodes.">
<polygon fill="white" stroke="black" points="640,-107.5 640,-137.5 792,-137.5 792,-107.5 640,-107.5"/>
<text text-anchor="start" x="648" y="-125.5" font-family="Helvetica,sans-Serif" font-size="10.00">python.expansion.Lagrange</text>
<text text-anchor="middle" x="716" y="-114.5" font-family="Helvetica,sans-Serif" font-size="10.00">OnGaussPoints</text>
</a>
</g>
</g>
<!-- Node5&#45;&gt;Node6 -->
<g id="edge5" class="edge">
<title>Node5&#45;&gt;Node6</title>
<path fill="none" stroke="midnightblue" d="M609.32,-108.37C619.49,-109.73 629.86,-111.12 639.93,-112.46"/>
<polygon fill="midnightblue" stroke="midnightblue" points="609.61,-104.88 599.23,-107.02 608.68,-111.82 609.61,-104.88"/>
</g>
<!-- Node9 -->
<g id="node9" class="node">
<title>Node9</title>
<g id="a_node9"><a xlink:href="classpython_1_1expansion_1_1LagrangeOnUniformRoots.html" target="_top" xlink:title="Specialized Lagrange expansion using uniform roots as nodes.">
<polygon fill="white" stroke="black" points="640,-58.5 640,-88.5 792,-88.5 792,-58.5 640,-58.5"/>
<text text-anchor="start" x="648" y="-76.5" font-family="Helvetica,sans-Serif" font-size="10.00">python.expansion.Lagrange</text>
<text text-anchor="middle" x="716" y="-65.5" font-family="Helvetica,sans-Serif" font-size="10.00">OnUniformRoots</text>
</a>
</g>
</g>
<!-- Node5&#45;&gt;Node9 -->
<g id="edge8" class="edge">
<title>Node5&#45;&gt;Node9</title>
<path fill="none" stroke="midnightblue" d="M612.17,-86.7C621.45,-85.51 630.84,-84.3 640,-83.13"/>
<polygon fill="midnightblue" stroke="midnightblue" points="611.65,-83.24 602.18,-87.98 612.54,-90.18 611.65,-83.24"/>
</g>
<!-- Node7 -->
<g id="node7" class="node">
<title>Node7</title>
<g id="a_node7"><a xlink:href="classpython_1_1expansion_1_1LagrangeOnLegendreRoots.html" target="_top" xlink:title="Specialized Lagrange expansion using Legendre roots as nodes.">
<polygon fill="white" stroke="black" points="828,-132.5 828,-162.5 980,-162.5 980,-132.5 828,-132.5"/>
<text text-anchor="start" x="836" y="-150.5" font-family="Helvetica,sans-Serif" font-size="10.00">python.expansion.Lagrange</text>
<text text-anchor="middle" x="904" y="-139.5" font-family="Helvetica,sans-Serif" font-size="10.00">OnLegendreRoots</text>
</a>
</g>
</g>
<!-- Node6&#45;&gt;Node7 -->
<g id="edge6" class="edge">
<title>Node6&#45;&gt;Node7</title>
<path fill="none" stroke="midnightblue" d="M802.15,-133.94C810.74,-135.1 819.43,-136.27 827.9,-137.41"/>
<polygon fill="midnightblue" stroke="midnightblue" points="802.49,-130.46 792.12,-132.6 801.56,-137.4 802.49,-130.46"/>
</g>
<!-- Node8 -->
<g id="node8" class="node">
<title>Node8</title>
<g id="a_node8"><a xlink:href="classpython_1_1expansion_1_1LagrangeOnLobattoRoots.html" target="_top" xlink:title="Specialized Lagrange expansion using Lobatto roots as nodes.">
<polygon fill="white" stroke="black" points="828,-83.5 828,-113.5 980,-113.5 980,-83.5 828,-83.5"/>
<text text-anchor="start" x="836" y="-101.5" font-family="Helvetica,sans-Serif" font-size="10.00">python.expansion.Lagrange</text>
<text text-anchor="middle" x="904" y="-90.5" font-family="Helvetica,sans-Serif" font-size="10.00">OnLobattoRoots</text>
</a>
</g>
</g>
<!-- Node6&#45;&gt;Node8 -->
<g id="edge7" class="edge">
<title>Node6&#45;&gt;Node8</title>
<path fill="none" stroke="midnightblue" d="M802.15,-111.51C810.74,-110.4 819.43,-109.28 827.9,-108.19"/>
<polygon fill="midnightblue" stroke="midnightblue" points="801.59,-108.06 792.12,-112.81 802.48,-115 801.59,-108.06"/>
</g>
</g>
</svg>
