<?xml version="1.0" encoding="UTF-8" standalone="no"?>
<!DOCTYPE svg PUBLIC "-//W3C//DTD SVG 1.1//EN"
 "http://www.w3.org/Graphics/SVG/1.1/DTD/svg11.dtd">
<!-- Generated by graphviz version 2.43.0 (0)
 -->
<!-- Title: python.concept.RiemannSolver Pages: 1 -->
<svg width="1055pt" height="154pt"
 viewBox="0.00 0.00 1055.00 153.50" xmlns="http://www.w3.org/2000/svg" xmlns:xlink="http://www.w3.org/1999/xlink">
<g id="graph0" class="graph" transform="scale(1 1) rotate(0) translate(4 149.5)">
<title>python.concept.RiemannSolver</title>
<polygon fill="white" stroke="transparent" points="-4,4 -4,-149.5 1051,-149.5 1051,4 -4,4"/>
<!-- Node1 -->
<g id="node1" class="node">
<title>Node1</title>
<g id="a_node1"><a xlink:title="An exact or approximate solver for the Riemann problem of an Equation.">
<polygon fill="#bfbfbf" stroke="black" points="93,-69 93,-88 262,-88 262,-69 93,-69"/>
<text text-anchor="middle" x="177.5" y="-76" font-family="Helvetica,sans-Serif" font-size="10.00">python.concept.RiemannSolver</text>
</a>
</g>
</g>
<!-- Node3 -->
<g id="node3" class="node">
<title>Node3</title>
<g id="a_node3"><a xlink:href="classpython_1_1riemann_1_1Solver.html" target="_top" xlink:title=" ">
<polygon fill="white" stroke="black" points="298,-69 298,-88 426,-88 426,-69 298,-69"/>
<text text-anchor="middle" x="362" y="-76" font-family="Helvetica,sans-Serif" font-size="10.00">python.riemann.Solver</text>
</a>
</g>
</g>
<!-- Node1&#45;&gt;Node3 -->
<g id="edge2" class="edge">
<title>Node1&#45;&gt;Node3</title>
<path fill="none" stroke="midnightblue" d="M272.17,-78.5C280.83,-78.5 289.46,-78.5 297.75,-78.5"/>
<polygon fill="midnightblue" stroke="midnightblue" points="272.01,-75 262.01,-78.5 272.01,-82 272.01,-75"/>
</g>
<!-- Node2 -->
<g id="node2" class="node">
<title>Node2</title>
<g id="a_node2"><a xlink:title=" ">
<polygon fill="white" stroke="#bfbfbf" points="0,-69 0,-88 57,-88 57,-69 0,-69"/>
<text text-anchor="middle" x="28.5" y="-76" font-family="Helvetica,sans-Serif" font-size="10.00">abc.ABC</text>
</a>
</g>
</g>
<!-- Node2&#45;&gt;Node1 -->
<g id="edge1" class="edge">
<title>Node2&#45;&gt;Node1</title>
<path fill="none" stroke="midnightblue" d="M67.17,-78.5C75.16,-78.5 83.9,-78.5 92.84,-78.5"/>
<polygon fill="midnightblue" stroke="midnightblue" points="67.15,-75 57.15,-78.5 67.15,-82 67.15,-75"/>
</g>
<!-- Node4 -->
<g id="node4" class="node">
<title>Node4</title>
<g id="a_node4"><a xlink:href="classpython_1_1riemann_1_1Coupled.html" target="_top" xlink:title="A system of two linearly coupled scalar equations.">
<polygon fill="white" stroke="black" points="481.5,-126 481.5,-145 618.5,-145 618.5,-126 481.5,-126"/>
<text text-anchor="middle" x="550" y="-133" font-family="Helvetica,sans-Serif" font-size="10.00">python.riemann.Coupled</text>
</a>
</g>
</g>
<!-- Node3&#45;&gt;Node4 -->
<g id="edge3" class="edge">
<title>Node3&#45;&gt;Node4</title>
<path fill="none" stroke="midnightblue" d="M394.55,-92.02C413.79,-99.9 439.02,-109.62 462,-116.5 473.85,-120.05 486.79,-123.23 498.98,-125.93"/>
<polygon fill="midnightblue" stroke="midnightblue" points="395.65,-88.69 385.08,-88.08 392.97,-95.15 395.65,-88.69"/>
</g>
<!-- Node5 -->
<g id="node5" class="node">
<title>Node5</title>
<g id="a_node5"><a xlink:href="classpython_1_1riemann_1_1Euler.html" target="_top" xlink:title=" ">
<polygon fill="white" stroke="black" points="489,-88 489,-107 611,-107 611,-88 489,-88"/>
<text text-anchor="middle" x="550" y="-95" font-family="Helvetica,sans-Serif" font-size="10.00">python.riemann.Euler</text>
</a>
</g>
</g>
<!-- Node3&#45;&gt;Node5 -->
<g id="edge4" class="edge">
<title>Node3&#45;&gt;Node5</title>
<path fill="none" stroke="midnightblue" d="M436.33,-85.99C453.71,-87.77 472.05,-89.64 488.77,-91.35"/>
<polygon fill="midnightblue" stroke="midnightblue" points="436.53,-82.49 426.23,-84.96 435.82,-89.46 436.53,-82.49"/>
</g>
<!-- Node9 -->
<g id="node9" class="node">
<title>Node9</title>
<g id="a_node9"><a xlink:href="classpython_1_1riemann_1_1InviscidBurgers.html" target="_top" xlink:title=" ">
<polygon fill="white" stroke="black" points="464,-50 464,-69 636,-69 636,-50 464,-50"/>
<text text-anchor="middle" x="550" y="-57" font-family="Helvetica,sans-Serif" font-size="10.00">python.riemann.InviscidBurgers</text>
</a>
</g>
</g>
<!-- Node3&#45;&gt;Node9 -->
<g id="edge8" class="edge">
<title>Node3&#45;&gt;Node9</title>
<path fill="none" stroke="midnightblue" d="M436.32,-71.01C445.36,-70.09 454.67,-69.14 463.87,-68.2"/>
<polygon fill="midnightblue" stroke="midnightblue" points="435.82,-67.54 426.23,-72.04 436.53,-74.51 435.82,-67.54"/>
</g>
<!-- Node11 -->
<g id="node11" class="node">
<title>Node11</title>
<g id="a_node11"><a xlink:href="classpython_1_1riemann_1_1LinearAdvection.html" target="_top" xlink:title=" ">
<polygon fill="white" stroke="black" points="462,-9 462,-28 638,-28 638,-9 462,-9"/>
<text text-anchor="middle" x="550" y="-16" font-family="Helvetica,sans-Serif" font-size="10.00">python.riemann.LinearAdvection</text>
</a>
</g>
</g>
<!-- Node3&#45;&gt;Node11 -->
<g id="edge10" class="edge">
<title>Node3&#45;&gt;Node11</title>
<path fill="none" stroke="midnightblue" d="M395.01,-65.1C414.23,-57.34 439.29,-47.7 462,-40.5 476.55,-35.88 492.71,-31.58 507.12,-28.02"/>
<polygon fill="midnightblue" stroke="midnightblue" points="393.47,-61.95 385.53,-68.97 396.12,-68.43 393.47,-61.95"/>
</g>
<!-- Node6 -->
<g id="node6" class="node">
<title>Node6</title>
<g id="a_node6"><a xlink:href="classpython_1_1riemann_1_1ApproximateEuler.html" target="_top" xlink:title=" ">
<polygon fill="white" stroke="black" points="682,-88.5 682,-118.5 842,-118.5 842,-88.5 682,-88.5"/>
<text text-anchor="start" x="690" y="-106.5" font-family="Helvetica,sans-Serif" font-size="10.00">python.riemann.Approximate</text>
<text text-anchor="middle" x="762" y="-95.5" font-family="Helvetica,sans-Serif" font-size="10.00">Euler</text>
</a>
</g>
</g>
<!-- Node5&#45;&gt;Node6 -->
<g id="edge5" class="edge">
<title>Node5&#45;&gt;Node6</title>
<path fill="none" stroke="midnightblue" d="M621.41,-99.51C640.74,-100.06 661.82,-100.67 681.62,-101.23"/>
<polygon fill="midnightblue" stroke="midnightblue" points="621.27,-96.01 611.18,-99.22 621.07,-103 621.27,-96.01"/>
</g>
<!-- Node7 -->
<g id="node7" class="node">
<title>Node7</title>
<g id="a_node7"><a xlink:href="classpython_1_1riemann_1_1LaxFriedrichs.html" target="_top" xlink:title=" ">
<polygon fill="white" stroke="black" points="886,-113 886,-132 1047,-132 1047,-113 886,-113"/>
<text text-anchor="middle" x="966.5" y="-120" font-family="Helvetica,sans-Serif" font-size="10.00">python.riemann.LaxFriedrichs</text>
</a>
</g>
</g>
<!-- Node6&#45;&gt;Node7 -->
<g id="edge6" class="edge">
<title>Node6&#45;&gt;Node7</title>
<path fill="none" stroke="midnightblue" d="M852.31,-111.88C863.44,-112.92 874.76,-113.99 885.73,-115.02"/>
<polygon fill="midnightblue" stroke="midnightblue" points="852.45,-108.38 842.16,-110.93 851.79,-115.35 852.45,-108.38"/>
</g>
<!-- Node8 -->
<g id="node8" class="node">
<title>Node8</title>
<g id="a_node8"><a xlink:href="classpython_1_1riemann_1_1Roe.html" target="_top" xlink:title=" ">
<polygon fill="white" stroke="black" points="908.5,-75 908.5,-94 1024.5,-94 1024.5,-75 908.5,-75"/>
<text text-anchor="middle" x="966.5" y="-82" font-family="Helvetica,sans-Serif" font-size="10.00">python.riemann.Roe</text>
</a>
</g>
</g>
<!-- Node6&#45;&gt;Node8 -->
<g id="edge7" class="edge">
<title>Node6&#45;&gt;Node8</title>
<path fill="none" stroke="midnightblue" d="M852.34,-95.12C871.34,-93.33 890.91,-91.5 908.32,-89.86"/>
<polygon fill="midnightblue" stroke="midnightblue" points="851.79,-91.65 842.16,-96.07 852.45,-98.62 851.79,-91.65"/>
</g>
<!-- Node10 -->
<g id="node10" class="node">
<title>Node10</title>
<g id="a_node10"><a xlink:href="classpython_1_1riemann_1_1Burgers.html" target="_top" xlink:title=" ">
<polygon fill="white" stroke="black" points="695,-50 695,-69 829,-69 829,-50 695,-50"/>
<text text-anchor="middle" x="762" y="-57" font-family="Helvetica,sans-Serif" font-size="10.00">python.riemann.Burgers</text>
</a>
</g>
</g>
<!-- Node9&#45;&gt;Node10 -->
<g id="edge9" class="edge">
<title>Node9&#45;&gt;Node10</title>
<path fill="none" stroke="midnightblue" d="M646.27,-59.5C662.66,-59.5 679.38,-59.5 694.8,-59.5"/>
<polygon fill="midnightblue" stroke="midnightblue" points="646.11,-56 636.11,-59.5 646.11,-63 646.11,-56"/>
</g>
<!-- Node12 -->
<g id="node12" class="node">
<title>Node12</title>
<g id="a_node12"><a xlink:href="classpython_1_1riemann_1_1LinearAdvectionDiffusion.html" target="_top" xlink:title=" ">
<polygon fill="white" stroke="black" points="674,-0.5 674,-30.5 850,-30.5 850,-0.5 674,-0.5"/>
<text text-anchor="start" x="682" y="-18.5" font-family="Helvetica,sans-Serif" font-size="10.00">python.riemann.LinearAdvection</text>
<text text-anchor="middle" x="762" y="-7.5" font-family="Helvetica,sans-Serif" font-size="10.00">Diffusion</text>
</a>
</g>
</g>
<!-- Node11&#45;&gt;Node12 -->
<g id="edge11" class="edge">
<title>Node11&#45;&gt;Node12</title>
<path fill="none" stroke="midnightblue" d="M648.46,-17.11C656.88,-16.99 665.37,-16.87 673.7,-16.75"/>
<polygon fill="midnightblue" stroke="midnightblue" points="648.18,-13.61 638.23,-17.25 648.28,-20.61 648.18,-13.61"/>
</g>
</g>
</svg>
