<?xml version="1.0" encoding="UTF-8" standalone="no"?>
<!DOCTYPE svg PUBLIC "-//W3C//DTD SVG 1.1//EN"
 "http://www.w3.org/Graphics/SVG/1.1/DTD/svg11.dtd">
<!-- Generated by graphviz version 2.43.0 (0)
 -->
<!-- Title: python.concept.Element Pages: 1 -->
<svg width="1061pt" height="218pt"
 viewBox="0.00 0.00 1061.00 218.00" xmlns="http://www.w3.org/2000/svg" xmlns:xlink="http://www.w3.org/1999/xlink">
<g id="graph0" class="graph" transform="scale(1 1) rotate(0) translate(4 214)">
<title>python.concept.Element</title>
<polygon fill="white" stroke="transparent" points="-4,4 -4,-214 1057,-214 1057,4 -4,4"/>
<!-- Node1 -->
<g id="node1" class="node">
<title>Node1</title>
<g id="a_node1"><a xlink:title="A cell&#45;like object that carries some expansion of the solution.">
<polygon fill="#bfbfbf" stroke="black" points="93,-67 93,-86 228,-86 228,-67 93,-67"/>
<text text-anchor="middle" x="160.5" y="-74" font-family="Helvetica,sans-Serif" font-size="10.00">python.concept.Element</text>
</a>
</g>
</g>
<!-- Node3 -->
<g id="node3" class="node">
<title>Node3</title>
<g id="a_node3"><a xlink:href="classpython_1_1element_1_1DiscontinuousGalerkin.html" target="_top" xlink:title="Element for implement DG schemes.">
<polygon fill="white" stroke="black" points="276.5,-83.5 276.5,-113.5 442.5,-113.5 442.5,-83.5 276.5,-83.5"/>
<text text-anchor="start" x="284.5" y="-101.5" font-family="Helvetica,sans-Serif" font-size="10.00">python.element.Discontinuous</text>
<text text-anchor="middle" x="359.5" y="-90.5" font-family="Helvetica,sans-Serif" font-size="10.00">Galerkin</text>
</a>
</g>
</g>
<!-- Node1&#45;&gt;Node3 -->
<g id="edge2" class="edge">
<title>Node1&#45;&gt;Node3</title>
<path fill="none" stroke="midnightblue" d="M238.15,-85.06C250.73,-86.46 263.8,-87.92 276.5,-89.34"/>
<polygon fill="midnightblue" stroke="midnightblue" points="238.52,-81.58 228.2,-83.95 237.74,-88.54 238.52,-81.58"/>
</g>
<!-- Node10 -->
<g id="node10" class="node">
<title>Node10</title>
<g id="a_node10"><a xlink:href="classpython_1_1element_1_1FluxReconstruction.html" target="_top" xlink:title="Element for implement FR schemes.">
<polygon fill="white" stroke="black" points="264,-45 264,-64 455,-64 455,-45 264,-45"/>
<text text-anchor="middle" x="359.5" y="-52" font-family="Helvetica,sans-Serif" font-size="10.00">python.element.FluxReconstruction</text>
</a>
</g>
</g>
<!-- Node1&#45;&gt;Node10 -->
<g id="edge9" class="edge">
<title>Node1&#45;&gt;Node10</title>
<path fill="none" stroke="midnightblue" d="M238.2,-67.93C249.73,-66.65 261.67,-65.31 273.36,-64.01"/>
<polygon fill="midnightblue" stroke="midnightblue" points="237.74,-64.46 228.2,-69.05 238.52,-71.42 237.74,-64.46"/>
</g>
<!-- Node2 -->
<g id="node2" class="node">
<title>Node2</title>
<g id="a_node2"><a xlink:title=" ">
<polygon fill="white" stroke="#bfbfbf" points="0,-67 0,-86 57,-86 57,-67 0,-67"/>
<text text-anchor="middle" x="28.5" y="-74" font-family="Helvetica,sans-Serif" font-size="10.00">abc.ABC</text>
</a>
</g>
</g>
<!-- Node2&#45;&gt;Node1 -->
<g id="edge1" class="edge">
<title>Node2&#45;&gt;Node1</title>
<path fill="none" stroke="midnightblue" d="M67.25,-76.5C75.33,-76.5 84.11,-76.5 92.92,-76.5"/>
<polygon fill="midnightblue" stroke="midnightblue" points="67.07,-73 57.07,-76.5 67.07,-80 67.07,-73"/>
</g>
<!-- Node4 -->
<g id="node4" class="node">
<title>Node4</title>
<g id="a_node4"><a xlink:href="classpython_1_1element_1_1LagrangeDG.html" target="_top" xlink:title="Element for implement the DG scheme using a Lagrange expansion.">
<polygon fill="white" stroke="black" points="491,-126 491,-145 648,-145 648,-126 491,-126"/>
<text text-anchor="middle" x="569.5" y="-133" font-family="Helvetica,sans-Serif" font-size="10.00">python.element.LagrangeDG</text>
</a>
</g>
</g>
<!-- Node3&#45;&gt;Node4 -->
<g id="edge3" class="edge">
<title>Node3&#45;&gt;Node4</title>
<path fill="none" stroke="midnightblue" d="M452.75,-114.91C474.03,-118.7 495.98,-122.6 514.96,-125.98"/>
<polygon fill="midnightblue" stroke="midnightblue" points="453.17,-111.43 442.71,-113.12 451.94,-118.32 453.17,-111.43"/>
</g>
<!-- Node9 -->
<g id="node9" class="node">
<title>Node9</title>
<g id="a_node9"><a xlink:href="classpython_1_1element_1_1LegendreDG.html" target="_top" xlink:title="Element for implement the DG scheme based on Legendre polynomials.">
<polygon fill="white" stroke="black" points="491,-88 491,-107 648,-107 648,-88 491,-88"/>
<text text-anchor="middle" x="569.5" y="-95" font-family="Helvetica,sans-Serif" font-size="10.00">python.element.LegendreDG</text>
</a>
</g>
</g>
<!-- Node3&#45;&gt;Node9 -->
<g id="edge8" class="edge">
<title>Node3&#45;&gt;Node9</title>
<path fill="none" stroke="midnightblue" d="M452.85,-98.06C465.57,-97.99 478.53,-97.93 490.96,-97.87"/>
<polygon fill="midnightblue" stroke="midnightblue" points="452.69,-94.56 442.71,-98.1 452.72,-101.56 452.69,-94.56"/>
</g>
<!-- Node5 -->
<g id="node5" class="node">
<title>Node5</title>
<g id="a_node5"><a xlink:href="classpython_1_1element_1_1DGonGaussPoints.html" target="_top" xlink:title="Specialized LagrangeDG using Gauss points as solution points.">
<polygon fill="white" stroke="black" points="689,-162.5 689,-192.5 843,-192.5 843,-162.5 689,-162.5"/>
<text text-anchor="start" x="697" y="-180.5" font-family="Helvetica,sans-Serif" font-size="10.00">python.element.DGonGauss</text>
<text text-anchor="middle" x="766" y="-169.5" font-family="Helvetica,sans-Serif" font-size="10.00">Points</text>
</a>
</g>
</g>
<!-- Node4&#45;&gt;Node5 -->
<g id="edge4" class="edge">
<title>Node4&#45;&gt;Node5</title>
<path fill="none" stroke="midnightblue" d="M624.45,-147.15C646.43,-151.9 672.12,-157.44 695.48,-162.49"/>
<polygon fill="midnightblue" stroke="midnightblue" points="625.15,-143.72 614.64,-145.03 623.67,-150.56 625.15,-143.72"/>
</g>
<!-- Node8 -->
<g id="node8" class="node">
<title>Node8</title>
<g id="a_node8"><a xlink:href="classpython_1_1element_1_1DGonUniformRoots.html" target="_top" xlink:title="Specialized LagrangeDG using uniform (internal) roots as solution points.">
<polygon fill="white" stroke="black" points="684,-113.5 684,-143.5 848,-143.5 848,-113.5 684,-113.5"/>
<text text-anchor="start" x="692" y="-131.5" font-family="Helvetica,sans-Serif" font-size="10.00">python.element.DGonUniform</text>
<text text-anchor="middle" x="766" y="-120.5" font-family="Helvetica,sans-Serif" font-size="10.00">Roots</text>
</a>
</g>
</g>
<!-- Node4&#45;&gt;Node8 -->
<g id="edge7" class="edge">
<title>Node4&#45;&gt;Node8</title>
<path fill="none" stroke="midnightblue" d="M658.48,-132.33C666.95,-132.03 675.51,-131.72 683.91,-131.42"/>
<polygon fill="midnightblue" stroke="midnightblue" points="658.08,-128.85 648.21,-132.7 658.33,-135.84 658.08,-128.85"/>
</g>
<!-- Node6 -->
<g id="node6" class="node">
<title>Node6</title>
<g id="a_node6"><a xlink:href="classpython_1_1element_1_1DGonLegendreRoots.html" target="_top" xlink:title="Specialized DGonGaussPoints using Legendre roots as solution points.">
<polygon fill="white" stroke="black" points="884,-179.5 884,-209.5 1053,-209.5 1053,-179.5 884,-179.5"/>
<text text-anchor="start" x="892" y="-197.5" font-family="Helvetica,sans-Serif" font-size="10.00">python.element.DGonLegendre</text>
<text text-anchor="middle" x="968.5" y="-186.5" font-family="Helvetica,sans-Serif" font-size="10.00">Roots</text>
</a>
</g>
</g>
<!-- Node5&#45;&gt;Node6 -->
<g id="edge5" class="edge">
<title>Node5&#45;&gt;Node6</title>
<path fill="none" stroke="midnightblue" d="M853.15,-184.8C863.3,-185.67 873.65,-186.54 883.76,-187.4"/>
<polygon fill="midnightblue" stroke="midnightblue" points="853.35,-181.31 843.09,-183.95 852.75,-188.28 853.35,-181.31"/>
</g>
<!-- Node7 -->
<g id="node7" class="node">
<title>Node7</title>
<g id="a_node7"><a xlink:href="classpython_1_1element_1_1DGonLobattoRoots.html" target="_top" xlink:title="Specialized DGonGaussPoints using Lobatto roots as solution points.">
<polygon fill="white" stroke="black" points="888,-130.5 888,-160.5 1049,-160.5 1049,-130.5 888,-130.5"/>
<text text-anchor="start" x="896" y="-148.5" font-family="Helvetica,sans-Serif" font-size="10.00">python.element.DGonLobatto</text>
<text text-anchor="middle" x="968.5" y="-137.5" font-family="Helvetica,sans-Serif" font-size="10.00">Roots</text>
</a>
</g>
</g>
<!-- Node5&#45;&gt;Node7 -->
<g id="edge6" class="edge">
<title>Node5&#45;&gt;Node7</title>
<path fill="none" stroke="midnightblue" d="M853.12,-163.75C864.63,-161.92 876.4,-160.04 887.8,-158.22"/>
<polygon fill="midnightblue" stroke="midnightblue" points="852.41,-160.32 843.09,-165.36 853.51,-167.24 852.41,-160.32"/>
</g>
<!-- Node11 -->
<g id="node11" class="node">
<title>Node11</title>
<g id="a_node11"><a xlink:href="classpython_1_1element_1_1LagrangeFR.html" target="_top" xlink:title="Element for implement the FR scheme using a Lagrange expansion.">
<polygon fill="white" stroke="black" points="492,-48 492,-67 647,-67 647,-48 492,-48"/>
<text text-anchor="middle" x="569.5" y="-55" font-family="Helvetica,sans-Serif" font-size="10.00">python.element.LagrangeFR</text>
</a>
</g>
</g>
<!-- Node10&#45;&gt;Node11 -->
<g id="edge10" class="edge">
<title>Node10&#45;&gt;Node11</title>
<path fill="none" stroke="midnightblue" d="M465.22,-56.01C474.22,-56.14 483.21,-56.27 491.92,-56.4"/>
<polygon fill="midnightblue" stroke="midnightblue" points="465.12,-52.51 455.07,-55.86 465.01,-59.51 465.12,-52.51"/>
</g>
<!-- Node16 -->
<g id="node16" class="node">
<title>Node16</title>
<g id="a_node16"><a xlink:href="classpython_1_1element_1_1LegendreFR.html" target="_top" xlink:title="Element for implement the FR scheme using a Legendre expansion.">
<polygon fill="white" stroke="black" points="492,-10 492,-29 647,-29 647,-10 492,-10"/>
<text text-anchor="middle" x="569.5" y="-17" font-family="Helvetica,sans-Serif" font-size="10.00">python.element.LegendreFR</text>
</a>
</g>
</g>
<!-- Node10&#45;&gt;Node16 -->
<g id="edge15" class="edge">
<title>Node10&#45;&gt;Node16</title>
<path fill="none" stroke="midnightblue" d="M426.95,-43.32C454.32,-38.71 485.7,-33.43 511.95,-29.02"/>
<polygon fill="midnightblue" stroke="midnightblue" points="426.34,-39.87 417.06,-44.98 427.5,-46.77 426.34,-39.87"/>
</g>
<!-- Node12 -->
<g id="node12" class="node">
<title>Node12</title>
<g id="a_node12"><a xlink:href="classpython_1_1element_1_1FRonGaussPoints.html" target="_top" xlink:title="Specialized LagrangeFR using Gauss points as solution points.">
<polygon fill="white" stroke="black" points="690,-49.5 690,-79.5 842,-79.5 842,-49.5 690,-49.5"/>
<text text-anchor="start" x="698" y="-67.5" font-family="Helvetica,sans-Serif" font-size="10.00">python.element.FRonGauss</text>
<text text-anchor="middle" x="766" y="-56.5" font-family="Helvetica,sans-Serif" font-size="10.00">Points</text>
</a>
</g>
</g>
<!-- Node11&#45;&gt;Node12 -->
<g id="edge11" class="edge">
<title>Node11&#45;&gt;Node12</title>
<path fill="none" stroke="midnightblue" d="M657.38,-60.63C668.18,-61.02 679.15,-61.41 689.75,-61.79"/>
<polygon fill="midnightblue" stroke="midnightblue" points="657.21,-57.12 647.09,-60.26 656.96,-64.11 657.21,-57.12"/>
</g>
<!-- Node15 -->
<g id="node15" class="node">
<title>Node15</title>
<g id="a_node15"><a xlink:href="classpython_1_1element_1_1FRonUniformRoots.html" target="_top" xlink:title="Specialized LagrangeFR using uniform (internal) roots as solution points.">
<polygon fill="white" stroke="black" points="685.5,-0.5 685.5,-30.5 846.5,-30.5 846.5,-0.5 685.5,-0.5"/>
<text text-anchor="start" x="693.5" y="-18.5" font-family="Helvetica,sans-Serif" font-size="10.00">python.element.FRonUniform</text>
<text text-anchor="middle" x="766" y="-7.5" font-family="Helvetica,sans-Serif" font-size="10.00">Roots</text>
</a>
</g>
</g>
<!-- Node11&#45;&gt;Node15 -->
<g id="edge14" class="edge">
<title>Node11&#45;&gt;Node15</title>
<path fill="none" stroke="midnightblue" d="M624.45,-45.85C646.43,-41.1 672.12,-35.56 695.48,-30.51"/>
<polygon fill="midnightblue" stroke="midnightblue" points="623.67,-42.44 614.64,-47.97 625.15,-49.28 623.67,-42.44"/>
</g>
<!-- Node13 -->
<g id="node13" class="node">
<title>Node13</title>
<g id="a_node13"><a xlink:href="classpython_1_1element_1_1FRonLegendreRoots.html" target="_top" xlink:title="Specialized LagrangeFR using Legendre roots as solution points.">
<polygon fill="white" stroke="black" points="885,-81.5 885,-111.5 1052,-111.5 1052,-81.5 885,-81.5"/>
<text text-anchor="start" x="893" y="-99.5" font-family="Helvetica,sans-Serif" font-size="10.00">python.element.FRonLegendre</text>
<text text-anchor="middle" x="968.5" y="-88.5" font-family="Helvetica,sans-Serif" font-size="10.00">Roots</text>
</a>
</g>
</g>
<!-- Node12&#45;&gt;Node13 -->
<g id="edge12" class="edge">
<title>Node12&#45;&gt;Node13</title>
<path fill="none" stroke="midnightblue" d="M852.43,-78.13C863.15,-79.85 874.11,-81.59 884.79,-83.3"/>
<polygon fill="midnightblue" stroke="midnightblue" points="852.66,-74.63 842.23,-76.51 851.55,-81.54 852.66,-74.63"/>
</g>
<!-- Node14 -->
<g id="node14" class="node">
<title>Node14</title>
<g id="a_node14"><a xlink:href="classpython_1_1element_1_1FRonLobattoRoots.html" target="_top" xlink:title="Specialized LagrangeFR using Lobatto roots as solution points.">
<polygon fill="white" stroke="black" points="889.5,-32.5 889.5,-62.5 1047.5,-62.5 1047.5,-32.5 889.5,-32.5"/>
<text text-anchor="start" x="897.5" y="-50.5" font-family="Helvetica,sans-Serif" font-size="10.00">python.element.FRonLobatto</text>
<text text-anchor="middle" x="968.5" y="-39.5" font-family="Helvetica,sans-Serif" font-size="10.00">Roots</text>
</a>
</g>
</g>
<!-- Node12&#45;&gt;Node14 -->
<g id="edge13" class="edge">
<title>Node12&#45;&gt;Node14</title>
<path fill="none" stroke="midnightblue" d="M852.4,-57.26C864.6,-56.22 877.11,-55.16 889.17,-54.14"/>
<polygon fill="midnightblue" stroke="midnightblue" points="851.9,-53.79 842.23,-58.12 852.49,-60.76 851.9,-53.79"/>
</g>
</g>
</svg>
