<?xml version="1.0" encoding="UTF-8" standalone="no"?>
<!DOCTYPE svg PUBLIC "-//W3C//DTD SVG 1.1//EN"
 "http://www.w3.org/Graphics/SVG/1.1/DTD/svg11.dtd">
<!-- Generated by graphviz version 2.43.0 (0)
 -->
<!-- Title: python.element.FRonGaussPoints Pages: 1 -->
<svg width="351pt" height="330pt"
 viewBox="0.00 0.00 350.50 330.00" xmlns="http://www.w3.org/2000/svg" xmlns:xlink="http://www.w3.org/1999/xlink">
<g id="graph0" class="graph" transform="scale(1 1) rotate(0) translate(4 326)">
<title>python.element.FRonGaussPoints</title>
<polygon fill="white" stroke="transparent" points="-4,4 -4,-326 346.5,-326 346.5,4 -4,4"/>
<!-- Node1 -->
<g id="node1" class="node">
<title>Node1</title>
<g id="a_node1"><a xlink:title="Specialized LagrangeFR using Gauss points as solution points.">
<polygon fill="#bfbfbf" stroke="black" points="97.5,-67.5 97.5,-97.5 249.5,-97.5 249.5,-67.5 97.5,-67.5"/>
<text text-anchor="start" x="105.5" y="-85.5" font-family="Helvetica,sans-Serif" font-size="10.00">python.element.FRonGauss</text>
<text text-anchor="middle" x="173.5" y="-74.5" font-family="Helvetica,sans-Serif" font-size="10.00">Points</text>
</a>
</g>
</g>
<!-- Node6 -->
<g id="node6" class="node">
<title>Node6</title>
<g id="a_node6"><a xlink:href="classpython_1_1element_1_1FRonLegendreRoots.html" target="_top" xlink:title="Specialized LagrangeFR using Legendre roots as solution points.">
<polygon fill="white" stroke="black" points="0,-0.5 0,-30.5 167,-30.5 167,-0.5 0,-0.5"/>
<text text-anchor="start" x="8" y="-18.5" font-family="Helvetica,sans-Serif" font-size="10.00">python.element.FRonLegendre</text>
<text text-anchor="middle" x="83.5" y="-7.5" font-family="Helvetica,sans-Serif" font-size="10.00">Roots</text>
</a>
</g>
</g>
<!-- Node1&#45;&gt;Node6 -->
<g id="edge5" class="edge">
<title>Node1&#45;&gt;Node6</title>
<path fill="none" stroke="midnightblue" d="M145.74,-61.45C131.89,-51.45 115.48,-39.6 102.99,-30.58"/>
<polygon fill="midnightblue" stroke="midnightblue" points="143.82,-64.38 153.97,-67.4 147.91,-58.7 143.82,-64.38"/>
</g>
<!-- Node7 -->
<g id="node7" class="node">
<title>Node7</title>
<g id="a_node7"><a xlink:href="classpython_1_1element_1_1FRonLobattoRoots.html" target="_top" xlink:title="Specialized LagrangeFR using Lobatto roots as solution points.">
<polygon fill="white" stroke="black" points="184.5,-0.5 184.5,-30.5 342.5,-30.5 342.5,-0.5 184.5,-0.5"/>
<text text-anchor="start" x="192.5" y="-18.5" font-family="Helvetica,sans-Serif" font-size="10.00">python.element.FRonLobatto</text>
<text text-anchor="middle" x="263.5" y="-7.5" font-family="Helvetica,sans-Serif" font-size="10.00">Roots</text>
</a>
</g>
</g>
<!-- Node1&#45;&gt;Node7 -->
<g id="edge6" class="edge">
<title>Node1&#45;&gt;Node7</title>
<path fill="none" stroke="midnightblue" d="M201.26,-61.45C215.11,-51.45 231.52,-39.6 244.01,-30.58"/>
<polygon fill="midnightblue" stroke="midnightblue" points="199.09,-58.7 193.03,-67.4 203.18,-64.38 199.09,-58.7"/>
</g>
<!-- Node2 -->
<g id="node2" class="node">
<title>Node2</title>
<g id="a_node2"><a xlink:href="classpython_1_1element_1_1LagrangeFR.html" target="_top" xlink:title="Element for implement the FR scheme using a Lagrange expansion.">
<polygon fill="white" stroke="black" points="96,-134.5 96,-153.5 251,-153.5 251,-134.5 96,-134.5"/>
<text text-anchor="middle" x="173.5" y="-141.5" font-family="Helvetica,sans-Serif" font-size="10.00">python.element.LagrangeFR</text>
</a>
</g>
</g>
<!-- Node2&#45;&gt;Node1 -->
<g id="edge1" class="edge">
<title>Node2&#45;&gt;Node1</title>
<path fill="none" stroke="midnightblue" d="M173.5,-124.23C173.5,-115.59 173.5,-105.5 173.5,-97.52"/>
<polygon fill="midnightblue" stroke="midnightblue" points="170,-124.48 173.5,-134.48 177,-124.48 170,-124.48"/>
</g>
<!-- Node3 -->
<g id="node3" class="node">
<title>Node3</title>
<g id="a_node3"><a xlink:href="classpython_1_1element_1_1FluxReconstruction.html" target="_top" xlink:title="Element for implement FR schemes.">
<polygon fill="white" stroke="black" points="78,-190.5 78,-209.5 269,-209.5 269,-190.5 78,-190.5"/>
<text text-anchor="middle" x="173.5" y="-197.5" font-family="Helvetica,sans-Serif" font-size="10.00">python.element.FluxReconstruction</text>
</a>
</g>
</g>
<!-- Node3&#45;&gt;Node2 -->
<g id="edge2" class="edge">
<title>Node3&#45;&gt;Node2</title>
<path fill="none" stroke="midnightblue" d="M173.5,-179.8C173.5,-170.91 173.5,-160.78 173.5,-153.75"/>
<polygon fill="midnightblue" stroke="midnightblue" points="170,-180.08 173.5,-190.08 177,-180.08 170,-180.08"/>
</g>
<!-- Node4 -->
<g id="node4" class="node">
<title>Node4</title>
<g id="a_node4"><a xlink:href="classpython_1_1concept_1_1Element.html" target="_top" xlink:title="A cell&#45;like object that carries some expansion of the solution.">
<polygon fill="white" stroke="black" points="106,-246.5 106,-265.5 241,-265.5 241,-246.5 106,-246.5"/>
<text text-anchor="middle" x="173.5" y="-253.5" font-family="Helvetica,sans-Serif" font-size="10.00">python.concept.Element</text>
</a>
</g>
</g>
<!-- Node4&#45;&gt;Node3 -->
<g id="edge3" class="edge">
<title>Node4&#45;&gt;Node3</title>
<path fill="none" stroke="midnightblue" d="M173.5,-235.8C173.5,-226.91 173.5,-216.78 173.5,-209.75"/>
<polygon fill="midnightblue" stroke="midnightblue" points="170,-236.08 173.5,-246.08 177,-236.08 170,-236.08"/>
</g>
<!-- Node5 -->
<g id="node5" class="node">
<title>Node5</title>
<g id="a_node5"><a xlink:title=" ">
<polygon fill="white" stroke="#bfbfbf" points="145,-302.5 145,-321.5 202,-321.5 202,-302.5 145,-302.5"/>
<text text-anchor="middle" x="173.5" y="-309.5" font-family="Helvetica,sans-Serif" font-size="10.00">abc.ABC</text>
</a>
</g>
</g>
<!-- Node5&#45;&gt;Node4 -->
<g id="edge4" class="edge">
<title>Node5&#45;&gt;Node4</title>
<path fill="none" stroke="midnightblue" d="M173.5,-291.8C173.5,-282.91 173.5,-272.78 173.5,-265.75"/>
<polygon fill="midnightblue" stroke="midnightblue" points="170,-292.08 173.5,-302.08 177,-292.08 170,-292.08"/>
</g>
</g>
</svg>
