<?xml version="1.0" encoding="UTF-8" standalone="no"?>
<!DOCTYPE svg PUBLIC "-//W3C//DTD SVG 1.1//EN"
 "http://www.w3.org/Graphics/SVG/1.1/DTD/svg11.dtd">
<!-- Generated by graphviz version 2.43.0 (0)
 -->
<!-- Title: mini::riemann::euler::Tuple&lt; ScalarType, kDimensions &gt; Pages: 1 -->
<svg width="469pt" height="170pt"
 viewBox="0.00 0.00 469.00 170.00" xmlns="http://www.w3.org/2000/svg" xmlns:xlink="http://www.w3.org/1999/xlink">
<g id="graph0" class="graph" transform="scale(1 1) rotate(0) translate(4 166)">
<title>mini::riemann::euler::Tuple&lt; ScalarType, kDimensions &gt;</title>
<polygon fill="white" stroke="transparent" points="-4,4 -4,-166 465,-166 465,4 -4,4"/>
<!-- Node1 -->
<g id="node1" class="node">
<title>Node1</title>
<g id="a_node1"><a xlink:title=" ">
<polygon fill="#bfbfbf" stroke="black" points="150,-60.5 150,-101.5 266,-101.5 266,-60.5 150,-60.5"/>
<text text-anchor="start" x="158" y="-89.5" font-family="Helvetica,sans-Serif" font-size="10.00">mini::riemann::euler</text>
<text text-anchor="start" x="158" y="-78.5" font-family="Helvetica,sans-Serif" font-size="10.00">::Tuple&lt; ScalarType,</text>
<text text-anchor="middle" x="208" y="-67.5" font-family="Helvetica,sans-Serif" font-size="10.00"> kDimensions &gt;</text>
</a>
</g>
</g>
<!-- Node3 -->
<g id="node3" class="node">
<title>Node3</title>
<g id="a_node3"><a xlink:href="structmini_1_1riemann_1_1euler_1_1Conservatives.html" target="_top" xlink:title=" ">
<polygon fill="white" stroke="black" points="302,-120.5 302,-161.5 461,-161.5 461,-120.5 302,-120.5"/>
<text text-anchor="start" x="310" y="-149.5" font-family="Helvetica,sans-Serif" font-size="10.00">mini::riemann::euler</text>
<text text-anchor="start" x="310" y="-138.5" font-family="Helvetica,sans-Serif" font-size="10.00">::Conservatives&lt; ScalarType,</text>
<text text-anchor="middle" x="381.5" y="-127.5" font-family="Helvetica,sans-Serif" font-size="10.00"> kDimensions &gt;</text>
</a>
</g>
</g>
<!-- Node1&#45;&gt;Node3 -->
<g id="edge2" class="edge">
<title>Node1&#45;&gt;Node3</title>
<path fill="none" stroke="midnightblue" d="M275.93,-104.42C291.1,-109.72 307.09,-115.32 321.88,-120.49"/>
<polygon fill="midnightblue" stroke="midnightblue" points="276.7,-100.98 266.11,-100.98 274.39,-107.59 276.7,-100.98"/>
</g>
<!-- Node4 -->
<g id="node4" class="node">
<title>Node4</title>
<g id="a_node4"><a xlink:href="classmini_1_1riemann_1_1euler_1_1FluxTuple.html" target="_top" xlink:title=" ">
<polygon fill="white" stroke="black" points="313.5,-60.5 313.5,-101.5 449.5,-101.5 449.5,-60.5 313.5,-60.5"/>
<text text-anchor="start" x="321.5" y="-89.5" font-family="Helvetica,sans-Serif" font-size="10.00">mini::riemann::euler</text>
<text text-anchor="start" x="321.5" y="-78.5" font-family="Helvetica,sans-Serif" font-size="10.00">::FluxTuple&lt; ScalarType,</text>
<text text-anchor="middle" x="381.5" y="-67.5" font-family="Helvetica,sans-Serif" font-size="10.00"> kDimensions &gt;</text>
</a>
</g>
</g>
<!-- Node1&#45;&gt;Node4 -->
<g id="edge3" class="edge">
<title>Node1&#45;&gt;Node4</title>
<path fill="none" stroke="midnightblue" d="M276.19,-81C288.36,-81 301.06,-81 313.24,-81"/>
<polygon fill="midnightblue" stroke="midnightblue" points="276.11,-77.5 266.11,-81 276.11,-84.5 276.11,-77.5"/>
</g>
<!-- Node5 -->
<g id="node5" class="node">
<title>Node5</title>
<g id="a_node5"><a xlink:href="classmini_1_1riemann_1_1euler_1_1Primitives.html" target="_top" xlink:title=" ">
<polygon fill="white" stroke="black" points="312,-0.5 312,-41.5 451,-41.5 451,-0.5 312,-0.5"/>
<text text-anchor="start" x="320" y="-29.5" font-family="Helvetica,sans-Serif" font-size="10.00">mini::riemann::euler</text>
<text text-anchor="start" x="320" y="-18.5" font-family="Helvetica,sans-Serif" font-size="10.00">::Primitives&lt; ScalarType,</text>
<text text-anchor="middle" x="381.5" y="-7.5" font-family="Helvetica,sans-Serif" font-size="10.00"> kDimensions &gt;</text>
</a>
</g>
</g>
<!-- Node1&#45;&gt;Node5 -->
<g id="edge4" class="edge">
<title>Node1&#45;&gt;Node5</title>
<path fill="none" stroke="midnightblue" d="M275.93,-57.58C291.1,-52.28 307.09,-46.68 321.88,-41.51"/>
<polygon fill="midnightblue" stroke="midnightblue" points="274.39,-54.41 266.11,-61.02 276.7,-61.02 274.39,-54.41"/>
</g>
<!-- Node2 -->
<g id="node2" class="node">
<title>Node2</title>
<g id="a_node2"><a xlink:title=" ">
<polygon fill="white" stroke="#bfbfbf" points="0,-66 0,-96 114,-96 114,-66 0,-66"/>
<text text-anchor="start" x="8" y="-84" font-family="Helvetica,sans-Serif" font-size="10.00">Vector&lt; ScalarType,</text>
<text text-anchor="middle" x="57" y="-73" font-family="Helvetica,sans-Serif" font-size="10.00"> kDimensions+2 &gt;</text>
</a>
</g>
</g>
<!-- Node2&#45;&gt;Node1 -->
<g id="edge1" class="edge">
<title>Node2&#45;&gt;Node1</title>
<path fill="none" stroke="midnightblue" d="M124.46,-81C132.85,-81 141.37,-81 149.6,-81"/>
<polygon fill="midnightblue" stroke="midnightblue" points="124.33,-77.5 114.33,-81 124.33,-84.5 124.33,-77.5"/>
</g>
</g>
</svg>
