<?xml version="1.0" encoding="UTF-8" standalone="no"?>
<!DOCTYPE svg PUBLIC "-//W3C//DTD SVG 1.1//EN"
 "http://www.w3.org/Graphics/SVG/1.1/DTD/svg11.dtd">
<!-- Generated by graphviz version 2.43.0 (0)
 -->
<!-- Title: python.concept.OdeSystem Pages: 1 -->
<svg width="1070pt" height="362pt"
 viewBox="0.00 0.00 1070.00 361.50" xmlns="http://www.w3.org/2000/svg" xmlns:xlink="http://www.w3.org/1999/xlink">
<g id="graph0" class="graph" transform="scale(1 1) rotate(0) translate(4 357.5)">
<title>python.concept.OdeSystem</title>
<polygon fill="white" stroke="transparent" points="-4,4 -4,-357.5 1066,-357.5 1066,4 -4,4"/>
<!-- Node1 -->
<g id="node1" class="node">
<title>Node1</title>
<g id="a_node1"><a xlink:title="A system of ODEs in the form of dU/∂t = R.">
<polygon fill="#bfbfbf" stroke="black" points="93,-105.5 93,-124.5 244,-124.5 244,-105.5 93,-105.5"/>
<text text-anchor="middle" x="168.5" y="-112.5" font-family="Helvetica,sans-Serif" font-size="10.00">python.concept.OdeSystem</text>
</a>
</g>
</g>
<!-- Node3 -->
<g id="node3" class="node">
<title>Node3</title>
<g id="a_node3"><a xlink:href="classpython_1_1concept_1_1SpatialScheme.html" target="_top" xlink:title="An ODE system given by some FiniteElement scheme.">
<polygon fill="white" stroke="black" points="283,-143.5 283,-162.5 450,-162.5 450,-143.5 283,-143.5"/>
<text text-anchor="middle" x="366.5" y="-150.5" font-family="Helvetica,sans-Serif" font-size="10.00">python.concept.SpatialScheme</text>
</a>
</g>
</g>
<!-- Node1&#45;&gt;Node3 -->
<g id="edge2" class="edge">
<title>Node1&#45;&gt;Node3</title>
<path fill="none" stroke="midnightblue" d="M228.76,-126.49C256.73,-131.91 289.71,-138.31 316.27,-143.46"/>
<polygon fill="midnightblue" stroke="midnightblue" points="229.19,-123.01 218.71,-124.54 227.86,-129.88 229.19,-123.01"/>
</g>
<!-- Node16 -->
<g id="node16" class="node">
<title>Node16</title>
<g id="a_node16"><a xlink:href="classpython_1_1test__temporal_1_1Constant.html" target="_top" xlink:title="The simplest implementation of OdeSystem.">
<polygon fill="white" stroke="black" points="282.5,-105.5 282.5,-124.5 450.5,-124.5 450.5,-105.5 282.5,-105.5"/>
<text text-anchor="middle" x="366.5" y="-112.5" font-family="Helvetica,sans-Serif" font-size="10.00">python.test_temporal.Constant</text>
</a>
</g>
</g>
<!-- Node1&#45;&gt;Node16 -->
<g id="edge15" class="edge">
<title>Node1&#45;&gt;Node16</title>
<path fill="none" stroke="midnightblue" d="M254.17,-115C263.47,-115 272.93,-115 282.21,-115"/>
<polygon fill="midnightblue" stroke="midnightblue" points="254.16,-111.5 244.16,-115 254.16,-118.5 254.16,-111.5"/>
</g>
<!-- Node17 -->
<g id="node17" class="node">
<title>Node17</title>
<g id="a_node17"><a xlink:href="classpython_1_1test__temporal_1_1Pendulum.html" target="_top" xlink:title="A simple ODE system obtained from u&#39;&#39; + u = 0.">
<polygon fill="white" stroke="black" points="280,-67.5 280,-86.5 453,-86.5 453,-67.5 280,-67.5"/>
<text text-anchor="middle" x="366.5" y="-74.5" font-family="Helvetica,sans-Serif" font-size="10.00">python.test_temporal.Pendulum</text>
</a>
</g>
</g>
<!-- Node1&#45;&gt;Node17 -->
<g id="edge16" class="edge">
<title>Node1&#45;&gt;Node17</title>
<path fill="none" stroke="midnightblue" d="M228.76,-103.51C256.73,-98.09 289.71,-91.69 316.27,-86.54"/>
<polygon fill="midnightblue" stroke="midnightblue" points="227.86,-100.12 218.71,-105.46 229.19,-106.99 227.86,-100.12"/>
</g>
<!-- Node2 -->
<g id="node2" class="node">
<title>Node2</title>
<g id="a_node2"><a xlink:title=" ">
<polygon fill="white" stroke="#bfbfbf" points="0,-105.5 0,-124.5 57,-124.5 57,-105.5 0,-105.5"/>
<text text-anchor="middle" x="28.5" y="-112.5" font-family="Helvetica,sans-Serif" font-size="10.00">abc.ABC</text>
</a>
</g>
</g>
<!-- Node2&#45;&gt;Node1 -->
<g id="edge1" class="edge">
<title>Node2&#45;&gt;Node1</title>
<path fill="none" stroke="midnightblue" d="M67.17,-115C75.18,-115 83.91,-115 92.77,-115"/>
<polygon fill="midnightblue" stroke="midnightblue" points="67.09,-111.5 57.09,-115 67.09,-118.5 67.09,-111.5"/>
</g>
<!-- Node4 -->
<g id="node4" class="node">
<title>Node4</title>
<g id="a_node4"><a xlink:href="classpython_1_1spatial_1_1FiniteElement.html" target="_top" xlink:title="An ODE system given by some FiniteElement scheme.">
<polygon fill="white" stroke="black" points="489,-162.5 489,-181.5 646,-181.5 646,-162.5 489,-162.5"/>
<text text-anchor="middle" x="567.5" y="-169.5" font-family="Helvetica,sans-Serif" font-size="10.00">python.spatial.FiniteElement</text>
</a>
</g>
</g>
<!-- Node3&#45;&gt;Node4 -->
<g id="edge3" class="edge">
<title>Node3&#45;&gt;Node4</title>
<path fill="none" stroke="midnightblue" d="M460.14,-161.84C469.75,-162.76 479.45,-163.69 488.88,-164.59"/>
<polygon fill="midnightblue" stroke="midnightblue" points="460.45,-158.36 450.17,-160.89 459.79,-165.33 460.45,-158.36"/>
</g>
<!-- Node15 -->
<g id="node15" class="node">
<title>Node15</title>
<g id="a_node15"><a xlink:href="classpython_1_1spatial_1_1FiniteVolume.html" target="_top" xlink:title="An ODE system given by some FiniteVolume scheme.">
<polygon fill="white" stroke="black" points="491,-124.5 491,-143.5 644,-143.5 644,-124.5 491,-124.5"/>
<text text-anchor="middle" x="567.5" y="-131.5" font-family="Helvetica,sans-Serif" font-size="10.00">python.spatial.FiniteVolume</text>
</a>
</g>
</g>
<!-- Node3&#45;&gt;Node15 -->
<g id="edge14" class="edge">
<title>Node3&#45;&gt;Node15</title>
<path fill="none" stroke="midnightblue" d="M460.32,-144.14C470.52,-143.16 480.82,-142.18 490.78,-141.23"/>
<polygon fill="midnightblue" stroke="midnightblue" points="459.79,-140.67 450.17,-145.11 460.45,-147.64 459.79,-140.67"/>
</g>
<!-- Node5 -->
<g id="node5" class="node">
<title>Node5</title>
<g id="a_node5"><a xlink:href="classpython_1_1spatial_1_1DiscontinuousGalerkin.html" target="_top" xlink:title="An mid&#45;level class that defines common methods for all DG schemes.">
<polygon fill="white" stroke="black" points="694.5,-225 694.5,-255 852.5,-255 852.5,-225 694.5,-225"/>
<text text-anchor="start" x="702.5" y="-243" font-family="Helvetica,sans-Serif" font-size="10.00">python.spatial.Discontinuous</text>
<text text-anchor="middle" x="773.5" y="-232" font-family="Helvetica,sans-Serif" font-size="10.00">Galerkin</text>
</a>
</g>
</g>
<!-- Node4&#45;&gt;Node5 -->
<g id="edge4" class="edge">
<title>Node4&#45;&gt;Node5</title>
<path fill="none" stroke="midnightblue" d="M606.93,-184.81C641.14,-196.21 691.22,-212.91 727.33,-224.94"/>
<polygon fill="midnightblue" stroke="midnightblue" points="607.89,-181.44 597.3,-181.6 605.68,-188.08 607.89,-181.44"/>
</g>
<!-- Node10 -->
<g id="node10" class="node">
<title>Node10</title>
<g id="a_node10"><a xlink:href="classpython_1_1spatial_1_1FluxReconstruction.html" target="_top" xlink:title="An mid&#45;level class that defines common methods for all FR schemes.">
<polygon fill="white" stroke="black" points="682,-93.5 682,-112.5 865,-112.5 865,-93.5 682,-93.5"/>
<text text-anchor="middle" x="773.5" y="-100.5" font-family="Helvetica,sans-Serif" font-size="10.00">python.spatial.FluxReconstruction</text>
</a>
</g>
</g>
<!-- Node4&#45;&gt;Node10 -->
<g id="edge9" class="edge">
<title>Node4&#45;&gt;Node10</title>
<path fill="none" stroke="midnightblue" d="M621.71,-159.97C629.9,-157.83 638.21,-155.48 646,-153 683.58,-141.03 725.96,-123.4 750.89,-112.59"/>
<polygon fill="midnightblue" stroke="midnightblue" points="620.66,-156.63 611.83,-162.48 622.39,-163.41 620.66,-156.63"/>
</g>
<!-- Node6 -->
<g id="node6" class="node">
<title>Node6</title>
<g id="a_node6"><a xlink:href="classpython_1_1spatial_1_1DGonLegendreRoots.html" target="_top" xlink:title="The ODE system given by the DG method using a Lagrange expansion on Legendre roots.">
<polygon fill="white" stroke="black" points="901,-323 901,-353 1062,-353 1062,-323 901,-323"/>
<text text-anchor="start" x="909" y="-341" font-family="Helvetica,sans-Serif" font-size="10.00">python.spatial.DGonLegendre</text>
<text text-anchor="middle" x="981.5" y="-330" font-family="Helvetica,sans-Serif" font-size="10.00">Roots</text>
</a>
</g>
</g>
<!-- Node5&#45;&gt;Node6 -->
<g id="edge5" class="edge">
<title>Node5&#45;&gt;Node6</title>
<path fill="none" stroke="midnightblue" d="M805.15,-260.71C830.12,-276.88 866.73,-299.05 901,-314 908.53,-317.29 916.65,-320.3 924.72,-322.99"/>
<polygon fill="midnightblue" stroke="midnightblue" points="806.78,-257.59 796.5,-255.04 802.95,-263.45 806.78,-257.59"/>
</g>
<!-- Node7 -->
<g id="node7" class="node">
<title>Node7</title>
<g id="a_node7"><a xlink:href="classpython_1_1spatial_1_1DGonLobattoRoots.html" target="_top" xlink:title="The ODE system given by the DG method using a Lagrange expansion on Lobatto roots.">
<polygon fill="white" stroke="black" points="905,-274 905,-304 1058,-304 1058,-274 905,-274"/>
<text text-anchor="start" x="913" y="-292" font-family="Helvetica,sans-Serif" font-size="10.00">python.spatial.DGonLobatto</text>
<text text-anchor="middle" x="981.5" y="-281" font-family="Helvetica,sans-Serif" font-size="10.00">Roots</text>
</a>
</g>
</g>
<!-- Node5&#45;&gt;Node7 -->
<g id="edge6" class="edge">
<title>Node5&#45;&gt;Node7</title>
<path fill="none" stroke="midnightblue" d="M847.67,-257.4C870.46,-262.82 895.38,-268.75 917.41,-273.99"/>
<polygon fill="midnightblue" stroke="midnightblue" points="848.25,-253.94 837.71,-255.03 846.63,-260.75 848.25,-253.94"/>
</g>
<!-- Node8 -->
<g id="node8" class="node">
<title>Node8</title>
<g id="a_node8"><a xlink:href="classpython_1_1spatial_1_1DGonUniformRoots.html" target="_top" xlink:title="The ODE system given by the DG method using a Lagrange expansion on uniform roots.">
<polygon fill="white" stroke="black" points="903.5,-225 903.5,-255 1059.5,-255 1059.5,-225 903.5,-225"/>
<text text-anchor="start" x="911.5" y="-243" font-family="Helvetica,sans-Serif" font-size="10.00">python.spatial.DGonUniform</text>
<text text-anchor="middle" x="981.5" y="-232" font-family="Helvetica,sans-Serif" font-size="10.00">Roots</text>
</a>
</g>
</g>
<!-- Node5&#45;&gt;Node8 -->
<g id="edge7" class="edge">
<title>Node5&#45;&gt;Node8</title>
<path fill="none" stroke="midnightblue" d="M862.9,-240C876.38,-240 890.19,-240 903.4,-240"/>
<polygon fill="midnightblue" stroke="midnightblue" points="862.67,-236.5 852.67,-240 862.67,-243.5 862.67,-236.5"/>
</g>
<!-- Node9 -->
<g id="node9" class="node">
<title>Node9</title>
<g id="a_node9"><a xlink:href="classpython_1_1spatial_1_1LegendreDG.html" target="_top" xlink:title="The ODE system given by the DG method using a Legendre expansion.">
<polygon fill="white" stroke="black" points="907,-186.5 907,-205.5 1056,-205.5 1056,-186.5 907,-186.5"/>
<text text-anchor="middle" x="981.5" y="-193.5" font-family="Helvetica,sans-Serif" font-size="10.00">python.spatial.LegendreDG</text>
</a>
</g>
</g>
<!-- Node5&#45;&gt;Node9 -->
<g id="edge8" class="edge">
<title>Node5&#45;&gt;Node9</title>
<path fill="none" stroke="midnightblue" d="M854.86,-222.84C882.43,-216.95 912.28,-210.57 935.96,-205.51"/>
<polygon fill="midnightblue" stroke="midnightblue" points="853.87,-219.47 844.82,-224.98 855.33,-226.31 853.87,-219.47"/>
</g>
<!-- Node11 -->
<g id="node11" class="node">
<title>Node11</title>
<g id="a_node11"><a xlink:href="classpython_1_1spatial_1_1FRonLegendreRoots.html" target="_top" xlink:title="The ODE system given by the FR method using a Lagrange expansion on Legendre roots.">
<polygon fill="white" stroke="black" points="902,-137 902,-167 1061,-167 1061,-137 902,-137"/>
<text text-anchor="start" x="910" y="-155" font-family="Helvetica,sans-Serif" font-size="10.00">python.spatial.FRonLegendre</text>
<text text-anchor="middle" x="981.5" y="-144" font-family="Helvetica,sans-Serif" font-size="10.00">Roots</text>
</a>
</g>
</g>
<!-- Node10&#45;&gt;Node11 -->
<g id="edge10" class="edge">
<title>Node10&#45;&gt;Node11</title>
<path fill="none" stroke="midnightblue" d="M824.64,-114.93C852.54,-121.56 887.53,-129.89 917.28,-136.96"/>
<polygon fill="midnightblue" stroke="midnightblue" points="825.25,-111.47 814.71,-112.56 823.63,-118.28 825.25,-111.47"/>
</g>
<!-- Node12 -->
<g id="node12" class="node">
<title>Node12</title>
<g id="a_node12"><a xlink:href="classpython_1_1spatial_1_1FRonLobattoRoots.html" target="_top" xlink:title="The ODE system given by the FR method using a Lagrange expansion on Lobatto roots.">
<polygon fill="white" stroke="black" points="906,-88 906,-118 1057,-118 1057,-88 906,-88"/>
<text text-anchor="start" x="914" y="-106" font-family="Helvetica,sans-Serif" font-size="10.00">python.spatial.FRonLobatto</text>
<text text-anchor="middle" x="981.5" y="-95" font-family="Helvetica,sans-Serif" font-size="10.00">Roots</text>
</a>
</g>
</g>
<!-- Node10&#45;&gt;Node12 -->
<g id="edge11" class="edge">
<title>Node10&#45;&gt;Node12</title>
<path fill="none" stroke="midnightblue" d="M875.39,-103C885.66,-103 895.95,-103 905.86,-103"/>
<polygon fill="midnightblue" stroke="midnightblue" points="875.15,-99.5 865.15,-103 875.15,-106.5 875.15,-99.5"/>
</g>
<!-- Node13 -->
<g id="node13" class="node">
<title>Node13</title>
<g id="a_node13"><a xlink:href="classpython_1_1spatial_1_1FRonUniformRoots.html" target="_top" xlink:title="The ODE system given by the DG method using a Lagrange expansion on uniform roots.">
<polygon fill="white" stroke="black" points="904.5,-39 904.5,-69 1058.5,-69 1058.5,-39 904.5,-39"/>
<text text-anchor="start" x="912.5" y="-57" font-family="Helvetica,sans-Serif" font-size="10.00">python.spatial.FRonUniform</text>
<text text-anchor="middle" x="981.5" y="-46" font-family="Helvetica,sans-Serif" font-size="10.00">Roots</text>
</a>
</g>
</g>
<!-- Node10&#45;&gt;Node13 -->
<g id="edge12" class="edge">
<title>Node10&#45;&gt;Node13</title>
<path fill="none" stroke="midnightblue" d="M824.64,-91.07C852.54,-84.44 887.53,-76.11 917.28,-69.04"/>
<polygon fill="midnightblue" stroke="midnightblue" points="823.63,-87.72 814.71,-93.44 825.25,-94.53 823.63,-87.72"/>
</g>
<!-- Node14 -->
<g id="node14" class="node">
<title>Node14</title>
<g id="a_node14"><a xlink:href="classpython_1_1spatial_1_1LegendreFR.html" target="_top" xlink:title="The ODE system given by the FR method using a Legendre expansion.">
<polygon fill="white" stroke="black" points="908,-0.5 908,-19.5 1055,-19.5 1055,-0.5 908,-0.5"/>
<text text-anchor="middle" x="981.5" y="-7.5" font-family="Helvetica,sans-Serif" font-size="10.00">python.spatial.LegendreFR</text>
</a>
</g>
</g>
<!-- Node10&#45;&gt;Node14 -->
<g id="edge13" class="edge">
<title>Node10&#45;&gt;Node14</title>
<path fill="none" stroke="midnightblue" d="M796.35,-87.51C820.79,-70.84 862.06,-44.64 901,-29 910.35,-25.24 920.63,-22.11 930.6,-19.54"/>
<polygon fill="midnightblue" stroke="midnightblue" points="794.09,-84.82 787.85,-93.38 798.07,-90.58 794.09,-84.82"/>
</g>
</g>
</svg>
