<?xml version="1.0" encoding="UTF-8" standalone="no"?>
<!DOCTYPE svg PUBLIC "-//W3C//DTD SVG 1.1//EN"
 "http://www.w3.org/Graphics/SVG/1.1/DTD/svg11.dtd">
<!-- Generated by graphviz version 2.43.0 (0)
 -->
<!-- Title: python.concept.OdeSolver Pages: 1 -->
<svg width="320pt" height="151pt"
 viewBox="0.00 0.00 320.00 151.00" xmlns="http://www.w3.org/2000/svg" xmlns:xlink="http://www.w3.org/1999/xlink">
<g id="graph0" class="graph" transform="scale(1 1) rotate(0) translate(4 147)">
<title>python.concept.OdeSolver</title>
<polygon fill="white" stroke="transparent" points="-4,4 -4,-147 316,-147 316,4 -4,4"/>
<!-- Node1 -->
<g id="node1" class="node">
<title>Node1</title>
<g id="a_node1"><a xlink:title="A solver for the standard ODE system dU/dt = R.">
<polygon fill="#bfbfbf" stroke="black" points="78,-67.5 78,-86.5 223,-86.5 223,-67.5 78,-67.5"/>
<text text-anchor="middle" x="150.5" y="-74.5" font-family="Helvetica,sans-Serif" font-size="10.00">python.concept.OdeSolver</text>
</a>
</g>
</g>
<!-- Node3 -->
<g id="node3" class="node">
<title>Node3</title>
<g id="a_node3"><a xlink:href="classpython_1_1temporal_1_1ExplicitEuler.html" target="_top" xlink:title="The explicit Euler method.">
<polygon fill="white" stroke="black" points="0,-0.5 0,-30.5 137,-30.5 137,-0.5 0,-0.5"/>
<text text-anchor="start" x="8" y="-18.5" font-family="Helvetica,sans-Serif" font-size="10.00">python.temporal.Explicit</text>
<text text-anchor="middle" x="68.5" y="-7.5" font-family="Helvetica,sans-Serif" font-size="10.00">Euler</text>
</a>
</g>
</g>
<!-- Node1&#45;&gt;Node3 -->
<g id="edge2" class="edge">
<title>Node1&#45;&gt;Node3</title>
<path fill="none" stroke="midnightblue" d="M130.47,-61.47C117.49,-52.05 100.67,-39.84 87.83,-30.52"/>
<polygon fill="midnightblue" stroke="midnightblue" points="128.6,-64.43 138.75,-67.48 132.71,-58.77 128.6,-64.43"/>
</g>
<!-- Node4 -->
<g id="node4" class="node">
<title>Node4</title>
<g id="a_node4"><a xlink:href="classpython_1_1temporal_1_1RungeKutta.html" target="_top" xlink:title="The explicit Runge–Kutta methods.">
<polygon fill="white" stroke="black" points="155,-6 155,-25 312,-25 312,-6 155,-6"/>
<text text-anchor="middle" x="233.5" y="-13" font-family="Helvetica,sans-Serif" font-size="10.00">python.temporal.RungeKutta</text>
</a>
</g>
</g>
<!-- Node1&#45;&gt;Node4 -->
<g id="edge3" class="edge">
<title>Node1&#45;&gt;Node4</title>
<path fill="none" stroke="midnightblue" d="M170.57,-61.61C186.53,-50.17 208.33,-34.55 221.63,-25.01"/>
<polygon fill="midnightblue" stroke="midnightblue" points="168.48,-58.8 162.39,-67.48 172.56,-64.49 168.48,-58.8"/>
</g>
<!-- Node2 -->
<g id="node2" class="node">
<title>Node2</title>
<g id="a_node2"><a xlink:title=" ">
<polygon fill="white" stroke="#bfbfbf" points="122,-123.5 122,-142.5 179,-142.5 179,-123.5 122,-123.5"/>
<text text-anchor="middle" x="150.5" y="-130.5" font-family="Helvetica,sans-Serif" font-size="10.00">abc.ABC</text>
</a>
</g>
</g>
<!-- Node2&#45;&gt;Node1 -->
<g id="edge1" class="edge">
<title>Node2&#45;&gt;Node1</title>
<path fill="none" stroke="midnightblue" d="M150.5,-112.8C150.5,-103.91 150.5,-93.78 150.5,-86.75"/>
<polygon fill="midnightblue" stroke="midnightblue" points="147,-113.08 150.5,-123.08 154,-113.08 147,-113.08"/>
</g>
</g>
</svg>
