<?xml version="1.0" encoding="UTF-8" standalone="no"?>
<!DOCTYPE svg PUBLIC "-//W3C//DTD SVG 1.1//EN"
 "http://www.w3.org/Graphics/SVG/1.1/DTD/svg11.dtd">
<!-- Generated by graphviz version 2.43.0 (0)
 -->
<!-- Title: mini::riemann::diffusive::Anisotropic&lt; S, K &gt; Pages: 1 -->
<svg width="141pt" height="217pt"
 viewBox="0.00 0.00 141.00 217.00" xmlns="http://www.w3.org/2000/svg" xmlns:xlink="http://www.w3.org/1999/xlink">
<g id="graph0" class="graph" transform="scale(1 1) rotate(0) translate(4 213)">
<title>mini::riemann::diffusive::Anisotropic&lt; S, K &gt;</title>
<polygon fill="white" stroke="transparent" points="-4,4 -4,-213 137,-213 137,4 -4,4"/>
<!-- Node1 -->
<g id="node1" class="node">
<title>Node1</title>
<g id="a_node1"><a xlink:title="A constant linear diffusion model, whose diffusive flux is .">
<polygon fill="#bfbfbf" stroke="black" points="0,-0.5 0,-30.5 133,-30.5 133,-0.5 0,-0.5"/>
<text text-anchor="start" x="8" y="-18.5" font-family="Helvetica,sans-Serif" font-size="10.00">mini::riemann::diffusive</text>
<text text-anchor="middle" x="66.5" y="-7.5" font-family="Helvetica,sans-Serif" font-size="10.00">::Anisotropic&lt; S, K &gt;</text>
</a>
</g>
</g>
<!-- Node2 -->
<g id="node2" class="node">
<title>Node2</title>
<g id="a_node2"><a xlink:href="structmini_1_1riemann_1_1diffusive_1_1Anisotropic_1_1Property.html" target="_top" xlink:title=" ">
<polygon fill="white" stroke="black" points="0,-78.5 0,-119.5 133,-119.5 133,-78.5 0,-78.5"/>
<text text-anchor="start" x="8" y="-107.5" font-family="Helvetica,sans-Serif" font-size="10.00">mini::riemann::diffusive</text>
<text text-anchor="start" x="8" y="-96.5" font-family="Helvetica,sans-Serif" font-size="10.00">::Anisotropic&lt; S, K &gt;::</text>
<text text-anchor="middle" x="66.5" y="-85.5" font-family="Helvetica,sans-Serif" font-size="10.00">Property</text>
</a>
</g>
</g>
<!-- Node2&#45;&gt;Node1 -->
<g id="edge1" class="edge">
<title>Node2&#45;&gt;Node1</title>
<path fill="none" stroke="#9a32cd" stroke-dasharray="5,2" d="M66.5,-68.03C66.5,-55.26 66.5,-40.97 66.5,-30.68"/>
<polygon fill="#9a32cd" stroke="#9a32cd" points="63,-68.27 66.5,-78.27 70,-68.27 63,-68.27"/>
<text text-anchor="middle" x="77" y="-52" font-family="Helvetica,sans-Serif" font-size="10.00"> nu_</text>
</g>
<!-- Node3 -->
<g id="node3" class="node">
<title>Node3</title>
<g id="a_node3"><a xlink:title=" ">
<polygon fill="white" stroke="#bfbfbf" points="52,-189.5 52,-208.5 81,-208.5 81,-189.5 52,-189.5"/>
<text text-anchor="middle" x="66.5" y="-196.5" font-family="Helvetica,sans-Serif" font-size="10.00">S</text>
</a>
</g>
</g>
<!-- Node3&#45;&gt;Node2 -->
<g id="edge2" class="edge">
<title>Node3&#45;&gt;Node2</title>
<path fill="none" stroke="#9a32cd" stroke-dasharray="5,2" d="M66.5,-178.91C66.5,-161.81 66.5,-136.84 66.5,-119.59"/>
<polygon fill="#9a32cd" stroke="#9a32cd" points="63,-179.3 66.5,-189.3 70,-179.3 63,-179.3"/>
<text text-anchor="middle" x="71.5" y="-163" font-family="Helvetica,sans-Serif" font-size="10.00"> x</text>
<text text-anchor="middle" x="71.5" y="-152" font-family="Helvetica,sans-Serif" font-size="10.00">y</text>
<text text-anchor="middle" x="71.5" y="-141" font-family="Helvetica,sans-Serif" font-size="10.00">z</text>
</g>
</g>
</svg>
