<?xml version="1.0" encoding="UTF-8" standalone="no"?>
<!DOCTYPE svg PUBLIC "-//W3C//DTD SVG 1.1//EN"
 "http://www.w3.org/Graphics/SVG/1.1/DTD/svg11.dtd">
<!-- Generated by graphviz version 2.43.0 (0)
 -->
<!-- Title: mini::coordinate::Quadrangle9&lt; Scalar, kPhysDim &gt; Pages: 1 -->
<svg width="172pt" height="240pt"
 viewBox="0.00 0.00 172.00 240.00" xmlns="http://www.w3.org/2000/svg" xmlns:xlink="http://www.w3.org/1999/xlink">
<g id="graph0" class="graph" transform="scale(1 1) rotate(0) translate(4 236)">
<title>mini::coordinate::Quadrangle9&lt; Scalar, kPhysDim &gt;</title>
<polygon fill="white" stroke="transparent" points="-4,4 -4,-236 168,-236 168,4 -4,4"/>
<!-- Node1 -->
<g id="node1" class="node">
<title>Node1</title>
<g id="a_node1"><a xlink:title="Coordinate map on 9&#45;node quadrilateral elements.">
<polygon fill="#bfbfbf" stroke="black" points="0,-0.5 0,-30.5 164,-30.5 164,-0.5 0,-0.5"/>
<text text-anchor="start" x="8" y="-18.5" font-family="Helvetica,sans-Serif" font-size="10.00">mini::coordinate::Quadrangle9</text>
<text text-anchor="middle" x="82" y="-7.5" font-family="Helvetica,sans-Serif" font-size="10.00">&lt; Scalar, kPhysDim &gt;</text>
</a>
</g>
</g>
<!-- Node2 -->
<g id="node2" class="node">
<title>Node2</title>
<g id="a_node2"><a xlink:href="classmini_1_1coordinate_1_1Quadrangle.html" target="_top" xlink:title="Abstract coordinate map on quadrilateral elements.">
<polygon fill="white" stroke="black" points="3,-67.5 3,-97.5 161,-97.5 161,-67.5 3,-67.5"/>
<text text-anchor="start" x="11" y="-85.5" font-family="Helvetica,sans-Serif" font-size="10.00">mini::coordinate::Quadrangle</text>
<text text-anchor="middle" x="82" y="-74.5" font-family="Helvetica,sans-Serif" font-size="10.00">&lt; Scalar, kPhysDim &gt;</text>
</a>
</g>
</g>
<!-- Node2&#45;&gt;Node1 -->
<g id="edge1" class="edge">
<title>Node2&#45;&gt;Node1</title>
<path fill="none" stroke="midnightblue" d="M82,-57.11C82,-48.15 82,-38.32 82,-30.58"/>
<polygon fill="midnightblue" stroke="midnightblue" points="78.5,-57.4 82,-67.4 85.5,-57.4 78.5,-57.4"/>
</g>
<!-- Node3 -->
<g id="node3" class="node">
<title>Node3</title>
<g id="a_node3"><a xlink:href="classmini_1_1coordinate_1_1Face.html" target="_top" xlink:title="Abstract coordinate map on surface elements.">
<polygon fill="white" stroke="black" points="19.5,-134.5 19.5,-164.5 144.5,-164.5 144.5,-134.5 19.5,-134.5"/>
<text text-anchor="start" x="27.5" y="-152.5" font-family="Helvetica,sans-Serif" font-size="10.00">mini::coordinate::Face</text>
<text text-anchor="middle" x="82" y="-141.5" font-family="Helvetica,sans-Serif" font-size="10.00">&lt; Scalar, kPhysDim &gt;</text>
</a>
</g>
</g>
<!-- Node3&#45;&gt;Node2 -->
<g id="edge2" class="edge">
<title>Node3&#45;&gt;Node2</title>
<path fill="none" stroke="midnightblue" d="M82,-124.11C82,-115.15 82,-105.32 82,-97.58"/>
<polygon fill="midnightblue" stroke="midnightblue" points="78.5,-124.4 82,-134.4 85.5,-124.4 78.5,-124.4"/>
</g>
<!-- Node4 -->
<g id="node4" class="node">
<title>Node4</title>
<g id="a_node4"><a xlink:href="classmini_1_1coordinate_1_1Element.html" target="_top" xlink:title=" ">
<polygon fill="white" stroke="black" points="10.5,-201.5 10.5,-231.5 153.5,-231.5 153.5,-201.5 10.5,-201.5"/>
<text text-anchor="start" x="18.5" y="-219.5" font-family="Helvetica,sans-Serif" font-size="10.00">mini::coordinate::Element</text>
<text text-anchor="middle" x="82" y="-208.5" font-family="Helvetica,sans-Serif" font-size="10.00">&lt; Scalar, kPhysDim, 2 &gt;</text>
</a>
</g>
</g>
<!-- Node4&#45;&gt;Node3 -->
<g id="edge3" class="edge">
<title>Node4&#45;&gt;Node3</title>
<path fill="none" stroke="midnightblue" d="M82,-191.11C82,-182.15 82,-172.32 82,-164.58"/>
<polygon fill="midnightblue" stroke="midnightblue" points="78.5,-191.4 82,-201.4 85.5,-191.4 78.5,-191.4"/>
</g>
</g>
</svg>
