<?xml version="1.0" encoding="UTF-8" standalone="no"?>
<!DOCTYPE svg PUBLIC "-//W3C//DTD SVG 1.1//EN"
 "http://www.w3.org/Graphics/SVG/1.1/DTD/svg11.dtd">
<!-- Generated by graphviz version 2.43.0 (0)
 -->
<!-- Title: mini::coordinate::Hexahedron&lt; Scalar &gt; Pages: 1 -->
<svg width="714pt" height="186pt"
 viewBox="0.00 0.00 714.00 186.00" xmlns="http://www.w3.org/2000/svg" xmlns:xlink="http://www.w3.org/1999/xlink">
<g id="graph0" class="graph" transform="scale(1 1) rotate(0) translate(4 182)">
<title>mini::coordinate::Hexahedron&lt; Scalar &gt;</title>
<polygon fill="white" stroke="transparent" points="-4,4 -4,-182 710,-182 710,4 -4,4"/>
<!-- Node1 -->
<g id="node1" class="node">
<title>Node1</title>
<g id="a_node1"><a xlink:title="Abstract coordinate map on hexahedral elements.">
<polygon fill="#bfbfbf" stroke="black" points="336,-73.5 336,-103.5 497,-103.5 497,-73.5 336,-73.5"/>
<text text-anchor="start" x="344" y="-91.5" font-family="Helvetica,sans-Serif" font-size="10.00">mini::coordinate::Hexahedron</text>
<text text-anchor="middle" x="416.5" y="-80.5" font-family="Helvetica,sans-Serif" font-size="10.00">&lt; Scalar &gt;</text>
</a>
</g>
</g>
<!-- Node4 -->
<g id="node4" class="node">
<title>Node4</title>
<g id="a_node4"><a xlink:href="classmini_1_1coordinate_1_1Hexahedron20.html" target="_top" xlink:title="Coordinate map on 20&#45;node hexahedral elements.">
<polygon fill="white" stroke="black" points="533,-147.5 533,-177.5 706,-177.5 706,-147.5 533,-147.5"/>
<text text-anchor="start" x="541" y="-165.5" font-family="Helvetica,sans-Serif" font-size="10.00">mini::coordinate::Hexahedron20</text>
<text text-anchor="middle" x="619.5" y="-154.5" font-family="Helvetica,sans-Serif" font-size="10.00">&lt; Scalar &gt;</text>
</a>
</g>
</g>
<!-- Node1&#45;&gt;Node4 -->
<g id="edge3" class="edge">
<title>Node1&#45;&gt;Node4</title>
<path fill="none" stroke="midnightblue" d="M458.68,-107.94C480.49,-117.82 507.89,-129.59 533,-138.5 541.86,-141.65 551.36,-144.66 560.68,-147.41"/>
<polygon fill="midnightblue" stroke="midnightblue" points="459.95,-104.67 449.4,-103.69 457.03,-111.03 459.95,-104.67"/>
</g>
<!-- Node5 -->
<g id="node5" class="node">
<title>Node5</title>
<g id="a_node5"><a xlink:href="classmini_1_1coordinate_1_1Hexahedron26.html" target="_top" xlink:title="Coordinate map on 26&#45;node hexahedral elements.">
<polygon fill="white" stroke="black" points="533,-98.5 533,-128.5 706,-128.5 706,-98.5 533,-98.5"/>
<text text-anchor="start" x="541" y="-116.5" font-family="Helvetica,sans-Serif" font-size="10.00">mini::coordinate::Hexahedron26</text>
<text text-anchor="middle" x="619.5" y="-105.5" font-family="Helvetica,sans-Serif" font-size="10.00">&lt; Scalar &gt;</text>
</a>
</g>
</g>
<!-- Node1&#45;&gt;Node5 -->
<g id="edge4" class="edge">
<title>Node1&#45;&gt;Node5</title>
<path fill="none" stroke="midnightblue" d="M507.2,-99.66C515.75,-100.72 524.41,-101.8 532.92,-102.86"/>
<polygon fill="midnightblue" stroke="midnightblue" points="507.58,-96.18 497.23,-98.42 506.72,-103.12 507.58,-96.18"/>
</g>
<!-- Node6 -->
<g id="node6" class="node">
<title>Node6</title>
<g id="a_node6"><a xlink:href="classmini_1_1coordinate_1_1Hexahedron27.html" target="_top" xlink:title="Coordinate map on 27&#45;node hexahedral elements.">
<polygon fill="white" stroke="black" points="533,-49.5 533,-79.5 706,-79.5 706,-49.5 533,-49.5"/>
<text text-anchor="start" x="541" y="-67.5" font-family="Helvetica,sans-Serif" font-size="10.00">mini::coordinate::Hexahedron27</text>
<text text-anchor="middle" x="619.5" y="-56.5" font-family="Helvetica,sans-Serif" font-size="10.00">&lt; Scalar &gt;</text>
</a>
</g>
</g>
<!-- Node1&#45;&gt;Node6 -->
<g id="edge5" class="edge">
<title>Node1&#45;&gt;Node6</title>
<path fill="none" stroke="midnightblue" d="M507.2,-77.79C515.75,-76.77 524.41,-75.73 532.92,-74.72"/>
<polygon fill="midnightblue" stroke="midnightblue" points="506.74,-74.32 497.23,-78.98 507.57,-81.27 506.74,-74.32"/>
</g>
<!-- Node7 -->
<g id="node7" class="node">
<title>Node7</title>
<g id="a_node7"><a xlink:href="classmini_1_1coordinate_1_1Hexahedron8.html" target="_top" xlink:title="Coordinate map on 8&#45;node hexahedral elements.">
<polygon fill="white" stroke="black" points="536,-0.5 536,-30.5 703,-30.5 703,-0.5 536,-0.5"/>
<text text-anchor="start" x="544" y="-18.5" font-family="Helvetica,sans-Serif" font-size="10.00">mini::coordinate::Hexahedron8</text>
<text text-anchor="middle" x="619.5" y="-7.5" font-family="Helvetica,sans-Serif" font-size="10.00">&lt; Scalar &gt;</text>
</a>
</g>
</g>
<!-- Node1&#45;&gt;Node7 -->
<g id="edge6" class="edge">
<title>Node1&#45;&gt;Node7</title>
<path fill="none" stroke="midnightblue" d="M459.19,-69.29C480.93,-59.67 508.11,-48.23 533,-39.5 542.02,-36.34 551.69,-33.3 561.16,-30.51"/>
<polygon fill="midnightblue" stroke="midnightblue" points="457.62,-66.16 449.92,-73.43 460.48,-72.55 457.62,-66.16"/>
</g>
<!-- Node2 -->
<g id="node2" class="node">
<title>Node2</title>
<g id="a_node2"><a xlink:href="classmini_1_1coordinate_1_1Cell.html" target="_top" xlink:title="Abstract coordinate map on volume elements.">
<polygon fill="white" stroke="black" points="179,-73.5 179,-103.5 300,-103.5 300,-73.5 179,-73.5"/>
<text text-anchor="start" x="187" y="-91.5" font-family="Helvetica,sans-Serif" font-size="10.00">mini::coordinate::Cell</text>
<text text-anchor="middle" x="239.5" y="-80.5" font-family="Helvetica,sans-Serif" font-size="10.00">&lt; Scalar &gt;</text>
</a>
</g>
</g>
<!-- Node2&#45;&gt;Node1 -->
<g id="edge1" class="edge">
<title>Node2&#45;&gt;Node1</title>
<path fill="none" stroke="midnightblue" d="M310.35,-88.5C318.76,-88.5 327.39,-88.5 335.92,-88.5"/>
<polygon fill="midnightblue" stroke="midnightblue" points="310.24,-85 300.24,-88.5 310.24,-92 310.24,-85"/>
</g>
<!-- Node3 -->
<g id="node3" class="node">
<title>Node3</title>
<g id="a_node3"><a xlink:href="classmini_1_1coordinate_1_1Element.html" target="_top" xlink:title=" ">
<polygon fill="white" stroke="black" points="0,-73.5 0,-103.5 143,-103.5 143,-73.5 0,-73.5"/>
<text text-anchor="start" x="8" y="-91.5" font-family="Helvetica,sans-Serif" font-size="10.00">mini::coordinate::Element</text>
<text text-anchor="middle" x="71.5" y="-80.5" font-family="Helvetica,sans-Serif" font-size="10.00">&lt; Scalar, 3, 3 &gt;</text>
</a>
</g>
</g>
<!-- Node3&#45;&gt;Node2 -->
<g id="edge2" class="edge">
<title>Node3&#45;&gt;Node2</title>
<path fill="none" stroke="midnightblue" d="M153.4,-88.5C161.97,-88.5 170.56,-88.5 178.82,-88.5"/>
<polygon fill="midnightblue" stroke="midnightblue" points="153.38,-85 143.38,-88.5 153.38,-92 153.38,-85"/>
</g>
</g>
</svg>
