<?xml version="1.0" encoding="UTF-8" standalone="no"?>
<!DOCTYPE svg PUBLIC "-//W3C//DTD SVG 1.1//EN"
 "http://www.w3.org/Graphics/SVG/1.1/DTD/svg11.dtd">
<!-- Generated by graphviz version 2.43.0 (0)
 -->
<!-- Title: python.riemann.Roe Pages: 1 -->
<svg width="177pt" height="319pt"
 viewBox="0.00 0.00 177.00 319.00" xmlns="http://www.w3.org/2000/svg" xmlns:xlink="http://www.w3.org/1999/xlink">
<g id="graph0" class="graph" transform="scale(1 1) rotate(0) translate(4 315)">
<title>python.riemann.Roe</title>
<polygon fill="white" stroke="transparent" points="-4,4 -4,-315 173,-315 173,4 -4,4"/>
<!-- Node1 -->
<g id="node1" class="node">
<title>Node1</title>
<g id="a_node1"><a xlink:title=" ">
<polygon fill="#bfbfbf" stroke="black" points="26.5,-0.5 26.5,-19.5 142.5,-19.5 142.5,-0.5 26.5,-0.5"/>
<text text-anchor="middle" x="84.5" y="-7.5" font-family="Helvetica,sans-Serif" font-size="10.00">python.riemann.Roe</text>
</a>
</g>
</g>
<!-- Node2 -->
<g id="node2" class="node">
<title>Node2</title>
<g id="a_node2"><a xlink:href="classpython_1_1riemann_1_1ApproximateEuler.html" target="_top" xlink:title=" ">
<polygon fill="white" stroke="black" points="4.5,-56.5 4.5,-86.5 164.5,-86.5 164.5,-56.5 4.5,-56.5"/>
<text text-anchor="start" x="12.5" y="-74.5" font-family="Helvetica,sans-Serif" font-size="10.00">python.riemann.Approximate</text>
<text text-anchor="middle" x="84.5" y="-63.5" font-family="Helvetica,sans-Serif" font-size="10.00">Euler</text>
</a>
</g>
</g>
<!-- Node2&#45;&gt;Node1 -->
<g id="edge1" class="edge">
<title>Node2&#45;&gt;Node1</title>
<path fill="none" stroke="midnightblue" d="M84.5,-46.29C84.5,-36.86 84.5,-26.65 84.5,-19.66"/>
<polygon fill="midnightblue" stroke="midnightblue" points="81,-46.4 84.5,-56.4 88,-46.4 81,-46.4"/>
</g>
<!-- Node3 -->
<g id="node3" class="node">
<title>Node3</title>
<g id="a_node3"><a xlink:href="classpython_1_1riemann_1_1Euler.html" target="_top" xlink:title=" ">
<polygon fill="white" stroke="black" points="23.5,-123.5 23.5,-142.5 145.5,-142.5 145.5,-123.5 23.5,-123.5"/>
<text text-anchor="middle" x="84.5" y="-130.5" font-family="Helvetica,sans-Serif" font-size="10.00">python.riemann.Euler</text>
</a>
</g>
</g>
<!-- Node3&#45;&gt;Node2 -->
<g id="edge2" class="edge">
<title>Node3&#45;&gt;Node2</title>
<path fill="none" stroke="midnightblue" d="M84.5,-113.23C84.5,-104.59 84.5,-94.5 84.5,-86.52"/>
<polygon fill="midnightblue" stroke="midnightblue" points="81,-113.48 84.5,-123.48 88,-113.48 81,-113.48"/>
</g>
<!-- Node4 -->
<g id="node4" class="node">
<title>Node4</title>
<g id="a_node4"><a xlink:href="classpython_1_1riemann_1_1Solver.html" target="_top" xlink:title=" ">
<polygon fill="white" stroke="black" points="20.5,-179.5 20.5,-198.5 148.5,-198.5 148.5,-179.5 20.5,-179.5"/>
<text text-anchor="middle" x="84.5" y="-186.5" font-family="Helvetica,sans-Serif" font-size="10.00">python.riemann.Solver</text>
</a>
</g>
</g>
<!-- Node4&#45;&gt;Node3 -->
<g id="edge3" class="edge">
<title>Node4&#45;&gt;Node3</title>
<path fill="none" stroke="midnightblue" d="M84.5,-168.8C84.5,-159.91 84.5,-149.78 84.5,-142.75"/>
<polygon fill="midnightblue" stroke="midnightblue" points="81,-169.08 84.5,-179.08 88,-169.08 81,-169.08"/>
</g>
<!-- Node5 -->
<g id="node5" class="node">
<title>Node5</title>
<g id="a_node5"><a xlink:href="classpython_1_1concept_1_1RiemannSolver.html" target="_top" xlink:title="An exact or approximate solver for the Riemann problem of an Equation.">
<polygon fill="white" stroke="black" points="0,-235.5 0,-254.5 169,-254.5 169,-235.5 0,-235.5"/>
<text text-anchor="middle" x="84.5" y="-242.5" font-family="Helvetica,sans-Serif" font-size="10.00">python.concept.RiemannSolver</text>
</a>
</g>
</g>
<!-- Node5&#45;&gt;Node4 -->
<g id="edge4" class="edge">
<title>Node5&#45;&gt;Node4</title>
<path fill="none" stroke="midnightblue" d="M84.5,-224.8C84.5,-215.91 84.5,-205.78 84.5,-198.75"/>
<polygon fill="midnightblue" stroke="midnightblue" points="81,-225.08 84.5,-235.08 88,-225.08 81,-225.08"/>
</g>
<!-- Node6 -->
<g id="node6" class="node">
<title>Node6</title>
<g id="a_node6"><a xlink:title=" ">
<polygon fill="white" stroke="#bfbfbf" points="56,-291.5 56,-310.5 113,-310.5 113,-291.5 56,-291.5"/>
<text text-anchor="middle" x="84.5" y="-298.5" font-family="Helvetica,sans-Serif" font-size="10.00">abc.ABC</text>
</a>
</g>
</g>
<!-- Node6&#45;&gt;Node5 -->
<g id="edge5" class="edge">
<title>Node6&#45;&gt;Node5</title>
<path fill="none" stroke="midnightblue" d="M84.5,-280.8C84.5,-271.91 84.5,-261.78 84.5,-254.75"/>
<polygon fill="midnightblue" stroke="midnightblue" points="81,-281.08 84.5,-291.08 88,-281.08 81,-281.08"/>
</g>
</g>
</svg>
