<?xml version="1.0" encoding="UTF-8" standalone="no"?>
<!DOCTYPE svg PUBLIC "-//W3C//DTD SVG 1.1//EN"
 "http://www.w3.org/Graphics/SVG/1.1/DTD/svg11.dtd">
<!-- Generated by graphviz version 2.43.0 (0)
 -->
<!-- Title: python.detector.LiWanAi2011 Pages: 1 -->
<svg width="167pt" height="207pt"
 viewBox="0.00 0.00 167.00 207.00" xmlns="http://www.w3.org/2000/svg" xmlns:xlink="http://www.w3.org/1999/xlink">
<g id="graph0" class="graph" transform="scale(1 1) rotate(0) translate(4 203)">
<title>python.detector.LiWanAi2011</title>
<polygon fill="white" stroke="transparent" points="-4,4 -4,-203 163,-203 163,4 -4,4"/>
<!-- Node1 -->
<g id="node1" class="node">
<title>Node1</title>
<g id="a_node1"><a xlink:title="A jump detector for high&#45;order finite volume schemes.">
<polygon fill="#bfbfbf" stroke="black" points="0,-0.5 0,-19.5 159,-19.5 159,-0.5 0,-0.5"/>
<text text-anchor="middle" x="79.5" y="-7.5" font-family="Helvetica,sans-Serif" font-size="10.00">python.detector.LiWanAi2011</text>
</a>
</g>
</g>
<!-- Node2 -->
<g id="node2" class="node">
<title>Node2</title>
<g id="a_node2"><a xlink:href="classpython_1_1detector_1_1SmoothnessBased.html" target="_top" xlink:title=" ">
<polygon fill="white" stroke="black" points="1.5,-56.5 1.5,-86.5 157.5,-86.5 157.5,-56.5 1.5,-56.5"/>
<text text-anchor="start" x="9.5" y="-74.5" font-family="Helvetica,sans-Serif" font-size="10.00">python.detector.Smoothness</text>
<text text-anchor="middle" x="79.5" y="-63.5" font-family="Helvetica,sans-Serif" font-size="10.00">Based</text>
</a>
</g>
</g>
<!-- Node2&#45;&gt;Node1 -->
<g id="edge1" class="edge">
<title>Node2&#45;&gt;Node1</title>
<path fill="none" stroke="midnightblue" d="M79.5,-46.29C79.5,-36.86 79.5,-26.65 79.5,-19.66"/>
<polygon fill="midnightblue" stroke="midnightblue" points="76,-46.4 79.5,-56.4 83,-46.4 76,-46.4"/>
</g>
<!-- Node3 -->
<g id="node3" class="node">
<title>Node3</title>
<g id="a_node3"><a xlink:href="classpython_1_1concept_1_1Detector.html" target="_top" xlink:title="An object that detects jumps on an element.">
<polygon fill="white" stroke="black" points="11,-123.5 11,-142.5 148,-142.5 148,-123.5 11,-123.5"/>
<text text-anchor="middle" x="79.5" y="-130.5" font-family="Helvetica,sans-Serif" font-size="10.00">python.concept.Detector</text>
</a>
</g>
</g>
<!-- Node3&#45;&gt;Node2 -->
<g id="edge2" class="edge">
<title>Node3&#45;&gt;Node2</title>
<path fill="none" stroke="midnightblue" d="M79.5,-113.23C79.5,-104.59 79.5,-94.5 79.5,-86.52"/>
<polygon fill="midnightblue" stroke="midnightblue" points="76,-113.48 79.5,-123.48 83,-113.48 76,-113.48"/>
</g>
<!-- Node4 -->
<g id="node4" class="node">
<title>Node4</title>
<g id="a_node4"><a xlink:title=" ">
<polygon fill="white" stroke="#bfbfbf" points="51,-179.5 51,-198.5 108,-198.5 108,-179.5 51,-179.5"/>
<text text-anchor="middle" x="79.5" y="-186.5" font-family="Helvetica,sans-Serif" font-size="10.00">abc.ABC</text>
</a>
</g>
</g>
<!-- Node4&#45;&gt;Node3 -->
<g id="edge3" class="edge">
<title>Node4&#45;&gt;Node3</title>
<path fill="none" stroke="midnightblue" d="M79.5,-168.8C79.5,-159.91 79.5,-149.78 79.5,-142.75"/>
<polygon fill="midnightblue" stroke="midnightblue" points="76,-169.08 79.5,-179.08 83,-169.08 76,-169.08"/>
</g>
</g>
</svg>
