<?xml version="1.0" encoding="UTF-8" standalone="no"?>
<!DOCTYPE svg PUBLIC "-//W3C//DTD SVG 1.1//EN"
 "http://www.w3.org/Graphics/SVG/1.1/DTD/svg11.dtd">
<!-- Generated by graphviz version 2.43.0 (0)
 -->
<!-- Title: mini::spatial::FiniteElement&lt; P, R &gt; Pages: 1 -->
<svg width="624pt" height="137pt"
 viewBox="0.00 0.00 624.00 137.00" xmlns="http://www.w3.org/2000/svg" xmlns:xlink="http://www.w3.org/1999/xlink">
<g id="graph0" class="graph" transform="scale(1 1) rotate(0) translate(4 133)">
<title>mini::spatial::FiniteElement&lt; P, R &gt;</title>
<polygon fill="white" stroke="transparent" points="-4,4 -4,-133 620,-133 620,4 -4,4"/>
<!-- Node1 -->
<g id="node1" class="node">
<title>Node1</title>
<g id="a_node1"><a xlink:title=" ">
<polygon fill="#bfbfbf" stroke="black" points="167,-24.5 167,-54.5 318,-54.5 318,-24.5 167,-24.5"/>
<text text-anchor="start" x="175" y="-42.5" font-family="Helvetica,sans-Serif" font-size="10.00">mini::spatial::FiniteElement</text>
<text text-anchor="middle" x="242.5" y="-31.5" font-family="Helvetica,sans-Serif" font-size="10.00">&lt; P, R &gt;</text>
</a>
</g>
</g>
<!-- Node3 -->
<g id="node3" class="node">
<title>Node3</title>
<g id="a_node3"><a xlink:href="classmini_1_1spatial_1_1dg_1_1General.html" target="_top" xlink:title=" ">
<polygon fill="white" stroke="black" points="354,-49.5 354,-79.5 455,-79.5 455,-49.5 354,-49.5"/>
<text text-anchor="start" x="362" y="-67.5" font-family="Helvetica,sans-Serif" font-size="10.00">mini::spatial::dg::</text>
<text text-anchor="middle" x="404.5" y="-56.5" font-family="Helvetica,sans-Serif" font-size="10.00">General&lt; P, R &gt;</text>
</a>
</g>
</g>
<!-- Node1&#45;&gt;Node3 -->
<g id="edge2" class="edge">
<title>Node1&#45;&gt;Node3</title>
<path fill="none" stroke="midnightblue" d="M328.23,-52.74C336.98,-54.11 345.65,-55.46 353.83,-56.74"/>
<polygon fill="midnightblue" stroke="midnightblue" points="328.77,-49.28 318.35,-51.19 327.69,-56.2 328.77,-49.28"/>
</g>
<!-- Node6 -->
<g id="node6" class="node">
<title>Node6</title>
<g id="a_node6"><a xlink:href="classmini_1_1spatial_1_1fr_1_1General.html" target="_top" xlink:title="A general version of FR using a Lagrange expansion whose flux points are also solution points.">
<polygon fill="white" stroke="black" points="356,-0.5 356,-30.5 453,-30.5 453,-0.5 356,-0.5"/>
<text text-anchor="start" x="364" y="-18.5" font-family="Helvetica,sans-Serif" font-size="10.00">mini::spatial::fr::</text>
<text text-anchor="middle" x="404.5" y="-7.5" font-family="Helvetica,sans-Serif" font-size="10.00">General&lt; P, R &gt;</text>
</a>
</g>
</g>
<!-- Node1&#45;&gt;Node6 -->
<g id="edge5" class="edge">
<title>Node1&#45;&gt;Node6</title>
<path fill="none" stroke="midnightblue" d="M328.47,-26.75C337.79,-25.36 347.02,-23.97 355.65,-22.68"/>
<polygon fill="midnightblue" stroke="midnightblue" points="327.72,-23.33 318.35,-28.27 328.76,-30.25 327.72,-23.33"/>
</g>
<!-- Node2 -->
<g id="node2" class="node">
<title>Node2</title>
<g id="a_node2"><a xlink:href="classmini_1_1temporal_1_1System.html" target="_top" xlink:title=" ">
<polygon fill="white" stroke="black" points="0,-24.5 0,-54.5 131,-54.5 131,-24.5 0,-24.5"/>
<text text-anchor="start" x="8" y="-42.5" font-family="Helvetica,sans-Serif" font-size="10.00">mini::temporal::System</text>
<text text-anchor="middle" x="65.5" y="-31.5" font-family="Helvetica,sans-Serif" font-size="10.00">&lt; P::Scalar &gt;</text>
</a>
</g>
</g>
<!-- Node2&#45;&gt;Node1 -->
<g id="edge1" class="edge">
<title>Node2&#45;&gt;Node1</title>
<path fill="none" stroke="midnightblue" d="M141.34,-39.5C149.76,-39.5 158.34,-39.5 166.76,-39.5"/>
<polygon fill="midnightblue" stroke="midnightblue" points="141.17,-36 131.17,-39.5 141.17,-43 141.17,-36"/>
</g>
<!-- Node4 -->
<g id="node4" class="node">
<title>Node4</title>
<g id="a_node4"><a xlink:href="classmini_1_1spatial_1_1dg_1_1Lobatto.html" target="_top" xlink:title="A specialized version of DG using a Lagrange expansion on Lobatto roots.">
<polygon fill="white" stroke="black" points="503,-98.5 503,-128.5 604,-128.5 604,-98.5 503,-98.5"/>
<text text-anchor="start" x="511" y="-116.5" font-family="Helvetica,sans-Serif" font-size="10.00">mini::spatial::dg::</text>
<text text-anchor="middle" x="553.5" y="-105.5" font-family="Helvetica,sans-Serif" font-size="10.00">Lobatto&lt; P, R &gt;</text>
</a>
</g>
</g>
<!-- Node3&#45;&gt;Node4 -->
<g id="edge3" class="edge">
<title>Node3&#45;&gt;Node4</title>
<path fill="none" stroke="midnightblue" d="M460.72,-82.91C476.1,-88.03 492.62,-93.54 507.35,-98.45"/>
<polygon fill="midnightblue" stroke="midnightblue" points="461.4,-79.44 450.8,-79.6 459.18,-86.08 461.4,-79.44"/>
</g>
<!-- Node5 -->
<g id="node5" class="node">
<title>Node5</title>
<g id="a_node5"><a xlink:href="classmini_1_1spatial_1_1dg_1_1WithSource.html" target="_top" xlink:title=" ">
<polygon fill="white" stroke="black" points="491,-49.5 491,-79.5 616,-79.5 616,-49.5 491,-49.5"/>
<text text-anchor="start" x="499" y="-67.5" font-family="Helvetica,sans-Serif" font-size="10.00">mini::spatial::dg::</text>
<text text-anchor="middle" x="553.5" y="-56.5" font-family="Helvetica,sans-Serif" font-size="10.00">WithSource&lt; P, R, S &gt;</text>
</a>
</g>
</g>
<!-- Node3&#45;&gt;Node5 -->
<g id="edge4" class="edge">
<title>Node3&#45;&gt;Node5</title>
<path fill="none" stroke="midnightblue" d="M465.35,-64.5C473.73,-64.5 482.37,-64.5 490.79,-64.5"/>
<polygon fill="midnightblue" stroke="midnightblue" points="465.27,-61 455.27,-64.5 465.27,-68 465.27,-61"/>
</g>
<!-- Node7 -->
<g id="node7" class="node">
<title>Node7</title>
<g id="a_node7"><a xlink:href="classmini_1_1spatial_1_1fr_1_1Lobatto.html" target="_top" xlink:title="A specialized version of FR using a Lagrange expansion on Lobatto roots with the &quot;Lumping Lobatto&quot; co...">
<polygon fill="white" stroke="black" points="505,-0.5 505,-30.5 602,-30.5 602,-0.5 505,-0.5"/>
<text text-anchor="start" x="513" y="-18.5" font-family="Helvetica,sans-Serif" font-size="10.00">mini::spatial::fr::</text>
<text text-anchor="middle" x="553.5" y="-7.5" font-family="Helvetica,sans-Serif" font-size="10.00">Lobatto&lt; P, R &gt;</text>
</a>
</g>
</g>
<!-- Node6&#45;&gt;Node7 -->
<g id="edge6" class="edge">
<title>Node6&#45;&gt;Node7</title>
<path fill="none" stroke="midnightblue" d="M463.5,-15.5C477.18,-15.5 491.6,-15.5 504.76,-15.5"/>
<polygon fill="midnightblue" stroke="midnightblue" points="463.23,-12 453.23,-15.5 463.23,-19 463.23,-12"/>
</g>
</g>
</svg>
