<?xml version="1.0" encoding="UTF-8" standalone="no"?>
<!DOCTYPE svg PUBLIC "-//W3C//DTD SVG 1.1//EN"
 "http://www.w3.org/Graphics/SVG/1.1/DTD/svg11.dtd">
<!-- Generated by graphviz version 2.43.0 (0)
 -->
<!-- Title: mini::riemann::diffusive::Isotropic&lt; S, K &gt; Pages: 1 -->
<svg width="141pt" height="285pt"
 viewBox="0.00 0.00 141.00 285.00" xmlns="http://www.w3.org/2000/svg" xmlns:xlink="http://www.w3.org/1999/xlink">
<g id="graph0" class="graph" transform="scale(1 1) rotate(0) translate(4 281)">
<title>mini::riemann::diffusive::Isotropic&lt; S, K &gt;</title>
<polygon fill="white" stroke="transparent" points="-4,4 -4,-281 137,-281 137,4 -4,4"/>
<!-- Node1 -->
<g id="node1" class="node">
<title>Node1</title>
<g id="a_node1"><a xlink:title="A constant linear diffusion model, whose diffusive flux is .">
<polygon fill="#bfbfbf" stroke="black" points="0,-0.5 0,-30.5 133,-30.5 133,-0.5 0,-0.5"/>
<text text-anchor="start" x="8" y="-18.5" font-family="Helvetica,sans-Serif" font-size="10.00">mini::riemann::diffusive</text>
<text text-anchor="middle" x="66.5" y="-7.5" font-family="Helvetica,sans-Serif" font-size="10.00">::Isotropic&lt; S, K &gt;</text>
</a>
</g>
</g>
<!-- Node2 -->
<g id="node2" class="node">
<title>Node2</title>
<g id="a_node2"><a xlink:href="classmini_1_1riemann_1_1diffusive_1_1Anisotropic.html" target="_top" xlink:title="A constant linear diffusion model, whose diffusive flux is .">
<polygon fill="white" stroke="black" points="0,-68.5 0,-98.5 133,-98.5 133,-68.5 0,-68.5"/>
<text text-anchor="start" x="8" y="-86.5" font-family="Helvetica,sans-Serif" font-size="10.00">mini::riemann::diffusive</text>
<text text-anchor="middle" x="66.5" y="-75.5" font-family="Helvetica,sans-Serif" font-size="10.00">::Anisotropic&lt; S, K &gt;</text>
</a>
</g>
</g>
<!-- Node2&#45;&gt;Node1 -->
<g id="edge1" class="edge">
<title>Node2&#45;&gt;Node1</title>
<path fill="none" stroke="midnightblue" d="M66.5,-58.03C66.5,-48.86 66.5,-38.74 66.5,-30.79"/>
<polygon fill="midnightblue" stroke="midnightblue" points="63,-58.18 66.5,-68.18 70,-58.18 63,-58.18"/>
</g>
<!-- Node3 -->
<g id="node3" class="node">
<title>Node3</title>
<g id="a_node3"><a xlink:href="structmini_1_1riemann_1_1diffusive_1_1Anisotropic_1_1Property.html" target="_top" xlink:title=" ">
<polygon fill="white" stroke="black" points="0,-146.5 0,-187.5 133,-187.5 133,-146.5 0,-146.5"/>
<text text-anchor="start" x="8" y="-175.5" font-family="Helvetica,sans-Serif" font-size="10.00">mini::riemann::diffusive</text>
<text text-anchor="start" x="8" y="-164.5" font-family="Helvetica,sans-Serif" font-size="10.00">::Anisotropic&lt; S, K &gt;::</text>
<text text-anchor="middle" x="66.5" y="-153.5" font-family="Helvetica,sans-Serif" font-size="10.00">Property</text>
</a>
</g>
</g>
<!-- Node3&#45;&gt;Node2 -->
<g id="edge2" class="edge">
<title>Node3&#45;&gt;Node2</title>
<path fill="none" stroke="#9a32cd" stroke-dasharray="5,2" d="M66.5,-136.03C66.5,-123.26 66.5,-108.97 66.5,-98.68"/>
<polygon fill="#9a32cd" stroke="#9a32cd" points="63,-136.27 66.5,-146.27 70,-136.27 63,-136.27"/>
<text text-anchor="middle" x="77" y="-120" font-family="Helvetica,sans-Serif" font-size="10.00"> nu_</text>
</g>
<!-- Node4 -->
<g id="node4" class="node">
<title>Node4</title>
<g id="a_node4"><a xlink:title=" ">
<polygon fill="white" stroke="#bfbfbf" points="52,-257.5 52,-276.5 81,-276.5 81,-257.5 52,-257.5"/>
<text text-anchor="middle" x="66.5" y="-264.5" font-family="Helvetica,sans-Serif" font-size="10.00">S</text>
</a>
</g>
</g>
<!-- Node4&#45;&gt;Node3 -->
<g id="edge3" class="edge">
<title>Node4&#45;&gt;Node3</title>
<path fill="none" stroke="#9a32cd" stroke-dasharray="5,2" d="M66.5,-246.91C66.5,-229.81 66.5,-204.84 66.5,-187.59"/>
<polygon fill="#9a32cd" stroke="#9a32cd" points="63,-247.3 66.5,-257.3 70,-247.3 63,-247.3"/>
<text text-anchor="middle" x="71.5" y="-231" font-family="Helvetica,sans-Serif" font-size="10.00"> x</text>
<text text-anchor="middle" x="71.5" y="-220" font-family="Helvetica,sans-Serif" font-size="10.00">y</text>
<text text-anchor="middle" x="71.5" y="-209" font-family="Helvetica,sans-Serif" font-size="10.00">z</text>
</g>
</g>
</svg>
