<?xml version="1.0" encoding="UTF-8" standalone="no"?>
<!DOCTYPE svg PUBLIC "-//W3C//DTD SVG 1.1//EN"
 "http://www.w3.org/Graphics/SVG/1.1/DTD/svg11.dtd">
<!-- Generated by graphviz version 2.43.0 (0)
 -->
<!-- Title: mini::riemann::euler::FluxTuple&lt; ScalarType, kDimensions &gt; Pages: 1 -->
<svg width="144pt" height="195pt"
 viewBox="0.00 0.00 144.00 195.00" xmlns="http://www.w3.org/2000/svg" xmlns:xlink="http://www.w3.org/1999/xlink">
<g id="graph0" class="graph" transform="scale(1 1) rotate(0) translate(4 191)">
<title>mini::riemann::euler::FluxTuple&lt; ScalarType, kDimensions &gt;</title>
<polygon fill="white" stroke="transparent" points="-4,4 -4,-191 140,-191 140,4 -4,4"/>
<!-- Node1 -->
<g id="node1" class="node">
<title>Node1</title>
<g id="a_node1"><a xlink:title=" ">
<polygon fill="#bfbfbf" stroke="black" points="0,-0.5 0,-41.5 136,-41.5 136,-0.5 0,-0.5"/>
<text text-anchor="start" x="8" y="-29.5" font-family="Helvetica,sans-Serif" font-size="10.00">mini::riemann::euler</text>
<text text-anchor="start" x="8" y="-18.5" font-family="Helvetica,sans-Serif" font-size="10.00">::FluxTuple&lt; ScalarType,</text>
<text text-anchor="middle" x="68" y="-7.5" font-family="Helvetica,sans-Serif" font-size="10.00"> kDimensions &gt;</text>
</a>
</g>
</g>
<!-- Node2 -->
<g id="node2" class="node">
<title>Node2</title>
<g id="a_node2"><a xlink:href="classmini_1_1riemann_1_1euler_1_1Tuple.html" target="_top" xlink:title=" ">
<polygon fill="white" stroke="black" points="10,-78.5 10,-119.5 126,-119.5 126,-78.5 10,-78.5"/>
<text text-anchor="start" x="18" y="-107.5" font-family="Helvetica,sans-Serif" font-size="10.00">mini::riemann::euler</text>
<text text-anchor="start" x="18" y="-96.5" font-family="Helvetica,sans-Serif" font-size="10.00">::Tuple&lt; ScalarType,</text>
<text text-anchor="middle" x="68" y="-85.5" font-family="Helvetica,sans-Serif" font-size="10.00"> kDimensions &gt;</text>
</a>
</g>
</g>
<!-- Node2&#45;&gt;Node1 -->
<g id="edge1" class="edge">
<title>Node2&#45;&gt;Node1</title>
<path fill="none" stroke="midnightblue" d="M68,-68.3C68,-59.3 68,-49.65 68,-41.51"/>
<polygon fill="midnightblue" stroke="midnightblue" points="64.5,-68.43 68,-78.43 71.5,-68.43 64.5,-68.43"/>
</g>
<!-- Node3 -->
<g id="node3" class="node">
<title>Node3</title>
<g id="a_node3"><a xlink:title=" ">
<polygon fill="white" stroke="#bfbfbf" points="11,-156.5 11,-186.5 125,-186.5 125,-156.5 11,-156.5"/>
<text text-anchor="start" x="19" y="-174.5" font-family="Helvetica,sans-Serif" font-size="10.00">Vector&lt; ScalarType,</text>
<text text-anchor="middle" x="68" y="-163.5" font-family="Helvetica,sans-Serif" font-size="10.00"> kDimensions+2 &gt;</text>
</a>
</g>
</g>
<!-- Node3&#45;&gt;Node2 -->
<g id="edge2" class="edge">
<title>Node3&#45;&gt;Node2</title>
<path fill="none" stroke="midnightblue" d="M68,-145.98C68,-137.35 68,-127.76 68,-119.59"/>
<polygon fill="midnightblue" stroke="midnightblue" points="64.5,-146.23 68,-156.23 71.5,-146.23 64.5,-146.23"/>
</g>
</g>
</svg>
