<?xml version="1.0" encoding="UTF-8" standalone="no"?>
<!DOCTYPE svg PUBLIC "-//W3C//DTD SVG 1.1//EN"
 "http://www.w3.org/Graphics/SVG/1.1/DTD/svg11.dtd">
<!-- Generated by graphviz version 2.43.0 (0)
 -->
<!-- Title: python.concept.Coordinate Pages: 1 -->
<svg width="306pt" height="140pt"
 viewBox="0.00 0.00 306.00 140.00" xmlns="http://www.w3.org/2000/svg" xmlns:xlink="http://www.w3.org/1999/xlink">
<g id="graph0" class="graph" transform="scale(1 1) rotate(0) translate(4 136)">
<title>python.concept.Coordinate</title>
<polygon fill="white" stroke="transparent" points="-4,4 -4,-136 302,-136 302,4 -4,4"/>
<!-- Node1 -->
<g id="node1" class="node">
<title>Node1</title>
<g id="a_node1"><a xlink:title="A cell&#45;like object that performs coordinate maps on it.">
<polygon fill="#bfbfbf" stroke="black" points="74,-56.5 74,-75.5 222,-75.5 222,-56.5 74,-56.5"/>
<text text-anchor="middle" x="148" y="-63.5" font-family="Helvetica,sans-Serif" font-size="10.00">python.concept.Coordinate</text>
</a>
</g>
</g>
<!-- Node3 -->
<g id="node3" class="node">
<title>Node3</title>
<g id="a_node3"><a xlink:href="classpython_1_1coordinate_1_1Linear.html" target="_top" xlink:title="A linear map between local and global coordinates.">
<polygon fill="white" stroke="black" points="0,-0.5 0,-19.5 138,-19.5 138,-0.5 0,-0.5"/>
<text text-anchor="middle" x="69" y="-7.5" font-family="Helvetica,sans-Serif" font-size="10.00">python.coordinate.Linear</text>
</a>
</g>
</g>
<!-- Node1&#45;&gt;Node3 -->
<g id="edge2" class="edge">
<title>Node1&#45;&gt;Node3</title>
<path fill="none" stroke="midnightblue" d="M126.97,-50.62C112.53,-40.76 93.86,-27.99 81.66,-19.65"/>
<polygon fill="midnightblue" stroke="midnightblue" points="125.08,-53.57 135.31,-56.32 129.03,-47.79 125.08,-53.57"/>
</g>
<!-- Node4 -->
<g id="node4" class="node">
<title>Node4</title>
<g id="a_node4"><a xlink:href="classpython_1_1coordinate_1_1Shifted.html" target="_top" xlink:title="An wrapper that acts as if a given coordinate is shifted along x&#45;axis by a given amount.">
<polygon fill="white" stroke="black" points="156,-0.5 156,-19.5 298,-19.5 298,-0.5 156,-0.5"/>
<text text-anchor="middle" x="227" y="-7.5" font-family="Helvetica,sans-Serif" font-size="10.00">python.coordinate.Shifted</text>
</a>
</g>
</g>
<!-- Node1&#45;&gt;Node4 -->
<g id="edge3" class="edge">
<title>Node1&#45;&gt;Node4</title>
<path fill="none" stroke="midnightblue" d="M169.03,-50.62C183.47,-40.76 202.14,-27.99 214.34,-19.65"/>
<polygon fill="midnightblue" stroke="midnightblue" points="166.97,-47.79 160.69,-56.32 170.92,-53.57 166.97,-47.79"/>
</g>
<!-- Node2 -->
<g id="node2" class="node">
<title>Node2</title>
<g id="a_node2"><a xlink:title=" ">
<polygon fill="white" stroke="#bfbfbf" points="118,-112.5 118,-131.5 178,-131.5 178,-112.5 118,-112.5"/>
<text text-anchor="middle" x="148" y="-119.5" font-family="Helvetica,sans-Serif" font-size="10.00">abc::ABC</text>
</a>
</g>
</g>
<!-- Node2&#45;&gt;Node1 -->
<g id="edge1" class="edge">
<title>Node2&#45;&gt;Node1</title>
<path fill="none" stroke="midnightblue" d="M148,-101.8C148,-92.91 148,-82.78 148,-75.75"/>
<polygon fill="midnightblue" stroke="midnightblue" points="144.5,-102.08 148,-112.08 151.5,-102.08 144.5,-102.08"/>
</g>
</g>
</svg>
