<?xml version="1.0" encoding="UTF-8" standalone="no"?>
<!DOCTYPE svg PUBLIC "-//W3C//DTD SVG 1.1//EN"
 "http://www.w3.org/Graphics/SVG/1.1/DTD/svg11.dtd">
<!-- Generated by graphviz version 2.43.0 (0)
 -->
<!-- Title: mini::mesh::metis::SparseGraphWithDeleter&lt; Int &gt; Pages: 1 -->
<svg width="145pt" height="117pt"
 viewBox="0.00 0.00 145.00 117.00" xmlns="http://www.w3.org/2000/svg" xmlns:xlink="http://www.w3.org/1999/xlink">
<g id="graph0" class="graph" transform="scale(1 1) rotate(0) translate(4 113)">
<title>mini::mesh::metis::SparseGraphWithDeleter&lt; Int &gt;</title>
<polygon fill="white" stroke="transparent" points="-4,4 -4,-113 141,-113 141,4 -4,4"/>
<!-- Node1 -->
<g id="node1" class="node">
<title>Node1</title>
<g id="a_node1"><a xlink:title="A wrapper, which holds arrays allocated by METIS, on SparseGraph.">
<polygon fill="#bfbfbf" stroke="black" points="0,-0.5 0,-41.5 137,-41.5 137,-0.5 0,-0.5"/>
<text text-anchor="start" x="8" y="-29.5" font-family="Helvetica,sans-Serif" font-size="10.00">mini::mesh::metis::</text>
<text text-anchor="start" x="8" y="-18.5" font-family="Helvetica,sans-Serif" font-size="10.00">SparseGraphWithDeleter</text>
<text text-anchor="middle" x="68.5" y="-7.5" font-family="Helvetica,sans-Serif" font-size="10.00">&lt; Int &gt;</text>
</a>
</g>
</g>
<!-- Node2 -->
<g id="node2" class="node">
<title>Node2</title>
<g id="a_node2"><a xlink:href="classmini_1_1mesh_1_1metis_1_1SparseGraph.html" target="_top" xlink:title="A CSR (Compressed Sparse Row) representation of sparse graphs.">
<polygon fill="white" stroke="black" points="11.5,-78.5 11.5,-108.5 125.5,-108.5 125.5,-78.5 11.5,-78.5"/>
<text text-anchor="start" x="19.5" y="-96.5" font-family="Helvetica,sans-Serif" font-size="10.00">mini::mesh::metis::</text>
<text text-anchor="middle" x="68.5" y="-85.5" font-family="Helvetica,sans-Serif" font-size="10.00">SparseGraph&lt; Int &gt;</text>
</a>
</g>
</g>
<!-- Node2&#45;&gt;Node1 -->
<g id="edge1" class="edge">
<title>Node2&#45;&gt;Node1</title>
<path fill="none" stroke="midnightblue" d="M68.5,-67.98C68.5,-59.35 68.5,-49.76 68.5,-41.59"/>
<polygon fill="midnightblue" stroke="midnightblue" points="65,-68.23 68.5,-78.23 72,-68.23 65,-68.23"/>
</g>
</g>
</svg>
