<?xml version="1.0" encoding="UTF-8" standalone="no"?>
<!DOCTYPE svg PUBLIC "-//W3C//DTD SVG 1.1//EN"
 "http://www.w3.org/Graphics/SVG/1.1/DTD/svg11.dtd">
<!-- Generated by graphviz version 2.43.0 (0)
 -->
<!-- Title: mini::spatial::dg::General&lt; P, R &gt; Pages: 1 -->
<svg width="252pt" height="240pt"
 viewBox="0.00 0.00 252.00 240.00" xmlns="http://www.w3.org/2000/svg" xmlns:xlink="http://www.w3.org/1999/xlink">
<g id="graph0" class="graph" transform="scale(1 1) rotate(0) translate(4 236)">
<title>mini::spatial::dg::General&lt; P, R &gt;</title>
<polygon fill="white" stroke="transparent" points="-4,4 -4,-236 248,-236 248,4 -4,4"/>
<!-- Node1 -->
<g id="node1" class="node">
<title>Node1</title>
<g id="a_node1"><a xlink:title=" ">
<polygon fill="#bfbfbf" stroke="black" points="65,-67.5 65,-97.5 166,-97.5 166,-67.5 65,-67.5"/>
<text text-anchor="start" x="73" y="-85.5" font-family="Helvetica,sans-Serif" font-size="10.00">mini::spatial::dg::</text>
<text text-anchor="middle" x="115.5" y="-74.5" font-family="Helvetica,sans-Serif" font-size="10.00">General&lt; P, R &gt;</text>
</a>
</g>
</g>
<!-- Node4 -->
<g id="node4" class="node">
<title>Node4</title>
<g id="a_node4"><a xlink:href="classmini_1_1spatial_1_1dg_1_1Lobatto.html" target="_top" xlink:title="A specialized version of DG using a Lagrange expansion on Lobatto roots.">
<polygon fill="white" stroke="black" points="0,-0.5 0,-30.5 101,-30.5 101,-0.5 0,-0.5"/>
<text text-anchor="start" x="8" y="-18.5" font-family="Helvetica,sans-Serif" font-size="10.00">mini::spatial::dg::</text>
<text text-anchor="middle" x="50.5" y="-7.5" font-family="Helvetica,sans-Serif" font-size="10.00">Lobatto&lt; P, R &gt;</text>
</a>
</g>
</g>
<!-- Node1&#45;&gt;Node4 -->
<g id="edge3" class="edge">
<title>Node1&#45;&gt;Node4</title>
<path fill="none" stroke="midnightblue" d="M94.31,-60.31C84.56,-50.56 73.26,-39.26 64.58,-30.58"/>
<polygon fill="midnightblue" stroke="midnightblue" points="91.85,-62.8 101.4,-67.4 96.8,-57.85 91.85,-62.8"/>
</g>
<!-- Node5 -->
<g id="node5" class="node">
<title>Node5</title>
<g id="a_node5"><a xlink:href="classmini_1_1spatial_1_1dg_1_1WithSource.html" target="_top" xlink:title=" ">
<polygon fill="white" stroke="black" points="119,-0.5 119,-30.5 244,-30.5 244,-0.5 119,-0.5"/>
<text text-anchor="start" x="127" y="-18.5" font-family="Helvetica,sans-Serif" font-size="10.00">mini::spatial::dg::</text>
<text text-anchor="middle" x="181.5" y="-7.5" font-family="Helvetica,sans-Serif" font-size="10.00">WithSource&lt; P, R, S &gt;</text>
</a>
</g>
</g>
<!-- Node1&#45;&gt;Node5 -->
<g id="edge4" class="edge">
<title>Node1&#45;&gt;Node5</title>
<path fill="none" stroke="midnightblue" d="M137.01,-60.31C146.91,-50.56 158.39,-39.26 167.21,-30.58"/>
<polygon fill="midnightblue" stroke="midnightblue" points="134.49,-57.89 129.82,-67.4 139.4,-62.87 134.49,-57.89"/>
</g>
<!-- Node2 -->
<g id="node2" class="node">
<title>Node2</title>
<g id="a_node2"><a xlink:href="classmini_1_1spatial_1_1FiniteElement.html" target="_top" xlink:title=" ">
<polygon fill="white" stroke="black" points="40,-134.5 40,-164.5 191,-164.5 191,-134.5 40,-134.5"/>
<text text-anchor="start" x="48" y="-152.5" font-family="Helvetica,sans-Serif" font-size="10.00">mini::spatial::FiniteElement</text>
<text text-anchor="middle" x="115.5" y="-141.5" font-family="Helvetica,sans-Serif" font-size="10.00">&lt; P, R &gt;</text>
</a>
</g>
</g>
<!-- Node2&#45;&gt;Node1 -->
<g id="edge1" class="edge">
<title>Node2&#45;&gt;Node1</title>
<path fill="none" stroke="midnightblue" d="M115.5,-124.11C115.5,-115.15 115.5,-105.32 115.5,-97.58"/>
<polygon fill="midnightblue" stroke="midnightblue" points="112,-124.4 115.5,-134.4 119,-124.4 112,-124.4"/>
</g>
<!-- Node3 -->
<g id="node3" class="node">
<title>Node3</title>
<g id="a_node3"><a xlink:href="classmini_1_1temporal_1_1System.html" target="_top" xlink:title=" ">
<polygon fill="white" stroke="black" points="50,-201.5 50,-231.5 181,-231.5 181,-201.5 50,-201.5"/>
<text text-anchor="start" x="58" y="-219.5" font-family="Helvetica,sans-Serif" font-size="10.00">mini::temporal::System</text>
<text text-anchor="middle" x="115.5" y="-208.5" font-family="Helvetica,sans-Serif" font-size="10.00">&lt; P::Scalar &gt;</text>
</a>
</g>
</g>
<!-- Node3&#45;&gt;Node2 -->
<g id="edge2" class="edge">
<title>Node3&#45;&gt;Node2</title>
<path fill="none" stroke="midnightblue" d="M115.5,-191.11C115.5,-182.15 115.5,-172.32 115.5,-164.58"/>
<polygon fill="midnightblue" stroke="midnightblue" points="112,-191.4 115.5,-201.4 119,-191.4 112,-191.4"/>
</g>
</g>
</svg>
