<?xml version="1.0" encoding="UTF-8" standalone="no"?>
<!DOCTYPE svg PUBLIC "-//W3C//DTD SVG 1.1//EN"
 "http://www.w3.org/Graphics/SVG/1.1/DTD/svg11.dtd">
<!-- Generated by graphviz version 2.43.0 (0)
 -->
<!-- Title: python.element.FRonLobattoRoots Pages: 1 -->
<svg width="199pt" height="330pt"
 viewBox="0.00 0.00 199.00 330.00" xmlns="http://www.w3.org/2000/svg" xmlns:xlink="http://www.w3.org/1999/xlink">
<g id="graph0" class="graph" transform="scale(1 1) rotate(0) translate(4 326)">
<title>python.element.FRonLobattoRoots</title>
<polygon fill="white" stroke="transparent" points="-4,4 -4,-326 195,-326 195,4 -4,4"/>
<!-- Node1 -->
<g id="node1" class="node">
<title>Node1</title>
<g id="a_node1"><a xlink:title="Specialized LagrangeFR using Lobatto roots as solution points.">
<polygon fill="#bfbfbf" stroke="black" points="16.5,-0.5 16.5,-30.5 174.5,-30.5 174.5,-0.5 16.5,-0.5"/>
<text text-anchor="start" x="24.5" y="-18.5" font-family="Helvetica,sans-Serif" font-size="10.00">python.element.FRonLobatto</text>
<text text-anchor="middle" x="95.5" y="-7.5" font-family="Helvetica,sans-Serif" font-size="10.00">Roots</text>
</a>
</g>
</g>
<!-- Node2 -->
<g id="node2" class="node">
<title>Node2</title>
<g id="a_node2"><a xlink:href="classpython_1_1element_1_1FRonGaussPoints.html" target="_top" xlink:title="Specialized LagrangeFR using Gauss points as solution points.">
<polygon fill="white" stroke="black" points="19.5,-67.5 19.5,-97.5 171.5,-97.5 171.5,-67.5 19.5,-67.5"/>
<text text-anchor="start" x="27.5" y="-85.5" font-family="Helvetica,sans-Serif" font-size="10.00">python.element.FRonGauss</text>
<text text-anchor="middle" x="95.5" y="-74.5" font-family="Helvetica,sans-Serif" font-size="10.00">Points</text>
</a>
</g>
</g>
<!-- Node2&#45;&gt;Node1 -->
<g id="edge1" class="edge">
<title>Node2&#45;&gt;Node1</title>
<path fill="none" stroke="midnightblue" d="M95.5,-57.11C95.5,-48.15 95.5,-38.32 95.5,-30.58"/>
<polygon fill="midnightblue" stroke="midnightblue" points="92,-57.4 95.5,-67.4 99,-57.4 92,-57.4"/>
</g>
<!-- Node3 -->
<g id="node3" class="node">
<title>Node3</title>
<g id="a_node3"><a xlink:href="classpython_1_1element_1_1LagrangeFR.html" target="_top" xlink:title="Element for implement the FR scheme using a Lagrange expansion.">
<polygon fill="white" stroke="black" points="18,-134.5 18,-153.5 173,-153.5 173,-134.5 18,-134.5"/>
<text text-anchor="middle" x="95.5" y="-141.5" font-family="Helvetica,sans-Serif" font-size="10.00">python.element.LagrangeFR</text>
</a>
</g>
</g>
<!-- Node3&#45;&gt;Node2 -->
<g id="edge2" class="edge">
<title>Node3&#45;&gt;Node2</title>
<path fill="none" stroke="midnightblue" d="M95.5,-124.23C95.5,-115.59 95.5,-105.5 95.5,-97.52"/>
<polygon fill="midnightblue" stroke="midnightblue" points="92,-124.48 95.5,-134.48 99,-124.48 92,-124.48"/>
</g>
<!-- Node4 -->
<g id="node4" class="node">
<title>Node4</title>
<g id="a_node4"><a xlink:href="classpython_1_1element_1_1FluxReconstruction.html" target="_top" xlink:title="Element for implement FR schemes.">
<polygon fill="white" stroke="black" points="0,-190.5 0,-209.5 191,-209.5 191,-190.5 0,-190.5"/>
<text text-anchor="middle" x="95.5" y="-197.5" font-family="Helvetica,sans-Serif" font-size="10.00">python.element.FluxReconstruction</text>
</a>
</g>
</g>
<!-- Node4&#45;&gt;Node3 -->
<g id="edge3" class="edge">
<title>Node4&#45;&gt;Node3</title>
<path fill="none" stroke="midnightblue" d="M95.5,-179.8C95.5,-170.91 95.5,-160.78 95.5,-153.75"/>
<polygon fill="midnightblue" stroke="midnightblue" points="92,-180.08 95.5,-190.08 99,-180.08 92,-180.08"/>
</g>
<!-- Node5 -->
<g id="node5" class="node">
<title>Node5</title>
<g id="a_node5"><a xlink:href="classpython_1_1concept_1_1Element.html" target="_top" xlink:title="A cell&#45;like object that carries some expansion of the solution.">
<polygon fill="white" stroke="black" points="28,-246.5 28,-265.5 163,-265.5 163,-246.5 28,-246.5"/>
<text text-anchor="middle" x="95.5" y="-253.5" font-family="Helvetica,sans-Serif" font-size="10.00">python.concept.Element</text>
</a>
</g>
</g>
<!-- Node5&#45;&gt;Node4 -->
<g id="edge4" class="edge">
<title>Node5&#45;&gt;Node4</title>
<path fill="none" stroke="midnightblue" d="M95.5,-235.8C95.5,-226.91 95.5,-216.78 95.5,-209.75"/>
<polygon fill="midnightblue" stroke="midnightblue" points="92,-236.08 95.5,-246.08 99,-236.08 92,-236.08"/>
</g>
<!-- Node6 -->
<g id="node6" class="node">
<title>Node6</title>
<g id="a_node6"><a xlink:title=" ">
<polygon fill="white" stroke="#bfbfbf" points="67,-302.5 67,-321.5 124,-321.5 124,-302.5 67,-302.5"/>
<text text-anchor="middle" x="95.5" y="-309.5" font-family="Helvetica,sans-Serif" font-size="10.00">abc.ABC</text>
</a>
</g>
</g>
<!-- Node6&#45;&gt;Node5 -->
<g id="edge5" class="edge">
<title>Node6&#45;&gt;Node5</title>
<path fill="none" stroke="midnightblue" d="M95.5,-291.8C95.5,-282.91 95.5,-272.78 95.5,-265.75"/>
<polygon fill="midnightblue" stroke="midnightblue" points="92,-292.08 95.5,-302.08 99,-292.08 92,-292.08"/>
</g>
</g>
</svg>
