<?xml version="1.0" encoding="UTF-8" standalone="no"?>
<!DOCTYPE svg PUBLIC "-//W3C//DTD SVG 1.1//EN"
 "http://www.w3.org/Graphics/SVG/1.1/DTD/svg11.dtd">
<!-- Generated by graphviz version 2.43.0 (0)
 -->
<!-- Title: python.concept.ScalarEquation Pages: 1 -->
<svg width="342pt" height="274pt"
 viewBox="0.00 0.00 341.50 274.00" xmlns="http://www.w3.org/2000/svg" xmlns:xlink="http://www.w3.org/1999/xlink">
<g id="graph0" class="graph" transform="scale(1 1) rotate(0) translate(4 270)">
<title>python.concept.ScalarEquation</title>
<polygon fill="white" stroke="transparent" points="-4,4 -4,-270 337.5,-270 337.5,4 -4,4"/>
<!-- Node1 -->
<g id="node1" class="node">
<title>Node1</title>
<g id="a_node1"><a xlink:title=" ">
<polygon fill="#bfbfbf" stroke="black" points="73,-134.5 73,-153.5 240,-153.5 240,-134.5 73,-134.5"/>
<text text-anchor="middle" x="156.5" y="-141.5" font-family="Helvetica,sans-Serif" font-size="10.00">python.concept.ScalarEquation</text>
</a>
</g>
</g>
<!-- Node4 -->
<g id="node4" class="node">
<title>Node4</title>
<g id="a_node4"><a xlink:href="classpython_1_1equation_1_1InviscidBurgers.html" target="_top" xlink:title=" ">
<polygon fill="white" stroke="black" points="0,-67.5 0,-97.5 137,-97.5 137,-67.5 0,-67.5"/>
<text text-anchor="start" x="8" y="-85.5" font-family="Helvetica,sans-Serif" font-size="10.00">python.equation.Inviscid</text>
<text text-anchor="middle" x="68.5" y="-74.5" font-family="Helvetica,sans-Serif" font-size="10.00">Burgers</text>
</a>
</g>
</g>
<!-- Node1&#45;&gt;Node4 -->
<g id="edge3" class="edge">
<title>Node1&#45;&gt;Node4</title>
<path fill="none" stroke="midnightblue" d="M135.41,-128.74C121.42,-119.28 103.15,-106.93 89.24,-97.52"/>
<polygon fill="midnightblue" stroke="midnightblue" points="133.65,-131.77 143.89,-134.48 137.57,-125.97 133.65,-131.77"/>
</g>
<!-- Node6 -->
<g id="node6" class="node">
<title>Node6</title>
<g id="a_node6"><a xlink:href="classpython_1_1equation_1_1LinearAdvection.html" target="_top" xlink:title=" ">
<polygon fill="white" stroke="black" points="155.5,-73 155.5,-92 333.5,-92 333.5,-73 155.5,-73"/>
<text text-anchor="middle" x="244.5" y="-80" font-family="Helvetica,sans-Serif" font-size="10.00">python.equation.LinearAdvection</text>
</a>
</g>
</g>
<!-- Node1&#45;&gt;Node6 -->
<g id="edge5" class="edge">
<title>Node1&#45;&gt;Node6</title>
<path fill="none" stroke="midnightblue" d="M177.78,-128.61C194.7,-117.17 217.81,-101.55 231.92,-92.01"/>
<polygon fill="midnightblue" stroke="midnightblue" points="175.43,-125.97 169.11,-134.48 179.35,-131.77 175.43,-125.97"/>
</g>
<!-- Node2 -->
<g id="node2" class="node">
<title>Node2</title>
<g id="a_node2"><a xlink:href="classpython_1_1concept_1_1Equation.html" target="_top" xlink:title="A PDE in the form of .">
<polygon fill="white" stroke="black" points="88,-190.5 88,-209.5 225,-209.5 225,-190.5 88,-190.5"/>
<text text-anchor="middle" x="156.5" y="-197.5" font-family="Helvetica,sans-Serif" font-size="10.00">python.concept.Equation</text>
</a>
</g>
</g>
<!-- Node2&#45;&gt;Node1 -->
<g id="edge1" class="edge">
<title>Node2&#45;&gt;Node1</title>
<path fill="none" stroke="midnightblue" d="M156.5,-179.8C156.5,-170.91 156.5,-160.78 156.5,-153.75"/>
<polygon fill="midnightblue" stroke="midnightblue" points="153,-180.08 156.5,-190.08 160,-180.08 153,-180.08"/>
</g>
<!-- Node3 -->
<g id="node3" class="node">
<title>Node3</title>
<g id="a_node3"><a xlink:title=" ">
<polygon fill="white" stroke="#bfbfbf" points="128,-246.5 128,-265.5 185,-265.5 185,-246.5 128,-246.5"/>
<text text-anchor="middle" x="156.5" y="-253.5" font-family="Helvetica,sans-Serif" font-size="10.00">abc.ABC</text>
</a>
</g>
</g>
<!-- Node3&#45;&gt;Node2 -->
<g id="edge2" class="edge">
<title>Node3&#45;&gt;Node2</title>
<path fill="none" stroke="midnightblue" d="M156.5,-235.8C156.5,-226.91 156.5,-216.78 156.5,-209.75"/>
<polygon fill="midnightblue" stroke="midnightblue" points="153,-236.08 156.5,-246.08 160,-236.08 153,-236.08"/>
</g>
<!-- Node5 -->
<g id="node5" class="node">
<title>Node5</title>
<g id="a_node5"><a xlink:href="classpython_1_1equation_1_1Burgers.html" target="_top" xlink:title=" ">
<polygon fill="white" stroke="black" points="0,-6 0,-25 137,-25 137,-6 0,-6"/>
<text text-anchor="middle" x="68.5" y="-13" font-family="Helvetica,sans-Serif" font-size="10.00">python.equation.Burgers</text>
</a>
</g>
</g>
<!-- Node4&#45;&gt;Node5 -->
<g id="edge4" class="edge">
<title>Node4&#45;&gt;Node5</title>
<path fill="none" stroke="midnightblue" d="M68.5,-57.25C68.5,-46.02 68.5,-33.38 68.5,-25.19"/>
<polygon fill="midnightblue" stroke="midnightblue" points="65,-57.4 68.5,-67.4 72,-57.4 65,-57.4"/>
</g>
<!-- Node7 -->
<g id="node7" class="node">
<title>Node7</title>
<g id="a_node7"><a xlink:href="classpython_1_1equation_1_1LinearAdvectionDiffusion.html" target="_top" xlink:title=" ">
<polygon fill="white" stroke="black" points="155.5,-0.5 155.5,-30.5 333.5,-30.5 333.5,-0.5 155.5,-0.5"/>
<text text-anchor="start" x="163.5" y="-18.5" font-family="Helvetica,sans-Serif" font-size="10.00">python.equation.LinearAdvection</text>
<text text-anchor="middle" x="244.5" y="-7.5" font-family="Helvetica,sans-Serif" font-size="10.00">Diffusion</text>
</a>
</g>
</g>
<!-- Node6&#45;&gt;Node7 -->
<g id="edge6" class="edge">
<title>Node6&#45;&gt;Node7</title>
<path fill="none" stroke="midnightblue" d="M244.5,-62.41C244.5,-52.22 244.5,-39.9 244.5,-30.59"/>
<polygon fill="midnightblue" stroke="midnightblue" points="241,-62.73 244.5,-72.73 248,-62.73 241,-62.73"/>
</g>
</g>
</svg>
