<?xml version="1.0" encoding="UTF-8" standalone="no"?>
<!DOCTYPE svg PUBLIC "-//W3C//DTD SVG 1.1//EN"
 "http://www.w3.org/Graphics/SVG/1.1/DTD/svg11.dtd">
<!-- Generated by graphviz version 2.43.0 (0)
 -->
<!-- Title: mini::polynomial::Projection&lt; S, kDimensions, kDegrees, kComponents &gt; Pages: 1 -->
<svg width="399pt" height="50pt"
 viewBox="0.00 0.00 399.00 50.00" xmlns="http://www.w3.org/2000/svg" xmlns:xlink="http://www.w3.org/1999/xlink">
<g id="graph0" class="graph" transform="scale(1 1) rotate(0) translate(4 46)">
<title>mini::polynomial::Projection&lt; S, kDimensions, kDegrees, kComponents &gt;</title>
<polygon fill="white" stroke="transparent" points="-4,4 -4,-46 395,-46 395,4 -4,4"/>
<!-- Node1 -->
<g id="node1" class="node">
<title>Node1</title>
<g id="a_node1"><a xlink:title="A vector&#45;valued function projected onto an given basis::OrthoNormal basis.">
<polygon fill="#bfbfbf" stroke="black" points="232,-0.5 232,-41.5 391,-41.5 391,-0.5 232,-0.5"/>
<text text-anchor="start" x="240" y="-29.5" font-family="Helvetica,sans-Serif" font-size="10.00">mini::polynomial::Projection</text>
<text text-anchor="start" x="240" y="-18.5" font-family="Helvetica,sans-Serif" font-size="10.00">&lt; S, kDimensions, kDegrees,</text>
<text text-anchor="middle" x="311.5" y="-7.5" font-family="Helvetica,sans-Serif" font-size="10.00"> kComponents &gt;</text>
</a>
</g>
</g>
<!-- Node2 -->
<g id="node2" class="node">
<title>Node2</title>
<g id="a_node2"><a xlink:href="classmini_1_1polynomial_1_1Expansion.html" target="_top" xlink:title=" ">
<polygon fill="white" stroke="black" points="0,-0.5 0,-41.5 196,-41.5 196,-0.5 0,-0.5"/>
<text text-anchor="start" x="8" y="-29.5" font-family="Helvetica,sans-Serif" font-size="10.00">mini::polynomial::Expansion</text>
<text text-anchor="start" x="8" y="-18.5" font-family="Helvetica,sans-Serif" font-size="10.00">&lt; kComponents, basis::OrthoNormal</text>
<text text-anchor="middle" x="98" y="-7.5" font-family="Helvetica,sans-Serif" font-size="10.00">&lt; S, kDimensions, kDegrees &gt; &gt;</text>
</a>
</g>
</g>
<!-- Node2&#45;&gt;Node1 -->
<g id="edge1" class="edge">
<title>Node2&#45;&gt;Node1</title>
<path fill="none" stroke="midnightblue" d="M206.18,-21C214.79,-21 223.39,-21 231.75,-21"/>
<polygon fill="midnightblue" stroke="midnightblue" points="206.08,-17.5 196.08,-21 206.08,-24.5 206.08,-17.5"/>
</g>
</g>
</svg>
