<?xml version="1.0" encoding="UTF-8" standalone="no"?>
<!DOCTYPE svg PUBLIC "-//W3C//DTD SVG 1.1//EN"
 "http://www.w3.org/Graphics/SVG/1.1/DTD/svg11.dtd">
<!-- Generated by graphviz version 2.43.0 (0)
 -->
<!-- Title: python.spatial.FluxReconstruction Pages: 1 -->
<svg width="292pt" height="252pt"
 viewBox="0.00 0.00 292.00 252.00" xmlns="http://www.w3.org/2000/svg" xmlns:xlink="http://www.w3.org/1999/xlink">
<g id="graph0" class="graph" transform="scale(1 1) rotate(0) translate(4 248)">
<title>python.spatial.FluxReconstruction</title>
<polygon fill="white" stroke="transparent" points="-4,4 -4,-248 288,-248 288,4 -4,4"/>
<!-- Node1 -->
<g id="node1" class="node">
<title>Node1</title>
<g id="a_node1"><a xlink:title="An mid&#45;level class that defines common methods for all FR schemes.">
<polygon fill="#bfbfbf" stroke="black" points="41,-0.5 41,-19.5 224,-19.5 224,-0.5 41,-0.5"/>
<text text-anchor="middle" x="132.5" y="-7.5" font-family="Helvetica,sans-Serif" font-size="10.00">python.spatial.FluxReconstruction</text>
</a>
</g>
</g>
<!-- Node2 -->
<g id="node2" class="node">
<title>Node2</title>
<g id="a_node2"><a xlink:href="classpython_1_1spatial_1_1FiniteElement.html" target="_top" xlink:title="An ODE system given by some FiniteElement scheme.">
<polygon fill="white" stroke="black" points="54,-56.5 54,-75.5 211,-75.5 211,-56.5 54,-56.5"/>
<text text-anchor="middle" x="132.5" y="-63.5" font-family="Helvetica,sans-Serif" font-size="10.00">python.spatial.FiniteElement</text>
</a>
</g>
</g>
<!-- Node2&#45;&gt;Node1 -->
<g id="edge1" class="edge">
<title>Node2&#45;&gt;Node1</title>
<path fill="none" stroke="midnightblue" d="M132.5,-45.8C132.5,-36.91 132.5,-26.78 132.5,-19.75"/>
<polygon fill="midnightblue" stroke="midnightblue" points="129,-46.08 132.5,-56.08 136,-46.08 129,-46.08"/>
</g>
<!-- Node3 -->
<g id="node3" class="node">
<title>Node3</title>
<g id="a_node3"><a xlink:href="classpython_1_1concept_1_1SpatialScheme.html" target="_top" xlink:title="An ODE system given by some FiniteElement scheme.">
<polygon fill="white" stroke="black" points="49,-112.5 49,-131.5 216,-131.5 216,-112.5 49,-112.5"/>
<text text-anchor="middle" x="132.5" y="-119.5" font-family="Helvetica,sans-Serif" font-size="10.00">python.concept.SpatialScheme</text>
</a>
</g>
</g>
<!-- Node3&#45;&gt;Node2 -->
<g id="edge2" class="edge">
<title>Node3&#45;&gt;Node2</title>
<path fill="none" stroke="midnightblue" d="M132.5,-101.8C132.5,-92.91 132.5,-82.78 132.5,-75.75"/>
<polygon fill="midnightblue" stroke="midnightblue" points="129,-102.08 132.5,-112.08 136,-102.08 129,-102.08"/>
</g>
<!-- Node4 -->
<g id="node4" class="node">
<title>Node4</title>
<g id="a_node4"><a xlink:href="classpython_1_1concept_1_1Grid.html" target="_top" xlink:title=" ">
<polygon fill="white" stroke="black" points="0,-168.5 0,-187.5 115,-187.5 115,-168.5 0,-168.5"/>
<text text-anchor="middle" x="57.5" y="-175.5" font-family="Helvetica,sans-Serif" font-size="10.00">python.concept.Grid</text>
</a>
</g>
</g>
<!-- Node4&#45;&gt;Node3 -->
<g id="edge3" class="edge">
<title>Node4&#45;&gt;Node3</title>
<path fill="none" stroke="midnightblue" d="M77.81,-162.38C91.36,-152.62 108.74,-140.11 120.23,-131.83"/>
<polygon fill="midnightblue" stroke="midnightblue" points="75.62,-159.64 69.55,-168.32 79.71,-165.32 75.62,-159.64"/>
</g>
<!-- Node5 -->
<g id="node5" class="node">
<title>Node5</title>
<g id="a_node5"><a xlink:title=" ">
<polygon fill="white" stroke="#bfbfbf" points="104,-224.5 104,-243.5 161,-243.5 161,-224.5 104,-224.5"/>
<text text-anchor="middle" x="132.5" y="-231.5" font-family="Helvetica,sans-Serif" font-size="10.00">abc.ABC</text>
</a>
</g>
</g>
<!-- Node5&#45;&gt;Node4 -->
<g id="edge4" class="edge">
<title>Node5&#45;&gt;Node4</title>
<path fill="none" stroke="midnightblue" d="M112.19,-218.38C98.64,-208.62 81.26,-196.11 69.77,-187.83"/>
<polygon fill="midnightblue" stroke="midnightblue" points="110.29,-221.32 120.45,-224.32 114.38,-215.64 110.29,-221.32"/>
</g>
<!-- Node6 -->
<g id="node6" class="node">
<title>Node6</title>
<g id="a_node6"><a xlink:href="classpython_1_1concept_1_1OdeSystem.html" target="_top" xlink:title="A system of ODEs in the form of dU/∂t = R.">
<polygon fill="white" stroke="black" points="133,-168.5 133,-187.5 284,-187.5 284,-168.5 133,-168.5"/>
<text text-anchor="middle" x="208.5" y="-175.5" font-family="Helvetica,sans-Serif" font-size="10.00">python.concept.OdeSystem</text>
</a>
</g>
</g>
<!-- Node5&#45;&gt;Node6 -->
<g id="edge6" class="edge">
<title>Node5&#45;&gt;Node6</title>
<path fill="none" stroke="midnightblue" d="M153.08,-218.38C166.81,-208.62 184.43,-196.11 196.07,-187.83"/>
<polygon fill="midnightblue" stroke="midnightblue" points="150.84,-215.68 144.71,-224.32 154.89,-221.38 150.84,-215.68"/>
</g>
<!-- Node6&#45;&gt;Node3 -->
<g id="edge5" class="edge">
<title>Node6&#45;&gt;Node3</title>
<path fill="none" stroke="midnightblue" d="M187.92,-162.38C174.19,-152.62 156.57,-140.11 144.93,-131.83"/>
<polygon fill="midnightblue" stroke="midnightblue" points="186.11,-165.38 196.29,-168.32 190.16,-159.68 186.11,-165.38"/>
</g>
</g>
</svg>
