<?xml version="1.0" encoding="UTF-8" standalone="no"?>
<!DOCTYPE svg PUBLIC "-//W3C//DTD SVG 1.1//EN"
 "http://www.w3.org/Graphics/SVG/1.1/DTD/svg11.dtd">
<!-- Generated by graphviz version 2.43.0 (0)
 -->
<!-- Title: mini::coordinate::Triangle&lt; Scalar, kPhysDim &gt; Pages: 1 -->
<svg width="670pt" height="88pt"
 viewBox="0.00 0.00 670.00 88.00" xmlns="http://www.w3.org/2000/svg" xmlns:xlink="http://www.w3.org/1999/xlink">
<g id="graph0" class="graph" transform="scale(1 1) rotate(0) translate(4 84)">
<title>mini::coordinate::Triangle&lt; Scalar, kPhysDim &gt;</title>
<polygon fill="white" stroke="transparent" points="-4,4 -4,-84 666,-84 666,4 -4,4"/>
<!-- Node1 -->
<g id="node1" class="node">
<title>Node1</title>
<g id="a_node1"><a xlink:title="Abstract coordinate map on triangular elements.">
<polygon fill="#bfbfbf" stroke="black" points="340,-24.5 340,-54.5 480,-54.5 480,-24.5 340,-24.5"/>
<text text-anchor="start" x="348" y="-42.5" font-family="Helvetica,sans-Serif" font-size="10.00">mini::coordinate::Triangle</text>
<text text-anchor="middle" x="410" y="-31.5" font-family="Helvetica,sans-Serif" font-size="10.00">&lt; Scalar, kPhysDim &gt;</text>
</a>
</g>
</g>
<!-- Node4 -->
<g id="node4" class="node">
<title>Node4</title>
<g id="a_node4"><a xlink:href="classmini_1_1coordinate_1_1Triangle3.html" target="_top" xlink:title="Coordinate map on 3&#45;node triangular elements.">
<polygon fill="white" stroke="black" points="516,-49.5 516,-79.5 662,-79.5 662,-49.5 516,-49.5"/>
<text text-anchor="start" x="524" y="-67.5" font-family="Helvetica,sans-Serif" font-size="10.00">mini::coordinate::Triangle3</text>
<text text-anchor="middle" x="589" y="-56.5" font-family="Helvetica,sans-Serif" font-size="10.00">&lt; Scalar, kPhysDim &gt;</text>
</a>
</g>
</g>
<!-- Node1&#45;&gt;Node4 -->
<g id="edge3" class="edge">
<title>Node1&#45;&gt;Node4</title>
<path fill="none" stroke="midnightblue" d="M490.19,-50.68C498.76,-51.9 507.45,-53.12 515.94,-54.32"/>
<polygon fill="midnightblue" stroke="midnightblue" points="490.58,-47.21 480.19,-49.27 489.61,-54.14 490.58,-47.21"/>
</g>
<!-- Node5 -->
<g id="node5" class="node">
<title>Node5</title>
<g id="a_node5"><a xlink:href="classmini_1_1coordinate_1_1Triangle6.html" target="_top" xlink:title="Coordinate map on 6&#45;node triangular elements.">
<polygon fill="white" stroke="black" points="516,-0.5 516,-30.5 662,-30.5 662,-0.5 516,-0.5"/>
<text text-anchor="start" x="524" y="-18.5" font-family="Helvetica,sans-Serif" font-size="10.00">mini::coordinate::Triangle6</text>
<text text-anchor="middle" x="589" y="-7.5" font-family="Helvetica,sans-Serif" font-size="10.00">&lt; Scalar, kPhysDim &gt;</text>
</a>
</g>
</g>
<!-- Node1&#45;&gt;Node5 -->
<g id="edge4" class="edge">
<title>Node1&#45;&gt;Node5</title>
<path fill="none" stroke="midnightblue" d="M490.19,-28.76C498.76,-27.6 507.45,-26.42 515.94,-25.27"/>
<polygon fill="midnightblue" stroke="midnightblue" points="489.63,-25.31 480.19,-30.12 490.57,-32.24 489.63,-25.31"/>
</g>
<!-- Node2 -->
<g id="node2" class="node">
<title>Node2</title>
<g id="a_node2"><a xlink:href="classmini_1_1coordinate_1_1Face.html" target="_top" xlink:title="Abstract coordinate map on surface elements.">
<polygon fill="white" stroke="black" points="179,-24.5 179,-54.5 304,-54.5 304,-24.5 179,-24.5"/>
<text text-anchor="start" x="187" y="-42.5" font-family="Helvetica,sans-Serif" font-size="10.00">mini::coordinate::Face</text>
<text text-anchor="middle" x="241.5" y="-31.5" font-family="Helvetica,sans-Serif" font-size="10.00">&lt; Scalar, kPhysDim &gt;</text>
</a>
</g>
</g>
<!-- Node2&#45;&gt;Node1 -->
<g id="edge1" class="edge">
<title>Node2&#45;&gt;Node1</title>
<path fill="none" stroke="midnightblue" d="M314.28,-39.5C322.77,-39.5 331.42,-39.5 339.87,-39.5"/>
<polygon fill="midnightblue" stroke="midnightblue" points="314.03,-36 304.03,-39.5 314.03,-43 314.03,-36"/>
</g>
<!-- Node3 -->
<g id="node3" class="node">
<title>Node3</title>
<g id="a_node3"><a xlink:href="classmini_1_1coordinate_1_1Element.html" target="_top" xlink:title=" ">
<polygon fill="white" stroke="black" points="0,-24.5 0,-54.5 143,-54.5 143,-24.5 0,-24.5"/>
<text text-anchor="start" x="8" y="-42.5" font-family="Helvetica,sans-Serif" font-size="10.00">mini::coordinate::Element</text>
<text text-anchor="middle" x="71.5" y="-31.5" font-family="Helvetica,sans-Serif" font-size="10.00">&lt; Scalar, kPhysDim, 2 &gt;</text>
</a>
</g>
</g>
<!-- Node3&#45;&gt;Node2 -->
<g id="edge2" class="edge">
<title>Node3&#45;&gt;Node2</title>
<path fill="none" stroke="midnightblue" d="M153.31,-39.5C161.91,-39.5 170.55,-39.5 178.88,-39.5"/>
<polygon fill="midnightblue" stroke="midnightblue" points="153.26,-36 143.26,-39.5 153.26,-43 153.26,-36"/>
</g>
</g>
</svg>
