<?xml version="1.0" encoding="UTF-8" standalone="no"?>
<!DOCTYPE svg PUBLIC "-//W3C//DTD SVG 1.1//EN"
 "http://www.w3.org/Graphics/SVG/1.1/DTD/svg11.dtd">
<!-- Generated by graphviz version 2.43.0 (0)
 -->
<!-- Title: python.element.LegendreFR Pages: 1 -->
<svg width="199pt" height="196pt"
 viewBox="0.00 0.00 199.00 196.00" xmlns="http://www.w3.org/2000/svg" xmlns:xlink="http://www.w3.org/1999/xlink">
<g id="graph0" class="graph" transform="scale(1 1) rotate(0) translate(4 192)">
<title>python.element.LegendreFR</title>
<polygon fill="white" stroke="transparent" points="-4,4 -4,-192 195,-192 195,4 -4,4"/>
<!-- Node1 -->
<g id="node1" class="node">
<title>Node1</title>
<g id="a_node1"><a xlink:title="Element for implement the FR scheme using a Legendre expansion.">
<polygon fill="#bfbfbf" stroke="black" points="18,-0.5 18,-19.5 173,-19.5 173,-0.5 18,-0.5"/>
<text text-anchor="middle" x="95.5" y="-7.5" font-family="Helvetica,sans-Serif" font-size="10.00">python.element.LegendreFR</text>
</a>
</g>
</g>
<!-- Node2 -->
<g id="node2" class="node">
<title>Node2</title>
<g id="a_node2"><a xlink:href="classpython_1_1element_1_1FluxReconstruction.html" target="_top" xlink:title="Element for implement FR schemes.">
<polygon fill="white" stroke="black" points="0,-56.5 0,-75.5 191,-75.5 191,-56.5 0,-56.5"/>
<text text-anchor="middle" x="95.5" y="-63.5" font-family="Helvetica,sans-Serif" font-size="10.00">python.element.FluxReconstruction</text>
</a>
</g>
</g>
<!-- Node2&#45;&gt;Node1 -->
<g id="edge1" class="edge">
<title>Node2&#45;&gt;Node1</title>
<path fill="none" stroke="midnightblue" d="M95.5,-45.8C95.5,-36.91 95.5,-26.78 95.5,-19.75"/>
<polygon fill="midnightblue" stroke="midnightblue" points="92,-46.08 95.5,-56.08 99,-46.08 92,-46.08"/>
</g>
<!-- Node3 -->
<g id="node3" class="node">
<title>Node3</title>
<g id="a_node3"><a xlink:href="classpython_1_1concept_1_1Element.html" target="_top" xlink:title="A cell&#45;like object that carries some expansion of the solution.">
<polygon fill="white" stroke="black" points="28,-112.5 28,-131.5 163,-131.5 163,-112.5 28,-112.5"/>
<text text-anchor="middle" x="95.5" y="-119.5" font-family="Helvetica,sans-Serif" font-size="10.00">python.concept.Element</text>
</a>
</g>
</g>
<!-- Node3&#45;&gt;Node2 -->
<g id="edge2" class="edge">
<title>Node3&#45;&gt;Node2</title>
<path fill="none" stroke="midnightblue" d="M95.5,-101.8C95.5,-92.91 95.5,-82.78 95.5,-75.75"/>
<polygon fill="midnightblue" stroke="midnightblue" points="92,-102.08 95.5,-112.08 99,-102.08 92,-102.08"/>
</g>
<!-- Node4 -->
<g id="node4" class="node">
<title>Node4</title>
<g id="a_node4"><a xlink:title=" ">
<polygon fill="white" stroke="#bfbfbf" points="67,-168.5 67,-187.5 124,-187.5 124,-168.5 67,-168.5"/>
<text text-anchor="middle" x="95.5" y="-175.5" font-family="Helvetica,sans-Serif" font-size="10.00">abc.ABC</text>
</a>
</g>
</g>
<!-- Node4&#45;&gt;Node3 -->
<g id="edge3" class="edge">
<title>Node4&#45;&gt;Node3</title>
<path fill="none" stroke="midnightblue" d="M95.5,-157.8C95.5,-148.91 95.5,-138.78 95.5,-131.75"/>
<polygon fill="midnightblue" stroke="midnightblue" points="92,-158.08 95.5,-168.08 99,-158.08 92,-158.08"/>
</g>
</g>
</svg>
