<?xml version="1.0" encoding="UTF-8" standalone="no"?>
<!DOCTYPE svg PUBLIC "-//W3C//DTD SVG 1.1//EN"
 "http://www.w3.org/Graphics/SVG/1.1/DTD/svg11.dtd">
<!-- Generated by graphviz version 2.43.0 (0)
 -->
<!-- Title: python.concept.Viscosity Pages: 1 -->
<svg width="480pt" height="196pt"
 viewBox="0.00 0.00 479.50 196.00" xmlns="http://www.w3.org/2000/svg" xmlns:xlink="http://www.w3.org/1999/xlink">
<g id="graph0" class="graph" transform="scale(1 1) rotate(0) translate(4 192)">
<title>python.concept.Viscosity</title>
<polygon fill="white" stroke="transparent" points="-4,4 -4,-192 475.5,-192 475.5,4 -4,4"/>
<!-- Node1 -->
<g id="node1" class="node">
<title>Node1</title>
<g id="a_node1"><a xlink:title="An object that adds artificial viscosity to a spatial scheme.">
<polygon fill="#bfbfbf" stroke="black" points="156.5,-112.5 156.5,-131.5 295.5,-131.5 295.5,-112.5 156.5,-112.5"/>
<text text-anchor="middle" x="226" y="-119.5" font-family="Helvetica,sans-Serif" font-size="10.00">python.concept.Viscosity</text>
</a>
</g>
</g>
<!-- Node3 -->
<g id="node3" class="node">
<title>Node3</title>
<g id="a_node3"><a xlink:href="classpython_1_1viscosity_1_1Constant.html" target="_top" xlink:title=" ">
<polygon fill="white" stroke="black" points="0,-56.5 0,-75.5 142,-75.5 142,-56.5 0,-56.5"/>
<text text-anchor="middle" x="71" y="-63.5" font-family="Helvetica,sans-Serif" font-size="10.00">python.viscosity.Constant</text>
</a>
</g>
</g>
<!-- Node1&#45;&gt;Node3 -->
<g id="edge2" class="edge">
<title>Node1&#45;&gt;Node3</title>
<path fill="none" stroke="midnightblue" d="M191.67,-109.04C162.5,-98.88 121.36,-84.55 95.45,-75.52"/>
<polygon fill="midnightblue" stroke="midnightblue" points="190.84,-112.46 201.44,-112.44 193.15,-105.85 190.84,-112.46"/>
</g>
<!-- Node4 -->
<g id="node4" class="node">
<title>Node4</title>
<g id="a_node4"><a xlink:href="classpython_1_1viscosity_1_1Energy.html" target="_top" xlink:title=" ">
<polygon fill="white" stroke="black" points="160,-56.5 160,-75.5 292,-75.5 292,-56.5 160,-56.5"/>
<text text-anchor="middle" x="226" y="-63.5" font-family="Helvetica,sans-Serif" font-size="10.00">python.viscosity.Energy</text>
</a>
</g>
</g>
<!-- Node1&#45;&gt;Node4 -->
<g id="edge3" class="edge">
<title>Node1&#45;&gt;Node4</title>
<path fill="none" stroke="midnightblue" d="M226,-101.8C226,-92.91 226,-82.78 226,-75.75"/>
<polygon fill="midnightblue" stroke="midnightblue" points="222.5,-102.08 226,-112.08 229.5,-102.08 222.5,-102.08"/>
</g>
<!-- Node7 -->
<g id="node7" class="node">
<title>Node7</title>
<g id="a_node7"><a xlink:href="classpython_1_1viscosity_1_1Persson2006.html" target="_top" xlink:title="Artificial viscosity for DG and FR schemes.">
<polygon fill="white" stroke="black" points="310.5,-56.5 310.5,-75.5 471.5,-75.5 471.5,-56.5 310.5,-56.5"/>
<text text-anchor="middle" x="391" y="-63.5" font-family="Helvetica,sans-Serif" font-size="10.00">python.viscosity.Persson2006</text>
</a>
</g>
</g>
<!-- Node1&#45;&gt;Node7 -->
<g id="edge6" class="edge">
<title>Node1&#45;&gt;Node7</title>
<path fill="none" stroke="midnightblue" d="M261.74,-109.3C292.83,-99.13 337.15,-84.62 364.98,-75.52"/>
<polygon fill="midnightblue" stroke="midnightblue" points="260.56,-106.01 252.14,-112.44 262.74,-112.66 260.56,-106.01"/>
</g>
<!-- Node2 -->
<g id="node2" class="node">
<title>Node2</title>
<g id="a_node2"><a xlink:title=" ">
<polygon fill="white" stroke="#bfbfbf" points="197.5,-168.5 197.5,-187.5 254.5,-187.5 254.5,-168.5 197.5,-168.5"/>
<text text-anchor="middle" x="226" y="-175.5" font-family="Helvetica,sans-Serif" font-size="10.00">abc.ABC</text>
</a>
</g>
</g>
<!-- Node2&#45;&gt;Node1 -->
<g id="edge1" class="edge">
<title>Node2&#45;&gt;Node1</title>
<path fill="none" stroke="midnightblue" d="M226,-157.8C226,-148.91 226,-138.78 226,-131.75"/>
<polygon fill="midnightblue" stroke="midnightblue" points="222.5,-158.08 226,-168.08 229.5,-158.08 222.5,-158.08"/>
</g>
<!-- Node5 -->
<g id="node5" class="node">
<title>Node5</title>
<g id="a_node5"><a xlink:href="classpython_1_1viscosity_1_1Linear.html" target="_top" xlink:title=" ">
<polygon fill="white" stroke="black" points="85,-0.5 85,-19.5 213,-19.5 213,-0.5 85,-0.5"/>
<text text-anchor="middle" x="149" y="-7.5" font-family="Helvetica,sans-Serif" font-size="10.00">python.viscosity.Linear</text>
</a>
</g>
</g>
<!-- Node4&#45;&gt;Node5 -->
<g id="edge4" class="edge">
<title>Node4&#45;&gt;Node5</title>
<path fill="none" stroke="midnightblue" d="M205.1,-50.34C191.09,-40.52 173.12,-27.91 161.34,-19.65"/>
<polygon fill="midnightblue" stroke="midnightblue" points="203.43,-53.45 213.63,-56.32 207.45,-47.72 203.43,-53.45"/>
</g>
<!-- Node6 -->
<g id="node6" class="node">
<title>Node6</title>
<g id="a_node6"><a xlink:href="classpython_1_1viscosity_1_1Quadratic.html" target="_top" xlink:title=" ">
<polygon fill="white" stroke="black" points="231,-0.5 231,-19.5 377,-19.5 377,-0.5 231,-0.5"/>
<text text-anchor="middle" x="304" y="-7.5" font-family="Helvetica,sans-Serif" font-size="10.00">python.viscosity.Quadratic</text>
</a>
</g>
</g>
<!-- Node4&#45;&gt;Node6 -->
<g id="edge5" class="edge">
<title>Node4&#45;&gt;Node6</title>
<path fill="none" stroke="midnightblue" d="M246.77,-50.62C261.02,-40.76 279.46,-27.99 291.5,-19.65"/>
<polygon fill="midnightblue" stroke="midnightblue" points="244.76,-47.75 238.53,-56.32 248.75,-53.51 244.76,-47.75"/>
</g>
</g>
</svg>
