<?xml version="1.0" encoding="UTF-8" standalone="no"?>
<!DOCTYPE svg PUBLIC "-//W3C//DTD SVG 1.1//EN"
 "http://www.w3.org/Graphics/SVG/1.1/DTD/svg11.dtd">
<!-- Generated by graphviz version 2.43.0 (0)
 -->
<!-- Title: python.concept.SpatialScheme Pages: 1 -->
<svg width="1064pt" height="362pt"
 viewBox="0.00 0.00 1064.00 361.50" xmlns="http://www.w3.org/2000/svg" xmlns:xlink="http://www.w3.org/1999/xlink">
<g id="graph0" class="graph" transform="scale(1 1) rotate(0) translate(4 357.5)">
<title>python.concept.SpatialScheme</title>
<polygon fill="white" stroke="transparent" points="-4,4 -4,-357.5 1060,-357.5 1060,4 -4,4"/>
<!-- Node1 -->
<g id="node1" class="node">
<title>Node1</title>
<g id="a_node1"><a xlink:title="An ODE system given by some FiniteElement scheme.">
<polygon fill="#bfbfbf" stroke="black" points="280,-143.5 280,-162.5 447,-162.5 447,-143.5 280,-143.5"/>
<text text-anchor="middle" x="363.5" y="-150.5" font-family="Helvetica,sans-Serif" font-size="10.00">python.concept.SpatialScheme</text>
</a>
</g>
</g>
<!-- Node5 -->
<g id="node5" class="node">
<title>Node5</title>
<g id="a_node5"><a xlink:href="classpython_1_1spatial_1_1FiniteElement.html" target="_top" xlink:title="An ODE system given by some FiniteElement scheme.">
<polygon fill="white" stroke="black" points="483,-162.5 483,-181.5 640,-181.5 640,-162.5 483,-162.5"/>
<text text-anchor="middle" x="561.5" y="-169.5" font-family="Helvetica,sans-Serif" font-size="10.00">python.spatial.FiniteElement</text>
</a>
</g>
</g>
<!-- Node1&#45;&gt;Node5 -->
<g id="edge5" class="edge">
<title>Node1&#45;&gt;Node5</title>
<path fill="none" stroke="midnightblue" d="M457.09,-161.98C465.67,-162.81 474.3,-163.64 482.73,-164.46"/>
<polygon fill="midnightblue" stroke="midnightblue" points="457.34,-158.48 447.05,-161 456.67,-165.45 457.34,-158.48"/>
</g>
<!-- Node16 -->
<g id="node16" class="node">
<title>Node16</title>
<g id="a_node16"><a xlink:href="classpython_1_1spatial_1_1FiniteVolume.html" target="_top" xlink:title="An ODE system given by some FiniteVolume scheme.">
<polygon fill="white" stroke="black" points="485,-124.5 485,-143.5 638,-143.5 638,-124.5 485,-124.5"/>
<text text-anchor="middle" x="561.5" y="-131.5" font-family="Helvetica,sans-Serif" font-size="10.00">python.spatial.FiniteVolume</text>
</a>
</g>
</g>
<!-- Node1&#45;&gt;Node16 -->
<g id="edge16" class="edge">
<title>Node1&#45;&gt;Node16</title>
<path fill="none" stroke="midnightblue" d="M457.12,-144.02C466.43,-143.12 475.8,-142.21 484.91,-141.33"/>
<polygon fill="midnightblue" stroke="midnightblue" points="456.67,-140.55 447.05,-145 457.34,-147.52 456.67,-140.55"/>
</g>
<!-- Node2 -->
<g id="node2" class="node">
<title>Node2</title>
<g id="a_node2"><a xlink:href="classpython_1_1concept_1_1Grid.html" target="_top" xlink:title=" ">
<polygon fill="white" stroke="black" points="111,-162.5 111,-181.5 226,-181.5 226,-162.5 111,-162.5"/>
<text text-anchor="middle" x="168.5" y="-169.5" font-family="Helvetica,sans-Serif" font-size="10.00">python.concept.Grid</text>
</a>
</g>
</g>
<!-- Node2&#45;&gt;Node1 -->
<g id="edge1" class="edge">
<title>Node2&#45;&gt;Node1</title>
<path fill="none" stroke="midnightblue" d="M236.15,-165.44C250.2,-164.06 265.18,-162.58 279.74,-161.15"/>
<polygon fill="midnightblue" stroke="midnightblue" points="235.71,-161.96 226.1,-166.43 236.4,-168.93 235.71,-161.96"/>
</g>
<!-- Node3 -->
<g id="node3" class="node">
<title>Node3</title>
<g id="a_node3"><a xlink:title=" ">
<polygon fill="white" stroke="#bfbfbf" points="0,-143.5 0,-162.5 57,-162.5 57,-143.5 0,-143.5"/>
<text text-anchor="middle" x="28.5" y="-150.5" font-family="Helvetica,sans-Serif" font-size="10.00">abc.ABC</text>
</a>
</g>
</g>
<!-- Node3&#45;&gt;Node2 -->
<g id="edge2" class="edge">
<title>Node3&#45;&gt;Node2</title>
<path fill="none" stroke="midnightblue" d="M67.38,-158.22C80.81,-160.06 96.22,-162.19 110.86,-164.2"/>
<polygon fill="midnightblue" stroke="midnightblue" points="67.48,-154.7 57.09,-156.8 66.52,-161.63 67.48,-154.7"/>
</g>
<!-- Node4 -->
<g id="node4" class="node">
<title>Node4</title>
<g id="a_node4"><a xlink:href="classpython_1_1concept_1_1OdeSystem.html" target="_top" xlink:title="A system of ODEs in the form of dU/∂t = R.">
<polygon fill="white" stroke="black" points="93,-124.5 93,-143.5 244,-143.5 244,-124.5 93,-124.5"/>
<text text-anchor="middle" x="168.5" y="-131.5" font-family="Helvetica,sans-Serif" font-size="10.00">python.concept.OdeSystem</text>
</a>
</g>
</g>
<!-- Node3&#45;&gt;Node4 -->
<g id="edge4" class="edge">
<title>Node3&#45;&gt;Node4</title>
<path fill="none" stroke="midnightblue" d="M67.13,-147.82C76.8,-146.49 87.52,-145.01 98.24,-143.54"/>
<polygon fill="midnightblue" stroke="midnightblue" points="66.52,-144.37 57.09,-149.2 67.48,-151.3 66.52,-144.37"/>
</g>
<!-- Node4&#45;&gt;Node1 -->
<g id="edge3" class="edge">
<title>Node4&#45;&gt;Node1</title>
<path fill="none" stroke="midnightblue" d="M254.33,-142.35C262.77,-143.18 271.33,-144.02 279.74,-144.85"/>
<polygon fill="midnightblue" stroke="midnightblue" points="254.41,-138.84 244.12,-141.35 253.73,-145.81 254.41,-138.84"/>
</g>
<!-- Node6 -->
<g id="node6" class="node">
<title>Node6</title>
<g id="a_node6"><a xlink:href="classpython_1_1spatial_1_1DiscontinuousGalerkin.html" target="_top" xlink:title="An mid&#45;level class that defines common methods for all DG schemes.">
<polygon fill="white" stroke="black" points="688.5,-225 688.5,-255 846.5,-255 846.5,-225 688.5,-225"/>
<text text-anchor="start" x="696.5" y="-243" font-family="Helvetica,sans-Serif" font-size="10.00">python.spatial.Discontinuous</text>
<text text-anchor="middle" x="767.5" y="-232" font-family="Helvetica,sans-Serif" font-size="10.00">Galerkin</text>
</a>
</g>
</g>
<!-- Node5&#45;&gt;Node6 -->
<g id="edge6" class="edge">
<title>Node5&#45;&gt;Node6</title>
<path fill="none" stroke="midnightblue" d="M600.93,-184.81C635.14,-196.21 685.22,-212.91 721.33,-224.94"/>
<polygon fill="midnightblue" stroke="midnightblue" points="601.89,-181.44 591.3,-181.6 599.68,-188.08 601.89,-181.44"/>
</g>
<!-- Node11 -->
<g id="node11" class="node">
<title>Node11</title>
<g id="a_node11"><a xlink:href="classpython_1_1spatial_1_1FluxReconstruction.html" target="_top" xlink:title="An mid&#45;level class that defines common methods for all FR schemes.">
<polygon fill="white" stroke="black" points="676,-93.5 676,-112.5 859,-112.5 859,-93.5 676,-93.5"/>
<text text-anchor="middle" x="767.5" y="-100.5" font-family="Helvetica,sans-Serif" font-size="10.00">python.spatial.FluxReconstruction</text>
</a>
</g>
</g>
<!-- Node5&#45;&gt;Node11 -->
<g id="edge11" class="edge">
<title>Node5&#45;&gt;Node11</title>
<path fill="none" stroke="midnightblue" d="M615.71,-159.97C623.9,-157.83 632.21,-155.48 640,-153 677.58,-141.03 719.96,-123.4 744.89,-112.59"/>
<polygon fill="midnightblue" stroke="midnightblue" points="614.66,-156.63 605.83,-162.48 616.39,-163.41 614.66,-156.63"/>
</g>
<!-- Node7 -->
<g id="node7" class="node">
<title>Node7</title>
<g id="a_node7"><a xlink:href="classpython_1_1spatial_1_1DGonLegendreRoots.html" target="_top" xlink:title="The ODE system given by the DG method using a Lagrange expansion on Legendre roots.">
<polygon fill="white" stroke="black" points="895,-323 895,-353 1056,-353 1056,-323 895,-323"/>
<text text-anchor="start" x="903" y="-341" font-family="Helvetica,sans-Serif" font-size="10.00">python.spatial.DGonLegendre</text>
<text text-anchor="middle" x="975.5" y="-330" font-family="Helvetica,sans-Serif" font-size="10.00">Roots</text>
</a>
</g>
</g>
<!-- Node6&#45;&gt;Node7 -->
<g id="edge7" class="edge">
<title>Node6&#45;&gt;Node7</title>
<path fill="none" stroke="midnightblue" d="M799.15,-260.71C824.12,-276.88 860.73,-299.05 895,-314 902.53,-317.29 910.65,-320.3 918.72,-322.99"/>
<polygon fill="midnightblue" stroke="midnightblue" points="800.78,-257.59 790.5,-255.04 796.95,-263.45 800.78,-257.59"/>
</g>
<!-- Node8 -->
<g id="node8" class="node">
<title>Node8</title>
<g id="a_node8"><a xlink:href="classpython_1_1spatial_1_1DGonLobattoRoots.html" target="_top" xlink:title="The ODE system given by the DG method using a Lagrange expansion on Lobatto roots.">
<polygon fill="white" stroke="black" points="899,-274 899,-304 1052,-304 1052,-274 899,-274"/>
<text text-anchor="start" x="907" y="-292" font-family="Helvetica,sans-Serif" font-size="10.00">python.spatial.DGonLobatto</text>
<text text-anchor="middle" x="975.5" y="-281" font-family="Helvetica,sans-Serif" font-size="10.00">Roots</text>
</a>
</g>
</g>
<!-- Node6&#45;&gt;Node8 -->
<g id="edge8" class="edge">
<title>Node6&#45;&gt;Node8</title>
<path fill="none" stroke="midnightblue" d="M841.67,-257.4C864.46,-262.82 889.38,-268.75 911.41,-273.99"/>
<polygon fill="midnightblue" stroke="midnightblue" points="842.25,-253.94 831.71,-255.03 840.63,-260.75 842.25,-253.94"/>
</g>
<!-- Node9 -->
<g id="node9" class="node">
<title>Node9</title>
<g id="a_node9"><a xlink:href="classpython_1_1spatial_1_1DGonUniformRoots.html" target="_top" xlink:title="The ODE system given by the DG method using a Lagrange expansion on uniform roots.">
<polygon fill="white" stroke="black" points="897.5,-225 897.5,-255 1053.5,-255 1053.5,-225 897.5,-225"/>
<text text-anchor="start" x="905.5" y="-243" font-family="Helvetica,sans-Serif" font-size="10.00">python.spatial.DGonUniform</text>
<text text-anchor="middle" x="975.5" y="-232" font-family="Helvetica,sans-Serif" font-size="10.00">Roots</text>
</a>
</g>
</g>
<!-- Node6&#45;&gt;Node9 -->
<g id="edge9" class="edge">
<title>Node6&#45;&gt;Node9</title>
<path fill="none" stroke="midnightblue" d="M856.9,-240C870.38,-240 884.19,-240 897.4,-240"/>
<polygon fill="midnightblue" stroke="midnightblue" points="856.67,-236.5 846.67,-240 856.67,-243.5 856.67,-236.5"/>
</g>
<!-- Node10 -->
<g id="node10" class="node">
<title>Node10</title>
<g id="a_node10"><a xlink:href="classpython_1_1spatial_1_1LegendreDG.html" target="_top" xlink:title="The ODE system given by the DG method using a Legendre expansion.">
<polygon fill="white" stroke="black" points="901,-186.5 901,-205.5 1050,-205.5 1050,-186.5 901,-186.5"/>
<text text-anchor="middle" x="975.5" y="-193.5" font-family="Helvetica,sans-Serif" font-size="10.00">python.spatial.LegendreDG</text>
</a>
</g>
</g>
<!-- Node6&#45;&gt;Node10 -->
<g id="edge10" class="edge">
<title>Node6&#45;&gt;Node10</title>
<path fill="none" stroke="midnightblue" d="M848.86,-222.84C876.43,-216.95 906.28,-210.57 929.96,-205.51"/>
<polygon fill="midnightblue" stroke="midnightblue" points="847.87,-219.47 838.82,-224.98 849.33,-226.31 847.87,-219.47"/>
</g>
<!-- Node12 -->
<g id="node12" class="node">
<title>Node12</title>
<g id="a_node12"><a xlink:href="classpython_1_1spatial_1_1FRonLegendreRoots.html" target="_top" xlink:title="The ODE system given by the FR method using a Lagrange expansion on Legendre roots.">
<polygon fill="white" stroke="black" points="896,-137 896,-167 1055,-167 1055,-137 896,-137"/>
<text text-anchor="start" x="904" y="-155" font-family="Helvetica,sans-Serif" font-size="10.00">python.spatial.FRonLegendre</text>
<text text-anchor="middle" x="975.5" y="-144" font-family="Helvetica,sans-Serif" font-size="10.00">Roots</text>
</a>
</g>
</g>
<!-- Node11&#45;&gt;Node12 -->
<g id="edge12" class="edge">
<title>Node11&#45;&gt;Node12</title>
<path fill="none" stroke="midnightblue" d="M818.64,-114.93C846.54,-121.56 881.53,-129.89 911.28,-136.96"/>
<polygon fill="midnightblue" stroke="midnightblue" points="819.25,-111.47 808.71,-112.56 817.63,-118.28 819.25,-111.47"/>
</g>
<!-- Node13 -->
<g id="node13" class="node">
<title>Node13</title>
<g id="a_node13"><a xlink:href="classpython_1_1spatial_1_1FRonLobattoRoots.html" target="_top" xlink:title="The ODE system given by the FR method using a Lagrange expansion on Lobatto roots.">
<polygon fill="white" stroke="black" points="900,-88 900,-118 1051,-118 1051,-88 900,-88"/>
<text text-anchor="start" x="908" y="-106" font-family="Helvetica,sans-Serif" font-size="10.00">python.spatial.FRonLobatto</text>
<text text-anchor="middle" x="975.5" y="-95" font-family="Helvetica,sans-Serif" font-size="10.00">Roots</text>
</a>
</g>
</g>
<!-- Node11&#45;&gt;Node13 -->
<g id="edge13" class="edge">
<title>Node11&#45;&gt;Node13</title>
<path fill="none" stroke="midnightblue" d="M869.39,-103C879.66,-103 889.95,-103 899.86,-103"/>
<polygon fill="midnightblue" stroke="midnightblue" points="869.15,-99.5 859.15,-103 869.15,-106.5 869.15,-99.5"/>
</g>
<!-- Node14 -->
<g id="node14" class="node">
<title>Node14</title>
<g id="a_node14"><a xlink:href="classpython_1_1spatial_1_1FRonUniformRoots.html" target="_top" xlink:title="The ODE system given by the DG method using a Lagrange expansion on uniform roots.">
<polygon fill="white" stroke="black" points="898.5,-39 898.5,-69 1052.5,-69 1052.5,-39 898.5,-39"/>
<text text-anchor="start" x="906.5" y="-57" font-family="Helvetica,sans-Serif" font-size="10.00">python.spatial.FRonUniform</text>
<text text-anchor="middle" x="975.5" y="-46" font-family="Helvetica,sans-Serif" font-size="10.00">Roots</text>
</a>
</g>
</g>
<!-- Node11&#45;&gt;Node14 -->
<g id="edge14" class="edge">
<title>Node11&#45;&gt;Node14</title>
<path fill="none" stroke="midnightblue" d="M818.64,-91.07C846.54,-84.44 881.53,-76.11 911.28,-69.04"/>
<polygon fill="midnightblue" stroke="midnightblue" points="817.63,-87.72 808.71,-93.44 819.25,-94.53 817.63,-87.72"/>
</g>
<!-- Node15 -->
<g id="node15" class="node">
<title>Node15</title>
<g id="a_node15"><a xlink:href="classpython_1_1spatial_1_1LegendreFR.html" target="_top" xlink:title="The ODE system given by the FR method using a Legendre expansion.">
<polygon fill="white" stroke="black" points="902,-0.5 902,-19.5 1049,-19.5 1049,-0.5 902,-0.5"/>
<text text-anchor="middle" x="975.5" y="-7.5" font-family="Helvetica,sans-Serif" font-size="10.00">python.spatial.LegendreFR</text>
</a>
</g>
</g>
<!-- Node11&#45;&gt;Node15 -->
<g id="edge15" class="edge">
<title>Node11&#45;&gt;Node15</title>
<path fill="none" stroke="midnightblue" d="M790.35,-87.51C814.79,-70.84 856.06,-44.64 895,-29 904.35,-25.24 914.63,-22.11 924.6,-19.54"/>
<polygon fill="midnightblue" stroke="midnightblue" points="788.09,-84.82 781.85,-93.38 792.07,-90.58 788.09,-84.82"/>
</g>
</g>
</svg>
