<?xml version="1.0" encoding="UTF-8" standalone="no"?>
<!DOCTYPE svg PUBLIC "-//W3C//DTD SVG 1.1//EN"
 "http://www.w3.org/Graphics/SVG/1.1/DTD/svg11.dtd">
<!-- Generated by graphviz version 2.43.0 (0)
 -->
<!-- Title: python.spatial.LegendreFR Pages: 1 -->
<svg width="292pt" height="308pt"
 viewBox="0.00 0.00 292.00 308.00" xmlns="http://www.w3.org/2000/svg" xmlns:xlink="http://www.w3.org/1999/xlink">
<g id="graph0" class="graph" transform="scale(1 1) rotate(0) translate(4 304)">
<title>python.spatial.LegendreFR</title>
<polygon fill="white" stroke="transparent" points="-4,4 -4,-304 288,-304 288,4 -4,4"/>
<!-- Node1 -->
<g id="node1" class="node">
<title>Node1</title>
<g id="a_node1"><a xlink:title="The ODE system given by the FR method using a Legendre expansion.">
<polygon fill="#bfbfbf" stroke="black" points="59,-0.5 59,-19.5 206,-19.5 206,-0.5 59,-0.5"/>
<text text-anchor="middle" x="132.5" y="-7.5" font-family="Helvetica,sans-Serif" font-size="10.00">python.spatial.LegendreFR</text>
</a>
</g>
</g>
<!-- Node2 -->
<g id="node2" class="node">
<title>Node2</title>
<g id="a_node2"><a xlink:href="classpython_1_1spatial_1_1FluxReconstruction.html" target="_top" xlink:title="An mid&#45;level class that defines common methods for all FR schemes.">
<polygon fill="white" stroke="black" points="41,-56.5 41,-75.5 224,-75.5 224,-56.5 41,-56.5"/>
<text text-anchor="middle" x="132.5" y="-63.5" font-family="Helvetica,sans-Serif" font-size="10.00">python.spatial.FluxReconstruction</text>
</a>
</g>
</g>
<!-- Node2&#45;&gt;Node1 -->
<g id="edge1" class="edge">
<title>Node2&#45;&gt;Node1</title>
<path fill="none" stroke="midnightblue" d="M132.5,-45.8C132.5,-36.91 132.5,-26.78 132.5,-19.75"/>
<polygon fill="midnightblue" stroke="midnightblue" points="129,-46.08 132.5,-56.08 136,-46.08 129,-46.08"/>
</g>
<!-- Node3 -->
<g id="node3" class="node">
<title>Node3</title>
<g id="a_node3"><a xlink:href="classpython_1_1spatial_1_1FiniteElement.html" target="_top" xlink:title="An ODE system given by some FiniteElement scheme.">
<polygon fill="white" stroke="black" points="54,-112.5 54,-131.5 211,-131.5 211,-112.5 54,-112.5"/>
<text text-anchor="middle" x="132.5" y="-119.5" font-family="Helvetica,sans-Serif" font-size="10.00">python.spatial.FiniteElement</text>
</a>
</g>
</g>
<!-- Node3&#45;&gt;Node2 -->
<g id="edge2" class="edge">
<title>Node3&#45;&gt;Node2</title>
<path fill="none" stroke="midnightblue" d="M132.5,-101.8C132.5,-92.91 132.5,-82.78 132.5,-75.75"/>
<polygon fill="midnightblue" stroke="midnightblue" points="129,-102.08 132.5,-112.08 136,-102.08 129,-102.08"/>
</g>
<!-- Node4 -->
<g id="node4" class="node">
<title>Node4</title>
<g id="a_node4"><a xlink:href="classpython_1_1concept_1_1SpatialScheme.html" target="_top" xlink:title="An ODE system given by some FiniteElement scheme.">
<polygon fill="white" stroke="black" points="49,-168.5 49,-187.5 216,-187.5 216,-168.5 49,-168.5"/>
<text text-anchor="middle" x="132.5" y="-175.5" font-family="Helvetica,sans-Serif" font-size="10.00">python.concept.SpatialScheme</text>
</a>
</g>
</g>
<!-- Node4&#45;&gt;Node3 -->
<g id="edge3" class="edge">
<title>Node4&#45;&gt;Node3</title>
<path fill="none" stroke="midnightblue" d="M132.5,-157.8C132.5,-148.91 132.5,-138.78 132.5,-131.75"/>
<polygon fill="midnightblue" stroke="midnightblue" points="129,-158.08 132.5,-168.08 136,-158.08 129,-158.08"/>
</g>
<!-- Node5 -->
<g id="node5" class="node">
<title>Node5</title>
<g id="a_node5"><a xlink:href="classpython_1_1concept_1_1Grid.html" target="_top" xlink:title=" ">
<polygon fill="white" stroke="black" points="0,-224.5 0,-243.5 115,-243.5 115,-224.5 0,-224.5"/>
<text text-anchor="middle" x="57.5" y="-231.5" font-family="Helvetica,sans-Serif" font-size="10.00">python.concept.Grid</text>
</a>
</g>
</g>
<!-- Node5&#45;&gt;Node4 -->
<g id="edge4" class="edge">
<title>Node5&#45;&gt;Node4</title>
<path fill="none" stroke="midnightblue" d="M77.81,-218.38C91.36,-208.62 108.74,-196.11 120.23,-187.83"/>
<polygon fill="midnightblue" stroke="midnightblue" points="75.62,-215.64 69.55,-224.32 79.71,-221.32 75.62,-215.64"/>
</g>
<!-- Node6 -->
<g id="node6" class="node">
<title>Node6</title>
<g id="a_node6"><a xlink:title=" ">
<polygon fill="white" stroke="#bfbfbf" points="104,-280.5 104,-299.5 161,-299.5 161,-280.5 104,-280.5"/>
<text text-anchor="middle" x="132.5" y="-287.5" font-family="Helvetica,sans-Serif" font-size="10.00">abc.ABC</text>
</a>
</g>
</g>
<!-- Node6&#45;&gt;Node5 -->
<g id="edge5" class="edge">
<title>Node6&#45;&gt;Node5</title>
<path fill="none" stroke="midnightblue" d="M112.19,-274.38C98.64,-264.62 81.26,-252.11 69.77,-243.83"/>
<polygon fill="midnightblue" stroke="midnightblue" points="110.29,-277.32 120.45,-280.32 114.38,-271.64 110.29,-277.32"/>
</g>
<!-- Node7 -->
<g id="node7" class="node">
<title>Node7</title>
<g id="a_node7"><a xlink:href="classpython_1_1concept_1_1OdeSystem.html" target="_top" xlink:title="A system of ODEs in the form of dU/∂t = R.">
<polygon fill="white" stroke="black" points="133,-224.5 133,-243.5 284,-243.5 284,-224.5 133,-224.5"/>
<text text-anchor="middle" x="208.5" y="-231.5" font-family="Helvetica,sans-Serif" font-size="10.00">python.concept.OdeSystem</text>
</a>
</g>
</g>
<!-- Node6&#45;&gt;Node7 -->
<g id="edge7" class="edge">
<title>Node6&#45;&gt;Node7</title>
<path fill="none" stroke="midnightblue" d="M153.08,-274.38C166.81,-264.62 184.43,-252.11 196.07,-243.83"/>
<polygon fill="midnightblue" stroke="midnightblue" points="150.84,-271.68 144.71,-280.32 154.89,-277.38 150.84,-271.68"/>
</g>
<!-- Node7&#45;&gt;Node4 -->
<g id="edge6" class="edge">
<title>Node7&#45;&gt;Node4</title>
<path fill="none" stroke="midnightblue" d="M187.92,-218.38C174.19,-208.62 156.57,-196.11 144.93,-187.83"/>
<polygon fill="midnightblue" stroke="midnightblue" points="186.11,-221.38 196.29,-224.32 190.16,-215.68 186.11,-221.38"/>
</g>
</g>
</svg>
