<?xml version="1.0" encoding="UTF-8" standalone="no"?>
<!DOCTYPE svg PUBLIC "-//W3C//DTD SVG 1.1//EN"
 "http://www.w3.org/Graphics/SVG/1.1/DTD/svg11.dtd">
<!-- Generated by graphviz version 2.43.0 (0)
 -->
<!-- Title: python.detector.Persson2006 Pages: 1 -->
<svg width="166pt" height="207pt"
 viewBox="0.00 0.00 166.00 207.00" xmlns="http://www.w3.org/2000/svg" xmlns:xlink="http://www.w3.org/1999/xlink">
<g id="graph0" class="graph" transform="scale(1 1) rotate(0) translate(4 203)">
<title>python.detector.Persson2006</title>
<polygon fill="white" stroke="transparent" points="-4,4 -4,-203 162,-203 162,4 -4,4"/>
<!-- Node1 -->
<g id="node1" class="node">
<title>Node1</title>
<g id="a_node1"><a xlink:title="A jump detector based on decay of modal coefficients.">
<polygon fill="#bfbfbf" stroke="black" points="0,-0.5 0,-19.5 158,-19.5 158,-0.5 0,-0.5"/>
<text text-anchor="middle" x="79" y="-7.5" font-family="Helvetica,sans-Serif" font-size="10.00">python.detector.Persson2006</text>
</a>
</g>
</g>
<!-- Node2 -->
<g id="node2" class="node">
<title>Node2</title>
<g id="a_node2"><a xlink:href="classpython_1_1detector_1_1SmoothnessBased.html" target="_top" xlink:title=" ">
<polygon fill="white" stroke="black" points="1,-56.5 1,-86.5 157,-86.5 157,-56.5 1,-56.5"/>
<text text-anchor="start" x="9" y="-74.5" font-family="Helvetica,sans-Serif" font-size="10.00">python.detector.Smoothness</text>
<text text-anchor="middle" x="79" y="-63.5" font-family="Helvetica,sans-Serif" font-size="10.00">Based</text>
</a>
</g>
</g>
<!-- Node2&#45;&gt;Node1 -->
<g id="edge1" class="edge">
<title>Node2&#45;&gt;Node1</title>
<path fill="none" stroke="midnightblue" d="M79,-46.29C79,-36.86 79,-26.65 79,-19.66"/>
<polygon fill="midnightblue" stroke="midnightblue" points="75.5,-46.4 79,-56.4 82.5,-46.4 75.5,-46.4"/>
</g>
<!-- Node3 -->
<g id="node3" class="node">
<title>Node3</title>
<g id="a_node3"><a xlink:href="classpython_1_1concept_1_1Detector.html" target="_top" xlink:title="An object that detects jumps on an element.">
<polygon fill="white" stroke="black" points="10.5,-123.5 10.5,-142.5 147.5,-142.5 147.5,-123.5 10.5,-123.5"/>
<text text-anchor="middle" x="79" y="-130.5" font-family="Helvetica,sans-Serif" font-size="10.00">python.concept.Detector</text>
</a>
</g>
</g>
<!-- Node3&#45;&gt;Node2 -->
<g id="edge2" class="edge">
<title>Node3&#45;&gt;Node2</title>
<path fill="none" stroke="midnightblue" d="M79,-113.23C79,-104.59 79,-94.5 79,-86.52"/>
<polygon fill="midnightblue" stroke="midnightblue" points="75.5,-113.48 79,-123.48 82.5,-113.48 75.5,-113.48"/>
</g>
<!-- Node4 -->
<g id="node4" class="node">
<title>Node4</title>
<g id="a_node4"><a xlink:title=" ">
<polygon fill="white" stroke="#bfbfbf" points="50.5,-179.5 50.5,-198.5 107.5,-198.5 107.5,-179.5 50.5,-179.5"/>
<text text-anchor="middle" x="79" y="-186.5" font-family="Helvetica,sans-Serif" font-size="10.00">abc.ABC</text>
</a>
</g>
</g>
<!-- Node4&#45;&gt;Node3 -->
<g id="edge3" class="edge">
<title>Node4&#45;&gt;Node3</title>
<path fill="none" stroke="midnightblue" d="M79,-168.8C79,-159.91 79,-149.78 79,-142.75"/>
<polygon fill="midnightblue" stroke="midnightblue" points="75.5,-169.08 79,-179.08 82.5,-169.08 75.5,-169.08"/>
</g>
</g>
</svg>
