<?xml version="1.0" encoding="UTF-8" standalone="no"?>
<!DOCTYPE svg PUBLIC "-//W3C//DTD SVG 1.1//EN"
 "http://www.w3.org/Graphics/SVG/1.1/DTD/svg11.dtd">
<!-- Generated by graphviz version 2.43.0 (0)
 -->
<!-- Title: python.spatial.FRonLobattoRoots Pages: 1 -->
<svg width="292pt" height="319pt"
 viewBox="0.00 0.00 292.00 319.00" xmlns="http://www.w3.org/2000/svg" xmlns:xlink="http://www.w3.org/1999/xlink">
<g id="graph0" class="graph" transform="scale(1 1) rotate(0) translate(4 315)">
<title>python.spatial.FRonLobattoRoots</title>
<polygon fill="white" stroke="transparent" points="-4,4 -4,-315 288,-315 288,4 -4,4"/>
<!-- Node1 -->
<g id="node1" class="node">
<title>Node1</title>
<g id="a_node1"><a xlink:title="The ODE system given by the FR method using a Lagrange expansion on Lobatto roots.">
<polygon fill="#bfbfbf" stroke="black" points="57,-0.5 57,-30.5 208,-30.5 208,-0.5 57,-0.5"/>
<text text-anchor="start" x="65" y="-18.5" font-family="Helvetica,sans-Serif" font-size="10.00">python.spatial.FRonLobatto</text>
<text text-anchor="middle" x="132.5" y="-7.5" font-family="Helvetica,sans-Serif" font-size="10.00">Roots</text>
</a>
</g>
</g>
<!-- Node2 -->
<g id="node2" class="node">
<title>Node2</title>
<g id="a_node2"><a xlink:href="classpython_1_1spatial_1_1FluxReconstruction.html" target="_top" xlink:title="An mid&#45;level class that defines common methods for all FR schemes.">
<polygon fill="white" stroke="black" points="41,-67.5 41,-86.5 224,-86.5 224,-67.5 41,-67.5"/>
<text text-anchor="middle" x="132.5" y="-74.5" font-family="Helvetica,sans-Serif" font-size="10.00">python.spatial.FluxReconstruction</text>
</a>
</g>
</g>
<!-- Node2&#45;&gt;Node1 -->
<g id="edge1" class="edge">
<title>Node2&#45;&gt;Node1</title>
<path fill="none" stroke="midnightblue" d="M132.5,-57.23C132.5,-48.59 132.5,-38.5 132.5,-30.52"/>
<polygon fill="midnightblue" stroke="midnightblue" points="129,-57.48 132.5,-67.48 136,-57.48 129,-57.48"/>
</g>
<!-- Node3 -->
<g id="node3" class="node">
<title>Node3</title>
<g id="a_node3"><a xlink:href="classpython_1_1spatial_1_1FiniteElement.html" target="_top" xlink:title="An ODE system given by some FiniteElement scheme.">
<polygon fill="white" stroke="black" points="54,-123.5 54,-142.5 211,-142.5 211,-123.5 54,-123.5"/>
<text text-anchor="middle" x="132.5" y="-130.5" font-family="Helvetica,sans-Serif" font-size="10.00">python.spatial.FiniteElement</text>
</a>
</g>
</g>
<!-- Node3&#45;&gt;Node2 -->
<g id="edge2" class="edge">
<title>Node3&#45;&gt;Node2</title>
<path fill="none" stroke="midnightblue" d="M132.5,-112.8C132.5,-103.91 132.5,-93.78 132.5,-86.75"/>
<polygon fill="midnightblue" stroke="midnightblue" points="129,-113.08 132.5,-123.08 136,-113.08 129,-113.08"/>
</g>
<!-- Node4 -->
<g id="node4" class="node">
<title>Node4</title>
<g id="a_node4"><a xlink:href="classpython_1_1concept_1_1SpatialScheme.html" target="_top" xlink:title="An ODE system given by some FiniteElement scheme.">
<polygon fill="white" stroke="black" points="49,-179.5 49,-198.5 216,-198.5 216,-179.5 49,-179.5"/>
<text text-anchor="middle" x="132.5" y="-186.5" font-family="Helvetica,sans-Serif" font-size="10.00">python.concept.SpatialScheme</text>
</a>
</g>
</g>
<!-- Node4&#45;&gt;Node3 -->
<g id="edge3" class="edge">
<title>Node4&#45;&gt;Node3</title>
<path fill="none" stroke="midnightblue" d="M132.5,-168.8C132.5,-159.91 132.5,-149.78 132.5,-142.75"/>
<polygon fill="midnightblue" stroke="midnightblue" points="129,-169.08 132.5,-179.08 136,-169.08 129,-169.08"/>
</g>
<!-- Node5 -->
<g id="node5" class="node">
<title>Node5</title>
<g id="a_node5"><a xlink:href="classpython_1_1concept_1_1Grid.html" target="_top" xlink:title=" ">
<polygon fill="white" stroke="black" points="0,-235.5 0,-254.5 115,-254.5 115,-235.5 0,-235.5"/>
<text text-anchor="middle" x="57.5" y="-242.5" font-family="Helvetica,sans-Serif" font-size="10.00">python.concept.Grid</text>
</a>
</g>
</g>
<!-- Node5&#45;&gt;Node4 -->
<g id="edge4" class="edge">
<title>Node5&#45;&gt;Node4</title>
<path fill="none" stroke="midnightblue" d="M77.81,-229.38C91.36,-219.62 108.74,-207.11 120.23,-198.83"/>
<polygon fill="midnightblue" stroke="midnightblue" points="75.62,-226.64 69.55,-235.32 79.71,-232.32 75.62,-226.64"/>
</g>
<!-- Node6 -->
<g id="node6" class="node">
<title>Node6</title>
<g id="a_node6"><a xlink:title=" ">
<polygon fill="white" stroke="#bfbfbf" points="104,-291.5 104,-310.5 161,-310.5 161,-291.5 104,-291.5"/>
<text text-anchor="middle" x="132.5" y="-298.5" font-family="Helvetica,sans-Serif" font-size="10.00">abc.ABC</text>
</a>
</g>
</g>
<!-- Node6&#45;&gt;Node5 -->
<g id="edge5" class="edge">
<title>Node6&#45;&gt;Node5</title>
<path fill="none" stroke="midnightblue" d="M112.19,-285.38C98.64,-275.62 81.26,-263.11 69.77,-254.83"/>
<polygon fill="midnightblue" stroke="midnightblue" points="110.29,-288.32 120.45,-291.32 114.38,-282.64 110.29,-288.32"/>
</g>
<!-- Node7 -->
<g id="node7" class="node">
<title>Node7</title>
<g id="a_node7"><a xlink:href="classpython_1_1concept_1_1OdeSystem.html" target="_top" xlink:title="A system of ODEs in the form of dU/∂t = R.">
<polygon fill="white" stroke="black" points="133,-235.5 133,-254.5 284,-254.5 284,-235.5 133,-235.5"/>
<text text-anchor="middle" x="208.5" y="-242.5" font-family="Helvetica,sans-Serif" font-size="10.00">python.concept.OdeSystem</text>
</a>
</g>
</g>
<!-- Node6&#45;&gt;Node7 -->
<g id="edge7" class="edge">
<title>Node6&#45;&gt;Node7</title>
<path fill="none" stroke="midnightblue" d="M153.08,-285.38C166.81,-275.62 184.43,-263.11 196.07,-254.83"/>
<polygon fill="midnightblue" stroke="midnightblue" points="150.84,-282.68 144.71,-291.32 154.89,-288.38 150.84,-282.68"/>
</g>
<!-- Node7&#45;&gt;Node4 -->
<g id="edge6" class="edge">
<title>Node7&#45;&gt;Node4</title>
<path fill="none" stroke="midnightblue" d="M187.92,-229.38C174.19,-219.62 156.57,-207.11 144.93,-198.83"/>
<polygon fill="midnightblue" stroke="midnightblue" points="186.11,-232.38 196.29,-235.32 190.16,-226.68 186.11,-232.38"/>
</g>
</g>
</svg>
