<?xml version="1.0" encoding="UTF-8" standalone="no"?>
<!DOCTYPE svg PUBLIC "-//W3C//DTD SVG 1.1//EN"
 "http://www.w3.org/Graphics/SVG/1.1/DTD/svg11.dtd">
<!-- Generated by graphviz version 2.43.0 (0)
 -->
<!-- Title: python.solver.SolverBase Pages: 1 -->
<svg width="620pt" height="218pt"
 viewBox="0.00 0.00 620.00 218.00" xmlns="http://www.w3.org/2000/svg" xmlns:xlink="http://www.w3.org/1999/xlink">
<g id="graph0" class="graph" transform="scale(1 1) rotate(0) translate(4 214)">
<title>python.solver.SolverBase</title>
<polygon fill="white" stroke="transparent" points="-4,4 -4,-214 616,-214 616,4 -4,4"/>
<!-- Node1 -->
<g id="node1" class="node">
<title>Node1</title>
<g id="a_node1"><a xlink:title="Define common methods for all solvers.">
<polygon fill="#bfbfbf" stroke="black" points="93,-133.5 93,-152.5 233,-152.5 233,-133.5 93,-133.5"/>
<text text-anchor="middle" x="163" y="-140.5" font-family="Helvetica,sans-Serif" font-size="10.00">python.solver.SolverBase</text>
</a>
</g>
</g>
<!-- Node3 -->
<g id="node3" class="node">
<title>Node3</title>
<g id="a_node3"><a xlink:href="classpython_1_1solver_1_1InviscidBurgers.html" target="_top" xlink:title="Demo the usage of InviscidBurgers related classes.">
<polygon fill="white" stroke="black" points="269,-190.5 269,-209.5 430,-209.5 430,-190.5 269,-190.5"/>
<text text-anchor="middle" x="349.5" y="-197.5" font-family="Helvetica,sans-Serif" font-size="10.00">python.solver.InviscidBurgers</text>
</a>
</g>
</g>
<!-- Node1&#45;&gt;Node3 -->
<g id="edge2" class="edge">
<title>Node1&#45;&gt;Node3</title>
<path fill="none" stroke="midnightblue" d="M197.43,-156.19C217.9,-163.99 244.74,-173.74 269,-181 280.42,-184.42 292.9,-187.64 304.53,-190.42"/>
<polygon fill="midnightblue" stroke="midnightblue" points="198.52,-152.86 187.93,-152.53 196.01,-159.39 198.52,-152.86"/>
</g>
<!-- Node4 -->
<g id="node4" class="node">
<title>Node4</title>
<g id="a_node4"><a xlink:href="classpython_1_1solver_1_1LinearSmooth.html" target="_top" xlink:title="Demo the usage of LinearAdvection related classes for smooth IC.">
<polygon fill="white" stroke="black" points="273,-152.5 273,-171.5 426,-171.5 426,-152.5 273,-152.5"/>
<text text-anchor="middle" x="349.5" y="-159.5" font-family="Helvetica,sans-Serif" font-size="10.00">python.solver.LinearSmooth</text>
</a>
</g>
</g>
<!-- Node1&#45;&gt;Node4 -->
<g id="edge3" class="edge">
<title>Node1&#45;&gt;Node4</title>
<path fill="none" stroke="midnightblue" d="M243.3,-151.17C253.05,-152.17 263,-153.2 272.7,-154.19"/>
<polygon fill="midnightblue" stroke="midnightblue" points="243.53,-147.67 233.23,-150.13 242.81,-154.64 243.53,-147.67"/>
</g>
<!-- Node6 -->
<g id="node6" class="node">
<title>Node6</title>
<g id="a_node6"><a xlink:href="classpython_1_1solver_1_1OtherEuler.html" target="_top" xlink:title="Demo the usage of Euler related classes.">
<polygon fill="white" stroke="black" points="281,-114.5 281,-133.5 418,-133.5 418,-114.5 281,-114.5"/>
<text text-anchor="middle" x="349.5" y="-121.5" font-family="Helvetica,sans-Serif" font-size="10.00">python.solver.OtherEuler</text>
</a>
</g>
</g>
<!-- Node1&#45;&gt;Node6 -->
<g id="edge5" class="edge">
<title>Node1&#45;&gt;Node6</title>
<path fill="none" stroke="midnightblue" d="M243.54,-134.81C255.93,-133.53 268.63,-132.23 280.72,-130.98"/>
<polygon fill="midnightblue" stroke="midnightblue" points="242.81,-131.36 233.23,-135.87 243.53,-138.33 242.81,-131.36"/>
</g>
<!-- Node10 -->
<g id="node10" class="node">
<title>Node10</title>
<g id="a_node10"><a xlink:href="classpython_1_1solver_1_1ShockTube.html" target="_top" xlink:title="Demo the usage of Euler related classes.">
<polygon fill="white" stroke="black" points="281,-38.5 281,-57.5 418,-57.5 418,-38.5 281,-38.5"/>
<text text-anchor="middle" x="349.5" y="-45.5" font-family="Helvetica,sans-Serif" font-size="10.00">python.solver.ShockTube</text>
</a>
</g>
</g>
<!-- Node1&#45;&gt;Node10 -->
<g id="edge9" class="edge">
<title>Node1&#45;&gt;Node10</title>
<path fill="none" stroke="midnightblue" d="M191.73,-128.72C229.87,-109.08 297.5,-74.26 330.02,-57.52"/>
<polygon fill="midnightblue" stroke="midnightblue" points="189.99,-125.68 182.71,-133.37 193.2,-131.9 189.99,-125.68"/>
</g>
<!-- Node2 -->
<g id="node2" class="node">
<title>Node2</title>
<g id="a_node2"><a xlink:title=" ">
<polygon fill="white" stroke="#bfbfbf" points="0,-133.5 0,-152.5 57,-152.5 57,-133.5 0,-133.5"/>
<text text-anchor="middle" x="28.5" y="-140.5" font-family="Helvetica,sans-Serif" font-size="10.00">abc.ABC</text>
</a>
</g>
</g>
<!-- Node2&#45;&gt;Node1 -->
<g id="edge1" class="edge">
<title>Node2&#45;&gt;Node1</title>
<path fill="none" stroke="midnightblue" d="M67.34,-143C75.34,-143 84.02,-143 92.76,-143"/>
<polygon fill="midnightblue" stroke="midnightblue" points="67.28,-139.5 57.28,-143 67.28,-146.5 67.28,-139.5"/>
</g>
<!-- Node5 -->
<g id="node5" class="node">
<title>Node5</title>
<g id="a_node5"><a xlink:href="classpython_1_1solver_1_1LinearJumps.html" target="_top" xlink:title="Demo the usage of LinearAdvection related classes for IC with jumps.">
<polygon fill="white" stroke="black" points="466,-190.5 466,-209.5 612,-209.5 612,-190.5 466,-190.5"/>
<text text-anchor="middle" x="539" y="-197.5" font-family="Helvetica,sans-Serif" font-size="10.00">python.solver.LinearJumps</text>
</a>
</g>
</g>
<!-- Node4&#45;&gt;Node5 -->
<g id="edge4" class="edge">
<title>Node4&#45;&gt;Node5</title>
<path fill="none" stroke="midnightblue" d="M407.78,-173.61C434.45,-179.01 465.78,-185.36 491.03,-190.48"/>
<polygon fill="midnightblue" stroke="midnightblue" points="408.31,-170.15 397.81,-171.59 406.92,-177.01 408.31,-170.15"/>
</g>
<!-- Node7 -->
<g id="node7" class="node">
<title>Node7</title>
<g id="a_node7"><a xlink:href="classpython_1_1solver_1_1BlastWaves.html" target="_top" xlink:title="Demo the usage of Euler related classes.">
<polygon fill="white" stroke="black" points="467.5,-152.5 467.5,-171.5 610.5,-171.5 610.5,-152.5 467.5,-152.5"/>
<text text-anchor="middle" x="539" y="-159.5" font-family="Helvetica,sans-Serif" font-size="10.00">python.solver.BlastWaves</text>
</a>
</g>
</g>
<!-- Node6&#45;&gt;Node7 -->
<g id="edge6" class="edge">
<title>Node6&#45;&gt;Node7</title>
<path fill="none" stroke="midnightblue" d="M407.78,-135.61C434.45,-141.01 465.78,-147.36 491.03,-152.48"/>
<polygon fill="midnightblue" stroke="midnightblue" points="408.31,-132.15 397.81,-133.59 406.92,-139.01 408.31,-132.15"/>
</g>
<!-- Node8 -->
<g id="node8" class="node">
<title>Node8</title>
<g id="a_node8"><a xlink:href="classpython_1_1solver_1_1Sedov.html" target="_top" xlink:title="Demo the usage of Euler related classes.">
<polygon fill="white" stroke="black" points="481,-114.5 481,-133.5 597,-133.5 597,-114.5 481,-114.5"/>
<text text-anchor="middle" x="539" y="-121.5" font-family="Helvetica,sans-Serif" font-size="10.00">python.solver.Sedov</text>
</a>
</g>
</g>
<!-- Node6&#45;&gt;Node8 -->
<g id="edge7" class="edge">
<title>Node6&#45;&gt;Node8</title>
<path fill="none" stroke="midnightblue" d="M428.44,-124C446.02,-124 464.37,-124 480.92,-124"/>
<polygon fill="midnightblue" stroke="midnightblue" points="428.19,-120.5 418.19,-124 428.19,-127.5 428.19,-120.5"/>
</g>
<!-- Node9 -->
<g id="node9" class="node">
<title>Node9</title>
<g id="a_node9"><a xlink:href="classpython_1_1solver_1_1ShuOsher.html" target="_top" xlink:title="Demo the usage of Euler related classes.">
<polygon fill="white" stroke="black" points="473,-76.5 473,-95.5 605,-95.5 605,-76.5 473,-76.5"/>
<text text-anchor="middle" x="539" y="-83.5" font-family="Helvetica,sans-Serif" font-size="10.00">python.solver.ShuOsher</text>
</a>
</g>
</g>
<!-- Node6&#45;&gt;Node9 -->
<g id="edge8" class="edge">
<title>Node6&#45;&gt;Node9</title>
<path fill="none" stroke="midnightblue" d="M407.78,-112.39C434.45,-106.99 465.78,-100.64 491.03,-95.52"/>
<polygon fill="midnightblue" stroke="midnightblue" points="406.92,-108.99 397.81,-114.41 408.31,-115.85 406.92,-108.99"/>
</g>
<!-- Node11 -->
<g id="node11" class="node">
<title>Node11</title>
<g id="a_node11"><a xlink:href="classpython_1_1solver_1_1Lax.html" target="_top" xlink:title=" ">
<polygon fill="white" stroke="black" points="487.5,-38.5 487.5,-57.5 590.5,-57.5 590.5,-38.5 487.5,-38.5"/>
<text text-anchor="middle" x="539" y="-45.5" font-family="Helvetica,sans-Serif" font-size="10.00">python.solver.Lax</text>
</a>
</g>
</g>
<!-- Node10&#45;&gt;Node11 -->
<g id="edge10" class="edge">
<title>Node10&#45;&gt;Node11</title>
<path fill="none" stroke="midnightblue" d="M428.23,-48C448.24,-48 469.25,-48 487.48,-48"/>
<polygon fill="midnightblue" stroke="midnightblue" points="428.19,-44.5 418.19,-48 428.19,-51.5 428.19,-44.5"/>
</g>
<!-- Node12 -->
<g id="node12" class="node">
<title>Node12</title>
<g id="a_node12"><a xlink:href="classpython_1_1solver_1_1Sod.html" target="_top" xlink:title=" ">
<polygon fill="white" stroke="black" points="487,-0.5 487,-19.5 591,-19.5 591,-0.5 487,-0.5"/>
<text text-anchor="middle" x="539" y="-7.5" font-family="Helvetica,sans-Serif" font-size="10.00">python.solver.Sod</text>
</a>
</g>
</g>
<!-- Node10&#45;&gt;Node12 -->
<g id="edge11" class="edge">
<title>Node10&#45;&gt;Node12</title>
<path fill="none" stroke="midnightblue" d="M407.78,-36.39C434.45,-30.99 465.78,-24.64 491.03,-19.52"/>
<polygon fill="midnightblue" stroke="midnightblue" points="406.92,-32.99 397.81,-38.41 408.31,-39.85 406.92,-32.99"/>
</g>
</g>
</svg>
