<?xml version="1.0" encoding="UTF-8" standalone="no"?>
<!DOCTYPE svg PUBLIC "-//W3C//DTD SVG 1.1//EN"
 "http://www.w3.org/Graphics/SVG/1.1/DTD/svg11.dtd">
<!-- Generated by graphviz version 2.43.0 (0)
 -->
<!-- Title: mini::coordinate::Pyramid14&lt; Scalar &gt; Pages: 1 -->
<svg width="163pt" height="240pt"
 viewBox="0.00 0.00 163.00 240.00" xmlns="http://www.w3.org/2000/svg" xmlns:xlink="http://www.w3.org/1999/xlink">
<g id="graph0" class="graph" transform="scale(1 1) rotate(0) translate(4 236)">
<title>mini::coordinate::Pyramid14&lt; Scalar &gt;</title>
<polygon fill="white" stroke="transparent" points="-4,4 -4,-236 159,-236 159,4 -4,4"/>
<!-- Node1 -->
<g id="node1" class="node">
<title>Node1</title>
<g id="a_node1"><a xlink:title="Coordinate map on 14&#45;node pyramidal elements.">
<polygon fill="#bfbfbf" stroke="black" points="0,-0.5 0,-30.5 155,-30.5 155,-0.5 0,-0.5"/>
<text text-anchor="start" x="8" y="-18.5" font-family="Helvetica,sans-Serif" font-size="10.00">mini::coordinate::Pyramid14</text>
<text text-anchor="middle" x="77.5" y="-7.5" font-family="Helvetica,sans-Serif" font-size="10.00">&lt; Scalar &gt;</text>
</a>
</g>
</g>
<!-- Node2 -->
<g id="node2" class="node">
<title>Node2</title>
<g id="a_node2"><a xlink:href="classmini_1_1coordinate_1_1Pyramid.html" target="_top" xlink:title="Abstract coordinate map on pyramidal elements.">
<polygon fill="white" stroke="black" points="6,-67.5 6,-97.5 149,-97.5 149,-67.5 6,-67.5"/>
<text text-anchor="start" x="14" y="-85.5" font-family="Helvetica,sans-Serif" font-size="10.00">mini::coordinate::Pyramid</text>
<text text-anchor="middle" x="77.5" y="-74.5" font-family="Helvetica,sans-Serif" font-size="10.00">&lt; Scalar &gt;</text>
</a>
</g>
</g>
<!-- Node2&#45;&gt;Node1 -->
<g id="edge1" class="edge">
<title>Node2&#45;&gt;Node1</title>
<path fill="none" stroke="midnightblue" d="M77.5,-57.11C77.5,-48.15 77.5,-38.32 77.5,-30.58"/>
<polygon fill="midnightblue" stroke="midnightblue" points="74,-57.4 77.5,-67.4 81,-57.4 74,-57.4"/>
</g>
<!-- Node3 -->
<g id="node3" class="node">
<title>Node3</title>
<g id="a_node3"><a xlink:href="classmini_1_1coordinate_1_1Cell.html" target="_top" xlink:title="Abstract coordinate map on volume elements.">
<polygon fill="white" stroke="black" points="17,-134.5 17,-164.5 138,-164.5 138,-134.5 17,-134.5"/>
<text text-anchor="start" x="25" y="-152.5" font-family="Helvetica,sans-Serif" font-size="10.00">mini::coordinate::Cell</text>
<text text-anchor="middle" x="77.5" y="-141.5" font-family="Helvetica,sans-Serif" font-size="10.00">&lt; Scalar &gt;</text>
</a>
</g>
</g>
<!-- Node3&#45;&gt;Node2 -->
<g id="edge2" class="edge">
<title>Node3&#45;&gt;Node2</title>
<path fill="none" stroke="midnightblue" d="M77.5,-124.11C77.5,-115.15 77.5,-105.32 77.5,-97.58"/>
<polygon fill="midnightblue" stroke="midnightblue" points="74,-124.4 77.5,-134.4 81,-124.4 74,-124.4"/>
</g>
<!-- Node4 -->
<g id="node4" class="node">
<title>Node4</title>
<g id="a_node4"><a xlink:href="classmini_1_1coordinate_1_1Element.html" target="_top" xlink:title=" ">
<polygon fill="white" stroke="black" points="6,-201.5 6,-231.5 149,-231.5 149,-201.5 6,-201.5"/>
<text text-anchor="start" x="14" y="-219.5" font-family="Helvetica,sans-Serif" font-size="10.00">mini::coordinate::Element</text>
<text text-anchor="middle" x="77.5" y="-208.5" font-family="Helvetica,sans-Serif" font-size="10.00">&lt; Scalar, 3, 3 &gt;</text>
</a>
</g>
</g>
<!-- Node4&#45;&gt;Node3 -->
<g id="edge3" class="edge">
<title>Node4&#45;&gt;Node3</title>
<path fill="none" stroke="midnightblue" d="M77.5,-191.11C77.5,-182.15 77.5,-172.32 77.5,-164.58"/>
<polygon fill="midnightblue" stroke="midnightblue" points="74,-191.4 77.5,-201.4 81,-191.4 74,-191.4"/>
</g>
</g>
</svg>
