<?xml version="1.0" encoding="UTF-8" standalone="no"?>
<!DOCTYPE svg PUBLIC "-//W3C//DTD SVG 1.1//EN"
 "http://www.w3.org/Graphics/SVG/1.1/DTD/svg11.dtd">
<!-- Generated by graphviz version 2.43.0 (0)
 -->
<!-- Title: python.riemann.LinearAdvection Pages: 1 -->
<svg width="184pt" height="196pt"
 viewBox="0.00 0.00 184.00 196.00" xmlns="http://www.w3.org/2000/svg" xmlns:xlink="http://www.w3.org/1999/xlink">
<g id="graph0" class="graph" transform="scale(1 1) rotate(0) translate(4 192)">
<title>python.riemann.LinearAdvection</title>
<polygon fill="white" stroke="transparent" points="-4,4 -4,-192 180,-192 180,4 -4,4"/>
<!-- Node1 -->
<g id="node1" class="node">
<title>Node1</title>
<g id="a_node1"><a xlink:title=" ">
<polygon fill="#bfbfbf" stroke="black" points="0,-0.5 0,-19.5 176,-19.5 176,-0.5 0,-0.5"/>
<text text-anchor="middle" x="88" y="-7.5" font-family="Helvetica,sans-Serif" font-size="10.00">python.riemann.LinearAdvection</text>
</a>
</g>
</g>
<!-- Node2 -->
<g id="node2" class="node">
<title>Node2</title>
<g id="a_node2"><a xlink:href="classpython_1_1riemann_1_1Solver.html" target="_top" xlink:title=" ">
<polygon fill="white" stroke="black" points="24,-56.5 24,-75.5 152,-75.5 152,-56.5 24,-56.5"/>
<text text-anchor="middle" x="88" y="-63.5" font-family="Helvetica,sans-Serif" font-size="10.00">python.riemann.Solver</text>
</a>
</g>
</g>
<!-- Node2&#45;&gt;Node1 -->
<g id="edge1" class="edge">
<title>Node2&#45;&gt;Node1</title>
<path fill="none" stroke="midnightblue" d="M88,-45.8C88,-36.91 88,-26.78 88,-19.75"/>
<polygon fill="midnightblue" stroke="midnightblue" points="84.5,-46.08 88,-56.08 91.5,-46.08 84.5,-46.08"/>
</g>
<!-- Node3 -->
<g id="node3" class="node">
<title>Node3</title>
<g id="a_node3"><a xlink:href="classpython_1_1concept_1_1RiemannSolver.html" target="_top" xlink:title="An exact or approximate solver for the Riemann problem of an Equation.">
<polygon fill="white" stroke="black" points="3.5,-112.5 3.5,-131.5 172.5,-131.5 172.5,-112.5 3.5,-112.5"/>
<text text-anchor="middle" x="88" y="-119.5" font-family="Helvetica,sans-Serif" font-size="10.00">python.concept.RiemannSolver</text>
</a>
</g>
</g>
<!-- Node3&#45;&gt;Node2 -->
<g id="edge2" class="edge">
<title>Node3&#45;&gt;Node2</title>
<path fill="none" stroke="midnightblue" d="M88,-101.8C88,-92.91 88,-82.78 88,-75.75"/>
<polygon fill="midnightblue" stroke="midnightblue" points="84.5,-102.08 88,-112.08 91.5,-102.08 84.5,-102.08"/>
</g>
<!-- Node4 -->
<g id="node4" class="node">
<title>Node4</title>
<g id="a_node4"><a xlink:title=" ">
<polygon fill="white" stroke="#bfbfbf" points="59.5,-168.5 59.5,-187.5 116.5,-187.5 116.5,-168.5 59.5,-168.5"/>
<text text-anchor="middle" x="88" y="-175.5" font-family="Helvetica,sans-Serif" font-size="10.00">abc.ABC</text>
</a>
</g>
</g>
<!-- Node4&#45;&gt;Node3 -->
<g id="edge3" class="edge">
<title>Node4&#45;&gt;Node3</title>
<path fill="none" stroke="midnightblue" d="M88,-157.8C88,-148.91 88,-138.78 88,-131.75"/>
<polygon fill="midnightblue" stroke="midnightblue" points="84.5,-158.08 88,-168.08 91.5,-158.08 84.5,-158.08"/>
</g>
</g>
</svg>
