<?xml version="1.0" encoding="UTF-8" standalone="no"?>
<!DOCTYPE svg PUBLIC "-//W3C//DTD SVG 1.1//EN"
 "http://www.w3.org/Graphics/SVG/1.1/DTD/svg11.dtd">
<!-- Generated by graphviz version 2.43.0 (0)
 -->
<!-- Title: python.detector.ZhuJun2021 Pages: 1 -->
<svg width="164pt" height="207pt"
 viewBox="0.00 0.00 164.00 207.00" xmlns="http://www.w3.org/2000/svg" xmlns:xlink="http://www.w3.org/1999/xlink">
<g id="graph0" class="graph" transform="scale(1 1) rotate(0) translate(4 203)">
<title>python.detector.ZhuJun2021</title>
<polygon fill="white" stroke="transparent" points="-4,4 -4,-203 160,-203 160,4 -4,4"/>
<!-- Node1 -->
<g id="node1" class="node">
<title>Node1</title>
<g id="a_node1"><a xlink:title="A jump detector for high&#45;order DG schemes.">
<polygon fill="#bfbfbf" stroke="black" points="1,-0.5 1,-19.5 155,-19.5 155,-0.5 1,-0.5"/>
<text text-anchor="middle" x="78" y="-7.5" font-family="Helvetica,sans-Serif" font-size="10.00">python.detector.ZhuJun2021</text>
</a>
</g>
</g>
<!-- Node2 -->
<g id="node2" class="node">
<title>Node2</title>
<g id="a_node2"><a xlink:href="classpython_1_1detector_1_1SmoothnessBased.html" target="_top" xlink:title=" ">
<polygon fill="white" stroke="black" points="0,-56.5 0,-86.5 156,-86.5 156,-56.5 0,-56.5"/>
<text text-anchor="start" x="8" y="-74.5" font-family="Helvetica,sans-Serif" font-size="10.00">python.detector.Smoothness</text>
<text text-anchor="middle" x="78" y="-63.5" font-family="Helvetica,sans-Serif" font-size="10.00">Based</text>
</a>
</g>
</g>
<!-- Node2&#45;&gt;Node1 -->
<g id="edge1" class="edge">
<title>Node2&#45;&gt;Node1</title>
<path fill="none" stroke="midnightblue" d="M78,-46.29C78,-36.86 78,-26.65 78,-19.66"/>
<polygon fill="midnightblue" stroke="midnightblue" points="74.5,-46.4 78,-56.4 81.5,-46.4 74.5,-46.4"/>
</g>
<!-- Node3 -->
<g id="node3" class="node">
<title>Node3</title>
<g id="a_node3"><a xlink:href="classpython_1_1concept_1_1Detector.html" target="_top" xlink:title="An object that detects jumps on an element.">
<polygon fill="white" stroke="black" points="9.5,-123.5 9.5,-142.5 146.5,-142.5 146.5,-123.5 9.5,-123.5"/>
<text text-anchor="middle" x="78" y="-130.5" font-family="Helvetica,sans-Serif" font-size="10.00">python.concept.Detector</text>
</a>
</g>
</g>
<!-- Node3&#45;&gt;Node2 -->
<g id="edge2" class="edge">
<title>Node3&#45;&gt;Node2</title>
<path fill="none" stroke="midnightblue" d="M78,-113.23C78,-104.59 78,-94.5 78,-86.52"/>
<polygon fill="midnightblue" stroke="midnightblue" points="74.5,-113.48 78,-123.48 81.5,-113.48 74.5,-113.48"/>
</g>
<!-- Node4 -->
<g id="node4" class="node">
<title>Node4</title>
<g id="a_node4"><a xlink:title=" ">
<polygon fill="white" stroke="#bfbfbf" points="49.5,-179.5 49.5,-198.5 106.5,-198.5 106.5,-179.5 49.5,-179.5"/>
<text text-anchor="middle" x="78" y="-186.5" font-family="Helvetica,sans-Serif" font-size="10.00">abc.ABC</text>
</a>
</g>
</g>
<!-- Node4&#45;&gt;Node3 -->
<g id="edge3" class="edge">
<title>Node4&#45;&gt;Node3</title>
<path fill="none" stroke="midnightblue" d="M78,-168.8C78,-159.91 78,-149.78 78,-142.75"/>
<polygon fill="midnightblue" stroke="midnightblue" points="74.5,-169.08 78,-179.08 81.5,-169.08 74.5,-169.08"/>
</g>
</g>
</svg>
