<?xml version="1.0" encoding="UTF-8" standalone="no"?>
<!DOCTYPE svg PUBLIC "-//W3C//DTD SVG 1.1//EN"
 "http://www.w3.org/Graphics/SVG/1.1/DTD/svg11.dtd">
<!-- Generated by graphviz version 2.43.0 (0)
 -->
<!-- Title: mini::coordinate::Pyramid5&lt; Scalar &gt; Pages: 1 -->
<svg width="157pt" height="240pt"
 viewBox="0.00 0.00 157.00 240.00" xmlns="http://www.w3.org/2000/svg" xmlns:xlink="http://www.w3.org/1999/xlink">
<g id="graph0" class="graph" transform="scale(1 1) rotate(0) translate(4 236)">
<title>mini::coordinate::Pyramid5&lt; Scalar &gt;</title>
<polygon fill="white" stroke="transparent" points="-4,4 -4,-236 153,-236 153,4 -4,4"/>
<!-- Node1 -->
<g id="node1" class="node">
<title>Node1</title>
<g id="a_node1"><a xlink:title="Coordinate map on 5&#45;node pyramidal elements.">
<polygon fill="#bfbfbf" stroke="black" points="0,-0.5 0,-30.5 149,-30.5 149,-0.5 0,-0.5"/>
<text text-anchor="start" x="8" y="-18.5" font-family="Helvetica,sans-Serif" font-size="10.00">mini::coordinate::Pyramid5</text>
<text text-anchor="middle" x="74.5" y="-7.5" font-family="Helvetica,sans-Serif" font-size="10.00">&lt; Scalar &gt;</text>
</a>
</g>
</g>
<!-- Node2 -->
<g id="node2" class="node">
<title>Node2</title>
<g id="a_node2"><a xlink:href="classmini_1_1coordinate_1_1Pyramid.html" target="_top" xlink:title="Abstract coordinate map on pyramidal elements.">
<polygon fill="white" stroke="black" points="3,-67.5 3,-97.5 146,-97.5 146,-67.5 3,-67.5"/>
<text text-anchor="start" x="11" y="-85.5" font-family="Helvetica,sans-Serif" font-size="10.00">mini::coordinate::Pyramid</text>
<text text-anchor="middle" x="74.5" y="-74.5" font-family="Helvetica,sans-Serif" font-size="10.00">&lt; Scalar &gt;</text>
</a>
</g>
</g>
<!-- Node2&#45;&gt;Node1 -->
<g id="edge1" class="edge">
<title>Node2&#45;&gt;Node1</title>
<path fill="none" stroke="midnightblue" d="M74.5,-57.11C74.5,-48.15 74.5,-38.32 74.5,-30.58"/>
<polygon fill="midnightblue" stroke="midnightblue" points="71,-57.4 74.5,-67.4 78,-57.4 71,-57.4"/>
</g>
<!-- Node3 -->
<g id="node3" class="node">
<title>Node3</title>
<g id="a_node3"><a xlink:href="classmini_1_1coordinate_1_1Cell.html" target="_top" xlink:title="Abstract coordinate map on volume elements.">
<polygon fill="white" stroke="black" points="14,-134.5 14,-164.5 135,-164.5 135,-134.5 14,-134.5"/>
<text text-anchor="start" x="22" y="-152.5" font-family="Helvetica,sans-Serif" font-size="10.00">mini::coordinate::Cell</text>
<text text-anchor="middle" x="74.5" y="-141.5" font-family="Helvetica,sans-Serif" font-size="10.00">&lt; Scalar &gt;</text>
</a>
</g>
</g>
<!-- Node3&#45;&gt;Node2 -->
<g id="edge2" class="edge">
<title>Node3&#45;&gt;Node2</title>
<path fill="none" stroke="midnightblue" d="M74.5,-124.11C74.5,-115.15 74.5,-105.32 74.5,-97.58"/>
<polygon fill="midnightblue" stroke="midnightblue" points="71,-124.4 74.5,-134.4 78,-124.4 71,-124.4"/>
</g>
<!-- Node4 -->
<g id="node4" class="node">
<title>Node4</title>
<g id="a_node4"><a xlink:href="classmini_1_1coordinate_1_1Element.html" target="_top" xlink:title=" ">
<polygon fill="white" stroke="black" points="3,-201.5 3,-231.5 146,-231.5 146,-201.5 3,-201.5"/>
<text text-anchor="start" x="11" y="-219.5" font-family="Helvetica,sans-Serif" font-size="10.00">mini::coordinate::Element</text>
<text text-anchor="middle" x="74.5" y="-208.5" font-family="Helvetica,sans-Serif" font-size="10.00">&lt; Scalar, 3, 3 &gt;</text>
</a>
</g>
</g>
<!-- Node4&#45;&gt;Node3 -->
<g id="edge3" class="edge">
<title>Node4&#45;&gt;Node3</title>
<path fill="none" stroke="midnightblue" d="M74.5,-191.11C74.5,-182.15 74.5,-172.32 74.5,-164.58"/>
<polygon fill="midnightblue" stroke="midnightblue" points="71,-191.4 74.5,-201.4 78,-191.4 71,-191.4"/>
</g>
</g>
</svg>
