<?xml version="1.0" encoding="UTF-8" standalone="no"?>
<!DOCTYPE svg PUBLIC "-//W3C//DTD SVG 1.1//EN"
 "http://www.w3.org/Graphics/SVG/1.1/DTD/svg11.dtd">
<!-- Generated by graphviz version 2.43.0 (0)
 -->
<!-- Title: include/mini/coordinate/cell.hpp Pages: 1 -->
<svg width="1058pt" height="207pt"
 viewBox="0.00 0.00 1058.00 207.00" xmlns="http://www.w3.org/2000/svg" xmlns:xlink="http://www.w3.org/1999/xlink">
<g id="graph0" class="graph" transform="scale(1 1) rotate(0) translate(4 203)">
<title>include/mini/coordinate/cell.hpp</title>
<polygon fill="white" stroke="transparent" points="-4,4 -4,-203 1054,-203 1054,4 -4,4"/>
<!-- Node1 -->
<g id="node1" class="node">
<title>Node1</title>
<g id="a_node1"><a xlink:title=" ">
<polygon fill="#bfbfbf" stroke="black" points="214.5,-168.5 214.5,-198.5 345.5,-198.5 345.5,-168.5 214.5,-168.5"/>
<text text-anchor="start" x="222.5" y="-186.5" font-family="Helvetica,sans-Serif" font-size="10.00">include/mini/coordinate</text>
<text text-anchor="middle" x="280" y="-175.5" font-family="Helvetica,sans-Serif" font-size="10.00">/cell.hpp</text>
</a>
</g>
</g>
<!-- Node2 -->
<g id="node2" class="node">
<title>Node2</title>
<g id="a_node2"><a xlink:title=" ">
<polygon fill="white" stroke="#bfbfbf" points="0,-56.5 0,-75.5 60,-75.5 60,-56.5 0,-56.5"/>
<text text-anchor="middle" x="30" y="-63.5" font-family="Helvetica,sans-Serif" font-size="10.00">concepts</text>
</a>
</g>
</g>
<!-- Node1&#45;&gt;Node2 -->
<g id="edge1" class="edge">
<title>Node1&#45;&gt;Node2</title>
<path fill="none" stroke="midnightblue" d="M214.21,-178.53C171.08,-173.17 115.25,-160.71 74,-132 57.1,-120.24 44.82,-99.71 37.59,-84.87"/>
<polygon fill="midnightblue" stroke="midnightblue" points="40.74,-83.32 33.4,-75.67 34.37,-86.23 40.74,-83.32"/>
</g>
<!-- Node3 -->
<g id="node3" class="node">
<title>Node3</title>
<g id="a_node3"><a xlink:title=" ">
<polygon fill="white" stroke="#bfbfbf" points="805,-0.5 805,-19.5 869,-19.5 869,-0.5 805,-0.5"/>
<text text-anchor="middle" x="837" y="-7.5" font-family="Helvetica,sans-Serif" font-size="10.00">algorithm</text>
</a>
</g>
</g>
<!-- Node1&#45;&gt;Node3 -->
<g id="edge2" class="edge">
<title>Node1&#45;&gt;Node3</title>
<path fill="none" stroke="midnightblue" d="M345.77,-182.28C498.18,-180.24 868.34,-165.92 945,-76 968.1,-48.9 918.21,-29.99 878.78,-19.81"/>
<polygon fill="midnightblue" stroke="midnightblue" points="879.57,-16.4 869.03,-17.41 877.9,-23.2 879.57,-16.4"/>
</g>
<!-- Node4 -->
<g id="node4" class="node">
<title>Node4</title>
<g id="a_node4"><a xlink:title=" ">
<polygon fill="white" stroke="#bfbfbf" points="992,-112.5 992,-131.5 1050,-131.5 1050,-112.5 992,-112.5"/>
<text text-anchor="middle" x="1021" y="-119.5" font-family="Helvetica,sans-Serif" font-size="10.00">memory</text>
</a>
</g>
</g>
<!-- Node1&#45;&gt;Node4 -->
<g id="edge3" class="edge">
<title>Node1&#45;&gt;Node4</title>
<path fill="none" stroke="midnightblue" d="M345.75,-180.68C469.87,-176.6 746.98,-164.38 978,-132 979.27,-131.82 980.57,-131.63 981.87,-131.42"/>
<polygon fill="midnightblue" stroke="midnightblue" points="982.71,-134.83 991.95,-129.63 981.49,-127.93 982.71,-134.83"/>
</g>
<!-- Node5 -->
<g id="node5" class="node">
<title>Node5</title>
<g id="a_node5"><a xlink:title=" ">
<polygon fill="white" stroke="#bfbfbf" points="193.5,-0.5 193.5,-19.5 262.5,-19.5 262.5,-0.5 193.5,-0.5"/>
<text text-anchor="middle" x="228" y="-7.5" font-family="Helvetica,sans-Serif" font-size="10.00">type_traits</text>
</a>
</g>
</g>
<!-- Node1&#45;&gt;Node5 -->
<g id="edge4" class="edge">
<title>Node1&#45;&gt;Node5</title>
<path fill="none" stroke="midnightblue" d="M260.13,-168.26C236.53,-150 198.44,-115.88 183,-76 179.79,-67.71 179.6,-64.21 183,-56 187.92,-44.12 197.67,-33.74 206.83,-25.96"/>
<polygon fill="midnightblue" stroke="midnightblue" points="209.25,-28.51 214.94,-19.56 204.92,-23.01 209.25,-28.51"/>
</g>
<!-- Node6 -->
<g id="node6" class="node">
<title>Node6</title>
<g id="a_node6"><a xlink:title=" ">
<polygon fill="white" stroke="#bfbfbf" points="102.5,-0.5 102.5,-19.5 149.5,-19.5 149.5,-0.5 102.5,-0.5"/>
<text text-anchor="middle" x="126" y="-7.5" font-family="Helvetica,sans-Serif" font-size="10.00">vector</text>
</a>
</g>
</g>
<!-- Node1&#45;&gt;Node6 -->
<g id="edge5" class="edge">
<title>Node1&#45;&gt;Node6</title>
<path fill="none" stroke="midnightblue" d="M252.83,-168.45C236.55,-159.3 215.98,-146.41 200,-132 176.5,-110.8 172.52,-103 156,-76 146.79,-60.94 138.56,-42.59 133.06,-29.22"/>
<polygon fill="midnightblue" stroke="midnightblue" points="136.24,-27.73 129.27,-19.74 129.73,-30.32 136.24,-27.73"/>
</g>
<!-- Node7 -->
<g id="node7" class="node">
<title>Node7</title>
<g id="a_node7"><a xlink:href="coordinate_2element_8hpp.html" target="_top" xlink:title=" ">
<polygon fill="white" stroke="black" points="317,-112.5 317,-131.5 475,-131.5 475,-112.5 317,-112.5"/>
<text text-anchor="middle" x="396" y="-119.5" font-family="Helvetica,sans-Serif" font-size="10.00">mini/coordinate/element.hpp</text>
</a>
</g>
</g>
<!-- Node1&#45;&gt;Node7 -->
<g id="edge6" class="edge">
<title>Node1&#45;&gt;Node7</title>
<path fill="none" stroke="midnightblue" d="M307.49,-168.4C326.43,-158.68 351.44,-145.86 370.04,-136.31"/>
<polygon fill="midnightblue" stroke="midnightblue" points="371.82,-139.34 379.12,-131.66 368.63,-133.11 371.82,-139.34"/>
</g>
<!-- Node7&#45;&gt;Node2 -->
<g id="edge7" class="edge">
<title>Node7&#45;&gt;Node2</title>
<path fill="none" stroke="midnightblue" d="M338.01,-112.44C263.35,-101.43 135.52,-82.57 70.52,-72.98"/>
<polygon fill="midnightblue" stroke="midnightblue" points="70.68,-69.46 60.27,-71.47 69.65,-76.39 70.68,-69.46"/>
</g>
<!-- Node7&#45;&gt;Node6 -->
<g id="edge13" class="edge">
<title>Node7&#45;&gt;Node6</title>
<path fill="none" stroke="midnightblue" d="M316.77,-116.33C274.69,-110.97 223.45,-99.67 183,-76 163.24,-64.43 146.78,-43.56 136.72,-28.59"/>
<polygon fill="midnightblue" stroke="midnightblue" points="139.4,-26.29 131.05,-19.76 133.5,-30.07 139.4,-26.29"/>
</g>
<!-- Node8 -->
<g id="node8" class="node">
<title>Node8</title>
<g id="a_node8"><a xlink:title=" ">
<polygon fill="white" stroke="#bfbfbf" points="370,-56.5 370,-75.5 422,-75.5 422,-56.5 370,-56.5"/>
<text text-anchor="middle" x="396" y="-63.5" font-family="Helvetica,sans-Serif" font-size="10.00">cassert</text>
</a>
</g>
</g>
<!-- Node7&#45;&gt;Node8 -->
<g id="edge8" class="edge">
<title>Node7&#45;&gt;Node8</title>
<path fill="none" stroke="midnightblue" d="M396,-112.08C396,-105.01 396,-94.86 396,-85.99"/>
<polygon fill="midnightblue" stroke="midnightblue" points="399.5,-85.75 396,-75.75 392.5,-85.75 399.5,-85.75"/>
</g>
<!-- Node9 -->
<g id="node9" class="node">
<title>Node9</title>
<g id="a_node9"><a xlink:title=" ">
<polygon fill="white" stroke="#bfbfbf" points="433.5,-0.5 433.5,-19.5 480.5,-19.5 480.5,-0.5 433.5,-0.5"/>
<text text-anchor="middle" x="457" y="-7.5" font-family="Helvetica,sans-Serif" font-size="10.00">cmath</text>
</a>
</g>
</g>
<!-- Node7&#45;&gt;Node9 -->
<g id="edge9" class="edge">
<title>Node7&#45;&gt;Node9</title>
<path fill="none" stroke="midnightblue" d="M404.04,-112.23C411.71,-103.53 423.22,-89.56 431,-76 439.59,-61.03 446.65,-42.66 451.24,-29.27"/>
<polygon fill="midnightblue" stroke="midnightblue" points="454.56,-30.36 454.36,-19.77 447.91,-28.17 454.56,-30.36"/>
</g>
<!-- Node10 -->
<g id="node10" class="node">
<title>Node10</title>
<g id="a_node10"><a xlink:title=" ">
<polygon fill="white" stroke="#bfbfbf" points="626,-56.5 626,-75.5 682,-75.5 682,-56.5 626,-56.5"/>
<text text-anchor="middle" x="654" y="-63.5" font-family="Helvetica,sans-Serif" font-size="10.00">numeric</text>
</a>
</g>
</g>
<!-- Node7&#45;&gt;Node10 -->
<g id="edge10" class="edge">
<title>Node7&#45;&gt;Node10</title>
<path fill="none" stroke="midnightblue" d="M439.91,-112.43C484.38,-103.66 555.09,-89.44 616,-76 616.1,-75.98 616.2,-75.96 616.3,-75.93"/>
<polygon fill="midnightblue" stroke="midnightblue" points="616.82,-79.4 625.8,-73.78 615.27,-72.58 616.82,-79.4"/>
</g>
<!-- Node11 -->
<g id="node11" class="node">
<title>Node11</title>
<g id="a_node11"><a xlink:title=" ">
<polygon fill="white" stroke="#bfbfbf" points="700.5,-56.5 700.5,-75.5 783.5,-75.5 783.5,-56.5 700.5,-56.5"/>
<text text-anchor="middle" x="742" y="-63.5" font-family="Helvetica,sans-Serif" font-size="10.00">initializer_list</text>
</a>
</g>
</g>
<!-- Node7&#45;&gt;Node11 -->
<g id="edge11" class="edge">
<title>Node7&#45;&gt;Node11</title>
<path fill="none" stroke="midnightblue" d="M454.55,-112.48C511.97,-104.03 602.26,-90.5 690.37,-76.07"/>
<polygon fill="midnightblue" stroke="midnightblue" points="690.96,-79.52 700.26,-74.45 689.83,-72.61 690.96,-79.52"/>
</g>
<!-- Node12 -->
<g id="node12" class="node">
<title>Node12</title>
<g id="a_node12"><a xlink:title=" ">
<polygon fill="white" stroke="#bfbfbf" points="309,-0.5 309,-19.5 369,-19.5 369,-0.5 309,-0.5"/>
<text text-anchor="middle" x="339" y="-7.5" font-family="Helvetica,sans-Serif" font-size="10.00">iostream</text>
</a>
</g>
</g>
<!-- Node7&#45;&gt;Node12 -->
<g id="edge12" class="edge">
<title>Node7&#45;&gt;Node12</title>
<path fill="none" stroke="midnightblue" d="M387.8,-112.32C380.01,-103.68 368.41,-89.77 361,-76 353.06,-61.25 347.21,-43.09 343.54,-29.72"/>
<polygon fill="midnightblue" stroke="midnightblue" points="346.87,-28.6 340.98,-19.79 340.09,-30.35 346.87,-28.6"/>
</g>
<!-- Node13 -->
<g id="node13" class="node">
<title>Node13</title>
<g id="a_node13"><a xlink:href="algebra_2eigen_8hpp.html" target="_top" xlink:title=" ">
<polygon fill="white" stroke="black" points="478.5,-56.5 478.5,-75.5 607.5,-75.5 607.5,-56.5 478.5,-56.5"/>
<text text-anchor="middle" x="543" y="-63.5" font-family="Helvetica,sans-Serif" font-size="10.00">mini/algebra/eigen.hpp</text>
</a>
</g>
</g>
<!-- Node7&#45;&gt;Node13 -->
<g id="edge14" class="edge">
<title>Node7&#45;&gt;Node13</title>
<path fill="none" stroke="midnightblue" d="M419.29,-112.44C443.81,-103.44 482.6,-89.19 510.2,-79.05"/>
<polygon fill="midnightblue" stroke="midnightblue" points="511.64,-82.25 519.82,-75.52 509.22,-75.68 511.64,-82.25"/>
</g>
<!-- Node16 -->
<g id="node16" class="node">
<title>Node16</title>
<g id="a_node16"><a xlink:href="root_8hpp.html" target="_top" xlink:title=" ">
<polygon fill="white" stroke="black" points="192,-56.5 192,-75.5 314,-75.5 314,-56.5 192,-56.5"/>
<text text-anchor="middle" x="253" y="-63.5" font-family="Helvetica,sans-Serif" font-size="10.00">mini/algebra/root.hpp</text>
</a>
</g>
</g>
<!-- Node7&#45;&gt;Node16 -->
<g id="edge19" class="edge">
<title>Node7&#45;&gt;Node16</title>
<path fill="none" stroke="midnightblue" d="M373.34,-112.44C349.6,-103.48 312.09,-89.31 285.26,-79.18"/>
<polygon fill="midnightblue" stroke="midnightblue" points="286.14,-75.77 275.55,-75.52 283.67,-82.32 286.14,-75.77"/>
</g>
<!-- Node17 -->
<g id="node17" class="node">
<title>Node17</title>
<g id="a_node17"><a xlink:href="index_8hpp.html" target="_top" xlink:title=" ">
<polygon fill="white" stroke="black" points="802,-56.5 802,-75.5 936,-75.5 936,-56.5 802,-56.5"/>
<text text-anchor="middle" x="869" y="-63.5" font-family="Helvetica,sans-Serif" font-size="10.00">mini/constant/index.hpp</text>
</a>
</g>
</g>
<!-- Node7&#45;&gt;Node17 -->
<g id="edge23" class="edge">
<title>Node7&#45;&gt;Node17</title>
<path fill="none" stroke="midnightblue" d="M471.56,-112.49C549.07,-103.74 673.44,-89.65 791.84,-76.02"/>
<polygon fill="midnightblue" stroke="midnightblue" points="792.28,-79.49 801.81,-74.87 791.47,-72.53 792.28,-79.49"/>
</g>
<!-- Node13&#45;&gt;Node3 -->
<g id="edge15" class="edge">
<title>Node13&#45;&gt;Node3</title>
<path fill="none" stroke="midnightblue" d="M589.59,-56.44C646.02,-46.08 740.27,-28.77 794.7,-18.77"/>
<polygon fill="midnightblue" stroke="midnightblue" points="795.51,-22.18 804.71,-16.93 794.24,-15.29 795.51,-22.18"/>
</g>
<!-- Node13&#45;&gt;Node9 -->
<g id="edge16" class="edge">
<title>Node13&#45;&gt;Node9</title>
<path fill="none" stroke="midnightblue" d="M529.18,-56.32C515.77,-47.9 495.18,-34.97 479.41,-25.07"/>
<polygon fill="midnightblue" stroke="midnightblue" points="481.11,-22.01 470.78,-19.65 477.39,-27.94 481.11,-22.01"/>
</g>
<!-- Node14 -->
<g id="node14" class="node">
<title>Node14</title>
<g id="a_node14"><a xlink:title=" ">
<polygon fill="white" stroke="#bfbfbf" points="511.5,-0.5 511.5,-19.5 560.5,-19.5 560.5,-0.5 511.5,-0.5"/>
<text text-anchor="middle" x="536" y="-7.5" font-family="Helvetica,sans-Serif" font-size="10.00">cstdlib</text>
</a>
</g>
</g>
<!-- Node13&#45;&gt;Node14 -->
<g id="edge17" class="edge">
<title>Node13&#45;&gt;Node14</title>
<path fill="none" stroke="midnightblue" d="M541.84,-56.08C540.92,-48.93 539.58,-38.64 538.42,-29.69"/>
<polygon fill="midnightblue" stroke="midnightblue" points="541.89,-29.22 537.13,-19.75 534.95,-30.12 541.89,-29.22"/>
</g>
<!-- Node15 -->
<g id="node15" class="node">
<title>Node15</title>
<g id="a_node15"><a xlink:title=" ">
<polygon fill="white" stroke="#bfbfbf" points="579,-0.5 579,-19.5 653,-19.5 653,-0.5 579,-0.5"/>
<text text-anchor="middle" x="616" y="-7.5" font-family="Helvetica,sans-Serif" font-size="10.00">Eigen/Eigen</text>
</a>
</g>
</g>
<!-- Node13&#45;&gt;Node15 -->
<g id="edge18" class="edge">
<title>Node13&#45;&gt;Node15</title>
<path fill="none" stroke="midnightblue" d="M554.73,-56.32C565.84,-48.11 582.74,-35.6 595.98,-25.81"/>
<polygon fill="midnightblue" stroke="midnightblue" points="598.1,-28.59 604.06,-19.83 593.94,-22.97 598.1,-28.59"/>
</g>
<!-- Node16&#45;&gt;Node5 -->
<g id="edge22" class="edge">
<title>Node16&#45;&gt;Node5</title>
<path fill="none" stroke="midnightblue" d="M248.87,-56.08C245.49,-48.77 240.58,-38.18 236.38,-29.1"/>
<polygon fill="midnightblue" stroke="midnightblue" points="239.43,-27.36 232.05,-19.75 233.08,-30.3 239.43,-27.36"/>
</g>
<!-- Node16&#45;&gt;Node6 -->
<g id="edge20" class="edge">
<title>Node16&#45;&gt;Node6</title>
<path fill="none" stroke="midnightblue" d="M232.88,-56.44C211.98,-47.56 179.07,-33.56 155.28,-23.45"/>
<polygon fill="midnightblue" stroke="midnightblue" points="156.6,-20.21 146.03,-19.52 153.86,-26.65 156.6,-20.21"/>
</g>
<!-- Node16&#45;&gt;Node12 -->
<g id="edge21" class="edge">
<title>Node16&#45;&gt;Node12</title>
<path fill="none" stroke="midnightblue" d="M266.82,-56.32C280.23,-47.9 300.82,-34.97 316.59,-25.07"/>
<polygon fill="midnightblue" stroke="midnightblue" points="318.61,-27.94 325.22,-19.65 314.89,-22.01 318.61,-27.94"/>
</g>
</g>
</svg>
