<?xml version="1.0" encoding="UTF-8" standalone="no"?>
<!DOCTYPE svg PUBLIC "-//W3C//DTD SVG 1.1//EN"
 "http://www.w3.org/Graphics/SVG/1.1/DTD/svg11.dtd">
<!-- Generated by graphviz version 2.43.0 (0)
 -->
<!-- Title: include/mini/coordinate/cell.hpp Pages: 1 -->
<svg width="1006pt" height="374pt"
 viewBox="0.00 0.00 1005.50 374.00" xmlns="http://www.w3.org/2000/svg" xmlns:xlink="http://www.w3.org/1999/xlink">
<g id="graph0" class="graph" transform="scale(1 1) rotate(0) translate(4 370)">
<title>include/mini/coordinate/cell.hpp</title>
<polygon fill="white" stroke="transparent" points="-4,4 -4,-370 1001.5,-370 1001.5,4 -4,4"/>
<!-- Node1 -->
<g id="node1" class="node">
<title>Node1</title>
<g id="a_node1"><a xlink:title=" ">
<polygon fill="#bfbfbf" stroke="black" points="478,-335.5 478,-365.5 609,-365.5 609,-335.5 478,-335.5"/>
<text text-anchor="start" x="486" y="-353.5" font-family="Helvetica,sans-Serif" font-size="10.00">include/mini/coordinate</text>
<text text-anchor="middle" x="543.5" y="-342.5" font-family="Helvetica,sans-Serif" font-size="10.00">/cell.hpp</text>
</a>
</g>
</g>
<!-- Node2 -->
<g id="node2" class="node">
<title>Node2</title>
<g id="a_node2"><a xlink:href="coordinate_2hexahedron_8hpp.html" target="_top" xlink:title=" ">
<polygon fill="white" stroke="black" points="100,-268.5 100,-298.5 231,-298.5 231,-268.5 100,-268.5"/>
<text text-anchor="start" x="108" y="-286.5" font-family="Helvetica,sans-Serif" font-size="10.00">include/mini/coordinate</text>
<text text-anchor="middle" x="165.5" y="-275.5" font-family="Helvetica,sans-Serif" font-size="10.00">/hexahedron.hpp</text>
</a>
</g>
</g>
<!-- Node1&#45;&gt;Node2 -->
<g id="edge1" class="edge">
<title>Node1&#45;&gt;Node2</title>
<path fill="none" stroke="midnightblue" d="M468.02,-337.16C407.31,-327.15 319.86,-312.52 243.5,-299 239.43,-298.28 235.24,-297.53 231.02,-296.76"/>
<polygon fill="midnightblue" stroke="midnightblue" points="467.46,-340.61 477.9,-338.79 468.6,-333.71 467.46,-340.61"/>
</g>
<!-- Node9 -->
<g id="node9" class="node">
<title>Node9</title>
<g id="a_node9"><a xlink:href="coordinate_2pyramid_8hpp.html" target="_top" xlink:title=" ">
<polygon fill="white" stroke="black" points="253,-268.5 253,-298.5 384,-298.5 384,-268.5 253,-268.5"/>
<text text-anchor="start" x="261" y="-286.5" font-family="Helvetica,sans-Serif" font-size="10.00">include/mini/coordinate</text>
<text text-anchor="middle" x="318.5" y="-275.5" font-family="Helvetica,sans-Serif" font-size="10.00">/pyramid.hpp</text>
</a>
</g>
</g>
<!-- Node1&#45;&gt;Node9 -->
<g id="edge10" class="edge">
<title>Node1&#45;&gt;Node9</title>
<path fill="none" stroke="midnightblue" d="M484.93,-332.58C448.39,-322.02 401.9,-308.59 367.35,-298.61"/>
<polygon fill="midnightblue" stroke="midnightblue" points="484.38,-336.06 494.96,-335.48 486.32,-329.34 484.38,-336.06"/>
</g>
<!-- Node11 -->
<g id="node11" class="node">
<title>Node11</title>
<g id="a_node11"><a xlink:href="coordinate_2tetrahedron_8hpp.html" target="_top" xlink:title=" ">
<polygon fill="white" stroke="black" points="552,-268.5 552,-298.5 683,-298.5 683,-268.5 552,-268.5"/>
<text text-anchor="start" x="560" y="-286.5" font-family="Helvetica,sans-Serif" font-size="10.00">include/mini/coordinate</text>
<text text-anchor="middle" x="617.5" y="-275.5" font-family="Helvetica,sans-Serif" font-size="10.00">/tetrahedron.hpp</text>
</a>
</g>
</g>
<!-- Node1&#45;&gt;Node11 -->
<g id="edge12" class="edge">
<title>Node1&#45;&gt;Node11</title>
<path fill="none" stroke="midnightblue" d="M567.3,-328.6C578.47,-318.78 591.49,-307.34 601.47,-298.58"/>
<polygon fill="midnightblue" stroke="midnightblue" points="564.76,-326.17 559.56,-335.4 569.38,-331.43 564.76,-326.17"/>
</g>
<!-- Node13 -->
<g id="node13" class="node">
<title>Node13</title>
<g id="a_node13"><a xlink:href="coordinate_2wedge_8hpp.html" target="_top" xlink:title=" ">
<polygon fill="white" stroke="black" points="701,-268.5 701,-298.5 832,-298.5 832,-268.5 701,-268.5"/>
<text text-anchor="start" x="709" y="-286.5" font-family="Helvetica,sans-Serif" font-size="10.00">include/mini/coordinate</text>
<text text-anchor="middle" x="766.5" y="-275.5" font-family="Helvetica,sans-Serif" font-size="10.00">/wedge.hpp</text>
</a>
</g>
</g>
<!-- Node1&#45;&gt;Node13 -->
<g id="edge14" class="edge">
<title>Node1&#45;&gt;Node13</title>
<path fill="none" stroke="midnightblue" d="M601.55,-332.58C637.77,-322.02 683.85,-308.59 718.09,-298.61"/>
<polygon fill="midnightblue" stroke="midnightblue" points="600.23,-329.32 591.61,-335.48 602.19,-336.04 600.23,-329.32"/>
</g>
<!-- Node15 -->
<g id="node15" class="node">
<title>Node15</title>
<g id="a_node15"><a xlink:href="integrator_2cell_8hpp.html" target="_top" xlink:title=" ">
<polygon fill="white" stroke="black" points="405.5,-268.5 405.5,-298.5 533.5,-298.5 533.5,-268.5 405.5,-268.5"/>
<text text-anchor="start" x="413.5" y="-286.5" font-family="Helvetica,sans-Serif" font-size="10.00">include/mini/integrator</text>
<text text-anchor="middle" x="469.5" y="-275.5" font-family="Helvetica,sans-Serif" font-size="10.00">/cell.hpp</text>
</a>
</g>
</g>
<!-- Node1&#45;&gt;Node15 -->
<g id="edge16" class="edge">
<title>Node1&#45;&gt;Node15</title>
<path fill="none" stroke="midnightblue" d="M519.7,-328.6C508.53,-318.78 495.51,-307.34 485.53,-298.58"/>
<polygon fill="midnightblue" stroke="midnightblue" points="517.62,-331.43 527.44,-335.4 522.24,-326.17 517.62,-331.43"/>
</g>
<!-- Node19 -->
<g id="node19" class="node">
<title>Node19</title>
<g id="a_node19"><a xlink:href="part_8hpp.html" target="_top" xlink:title=" ">
<polygon fill="white" stroke="black" points="847.5,-207 847.5,-226 997.5,-226 997.5,-207 847.5,-207"/>
<text text-anchor="middle" x="922.5" y="-214" font-family="Helvetica,sans-Serif" font-size="10.00">include/mini/mesh/part.hpp</text>
</a>
</g>
</g>
<!-- Node1&#45;&gt;Node19 -->
<g id="edge26" class="edge">
<title>Node1&#45;&gt;Node19</title>
<path fill="none" stroke="midnightblue" d="M619.24,-349.29C682,-346.25 771.88,-335.08 841.5,-299 876.04,-281.1 904.96,-243.18 916.78,-226.13"/>
<polygon fill="midnightblue" stroke="midnightblue" points="618.86,-345.8 609.01,-349.73 619.15,-352.8 618.86,-345.8"/>
</g>
<!-- Node3 -->
<g id="node3" class="node">
<title>Node3</title>
<g id="a_node3"><a xlink:href="integrator_2hexahedron_8hpp.html" target="_top" xlink:title=" ">
<polygon fill="white" stroke="black" points="101.5,-201.5 101.5,-231.5 229.5,-231.5 229.5,-201.5 101.5,-201.5"/>
<text text-anchor="start" x="109.5" y="-219.5" font-family="Helvetica,sans-Serif" font-size="10.00">include/mini/integrator</text>
<text text-anchor="middle" x="165.5" y="-208.5" font-family="Helvetica,sans-Serif" font-size="10.00">/hexahedron.hpp</text>
</a>
</g>
</g>
<!-- Node2&#45;&gt;Node3 -->
<g id="edge2" class="edge">
<title>Node2&#45;&gt;Node3</title>
<path fill="none" stroke="midnightblue" d="M165.5,-258.11C165.5,-249.15 165.5,-239.32 165.5,-231.58"/>
<polygon fill="midnightblue" stroke="midnightblue" points="162,-258.4 165.5,-268.4 169,-258.4 162,-258.4"/>
</g>
<!-- Node4 -->
<g id="node4" class="node">
<title>Node4</title>
<g id="a_node4"><a xlink:href="quality_8hpp.html" target="_top" xlink:title=" ">
<polygon fill="white" stroke="black" points="0,-140 0,-159 163,-159 163,-140 0,-140"/>
<text text-anchor="middle" x="81.5" y="-147" font-family="Helvetica,sans-Serif" font-size="10.00">include/mini/mesh/quality.hpp</text>
</a>
</g>
</g>
<!-- Node2&#45;&gt;Node4 -->
<g id="edge9" class="edge">
<title>Node2&#45;&gt;Node4</title>
<path fill="none" stroke="midnightblue" d="M125.54,-263.33C113.02,-255.36 100.42,-244.92 92.5,-232 78.25,-208.75 79.14,-174.83 80.51,-159.1"/>
<polygon fill="midnightblue" stroke="midnightblue" points="123.76,-266.34 134.14,-268.44 127.34,-260.32 123.76,-266.34"/>
</g>
<!-- Node3&#45;&gt;Node4 -->
<g id="edge3" class="edge">
<title>Node3&#45;&gt;Node4</title>
<path fill="none" stroke="midnightblue" d="M139.02,-195.01C123.42,-182.94 104.51,-168.3 92.74,-159.19"/>
<polygon fill="midnightblue" stroke="midnightblue" points="137.22,-198.04 147.27,-201.4 141.51,-192.51 137.22,-198.04"/>
</g>
<!-- Node5 -->
<g id="node5" class="node">
<title>Node5</title>
<g id="a_node5"><a xlink:href="polynomial_2hexahedron_8hpp.html" target="_top" xlink:title=" ">
<polygon fill="white" stroke="black" points="185.5,-134.5 185.5,-164.5 319.5,-164.5 319.5,-134.5 185.5,-134.5"/>
<text text-anchor="start" x="193.5" y="-152.5" font-family="Helvetica,sans-Serif" font-size="10.00">include/mini/polynomial</text>
<text text-anchor="middle" x="252.5" y="-141.5" font-family="Helvetica,sans-Serif" font-size="10.00">/hexahedron.hpp</text>
</a>
</g>
</g>
<!-- Node3&#45;&gt;Node5 -->
<g id="edge4" class="edge">
<title>Node3&#45;&gt;Node5</title>
<path fill="none" stroke="midnightblue" d="M192.71,-195.17C206.02,-185.23 221.7,-173.51 233.66,-164.58"/>
<polygon fill="midnightblue" stroke="midnightblue" points="190.29,-192.61 184.38,-201.4 194.48,-198.21 190.29,-192.61"/>
</g>
<!-- Node6 -->
<g id="node6" class="node">
<title>Node6</title>
<g id="a_node6"><a xlink:href="spatial_2dg_2lobatto_8hpp.html" target="_top" xlink:title=" ">
<polygon fill="white" stroke="black" points="111,-67.5 111,-97.5 224,-97.5 224,-67.5 111,-67.5"/>
<text text-anchor="start" x="119" y="-85.5" font-family="Helvetica,sans-Serif" font-size="10.00">include/mini/spatial</text>
<text text-anchor="middle" x="167.5" y="-74.5" font-family="Helvetica,sans-Serif" font-size="10.00">/dg/lobatto.hpp</text>
</a>
</g>
</g>
<!-- Node5&#45;&gt;Node6 -->
<g id="edge5" class="edge">
<title>Node5&#45;&gt;Node6</title>
<path fill="none" stroke="midnightblue" d="M225.91,-128.17C212.91,-118.23 197.6,-106.51 185.91,-97.58"/>
<polygon fill="midnightblue" stroke="midnightblue" points="223.99,-131.1 234.06,-134.4 228.24,-125.54 223.99,-131.1"/>
</g>
<!-- Node7 -->
<g id="node7" class="node">
<title>Node7</title>
<g id="a_node7"><a xlink:href="fr_2general_8hpp.html" target="_top" xlink:title=" ">
<polygon fill="white" stroke="black" points="281,-67.5 281,-97.5 394,-97.5 394,-67.5 281,-67.5"/>
<text text-anchor="start" x="289" y="-85.5" font-family="Helvetica,sans-Serif" font-size="10.00">include/mini/spatial</text>
<text text-anchor="middle" x="337.5" y="-74.5" font-family="Helvetica,sans-Serif" font-size="10.00">/fr/general.hpp</text>
</a>
</g>
</g>
<!-- Node5&#45;&gt;Node7 -->
<g id="edge6" class="edge">
<title>Node5&#45;&gt;Node7</title>
<path fill="none" stroke="midnightblue" d="M279.09,-128.17C292.09,-118.23 307.4,-106.51 319.09,-97.58"/>
<polygon fill="midnightblue" stroke="midnightblue" points="276.76,-125.54 270.94,-134.4 281.01,-131.1 276.76,-125.54"/>
</g>
<!-- Node8 -->
<g id="node8" class="node">
<title>Node8</title>
<g id="a_node8"><a xlink:href="spatial_2fr_2lobatto_8hpp.html" target="_top" xlink:title=" ">
<polygon fill="white" stroke="black" points="238,-0.5 238,-30.5 351,-30.5 351,-0.5 238,-0.5"/>
<text text-anchor="start" x="246" y="-18.5" font-family="Helvetica,sans-Serif" font-size="10.00">include/mini/spatial</text>
<text text-anchor="middle" x="294.5" y="-7.5" font-family="Helvetica,sans-Serif" font-size="10.00">/fr/lobatto.hpp</text>
</a>
</g>
</g>
<!-- Node5&#45;&gt;Node8 -->
<g id="edge8" class="edge">
<title>Node5&#45;&gt;Node8</title>
<path fill="none" stroke="midnightblue" d="M256.78,-124.55C260.03,-108.12 265.05,-85.95 271.5,-67 275.79,-54.41 282.13,-40.72 287.08,-30.78"/>
<polygon fill="midnightblue" stroke="midnightblue" points="253.34,-123.94 254.9,-134.42 260.21,-125.25 253.34,-123.94"/>
</g>
<!-- Node7&#45;&gt;Node8 -->
<g id="edge7" class="edge">
<title>Node7&#45;&gt;Node8</title>
<path fill="none" stroke="midnightblue" d="M322.53,-58.87C316.3,-49.46 309.27,-38.83 303.81,-30.58"/>
<polygon fill="midnightblue" stroke="midnightblue" points="319.73,-60.99 328.17,-67.4 325.57,-57.12 319.73,-60.99"/>
</g>
<!-- Node10 -->
<g id="node10" class="node">
<title>Node10</title>
<g id="a_node10"><a xlink:href="integrator_2pyramid_8hpp.html" target="_top" xlink:title=" ">
<polygon fill="white" stroke="black" points="247.5,-201.5 247.5,-231.5 375.5,-231.5 375.5,-201.5 247.5,-201.5"/>
<text text-anchor="start" x="255.5" y="-219.5" font-family="Helvetica,sans-Serif" font-size="10.00">include/mini/integrator</text>
<text text-anchor="middle" x="311.5" y="-208.5" font-family="Helvetica,sans-Serif" font-size="10.00">/pyramid.hpp</text>
</a>
</g>
</g>
<!-- Node9&#45;&gt;Node10 -->
<g id="edge11" class="edge">
<title>Node9&#45;&gt;Node10</title>
<path fill="none" stroke="midnightblue" d="M315.9,-258.4C314.93,-249.37 313.86,-239.41 313.02,-231.58"/>
<polygon fill="midnightblue" stroke="midnightblue" points="312.43,-258.83 316.98,-268.4 319.39,-258.08 312.43,-258.83"/>
</g>
<!-- Node12 -->
<g id="node12" class="node">
<title>Node12</title>
<g id="a_node12"><a xlink:href="integrator_2tetrahedron_8hpp.html" target="_top" xlink:title=" ">
<polygon fill="white" stroke="black" points="555.5,-201.5 555.5,-231.5 683.5,-231.5 683.5,-201.5 555.5,-201.5"/>
<text text-anchor="start" x="563.5" y="-219.5" font-family="Helvetica,sans-Serif" font-size="10.00">include/mini/integrator</text>
<text text-anchor="middle" x="619.5" y="-208.5" font-family="Helvetica,sans-Serif" font-size="10.00">/tetrahedron.hpp</text>
</a>
</g>
</g>
<!-- Node11&#45;&gt;Node12 -->
<g id="edge13" class="edge">
<title>Node11&#45;&gt;Node12</title>
<path fill="none" stroke="midnightblue" d="M618.25,-258.11C618.53,-249.15 618.83,-239.32 619.07,-231.58"/>
<polygon fill="midnightblue" stroke="midnightblue" points="614.74,-258.29 617.93,-268.4 621.74,-258.51 614.74,-258.29"/>
</g>
<!-- Node14 -->
<g id="node14" class="node">
<title>Node14</title>
<g id="a_node14"><a xlink:href="integrator_2wedge_8hpp.html" target="_top" xlink:title=" ">
<polygon fill="white" stroke="black" points="701.5,-201.5 701.5,-231.5 829.5,-231.5 829.5,-201.5 701.5,-201.5"/>
<text text-anchor="start" x="709.5" y="-219.5" font-family="Helvetica,sans-Serif" font-size="10.00">include/mini/integrator</text>
<text text-anchor="middle" x="765.5" y="-208.5" font-family="Helvetica,sans-Serif" font-size="10.00">/wedge.hpp</text>
</a>
</g>
</g>
<!-- Node13&#45;&gt;Node14 -->
<g id="edge15" class="edge">
<title>Node13&#45;&gt;Node14</title>
<path fill="none" stroke="midnightblue" d="M766.12,-258.11C765.99,-249.15 765.84,-239.32 765.72,-231.58"/>
<polygon fill="midnightblue" stroke="midnightblue" points="762.63,-258.45 766.28,-268.4 769.63,-258.34 762.63,-258.45"/>
</g>
<!-- Node15&#45;&gt;Node3 -->
<g id="edge20" class="edge">
<title>Node15&#45;&gt;Node3</title>
<path fill="none" stroke="midnightblue" d="M395.47,-266.67C344.69,-255.81 277.99,-241.55 229.51,-231.19"/>
<polygon fill="midnightblue" stroke="midnightblue" points="394.89,-270.13 405.4,-268.79 396.35,-263.28 394.89,-270.13"/>
</g>
<!-- Node15&#45;&gt;Node5 -->
<g id="edge25" class="edge">
<title>Node15&#45;&gt;Node5</title>
<path fill="none" stroke="midnightblue" d="M448.89,-260.88C428.51,-239.85 398.42,-209.82 384.5,-201 359.42,-185.11 328.56,-172.96 302.99,-164.56"/>
<polygon fill="midnightblue" stroke="midnightblue" points="446.45,-263.39 455.91,-268.16 451.49,-258.53 446.45,-263.39"/>
</g>
<!-- Node15&#45;&gt;Node10 -->
<g id="edge21" class="edge">
<title>Node15&#45;&gt;Node10</title>
<path fill="none" stroke="midnightblue" d="M425.85,-264.54C400.57,-254.14 369.2,-241.24 345.72,-231.58"/>
<polygon fill="midnightblue" stroke="midnightblue" points="424.64,-267.83 435.22,-268.4 427.3,-261.35 424.64,-267.83"/>
</g>
<!-- Node15&#45;&gt;Node12 -->
<g id="edge22" class="edge">
<title>Node15&#45;&gt;Node12</title>
<path fill="none" stroke="midnightblue" d="M511.25,-264.41C535.2,-254.03 564.82,-241.2 587.02,-231.58"/>
<polygon fill="midnightblue" stroke="midnightblue" points="509.83,-261.21 502.05,-268.4 512.61,-267.63 509.83,-261.21"/>
</g>
<!-- Node15&#45;&gt;Node14 -->
<g id="edge23" class="edge">
<title>Node15&#45;&gt;Node14</title>
<path fill="none" stroke="midnightblue" d="M543.2,-266.32C591.85,-255.63 654.96,-241.77 701.5,-231.55"/>
<polygon fill="midnightblue" stroke="midnightblue" points="542.38,-262.91 533.36,-268.48 543.88,-269.75 542.38,-262.91"/>
</g>
<!-- Node16 -->
<g id="node16" class="node">
<title>Node16</title>
<g id="a_node16"><a xlink:href="basis_2linear_8hpp.html" target="_top" xlink:title=" ">
<polygon fill="white" stroke="black" points="432,-201.5 432,-231.5 537,-231.5 537,-201.5 432,-201.5"/>
<text text-anchor="start" x="440" y="-219.5" font-family="Helvetica,sans-Serif" font-size="10.00">include/mini/basis</text>
<text text-anchor="middle" x="484.5" y="-208.5" font-family="Helvetica,sans-Serif" font-size="10.00">/linear.hpp</text>
</a>
</g>
</g>
<!-- Node15&#45;&gt;Node16 -->
<g id="edge17" class="edge">
<title>Node15&#45;&gt;Node16</title>
<path fill="none" stroke="midnightblue" d="M475.06,-258.4C477.15,-249.37 479.44,-239.41 481.25,-231.58"/>
<polygon fill="midnightblue" stroke="midnightblue" points="471.59,-257.87 472.75,-268.4 478.41,-259.44 471.59,-257.87"/>
</g>
<!-- Node15&#45;&gt;Node19 -->
<g id="edge24" class="edge">
<title>Node15&#45;&gt;Node19</title>
<path fill="none" stroke="midnightblue" d="M543.2,-268.05C543.3,-268.03 543.4,-268.02 543.5,-268 673.95,-247.29 707.83,-251.24 838.5,-232 850.51,-230.23 863.44,-228.11 875.47,-226.04"/>
<polygon fill="midnightblue" stroke="midnightblue" points="542.91,-264.55 533.63,-269.64 544.06,-271.45 542.91,-264.55"/>
</g>
<!-- Node17 -->
<g id="node17" class="node">
<title>Node17</title>
<g id="a_node17"><a xlink:href="projection_8hpp.html" target="_top" xlink:title=" ">
<polygon fill="white" stroke="black" points="417.5,-134.5 417.5,-164.5 551.5,-164.5 551.5,-134.5 417.5,-134.5"/>
<text text-anchor="start" x="425.5" y="-152.5" font-family="Helvetica,sans-Serif" font-size="10.00">include/mini/polynomial</text>
<text text-anchor="middle" x="484.5" y="-141.5" font-family="Helvetica,sans-Serif" font-size="10.00">/projection.hpp</text>
</a>
</g>
</g>
<!-- Node16&#45;&gt;Node17 -->
<g id="edge18" class="edge">
<title>Node16&#45;&gt;Node17</title>
<path fill="none" stroke="midnightblue" d="M484.5,-191.11C484.5,-182.15 484.5,-172.32 484.5,-164.58"/>
<polygon fill="midnightblue" stroke="midnightblue" points="481,-191.4 484.5,-201.4 488,-191.4 481,-191.4"/>
</g>
<!-- Node18 -->
<g id="node18" class="node">
<title>Node18</title>
<g id="a_node18"><a xlink:href="extrapolation_8hpp.html" target="_top" xlink:title=" ">
<polygon fill="white" stroke="black" points="417.5,-67.5 417.5,-97.5 551.5,-97.5 551.5,-67.5 417.5,-67.5"/>
<text text-anchor="start" x="425.5" y="-85.5" font-family="Helvetica,sans-Serif" font-size="10.00">include/mini/polynomial</text>
<text text-anchor="middle" x="484.5" y="-74.5" font-family="Helvetica,sans-Serif" font-size="10.00">/extrapolation.hpp</text>
</a>
</g>
</g>
<!-- Node17&#45;&gt;Node18 -->
<g id="edge19" class="edge">
<title>Node17&#45;&gt;Node18</title>
<path fill="none" stroke="midnightblue" d="M484.5,-124.11C484.5,-115.15 484.5,-105.32 484.5,-97.58"/>
<polygon fill="midnightblue" stroke="midnightblue" points="481,-124.4 484.5,-134.4 488,-124.4 481,-124.4"/>
</g>
</g>
</svg>
