<?xml version="1.0" encoding="UTF-8" standalone="no"?>
<!DOCTYPE svg PUBLIC "-//W3C//DTD SVG 1.1//EN"
 "http://www.w3.org/Graphics/SVG/1.1/DTD/svg11.dtd">
<!-- Generated by graphviz version 2.43.0 (0)
 -->
<!-- Title: include/mini/coordinate/wedge.hpp Pages: 1 -->
<svg width="955pt" height="263pt"
 viewBox="0.00 0.00 955.30 263.00" xmlns="http://www.w3.org/2000/svg" xmlns:xlink="http://www.w3.org/1999/xlink">
<g id="graph0" class="graph" transform="scale(1 1) rotate(0) translate(4 259)">
<title>include/mini/coordinate/wedge.hpp</title>
<polygon fill="white" stroke="transparent" points="-4,4 -4,-259 951.3,-259 951.3,4 -4,4"/>
<!-- Node1 -->
<g id="node1" class="node">
<title>Node1</title>
<g id="a_node1"><a xlink:title=" ">
<polygon fill="#bfbfbf" stroke="black" points="437.5,-224.5 437.5,-254.5 568.5,-254.5 568.5,-224.5 437.5,-224.5"/>
<text text-anchor="start" x="445.5" y="-242.5" font-family="Helvetica,sans-Serif" font-size="10.00">include/mini/coordinate</text>
<text text-anchor="middle" x="503" y="-231.5" font-family="Helvetica,sans-Serif" font-size="10.00">/wedge.hpp</text>
</a>
</g>
</g>
<!-- Node2 -->
<g id="node2" class="node">
<title>Node2</title>
<g id="a_node2"><a xlink:title=" ">
<polygon fill="white" stroke="#bfbfbf" points="875,-56.5 875,-75.5 935,-75.5 935,-56.5 875,-56.5"/>
<text text-anchor="middle" x="905" y="-63.5" font-family="Helvetica,sans-Serif" font-size="10.00">concepts</text>
</a>
</g>
</g>
<!-- Node1&#45;&gt;Node2 -->
<g id="edge1" class="edge">
<title>Node1&#45;&gt;Node2</title>
<path fill="none" stroke="midnightblue" d="M568.83,-231.41C643.58,-220.6 766.24,-194.22 852,-132 869.79,-119.09 885.03,-98.81 894.54,-84.34"/>
<polygon fill="midnightblue" stroke="midnightblue" points="897.55,-86.12 899.93,-75.8 891.63,-82.39 897.55,-86.12"/>
</g>
<!-- Node3 -->
<g id="node3" class="node">
<title>Node3</title>
<g id="a_node3"><a xlink:title=" ">
<polygon fill="white" stroke="#bfbfbf" points="271,-168.5 271,-187.5 313,-187.5 313,-168.5 271,-168.5"/>
<text text-anchor="middle" x="292" y="-175.5" font-family="Helvetica,sans-Serif" font-size="10.00">array</text>
</a>
</g>
</g>
<!-- Node1&#45;&gt;Node3 -->
<g id="edge2" class="edge">
<title>Node1&#45;&gt;Node3</title>
<path fill="none" stroke="midnightblue" d="M453.26,-224.47C412.96,-213.11 357.42,-197.45 323.16,-187.79"/>
<polygon fill="midnightblue" stroke="midnightblue" points="323.82,-184.34 313.25,-184.99 321.92,-191.07 323.82,-184.34"/>
</g>
<!-- Node4 -->
<g id="node4" class="node">
<title>Node4</title>
<g id="a_node4"><a xlink:title=" ">
<polygon fill="white" stroke="#bfbfbf" points="0,-56.5 0,-75.5 52,-75.5 52,-56.5 0,-56.5"/>
<text text-anchor="middle" x="26" y="-63.5" font-family="Helvetica,sans-Serif" font-size="10.00">cassert</text>
</a>
</g>
</g>
<!-- Node1&#45;&gt;Node4 -->
<g id="edge3" class="edge">
<title>Node1&#45;&gt;Node4</title>
<path fill="none" stroke="midnightblue" d="M437.27,-229.59C388.07,-221.76 319.63,-208.4 262,-188 179.25,-158.71 88.86,-105.94 48.11,-80.9"/>
<polygon fill="midnightblue" stroke="midnightblue" points="49.86,-77.87 39.51,-75.58 46.17,-83.82 49.86,-77.87"/>
</g>
<!-- Node5 -->
<g id="node5" class="node">
<title>Node5</title>
<g id="a_node5"><a xlink:title=" ">
<polygon fill="white" stroke="#bfbfbf" points="70.5,-56.5 70.5,-75.5 153.5,-75.5 153.5,-56.5 70.5,-56.5"/>
<text text-anchor="middle" x="112" y="-63.5" font-family="Helvetica,sans-Serif" font-size="10.00">initializer_list</text>
</a>
</g>
</g>
<!-- Node1&#45;&gt;Node5 -->
<g id="edge4" class="edge">
<title>Node1&#45;&gt;Node5</title>
<path fill="none" stroke="midnightblue" d="M471,-224.47C396.45,-191.76 212.1,-110.91 140.8,-79.63"/>
<polygon fill="midnightblue" stroke="midnightblue" points="142.08,-76.37 131.52,-75.56 139.27,-82.78 142.08,-76.37"/>
</g>
<!-- Node6 -->
<g id="node6" class="node">
<title>Node6</title>
<g id="a_node6"><a xlink:title=" ">
<polygon fill="white" stroke="#bfbfbf" points="545,-112.5 545,-131.5 603,-131.5 603,-112.5 545,-112.5"/>
<text text-anchor="middle" x="574" y="-119.5" font-family="Helvetica,sans-Serif" font-size="10.00">memory</text>
</a>
</g>
</g>
<!-- Node1&#45;&gt;Node6 -->
<g id="edge5" class="edge">
<title>Node1&#45;&gt;Node6</title>
<path fill="none" stroke="midnightblue" d="M511.71,-224.34C524.73,-203.15 549.26,-163.24 563.34,-140.34"/>
<polygon fill="midnightblue" stroke="midnightblue" points="566.42,-142.02 568.67,-131.67 560.45,-138.36 566.42,-142.02"/>
</g>
<!-- Node7 -->
<g id="node7" class="node">
<title>Node7</title>
<g id="a_node7"><a xlink:title=" ">
<polygon fill="white" stroke="#bfbfbf" points="881.5,-0.5 881.5,-19.5 928.5,-19.5 928.5,-0.5 881.5,-0.5"/>
<text text-anchor="middle" x="905" y="-7.5" font-family="Helvetica,sans-Serif" font-size="10.00">vector</text>
</a>
</g>
</g>
<!-- Node1&#45;&gt;Node7 -->
<g id="edge6" class="edge">
<title>Node1&#45;&gt;Node7</title>
<path fill="none" stroke="midnightblue" d="M568.52,-232.89C625.51,-226.52 709.62,-213.5 779,-188 862.19,-157.42 906.17,-156.15 944,-76 952.36,-58.29 937.82,-39.21 924.19,-26.33"/>
<polygon fill="midnightblue" stroke="midnightblue" points="926.26,-23.5 916.44,-19.53 921.64,-28.76 926.26,-23.5"/>
</g>
<!-- Node8 -->
<g id="node8" class="node">
<title>Node8</title>
<g id="a_node8"><a xlink:href="coordinate_2element_8hpp.html" target="_top" xlink:title=" ">
<polygon fill="white" stroke="black" points="369,-112.5 369,-131.5 527,-131.5 527,-112.5 369,-112.5"/>
<text text-anchor="middle" x="448" y="-119.5" font-family="Helvetica,sans-Serif" font-size="10.00">mini/coordinate/element.hpp</text>
</a>
</g>
</g>
<!-- Node1&#45;&gt;Node8 -->
<g id="edge7" class="edge">
<title>Node1&#45;&gt;Node8</title>
<path fill="none" stroke="midnightblue" d="M496.26,-224.34C486.26,-203.34 467.5,-163.96 456.55,-140.96"/>
<polygon fill="midnightblue" stroke="midnightblue" points="459.59,-139.19 452.13,-131.67 453.27,-142.2 459.59,-139.19"/>
</g>
<!-- Node19 -->
<g id="node19" class="node">
<title>Node19</title>
<g id="a_node19"><a xlink:href="coordinate_2cell_8hpp.html" target="_top" xlink:title=" ">
<polygon fill="white" stroke="black" points="564,-168.5 564,-187.5 698,-187.5 698,-168.5 564,-168.5"/>
<text text-anchor="middle" x="631" y="-175.5" font-family="Helvetica,sans-Serif" font-size="10.00">mini/coordinate/cell.hpp</text>
</a>
</g>
</g>
<!-- Node1&#45;&gt;Node19 -->
<g id="edge25" class="edge">
<title>Node1&#45;&gt;Node19</title>
<path fill="none" stroke="midnightblue" d="M533.33,-224.4C554.52,-214.55 582.59,-201.5 603.2,-191.92"/>
<polygon fill="midnightblue" stroke="midnightblue" points="604.78,-195.05 612.37,-187.66 601.83,-188.7 604.78,-195.05"/>
</g>
<!-- Node8&#45;&gt;Node2 -->
<g id="edge8" class="edge">
<title>Node8&#45;&gt;Node2</title>
<path fill="none" stroke="midnightblue" d="M527.11,-112.78C637.78,-101.23 828.93,-81.02 861,-76 862.26,-75.8 863.53,-75.6 864.82,-75.38"/>
<polygon fill="midnightblue" stroke="midnightblue" points="865.56,-78.8 874.77,-73.57 864.31,-71.91 865.56,-78.8"/>
</g>
<!-- Node8&#45;&gt;Node4 -->
<g id="edge9" class="edge">
<title>Node8&#45;&gt;Node4</title>
<path fill="none" stroke="midnightblue" d="M368.96,-114.98C292.72,-108.45 173.95,-96.38 62.37,-76.03"/>
<polygon fill="midnightblue" stroke="midnightblue" points="62.76,-72.55 52.29,-74.17 61.48,-79.43 62.76,-72.55"/>
</g>
<!-- Node8&#45;&gt;Node5 -->
<g id="edge12" class="edge">
<title>Node8&#45;&gt;Node5</title>
<path fill="none" stroke="midnightblue" d="M391.5,-112.49C335.97,-104.03 248.52,-90.5 163.78,-76.27"/>
<polygon fill="midnightblue" stroke="midnightblue" points="164.17,-72.79 153.73,-74.58 163.01,-79.69 164.17,-72.79"/>
</g>
<!-- Node8&#45;&gt;Node7 -->
<g id="edge14" class="edge">
<title>Node8&#45;&gt;Node7</title>
<path fill="none" stroke="midnightblue" d="M524.79,-112.47C617.89,-101.88 765.44,-84.21 790,-76 825.75,-64.05 863,-40.65 885.08,-25.43"/>
<polygon fill="midnightblue" stroke="midnightblue" points="887.13,-28.27 893.3,-19.66 883.11,-22.54 887.13,-28.27"/>
</g>
<!-- Node9 -->
<g id="node9" class="node">
<title>Node9</title>
<g id="a_node9"><a xlink:title=" ">
<polygon fill="white" stroke="#bfbfbf" points="298.5,-0.5 298.5,-19.5 345.5,-19.5 345.5,-0.5 298.5,-0.5"/>
<text text-anchor="middle" x="322" y="-7.5" font-family="Helvetica,sans-Serif" font-size="10.00">cmath</text>
</a>
</g>
</g>
<!-- Node8&#45;&gt;Node9 -->
<g id="edge10" class="edge">
<title>Node8&#45;&gt;Node9</title>
<path fill="none" stroke="midnightblue" d="M413.06,-112.48C391.83,-105.71 365.52,-94.28 348,-76 335.79,-63.26 329.07,-44.06 325.53,-29.83"/>
<polygon fill="midnightblue" stroke="midnightblue" points="328.88,-28.73 323.34,-19.7 322.04,-30.22 328.88,-28.73"/>
</g>
<!-- Node10 -->
<g id="node10" class="node">
<title>Node10</title>
<g id="a_node10"><a xlink:title=" ">
<polygon fill="white" stroke="#bfbfbf" points="509,-56.5 509,-75.5 565,-75.5 565,-56.5 509,-56.5"/>
<text text-anchor="middle" x="537" y="-63.5" font-family="Helvetica,sans-Serif" font-size="10.00">numeric</text>
</a>
</g>
</g>
<!-- Node8&#45;&gt;Node10 -->
<g id="edge11" class="edge">
<title>Node8&#45;&gt;Node10</title>
<path fill="none" stroke="midnightblue" d="M462.3,-112.32C476.18,-103.9 497.49,-90.97 513.8,-81.07"/>
<polygon fill="midnightblue" stroke="midnightblue" points="516,-83.83 522.74,-75.65 512.37,-77.85 516,-83.83"/>
</g>
<!-- Node11 -->
<g id="node11" class="node">
<title>Node11</title>
<g id="a_node11"><a xlink:title=" ">
<polygon fill="white" stroke="#bfbfbf" points="607,-0.5 607,-19.5 667,-19.5 667,-0.5 607,-0.5"/>
<text text-anchor="middle" x="637" y="-7.5" font-family="Helvetica,sans-Serif" font-size="10.00">iostream</text>
</a>
</g>
</g>
<!-- Node8&#45;&gt;Node11 -->
<g id="edge13" class="edge">
<title>Node8&#45;&gt;Node11</title>
<path fill="none" stroke="midnightblue" d="M485.32,-112.5C511.54,-105.41 546.66,-93.6 574,-76 594.13,-63.04 612.62,-42.48 624.29,-27.96"/>
<polygon fill="midnightblue" stroke="midnightblue" points="627.24,-29.86 630.62,-19.82 621.72,-25.56 627.24,-29.86"/>
</g>
<!-- Node12 -->
<g id="node12" class="node">
<title>Node12</title>
<g id="a_node12"><a xlink:href="algebra_2eigen_8hpp.html" target="_top" xlink:title=" ">
<polygon fill="white" stroke="black" points="171.5,-56.5 171.5,-75.5 300.5,-75.5 300.5,-56.5 171.5,-56.5"/>
<text text-anchor="middle" x="236" y="-63.5" font-family="Helvetica,sans-Serif" font-size="10.00">mini/algebra/eigen.hpp</text>
</a>
</g>
</g>
<!-- Node8&#45;&gt;Node12 -->
<g id="edge15" class="edge">
<title>Node8&#45;&gt;Node12</title>
<path fill="none" stroke="midnightblue" d="M414.41,-112.44C377.81,-103.12 319.16,-88.18 279.17,-78"/>
<polygon fill="midnightblue" stroke="midnightblue" points="279.99,-74.59 269.43,-75.52 278.26,-81.38 279.99,-74.59"/>
</g>
<!-- Node16 -->
<g id="node16" class="node">
<title>Node16</title>
<g id="a_node16"><a xlink:href="root_8hpp.html" target="_top" xlink:title=" ">
<polygon fill="white" stroke="black" points="659,-56.5 659,-75.5 781,-75.5 781,-56.5 659,-56.5"/>
<text text-anchor="middle" x="720" y="-63.5" font-family="Helvetica,sans-Serif" font-size="10.00">mini/algebra/root.hpp</text>
</a>
</g>
</g>
<!-- Node8&#45;&gt;Node16 -->
<g id="edge20" class="edge">
<title>Node8&#45;&gt;Node16</title>
<path fill="none" stroke="midnightblue" d="M491.1,-112.44C538.85,-102.96 615.86,-87.67 667.19,-77.48"/>
<polygon fill="midnightblue" stroke="midnightblue" points="667.98,-80.9 677.1,-75.52 666.61,-74.03 667.98,-80.9"/>
</g>
<!-- Node18 -->
<g id="node18" class="node">
<title>Node18</title>
<g id="a_node18"><a xlink:href="index_8hpp.html" target="_top" xlink:title=" ">
<polygon fill="white" stroke="black" points="357,-56.5 357,-75.5 491,-75.5 491,-56.5 357,-56.5"/>
<text text-anchor="middle" x="424" y="-63.5" font-family="Helvetica,sans-Serif" font-size="10.00">mini/constant/index.hpp</text>
</a>
</g>
</g>
<!-- Node8&#45;&gt;Node18 -->
<g id="edge24" class="edge">
<title>Node8&#45;&gt;Node18</title>
<path fill="none" stroke="midnightblue" d="M444.04,-112.08C440.79,-104.77 436.08,-94.18 432.05,-85.1"/>
<polygon fill="midnightblue" stroke="midnightblue" points="435.15,-83.47 427.89,-75.75 428.75,-86.31 435.15,-83.47"/>
</g>
<!-- Node12&#45;&gt;Node9 -->
<g id="edge17" class="edge">
<title>Node12&#45;&gt;Node9</title>
<path fill="none" stroke="midnightblue" d="M249.82,-56.32C263.23,-47.9 283.82,-34.97 299.59,-25.07"/>
<polygon fill="midnightblue" stroke="midnightblue" points="301.61,-27.94 308.22,-19.65 297.89,-22.01 301.61,-27.94"/>
</g>
<!-- Node13 -->
<g id="node13" class="node">
<title>Node13</title>
<g id="a_node13"><a xlink:title=" ">
<polygon fill="white" stroke="#bfbfbf" points="470,-0.5 470,-19.5 534,-19.5 534,-0.5 470,-0.5"/>
<text text-anchor="middle" x="502" y="-7.5" font-family="Helvetica,sans-Serif" font-size="10.00">algorithm</text>
</a>
</g>
</g>
<!-- Node12&#45;&gt;Node13 -->
<g id="edge16" class="edge">
<title>Node12&#45;&gt;Node13</title>
<path fill="none" stroke="midnightblue" d="M278.15,-56.44C327.79,-46.37 409.79,-29.72 459.56,-19.62"/>
<polygon fill="midnightblue" stroke="midnightblue" points="460.57,-22.98 469.67,-17.56 459.17,-16.12 460.57,-22.98"/>
</g>
<!-- Node14 -->
<g id="node14" class="node">
<title>Node14</title>
<g id="a_node14"><a xlink:title=" ">
<polygon fill="white" stroke="#bfbfbf" points="218.5,-0.5 218.5,-19.5 267.5,-19.5 267.5,-0.5 218.5,-0.5"/>
<text text-anchor="middle" x="243" y="-7.5" font-family="Helvetica,sans-Serif" font-size="10.00">cstdlib</text>
</a>
</g>
</g>
<!-- Node12&#45;&gt;Node14 -->
<g id="edge18" class="edge">
<title>Node12&#45;&gt;Node14</title>
<path fill="none" stroke="midnightblue" d="M237.16,-56.08C238.08,-48.93 239.42,-38.64 240.58,-29.69"/>
<polygon fill="midnightblue" stroke="midnightblue" points="244.05,-30.12 241.87,-19.75 237.11,-29.22 244.05,-30.12"/>
</g>
<!-- Node15 -->
<g id="node15" class="node">
<title>Node15</title>
<g id="a_node15"><a xlink:title=" ">
<polygon fill="white" stroke="#bfbfbf" points="126,-0.5 126,-19.5 200,-19.5 200,-0.5 126,-0.5"/>
<text text-anchor="middle" x="163" y="-7.5" font-family="Helvetica,sans-Serif" font-size="10.00">Eigen/Eigen</text>
</a>
</g>
</g>
<!-- Node12&#45;&gt;Node15 -->
<g id="edge19" class="edge">
<title>Node12&#45;&gt;Node15</title>
<path fill="none" stroke="midnightblue" d="M224.27,-56.32C213.16,-48.11 196.26,-35.6 183.02,-25.81"/>
<polygon fill="midnightblue" stroke="midnightblue" points="185.06,-22.97 174.94,-19.83 180.9,-28.59 185.06,-22.97"/>
</g>
<!-- Node16&#45;&gt;Node7 -->
<g id="edge21" class="edge">
<title>Node16&#45;&gt;Node7</title>
<path fill="none" stroke="midnightblue" d="M749.31,-56.44C782.6,-46.73 836.81,-30.9 871.68,-20.73"/>
<polygon fill="midnightblue" stroke="midnightblue" points="872.78,-24.05 881.4,-17.89 870.82,-17.33 872.78,-24.05"/>
</g>
<!-- Node16&#45;&gt;Node11 -->
<g id="edge22" class="edge">
<title>Node16&#45;&gt;Node11</title>
<path fill="none" stroke="midnightblue" d="M706.66,-56.32C693.84,-47.98 674.22,-35.21 659.06,-25.35"/>
<polygon fill="midnightblue" stroke="midnightblue" points="660.59,-22.17 650.3,-19.65 656.78,-28.04 660.59,-22.17"/>
</g>
<!-- Node17 -->
<g id="node17" class="node">
<title>Node17</title>
<g id="a_node17"><a xlink:title=" ">
<polygon fill="white" stroke="#bfbfbf" points="729.5,-0.5 729.5,-19.5 798.5,-19.5 798.5,-0.5 729.5,-0.5"/>
<text text-anchor="middle" x="764" y="-7.5" font-family="Helvetica,sans-Serif" font-size="10.00">type_traits</text>
</a>
</g>
</g>
<!-- Node16&#45;&gt;Node17 -->
<g id="edge23" class="edge">
<title>Node16&#45;&gt;Node17</title>
<path fill="none" stroke="midnightblue" d="M727.27,-56.08C733.54,-48.38 742.79,-37.03 750.43,-27.65"/>
<polygon fill="midnightblue" stroke="midnightblue" points="753.27,-29.71 756.87,-19.75 747.84,-25.29 753.27,-29.71"/>
</g>
<!-- Node19&#45;&gt;Node2 -->
<g id="edge26" class="edge">
<title>Node19&#45;&gt;Node2</title>
<path fill="none" stroke="midnightblue" d="M698.3,-168.65C736.29,-162.14 783.85,-150.92 823,-132 848.91,-119.48 874.15,-97.57 889.63,-82.68"/>
<polygon fill="midnightblue" stroke="midnightblue" points="892.12,-85.14 896.78,-75.62 887.21,-80.15 892.12,-85.14"/>
</g>
<!-- Node19&#45;&gt;Node6 -->
<g id="edge28" class="edge">
<title>Node19&#45;&gt;Node6</title>
<path fill="none" stroke="midnightblue" d="M621.84,-168.32C613.5,-160.42 600.97,-148.55 590.82,-138.94"/>
<polygon fill="midnightblue" stroke="midnightblue" points="592.99,-136.17 583.32,-131.83 588.18,-141.25 592.99,-136.17"/>
</g>
<!-- Node19&#45;&gt;Node7 -->
<g id="edge30" class="edge">
<title>Node19&#45;&gt;Node7</title>
<path fill="none" stroke="midnightblue" d="M698.48,-169.43C743.15,-162.93 802.43,-151.45 852,-132 896.56,-114.52 920.55,-117.73 944,-76 953.74,-58.67 938.41,-39.17 924.21,-26.08"/>
<polygon fill="midnightblue" stroke="midnightblue" points="926.46,-23.4 916.59,-19.53 921.89,-28.71 926.46,-23.4"/>
</g>
<!-- Node19&#45;&gt;Node8 -->
<g id="edge31" class="edge">
<title>Node19&#45;&gt;Node8</title>
<path fill="none" stroke="midnightblue" d="M602,-168.44C570.82,-159.24 521.07,-144.56 486.59,-134.39"/>
<polygon fill="midnightblue" stroke="midnightblue" points="487.44,-130.99 476.86,-131.52 485.46,-137.7 487.44,-130.99"/>
</g>
<!-- Node19&#45;&gt;Node13 -->
<g id="edge27" class="edge">
<title>Node19&#45;&gt;Node13</title>
<path fill="none" stroke="midnightblue" d="M629.36,-168.28C626.75,-155.5 621.02,-131.14 612,-112 599.18,-84.79 595.66,-76.86 574,-56 560.76,-43.25 543.34,-32.25 528.95,-24.31"/>
<polygon fill="midnightblue" stroke="midnightblue" points="530.48,-21.16 520,-19.55 527.19,-27.34 530.48,-21.16"/>
</g>
<!-- Node19&#45;&gt;Node17 -->
<g id="edge29" class="edge">
<title>Node19&#45;&gt;Node17</title>
<path fill="none" stroke="midnightblue" d="M659.44,-168.46C697.16,-155.43 762.2,-126.59 790,-76 798.64,-60.27 788.67,-41.06 778.67,-27.62"/>
<polygon fill="midnightblue" stroke="midnightblue" points="781.3,-25.3 772.3,-19.72 775.85,-29.7 781.3,-25.3"/>
</g>
</g>
</svg>
