<?xml version="1.0" encoding="UTF-8" standalone="no"?>
<!DOCTYPE svg PUBLIC "-//W3C//DTD SVG 1.1//EN"
 "http://www.w3.org/Graphics/SVG/1.1/DTD/svg11.dtd">
<!-- Generated by graphviz version 2.43.0 (0)
 -->
<!-- Title: include/mini/coordinate/triangle.hpp Pages: 1 -->
<svg width="973pt" height="263pt"
 viewBox="0.00 0.00 973.42 263.00" xmlns="http://www.w3.org/2000/svg" xmlns:xlink="http://www.w3.org/1999/xlink">
<g id="graph0" class="graph" transform="scale(1 1) rotate(0) translate(4 259)">
<title>include/mini/coordinate/triangle.hpp</title>
<polygon fill="white" stroke="transparent" points="-4,4 -4,-259 969.42,-259 969.42,4 -4,4"/>
<!-- Node1 -->
<g id="node1" class="node">
<title>Node1</title>
<g id="a_node1"><a xlink:title=" ">
<polygon fill="#bfbfbf" stroke="black" points="593.5,-224.5 593.5,-254.5 724.5,-254.5 724.5,-224.5 593.5,-224.5"/>
<text text-anchor="start" x="601.5" y="-242.5" font-family="Helvetica,sans-Serif" font-size="10.00">include/mini/coordinate</text>
<text text-anchor="middle" x="659" y="-231.5" font-family="Helvetica,sans-Serif" font-size="10.00">/triangle.hpp</text>
</a>
</g>
</g>
<!-- Node2 -->
<g id="node2" class="node">
<title>Node2</title>
<g id="a_node2"><a xlink:title=" ">
<polygon fill="white" stroke="#bfbfbf" points="876,-56.5 876,-75.5 936,-75.5 936,-56.5 876,-56.5"/>
<text text-anchor="middle" x="906" y="-63.5" font-family="Helvetica,sans-Serif" font-size="10.00">concepts</text>
</a>
</g>
</g>
<!-- Node1&#45;&gt;Node2 -->
<g id="edge1" class="edge">
<title>Node1&#45;&gt;Node2</title>
<path fill="none" stroke="midnightblue" d="M724.54,-234.44C765.11,-228.99 816.29,-216.48 853,-188 885.66,-162.66 898.6,-113.02 903.4,-85.86"/>
<polygon fill="midnightblue" stroke="midnightblue" points="906.9,-86.15 905,-75.73 899.98,-85.06 906.9,-86.15"/>
</g>
<!-- Node3 -->
<g id="node3" class="node">
<title>Node3</title>
<g id="a_node3"><a xlink:title=" ">
<polygon fill="white" stroke="#bfbfbf" points="623,-112.5 623,-131.5 665,-131.5 665,-112.5 623,-112.5"/>
<text text-anchor="middle" x="644" y="-119.5" font-family="Helvetica,sans-Serif" font-size="10.00">array</text>
</a>
</g>
</g>
<!-- Node1&#45;&gt;Node3 -->
<g id="edge2" class="edge">
<title>Node1&#45;&gt;Node3</title>
<path fill="none" stroke="midnightblue" d="M657.16,-224.34C654.47,-203.62 649.46,-165.02 646.45,-141.9"/>
<polygon fill="midnightblue" stroke="midnightblue" points="649.88,-141.14 645.13,-131.67 642.94,-142.04 649.88,-141.14"/>
</g>
<!-- Node4 -->
<g id="node4" class="node">
<title>Node4</title>
<g id="a_node4"><a xlink:title=" ">
<polygon fill="white" stroke="#bfbfbf" points="0,-56.5 0,-75.5 52,-75.5 52,-56.5 0,-56.5"/>
<text text-anchor="middle" x="26" y="-63.5" font-family="Helvetica,sans-Serif" font-size="10.00">cassert</text>
</a>
</g>
</g>
<!-- Node1&#45;&gt;Node4 -->
<g id="edge3" class="edge">
<title>Node1&#45;&gt;Node4</title>
<path fill="none" stroke="midnightblue" d="M593.29,-224.49C549.43,-214.87 490.57,-201.46 439,-188 298.78,-151.4 133.96,-100.8 62.3,-78.43"/>
<polygon fill="midnightblue" stroke="midnightblue" points="63.01,-74.98 52.42,-75.33 60.92,-81.66 63.01,-74.98"/>
</g>
<!-- Node5 -->
<g id="node5" class="node">
<title>Node5</title>
<g id="a_node5"><a xlink:title=" ">
<polygon fill="white" stroke="#bfbfbf" points="70.5,-56.5 70.5,-75.5 153.5,-75.5 153.5,-56.5 70.5,-56.5"/>
<text text-anchor="middle" x="112" y="-63.5" font-family="Helvetica,sans-Serif" font-size="10.00">initializer_list</text>
</a>
</g>
</g>
<!-- Node1&#45;&gt;Node5 -->
<g id="edge4" class="edge">
<title>Node1&#45;&gt;Node5</title>
<path fill="none" stroke="midnightblue" d="M614.24,-224.47C508.76,-191.4 246.22,-109.08 148.99,-78.6"/>
<polygon fill="midnightblue" stroke="midnightblue" points="149.89,-75.21 139.3,-75.56 147.8,-81.89 149.89,-75.21"/>
</g>
<!-- Node6 -->
<g id="node6" class="node">
<title>Node6</title>
<g id="a_node6"><a xlink:title=" ">
<polygon fill="white" stroke="#bfbfbf" points="685,-112.5 685,-131.5 743,-131.5 743,-112.5 685,-112.5"/>
<text text-anchor="middle" x="714" y="-119.5" font-family="Helvetica,sans-Serif" font-size="10.00">memory</text>
</a>
</g>
</g>
<!-- Node1&#45;&gt;Node6 -->
<g id="edge5" class="edge">
<title>Node1&#45;&gt;Node6</title>
<path fill="none" stroke="midnightblue" d="M665.74,-224.34C675.74,-203.34 694.5,-163.96 705.45,-140.96"/>
<polygon fill="midnightblue" stroke="midnightblue" points="708.73,-142.2 709.87,-131.67 702.41,-139.19 708.73,-142.2"/>
</g>
<!-- Node7 -->
<g id="node7" class="node">
<title>Node7</title>
<g id="a_node7"><a xlink:title=" ">
<polygon fill="white" stroke="#bfbfbf" points="805.5,-0.5 805.5,-19.5 852.5,-19.5 852.5,-0.5 805.5,-0.5"/>
<text text-anchor="middle" x="829" y="-7.5" font-family="Helvetica,sans-Serif" font-size="10.00">vector</text>
</a>
</g>
</g>
<!-- Node1&#45;&gt;Node7 -->
<g id="edge6" class="edge">
<title>Node1&#45;&gt;Node7</title>
<path fill="none" stroke="midnightblue" d="M724.82,-234.52C770.05,-229.18 829.85,-216.76 875,-188 928.39,-153.99 942.31,-135.83 963,-76 978.06,-32.45 907.21,-18.04 862.77,-13.29"/>
<polygon fill="midnightblue" stroke="midnightblue" points="862.93,-9.79 852.65,-12.33 862.27,-16.76 862.93,-9.79"/>
</g>
<!-- Node8 -->
<g id="node8" class="node">
<title>Node8</title>
<g id="a_node8"><a xlink:href="coordinate_2element_8hpp.html" target="_top" xlink:title=" ">
<polygon fill="white" stroke="black" points="443,-112.5 443,-131.5 601,-131.5 601,-112.5 443,-112.5"/>
<text text-anchor="middle" x="522" y="-119.5" font-family="Helvetica,sans-Serif" font-size="10.00">mini/coordinate/element.hpp</text>
</a>
</g>
</g>
<!-- Node1&#45;&gt;Node8 -->
<g id="edge7" class="edge">
<title>Node1&#45;&gt;Node8</title>
<path fill="none" stroke="midnightblue" d="M642.2,-224.34C616.28,-202.49 566.76,-160.73 540.08,-138.24"/>
<polygon fill="midnightblue" stroke="midnightblue" points="542.18,-135.44 532.28,-131.67 537.67,-140.79 542.18,-135.44"/>
</g>
<!-- Node19 -->
<g id="node19" class="node">
<title>Node19</title>
<g id="a_node19"><a xlink:href="coordinate_2face_8hpp.html" target="_top" xlink:title=" ">
<polygon fill="white" stroke="black" points="706,-168.5 706,-187.5 844,-187.5 844,-168.5 706,-168.5"/>
<text text-anchor="middle" x="775" y="-175.5" font-family="Helvetica,sans-Serif" font-size="10.00">mini/coordinate/face.hpp</text>
</a>
</g>
</g>
<!-- Node1&#45;&gt;Node19 -->
<g id="edge25" class="edge">
<title>Node1&#45;&gt;Node19</title>
<path fill="none" stroke="midnightblue" d="M686.49,-224.4C705.43,-214.68 730.44,-201.86 749.04,-192.31"/>
<polygon fill="midnightblue" stroke="midnightblue" points="750.82,-195.34 758.12,-187.66 747.63,-189.11 750.82,-195.34"/>
</g>
<!-- Node8&#45;&gt;Node2 -->
<g id="edge8" class="edge">
<title>Node8&#45;&gt;Node2</title>
<path fill="none" stroke="midnightblue" d="M582.85,-112.44C661.94,-101.32 797.91,-82.2 865.46,-72.7"/>
<polygon fill="midnightblue" stroke="midnightblue" points="866.28,-76.12 875.7,-71.26 865.31,-69.19 866.28,-76.12"/>
</g>
<!-- Node8&#45;&gt;Node4 -->
<g id="edge9" class="edge">
<title>Node8&#45;&gt;Node4</title>
<path fill="none" stroke="midnightblue" d="M442.78,-116.99C352.7,-111.6 201.16,-99.98 62.26,-75.97"/>
<polygon fill="midnightblue" stroke="midnightblue" points="62.73,-72.5 52.28,-74.22 61.52,-79.4 62.73,-72.5"/>
</g>
<!-- Node8&#45;&gt;Node5 -->
<g id="edge12" class="edge">
<title>Node8&#45;&gt;Node5</title>
<path fill="none" stroke="midnightblue" d="M449.36,-112.48C377.74,-103.9 265.19,-89.98 168,-76 166.54,-75.79 165.06,-75.57 163.56,-75.35"/>
<polygon fill="midnightblue" stroke="midnightblue" points="163.98,-71.88 153.57,-73.84 162.93,-78.8 163.98,-71.88"/>
</g>
<!-- Node8&#45;&gt;Node7 -->
<g id="edge14" class="edge">
<title>Node8&#45;&gt;Node7</title>
<path fill="none" stroke="midnightblue" d="M584.59,-112.48C642.5,-103.93 723.89,-90.06 753,-76 777.54,-64.15 800.55,-42.4 814.69,-27.34"/>
<polygon fill="midnightblue" stroke="midnightblue" points="817.44,-29.52 821.58,-19.77 812.26,-24.81 817.44,-29.52"/>
</g>
<!-- Node9 -->
<g id="node9" class="node">
<title>Node9</title>
<g id="a_node9"><a xlink:title=" ">
<polygon fill="white" stroke="#bfbfbf" points="165.5,-0.5 165.5,-19.5 212.5,-19.5 212.5,-0.5 165.5,-0.5"/>
<text text-anchor="middle" x="189" y="-7.5" font-family="Helvetica,sans-Serif" font-size="10.00">cmath</text>
</a>
</g>
</g>
<!-- Node8&#45;&gt;Node9 -->
<g id="edge10" class="edge">
<title>Node8&#45;&gt;Node9</title>
<path fill="none" stroke="midnightblue" d="M442.72,-114.71C353.36,-106.87 218.22,-92.49 201,-76 188.72,-64.24 186.63,-44.31 187.06,-29.61"/>
<polygon fill="midnightblue" stroke="midnightblue" points="190.55,-29.83 187.74,-19.61 183.57,-29.35 190.55,-29.83"/>
</g>
<!-- Node10 -->
<g id="node10" class="node">
<title>Node10</title>
<g id="a_node10"><a xlink:title=" ">
<polygon fill="white" stroke="#bfbfbf" points="548,-56.5 548,-75.5 604,-75.5 604,-56.5 548,-56.5"/>
<text text-anchor="middle" x="576" y="-63.5" font-family="Helvetica,sans-Serif" font-size="10.00">numeric</text>
</a>
</g>
</g>
<!-- Node8&#45;&gt;Node10 -->
<g id="edge11" class="edge">
<title>Node8&#45;&gt;Node10</title>
<path fill="none" stroke="midnightblue" d="M530.92,-112.08C538.78,-104.22 550.43,-92.57 559.92,-83.08"/>
<polygon fill="midnightblue" stroke="midnightblue" points="562.65,-85.3 567.25,-75.75 557.7,-80.35 562.65,-85.3"/>
</g>
<!-- Node11 -->
<g id="node11" class="node">
<title>Node11</title>
<g id="a_node11"><a xlink:title=" ">
<polygon fill="white" stroke="#bfbfbf" points="506,-0.5 506,-19.5 566,-19.5 566,-0.5 506,-0.5"/>
<text text-anchor="middle" x="536" y="-7.5" font-family="Helvetica,sans-Serif" font-size="10.00">iostream</text>
</a>
</g>
</g>
<!-- Node8&#45;&gt;Node11 -->
<g id="edge13" class="edge">
<title>Node8&#45;&gt;Node11</title>
<path fill="none" stroke="midnightblue" d="M523.1,-112.37C525.36,-94.62 530.57,-53.67 533.63,-29.6"/>
<polygon fill="midnightblue" stroke="midnightblue" points="537.12,-29.95 534.91,-19.59 530.17,-29.07 537.12,-29.95"/>
</g>
<!-- Node12 -->
<g id="node12" class="node">
<title>Node12</title>
<g id="a_node12"><a xlink:href="algebra_2eigen_8hpp.html" target="_top" xlink:title=" ">
<polygon fill="white" stroke="black" points="210.5,-56.5 210.5,-75.5 339.5,-75.5 339.5,-56.5 210.5,-56.5"/>
<text text-anchor="middle" x="275" y="-63.5" font-family="Helvetica,sans-Serif" font-size="10.00">mini/algebra/eigen.hpp</text>
</a>
</g>
</g>
<!-- Node8&#45;&gt;Node12 -->
<g id="edge15" class="edge">
<title>Node8&#45;&gt;Node12</title>
<path fill="none" stroke="midnightblue" d="M482.86,-112.44C439.77,-103.02 370.44,-87.87 323.83,-77.68"/>
<polygon fill="midnightblue" stroke="midnightblue" points="324.47,-74.23 313.95,-75.52 322.98,-81.07 324.47,-74.23"/>
</g>
<!-- Node16 -->
<g id="node16" class="node">
<title>Node16</title>
<g id="a_node16"><a xlink:href="root_8hpp.html" target="_top" xlink:title=" ">
<polygon fill="white" stroke="black" points="622,-56.5 622,-75.5 744,-75.5 744,-56.5 622,-56.5"/>
<text text-anchor="middle" x="683" y="-63.5" font-family="Helvetica,sans-Serif" font-size="10.00">mini/algebra/root.hpp</text>
</a>
</g>
</g>
<!-- Node8&#45;&gt;Node16 -->
<g id="edge20" class="edge">
<title>Node8&#45;&gt;Node16</title>
<path fill="none" stroke="midnightblue" d="M547.51,-112.44C574.6,-103.36 617.59,-88.94 647.87,-78.78"/>
<polygon fill="midnightblue" stroke="midnightblue" points="649.24,-82.01 657.61,-75.52 647.01,-75.38 649.24,-82.01"/>
</g>
<!-- Node18 -->
<g id="node18" class="node">
<title>Node18</title>
<g id="a_node18"><a xlink:href="index_8hpp.html" target="_top" xlink:title=" ">
<polygon fill="white" stroke="black" points="358,-56.5 358,-75.5 492,-75.5 492,-56.5 358,-56.5"/>
<text text-anchor="middle" x="425" y="-63.5" font-family="Helvetica,sans-Serif" font-size="10.00">mini/constant/index.hpp</text>
</a>
</g>
</g>
<!-- Node8&#45;&gt;Node18 -->
<g id="edge24" class="edge">
<title>Node8&#45;&gt;Node18</title>
<path fill="none" stroke="midnightblue" d="M506.42,-112.32C491,-103.74 467.19,-90.49 449.29,-80.52"/>
<polygon fill="midnightblue" stroke="midnightblue" points="450.99,-77.46 440.55,-75.65 447.58,-83.58 450.99,-77.46"/>
</g>
<!-- Node12&#45;&gt;Node9 -->
<g id="edge17" class="edge">
<title>Node12&#45;&gt;Node9</title>
<path fill="none" stroke="midnightblue" d="M261.18,-56.32C247.77,-47.9 227.18,-34.97 211.41,-25.07"/>
<polygon fill="midnightblue" stroke="midnightblue" points="213.11,-22.01 202.78,-19.65 209.39,-27.94 213.11,-22.01"/>
</g>
<!-- Node13 -->
<g id="node13" class="node">
<title>Node13</title>
<g id="a_node13"><a xlink:title=" ">
<polygon fill="white" stroke="#bfbfbf" points="600,-0.5 600,-19.5 664,-19.5 664,-0.5 600,-0.5"/>
<text text-anchor="middle" x="632" y="-7.5" font-family="Helvetica,sans-Serif" font-size="10.00">algorithm</text>
</a>
</g>
</g>
<!-- Node12&#45;&gt;Node13 -->
<g id="edge16" class="edge">
<title>Node12&#45;&gt;Node13</title>
<path fill="none" stroke="midnightblue" d="M332.81,-56.46C393.24,-47.51 490.8,-32.96 575,-20 579.76,-19.27 584.75,-18.49 589.7,-17.72"/>
<polygon fill="midnightblue" stroke="midnightblue" points="590.42,-21.15 599.75,-16.14 589.33,-14.23 590.42,-21.15"/>
</g>
<!-- Node14 -->
<g id="node14" class="node">
<title>Node14</title>
<g id="a_node14"><a xlink:title=" ">
<polygon fill="white" stroke="#bfbfbf" points="237.5,-0.5 237.5,-19.5 286.5,-19.5 286.5,-0.5 237.5,-0.5"/>
<text text-anchor="middle" x="262" y="-7.5" font-family="Helvetica,sans-Serif" font-size="10.00">cstdlib</text>
</a>
</g>
</g>
<!-- Node12&#45;&gt;Node14 -->
<g id="edge18" class="edge">
<title>Node12&#45;&gt;Node14</title>
<path fill="none" stroke="midnightblue" d="M272.85,-56.08C271.13,-48.93 268.65,-38.64 266.5,-29.69"/>
<polygon fill="midnightblue" stroke="midnightblue" points="269.85,-28.65 264.11,-19.75 263.04,-30.29 269.85,-28.65"/>
</g>
<!-- Node15 -->
<g id="node15" class="node">
<title>Node15</title>
<g id="a_node15"><a xlink:title=" ">
<polygon fill="white" stroke="#bfbfbf" points="305,-0.5 305,-19.5 379,-19.5 379,-0.5 305,-0.5"/>
<text text-anchor="middle" x="342" y="-7.5" font-family="Helvetica,sans-Serif" font-size="10.00">Eigen/Eigen</text>
</a>
</g>
</g>
<!-- Node12&#45;&gt;Node15 -->
<g id="edge19" class="edge">
<title>Node12&#45;&gt;Node15</title>
<path fill="none" stroke="midnightblue" d="M285.76,-56.32C295.77,-48.26 310.89,-36.08 322.93,-26.37"/>
<polygon fill="midnightblue" stroke="midnightblue" points="325.45,-28.83 331.04,-19.83 321.06,-23.38 325.45,-28.83"/>
</g>
<!-- Node16&#45;&gt;Node7 -->
<g id="edge21" class="edge">
<title>Node16&#45;&gt;Node7</title>
<path fill="none" stroke="midnightblue" d="M706.13,-56.44C730.48,-47.44 769.01,-33.19 796.42,-23.05"/>
<polygon fill="midnightblue" stroke="midnightblue" points="797.81,-26.27 805.97,-19.52 795.38,-19.7 797.81,-26.27"/>
</g>
<!-- Node16&#45;&gt;Node11 -->
<g id="edge22" class="edge">
<title>Node16&#45;&gt;Node11</title>
<path fill="none" stroke="midnightblue" d="M659.71,-56.44C635.19,-47.44 596.4,-33.19 568.8,-23.05"/>
<polygon fill="midnightblue" stroke="midnightblue" points="569.78,-19.68 559.18,-19.52 567.36,-26.25 569.78,-19.68"/>
</g>
<!-- Node17 -->
<g id="node17" class="node">
<title>Node17</title>
<g id="a_node17"><a xlink:title=" ">
<polygon fill="white" stroke="#bfbfbf" points="706.5,-0.5 706.5,-19.5 775.5,-19.5 775.5,-0.5 706.5,-0.5"/>
<text text-anchor="middle" x="741" y="-7.5" font-family="Helvetica,sans-Serif" font-size="10.00">type_traits</text>
</a>
</g>
</g>
<!-- Node16&#45;&gt;Node17 -->
<g id="edge23" class="edge">
<title>Node16&#45;&gt;Node17</title>
<path fill="none" stroke="midnightblue" d="M692.32,-56.32C700.89,-48.34 713.81,-36.31 724.19,-26.65"/>
<polygon fill="midnightblue" stroke="midnightblue" points="726.58,-29.21 731.51,-19.83 721.81,-24.09 726.58,-29.21"/>
</g>
<!-- Node19&#45;&gt;Node2 -->
<g id="edge26" class="edge">
<title>Node19&#45;&gt;Node2</title>
<path fill="none" stroke="midnightblue" d="M799.11,-168.35C817.75,-160.81 843.44,-148.49 862,-132 877.08,-118.6 889.44,-98.95 897.17,-84.77"/>
<polygon fill="midnightblue" stroke="midnightblue" points="900.45,-86.07 901.96,-75.58 894.24,-82.83 900.45,-86.07"/>
</g>
<!-- Node19&#45;&gt;Node3 -->
<g id="edge28" class="edge">
<title>Node19&#45;&gt;Node3</title>
<path fill="none" stroke="midnightblue" d="M754.24,-168.44C732.68,-159.56 698.74,-145.56 674.21,-135.45"/>
<polygon fill="midnightblue" stroke="midnightblue" points="675.24,-132.09 664.66,-131.52 672.57,-138.56 675.24,-132.09"/>
</g>
<!-- Node19&#45;&gt;Node6 -->
<g id="edge29" class="edge">
<title>Node19&#45;&gt;Node6</title>
<path fill="none" stroke="midnightblue" d="M765.2,-168.32C756.18,-160.34 742.59,-148.31 731.68,-138.65"/>
<polygon fill="midnightblue" stroke="midnightblue" points="733.79,-135.84 723.98,-131.83 729.15,-141.08 733.79,-135.84"/>
</g>
<!-- Node19&#45;&gt;Node7 -->
<g id="edge31" class="edge">
<title>Node19&#45;&gt;Node7</title>
<path fill="none" stroke="midnightblue" d="M777.9,-168.08C786.44,-141.83 811.58,-64.55 823.11,-29.12"/>
<polygon fill="midnightblue" stroke="midnightblue" points="826.45,-30.16 826.21,-19.57 819.79,-27.99 826.45,-30.16"/>
</g>
<!-- Node19&#45;&gt;Node8 -->
<g id="edge32" class="edge">
<title>Node19&#45;&gt;Node8</title>
<path fill="none" stroke="midnightblue" d="M734.91,-168.44C690.68,-159 619.46,-143.8 571.72,-133.61"/>
<polygon fill="midnightblue" stroke="midnightblue" points="572.41,-130.18 561.9,-131.52 570.95,-137.03 572.41,-130.18"/>
</g>
<!-- Node19&#45;&gt;Node13 -->
<g id="edge27" class="edge">
<title>Node19&#45;&gt;Node13</title>
<path fill="none" stroke="midnightblue" d="M776.11,-168.18C778.33,-146.4 780.97,-89.39 753,-56 733.5,-32.72 700.74,-21.47 674.22,-16.05"/>
<polygon fill="midnightblue" stroke="midnightblue" points="674.5,-12.54 664.04,-14.18 673.24,-19.43 674.5,-12.54"/>
</g>
<!-- Node19&#45;&gt;Node17 -->
<g id="edge30" class="edge">
<title>Node19&#45;&gt;Node17</title>
<path fill="none" stroke="midnightblue" d="M809.25,-168.39C870.54,-151.39 988.68,-110.36 945,-56 939.98,-49.75 844.51,-30.65 785.97,-19.45"/>
<polygon fill="midnightblue" stroke="midnightblue" points="786.34,-15.95 775.86,-17.52 785.03,-22.83 786.34,-15.95"/>
</g>
</g>
</svg>
