<?xml version="1.0" encoding="UTF-8" standalone="no"?>
<!DOCTYPE svg PUBLIC "-//W3C//DTD SVG 1.1//EN"
 "http://www.w3.org/Graphics/SVG/1.1/DTD/svg11.dtd">
<!-- Generated by graphviz version 2.43.0 (0)
 -->
<!-- Title: include/mini/coordinate/pyramid.hpp Pages: 1 -->
<svg width="1154pt" height="263pt"
 viewBox="0.00 0.00 1154.00 263.00" xmlns="http://www.w3.org/2000/svg" xmlns:xlink="http://www.w3.org/1999/xlink">
<g id="graph0" class="graph" transform="scale(1 1) rotate(0) translate(4 259)">
<title>include/mini/coordinate/pyramid.hpp</title>
<polygon fill="white" stroke="transparent" points="-4,4 -4,-259 1150,-259 1150,4 -4,4"/>
<!-- Node1 -->
<g id="node1" class="node">
<title>Node1</title>
<g id="a_node1"><a xlink:title=" ">
<polygon fill="#bfbfbf" stroke="black" points="791.5,-224.5 791.5,-254.5 922.5,-254.5 922.5,-224.5 791.5,-224.5"/>
<text text-anchor="start" x="799.5" y="-242.5" font-family="Helvetica,sans-Serif" font-size="10.00">include/mini/coordinate</text>
<text text-anchor="middle" x="857" y="-231.5" font-family="Helvetica,sans-Serif" font-size="10.00">/pyramid.hpp</text>
</a>
</g>
</g>
<!-- Node2 -->
<g id="node2" class="node">
<title>Node2</title>
<g id="a_node2"><a xlink:title=" ">
<polygon fill="white" stroke="#bfbfbf" points="876,-56.5 876,-75.5 936,-75.5 936,-56.5 876,-56.5"/>
<text text-anchor="middle" x="906" y="-63.5" font-family="Helvetica,sans-Serif" font-size="10.00">concepts</text>
</a>
</g>
</g>
<!-- Node1&#45;&gt;Node2 -->
<g id="edge1" class="edge">
<title>Node1&#45;&gt;Node2</title>
<path fill="none" stroke="midnightblue" d="M901.53,-224.48C941.54,-209.09 997.23,-179.97 1019,-132 1034.24,-98.42 984.3,-81.25 945.98,-73.21"/>
<polygon fill="midnightblue" stroke="midnightblue" points="946.53,-69.75 936.04,-71.27 945.18,-76.62 946.53,-69.75"/>
</g>
<!-- Node3 -->
<g id="node3" class="node">
<title>Node3</title>
<g id="a_node3"><a xlink:title=" ">
<polygon fill="white" stroke="#bfbfbf" points="1104,-168.5 1104,-187.5 1146,-187.5 1146,-168.5 1104,-168.5"/>
<text text-anchor="middle" x="1125" y="-175.5" font-family="Helvetica,sans-Serif" font-size="10.00">array</text>
</a>
</g>
</g>
<!-- Node1&#45;&gt;Node3 -->
<g id="edge2" class="edge">
<title>Node1&#45;&gt;Node3</title>
<path fill="none" stroke="midnightblue" d="M922.68,-224.96C969.45,-215.16 1033.71,-201.33 1090,-188 1091.27,-187.7 1092.57,-187.39 1093.87,-187.07"/>
<polygon fill="midnightblue" stroke="midnightblue" points="1095.08,-190.38 1103.93,-184.56 1093.38,-183.58 1095.08,-190.38"/>
</g>
<!-- Node4 -->
<g id="node4" class="node">
<title>Node4</title>
<g id="a_node4"><a xlink:title=" ">
<polygon fill="white" stroke="#bfbfbf" points="0,-56.5 0,-75.5 52,-75.5 52,-56.5 0,-56.5"/>
<text text-anchor="middle" x="26" y="-63.5" font-family="Helvetica,sans-Serif" font-size="10.00">cassert</text>
</a>
</g>
</g>
<!-- Node1&#45;&gt;Node4 -->
<g id="edge3" class="edge">
<title>Node1&#45;&gt;Node4</title>
<path fill="none" stroke="midnightblue" d="M791.34,-232.48C714.89,-224.85 585.04,-210 475,-188 319.24,-156.86 137.69,-102.12 62,-78.44"/>
<polygon fill="midnightblue" stroke="midnightblue" points="62.62,-74.97 52.03,-75.31 60.52,-81.65 62.62,-74.97"/>
</g>
<!-- Node5 -->
<g id="node5" class="node">
<title>Node5</title>
<g id="a_node5"><a xlink:title=" ">
<polygon fill="white" stroke="#bfbfbf" points="70.5,-56.5 70.5,-75.5 153.5,-75.5 153.5,-56.5 70.5,-56.5"/>
<text text-anchor="middle" x="112" y="-63.5" font-family="Helvetica,sans-Serif" font-size="10.00">initializer_list</text>
</a>
</g>
</g>
<!-- Node1&#45;&gt;Node5 -->
<g id="edge4" class="edge">
<title>Node1&#45;&gt;Node5</title>
<path fill="none" stroke="midnightblue" d="M791.36,-228.97C731.36,-219.86 640.32,-205.01 562,-188 466.77,-167.31 444.12,-157.28 350,-132 280.82,-113.42 200.46,-91.38 153.05,-78.32"/>
<polygon fill="midnightblue" stroke="midnightblue" points="153.74,-74.88 143.17,-75.6 151.88,-81.63 153.74,-74.88"/>
</g>
<!-- Node6 -->
<g id="node6" class="node">
<title>Node6</title>
<g id="a_node6"><a xlink:title=" ">
<polygon fill="white" stroke="#bfbfbf" points="952,-112.5 952,-131.5 1010,-131.5 1010,-112.5 952,-112.5"/>
<text text-anchor="middle" x="981" y="-119.5" font-family="Helvetica,sans-Serif" font-size="10.00">memory</text>
</a>
</g>
</g>
<!-- Node1&#45;&gt;Node6 -->
<g id="edge5" class="edge">
<title>Node1&#45;&gt;Node6</title>
<path fill="none" stroke="midnightblue" d="M882.91,-224.37C898.42,-215.19 917.97,-202.31 933,-188 948.03,-173.7 961.71,-154.23 970.59,-140.34"/>
<polygon fill="midnightblue" stroke="midnightblue" points="973.62,-142.08 975.92,-131.74 967.68,-138.39 973.62,-142.08"/>
</g>
<!-- Node7 -->
<g id="node7" class="node">
<title>Node7</title>
<g id="a_node7"><a xlink:title=" ">
<polygon fill="white" stroke="#bfbfbf" points="172,-56.5 172,-75.5 228,-75.5 228,-56.5 172,-56.5"/>
<text text-anchor="middle" x="200" y="-63.5" font-family="Helvetica,sans-Serif" font-size="10.00">numeric</text>
</a>
</g>
</g>
<!-- Node1&#45;&gt;Node7 -->
<g id="edge6" class="edge">
<title>Node1&#45;&gt;Node7</title>
<path fill="none" stroke="midnightblue" d="M798.7,-224.44C756.99,-214.36 699.52,-200.42 649,-188 548.93,-163.4 523.5,-158.81 424,-132 358.35,-114.31 282.44,-91.86 237.99,-78.51"/>
<polygon fill="midnightblue" stroke="midnightblue" points="238.77,-75.09 228.19,-75.56 236.76,-81.79 238.77,-75.09"/>
</g>
<!-- Node8 -->
<g id="node8" class="node">
<title>Node8</title>
<g id="a_node8"><a xlink:title=" ">
<polygon fill="white" stroke="#bfbfbf" points="863.5,-0.5 863.5,-19.5 910.5,-19.5 910.5,-0.5 863.5,-0.5"/>
<text text-anchor="middle" x="887" y="-7.5" font-family="Helvetica,sans-Serif" font-size="10.00">vector</text>
</a>
</g>
</g>
<!-- Node1&#45;&gt;Node8 -->
<g id="edge7" class="edge">
<title>Node1&#45;&gt;Node8</title>
<path fill="none" stroke="midnightblue" d="M920.72,-224.46C945.96,-216.68 974.12,-205.03 996,-188 1019.73,-169.52 1025.17,-160.75 1034,-132 1051.76,-74.18 969.03,-37.2 920.39,-20.8"/>
<polygon fill="midnightblue" stroke="midnightblue" points="921.17,-17.38 910.58,-17.62 919.01,-24.04 921.17,-17.38"/>
</g>
<!-- Node9 -->
<g id="node9" class="node">
<title>Node9</title>
<g id="a_node9"><a xlink:href="coordinate_2element_8hpp.html" target="_top" xlink:title=" ">
<polygon fill="white" stroke="black" points="433,-112.5 433,-131.5 591,-131.5 591,-112.5 433,-112.5"/>
<text text-anchor="middle" x="512" y="-119.5" font-family="Helvetica,sans-Serif" font-size="10.00">mini/coordinate/element.hpp</text>
</a>
</g>
</g>
<!-- Node1&#45;&gt;Node9 -->
<g id="edge8" class="edge">
<title>Node1&#45;&gt;Node9</title>
<path fill="none" stroke="midnightblue" d="M815.04,-224.45C746.35,-201.46 611.14,-156.19 547.15,-134.77"/>
<polygon fill="midnightblue" stroke="midnightblue" points="548.11,-131.4 537.52,-131.54 545.89,-138.04 548.11,-131.4"/>
</g>
<!-- Node19 -->
<g id="node19" class="node">
<title>Node19</title>
<g id="a_node19"><a xlink:href="coordinate_2cell_8hpp.html" target="_top" xlink:title=" ">
<polygon fill="white" stroke="black" points="790,-168.5 790,-187.5 924,-187.5 924,-168.5 790,-168.5"/>
<text text-anchor="middle" x="857" y="-175.5" font-family="Helvetica,sans-Serif" font-size="10.00">mini/coordinate/cell.hpp</text>
</a>
</g>
</g>
<!-- Node1&#45;&gt;Node19 -->
<g id="edge26" class="edge">
<title>Node1&#45;&gt;Node19</title>
<path fill="none" stroke="midnightblue" d="M857,-224.4C857,-216.47 857,-206.46 857,-197.86"/>
<polygon fill="midnightblue" stroke="midnightblue" points="860.5,-197.66 857,-187.66 853.5,-197.66 860.5,-197.66"/>
</g>
<!-- Node9&#45;&gt;Node2 -->
<g id="edge9" class="edge">
<title>Node9&#45;&gt;Node2</title>
<path fill="none" stroke="midnightblue" d="M574.43,-112.44C656.16,-101.24 797.09,-81.93 865.88,-72.5"/>
<polygon fill="midnightblue" stroke="midnightblue" points="866.45,-75.95 875.89,-71.13 865.5,-69.02 866.45,-75.95"/>
</g>
<!-- Node9&#45;&gt;Node4 -->
<g id="edge10" class="edge">
<title>Node9&#45;&gt;Node4</title>
<path fill="none" stroke="midnightblue" d="M432.88,-116.76C344.64,-111.21 197.59,-99.51 62.4,-76"/>
<polygon fill="midnightblue" stroke="midnightblue" points="62.74,-72.51 52.28,-74.22 61.52,-79.4 62.74,-72.51"/>
</g>
<!-- Node9&#45;&gt;Node5 -->
<g id="edge13" class="edge">
<title>Node9&#45;&gt;Node5</title>
<path fill="none" stroke="midnightblue" d="M437.99,-112.47C369.53,-104.34 264.69,-91.32 163.79,-76.06"/>
<polygon fill="midnightblue" stroke="midnightblue" points="164.14,-72.57 153.72,-74.53 163.08,-79.49 164.14,-72.57"/>
</g>
<!-- Node9&#45;&gt;Node7 -->
<g id="edge12" class="edge">
<title>Node9&#45;&gt;Node7</title>
<path fill="none" stroke="midnightblue" d="M456.28,-112.48C401.59,-103.94 315.88,-90.06 242,-76 240.76,-75.76 239.51,-75.52 238.24,-75.27"/>
<polygon fill="midnightblue" stroke="midnightblue" points="238.93,-71.84 228.43,-73.28 237.53,-78.7 238.93,-71.84"/>
</g>
<!-- Node9&#45;&gt;Node8 -->
<g id="edge15" class="edge">
<title>Node9&#45;&gt;Node8</title>
<path fill="none" stroke="midnightblue" d="M591.09,-117.38C648.31,-112.6 726.58,-101.55 791,-76 821.07,-64.08 851.22,-41.51 869.49,-26.36"/>
<polygon fill="midnightblue" stroke="midnightblue" points="872.1,-28.74 877.46,-19.6 867.57,-23.4 872.1,-28.74"/>
</g>
<!-- Node10 -->
<g id="node10" class="node">
<title>Node10</title>
<g id="a_node10"><a xlink:title=" ">
<polygon fill="white" stroke="#bfbfbf" points="236.5,-0.5 236.5,-19.5 283.5,-19.5 283.5,-0.5 236.5,-0.5"/>
<text text-anchor="middle" x="260" y="-7.5" font-family="Helvetica,sans-Serif" font-size="10.00">cmath</text>
</a>
</g>
</g>
<!-- Node9&#45;&gt;Node10 -->
<g id="edge11" class="edge">
<title>Node9&#45;&gt;Node10</title>
<path fill="none" stroke="midnightblue" d="M432.98,-115.2C373.06,-109.17 297.34,-97.48 275,-76 262.75,-64.22 259.61,-44.58 259.17,-29.97"/>
<polygon fill="midnightblue" stroke="midnightblue" points="262.67,-29.61 259.27,-19.57 255.67,-29.54 262.67,-29.61"/>
</g>
<!-- Node11 -->
<g id="node11" class="node">
<title>Node11</title>
<g id="a_node11"><a xlink:title=" ">
<polygon fill="white" stroke="#bfbfbf" points="608,-0.5 608,-19.5 668,-19.5 668,-0.5 608,-0.5"/>
<text text-anchor="middle" x="638" y="-7.5" font-family="Helvetica,sans-Serif" font-size="10.00">iostream</text>
</a>
</g>
</g>
<!-- Node9&#45;&gt;Node11 -->
<g id="edge14" class="edge">
<title>Node9&#45;&gt;Node11</title>
<path fill="none" stroke="midnightblue" d="M525.55,-112.36C538.68,-103.75 558.9,-89.85 575,-76 592.76,-60.72 611.19,-41.2 623.5,-27.55"/>
<polygon fill="midnightblue" stroke="midnightblue" points="626.27,-29.7 630.31,-19.91 621.04,-25.05 626.27,-29.7"/>
</g>
<!-- Node12 -->
<g id="node12" class="node">
<title>Node12</title>
<g id="a_node12"><a xlink:href="algebra_2eigen_8hpp.html" target="_top" xlink:title=" ">
<polygon fill="white" stroke="black" points="284.5,-56.5 284.5,-75.5 413.5,-75.5 413.5,-56.5 284.5,-56.5"/>
<text text-anchor="middle" x="349" y="-63.5" font-family="Helvetica,sans-Serif" font-size="10.00">mini/algebra/eigen.hpp</text>
</a>
</g>
</g>
<!-- Node9&#45;&gt;Node12 -->
<g id="edge16" class="edge">
<title>Node9&#45;&gt;Node12</title>
<path fill="none" stroke="midnightblue" d="M486.17,-112.44C458.75,-103.36 415.22,-88.94 384.57,-78.78"/>
<polygon fill="midnightblue" stroke="midnightblue" points="385.3,-75.34 374.71,-75.52 383.1,-81.98 385.3,-75.34"/>
</g>
<!-- Node16 -->
<g id="node16" class="node">
<title>Node16</title>
<g id="a_node16"><a xlink:href="root_8hpp.html" target="_top" xlink:title=" ">
<polygon fill="white" stroke="black" points="660,-56.5 660,-75.5 782,-75.5 782,-56.5 660,-56.5"/>
<text text-anchor="middle" x="721" y="-63.5" font-family="Helvetica,sans-Serif" font-size="10.00">mini/algebra/root.hpp</text>
</a>
</g>
</g>
<!-- Node9&#45;&gt;Node16 -->
<g id="edge21" class="edge">
<title>Node9&#45;&gt;Node16</title>
<path fill="none" stroke="midnightblue" d="M545.12,-112.44C581.12,-103.14 638.77,-88.25 678.19,-78.06"/>
<polygon fill="midnightblue" stroke="midnightblue" points="679.23,-81.41 688.04,-75.52 677.48,-74.63 679.23,-81.41"/>
</g>
<!-- Node18 -->
<g id="node18" class="node">
<title>Node18</title>
<g id="a_node18"><a xlink:href="index_8hpp.html" target="_top" xlink:title=" ">
<polygon fill="white" stroke="black" points="432,-56.5 432,-75.5 566,-75.5 566,-56.5 432,-56.5"/>
<text text-anchor="middle" x="499" y="-63.5" font-family="Helvetica,sans-Serif" font-size="10.00">mini/constant/index.hpp</text>
</a>
</g>
</g>
<!-- Node9&#45;&gt;Node18 -->
<g id="edge25" class="edge">
<title>Node9&#45;&gt;Node18</title>
<path fill="none" stroke="midnightblue" d="M509.85,-112.08C508.13,-104.93 505.65,-94.64 503.5,-85.69"/>
<polygon fill="midnightblue" stroke="midnightblue" points="506.85,-84.65 501.11,-75.75 500.04,-86.29 506.85,-84.65"/>
</g>
<!-- Node12&#45;&gt;Node10 -->
<g id="edge18" class="edge">
<title>Node12&#45;&gt;Node10</title>
<path fill="none" stroke="midnightblue" d="M334.7,-56.32C320.82,-47.9 299.51,-34.97 283.2,-25.07"/>
<polygon fill="midnightblue" stroke="midnightblue" points="284.63,-21.85 274.26,-19.65 281,-27.83 284.63,-21.85"/>
</g>
<!-- Node13 -->
<g id="node13" class="node">
<title>Node13</title>
<g id="a_node13"><a xlink:title=" ">
<polygon fill="white" stroke="#bfbfbf" points="518,-0.5 518,-19.5 582,-19.5 582,-0.5 518,-0.5"/>
<text text-anchor="middle" x="550" y="-7.5" font-family="Helvetica,sans-Serif" font-size="10.00">algorithm</text>
</a>
</g>
</g>
<!-- Node12&#45;&gt;Node13 -->
<g id="edge17" class="edge">
<title>Node12&#45;&gt;Node13</title>
<path fill="none" stroke="midnightblue" d="M380.85,-56.44C415.4,-47.16 470.68,-32.31 508.58,-22.13"/>
<polygon fill="midnightblue" stroke="midnightblue" points="509.55,-25.49 518.3,-19.52 507.73,-18.73 509.55,-25.49"/>
</g>
<!-- Node14 -->
<g id="node14" class="node">
<title>Node14</title>
<g id="a_node14"><a xlink:title=" ">
<polygon fill="white" stroke="#bfbfbf" points="397.5,-0.5 397.5,-19.5 446.5,-19.5 446.5,-0.5 397.5,-0.5"/>
<text text-anchor="middle" x="422" y="-7.5" font-family="Helvetica,sans-Serif" font-size="10.00">cstdlib</text>
</a>
</g>
</g>
<!-- Node12&#45;&gt;Node14 -->
<g id="edge19" class="edge">
<title>Node12&#45;&gt;Node14</title>
<path fill="none" stroke="midnightblue" d="M360.73,-56.32C371.84,-48.11 388.74,-35.6 401.98,-25.81"/>
<polygon fill="midnightblue" stroke="midnightblue" points="404.1,-28.59 410.06,-19.83 399.94,-22.97 404.1,-28.59"/>
</g>
<!-- Node15 -->
<g id="node15" class="node">
<title>Node15</title>
<g id="a_node15"><a xlink:title=" ">
<polygon fill="white" stroke="#bfbfbf" points="305,-0.5 305,-19.5 379,-19.5 379,-0.5 305,-0.5"/>
<text text-anchor="middle" x="342" y="-7.5" font-family="Helvetica,sans-Serif" font-size="10.00">Eigen/Eigen</text>
</a>
</g>
</g>
<!-- Node12&#45;&gt;Node15 -->
<g id="edge20" class="edge">
<title>Node12&#45;&gt;Node15</title>
<path fill="none" stroke="midnightblue" d="M347.84,-56.08C346.92,-48.93 345.58,-38.64 344.42,-29.69"/>
<polygon fill="midnightblue" stroke="midnightblue" points="347.89,-29.22 343.13,-19.75 340.95,-30.12 347.89,-29.22"/>
</g>
<!-- Node16&#45;&gt;Node8 -->
<g id="edge22" class="edge">
<title>Node16&#45;&gt;Node8</title>
<path fill="none" stroke="midnightblue" d="M747.3,-56.44C776.09,-47.08 822.32,-32.04 853.64,-21.85"/>
<polygon fill="midnightblue" stroke="midnightblue" points="854.81,-25.15 863.24,-18.73 852.65,-18.49 854.81,-25.15"/>
</g>
<!-- Node16&#45;&gt;Node11 -->
<g id="edge23" class="edge">
<title>Node16&#45;&gt;Node11</title>
<path fill="none" stroke="midnightblue" d="M707.66,-56.32C694.84,-47.98 675.22,-35.21 660.06,-25.35"/>
<polygon fill="midnightblue" stroke="midnightblue" points="661.59,-22.17 651.3,-19.65 657.78,-28.04 661.59,-22.17"/>
</g>
<!-- Node17 -->
<g id="node17" class="node">
<title>Node17</title>
<g id="a_node17"><a xlink:title=" ">
<polygon fill="white" stroke="#bfbfbf" points="731.5,-0.5 731.5,-19.5 800.5,-19.5 800.5,-0.5 731.5,-0.5"/>
<text text-anchor="middle" x="766" y="-7.5" font-family="Helvetica,sans-Serif" font-size="10.00">type_traits</text>
</a>
</g>
</g>
<!-- Node16&#45;&gt;Node17 -->
<g id="edge24" class="edge">
<title>Node16&#45;&gt;Node17</title>
<path fill="none" stroke="midnightblue" d="M728.43,-56.08C734.85,-48.38 744.31,-37.03 752.12,-27.65"/>
<polygon fill="midnightblue" stroke="midnightblue" points="754.99,-29.67 758.71,-19.75 749.62,-25.19 754.99,-29.67"/>
</g>
<!-- Node19&#45;&gt;Node2 -->
<g id="edge27" class="edge">
<title>Node19&#45;&gt;Node2</title>
<path fill="none" stroke="midnightblue" d="M860.84,-168.37C868.82,-150.46 887.33,-108.92 898,-84.95"/>
<polygon fill="midnightblue" stroke="midnightblue" points="901.3,-86.15 902.17,-75.59 894.91,-83.3 901.3,-86.15"/>
</g>
<!-- Node19&#45;&gt;Node6 -->
<g id="edge29" class="edge">
<title>Node19&#45;&gt;Node6</title>
<path fill="none" stroke="midnightblue" d="M876.65,-168.44C896.96,-159.6 928.9,-145.69 952.1,-135.59"/>
<polygon fill="midnightblue" stroke="midnightblue" points="953.67,-138.72 961.44,-131.52 950.88,-132.3 953.67,-138.72"/>
</g>
<!-- Node19&#45;&gt;Node8 -->
<g id="edge31" class="edge">
<title>Node19&#45;&gt;Node8</title>
<path fill="none" stroke="midnightblue" d="M868.76,-168.33C888.97,-152.6 929.58,-117.16 945,-76 948.12,-67.68 948.91,-63.98 945,-56 938.48,-42.68 925.9,-32.18 914.13,-24.68"/>
<polygon fill="midnightblue" stroke="midnightblue" points="915.78,-21.59 905.39,-19.53 912.23,-27.62 915.78,-21.59"/>
</g>
<!-- Node19&#45;&gt;Node9 -->
<g id="edge32" class="edge">
<title>Node19&#45;&gt;Node9</title>
<path fill="none" stroke="midnightblue" d="M802.33,-168.44C741.01,-158.85 641.64,-143.29 576.55,-133.1"/>
<polygon fill="midnightblue" stroke="midnightblue" points="576.83,-129.61 566.41,-131.52 575.75,-136.52 576.83,-129.61"/>
</g>
<!-- Node19&#45;&gt;Node13 -->
<g id="edge28" class="edge">
<title>Node19&#45;&gt;Node13</title>
<path fill="none" stroke="midnightblue" d="M837.59,-168.4C800.61,-151.81 717.77,-113.69 651,-76 622.5,-59.91 590.98,-39.12 570.86,-25.43"/>
<polygon fill="midnightblue" stroke="midnightblue" points="572.69,-22.45 562.46,-19.69 568.74,-28.23 572.69,-22.45"/>
</g>
<!-- Node19&#45;&gt;Node17 -->
<g id="edge30" class="edge">
<title>Node19&#45;&gt;Node17</title>
<path fill="none" stroke="midnightblue" d="M852.38,-168.48C841.65,-148.7 814.19,-98.13 791,-56 785.98,-46.88 780.36,-36.75 775.71,-28.41"/>
<polygon fill="midnightblue" stroke="midnightblue" points="778.74,-26.65 770.81,-19.62 772.62,-30.05 778.74,-26.65"/>
</g>
</g>
</svg>
