<?xml version="1.0" encoding="UTF-8" standalone="no"?>
<!DOCTYPE svg PUBLIC "-//W3C//DTD SVG 1.1//EN"
 "http://www.w3.org/Graphics/SVG/1.1/DTD/svg11.dtd">
<!-- Generated by graphviz version 2.43.0 (0)
 -->
<!-- Title: include/mini/coordinate/face.hpp Pages: 1 -->
<svg width="1118pt" height="207pt"
 viewBox="0.00 0.00 1118.00 207.00" xmlns="http://www.w3.org/2000/svg" xmlns:xlink="http://www.w3.org/1999/xlink">
<g id="graph0" class="graph" transform="scale(1 1) rotate(0) translate(4 203)">
<title>include/mini/coordinate/face.hpp</title>
<polygon fill="white" stroke="transparent" points="-4,4 -4,-203 1114,-203 1114,4 -4,4"/>
<!-- Node1 -->
<g id="node1" class="node">
<title>Node1</title>
<g id="a_node1"><a xlink:title=" ">
<polygon fill="#bfbfbf" stroke="black" points="357.5,-168.5 357.5,-198.5 488.5,-198.5 488.5,-168.5 357.5,-168.5"/>
<text text-anchor="start" x="365.5" y="-186.5" font-family="Helvetica,sans-Serif" font-size="10.00">include/mini/coordinate</text>
<text text-anchor="middle" x="423" y="-175.5" font-family="Helvetica,sans-Serif" font-size="10.00">/face.hpp</text>
</a>
</g>
</g>
<!-- Node2 -->
<g id="node2" class="node">
<title>Node2</title>
<g id="a_node2"><a xlink:title=" ">
<polygon fill="white" stroke="#bfbfbf" points="0,-56.5 0,-75.5 60,-75.5 60,-56.5 0,-56.5"/>
<text text-anchor="middle" x="30" y="-63.5" font-family="Helvetica,sans-Serif" font-size="10.00">concepts</text>
</a>
</g>
</g>
<!-- Node1&#45;&gt;Node2 -->
<g id="edge1" class="edge">
<title>Node1&#45;&gt;Node2</title>
<path fill="none" stroke="midnightblue" d="M357.29,-179.28C269.6,-173.93 119.98,-160.81 74,-132 56.55,-121.07 44.37,-100.39 37.32,-85.28"/>
<polygon fill="midnightblue" stroke="midnightblue" points="40.44,-83.69 33.25,-75.9 34.02,-86.47 40.44,-83.69"/>
</g>
<!-- Node3 -->
<g id="node3" class="node">
<title>Node3</title>
<g id="a_node3"><a xlink:title=" ">
<polygon fill="white" stroke="#bfbfbf" points="805,-0.5 805,-19.5 869,-19.5 869,-0.5 805,-0.5"/>
<text text-anchor="middle" x="837" y="-7.5" font-family="Helvetica,sans-Serif" font-size="10.00">algorithm</text>
</a>
</g>
</g>
<!-- Node1&#45;&gt;Node3 -->
<g id="edge2" class="edge">
<title>Node1&#45;&gt;Node3</title>
<path fill="none" stroke="midnightblue" d="M488.56,-179.11C615.65,-171.02 888.04,-145.76 945,-76 967.36,-48.61 918.48,-29.91 879.38,-19.83"/>
<polygon fill="midnightblue" stroke="midnightblue" points="879.73,-16.31 869.19,-17.34 878.07,-23.11 879.73,-16.31"/>
</g>
<!-- Node4 -->
<g id="node4" class="node">
<title>Node4</title>
<g id="a_node4"><a xlink:title=" ">
<polygon fill="white" stroke="#bfbfbf" points="992,-112.5 992,-131.5 1034,-131.5 1034,-112.5 992,-112.5"/>
<text text-anchor="middle" x="1013" y="-119.5" font-family="Helvetica,sans-Serif" font-size="10.00">array</text>
</a>
</g>
</g>
<!-- Node1&#45;&gt;Node4 -->
<g id="edge3" class="edge">
<title>Node1&#45;&gt;Node4</title>
<path fill="none" stroke="midnightblue" d="M488.81,-179.94C593.18,-175.12 802.82,-162.29 978,-132 979.25,-131.78 980.52,-131.54 981.81,-131.29"/>
<polygon fill="midnightblue" stroke="midnightblue" points="982.66,-134.68 991.65,-129.07 981.12,-127.86 982.66,-134.68"/>
</g>
<!-- Node5 -->
<g id="node5" class="node">
<title>Node5</title>
<g id="a_node5"><a xlink:title=" ">
<polygon fill="white" stroke="#bfbfbf" points="1052,-112.5 1052,-131.5 1110,-131.5 1110,-112.5 1052,-112.5"/>
<text text-anchor="middle" x="1081" y="-119.5" font-family="Helvetica,sans-Serif" font-size="10.00">memory</text>
</a>
</g>
</g>
<!-- Node1&#45;&gt;Node5 -->
<g id="edge4" class="edge">
<title>Node1&#45;&gt;Node5</title>
<path fill="none" stroke="midnightblue" d="M488.55,-180.42C600.27,-176.16 834.75,-164.12 1041.49,-132.01"/>
<polygon fill="midnightblue" stroke="midnightblue" points="1042.29,-135.43 1051.63,-130.42 1041.21,-128.52 1042.29,-135.43"/>
</g>
<!-- Node6 -->
<g id="node6" class="node">
<title>Node6</title>
<g id="a_node6"><a xlink:title=" ">
<polygon fill="white" stroke="#bfbfbf" points="193.5,-0.5 193.5,-19.5 262.5,-19.5 262.5,-0.5 193.5,-0.5"/>
<text text-anchor="middle" x="228" y="-7.5" font-family="Helvetica,sans-Serif" font-size="10.00">type_traits</text>
</a>
</g>
</g>
<!-- Node1&#45;&gt;Node6 -->
<g id="edge5" class="edge">
<title>Node1&#45;&gt;Node6</title>
<path fill="none" stroke="midnightblue" d="M357.29,-173.28C300.35,-161.44 221.27,-134.85 183,-76 171.59,-58.46 189.73,-38.76 206.26,-25.7"/>
<polygon fill="midnightblue" stroke="midnightblue" points="208.65,-28.28 214.6,-19.51 204.48,-22.66 208.65,-28.28"/>
</g>
<!-- Node7 -->
<g id="node7" class="node">
<title>Node7</title>
<g id="a_node7"><a xlink:title=" ">
<polygon fill="white" stroke="#bfbfbf" points="102.5,-0.5 102.5,-19.5 149.5,-19.5 149.5,-0.5 102.5,-0.5"/>
<text text-anchor="middle" x="126" y="-7.5" font-family="Helvetica,sans-Serif" font-size="10.00">vector</text>
</a>
</g>
</g>
<!-- Node1&#45;&gt;Node7 -->
<g id="edge6" class="edge">
<title>Node1&#45;&gt;Node7</title>
<path fill="none" stroke="midnightblue" d="M357.23,-175.92C314.08,-169.44 257.6,-156.73 213,-132 181.94,-114.78 176.44,-105.04 156,-76 145.73,-61.4 137.54,-42.73 132.33,-29.14"/>
<polygon fill="midnightblue" stroke="midnightblue" points="135.53,-27.71 128.81,-19.52 128.96,-30.11 135.53,-27.71"/>
</g>
<!-- Node8 -->
<g id="node8" class="node">
<title>Node8</title>
<g id="a_node8"><a xlink:href="coordinate_2element_8hpp.html" target="_top" xlink:title=" ">
<polygon fill="white" stroke="black" points="344,-112.5 344,-131.5 502,-131.5 502,-112.5 344,-112.5"/>
<text text-anchor="middle" x="423" y="-119.5" font-family="Helvetica,sans-Serif" font-size="10.00">mini/coordinate/element.hpp</text>
</a>
</g>
</g>
<!-- Node1&#45;&gt;Node8 -->
<g id="edge7" class="edge">
<title>Node1&#45;&gt;Node8</title>
<path fill="none" stroke="midnightblue" d="M423,-168.4C423,-160.47 423,-150.46 423,-141.86"/>
<polygon fill="midnightblue" stroke="midnightblue" points="426.5,-141.66 423,-131.66 419.5,-141.66 426.5,-141.66"/>
</g>
<!-- Node8&#45;&gt;Node2 -->
<g id="edge8" class="edge">
<title>Node8&#45;&gt;Node2</title>
<path fill="none" stroke="midnightblue" d="M360.73,-112.44C279.2,-101.24 138.64,-81.93 70.02,-72.5"/>
<polygon fill="midnightblue" stroke="midnightblue" points="70.42,-69.02 60.04,-71.13 69.47,-75.96 70.42,-69.02"/>
</g>
<!-- Node8&#45;&gt;Node7 -->
<g id="edge14" class="edge">
<title>Node8&#45;&gt;Node7</title>
<path fill="none" stroke="midnightblue" d="M343.95,-119.16C294.85,-114.98 231.98,-103.92 183,-76 162.92,-64.55 146.36,-43.35 136.37,-28.27"/>
<polygon fill="midnightblue" stroke="midnightblue" points="139.32,-26.4 131.01,-19.82 133.41,-30.14 139.32,-26.4"/>
</g>
<!-- Node9 -->
<g id="node9" class="node">
<title>Node9</title>
<g id="a_node9"><a xlink:title=" ">
<polygon fill="white" stroke="#bfbfbf" points="370,-56.5 370,-75.5 422,-75.5 422,-56.5 370,-56.5"/>
<text text-anchor="middle" x="396" y="-63.5" font-family="Helvetica,sans-Serif" font-size="10.00">cassert</text>
</a>
</g>
</g>
<!-- Node8&#45;&gt;Node9 -->
<g id="edge9" class="edge">
<title>Node8&#45;&gt;Node9</title>
<path fill="none" stroke="midnightblue" d="M418.54,-112.08C414.85,-104.69 409.48,-93.95 404.91,-84.81"/>
<polygon fill="midnightblue" stroke="midnightblue" points="407.98,-83.13 400.38,-75.75 401.72,-86.26 407.98,-83.13"/>
</g>
<!-- Node10 -->
<g id="node10" class="node">
<title>Node10</title>
<g id="a_node10"><a xlink:title=" ">
<polygon fill="white" stroke="#bfbfbf" points="433.5,-0.5 433.5,-19.5 480.5,-19.5 480.5,-0.5 433.5,-0.5"/>
<text text-anchor="middle" x="457" y="-7.5" font-family="Helvetica,sans-Serif" font-size="10.00">cmath</text>
</a>
</g>
</g>
<!-- Node8&#45;&gt;Node10 -->
<g id="edge10" class="edge">
<title>Node8&#45;&gt;Node10</title>
<path fill="none" stroke="midnightblue" d="M425.67,-112.37C431.18,-94.54 443.93,-53.3 451.35,-29.27"/>
<polygon fill="midnightblue" stroke="midnightblue" points="454.74,-30.18 454.34,-19.59 448.05,-28.11 454.74,-30.18"/>
</g>
<!-- Node11 -->
<g id="node11" class="node">
<title>Node11</title>
<g id="a_node11"><a xlink:title=" ">
<polygon fill="white" stroke="#bfbfbf" points="626,-56.5 626,-75.5 682,-75.5 682,-56.5 626,-56.5"/>
<text text-anchor="middle" x="654" y="-63.5" font-family="Helvetica,sans-Serif" font-size="10.00">numeric</text>
</a>
</g>
</g>
<!-- Node8&#45;&gt;Node11 -->
<g id="edge11" class="edge">
<title>Node8&#45;&gt;Node11</title>
<path fill="none" stroke="midnightblue" d="M459.65,-112.49C498.48,-103.47 561.57,-88.79 616,-76 616.1,-75.98 616.2,-75.95 616.3,-75.93"/>
<polygon fill="midnightblue" stroke="midnightblue" points="616.85,-79.4 625.78,-73.7 615.24,-72.58 616.85,-79.4"/>
</g>
<!-- Node12 -->
<g id="node12" class="node">
<title>Node12</title>
<g id="a_node12"><a xlink:title=" ">
<polygon fill="white" stroke="#bfbfbf" points="700.5,-56.5 700.5,-75.5 783.5,-75.5 783.5,-56.5 700.5,-56.5"/>
<text text-anchor="middle" x="742" y="-63.5" font-family="Helvetica,sans-Serif" font-size="10.00">initializer_list</text>
</a>
</g>
</g>
<!-- Node8&#45;&gt;Node12 -->
<g id="edge12" class="edge">
<title>Node8&#45;&gt;Node12</title>
<path fill="none" stroke="midnightblue" d="M474.4,-112.5C526.26,-103.89 608.91,-90.1 690.33,-76.1"/>
<polygon fill="midnightblue" stroke="midnightblue" points="690.99,-79.54 700.26,-74.4 689.81,-72.64 690.99,-79.54"/>
</g>
<!-- Node13 -->
<g id="node13" class="node">
<title>Node13</title>
<g id="a_node13"><a xlink:title=" ">
<polygon fill="white" stroke="#bfbfbf" points="309,-0.5 309,-19.5 369,-19.5 369,-0.5 309,-0.5"/>
<text text-anchor="middle" x="339" y="-7.5" font-family="Helvetica,sans-Serif" font-size="10.00">iostream</text>
</a>
</g>
</g>
<!-- Node8&#45;&gt;Node13 -->
<g id="edge13" class="edge">
<title>Node8&#45;&gt;Node13</title>
<path fill="none" stroke="midnightblue" d="M405.72,-112.35C391.83,-104.58 372.75,-91.96 361,-76 350.86,-62.22 345.17,-43.45 342.13,-29.62"/>
<polygon fill="midnightblue" stroke="midnightblue" points="345.56,-28.93 340.23,-19.78 338.69,-30.26 345.56,-28.93"/>
</g>
<!-- Node14 -->
<g id="node14" class="node">
<title>Node14</title>
<g id="a_node14"><a xlink:href="algebra_2eigen_8hpp.html" target="_top" xlink:title=" ">
<polygon fill="white" stroke="black" points="478.5,-56.5 478.5,-75.5 607.5,-75.5 607.5,-56.5 478.5,-56.5"/>
<text text-anchor="middle" x="543" y="-63.5" font-family="Helvetica,sans-Serif" font-size="10.00">mini/algebra/eigen.hpp</text>
</a>
</g>
</g>
<!-- Node8&#45;&gt;Node14 -->
<g id="edge15" class="edge">
<title>Node8&#45;&gt;Node14</title>
<path fill="none" stroke="midnightblue" d="M442.01,-112.44C461.59,-103.64 492.31,-89.81 514.73,-79.72"/>
<polygon fill="midnightblue" stroke="midnightblue" points="516.39,-82.81 524.07,-75.52 513.52,-76.43 516.39,-82.81"/>
</g>
<!-- Node17 -->
<g id="node17" class="node">
<title>Node17</title>
<g id="a_node17"><a xlink:href="root_8hpp.html" target="_top" xlink:title=" ">
<polygon fill="white" stroke="black" points="192,-56.5 192,-75.5 314,-75.5 314,-56.5 192,-56.5"/>
<text text-anchor="middle" x="253" y="-63.5" font-family="Helvetica,sans-Serif" font-size="10.00">mini/algebra/root.hpp</text>
</a>
</g>
</g>
<!-- Node8&#45;&gt;Node17 -->
<g id="edge20" class="edge">
<title>Node8&#45;&gt;Node17</title>
<path fill="none" stroke="midnightblue" d="M396.06,-112.44C367.34,-103.32 321.67,-88.81 289.68,-78.65"/>
<polygon fill="midnightblue" stroke="midnightblue" points="290.4,-75.21 279.81,-75.52 288.28,-81.88 290.4,-75.21"/>
</g>
<!-- Node18 -->
<g id="node18" class="node">
<title>Node18</title>
<g id="a_node18"><a xlink:href="index_8hpp.html" target="_top" xlink:title=" ">
<polygon fill="white" stroke="black" points="802,-56.5 802,-75.5 936,-75.5 936,-56.5 802,-56.5"/>
<text text-anchor="middle" x="869" y="-63.5" font-family="Helvetica,sans-Serif" font-size="10.00">mini/constant/index.hpp</text>
</a>
</g>
</g>
<!-- Node8&#45;&gt;Node18 -->
<g id="edge24" class="edge">
<title>Node8&#45;&gt;Node18</title>
<path fill="none" stroke="midnightblue" d="M493.67,-112.44C574.98,-102.6 708.05,-86.49 791.96,-76.33"/>
<polygon fill="midnightblue" stroke="midnightblue" points="792.44,-79.8 801.94,-75.12 791.59,-72.85 792.44,-79.8"/>
</g>
<!-- Node14&#45;&gt;Node3 -->
<g id="edge16" class="edge">
<title>Node14&#45;&gt;Node3</title>
<path fill="none" stroke="midnightblue" d="M589.59,-56.44C646.02,-46.08 740.27,-28.77 794.7,-18.77"/>
<polygon fill="midnightblue" stroke="midnightblue" points="795.51,-22.18 804.71,-16.93 794.24,-15.29 795.51,-22.18"/>
</g>
<!-- Node14&#45;&gt;Node10 -->
<g id="edge17" class="edge">
<title>Node14&#45;&gt;Node10</title>
<path fill="none" stroke="midnightblue" d="M529.18,-56.32C515.77,-47.9 495.18,-34.97 479.41,-25.07"/>
<polygon fill="midnightblue" stroke="midnightblue" points="481.11,-22.01 470.78,-19.65 477.39,-27.94 481.11,-22.01"/>
</g>
<!-- Node15 -->
<g id="node15" class="node">
<title>Node15</title>
<g id="a_node15"><a xlink:title=" ">
<polygon fill="white" stroke="#bfbfbf" points="511.5,-0.5 511.5,-19.5 560.5,-19.5 560.5,-0.5 511.5,-0.5"/>
<text text-anchor="middle" x="536" y="-7.5" font-family="Helvetica,sans-Serif" font-size="10.00">cstdlib</text>
</a>
</g>
</g>
<!-- Node14&#45;&gt;Node15 -->
<g id="edge18" class="edge">
<title>Node14&#45;&gt;Node15</title>
<path fill="none" stroke="midnightblue" d="M541.84,-56.08C540.92,-48.93 539.58,-38.64 538.42,-29.69"/>
<polygon fill="midnightblue" stroke="midnightblue" points="541.89,-29.22 537.13,-19.75 534.95,-30.12 541.89,-29.22"/>
</g>
<!-- Node16 -->
<g id="node16" class="node">
<title>Node16</title>
<g id="a_node16"><a xlink:title=" ">
<polygon fill="white" stroke="#bfbfbf" points="579,-0.5 579,-19.5 653,-19.5 653,-0.5 579,-0.5"/>
<text text-anchor="middle" x="616" y="-7.5" font-family="Helvetica,sans-Serif" font-size="10.00">Eigen/Eigen</text>
</a>
</g>
</g>
<!-- Node14&#45;&gt;Node16 -->
<g id="edge19" class="edge">
<title>Node14&#45;&gt;Node16</title>
<path fill="none" stroke="midnightblue" d="M554.73,-56.32C565.84,-48.11 582.74,-35.6 595.98,-25.81"/>
<polygon fill="midnightblue" stroke="midnightblue" points="598.1,-28.59 604.06,-19.83 593.94,-22.97 598.1,-28.59"/>
</g>
<!-- Node17&#45;&gt;Node6 -->
<g id="edge23" class="edge">
<title>Node17&#45;&gt;Node6</title>
<path fill="none" stroke="midnightblue" d="M248.87,-56.08C245.49,-48.77 240.58,-38.18 236.38,-29.1"/>
<polygon fill="midnightblue" stroke="midnightblue" points="239.43,-27.36 232.05,-19.75 233.08,-30.3 239.43,-27.36"/>
</g>
<!-- Node17&#45;&gt;Node7 -->
<g id="edge21" class="edge">
<title>Node17&#45;&gt;Node7</title>
<path fill="none" stroke="midnightblue" d="M232.88,-56.44C211.98,-47.56 179.07,-33.56 155.28,-23.45"/>
<polygon fill="midnightblue" stroke="midnightblue" points="156.6,-20.21 146.03,-19.52 153.86,-26.65 156.6,-20.21"/>
</g>
<!-- Node17&#45;&gt;Node13 -->
<g id="edge22" class="edge">
<title>Node17&#45;&gt;Node13</title>
<path fill="none" stroke="midnightblue" d="M266.82,-56.32C280.23,-47.9 300.82,-34.97 316.59,-25.07"/>
<polygon fill="midnightblue" stroke="midnightblue" points="318.61,-27.94 325.22,-19.65 314.89,-22.01 318.61,-27.94"/>
</g>
</g>
</svg>
