<?xml version="1.0" encoding="UTF-8" standalone="no"?>
<!DOCTYPE svg PUBLIC "-//W3C//DTD SVG 1.1//EN"
 "http://www.w3.org/Graphics/SVG/1.1/DTD/svg11.dtd">
<!-- Generated by graphviz version 2.43.0 (0)
 -->
<!-- Title: include/mini/coordinate/element.hpp Pages: 1 -->
<svg width="1312pt" height="441pt"
 viewBox="0.00 0.00 1311.77 441.00" xmlns="http://www.w3.org/2000/svg" xmlns:xlink="http://www.w3.org/1999/xlink">
<g id="graph0" class="graph" transform="scale(1 1) rotate(0) translate(4 437)">
<title>include/mini/coordinate/element.hpp</title>
<polygon fill="white" stroke="transparent" points="-4,4 -4,-437 1307.77,-437 1307.77,4 -4,4"/>
<!-- Node1 -->
<g id="node1" class="node">
<title>Node1</title>
<g id="a_node1"><a xlink:title=" ">
<polygon fill="#bfbfbf" stroke="black" points="484.77,-402.5 484.77,-432.5 615.77,-432.5 615.77,-402.5 484.77,-402.5"/>
<text text-anchor="start" x="492.77" y="-420.5" font-family="Helvetica,sans-Serif" font-size="10.00">include/mini/coordinate</text>
<text text-anchor="middle" x="550.27" y="-409.5" font-family="Helvetica,sans-Serif" font-size="10.00">/element.hpp</text>
</a>
</g>
</g>
<!-- Node2 -->
<g id="node2" class="node">
<title>Node2</title>
<g id="a_node2"><a xlink:href="coordinate_2cell_8hpp.html" target="_top" xlink:title=" ">
<polygon fill="white" stroke="black" points="410.77,-335.5 410.77,-365.5 541.77,-365.5 541.77,-335.5 410.77,-335.5"/>
<text text-anchor="start" x="418.77" y="-353.5" font-family="Helvetica,sans-Serif" font-size="10.00">include/mini/coordinate</text>
<text text-anchor="middle" x="476.27" y="-342.5" font-family="Helvetica,sans-Serif" font-size="10.00">/cell.hpp</text>
</a>
</g>
</g>
<!-- Node1&#45;&gt;Node2 -->
<g id="edge1" class="edge">
<title>Node1&#45;&gt;Node2</title>
<path fill="none" stroke="midnightblue" d="M526.47,-395.6C515.3,-385.78 502.28,-374.34 492.29,-365.58"/>
<polygon fill="midnightblue" stroke="midnightblue" points="524.39,-398.43 534.21,-402.4 529.01,-393.17 524.39,-398.43"/>
</g>
<!-- Node3 -->
<g id="node3" class="node">
<title>Node3</title>
<g id="a_node3"><a xlink:href="coordinate_2hexahedron_8hpp.html" target="_top" xlink:title=" ">
<polygon fill="white" stroke="black" points="316.77,-268.5 316.77,-298.5 447.77,-298.5 447.77,-268.5 316.77,-268.5"/>
<text text-anchor="start" x="324.77" y="-286.5" font-family="Helvetica,sans-Serif" font-size="10.00">include/mini/coordinate</text>
<text text-anchor="middle" x="382.27" y="-275.5" font-family="Helvetica,sans-Serif" font-size="10.00">/hexahedron.hpp</text>
</a>
</g>
</g>
<!-- Node1&#45;&gt;Node3 -->
<g id="edge39" class="edge">
<title>Node1&#45;&gt;Node3</title>
<path fill="none" stroke="midnightblue" d="M474.71,-406.34C448.15,-399.16 420.22,-386.9 401.27,-366 384.38,-347.38 381.64,-316.71 381.64,-298.77"/>
<polygon fill="midnightblue" stroke="midnightblue" points="473.87,-409.74 484.42,-408.77 475.56,-402.95 473.87,-409.74"/>
</g>
<!-- Node5 -->
<g id="node5" class="node">
<title>Node5</title>
<g id="a_node5"><a xlink:href="polynomial_2hexahedron_8hpp.html" target="_top" xlink:title=" ">
<polygon fill="white" stroke="black" points="315.27,-134.5 315.27,-164.5 449.27,-164.5 449.27,-134.5 315.27,-134.5"/>
<text text-anchor="start" x="323.27" y="-152.5" font-family="Helvetica,sans-Serif" font-size="10.00">include/mini/polynomial</text>
<text text-anchor="middle" x="382.27" y="-141.5" font-family="Helvetica,sans-Serif" font-size="10.00">/hexahedron.hpp</text>
</a>
</g>
</g>
<!-- Node1&#45;&gt;Node5 -->
<g id="edge48" class="edge">
<title>Node1&#45;&gt;Node5</title>
<path fill="none" stroke="midnightblue" d="M474.36,-412.02C338.61,-402.18 63.34,-373.33 9.27,-299 -1.19,-284.63 -5.73,-220.72 12.27,-201 51.72,-157.79 219.48,-150.41 315,-149.81"/>
<polygon fill="midnightblue" stroke="midnightblue" points="474.46,-415.53 484.68,-412.75 474.95,-408.55 474.46,-415.53"/>
</g>
<!-- Node9 -->
<g id="node9" class="node">
<title>Node9</title>
<g id="a_node9"><a xlink:href="coordinate_2pyramid_8hpp.html" target="_top" xlink:title=" ">
<polygon fill="white" stroke="black" points="18.77,-268.5 18.77,-298.5 149.77,-298.5 149.77,-268.5 18.77,-268.5"/>
<text text-anchor="start" x="26.77" y="-286.5" font-family="Helvetica,sans-Serif" font-size="10.00">include/mini/coordinate</text>
<text text-anchor="middle" x="84.27" y="-275.5" font-family="Helvetica,sans-Serif" font-size="10.00">/pyramid.hpp</text>
</a>
</g>
</g>
<!-- Node1&#45;&gt;Node9 -->
<g id="edge40" class="edge">
<title>Node1&#45;&gt;Node9</title>
<path fill="none" stroke="midnightblue" d="M474.75,-402.7C428.61,-393.65 368.62,-380.78 316.27,-366 245.6,-346.05 165.17,-316.12 119.99,-298.62"/>
<polygon fill="midnightblue" stroke="midnightblue" points="474.18,-406.15 484.67,-404.63 475.52,-399.28 474.18,-406.15"/>
</g>
<!-- Node11 -->
<g id="node11" class="node">
<title>Node11</title>
<g id="a_node11"><a xlink:href="coordinate_2tetrahedron_8hpp.html" target="_top" xlink:title=" ">
<polygon fill="white" stroke="black" points="167.77,-268.5 167.77,-298.5 298.77,-298.5 298.77,-268.5 167.77,-268.5"/>
<text text-anchor="start" x="175.77" y="-286.5" font-family="Helvetica,sans-Serif" font-size="10.00">include/mini/coordinate</text>
<text text-anchor="middle" x="233.27" y="-275.5" font-family="Helvetica,sans-Serif" font-size="10.00">/tetrahedron.hpp</text>
</a>
</g>
</g>
<!-- Node1&#45;&gt;Node11 -->
<g id="edge42" class="edge">
<title>Node1&#45;&gt;Node11</title>
<path fill="none" stroke="midnightblue" d="M482.96,-399.73C451.79,-391.09 414.59,-379.52 382.27,-366 335.48,-346.43 284.31,-316.36 255.76,-298.74"/>
<polygon fill="midnightblue" stroke="midnightblue" points="482.28,-403.17 492.85,-402.43 484.13,-396.42 482.28,-403.17"/>
</g>
<!-- Node13 -->
<g id="node13" class="node">
<title>Node13</title>
<g id="a_node13"><a xlink:href="coordinate_2wedge_8hpp.html" target="_top" xlink:title=" ">
<polygon fill="white" stroke="black" points="650.77,-268.5 650.77,-298.5 781.77,-298.5 781.77,-268.5 650.77,-268.5"/>
<text text-anchor="start" x="658.77" y="-286.5" font-family="Helvetica,sans-Serif" font-size="10.00">include/mini/coordinate</text>
<text text-anchor="middle" x="716.27" y="-275.5" font-family="Helvetica,sans-Serif" font-size="10.00">/wedge.hpp</text>
</a>
</g>
</g>
<!-- Node1&#45;&gt;Node13 -->
<g id="edge44" class="edge">
<title>Node1&#45;&gt;Node13</title>
<path fill="none" stroke="midnightblue" d="M625.85,-405.83C651.75,-398.59 678.83,-386.42 697.27,-366 714.11,-347.35 716.87,-316.68 716.88,-298.76"/>
<polygon fill="midnightblue" stroke="midnightblue" points="624.81,-402.49 616,-408.38 626.56,-409.27 624.81,-402.49"/>
</g>
<!-- Node20 -->
<g id="node20" class="node">
<title>Node20</title>
<g id="a_node20"><a xlink:href="coordinate_2face_8hpp.html" target="_top" xlink:title=" ">
<polygon fill="white" stroke="black" points="979.77,-335.5 979.77,-365.5 1110.77,-365.5 1110.77,-335.5 979.77,-335.5"/>
<text text-anchor="start" x="987.77" y="-353.5" font-family="Helvetica,sans-Serif" font-size="10.00">include/mini/coordinate</text>
<text text-anchor="middle" x="1045.27" y="-342.5" font-family="Helvetica,sans-Serif" font-size="10.00">/face.hpp</text>
</a>
</g>
</g>
<!-- Node1&#45;&gt;Node20 -->
<g id="edge26" class="edge">
<title>Node1&#45;&gt;Node20</title>
<path fill="none" stroke="midnightblue" d="M625.99,-406.56C722.62,-393.87 888.16,-372.13 979.66,-360.12"/>
<polygon fill="midnightblue" stroke="midnightblue" points="625.46,-403.1 616,-407.87 626.37,-410.04 625.46,-403.1"/>
</g>
<!-- Node21 -->
<g id="node21" class="node">
<title>Node21</title>
<g id="a_node21"><a xlink:href="coordinate_2quadrangle_8hpp.html" target="_top" xlink:title=" ">
<polygon fill="white" stroke="black" points="1172.77,-268.5 1172.77,-298.5 1303.77,-298.5 1303.77,-268.5 1172.77,-268.5"/>
<text text-anchor="start" x="1180.77" y="-286.5" font-family="Helvetica,sans-Serif" font-size="10.00">include/mini/coordinate</text>
<text text-anchor="middle" x="1238.27" y="-275.5" font-family="Helvetica,sans-Serif" font-size="10.00">/quadrangle.hpp</text>
</a>
</g>
</g>
<!-- Node1&#45;&gt;Node21 -->
<g id="edge41" class="edge">
<title>Node1&#45;&gt;Node21</title>
<path fill="none" stroke="midnightblue" d="M626.07,-414.57C759.68,-410.38 1031.36,-398.09 1120.27,-366 1161.72,-351.04 1202.26,-317.81 1223.33,-298.72"/>
<polygon fill="midnightblue" stroke="midnightblue" points="625.81,-411.08 615.92,-414.88 626.02,-418.07 625.81,-411.08"/>
</g>
<!-- Node23 -->
<g id="node23" class="node">
<title>Node23</title>
<g id="a_node23"><a xlink:href="coordinate_2triangle_8hpp.html" target="_top" xlink:title=" ">
<polygon fill="white" stroke="black" points="946.77,-268.5 946.77,-298.5 1077.77,-298.5 1077.77,-268.5 946.77,-268.5"/>
<text text-anchor="start" x="954.77" y="-286.5" font-family="Helvetica,sans-Serif" font-size="10.00">include/mini/coordinate</text>
<text text-anchor="middle" x="1012.27" y="-275.5" font-family="Helvetica,sans-Serif" font-size="10.00">/triangle.hpp</text>
</a>
</g>
</g>
<!-- Node1&#45;&gt;Node23 -->
<g id="edge43" class="edge">
<title>Node1&#45;&gt;Node23</title>
<path fill="none" stroke="midnightblue" d="M608.98,-399.72C700.96,-373.45 877.34,-323.05 963.07,-298.56"/>
<polygon fill="midnightblue" stroke="midnightblue" points="607.93,-396.39 599.27,-402.5 609.85,-403.12 607.93,-396.39"/>
</g>
<!-- Node26 -->
<g id="node26" class="node">
<title>Node26</title>
<g id="a_node26"><a xlink:href="integrator_2element_8hpp.html" target="_top" xlink:title=" ">
<polygon fill="white" stroke="black" points="560.27,-335.5 560.27,-365.5 688.27,-365.5 688.27,-335.5 560.27,-335.5"/>
<text text-anchor="start" x="568.27" y="-353.5" font-family="Helvetica,sans-Serif" font-size="10.00">include/mini/integrator</text>
<text text-anchor="middle" x="624.27" y="-342.5" font-family="Helvetica,sans-Serif" font-size="10.00">/element.hpp</text>
</a>
</g>
</g>
<!-- Node1&#45;&gt;Node26 -->
<g id="edge45" class="edge">
<title>Node1&#45;&gt;Node26</title>
<path fill="none" stroke="midnightblue" d="M574.06,-395.6C585.24,-385.78 598.26,-374.34 608.24,-365.58"/>
<polygon fill="midnightblue" stroke="midnightblue" points="571.53,-393.17 566.33,-402.4 576.15,-398.43 571.53,-393.17"/>
</g>
<!-- Node2&#45;&gt;Node3 -->
<g id="edge2" class="edge">
<title>Node2&#45;&gt;Node3</title>
<path fill="none" stroke="midnightblue" d="M447.27,-329.45C432.81,-319.45 415.67,-307.6 402.62,-298.58"/>
<polygon fill="midnightblue" stroke="midnightblue" points="445.66,-332.59 455.87,-335.4 449.64,-326.83 445.66,-332.59"/>
</g>
<!-- Node2&#45;&gt;Node9 -->
<g id="edge9" class="edge">
<title>Node2&#45;&gt;Node9</title>
<path fill="none" stroke="midnightblue" d="M400.6,-338.27C336.09,-328.5 240.95,-313.66 158.27,-299 155.56,-298.52 152.8,-298.02 150.01,-297.51"/>
<polygon fill="midnightblue" stroke="midnightblue" points="400.27,-341.76 410.68,-339.79 401.32,-334.84 400.27,-341.76"/>
</g>
<!-- Node2&#45;&gt;Node11 -->
<g id="edge11" class="edge">
<title>Node2&#45;&gt;Node11</title>
<path fill="none" stroke="midnightblue" d="M414.02,-332.85C374.4,-322.25 323.65,-308.68 286.02,-298.61"/>
<polygon fill="midnightblue" stroke="midnightblue" points="413.28,-336.27 423.84,-335.48 415.08,-329.51 413.28,-336.27"/>
</g>
<!-- Node2&#45;&gt;Node13 -->
<g id="edge13" class="edge">
<title>Node2&#45;&gt;Node13</title>
<path fill="none" stroke="midnightblue" d="M537.75,-332.85C576.88,-322.25 627,-308.68 664.17,-298.61"/>
<polygon fill="midnightblue" stroke="midnightblue" points="536.79,-329.48 528.05,-335.48 538.62,-336.24 536.79,-329.48"/>
</g>
<!-- Node15 -->
<g id="node15" class="node">
<title>Node15</title>
<g id="a_node15"><a xlink:href="integrator_2cell_8hpp.html" target="_top" xlink:title=" ">
<polygon fill="white" stroke="black" points="466.27,-268.5 466.27,-298.5 594.27,-298.5 594.27,-268.5 466.27,-268.5"/>
<text text-anchor="start" x="474.27" y="-286.5" font-family="Helvetica,sans-Serif" font-size="10.00">include/mini/integrator</text>
<text text-anchor="middle" x="530.27" y="-275.5" font-family="Helvetica,sans-Serif" font-size="10.00">/cell.hpp</text>
</a>
</g>
</g>
<!-- Node2&#45;&gt;Node15 -->
<g id="edge15" class="edge">
<title>Node2&#45;&gt;Node15</title>
<path fill="none" stroke="midnightblue" d="M494.59,-327.45C502.52,-317.9 511.57,-307 518.57,-298.58"/>
<polygon fill="midnightblue" stroke="midnightblue" points="491.68,-325.47 487.99,-335.4 497.07,-329.94 491.68,-325.47"/>
</g>
<!-- Node19 -->
<g id="node19" class="node">
<title>Node19</title>
<g id="a_node19"><a xlink:href="part_8hpp.html" target="_top" xlink:title=" ">
<polygon fill="white" stroke="black" points="681.27,-207 681.27,-226 831.27,-226 831.27,-207 681.27,-207"/>
<text text-anchor="middle" x="756.27" y="-214" font-family="Helvetica,sans-Serif" font-size="10.00">include/mini/mesh/part.hpp</text>
</a>
</g>
</g>
<!-- Node2&#45;&gt;Node19 -->
<g id="edge25" class="edge">
<title>Node2&#45;&gt;Node19</title>
<path fill="none" stroke="midnightblue" d="M530.33,-331.98C553.51,-323.47 580.45,-312.22 603.27,-299 622.43,-287.9 623.33,-279.47 642.27,-268 671.71,-250.18 708.56,-235.01 732.25,-226.08"/>
<polygon fill="midnightblue" stroke="midnightblue" points="528.88,-328.79 520.65,-335.46 531.24,-335.38 528.88,-328.79"/>
</g>
<!-- Node4 -->
<g id="node4" class="node">
<title>Node4</title>
<g id="a_node4"><a xlink:href="integrator_2hexahedron_8hpp.html" target="_top" xlink:title=" ">
<polygon fill="white" stroke="black" points="318.27,-201.5 318.27,-231.5 446.27,-231.5 446.27,-201.5 318.27,-201.5"/>
<text text-anchor="start" x="326.27" y="-219.5" font-family="Helvetica,sans-Serif" font-size="10.00">include/mini/integrator</text>
<text text-anchor="middle" x="382.27" y="-208.5" font-family="Helvetica,sans-Serif" font-size="10.00">/hexahedron.hpp</text>
</a>
</g>
</g>
<!-- Node3&#45;&gt;Node4 -->
<g id="edge3" class="edge">
<title>Node3&#45;&gt;Node4</title>
<path fill="none" stroke="midnightblue" d="M382.27,-258.11C382.27,-249.15 382.27,-239.32 382.27,-231.58"/>
<polygon fill="midnightblue" stroke="midnightblue" points="378.77,-258.4 382.27,-268.4 385.77,-258.4 378.77,-258.4"/>
</g>
<!-- Node4&#45;&gt;Node5 -->
<g id="edge4" class="edge">
<title>Node4&#45;&gt;Node5</title>
<path fill="none" stroke="midnightblue" d="M382.27,-191.11C382.27,-182.15 382.27,-172.32 382.27,-164.58"/>
<polygon fill="midnightblue" stroke="midnightblue" points="378.77,-191.4 382.27,-201.4 385.77,-191.4 378.77,-191.4"/>
</g>
<!-- Node6 -->
<g id="node6" class="node">
<title>Node6</title>
<g id="a_node6"><a xlink:href="spatial_2dg_2lobatto_8hpp.html" target="_top" xlink:title=" ">
<polygon fill="white" stroke="black" points="240.77,-67.5 240.77,-97.5 353.77,-97.5 353.77,-67.5 240.77,-67.5"/>
<text text-anchor="start" x="248.77" y="-85.5" font-family="Helvetica,sans-Serif" font-size="10.00">include/mini/spatial</text>
<text text-anchor="middle" x="297.27" y="-74.5" font-family="Helvetica,sans-Serif" font-size="10.00">/dg/lobatto.hpp</text>
</a>
</g>
</g>
<!-- Node5&#45;&gt;Node6 -->
<g id="edge5" class="edge">
<title>Node5&#45;&gt;Node6</title>
<path fill="none" stroke="midnightblue" d="M355.68,-128.17C342.68,-118.23 327.36,-106.51 315.68,-97.58"/>
<polygon fill="midnightblue" stroke="midnightblue" points="353.75,-131.1 363.82,-134.4 358.01,-125.54 353.75,-131.1"/>
</g>
<!-- Node7 -->
<g id="node7" class="node">
<title>Node7</title>
<g id="a_node7"><a xlink:href="fr_2general_8hpp.html" target="_top" xlink:title=" ">
<polygon fill="white" stroke="black" points="410.77,-67.5 410.77,-97.5 523.77,-97.5 523.77,-67.5 410.77,-67.5"/>
<text text-anchor="start" x="418.77" y="-85.5" font-family="Helvetica,sans-Serif" font-size="10.00">include/mini/spatial</text>
<text text-anchor="middle" x="467.27" y="-74.5" font-family="Helvetica,sans-Serif" font-size="10.00">/fr/general.hpp</text>
</a>
</g>
</g>
<!-- Node5&#45;&gt;Node7 -->
<g id="edge6" class="edge">
<title>Node5&#45;&gt;Node7</title>
<path fill="none" stroke="midnightblue" d="M408.86,-128.17C421.85,-118.23 437.17,-106.51 448.86,-97.58"/>
<polygon fill="midnightblue" stroke="midnightblue" points="406.53,-125.54 400.71,-134.4 410.78,-131.1 406.53,-125.54"/>
</g>
<!-- Node8 -->
<g id="node8" class="node">
<title>Node8</title>
<g id="a_node8"><a xlink:href="spatial_2fr_2lobatto_8hpp.html" target="_top" xlink:title=" ">
<polygon fill="white" stroke="black" points="367.77,-0.5 367.77,-30.5 480.77,-30.5 480.77,-0.5 367.77,-0.5"/>
<text text-anchor="start" x="375.77" y="-18.5" font-family="Helvetica,sans-Serif" font-size="10.00">include/mini/spatial</text>
<text text-anchor="middle" x="424.27" y="-7.5" font-family="Helvetica,sans-Serif" font-size="10.00">/fr/lobatto.hpp</text>
</a>
</g>
</g>
<!-- Node5&#45;&gt;Node8 -->
<g id="edge8" class="edge">
<title>Node5&#45;&gt;Node8</title>
<path fill="none" stroke="midnightblue" d="M386.55,-124.55C389.8,-108.12 394.81,-85.95 401.27,-67 405.55,-54.41 411.9,-40.72 416.84,-30.78"/>
<polygon fill="midnightblue" stroke="midnightblue" points="383.1,-123.94 384.67,-134.42 389.98,-125.25 383.1,-123.94"/>
</g>
<!-- Node7&#45;&gt;Node8 -->
<g id="edge7" class="edge">
<title>Node7&#45;&gt;Node8</title>
<path fill="none" stroke="midnightblue" d="M452.3,-58.87C446.07,-49.46 439.04,-38.83 433.58,-30.58"/>
<polygon fill="midnightblue" stroke="midnightblue" points="449.5,-60.99 457.94,-67.4 455.34,-57.12 449.5,-60.99"/>
</g>
<!-- Node10 -->
<g id="node10" class="node">
<title>Node10</title>
<g id="a_node10"><a xlink:href="integrator_2pyramid_8hpp.html" target="_top" xlink:title=" ">
<polygon fill="white" stroke="black" points="21.27,-201.5 21.27,-231.5 149.27,-231.5 149.27,-201.5 21.27,-201.5"/>
<text text-anchor="start" x="29.27" y="-219.5" font-family="Helvetica,sans-Serif" font-size="10.00">include/mini/integrator</text>
<text text-anchor="middle" x="85.27" y="-208.5" font-family="Helvetica,sans-Serif" font-size="10.00">/pyramid.hpp</text>
</a>
</g>
</g>
<!-- Node9&#45;&gt;Node10 -->
<g id="edge10" class="edge">
<title>Node9&#45;&gt;Node10</title>
<path fill="none" stroke="midnightblue" d="M84.64,-258.11C84.78,-249.15 84.93,-239.32 85.05,-231.58"/>
<polygon fill="midnightblue" stroke="midnightblue" points="81.14,-258.34 84.49,-268.4 88.14,-258.45 81.14,-258.34"/>
</g>
<!-- Node12 -->
<g id="node12" class="node">
<title>Node12</title>
<g id="a_node12"><a xlink:href="integrator_2tetrahedron_8hpp.html" target="_top" xlink:title=" ">
<polygon fill="white" stroke="black" points="170.27,-201.5 170.27,-231.5 298.27,-231.5 298.27,-201.5 170.27,-201.5"/>
<text text-anchor="start" x="178.27" y="-219.5" font-family="Helvetica,sans-Serif" font-size="10.00">include/mini/integrator</text>
<text text-anchor="middle" x="234.27" y="-208.5" font-family="Helvetica,sans-Serif" font-size="10.00">/tetrahedron.hpp</text>
</a>
</g>
</g>
<!-- Node11&#45;&gt;Node12 -->
<g id="edge12" class="edge">
<title>Node11&#45;&gt;Node12</title>
<path fill="none" stroke="midnightblue" d="M233.64,-258.11C233.78,-249.15 233.93,-239.32 234.05,-231.58"/>
<polygon fill="midnightblue" stroke="midnightblue" points="230.14,-258.34 233.49,-268.4 237.14,-258.45 230.14,-258.34"/>
</g>
<!-- Node14 -->
<g id="node14" class="node">
<title>Node14</title>
<g id="a_node14"><a xlink:href="integrator_2wedge_8hpp.html" target="_top" xlink:title=" ">
<polygon fill="white" stroke="black" points="795.27,-134.5 795.27,-164.5 923.27,-164.5 923.27,-134.5 795.27,-134.5"/>
<text text-anchor="start" x="803.27" y="-152.5" font-family="Helvetica,sans-Serif" font-size="10.00">include/mini/integrator</text>
<text text-anchor="middle" x="859.27" y="-141.5" font-family="Helvetica,sans-Serif" font-size="10.00">/wedge.hpp</text>
</a>
</g>
</g>
<!-- Node13&#45;&gt;Node14 -->
<g id="edge14" class="edge">
<title>Node13&#45;&gt;Node14</title>
<path fill="none" stroke="midnightblue" d="M791.34,-265.05C809.58,-257.58 827.48,-246.98 840.27,-232 856.59,-212.88 859.53,-182.38 859.72,-164.62"/>
<polygon fill="midnightblue" stroke="midnightblue" points="789.9,-261.85 781.8,-268.68 792.39,-268.39 789.9,-261.85"/>
</g>
<!-- Node15&#45;&gt;Node4 -->
<g id="edge19" class="edge">
<title>Node15&#45;&gt;Node4</title>
<path fill="none" stroke="midnightblue" d="M488.76,-264.27C465.18,-253.92 436.12,-241.15 414.32,-231.58"/>
<polygon fill="midnightblue" stroke="midnightblue" points="487.59,-267.58 498.15,-268.4 490.41,-261.17 487.59,-267.58"/>
</g>
<!-- Node15&#45;&gt;Node5 -->
<g id="edge24" class="edge">
<title>Node15&#45;&gt;Node5</title>
<path fill="none" stroke="midnightblue" d="M512.39,-260.53C497.89,-243.38 476.46,-219.44 455.27,-201 439.57,-187.34 420.13,-174.05 405.26,-164.53"/>
<polygon fill="midnightblue" stroke="midnightblue" points="509.82,-262.92 518.91,-268.35 515.19,-258.43 509.82,-262.92"/>
</g>
<!-- Node15&#45;&gt;Node10 -->
<g id="edge20" class="edge">
<title>Node15&#45;&gt;Node10</title>
<path fill="none" stroke="midnightblue" d="M456.57,-268.05C456.47,-268.03 456.37,-268.02 456.27,-268 325.82,-247.29 291.77,-252.39 161.27,-232 157.42,-231.4 153.47,-230.75 149.48,-230.07"/>
<polygon fill="midnightblue" stroke="midnightblue" points="455.7,-271.45 466.14,-269.64 456.85,-264.55 455.7,-271.45"/>
</g>
<!-- Node15&#45;&gt;Node12 -->
<g id="edge21" class="edge">
<title>Node15&#45;&gt;Node12</title>
<path fill="none" stroke="midnightblue" d="M456.57,-266.32C407.92,-255.63 344.81,-241.77 298.27,-231.55"/>
<polygon fill="midnightblue" stroke="midnightblue" points="455.89,-269.75 466.41,-268.48 457.39,-262.91 455.89,-269.75"/>
</g>
<!-- Node15&#45;&gt;Node14 -->
<g id="edge22" class="edge">
<title>Node15&#45;&gt;Node14</title>
<path fill="none" stroke="midnightblue" d="M528.87,-258.19C529.22,-239.86 532.93,-215.49 548.27,-201 565.96,-184.28 709.4,-166.4 795.17,-157.05"/>
<polygon fill="midnightblue" stroke="midnightblue" points="525.37,-258.46 529,-268.42 532.37,-258.37 525.37,-258.46"/>
</g>
<!-- Node16 -->
<g id="node16" class="node">
<title>Node16</title>
<g id="a_node16"><a xlink:href="basis_2linear_8hpp.html" target="_top" xlink:title=" ">
<polygon fill="white" stroke="black" points="557.77,-201.5 557.77,-231.5 662.77,-231.5 662.77,-201.5 557.77,-201.5"/>
<text text-anchor="start" x="565.77" y="-219.5" font-family="Helvetica,sans-Serif" font-size="10.00">include/mini/basis</text>
<text text-anchor="middle" x="610.27" y="-208.5" font-family="Helvetica,sans-Serif" font-size="10.00">/linear.hpp</text>
</a>
</g>
</g>
<!-- Node15&#45;&gt;Node16 -->
<g id="edge16" class="edge">
<title>Node15&#45;&gt;Node16</title>
<path fill="none" stroke="midnightblue" d="M555.64,-261.88C567.8,-252.01 582.05,-240.43 592.94,-231.58"/>
<polygon fill="midnightblue" stroke="midnightblue" points="553.18,-259.37 547.63,-268.4 557.6,-264.81 553.18,-259.37"/>
</g>
<!-- Node15&#45;&gt;Node19 -->
<g id="edge23" class="edge">
<title>Node15&#45;&gt;Node19</title>
<path fill="none" stroke="midnightblue" d="M588.78,-265.67C632.95,-252.97 691.72,-236.06 726.61,-226.03"/>
<polygon fill="midnightblue" stroke="midnightblue" points="587.67,-262.35 579.03,-268.48 589.61,-269.08 587.67,-262.35"/>
</g>
<!-- Node17 -->
<g id="node17" class="node">
<title>Node17</title>
<g id="a_node17"><a xlink:href="projection_8hpp.html" target="_top" xlink:title=" ">
<polygon fill="white" stroke="black" points="543.27,-134.5 543.27,-164.5 677.27,-164.5 677.27,-134.5 543.27,-134.5"/>
<text text-anchor="start" x="551.27" y="-152.5" font-family="Helvetica,sans-Serif" font-size="10.00">include/mini/polynomial</text>
<text text-anchor="middle" x="610.27" y="-141.5" font-family="Helvetica,sans-Serif" font-size="10.00">/projection.hpp</text>
</a>
</g>
</g>
<!-- Node16&#45;&gt;Node17 -->
<g id="edge17" class="edge">
<title>Node16&#45;&gt;Node17</title>
<path fill="none" stroke="midnightblue" d="M610.27,-191.11C610.27,-182.15 610.27,-172.32 610.27,-164.58"/>
<polygon fill="midnightblue" stroke="midnightblue" points="606.77,-191.4 610.27,-201.4 613.77,-191.4 606.77,-191.4"/>
</g>
<!-- Node18 -->
<g id="node18" class="node">
<title>Node18</title>
<g id="a_node18"><a xlink:href="extrapolation_8hpp.html" target="_top" xlink:title=" ">
<polygon fill="white" stroke="black" points="543.27,-67.5 543.27,-97.5 677.27,-97.5 677.27,-67.5 543.27,-67.5"/>
<text text-anchor="start" x="551.27" y="-85.5" font-family="Helvetica,sans-Serif" font-size="10.00">include/mini/polynomial</text>
<text text-anchor="middle" x="610.27" y="-74.5" font-family="Helvetica,sans-Serif" font-size="10.00">/extrapolation.hpp</text>
</a>
</g>
</g>
<!-- Node17&#45;&gt;Node18 -->
<g id="edge18" class="edge">
<title>Node17&#45;&gt;Node18</title>
<path fill="none" stroke="midnightblue" d="M610.27,-124.11C610.27,-115.15 610.27,-105.32 610.27,-97.58"/>
<polygon fill="midnightblue" stroke="midnightblue" points="606.77,-124.4 610.27,-134.4 613.77,-124.4 606.77,-124.4"/>
</g>
<!-- Node20&#45;&gt;Node19 -->
<g id="edge38" class="edge">
<title>Node20&#45;&gt;Node19</title>
<path fill="none" stroke="midnightblue" d="M1069.49,-327.87C1086.12,-310.41 1102.65,-285.91 1087.27,-268 1078.85,-258.2 922.55,-237.66 827.78,-226.02"/>
<polygon fill="midnightblue" stroke="midnightblue" points="1066.59,-325.81 1061.95,-335.34 1071.51,-330.78 1066.59,-325.81"/>
</g>
<!-- Node20&#45;&gt;Node21 -->
<g id="edge27" class="edge">
<title>Node20&#45;&gt;Node21</title>
<path fill="none" stroke="midnightblue" d="M1096.96,-332.09C1128.11,-321.6 1167.28,-308.41 1196.47,-298.58"/>
<polygon fill="midnightblue" stroke="midnightblue" points="1095.51,-328.89 1087.15,-335.4 1097.74,-335.52 1095.51,-328.89"/>
</g>
<!-- Node22 -->
<g id="node22" class="node">
<title>Node22</title>
<g id="a_node22"><a xlink:href="integrator_2quadrangle_8hpp.html" target="_top" xlink:title=" ">
<polygon fill="white" stroke="black" points="1080.27,-201.5 1080.27,-231.5 1208.27,-231.5 1208.27,-201.5 1080.27,-201.5"/>
<text text-anchor="start" x="1088.27" y="-219.5" font-family="Helvetica,sans-Serif" font-size="10.00">include/mini/integrator</text>
<text text-anchor="middle" x="1144.27" y="-208.5" font-family="Helvetica,sans-Serif" font-size="10.00">/quadrangle.hpp</text>
</a>
</g>
</g>
<!-- Node20&#45;&gt;Node22 -->
<g id="edge37" class="edge">
<title>Node20&#45;&gt;Node22</title>
<path fill="none" stroke="midnightblue" d="M1084.57,-330.19C1097.53,-322.13 1111,-311.65 1120.27,-299 1135.17,-278.65 1140.88,-249.12 1143.02,-231.76"/>
<polygon fill="midnightblue" stroke="midnightblue" points="1082.57,-327.3 1075.72,-335.38 1086.12,-333.34 1082.57,-327.3"/>
</g>
<!-- Node20&#45;&gt;Node23 -->
<g id="edge29" class="edge">
<title>Node20&#45;&gt;Node23</title>
<path fill="none" stroke="midnightblue" d="M1033.48,-326.28C1028.78,-317.02 1023.52,-306.66 1019.41,-298.58"/>
<polygon fill="midnightblue" stroke="midnightblue" points="1030.46,-328.06 1038.11,-335.4 1036.7,-324.89 1030.46,-328.06"/>
</g>
<!-- Node25 -->
<g id="node25" class="node">
<title>Node25</title>
<g id="a_node25"><a xlink:href="integrator_2face_8hpp.html" target="_top" xlink:title=" ">
<polygon fill="white" stroke="black" points="800.27,-268.5 800.27,-298.5 928.27,-298.5 928.27,-268.5 800.27,-268.5"/>
<text text-anchor="start" x="808.27" y="-286.5" font-family="Helvetica,sans-Serif" font-size="10.00">include/mini/integrator</text>
<text text-anchor="middle" x="864.27" y="-275.5" font-family="Helvetica,sans-Serif" font-size="10.00">/face.hpp</text>
</a>
</g>
</g>
<!-- Node20&#45;&gt;Node25 -->
<g id="edge32" class="edge">
<title>Node20&#45;&gt;Node25</title>
<path fill="none" stroke="midnightblue" d="M996.41,-331.96C967.26,-321.48 930.72,-308.37 903.47,-298.58"/>
<polygon fill="midnightblue" stroke="midnightblue" points="995.4,-335.31 1005.99,-335.4 997.77,-328.72 995.4,-335.31"/>
</g>
<!-- Node21&#45;&gt;Node22 -->
<g id="edge28" class="edge">
<title>Node21&#45;&gt;Node22</title>
<path fill="none" stroke="midnightblue" d="M1209.27,-262.45C1194.81,-252.45 1177.67,-240.6 1164.62,-231.58"/>
<polygon fill="midnightblue" stroke="midnightblue" points="1207.66,-265.59 1217.87,-268.4 1211.64,-259.83 1207.66,-265.59"/>
</g>
<!-- Node24 -->
<g id="node24" class="node">
<title>Node24</title>
<g id="a_node24"><a xlink:href="integrator_2triangle_8hpp.html" target="_top" xlink:title=" ">
<polygon fill="white" stroke="black" points="887.27,-201.5 887.27,-231.5 1015.27,-231.5 1015.27,-201.5 887.27,-201.5"/>
<text text-anchor="start" x="895.27" y="-219.5" font-family="Helvetica,sans-Serif" font-size="10.00">include/mini/integrator</text>
<text text-anchor="middle" x="951.27" y="-208.5" font-family="Helvetica,sans-Serif" font-size="10.00">/triangle.hpp</text>
</a>
</g>
</g>
<!-- Node23&#45;&gt;Node24 -->
<g id="edge30" class="edge">
<title>Node23&#45;&gt;Node24</title>
<path fill="none" stroke="midnightblue" d="M992.11,-261.02C983.03,-251.34 972.55,-240.17 964.48,-231.58"/>
<polygon fill="midnightblue" stroke="midnightblue" points="989.64,-263.5 999.03,-268.4 994.74,-258.71 989.64,-263.5"/>
</g>
<!-- Node24&#45;&gt;Node14 -->
<g id="edge31" class="edge">
<title>Node24&#45;&gt;Node14</title>
<path fill="none" stroke="midnightblue" d="M922.89,-195.45C908.74,-185.45 891.96,-173.6 879.19,-164.58"/>
<polygon fill="midnightblue" stroke="midnightblue" points="921.12,-198.48 931.31,-201.4 925.16,-192.77 921.12,-198.48"/>
</g>
<!-- Node25&#45;&gt;Node16 -->
<g id="edge33" class="edge">
<title>Node25&#45;&gt;Node16</title>
<path fill="none" stroke="midnightblue" d="M799.53,-265.93C757.15,-255.09 702.48,-241.1 662.8,-230.94"/>
<polygon fill="midnightblue" stroke="midnightblue" points="798.91,-269.39 809.47,-268.48 800.65,-262.61 798.91,-269.39"/>
</g>
<!-- Node25&#45;&gt;Node19 -->
<g id="edge36" class="edge">
<title>Node25&#45;&gt;Node19</title>
<path fill="none" stroke="midnightblue" d="M832.1,-263.14C811.58,-250.79 785.99,-235.39 770.4,-226.01"/>
<polygon fill="midnightblue" stroke="midnightblue" points="830.46,-266.24 840.83,-268.4 834.07,-260.24 830.46,-266.24"/>
</g>
<!-- Node25&#45;&gt;Node22 -->
<g id="edge34" class="edge">
<title>Node25&#45;&gt;Node22</title>
<path fill="none" stroke="midnightblue" d="M934.55,-266.19C980.4,-255.54 1039.66,-241.78 1083.48,-231.61"/>
<polygon fill="midnightblue" stroke="midnightblue" points="933.63,-262.81 924.68,-268.48 935.21,-269.62 933.63,-262.81"/>
</g>
<!-- Node25&#45;&gt;Node24 -->
<g id="edge35" class="edge">
<title>Node25&#45;&gt;Node24</title>
<path fill="none" stroke="midnightblue" d="M891.48,-262.17C904.79,-252.23 920.46,-240.51 932.43,-231.58"/>
<polygon fill="midnightblue" stroke="midnightblue" points="889.06,-259.61 883.15,-268.4 893.25,-265.21 889.06,-259.61"/>
</g>
<!-- Node26&#45;&gt;Node15 -->
<g id="edge46" class="edge">
<title>Node26&#45;&gt;Node15</title>
<path fill="none" stroke="midnightblue" d="M595.27,-329.45C580.81,-319.45 563.67,-307.6 550.62,-298.58"/>
<polygon fill="midnightblue" stroke="midnightblue" points="593.66,-332.59 603.87,-335.4 597.64,-326.83 593.66,-332.59"/>
</g>
<!-- Node26&#45;&gt;Node25 -->
<g id="edge47" class="edge">
<title>Node26&#45;&gt;Node25</title>
<path fill="none" stroke="midnightblue" d="M685.75,-332.85C724.88,-322.25 775,-308.68 812.17,-298.61"/>
<polygon fill="midnightblue" stroke="midnightblue" points="684.79,-329.48 676.05,-335.48 686.62,-336.24 684.79,-329.48"/>
</g>
</g>
</svg>
