<?xml version="1.0" encoding="UTF-8" standalone="no"?>
<!DOCTYPE svg PUBLIC "-//W3C//DTD SVG 1.1//EN"
 "http://www.w3.org/Graphics/SVG/1.1/DTD/svg11.dtd">
<!-- Generated by graphviz version 2.43.0 (0)
 -->
<!-- Title: include/mini/coordinate/element.hpp Pages: 1 -->
<svg width="868pt" height="151pt"
 viewBox="0.00 0.00 868.00 151.00" xmlns="http://www.w3.org/2000/svg" xmlns:xlink="http://www.w3.org/1999/xlink">
<g id="graph0" class="graph" transform="scale(1 1) rotate(0) translate(4 147)">
<title>include/mini/coordinate/element.hpp</title>
<polygon fill="white" stroke="transparent" points="-4,4 -4,-147 864,-147 864,4 -4,4"/>
<!-- Node1 -->
<g id="node1" class="node">
<title>Node1</title>
<g id="a_node1"><a xlink:title=" ">
<polygon fill="#bfbfbf" stroke="black" points="296.5,-112.5 296.5,-142.5 427.5,-142.5 427.5,-112.5 296.5,-112.5"/>
<text text-anchor="start" x="304.5" y="-130.5" font-family="Helvetica,sans-Serif" font-size="10.00">include/mini/coordinate</text>
<text text-anchor="middle" x="362" y="-119.5" font-family="Helvetica,sans-Serif" font-size="10.00">/element.hpp</text>
</a>
</g>
</g>
<!-- Node2 -->
<g id="node2" class="node">
<title>Node2</title>
<g id="a_node2"><a xlink:title=" ">
<polygon fill="white" stroke="#bfbfbf" points="0,-56.5 0,-75.5 60,-75.5 60,-56.5 0,-56.5"/>
<text text-anchor="middle" x="30" y="-63.5" font-family="Helvetica,sans-Serif" font-size="10.00">concepts</text>
</a>
</g>
</g>
<!-- Node1&#45;&gt;Node2 -->
<g id="edge1" class="edge">
<title>Node1&#45;&gt;Node2</title>
<path fill="none" stroke="midnightblue" d="M296.35,-116.27C239.1,-107.1 153.61,-92.81 70.11,-76.14"/>
<polygon fill="midnightblue" stroke="midnightblue" points="70.69,-72.68 60.2,-74.14 69.31,-79.55 70.69,-72.68"/>
</g>
<!-- Node3 -->
<g id="node3" class="node">
<title>Node3</title>
<g id="a_node3"><a xlink:title=" ">
<polygon fill="white" stroke="#bfbfbf" points="78,-56.5 78,-75.5 130,-75.5 130,-56.5 78,-56.5"/>
<text text-anchor="middle" x="104" y="-63.5" font-family="Helvetica,sans-Serif" font-size="10.00">cassert</text>
</a>
</g>
</g>
<!-- Node1&#45;&gt;Node3 -->
<g id="edge2" class="edge">
<title>Node1&#45;&gt;Node3</title>
<path fill="none" stroke="midnightblue" d="M301.18,-112.47C251.19,-100.95 182.03,-85 140.3,-75.37"/>
<polygon fill="midnightblue" stroke="midnightblue" points="140.84,-71.9 130.31,-73.07 139.27,-78.73 140.84,-71.9"/>
</g>
<!-- Node4 -->
<g id="node4" class="node">
<title>Node4</title>
<g id="a_node4"><a xlink:title=" ">
<polygon fill="white" stroke="#bfbfbf" points="533.5,-0.5 533.5,-19.5 580.5,-19.5 580.5,-0.5 533.5,-0.5"/>
<text text-anchor="middle" x="557" y="-7.5" font-family="Helvetica,sans-Serif" font-size="10.00">cmath</text>
</a>
</g>
</g>
<!-- Node1&#45;&gt;Node4 -->
<g id="edge3" class="edge">
<title>Node1&#45;&gt;Node4</title>
<path fill="none" stroke="midnightblue" d="M427.71,-113.39C455.01,-105.69 485.88,-93.84 510,-76 526.74,-63.62 539.96,-43.53 548.06,-28.96"/>
<polygon fill="midnightblue" stroke="midnightblue" points="551.26,-30.39 552.83,-19.92 545.07,-27.13 551.26,-30.39"/>
</g>
<!-- Node5 -->
<g id="node5" class="node">
<title>Node5</title>
<g id="a_node5"><a xlink:title=" ">
<polygon fill="white" stroke="#bfbfbf" points="186,-56.5 186,-75.5 242,-75.5 242,-56.5 186,-56.5"/>
<text text-anchor="middle" x="214" y="-63.5" font-family="Helvetica,sans-Serif" font-size="10.00">numeric</text>
</a>
</g>
</g>
<!-- Node1&#45;&gt;Node5 -->
<g id="edge4" class="edge">
<title>Node1&#45;&gt;Node5</title>
<path fill="none" stroke="midnightblue" d="M326.93,-112.4C301.98,-102.37 268.79,-89.03 244.86,-79.4"/>
<polygon fill="midnightblue" stroke="midnightblue" points="246.12,-76.14 235.54,-75.66 243.51,-82.64 246.12,-76.14"/>
</g>
<!-- Node6 -->
<g id="node6" class="node">
<title>Node6</title>
<g id="a_node6"><a xlink:title=" ">
<polygon fill="white" stroke="#bfbfbf" points="260.5,-56.5 260.5,-75.5 343.5,-75.5 343.5,-56.5 260.5,-56.5"/>
<text text-anchor="middle" x="302" y="-63.5" font-family="Helvetica,sans-Serif" font-size="10.00">initializer_list</text>
</a>
</g>
</g>
<!-- Node1&#45;&gt;Node6 -->
<g id="edge5" class="edge">
<title>Node1&#45;&gt;Node6</title>
<path fill="none" stroke="midnightblue" d="M347.78,-112.4C338.79,-103.49 327.16,-91.95 317.87,-82.74"/>
<polygon fill="midnightblue" stroke="midnightblue" points="320.3,-80.21 310.73,-75.66 315.37,-85.18 320.3,-80.21"/>
</g>
<!-- Node7 -->
<g id="node7" class="node">
<title>Node7</title>
<g id="a_node7"><a xlink:title=" ">
<polygon fill="white" stroke="#bfbfbf" points="219,-0.5 219,-19.5 279,-19.5 279,-0.5 219,-0.5"/>
<text text-anchor="middle" x="249" y="-7.5" font-family="Helvetica,sans-Serif" font-size="10.00">iostream</text>
</a>
</g>
</g>
<!-- Node1&#45;&gt;Node7 -->
<g id="edge6" class="edge">
<title>Node1&#45;&gt;Node7</title>
<path fill="none" stroke="midnightblue" d="M296.08,-117.07C249.05,-108.84 191.65,-95.18 177,-76 161.16,-55.26 190.88,-35.81 216.81,-23.69"/>
<polygon fill="midnightblue" stroke="midnightblue" points="218.38,-26.82 226.1,-19.57 215.54,-20.42 218.38,-26.82"/>
</g>
<!-- Node8 -->
<g id="node8" class="node">
<title>Node8</title>
<g id="a_node8"><a xlink:title=" ">
<polygon fill="white" stroke="#bfbfbf" points="468.5,-0.5 468.5,-19.5 515.5,-19.5 515.5,-0.5 468.5,-0.5"/>
<text text-anchor="middle" x="492" y="-7.5" font-family="Helvetica,sans-Serif" font-size="10.00">vector</text>
</a>
</g>
</g>
<!-- Node1&#45;&gt;Node8 -->
<g id="edge7" class="edge">
<title>Node1&#45;&gt;Node8</title>
<path fill="none" stroke="midnightblue" d="M427.79,-117.14C452.46,-110.08 478.11,-97.71 493,-76 502.17,-62.64 500.74,-43.81 497.71,-29.86"/>
<polygon fill="midnightblue" stroke="midnightblue" points="501.03,-28.7 495.12,-19.91 494.25,-30.47 501.03,-28.7"/>
</g>
<!-- Node9 -->
<g id="node9" class="node">
<title>Node9</title>
<g id="a_node9"><a xlink:href="algebra_2eigen_8hpp.html" target="_top" xlink:title=" ">
<polygon fill="white" stroke="black" points="578.5,-56.5 578.5,-75.5 707.5,-75.5 707.5,-56.5 578.5,-56.5"/>
<text text-anchor="middle" x="643" y="-63.5" font-family="Helvetica,sans-Serif" font-size="10.00">mini/algebra/eigen.hpp</text>
</a>
</g>
</g>
<!-- Node1&#45;&gt;Node9 -->
<g id="edge8" class="edge">
<title>Node1&#45;&gt;Node9</title>
<path fill="none" stroke="midnightblue" d="M427.53,-112.62C477.89,-101.96 546.41,-87.45 592.55,-77.68"/>
<polygon fill="midnightblue" stroke="midnightblue" points="593.56,-81.05 602.62,-75.55 592.11,-74.2 593.56,-81.05"/>
</g>
<!-- Node13 -->
<g id="node13" class="node">
<title>Node13</title>
<g id="a_node13"><a xlink:href="root_8hpp.html" target="_top" xlink:title=" ">
<polygon fill="white" stroke="black" points="362,-56.5 362,-75.5 484,-75.5 484,-56.5 362,-56.5"/>
<text text-anchor="middle" x="423" y="-63.5" font-family="Helvetica,sans-Serif" font-size="10.00">mini/algebra/root.hpp</text>
</a>
</g>
</g>
<!-- Node1&#45;&gt;Node13 -->
<g id="edge13" class="edge">
<title>Node1&#45;&gt;Node13</title>
<path fill="none" stroke="midnightblue" d="M376.46,-112.4C385.59,-103.49 397.42,-91.95 406.86,-82.74"/>
<polygon fill="midnightblue" stroke="midnightblue" points="409.41,-85.15 414.12,-75.66 404.52,-80.13 409.41,-85.15"/>
</g>
<!-- Node15 -->
<g id="node15" class="node">
<title>Node15</title>
<g id="a_node15"><a xlink:href="index_8hpp.html" target="_top" xlink:title=" ">
<polygon fill="white" stroke="black" points="726,-56.5 726,-75.5 860,-75.5 860,-56.5 726,-56.5"/>
<text text-anchor="middle" x="793" y="-63.5" font-family="Helvetica,sans-Serif" font-size="10.00">mini/constant/index.hpp</text>
</a>
</g>
</g>
<!-- Node1&#45;&gt;Node15 -->
<g id="edge17" class="edge">
<title>Node1&#45;&gt;Node15</title>
<path fill="none" stroke="midnightblue" d="M427.93,-117.4C507.08,-106.47 639.34,-88.21 721.07,-76.93"/>
<polygon fill="midnightblue" stroke="midnightblue" points="721.84,-80.36 731.27,-75.52 720.89,-73.42 721.84,-80.36"/>
</g>
<!-- Node9&#45;&gt;Node4 -->
<g id="edge10" class="edge">
<title>Node9&#45;&gt;Node4</title>
<path fill="none" stroke="midnightblue" d="M629.18,-56.32C615.77,-47.9 595.18,-34.97 579.41,-25.07"/>
<polygon fill="midnightblue" stroke="midnightblue" points="581.11,-22.01 570.78,-19.65 577.39,-27.94 581.11,-22.01"/>
</g>
<!-- Node10 -->
<g id="node10" class="node">
<title>Node10</title>
<g id="a_node10"><a xlink:title=" ">
<polygon fill="white" stroke="#bfbfbf" points="691,-0.5 691,-19.5 755,-19.5 755,-0.5 691,-0.5"/>
<text text-anchor="middle" x="723" y="-7.5" font-family="Helvetica,sans-Serif" font-size="10.00">algorithm</text>
</a>
</g>
</g>
<!-- Node9&#45;&gt;Node10 -->
<g id="edge9" class="edge">
<title>Node9&#45;&gt;Node10</title>
<path fill="none" stroke="midnightblue" d="M655.85,-56.32C668.22,-47.98 687.13,-35.21 701.74,-25.35"/>
<polygon fill="midnightblue" stroke="midnightblue" points="703.85,-28.15 710.18,-19.65 699.93,-22.35 703.85,-28.15"/>
</g>
<!-- Node11 -->
<g id="node11" class="node">
<title>Node11</title>
<g id="a_node11"><a xlink:title=" ">
<polygon fill="white" stroke="#bfbfbf" points="773.5,-0.5 773.5,-19.5 822.5,-19.5 822.5,-0.5 773.5,-0.5"/>
<text text-anchor="middle" x="798" y="-7.5" font-family="Helvetica,sans-Serif" font-size="10.00">cstdlib</text>
</a>
</g>
</g>
<!-- Node9&#45;&gt;Node11 -->
<g id="edge11" class="edge">
<title>Node9&#45;&gt;Node11</title>
<path fill="none" stroke="midnightblue" d="M667.56,-56.44C693.52,-47.4 734.67,-33.06 763.8,-22.92"/>
<polygon fill="midnightblue" stroke="midnightblue" points="765.26,-26.11 773.55,-19.52 762.96,-19.5 765.26,-26.11"/>
</g>
<!-- Node12 -->
<g id="node12" class="node">
<title>Node12</title>
<g id="a_node12"><a xlink:title=" ">
<polygon fill="white" stroke="#bfbfbf" points="599,-0.5 599,-19.5 673,-19.5 673,-0.5 599,-0.5"/>
<text text-anchor="middle" x="636" y="-7.5" font-family="Helvetica,sans-Serif" font-size="10.00">Eigen/Eigen</text>
</a>
</g>
</g>
<!-- Node9&#45;&gt;Node12 -->
<g id="edge12" class="edge">
<title>Node9&#45;&gt;Node12</title>
<path fill="none" stroke="midnightblue" d="M641.84,-56.08C640.92,-48.93 639.58,-38.64 638.42,-29.69"/>
<polygon fill="midnightblue" stroke="midnightblue" points="641.89,-29.22 637.13,-19.75 634.95,-30.12 641.89,-29.22"/>
</g>
<!-- Node13&#45;&gt;Node7 -->
<g id="edge15" class="edge">
<title>Node13&#45;&gt;Node7</title>
<path fill="none" stroke="midnightblue" d="M395.43,-56.44C365.9,-47.28 318.88,-32.69 286.12,-22.52"/>
<polygon fill="midnightblue" stroke="midnightblue" points="287.03,-19.14 276.44,-19.52 284.96,-25.82 287.03,-19.14"/>
</g>
<!-- Node13&#45;&gt;Node8 -->
<g id="edge14" class="edge">
<title>Node13&#45;&gt;Node8</title>
<path fill="none" stroke="midnightblue" d="M434.09,-56.32C444.49,-48.18 460.26,-35.84 472.72,-26.09"/>
<polygon fill="midnightblue" stroke="midnightblue" points="474.99,-28.75 480.71,-19.83 470.68,-23.24 474.99,-28.75"/>
</g>
<!-- Node14 -->
<g id="node14" class="node">
<title>Node14</title>
<g id="a_node14"><a xlink:title=" ">
<polygon fill="white" stroke="#bfbfbf" points="381.5,-0.5 381.5,-19.5 450.5,-19.5 450.5,-0.5 381.5,-0.5"/>
<text text-anchor="middle" x="416" y="-7.5" font-family="Helvetica,sans-Serif" font-size="10.00">type_traits</text>
</a>
</g>
</g>
<!-- Node13&#45;&gt;Node14 -->
<g id="edge16" class="edge">
<title>Node13&#45;&gt;Node14</title>
<path fill="none" stroke="midnightblue" d="M421.84,-56.08C420.92,-48.93 419.58,-38.64 418.42,-29.69"/>
<polygon fill="midnightblue" stroke="midnightblue" points="421.89,-29.22 417.13,-19.75 414.95,-30.12 421.89,-29.22"/>
</g>
</g>
</svg>
