<?xml version="1.0" encoding="UTF-8" standalone="no"?>
<!DOCTYPE svg PUBLIC "-//W3C//DTD SVG 1.1//EN"
 "http://www.w3.org/Graphics/SVG/1.1/DTD/svg11.dtd">
<!-- Generated by graphviz version 2.43.0 (0)
 -->
<!-- Title: include/mini/coordinate/hexahedron.hpp Pages: 1 -->
<svg width="955pt" height="263pt"
 viewBox="0.00 0.00 955.30 263.00" xmlns="http://www.w3.org/2000/svg" xmlns:xlink="http://www.w3.org/1999/xlink">
<g id="graph0" class="graph" transform="scale(1 1) rotate(0) translate(4 259)">
<title>include/mini/coordinate/hexahedron.hpp</title>
<polygon fill="white" stroke="transparent" points="-4,4 -4,-259 951.3,-259 951.3,4 -4,4"/>
<!-- Node1 -->
<g id="node1" class="node">
<title>Node1</title>
<g id="a_node1"><a xlink:title=" ">
<polygon fill="#bfbfbf" stroke="black" points="470.5,-224.5 470.5,-254.5 601.5,-254.5 601.5,-224.5 470.5,-224.5"/>
<text text-anchor="start" x="478.5" y="-242.5" font-family="Helvetica,sans-Serif" font-size="10.00">include/mini/coordinate</text>
<text text-anchor="middle" x="536" y="-231.5" font-family="Helvetica,sans-Serif" font-size="10.00">/hexahedron.hpp</text>
</a>
</g>
</g>
<!-- Node2 -->
<g id="node2" class="node">
<title>Node2</title>
<g id="a_node2"><a xlink:title=" ">
<polygon fill="white" stroke="#bfbfbf" points="875,-56.5 875,-75.5 935,-75.5 935,-56.5 875,-56.5"/>
<text text-anchor="middle" x="905" y="-63.5" font-family="Helvetica,sans-Serif" font-size="10.00">concepts</text>
</a>
</g>
</g>
<!-- Node1&#45;&gt;Node2 -->
<g id="edge1" class="edge">
<title>Node1&#45;&gt;Node2</title>
<path fill="none" stroke="midnightblue" d="M601.75,-229.12C670.07,-216.64 777.25,-189.12 852,-132 869.46,-118.66 884.76,-98.45 894.37,-84.12"/>
<polygon fill="midnightblue" stroke="midnightblue" points="897.34,-85.97 899.83,-75.67 891.46,-82.17 897.34,-85.97"/>
</g>
<!-- Node3 -->
<g id="node3" class="node">
<title>Node3</title>
<g id="a_node3"><a xlink:title=" ">
<polygon fill="white" stroke="#bfbfbf" points="0,-56.5 0,-75.5 52,-75.5 52,-56.5 0,-56.5"/>
<text text-anchor="middle" x="26" y="-63.5" font-family="Helvetica,sans-Serif" font-size="10.00">cassert</text>
</a>
</g>
</g>
<!-- Node1&#45;&gt;Node3 -->
<g id="edge2" class="edge">
<title>Node1&#45;&gt;Node3</title>
<path fill="none" stroke="midnightblue" d="M486.32,-224.5C452.3,-214.72 406.25,-201.13 366,-188 252.26,-150.9 119.03,-101.82 58.67,-79.28"/>
<polygon fill="midnightblue" stroke="midnightblue" points="59.53,-75.87 48.94,-75.64 57.08,-82.42 59.53,-75.87"/>
</g>
<!-- Node4 -->
<g id="node4" class="node">
<title>Node4</title>
<g id="a_node4"><a xlink:title=" ">
<polygon fill="white" stroke="#bfbfbf" points="447,-168.5 447,-187.5 489,-187.5 489,-168.5 447,-168.5"/>
<text text-anchor="middle" x="468" y="-175.5" font-family="Helvetica,sans-Serif" font-size="10.00">array</text>
</a>
</g>
</g>
<!-- Node1&#45;&gt;Node4 -->
<g id="edge3" class="edge">
<title>Node1&#45;&gt;Node4</title>
<path fill="none" stroke="midnightblue" d="M519.88,-224.4C509.6,-215.4 496.25,-203.72 485.67,-194.47"/>
<polygon fill="midnightblue" stroke="midnightblue" points="487.73,-191.61 477.89,-187.66 483.12,-196.88 487.73,-191.61"/>
</g>
<!-- Node5 -->
<g id="node5" class="node">
<title>Node5</title>
<g id="a_node5"><a xlink:title=" ">
<polygon fill="white" stroke="#bfbfbf" points="70.5,-56.5 70.5,-75.5 153.5,-75.5 153.5,-56.5 70.5,-56.5"/>
<text text-anchor="middle" x="112" y="-63.5" font-family="Helvetica,sans-Serif" font-size="10.00">initializer_list</text>
</a>
</g>
</g>
<!-- Node1&#45;&gt;Node5 -->
<g id="edge4" class="edge">
<title>Node1&#45;&gt;Node5</title>
<path fill="none" stroke="midnightblue" d="M501.3,-224.47C420.29,-191.7 219.74,-110.58 142.76,-79.44"/>
<polygon fill="midnightblue" stroke="midnightblue" points="143.75,-76.06 133.16,-75.56 141.12,-82.55 143.75,-76.06"/>
</g>
<!-- Node6 -->
<g id="node6" class="node">
<title>Node6</title>
<g id="a_node6"><a xlink:title=" ">
<polygon fill="white" stroke="#bfbfbf" points="545,-112.5 545,-131.5 603,-131.5 603,-112.5 545,-112.5"/>
<text text-anchor="middle" x="574" y="-119.5" font-family="Helvetica,sans-Serif" font-size="10.00">memory</text>
</a>
</g>
</g>
<!-- Node1&#45;&gt;Node6 -->
<g id="edge5" class="edge">
<title>Node1&#45;&gt;Node6</title>
<path fill="none" stroke="midnightblue" d="M540.66,-224.34C547.54,-203.43 560.41,-164.31 567.99,-141.27"/>
<polygon fill="midnightblue" stroke="midnightblue" points="571.35,-142.26 571.15,-131.67 564.7,-140.07 571.35,-142.26"/>
</g>
<!-- Node7 -->
<g id="node7" class="node">
<title>Node7</title>
<g id="a_node7"><a xlink:title=" ">
<polygon fill="white" stroke="#bfbfbf" points="881.5,-0.5 881.5,-19.5 928.5,-19.5 928.5,-0.5 881.5,-0.5"/>
<text text-anchor="middle" x="905" y="-7.5" font-family="Helvetica,sans-Serif" font-size="10.00">vector</text>
</a>
</g>
</g>
<!-- Node1&#45;&gt;Node7 -->
<g id="edge6" class="edge">
<title>Node1&#45;&gt;Node7</title>
<path fill="none" stroke="midnightblue" d="M601.73,-231.41C652.76,-224.42 724.59,-211.31 784,-188 864.81,-156.3 906.95,-154.5 944,-76 952.36,-58.29 937.82,-39.21 924.19,-26.33"/>
<polygon fill="midnightblue" stroke="midnightblue" points="926.26,-23.5 916.44,-19.53 921.64,-28.76 926.26,-23.5"/>
</g>
<!-- Node8 -->
<g id="node8" class="node">
<title>Node8</title>
<g id="a_node8"><a xlink:href="coordinate_2element_8hpp.html" target="_top" xlink:title=" ">
<polygon fill="white" stroke="black" points="369,-112.5 369,-131.5 527,-131.5 527,-112.5 369,-112.5"/>
<text text-anchor="middle" x="448" y="-119.5" font-family="Helvetica,sans-Serif" font-size="10.00">mini/coordinate/element.hpp</text>
</a>
</g>
</g>
<!-- Node1&#45;&gt;Node8 -->
<g id="edge7" class="edge">
<title>Node1&#45;&gt;Node8</title>
<path fill="none" stroke="midnightblue" d="M530.14,-224.4C523.58,-209.53 512.01,-185.82 498,-168 489.29,-156.92 477.69,-146.29 467.85,-138.14"/>
<polygon fill="midnightblue" stroke="midnightblue" points="469.77,-135.2 459.77,-131.68 465.39,-140.66 469.77,-135.2"/>
</g>
<!-- Node19 -->
<g id="node19" class="node">
<title>Node19</title>
<g id="a_node19"><a xlink:href="coordinate_2cell_8hpp.html" target="_top" xlink:title=" ">
<polygon fill="white" stroke="black" points="583,-168.5 583,-187.5 717,-187.5 717,-168.5 583,-168.5"/>
<text text-anchor="middle" x="650" y="-175.5" font-family="Helvetica,sans-Serif" font-size="10.00">mini/coordinate/cell.hpp</text>
</a>
</g>
</g>
<!-- Node1&#45;&gt;Node19 -->
<g id="edge25" class="edge">
<title>Node1&#45;&gt;Node19</title>
<path fill="none" stroke="midnightblue" d="M563.02,-224.4C581.63,-214.68 606.21,-201.86 624.49,-192.31"/>
<polygon fill="midnightblue" stroke="midnightblue" points="626.17,-195.39 633.41,-187.66 622.93,-189.18 626.17,-195.39"/>
</g>
<!-- Node8&#45;&gt;Node2 -->
<g id="edge8" class="edge">
<title>Node8&#45;&gt;Node2</title>
<path fill="none" stroke="midnightblue" d="M527.11,-112.78C637.78,-101.23 828.93,-81.02 861,-76 862.26,-75.8 863.53,-75.6 864.82,-75.38"/>
<polygon fill="midnightblue" stroke="midnightblue" points="865.56,-78.8 874.77,-73.57 864.31,-71.91 865.56,-78.8"/>
</g>
<!-- Node8&#45;&gt;Node3 -->
<g id="edge9" class="edge">
<title>Node8&#45;&gt;Node3</title>
<path fill="none" stroke="midnightblue" d="M368.96,-114.98C292.72,-108.45 173.95,-96.38 62.37,-76.03"/>
<polygon fill="midnightblue" stroke="midnightblue" points="62.76,-72.55 52.29,-74.17 61.48,-79.43 62.76,-72.55"/>
</g>
<!-- Node8&#45;&gt;Node5 -->
<g id="edge12" class="edge">
<title>Node8&#45;&gt;Node5</title>
<path fill="none" stroke="midnightblue" d="M391.5,-112.49C335.97,-104.03 248.52,-90.5 163.78,-76.27"/>
<polygon fill="midnightblue" stroke="midnightblue" points="164.17,-72.79 153.73,-74.58 163.01,-79.69 164.17,-72.79"/>
</g>
<!-- Node8&#45;&gt;Node7 -->
<g id="edge14" class="edge">
<title>Node8&#45;&gt;Node7</title>
<path fill="none" stroke="midnightblue" d="M524.79,-112.47C617.89,-101.88 765.44,-84.21 790,-76 825.75,-64.05 863,-40.65 885.08,-25.43"/>
<polygon fill="midnightblue" stroke="midnightblue" points="887.13,-28.27 893.3,-19.66 883.11,-22.54 887.13,-28.27"/>
</g>
<!-- Node9 -->
<g id="node9" class="node">
<title>Node9</title>
<g id="a_node9"><a xlink:title=" ">
<polygon fill="white" stroke="#bfbfbf" points="298.5,-0.5 298.5,-19.5 345.5,-19.5 345.5,-0.5 298.5,-0.5"/>
<text text-anchor="middle" x="322" y="-7.5" font-family="Helvetica,sans-Serif" font-size="10.00">cmath</text>
</a>
</g>
</g>
<!-- Node8&#45;&gt;Node9 -->
<g id="edge10" class="edge">
<title>Node8&#45;&gt;Node9</title>
<path fill="none" stroke="midnightblue" d="M413.06,-112.48C391.83,-105.71 365.52,-94.28 348,-76 335.79,-63.26 329.07,-44.06 325.53,-29.83"/>
<polygon fill="midnightblue" stroke="midnightblue" points="328.88,-28.73 323.34,-19.7 322.04,-30.22 328.88,-28.73"/>
</g>
<!-- Node10 -->
<g id="node10" class="node">
<title>Node10</title>
<g id="a_node10"><a xlink:title=" ">
<polygon fill="white" stroke="#bfbfbf" points="509,-56.5 509,-75.5 565,-75.5 565,-56.5 509,-56.5"/>
<text text-anchor="middle" x="537" y="-63.5" font-family="Helvetica,sans-Serif" font-size="10.00">numeric</text>
</a>
</g>
</g>
<!-- Node8&#45;&gt;Node10 -->
<g id="edge11" class="edge">
<title>Node8&#45;&gt;Node10</title>
<path fill="none" stroke="midnightblue" d="M462.3,-112.32C476.18,-103.9 497.49,-90.97 513.8,-81.07"/>
<polygon fill="midnightblue" stroke="midnightblue" points="516,-83.83 522.74,-75.65 512.37,-77.85 516,-83.83"/>
</g>
<!-- Node11 -->
<g id="node11" class="node">
<title>Node11</title>
<g id="a_node11"><a xlink:title=" ">
<polygon fill="white" stroke="#bfbfbf" points="607,-0.5 607,-19.5 667,-19.5 667,-0.5 607,-0.5"/>
<text text-anchor="middle" x="637" y="-7.5" font-family="Helvetica,sans-Serif" font-size="10.00">iostream</text>
</a>
</g>
</g>
<!-- Node8&#45;&gt;Node11 -->
<g id="edge13" class="edge">
<title>Node8&#45;&gt;Node11</title>
<path fill="none" stroke="midnightblue" d="M485.32,-112.5C511.54,-105.41 546.66,-93.6 574,-76 594.13,-63.04 612.62,-42.48 624.29,-27.96"/>
<polygon fill="midnightblue" stroke="midnightblue" points="627.24,-29.86 630.62,-19.82 621.72,-25.56 627.24,-29.86"/>
</g>
<!-- Node12 -->
<g id="node12" class="node">
<title>Node12</title>
<g id="a_node12"><a xlink:href="algebra_2eigen_8hpp.html" target="_top" xlink:title=" ">
<polygon fill="white" stroke="black" points="171.5,-56.5 171.5,-75.5 300.5,-75.5 300.5,-56.5 171.5,-56.5"/>
<text text-anchor="middle" x="236" y="-63.5" font-family="Helvetica,sans-Serif" font-size="10.00">mini/algebra/eigen.hpp</text>
</a>
</g>
</g>
<!-- Node8&#45;&gt;Node12 -->
<g id="edge15" class="edge">
<title>Node8&#45;&gt;Node12</title>
<path fill="none" stroke="midnightblue" d="M414.41,-112.44C377.81,-103.12 319.16,-88.18 279.17,-78"/>
<polygon fill="midnightblue" stroke="midnightblue" points="279.99,-74.59 269.43,-75.52 278.26,-81.38 279.99,-74.59"/>
</g>
<!-- Node16 -->
<g id="node16" class="node">
<title>Node16</title>
<g id="a_node16"><a xlink:href="root_8hpp.html" target="_top" xlink:title=" ">
<polygon fill="white" stroke="black" points="659,-56.5 659,-75.5 781,-75.5 781,-56.5 659,-56.5"/>
<text text-anchor="middle" x="720" y="-63.5" font-family="Helvetica,sans-Serif" font-size="10.00">mini/algebra/root.hpp</text>
</a>
</g>
</g>
<!-- Node8&#45;&gt;Node16 -->
<g id="edge20" class="edge">
<title>Node8&#45;&gt;Node16</title>
<path fill="none" stroke="midnightblue" d="M491.1,-112.44C538.85,-102.96 615.86,-87.67 667.19,-77.48"/>
<polygon fill="midnightblue" stroke="midnightblue" points="667.98,-80.9 677.1,-75.52 666.61,-74.03 667.98,-80.9"/>
</g>
<!-- Node18 -->
<g id="node18" class="node">
<title>Node18</title>
<g id="a_node18"><a xlink:href="index_8hpp.html" target="_top" xlink:title=" ">
<polygon fill="white" stroke="black" points="357,-56.5 357,-75.5 491,-75.5 491,-56.5 357,-56.5"/>
<text text-anchor="middle" x="424" y="-63.5" font-family="Helvetica,sans-Serif" font-size="10.00">mini/constant/index.hpp</text>
</a>
</g>
</g>
<!-- Node8&#45;&gt;Node18 -->
<g id="edge24" class="edge">
<title>Node8&#45;&gt;Node18</title>
<path fill="none" stroke="midnightblue" d="M444.04,-112.08C440.79,-104.77 436.08,-94.18 432.05,-85.1"/>
<polygon fill="midnightblue" stroke="midnightblue" points="435.15,-83.47 427.89,-75.75 428.75,-86.31 435.15,-83.47"/>
</g>
<!-- Node12&#45;&gt;Node9 -->
<g id="edge17" class="edge">
<title>Node12&#45;&gt;Node9</title>
<path fill="none" stroke="midnightblue" d="M249.82,-56.32C263.23,-47.9 283.82,-34.97 299.59,-25.07"/>
<polygon fill="midnightblue" stroke="midnightblue" points="301.61,-27.94 308.22,-19.65 297.89,-22.01 301.61,-27.94"/>
</g>
<!-- Node13 -->
<g id="node13" class="node">
<title>Node13</title>
<g id="a_node13"><a xlink:title=" ">
<polygon fill="white" stroke="#bfbfbf" points="470,-0.5 470,-19.5 534,-19.5 534,-0.5 470,-0.5"/>
<text text-anchor="middle" x="502" y="-7.5" font-family="Helvetica,sans-Serif" font-size="10.00">algorithm</text>
</a>
</g>
</g>
<!-- Node12&#45;&gt;Node13 -->
<g id="edge16" class="edge">
<title>Node12&#45;&gt;Node13</title>
<path fill="none" stroke="midnightblue" d="M278.15,-56.44C327.79,-46.37 409.79,-29.72 459.56,-19.62"/>
<polygon fill="midnightblue" stroke="midnightblue" points="460.57,-22.98 469.67,-17.56 459.17,-16.12 460.57,-22.98"/>
</g>
<!-- Node14 -->
<g id="node14" class="node">
<title>Node14</title>
<g id="a_node14"><a xlink:title=" ">
<polygon fill="white" stroke="#bfbfbf" points="218.5,-0.5 218.5,-19.5 267.5,-19.5 267.5,-0.5 218.5,-0.5"/>
<text text-anchor="middle" x="243" y="-7.5" font-family="Helvetica,sans-Serif" font-size="10.00">cstdlib</text>
</a>
</g>
</g>
<!-- Node12&#45;&gt;Node14 -->
<g id="edge18" class="edge">
<title>Node12&#45;&gt;Node14</title>
<path fill="none" stroke="midnightblue" d="M237.16,-56.08C238.08,-48.93 239.42,-38.64 240.58,-29.69"/>
<polygon fill="midnightblue" stroke="midnightblue" points="244.05,-30.12 241.87,-19.75 237.11,-29.22 244.05,-30.12"/>
</g>
<!-- Node15 -->
<g id="node15" class="node">
<title>Node15</title>
<g id="a_node15"><a xlink:title=" ">
<polygon fill="white" stroke="#bfbfbf" points="126,-0.5 126,-19.5 200,-19.5 200,-0.5 126,-0.5"/>
<text text-anchor="middle" x="163" y="-7.5" font-family="Helvetica,sans-Serif" font-size="10.00">Eigen/Eigen</text>
</a>
</g>
</g>
<!-- Node12&#45;&gt;Node15 -->
<g id="edge19" class="edge">
<title>Node12&#45;&gt;Node15</title>
<path fill="none" stroke="midnightblue" d="M224.27,-56.32C213.16,-48.11 196.26,-35.6 183.02,-25.81"/>
<polygon fill="midnightblue" stroke="midnightblue" points="185.06,-22.97 174.94,-19.83 180.9,-28.59 185.06,-22.97"/>
</g>
<!-- Node16&#45;&gt;Node7 -->
<g id="edge21" class="edge">
<title>Node16&#45;&gt;Node7</title>
<path fill="none" stroke="midnightblue" d="M749.31,-56.44C782.6,-46.73 836.81,-30.9 871.68,-20.73"/>
<polygon fill="midnightblue" stroke="midnightblue" points="872.78,-24.05 881.4,-17.89 870.82,-17.33 872.78,-24.05"/>
</g>
<!-- Node16&#45;&gt;Node11 -->
<g id="edge22" class="edge">
<title>Node16&#45;&gt;Node11</title>
<path fill="none" stroke="midnightblue" d="M706.66,-56.32C693.84,-47.98 674.22,-35.21 659.06,-25.35"/>
<polygon fill="midnightblue" stroke="midnightblue" points="660.59,-22.17 650.3,-19.65 656.78,-28.04 660.59,-22.17"/>
</g>
<!-- Node17 -->
<g id="node17" class="node">
<title>Node17</title>
<g id="a_node17"><a xlink:title=" ">
<polygon fill="white" stroke="#bfbfbf" points="729.5,-0.5 729.5,-19.5 798.5,-19.5 798.5,-0.5 729.5,-0.5"/>
<text text-anchor="middle" x="764" y="-7.5" font-family="Helvetica,sans-Serif" font-size="10.00">type_traits</text>
</a>
</g>
</g>
<!-- Node16&#45;&gt;Node17 -->
<g id="edge23" class="edge">
<title>Node16&#45;&gt;Node17</title>
<path fill="none" stroke="midnightblue" d="M727.27,-56.08C733.54,-48.38 742.79,-37.03 750.43,-27.65"/>
<polygon fill="midnightblue" stroke="midnightblue" points="753.27,-29.71 756.87,-19.75 747.84,-25.29 753.27,-29.71"/>
</g>
<!-- Node19&#45;&gt;Node2 -->
<g id="edge26" class="edge">
<title>Node19&#45;&gt;Node2</title>
<path fill="none" stroke="midnightblue" d="M706.25,-168.49C741.15,-161.75 786.2,-150.34 823,-132 848.75,-119.16 874.03,-97.33 889.56,-82.55"/>
<polygon fill="midnightblue" stroke="midnightblue" points="892.03,-85.03 896.74,-75.54 887.14,-80.02 892.03,-85.03"/>
</g>
<!-- Node19&#45;&gt;Node6 -->
<g id="edge28" class="edge">
<title>Node19&#45;&gt;Node6</title>
<path fill="none" stroke="midnightblue" d="M637.79,-168.32C626.22,-160.11 608.62,-147.6 594.84,-137.81"/>
<polygon fill="midnightblue" stroke="midnightblue" points="596.61,-134.77 586.43,-131.83 592.56,-140.48 596.61,-134.77"/>
</g>
<!-- Node19&#45;&gt;Node7 -->
<g id="edge30" class="edge">
<title>Node19&#45;&gt;Node7</title>
<path fill="none" stroke="midnightblue" d="M712.57,-168.49C753.3,-161.65 807.01,-150.13 852,-132 896.4,-114.11 920.55,-117.73 944,-76 953.74,-58.67 938.41,-39.17 924.21,-26.08"/>
<polygon fill="midnightblue" stroke="midnightblue" points="926.46,-23.4 916.59,-19.53 921.89,-28.71 926.46,-23.4"/>
</g>
<!-- Node19&#45;&gt;Node8 -->
<g id="edge31" class="edge">
<title>Node19&#45;&gt;Node8</title>
<path fill="none" stroke="midnightblue" d="M617.99,-168.44C583.27,-159.16 527.71,-144.31 489.62,-134.13"/>
<polygon fill="midnightblue" stroke="midnightblue" points="490.42,-130.72 479.86,-131.52 488.61,-137.48 490.42,-130.72"/>
</g>
<!-- Node19&#45;&gt;Node13 -->
<g id="edge27" class="edge">
<title>Node19&#45;&gt;Node13</title>
<path fill="none" stroke="midnightblue" d="M646.38,-168.4C637.07,-147.1 610.45,-91.1 574,-56 560.76,-43.25 543.34,-32.25 528.95,-24.31"/>
<polygon fill="midnightblue" stroke="midnightblue" points="530.48,-21.16 520,-19.55 527.19,-27.34 530.48,-21.16"/>
</g>
<!-- Node19&#45;&gt;Node17 -->
<g id="edge29" class="edge">
<title>Node19&#45;&gt;Node17</title>
<path fill="none" stroke="midnightblue" d="M672.92,-168.39C705.87,-154.62 765.36,-124.16 790,-76 798.17,-60.02 788.27,-40.85 778.42,-27.49"/>
<polygon fill="midnightblue" stroke="midnightblue" points="781.12,-25.26 772.15,-19.64 775.66,-29.63 781.12,-25.26"/>
</g>
</g>
</svg>
