<?xml version="1.0" encoding="UTF-8" standalone="no"?>
<!DOCTYPE svg PUBLIC "-//W3C//DTD SVG 1.1//EN"
 "http://www.w3.org/Graphics/SVG/1.1/DTD/svg11.dtd">
<!-- Generated by graphviz version 2.43.0 (0)
 -->
<!-- Title: include/mini/coordinate/face.hpp Pages: 1 -->
<svg width="627pt" height="307pt"
 viewBox="0.00 0.00 626.50 307.00" xmlns="http://www.w3.org/2000/svg" xmlns:xlink="http://www.w3.org/1999/xlink">
<g id="graph0" class="graph" transform="scale(1 1) rotate(0) translate(4 303)">
<title>include/mini/coordinate/face.hpp</title>
<polygon fill="white" stroke="transparent" points="-4,4 -4,-303 622.5,-303 622.5,4 -4,4"/>
<!-- Node1 -->
<g id="node1" class="node">
<title>Node1</title>
<g id="a_node1"><a xlink:title=" ">
<polygon fill="#bfbfbf" stroke="black" points="188,-268.5 188,-298.5 319,-298.5 319,-268.5 188,-268.5"/>
<text text-anchor="start" x="196" y="-286.5" font-family="Helvetica,sans-Serif" font-size="10.00">include/mini/coordinate</text>
<text text-anchor="middle" x="253.5" y="-275.5" font-family="Helvetica,sans-Serif" font-size="10.00">/face.hpp</text>
</a>
</g>
</g>
<!-- Node2 -->
<g id="node2" class="node">
<title>Node2</title>
<g id="a_node2"><a xlink:href="coordinate_2quadrangle_8hpp.html" target="_top" xlink:title=" ">
<polygon fill="white" stroke="black" points="0,-201.5 0,-231.5 131,-231.5 131,-201.5 0,-201.5"/>
<text text-anchor="start" x="8" y="-219.5" font-family="Helvetica,sans-Serif" font-size="10.00">include/mini/coordinate</text>
<text text-anchor="middle" x="65.5" y="-208.5" font-family="Helvetica,sans-Serif" font-size="10.00">/quadrangle.hpp</text>
</a>
</g>
</g>
<!-- Node1&#45;&gt;Node2 -->
<g id="edge1" class="edge">
<title>Node1&#45;&gt;Node2</title>
<path fill="none" stroke="midnightblue" d="M203.15,-265.09C172.8,-254.6 134.65,-241.41 106.21,-231.58"/>
<polygon fill="midnightblue" stroke="midnightblue" points="202.11,-268.44 212.71,-268.4 204.4,-261.82 202.11,-268.44"/>
</g>
<!-- Node3 -->
<g id="node3" class="node">
<title>Node3</title>
<g id="a_node3"><a xlink:href="integrator_2quadrangle_8hpp.html" target="_top" xlink:title=" ">
<polygon fill="white" stroke="black" points="46.5,-134.5 46.5,-164.5 174.5,-164.5 174.5,-134.5 46.5,-134.5"/>
<text text-anchor="start" x="54.5" y="-152.5" font-family="Helvetica,sans-Serif" font-size="10.00">include/mini/integrator</text>
<text text-anchor="middle" x="110.5" y="-141.5" font-family="Helvetica,sans-Serif" font-size="10.00">/quadrangle.hpp</text>
</a>
</g>
</g>
<!-- Node1&#45;&gt;Node3 -->
<g id="edge13" class="edge">
<title>Node1&#45;&gt;Node3</title>
<path fill="none" stroke="midnightblue" d="M220.32,-263.03C206.72,-254.34 191.22,-243.47 178.5,-232 155.1,-210.89 132.62,-181.62 120.27,-164.51"/>
<polygon fill="midnightblue" stroke="midnightblue" points="218.6,-266.08 228.93,-268.41 222.31,-260.15 218.6,-266.08"/>
</g>
<!-- Node4 -->
<g id="node4" class="node">
<title>Node4</title>
<g id="a_node4"><a xlink:href="coordinate_2triangle_8hpp.html" target="_top" xlink:title=" ">
<polygon fill="white" stroke="black" points="188,-201.5 188,-231.5 319,-231.5 319,-201.5 188,-201.5"/>
<text text-anchor="start" x="196" y="-219.5" font-family="Helvetica,sans-Serif" font-size="10.00">include/mini/coordinate</text>
<text text-anchor="middle" x="253.5" y="-208.5" font-family="Helvetica,sans-Serif" font-size="10.00">/triangle.hpp</text>
</a>
</g>
</g>
<!-- Node1&#45;&gt;Node4 -->
<g id="edge3" class="edge">
<title>Node1&#45;&gt;Node4</title>
<path fill="none" stroke="midnightblue" d="M253.5,-258.11C253.5,-249.15 253.5,-239.32 253.5,-231.58"/>
<polygon fill="midnightblue" stroke="midnightblue" points="250,-258.4 253.5,-268.4 257,-258.4 250,-258.4"/>
</g>
<!-- Node7 -->
<g id="node7" class="node">
<title>Node7</title>
<g id="a_node7"><a xlink:href="integrator_2face_8hpp.html" target="_top" xlink:title=" ">
<polygon fill="white" stroke="black" points="337.5,-201.5 337.5,-231.5 465.5,-231.5 465.5,-201.5 337.5,-201.5"/>
<text text-anchor="start" x="345.5" y="-219.5" font-family="Helvetica,sans-Serif" font-size="10.00">include/mini/integrator</text>
<text text-anchor="middle" x="401.5" y="-208.5" font-family="Helvetica,sans-Serif" font-size="10.00">/face.hpp</text>
</a>
</g>
</g>
<!-- Node1&#45;&gt;Node7 -->
<g id="edge6" class="edge">
<title>Node1&#45;&gt;Node7</title>
<path fill="none" stroke="midnightblue" d="M295.01,-264.27C318.58,-253.92 347.64,-241.15 369.45,-231.58"/>
<polygon fill="midnightblue" stroke="midnightblue" points="293.36,-261.17 285.61,-268.4 296.18,-267.58 293.36,-261.17"/>
</g>
<!-- Node11 -->
<g id="node11" class="node">
<title>Node11</title>
<g id="a_node11"><a xlink:href="part_8hpp.html" target="_top" xlink:title=" ">
<polygon fill="white" stroke="black" points="468.5,-140 468.5,-159 618.5,-159 618.5,-140 468.5,-140"/>
<text text-anchor="middle" x="543.5" y="-147" font-family="Helvetica,sans-Serif" font-size="10.00">include/mini/mesh/part.hpp</text>
</a>
</g>
</g>
<!-- Node1&#45;&gt;Node11 -->
<g id="edge14" class="edge">
<title>Node1&#45;&gt;Node11</title>
<path fill="none" stroke="midnightblue" d="M329,-277.25C373.94,-271.32 430.58,-258.72 474.5,-232 505.23,-213.31 529.01,-176.14 538.73,-159.24"/>
<polygon fill="midnightblue" stroke="midnightblue" points="328.51,-273.78 319.01,-278.48 329.37,-280.73 328.51,-273.78"/>
</g>
<!-- Node2&#45;&gt;Node3 -->
<g id="edge2" class="edge">
<title>Node2&#45;&gt;Node3</title>
<path fill="none" stroke="midnightblue" d="M80.97,-193.16C87.53,-183.68 94.98,-172.92 100.75,-164.58"/>
<polygon fill="midnightblue" stroke="midnightblue" points="78.08,-191.18 75.26,-201.4 83.83,-195.17 78.08,-191.18"/>
</g>
<!-- Node5 -->
<g id="node5" class="node">
<title>Node5</title>
<g id="a_node5"><a xlink:href="integrator_2triangle_8hpp.html" target="_top" xlink:title=" ">
<polygon fill="white" stroke="black" points="192.5,-134.5 192.5,-164.5 320.5,-164.5 320.5,-134.5 192.5,-134.5"/>
<text text-anchor="start" x="200.5" y="-152.5" font-family="Helvetica,sans-Serif" font-size="10.00">include/mini/integrator</text>
<text text-anchor="middle" x="256.5" y="-141.5" font-family="Helvetica,sans-Serif" font-size="10.00">/triangle.hpp</text>
</a>
</g>
</g>
<!-- Node4&#45;&gt;Node5 -->
<g id="edge4" class="edge">
<title>Node4&#45;&gt;Node5</title>
<path fill="none" stroke="midnightblue" d="M254.61,-191.4C255.03,-182.37 255.49,-172.41 255.85,-164.58"/>
<polygon fill="midnightblue" stroke="midnightblue" points="251.12,-191.25 254.15,-201.4 258.11,-191.57 251.12,-191.25"/>
</g>
<!-- Node6 -->
<g id="node6" class="node">
<title>Node6</title>
<g id="a_node6"><a xlink:href="integrator_2wedge_8hpp.html" target="_top" xlink:title=" ">
<polygon fill="white" stroke="black" points="188.5,-67.5 188.5,-97.5 316.5,-97.5 316.5,-67.5 188.5,-67.5"/>
<text text-anchor="start" x="196.5" y="-85.5" font-family="Helvetica,sans-Serif" font-size="10.00">include/mini/integrator</text>
<text text-anchor="middle" x="252.5" y="-74.5" font-family="Helvetica,sans-Serif" font-size="10.00">/wedge.hpp</text>
</a>
</g>
</g>
<!-- Node5&#45;&gt;Node6 -->
<g id="edge5" class="edge">
<title>Node5&#45;&gt;Node6</title>
<path fill="none" stroke="midnightblue" d="M255.02,-124.4C254.46,-115.37 253.85,-105.41 253.37,-97.58"/>
<polygon fill="midnightblue" stroke="midnightblue" points="251.52,-124.63 255.63,-134.4 258.51,-124.2 251.52,-124.63"/>
</g>
<!-- Node7&#45;&gt;Node3 -->
<g id="edge10" class="edge">
<title>Node7&#45;&gt;Node3</title>
<path fill="none" stroke="midnightblue" d="M328.74,-199.25C280.96,-188.58 219.08,-174.75 173.42,-164.55"/>
<polygon fill="midnightblue" stroke="midnightblue" points="328.19,-202.71 338.72,-201.48 329.72,-195.88 328.19,-202.71"/>
</g>
<!-- Node7&#45;&gt;Node5 -->
<g id="edge11" class="edge">
<title>Node7&#45;&gt;Node5</title>
<path fill="none" stroke="midnightblue" d="M360.83,-197.27C337.74,-186.92 309.26,-174.15 287.9,-164.58"/>
<polygon fill="midnightblue" stroke="midnightblue" points="359.48,-200.5 370.04,-201.4 362.34,-194.11 359.48,-200.5"/>
</g>
<!-- Node8 -->
<g id="node8" class="node">
<title>Node8</title>
<g id="a_node8"><a xlink:href="basis_2linear_8hpp.html" target="_top" xlink:title=" ">
<polygon fill="white" stroke="black" points="345,-134.5 345,-164.5 450,-164.5 450,-134.5 345,-134.5"/>
<text text-anchor="start" x="353" y="-152.5" font-family="Helvetica,sans-Serif" font-size="10.00">include/mini/basis</text>
<text text-anchor="middle" x="397.5" y="-141.5" font-family="Helvetica,sans-Serif" font-size="10.00">/linear.hpp</text>
</a>
</g>
</g>
<!-- Node7&#45;&gt;Node8 -->
<g id="edge7" class="edge">
<title>Node7&#45;&gt;Node8</title>
<path fill="none" stroke="midnightblue" d="M400.02,-191.4C399.46,-182.37 398.85,-172.41 398.37,-164.58"/>
<polygon fill="midnightblue" stroke="midnightblue" points="396.52,-191.63 400.63,-201.4 403.51,-191.2 396.52,-191.63"/>
</g>
<!-- Node7&#45;&gt;Node11 -->
<g id="edge12" class="edge">
<title>Node7&#45;&gt;Node11</title>
<path fill="none" stroke="midnightblue" d="M441.63,-197.13C468.96,-184.62 503.87,-168.64 524.92,-159.01"/>
<polygon fill="midnightblue" stroke="midnightblue" points="439.95,-194.05 432.31,-201.4 442.86,-200.42 439.95,-194.05"/>
</g>
<!-- Node9 -->
<g id="node9" class="node">
<title>Node9</title>
<g id="a_node9"><a xlink:href="projection_8hpp.html" target="_top" xlink:title=" ">
<polygon fill="white" stroke="black" points="334.5,-67.5 334.5,-97.5 468.5,-97.5 468.5,-67.5 334.5,-67.5"/>
<text text-anchor="start" x="342.5" y="-85.5" font-family="Helvetica,sans-Serif" font-size="10.00">include/mini/polynomial</text>
<text text-anchor="middle" x="401.5" y="-74.5" font-family="Helvetica,sans-Serif" font-size="10.00">/projection.hpp</text>
</a>
</g>
</g>
<!-- Node8&#45;&gt;Node9 -->
<g id="edge8" class="edge">
<title>Node8&#45;&gt;Node9</title>
<path fill="none" stroke="midnightblue" d="M398.98,-124.4C399.54,-115.37 400.15,-105.41 400.63,-97.58"/>
<polygon fill="midnightblue" stroke="midnightblue" points="395.49,-124.2 398.37,-134.4 402.48,-124.63 395.49,-124.2"/>
</g>
<!-- Node10 -->
<g id="node10" class="node">
<title>Node10</title>
<g id="a_node10"><a xlink:href="extrapolation_8hpp.html" target="_top" xlink:title=" ">
<polygon fill="white" stroke="black" points="334.5,-0.5 334.5,-30.5 468.5,-30.5 468.5,-0.5 334.5,-0.5"/>
<text text-anchor="start" x="342.5" y="-18.5" font-family="Helvetica,sans-Serif" font-size="10.00">include/mini/polynomial</text>
<text text-anchor="middle" x="401.5" y="-7.5" font-family="Helvetica,sans-Serif" font-size="10.00">/extrapolation.hpp</text>
</a>
</g>
</g>
<!-- Node9&#45;&gt;Node10 -->
<g id="edge9" class="edge">
<title>Node9&#45;&gt;Node10</title>
<path fill="none" stroke="midnightblue" d="M401.5,-57.11C401.5,-48.15 401.5,-38.32 401.5,-30.58"/>
<polygon fill="midnightblue" stroke="midnightblue" points="398,-57.4 401.5,-67.4 405,-57.4 398,-57.4"/>
</g>
</g>
</svg>
