<?xml version="1.0" encoding="UTF-8" standalone="no"?>
<!DOCTYPE svg PUBLIC "-//W3C//DTD SVG 1.1//EN"
 "http://www.w3.org/Graphics/SVG/1.1/DTD/svg11.dtd">
<!-- Generated by graphviz version 2.43.0 (0)
 -->
<!-- Title: include/mini/coordinate/cell.hpp Pages: 1 -->
<svg width="904pt" height="374pt"
 viewBox="0.00 0.00 904.00 374.00" xmlns="http://www.w3.org/2000/svg" xmlns:xlink="http://www.w3.org/1999/xlink">
<g id="graph0" class="graph" transform="scale(1 1) rotate(0) translate(4 370)">
<title>include/mini/coordinate/cell.hpp</title>
<polygon fill="white" stroke="transparent" points="-4,4 -4,-370 900,-370 900,4 -4,4"/>
<!-- Node1 -->
<g id="node1" class="node">
<title>Node1</title>
<g id="a_node1"><a xlink:title=" ">
<polygon fill="#bfbfbf" stroke="black" points="376.5,-335.5 376.5,-365.5 507.5,-365.5 507.5,-335.5 376.5,-335.5"/>
<text text-anchor="start" x="384.5" y="-353.5" font-family="Helvetica,sans-Serif" font-size="10.00">include/mini/coordinate</text>
<text text-anchor="middle" x="442" y="-342.5" font-family="Helvetica,sans-Serif" font-size="10.00">/cell.hpp</text>
</a>
</g>
</g>
<!-- Node2 -->
<g id="node2" class="node">
<title>Node2</title>
<g id="a_node2"><a xlink:href="coordinate_2hexahedron_8hpp.html" target="_top" xlink:title=" ">
<polygon fill="white" stroke="black" points="153.5,-268.5 153.5,-298.5 284.5,-298.5 284.5,-268.5 153.5,-268.5"/>
<text text-anchor="start" x="161.5" y="-286.5" font-family="Helvetica,sans-Serif" font-size="10.00">include/mini/coordinate</text>
<text text-anchor="middle" x="219" y="-275.5" font-family="Helvetica,sans-Serif" font-size="10.00">/hexahedron.hpp</text>
</a>
</g>
</g>
<!-- Node1&#45;&gt;Node2 -->
<g id="edge1" class="edge">
<title>Node1&#45;&gt;Node2</title>
<path fill="none" stroke="midnightblue" d="M383.95,-332.58C347.73,-322.02 301.65,-308.59 267.41,-298.61"/>
<polygon fill="midnightblue" stroke="midnightblue" points="383.31,-336.04 393.89,-335.48 385.27,-329.32 383.31,-336.04"/>
</g>
<!-- Node8 -->
<g id="node8" class="node">
<title>Node8</title>
<g id="a_node8"><a xlink:href="coordinate_2pyramid_8hpp.html" target="_top" xlink:title=" ">
<polygon fill="white" stroke="black" points="1.5,-268.5 1.5,-298.5 132.5,-298.5 132.5,-268.5 1.5,-268.5"/>
<text text-anchor="start" x="9.5" y="-286.5" font-family="Helvetica,sans-Serif" font-size="10.00">include/mini/coordinate</text>
<text text-anchor="middle" x="67" y="-275.5" font-family="Helvetica,sans-Serif" font-size="10.00">/pyramid.hpp</text>
</a>
</g>
</g>
<!-- Node1&#45;&gt;Node8 -->
<g id="edge8" class="edge">
<title>Node1&#45;&gt;Node8</title>
<path fill="none" stroke="midnightblue" d="M366.06,-337.02C305.8,-327.03 219.44,-312.49 144,-299 140.25,-298.33 136.4,-297.63 132.52,-296.92"/>
<polygon fill="midnightblue" stroke="midnightblue" points="365.81,-340.53 376.25,-338.71 366.95,-333.62 365.81,-340.53"/>
</g>
<!-- Node10 -->
<g id="node10" class="node">
<title>Node10</title>
<g id="a_node10"><a xlink:href="coordinate_2tetrahedron_8hpp.html" target="_top" xlink:title=" ">
<polygon fill="white" stroke="black" points="450.5,-268.5 450.5,-298.5 581.5,-298.5 581.5,-268.5 450.5,-268.5"/>
<text text-anchor="start" x="458.5" y="-286.5" font-family="Helvetica,sans-Serif" font-size="10.00">include/mini/coordinate</text>
<text text-anchor="middle" x="516" y="-275.5" font-family="Helvetica,sans-Serif" font-size="10.00">/tetrahedron.hpp</text>
</a>
</g>
</g>
<!-- Node1&#45;&gt;Node10 -->
<g id="edge10" class="edge">
<title>Node1&#45;&gt;Node10</title>
<path fill="none" stroke="midnightblue" d="M465.8,-328.6C476.97,-318.78 489.99,-307.34 499.97,-298.58"/>
<polygon fill="midnightblue" stroke="midnightblue" points="463.26,-326.17 458.06,-335.4 467.88,-331.43 463.26,-326.17"/>
</g>
<!-- Node12 -->
<g id="node12" class="node">
<title>Node12</title>
<g id="a_node12"><a xlink:href="coordinate_2wedge_8hpp.html" target="_top" xlink:title=" ">
<polygon fill="white" stroke="black" points="599.5,-268.5 599.5,-298.5 730.5,-298.5 730.5,-268.5 599.5,-268.5"/>
<text text-anchor="start" x="607.5" y="-286.5" font-family="Helvetica,sans-Serif" font-size="10.00">include/mini/coordinate</text>
<text text-anchor="middle" x="665" y="-275.5" font-family="Helvetica,sans-Serif" font-size="10.00">/wedge.hpp</text>
</a>
</g>
</g>
<!-- Node1&#45;&gt;Node12 -->
<g id="edge12" class="edge">
<title>Node1&#45;&gt;Node12</title>
<path fill="none" stroke="midnightblue" d="M500.05,-332.58C536.27,-322.02 582.35,-308.59 616.59,-298.61"/>
<polygon fill="midnightblue" stroke="midnightblue" points="498.73,-329.32 490.11,-335.48 500.69,-336.04 498.73,-329.32"/>
</g>
<!-- Node14 -->
<g id="node14" class="node">
<title>Node14</title>
<g id="a_node14"><a xlink:href="integrator_2cell_8hpp.html" target="_top" xlink:title=" ">
<polygon fill="white" stroke="black" points="304,-268.5 304,-298.5 432,-298.5 432,-268.5 304,-268.5"/>
<text text-anchor="start" x="312" y="-286.5" font-family="Helvetica,sans-Serif" font-size="10.00">include/mini/integrator</text>
<text text-anchor="middle" x="368" y="-275.5" font-family="Helvetica,sans-Serif" font-size="10.00">/cell.hpp</text>
</a>
</g>
</g>
<!-- Node1&#45;&gt;Node14 -->
<g id="edge14" class="edge">
<title>Node1&#45;&gt;Node14</title>
<path fill="none" stroke="midnightblue" d="M418.2,-328.6C407.03,-318.78 394.01,-307.34 384.03,-298.58"/>
<polygon fill="midnightblue" stroke="midnightblue" points="416.12,-331.43 425.94,-335.4 420.74,-326.17 416.12,-331.43"/>
</g>
<!-- Node18 -->
<g id="node18" class="node">
<title>Node18</title>
<g id="a_node18"><a xlink:href="part_8hpp.html" target="_top" xlink:title=" ">
<polygon fill="white" stroke="black" points="746,-207 746,-226 896,-226 896,-207 746,-207"/>
<text text-anchor="middle" x="821" y="-214" font-family="Helvetica,sans-Serif" font-size="10.00">include/mini/mesh/part.hpp</text>
</a>
</g>
</g>
<!-- Node1&#45;&gt;Node18 -->
<g id="edge24" class="edge">
<title>Node1&#45;&gt;Node18</title>
<path fill="none" stroke="midnightblue" d="M517.74,-349.29C580.5,-346.25 670.38,-335.08 740,-299 774.54,-281.1 803.46,-243.18 815.28,-226.13"/>
<polygon fill="midnightblue" stroke="midnightblue" points="517.36,-345.8 507.51,-349.73 517.65,-352.8 517.36,-345.8"/>
</g>
<!-- Node3 -->
<g id="node3" class="node">
<title>Node3</title>
<g id="a_node3"><a xlink:href="integrator_2hexahedron_8hpp.html" target="_top" xlink:title=" ">
<polygon fill="white" stroke="black" points="146,-201.5 146,-231.5 274,-231.5 274,-201.5 146,-201.5"/>
<text text-anchor="start" x="154" y="-219.5" font-family="Helvetica,sans-Serif" font-size="10.00">include/mini/integrator</text>
<text text-anchor="middle" x="210" y="-208.5" font-family="Helvetica,sans-Serif" font-size="10.00">/hexahedron.hpp</text>
</a>
</g>
</g>
<!-- Node2&#45;&gt;Node3 -->
<g id="edge2" class="edge">
<title>Node2&#45;&gt;Node3</title>
<path fill="none" stroke="midnightblue" d="M215.66,-258.4C214.41,-249.37 213.03,-239.41 211.95,-231.58"/>
<polygon fill="midnightblue" stroke="midnightblue" points="212.21,-258.97 217.05,-268.4 219.14,-258.01 212.21,-258.97"/>
</g>
<!-- Node4 -->
<g id="node4" class="node">
<title>Node4</title>
<g id="a_node4"><a xlink:href="polynomial_2hexahedron_8hpp.html" target="_top" xlink:title=" ">
<polygon fill="white" stroke="black" points="143,-134.5 143,-164.5 277,-164.5 277,-134.5 143,-134.5"/>
<text text-anchor="start" x="151" y="-152.5" font-family="Helvetica,sans-Serif" font-size="10.00">include/mini/polynomial</text>
<text text-anchor="middle" x="210" y="-141.5" font-family="Helvetica,sans-Serif" font-size="10.00">/hexahedron.hpp</text>
</a>
</g>
</g>
<!-- Node3&#45;&gt;Node4 -->
<g id="edge3" class="edge">
<title>Node3&#45;&gt;Node4</title>
<path fill="none" stroke="midnightblue" d="M210,-191.11C210,-182.15 210,-172.32 210,-164.58"/>
<polygon fill="midnightblue" stroke="midnightblue" points="206.5,-191.4 210,-201.4 213.5,-191.4 206.5,-191.4"/>
</g>
<!-- Node5 -->
<g id="node5" class="node">
<title>Node5</title>
<g id="a_node5"><a xlink:href="spatial_2dg_2lobatto_8hpp.html" target="_top" xlink:title=" ">
<polygon fill="white" stroke="black" points="41.5,-67.5 41.5,-97.5 154.5,-97.5 154.5,-67.5 41.5,-67.5"/>
<text text-anchor="start" x="49.5" y="-85.5" font-family="Helvetica,sans-Serif" font-size="10.00">include/mini/spatial</text>
<text text-anchor="middle" x="98" y="-74.5" font-family="Helvetica,sans-Serif" font-size="10.00">/dg/lobatto.hpp</text>
</a>
</g>
</g>
<!-- Node4&#45;&gt;Node5 -->
<g id="edge4" class="edge">
<title>Node4&#45;&gt;Node5</title>
<path fill="none" stroke="midnightblue" d="M176.91,-129.3C159.38,-119.12 138.24,-106.85 122.25,-97.58"/>
<polygon fill="midnightblue" stroke="midnightblue" points="175.29,-132.4 185.7,-134.4 178.81,-126.35 175.29,-132.4"/>
</g>
<!-- Node6 -->
<g id="node6" class="node">
<title>Node6</title>
<g id="a_node6"><a xlink:href="fr_2general_8hpp.html" target="_top" xlink:title=" ">
<polygon fill="white" stroke="black" points="211.5,-67.5 211.5,-97.5 324.5,-97.5 324.5,-67.5 211.5,-67.5"/>
<text text-anchor="start" x="219.5" y="-85.5" font-family="Helvetica,sans-Serif" font-size="10.00">include/mini/spatial</text>
<text text-anchor="middle" x="268" y="-74.5" font-family="Helvetica,sans-Serif" font-size="10.00">/fr/general.hpp</text>
</a>
</g>
</g>
<!-- Node4&#45;&gt;Node6 -->
<g id="edge5" class="edge">
<title>Node4&#45;&gt;Node6</title>
<path fill="none" stroke="midnightblue" d="M229.42,-126.74C238,-117.12 247.84,-106.09 255.44,-97.58"/>
<polygon fill="midnightblue" stroke="midnightblue" points="226.63,-124.6 222.59,-134.4 231.85,-129.26 226.63,-124.6"/>
</g>
<!-- Node7 -->
<g id="node7" class="node">
<title>Node7</title>
<g id="a_node7"><a xlink:href="spatial_2fr_2lobatto_8hpp.html" target="_top" xlink:title=" ">
<polygon fill="white" stroke="black" points="168.5,-0.5 168.5,-30.5 281.5,-30.5 281.5,-0.5 168.5,-0.5"/>
<text text-anchor="start" x="176.5" y="-18.5" font-family="Helvetica,sans-Serif" font-size="10.00">include/mini/spatial</text>
<text text-anchor="middle" x="225" y="-7.5" font-family="Helvetica,sans-Serif" font-size="10.00">/fr/lobatto.hpp</text>
</a>
</g>
</g>
<!-- Node4&#45;&gt;Node7 -->
<g id="edge7" class="edge">
<title>Node4&#45;&gt;Node7</title>
<path fill="none" stroke="midnightblue" d="M203.74,-124.38C200.45,-108.03 197.87,-86.03 202,-67 204.82,-54.01 211.28,-40.35 216.64,-30.52"/>
<polygon fill="midnightblue" stroke="midnightblue" points="200.34,-125.22 205.95,-134.21 207.18,-123.69 200.34,-125.22"/>
</g>
<!-- Node6&#45;&gt;Node7 -->
<g id="edge6" class="edge">
<title>Node6&#45;&gt;Node7</title>
<path fill="none" stroke="midnightblue" d="M253.03,-58.87C246.8,-49.46 239.77,-38.83 234.31,-30.58"/>
<polygon fill="midnightblue" stroke="midnightblue" points="250.23,-60.99 258.67,-67.4 256.07,-57.12 250.23,-60.99"/>
</g>
<!-- Node9 -->
<g id="node9" class="node">
<title>Node9</title>
<g id="a_node9"><a xlink:href="integrator_2pyramid_8hpp.html" target="_top" xlink:title=" ">
<polygon fill="white" stroke="black" points="0,-201.5 0,-231.5 128,-231.5 128,-201.5 0,-201.5"/>
<text text-anchor="start" x="8" y="-219.5" font-family="Helvetica,sans-Serif" font-size="10.00">include/mini/integrator</text>
<text text-anchor="middle" x="64" y="-208.5" font-family="Helvetica,sans-Serif" font-size="10.00">/pyramid.hpp</text>
</a>
</g>
</g>
<!-- Node8&#45;&gt;Node9 -->
<g id="edge9" class="edge">
<title>Node8&#45;&gt;Node9</title>
<path fill="none" stroke="midnightblue" d="M65.89,-258.4C65.47,-249.37 65.01,-239.41 64.65,-231.58"/>
<polygon fill="midnightblue" stroke="midnightblue" points="62.39,-258.57 66.35,-268.4 69.38,-258.25 62.39,-258.57"/>
</g>
<!-- Node11 -->
<g id="node11" class="node">
<title>Node11</title>
<g id="a_node11"><a xlink:href="integrator_2tetrahedron_8hpp.html" target="_top" xlink:title=" ">
<polygon fill="white" stroke="black" points="454,-201.5 454,-231.5 582,-231.5 582,-201.5 454,-201.5"/>
<text text-anchor="start" x="462" y="-219.5" font-family="Helvetica,sans-Serif" font-size="10.00">include/mini/integrator</text>
<text text-anchor="middle" x="518" y="-208.5" font-family="Helvetica,sans-Serif" font-size="10.00">/tetrahedron.hpp</text>
</a>
</g>
</g>
<!-- Node10&#45;&gt;Node11 -->
<g id="edge11" class="edge">
<title>Node10&#45;&gt;Node11</title>
<path fill="none" stroke="midnightblue" d="M516.75,-258.11C517.03,-249.15 517.33,-239.32 517.57,-231.58"/>
<polygon fill="midnightblue" stroke="midnightblue" points="513.24,-258.29 516.43,-268.4 520.24,-258.51 513.24,-258.29"/>
</g>
<!-- Node13 -->
<g id="node13" class="node">
<title>Node13</title>
<g id="a_node13"><a xlink:href="integrator_2wedge_8hpp.html" target="_top" xlink:title=" ">
<polygon fill="white" stroke="black" points="600,-201.5 600,-231.5 728,-231.5 728,-201.5 600,-201.5"/>
<text text-anchor="start" x="608" y="-219.5" font-family="Helvetica,sans-Serif" font-size="10.00">include/mini/integrator</text>
<text text-anchor="middle" x="664" y="-208.5" font-family="Helvetica,sans-Serif" font-size="10.00">/wedge.hpp</text>
</a>
</g>
</g>
<!-- Node12&#45;&gt;Node13 -->
<g id="edge13" class="edge">
<title>Node12&#45;&gt;Node13</title>
<path fill="none" stroke="midnightblue" d="M664.62,-258.11C664.49,-249.15 664.34,-239.32 664.22,-231.58"/>
<polygon fill="midnightblue" stroke="midnightblue" points="661.13,-258.45 664.78,-268.4 668.13,-258.34 661.13,-258.45"/>
</g>
<!-- Node14&#45;&gt;Node3 -->
<g id="edge18" class="edge">
<title>Node14&#45;&gt;Node3</title>
<path fill="none" stroke="midnightblue" d="M324.35,-264.54C299.07,-254.14 267.7,-241.24 244.22,-231.58"/>
<polygon fill="midnightblue" stroke="midnightblue" points="323.14,-267.83 333.72,-268.4 325.8,-261.35 323.14,-267.83"/>
</g>
<!-- Node14&#45;&gt;Node4 -->
<g id="edge23" class="edge">
<title>Node14&#45;&gt;Node4</title>
<path fill="none" stroke="midnightblue" d="M347.4,-260.94C330.7,-243.91 306.21,-219.95 283,-201 266.77,-187.74 247.18,-174.32 232.38,-164.65"/>
<polygon fill="midnightblue" stroke="midnightblue" points="345.01,-263.5 354.49,-268.23 350.03,-258.62 345.01,-263.5"/>
</g>
<!-- Node14&#45;&gt;Node9 -->
<g id="edge19" class="edge">
<title>Node14&#45;&gt;Node9</title>
<path fill="none" stroke="midnightblue" d="M293.97,-266.67C243.19,-255.81 176.49,-241.55 128.01,-231.19"/>
<polygon fill="midnightblue" stroke="midnightblue" points="293.39,-270.13 303.9,-268.79 294.85,-263.28 293.39,-270.13"/>
</g>
<!-- Node14&#45;&gt;Node11 -->
<g id="edge20" class="edge">
<title>Node14&#45;&gt;Node11</title>
<path fill="none" stroke="midnightblue" d="M409.75,-264.41C433.7,-254.03 463.32,-241.2 485.52,-231.58"/>
<polygon fill="midnightblue" stroke="midnightblue" points="408.33,-261.21 400.55,-268.4 411.11,-267.63 408.33,-261.21"/>
</g>
<!-- Node14&#45;&gt;Node13 -->
<g id="edge21" class="edge">
<title>Node14&#45;&gt;Node13</title>
<path fill="none" stroke="midnightblue" d="M441.7,-266.32C490.35,-255.63 553.46,-241.77 600,-231.55"/>
<polygon fill="midnightblue" stroke="midnightblue" points="440.88,-262.91 431.86,-268.48 442.38,-269.75 440.88,-262.91"/>
</g>
<!-- Node15 -->
<g id="node15" class="node">
<title>Node15</title>
<g id="a_node15"><a xlink:href="basis_2linear_8hpp.html" target="_top" xlink:title=" ">
<polygon fill="white" stroke="black" points="330.5,-201.5 330.5,-231.5 435.5,-231.5 435.5,-201.5 330.5,-201.5"/>
<text text-anchor="start" x="338.5" y="-219.5" font-family="Helvetica,sans-Serif" font-size="10.00">include/mini/basis</text>
<text text-anchor="middle" x="383" y="-208.5" font-family="Helvetica,sans-Serif" font-size="10.00">/linear.hpp</text>
</a>
</g>
</g>
<!-- Node14&#45;&gt;Node15 -->
<g id="edge15" class="edge">
<title>Node14&#45;&gt;Node15</title>
<path fill="none" stroke="midnightblue" d="M373.56,-258.4C375.65,-249.37 377.94,-239.41 379.75,-231.58"/>
<polygon fill="midnightblue" stroke="midnightblue" points="370.09,-257.87 371.25,-268.4 376.91,-259.44 370.09,-257.87"/>
</g>
<!-- Node14&#45;&gt;Node18 -->
<g id="edge22" class="edge">
<title>Node14&#45;&gt;Node18</title>
<path fill="none" stroke="midnightblue" d="M441.7,-268.05C441.8,-268.03 441.9,-268.02 442,-268 572.45,-247.29 606.33,-251.24 737,-232 749.01,-230.23 761.94,-228.11 773.97,-226.04"/>
<polygon fill="midnightblue" stroke="midnightblue" points="441.41,-264.55 432.13,-269.64 442.56,-271.45 441.41,-264.55"/>
</g>
<!-- Node16 -->
<g id="node16" class="node">
<title>Node16</title>
<g id="a_node16"><a xlink:href="projection_8hpp.html" target="_top" xlink:title=" ">
<polygon fill="white" stroke="black" points="329,-134.5 329,-164.5 463,-164.5 463,-134.5 329,-134.5"/>
<text text-anchor="start" x="337" y="-152.5" font-family="Helvetica,sans-Serif" font-size="10.00">include/mini/polynomial</text>
<text text-anchor="middle" x="396" y="-141.5" font-family="Helvetica,sans-Serif" font-size="10.00">/projection.hpp</text>
</a>
</g>
</g>
<!-- Node15&#45;&gt;Node16 -->
<g id="edge16" class="edge">
<title>Node15&#45;&gt;Node16</title>
<path fill="none" stroke="midnightblue" d="M387.82,-191.4C389.63,-182.37 391.62,-172.41 393.18,-164.58"/>
<polygon fill="midnightblue" stroke="midnightblue" points="384.35,-190.9 385.82,-201.4 391.21,-192.28 384.35,-190.9"/>
</g>
<!-- Node17 -->
<g id="node17" class="node">
<title>Node17</title>
<g id="a_node17"><a xlink:href="extrapolation_8hpp.html" target="_top" xlink:title=" ">
<polygon fill="white" stroke="black" points="343,-67.5 343,-97.5 477,-97.5 477,-67.5 343,-67.5"/>
<text text-anchor="start" x="351" y="-85.5" font-family="Helvetica,sans-Serif" font-size="10.00">include/mini/polynomial</text>
<text text-anchor="middle" x="410" y="-74.5" font-family="Helvetica,sans-Serif" font-size="10.00">/extrapolation.hpp</text>
</a>
</g>
</g>
<!-- Node16&#45;&gt;Node17 -->
<g id="edge17" class="edge">
<title>Node16&#45;&gt;Node17</title>
<path fill="none" stroke="midnightblue" d="M401.19,-124.4C403.14,-115.37 405.28,-105.41 406.97,-97.58"/>
<polygon fill="midnightblue" stroke="midnightblue" points="397.72,-123.88 399.04,-134.4 404.56,-125.36 397.72,-123.88"/>
</g>
</g>
</svg>
