<?xml version="1.0" encoding="UTF-8" standalone="no"?>
<!DOCTYPE svg PUBLIC "-//W3C//DTD SVG 1.1//EN"
 "http://www.w3.org/Graphics/SVG/1.1/DTD/svg11.dtd">
<!-- Generated by graphviz version 2.43.0 (0)
 -->
<!-- Title: include/mini/spatial/dg/general.hpp Pages: 1 -->
<svg width="1676pt" height="263pt"
 viewBox="0.00 0.00 1676.10 263.00" xmlns="http://www.w3.org/2000/svg" xmlns:xlink="http://www.w3.org/1999/xlink">
<g id="graph0" class="graph" transform="scale(1 1) rotate(0) translate(4 259)">
<title>include/mini/spatial/dg/general.hpp</title>
<polygon fill="white" stroke="transparent" points="-4,4 -4,-259 1672.1,-259 1672.1,4 -4,4"/>
<!-- Node1 -->
<g id="node1" class="node">
<title>Node1</title>
<g id="a_node1"><a xlink:title=" ">
<polygon fill="#bfbfbf" stroke="black" points="647.1,-224.5 647.1,-254.5 760.1,-254.5 760.1,-224.5 647.1,-224.5"/>
<text text-anchor="start" x="655.1" y="-242.5" font-family="Helvetica,sans-Serif" font-size="10.00">include/mini/spatial</text>
<text text-anchor="middle" x="703.6" y="-231.5" font-family="Helvetica,sans-Serif" font-size="10.00">/dg/general.hpp</text>
</a>
</g>
</g>
<!-- Node2 -->
<g id="node2" class="node">
<title>Node2</title>
<g id="a_node2"><a xlink:title=" ">
<polygon fill="white" stroke="#bfbfbf" points="350.6,-56.5 350.6,-75.5 402.6,-75.5 402.6,-56.5 350.6,-56.5"/>
<text text-anchor="middle" x="376.6" y="-63.5" font-family="Helvetica,sans-Serif" font-size="10.00">cassert</text>
</a>
</g>
</g>
<!-- Node1&#45;&gt;Node2 -->
<g id="edge1" class="edge">
<title>Node1&#45;&gt;Node2</title>
<path fill="none" stroke="midnightblue" d="M646.81,-231.67C547.47,-218.43 348.8,-185.75 307.6,-132 292.06,-111.73 320.72,-92.15 345.69,-79.87"/>
<polygon fill="midnightblue" stroke="midnightblue" points="347.4,-82.94 354.99,-75.54 344.45,-76.59 347.4,-82.94"/>
</g>
<!-- Node3 -->
<g id="node3" class="node">
<title>Node3</title>
<g id="a_node3"><a xlink:title=" ">
<polygon fill="white" stroke="#bfbfbf" points="621.1,-112.5 621.1,-131.5 686.1,-131.5 686.1,-112.5 621.1,-112.5"/>
<text text-anchor="middle" x="653.6" y="-119.5" font-family="Helvetica,sans-Serif" font-size="10.00">functional</text>
</a>
</g>
</g>
<!-- Node1&#45;&gt;Node3 -->
<g id="edge2" class="edge">
<title>Node1&#45;&gt;Node3</title>
<path fill="none" stroke="midnightblue" d="M697.47,-224.34C688.38,-203.34 671.33,-163.96 661.38,-140.96"/>
<polygon fill="midnightblue" stroke="midnightblue" points="664.54,-139.46 657.36,-131.67 658.12,-142.24 664.54,-139.46"/>
</g>
<!-- Node4 -->
<g id="node4" class="node">
<title>Node4</title>
<g id="a_node4"><a xlink:title=" ">
<polygon fill="white" stroke="#bfbfbf" points="704.6,-112.5 704.6,-131.5 762.6,-131.5 762.6,-112.5 704.6,-112.5"/>
<text text-anchor="middle" x="733.6" y="-119.5" font-family="Helvetica,sans-Serif" font-size="10.00">memory</text>
</a>
</g>
</g>
<!-- Node1&#45;&gt;Node4 -->
<g id="edge3" class="edge">
<title>Node1&#45;&gt;Node4</title>
<path fill="none" stroke="midnightblue" d="M707.28,-224.34C712.69,-203.53 722.78,-164.66 728.78,-141.58"/>
<polygon fill="midnightblue" stroke="midnightblue" points="732.22,-142.23 731.35,-131.67 725.45,-140.47 732.22,-142.23"/>
</g>
<!-- Node5 -->
<g id="node5" class="node">
<title>Node5</title>
<g id="a_node5"><a xlink:title=" ">
<polygon fill="white" stroke="#bfbfbf" points="556.1,-112.5 556.1,-131.5 603.1,-131.5 603.1,-112.5 556.1,-112.5"/>
<text text-anchor="middle" x="579.6" y="-119.5" font-family="Helvetica,sans-Serif" font-size="10.00">vector</text>
</a>
</g>
</g>
<!-- Node1&#45;&gt;Node5 -->
<g id="edge4" class="edge">
<title>Node1&#45;&gt;Node5</title>
<path fill="none" stroke="midnightblue" d="M688.4,-224.34C665.04,-202.58 620.5,-161.09 596.28,-138.54"/>
<polygon fill="midnightblue" stroke="midnightblue" points="598.61,-135.92 588.91,-131.67 593.84,-141.05 598.61,-135.92"/>
</g>
<!-- Node6 -->
<g id="node6" class="node">
<title>Node6</title>
<g id="a_node6"><a xlink:title=" ">
<polygon fill="white" stroke="#bfbfbf" points="1429.1,-112.5 1429.1,-131.5 1494.1,-131.5 1494.1,-112.5 1429.1,-112.5"/>
<text text-anchor="middle" x="1461.6" y="-119.5" font-family="Helvetica,sans-Serif" font-size="10.00">stdexcept</text>
</a>
</g>
</g>
<!-- Node1&#45;&gt;Node6 -->
<g id="edge5" class="edge">
<title>Node1&#45;&gt;Node6</title>
<path fill="none" stroke="midnightblue" d="M760.18,-232.34C837.96,-223.65 982.18,-206.75 1104.6,-188 1243,-166.8 1276.96,-157.61 1414.6,-132 1416.06,-131.73 1417.54,-131.45 1419.03,-131.17"/>
<polygon fill="midnightblue" stroke="midnightblue" points="1419.82,-134.59 1428.99,-129.29 1418.52,-127.71 1419.82,-134.59"/>
</g>
<!-- Node7 -->
<g id="node7" class="node">
<title>Node7</title>
<g id="a_node7"><a xlink:title=" ">
<polygon fill="white" stroke="#bfbfbf" points="1512.6,-112.5 1512.6,-131.5 1556.6,-131.5 1556.6,-112.5 1512.6,-112.5"/>
<text text-anchor="middle" x="1534.6" y="-119.5" font-family="Helvetica,sans-Serif" font-size="10.00">string</text>
</a>
</g>
</g>
<!-- Node1&#45;&gt;Node7 -->
<g id="edge6" class="edge">
<title>Node1&#45;&gt;Node7</title>
<path fill="none" stroke="midnightblue" d="M760.41,-233.67C849.67,-225.8 1028.09,-208.99 1178.6,-188 1320.09,-168.27 1358.37,-164.44 1502.21,-131.88"/>
<polygon fill="midnightblue" stroke="midnightblue" points="1503.32,-135.22 1512.3,-129.59 1501.77,-128.39 1503.32,-135.22"/>
</g>
<!-- Node8 -->
<g id="node8" class="node">
<title>Node8</title>
<g id="a_node8"><a xlink:title=" ">
<polygon fill="white" stroke="#bfbfbf" points="1575.1,-112.5 1575.1,-131.5 1668.1,-131.5 1668.1,-112.5 1575.1,-112.5"/>
<text text-anchor="middle" x="1621.6" y="-119.5" font-family="Helvetica,sans-Serif" font-size="10.00">unordered_map</text>
</a>
</g>
</g>
<!-- Node1&#45;&gt;Node8 -->
<g id="edge7" class="edge">
<title>Node1&#45;&gt;Node8</title>
<path fill="none" stroke="midnightblue" d="M760.23,-235.08C861.52,-228.58 1080.3,-212.86 1263.6,-188 1373.9,-173.04 1501.97,-147.88 1571.09,-133.65"/>
<polygon fill="midnightblue" stroke="midnightblue" points="1572.17,-137 1581.26,-131.55 1570.75,-130.14 1572.17,-137"/>
</g>
<!-- Node9 -->
<g id="node9" class="node">
<title>Node9</title>
<g id="a_node9"><a xlink:title=" ">
<polygon fill="white" stroke="#bfbfbf" points="493.1,-112.5 493.1,-131.5 538.1,-131.5 538.1,-112.5 493.1,-112.5"/>
<text text-anchor="middle" x="515.6" y="-119.5" font-family="Helvetica,sans-Serif" font-size="10.00">utility</text>
</a>
</g>
</g>
<!-- Node1&#45;&gt;Node9 -->
<g id="edge8" class="edge">
<title>Node1&#45;&gt;Node9</title>
<path fill="none" stroke="midnightblue" d="M680.55,-224.34C644.37,-202.11 574.65,-159.28 538.54,-137.09"/>
<polygon fill="midnightblue" stroke="midnightblue" points="540.07,-133.92 529.71,-131.67 536.4,-139.89 540.07,-133.92"/>
</g>
<!-- Node10 -->
<g id="node10" class="node">
<title>Node10</title>
<g id="a_node10"><a xlink:href="fem_8hpp.html" target="_top" xlink:title=" ">
<polygon fill="white" stroke="black" points="977.6,-168.5 977.6,-187.5 1095.6,-187.5 1095.6,-168.5 977.6,-168.5"/>
<text text-anchor="middle" x="1036.6" y="-175.5" font-family="Helvetica,sans-Serif" font-size="10.00">mini/spatial/fem.hpp</text>
</a>
</g>
</g>
<!-- Node1&#45;&gt;Node10 -->
<g id="edge9" class="edge">
<title>Node1&#45;&gt;Node10</title>
<path fill="none" stroke="midnightblue" d="M760.47,-228.34C821.44,-217.44 917.72,-200.24 978.98,-189.3"/>
<polygon fill="midnightblue" stroke="midnightblue" points="979.65,-192.73 988.87,-187.53 978.41,-185.84 979.65,-192.73"/>
</g>
<!-- Node22 -->
<g id="node22" class="node">
<title>Node22</title>
<g id="a_node22"><a xlink:href="reconstruct_8hpp.html" target="_top" xlink:title=" ">
<polygon fill="white" stroke="black" points="122.6,-168.5 122.6,-187.5 274.6,-187.5 274.6,-168.5 122.6,-168.5"/>
<text text-anchor="middle" x="198.6" y="-175.5" font-family="Helvetica,sans-Serif" font-size="10.00">mini/limiter/reconstruct.hpp</text>
</a>
</g>
</g>
<!-- Node1&#45;&gt;Node22 -->
<g id="edge32" class="edge">
<title>Node1&#45;&gt;Node22</title>
<path fill="none" stroke="midnightblue" d="M646.65,-231.79C557.28,-221.26 383.7,-200.81 280.8,-188.68"/>
<polygon fill="midnightblue" stroke="midnightblue" points="281.1,-185.2 270.76,-187.5 280.28,-192.15 281.1,-185.2"/>
</g>
<!-- Node10&#45;&gt;Node2 -->
<g id="edge11" class="edge">
<title>Node10&#45;&gt;Node2</title>
<path fill="none" stroke="midnightblue" d="M977.52,-170.05C930.96,-163.45 864.9,-151.57 809.6,-132 791.61,-125.63 789.88,-117.5 771.6,-112 620.77,-66.65 571.93,-102.56 413.01,-75.97"/>
<polygon fill="midnightblue" stroke="midnightblue" points="413.33,-72.47 402.88,-74.21 412.14,-79.37 413.33,-72.47"/>
</g>
<!-- Node10&#45;&gt;Node3 -->
<g id="edge13" class="edge">
<title>Node10&#45;&gt;Node3</title>
<path fill="none" stroke="midnightblue" d="M977.55,-170.66C911.52,-163.24 801.18,-149.88 696.25,-131.98"/>
<polygon fill="midnightblue" stroke="midnightblue" points="696.56,-128.48 686.11,-130.23 695.37,-135.38 696.56,-128.48"/>
</g>
<!-- Node10&#45;&gt;Node4 -->
<g id="edge14" class="edge">
<title>Node10&#45;&gt;Node4</title>
<path fill="none" stroke="midnightblue" d="M984.21,-168.49C931.64,-159.81 848.37,-145.72 776.6,-132 775.34,-131.76 774.05,-131.51 772.76,-131.26"/>
<polygon fill="midnightblue" stroke="midnightblue" points="773.21,-127.78 762.72,-129.24 771.83,-134.64 773.21,-127.78"/>
</g>
<!-- Node10&#45;&gt;Node5 -->
<g id="edge15" class="edge">
<title>Node10&#45;&gt;Node5</title>
<path fill="none" stroke="midnightblue" d="M977.36,-173.89C896.82,-168.96 748.23,-157.4 613.36,-132.06"/>
<polygon fill="midnightblue" stroke="midnightblue" points="613.74,-128.57 603.26,-130.13 612.43,-135.45 613.74,-128.57"/>
</g>
<!-- Node10&#45;&gt;Node6 -->
<g id="edge16" class="edge">
<title>Node10&#45;&gt;Node6</title>
<path fill="none" stroke="midnightblue" d="M1095.71,-171.27C1170.25,-163.74 1302.27,-149.42 1414.6,-132 1416.06,-131.77 1417.55,-131.53 1419.05,-131.29"/>
<polygon fill="midnightblue" stroke="midnightblue" points="1419.79,-134.71 1429.04,-129.54 1418.59,-127.81 1419.79,-134.71"/>
</g>
<!-- Node10&#45;&gt;Node7 -->
<g id="edge17" class="edge">
<title>Node10&#45;&gt;Node7</title>
<path fill="none" stroke="midnightblue" d="M1095.92,-174.65C1183.01,-170.46 1350.61,-159.57 1502.37,-131.67"/>
<polygon fill="midnightblue" stroke="midnightblue" points="1503.16,-135.08 1512.34,-129.81 1501.87,-128.2 1503.16,-135.08"/>
</g>
<!-- Node10&#45;&gt;Node8 -->
<g id="edge19" class="edge">
<title>Node10&#45;&gt;Node8</title>
<path fill="none" stroke="midnightblue" d="M1095.86,-173.4C1192.01,-167.25 1388.21,-153.38 1564.89,-132"/>
<polygon fill="midnightblue" stroke="midnightblue" points="1565.39,-135.46 1574.89,-130.77 1564.54,-128.51 1565.39,-135.46"/>
</g>
<!-- Node10&#45;&gt;Node9 -->
<g id="edge20" class="edge">
<title>Node10&#45;&gt;Node9</title>
<path fill="none" stroke="midnightblue" d="M977.26,-175.2C886.5,-171.65 707.73,-161.5 548.16,-131.97"/>
<polygon fill="midnightblue" stroke="midnightblue" points="548.64,-128.5 538.17,-130.09 547.35,-135.38 548.64,-128.5"/>
</g>
<!-- Node11 -->
<g id="node11" class="node">
<title>Node11</title>
<g id="a_node11"><a xlink:title=" ">
<polygon fill="white" stroke="#bfbfbf" points="540.6,-0.5 540.6,-19.5 604.6,-19.5 604.6,-0.5 540.6,-0.5"/>
<text text-anchor="middle" x="572.6" y="-7.5" font-family="Helvetica,sans-Serif" font-size="10.00">algorithm</text>
</a>
</g>
</g>
<!-- Node10&#45;&gt;Node11 -->
<g id="edge10" class="edge">
<title>Node10&#45;&gt;Node11</title>
<path fill="none" stroke="midnightblue" d="M1095.88,-168.64C1097.47,-168.42 1099.05,-168.21 1100.6,-168 1163,-159.62 1340.01,-179.26 1381.6,-132 1387.47,-125.33 1387.49,-118.66 1381.6,-112 1330.32,-53.92 774.89,-21.3 615.27,-13.08"/>
<polygon fill="midnightblue" stroke="midnightblue" points="615.07,-9.57 604.9,-12.55 614.71,-16.56 615.07,-9.57"/>
</g>
<!-- Node12 -->
<g id="node12" class="node">
<title>Node12</title>
<g id="a_node12"><a xlink:title=" ">
<polygon fill="white" stroke="#bfbfbf" points="1165.1,-112.5 1165.1,-131.5 1220.1,-131.5 1220.1,-112.5 1165.1,-112.5"/>
<text text-anchor="middle" x="1192.6" y="-119.5" font-family="Helvetica,sans-Serif" font-size="10.00">fstream</text>
</a>
</g>
</g>
<!-- Node10&#45;&gt;Node12 -->
<g id="edge12" class="edge">
<title>Node10&#45;&gt;Node12</title>
<path fill="none" stroke="midnightblue" d="M1061.32,-168.44C1087.45,-159.4 1128.86,-145.06 1158.18,-134.92"/>
<polygon fill="midnightblue" stroke="midnightblue" points="1159.69,-138.1 1168,-131.52 1157.4,-131.48 1159.69,-138.1"/>
</g>
<!-- Node13 -->
<g id="node13" class="node">
<title>Node13</title>
<g id="a_node13"><a xlink:title=" ">
<polygon fill="white" stroke="#bfbfbf" points="825.1,-56.5 825.1,-75.5 894.1,-75.5 894.1,-56.5 825.1,-56.5"/>
<text text-anchor="middle" x="859.6" y="-63.5" font-family="Helvetica,sans-Serif" font-size="10.00">type_traits</text>
</a>
</g>
</g>
<!-- Node10&#45;&gt;Node13 -->
<g id="edge18" class="edge">
<title>Node10&#45;&gt;Node13</title>
<path fill="none" stroke="midnightblue" d="M1062.95,-168.46C1093.63,-157.17 1137.67,-135.88 1117.6,-112 1090.87,-80.2 970.86,-70.87 904.34,-68.13"/>
<polygon fill="midnightblue" stroke="midnightblue" points="904.28,-64.63 894.15,-67.75 904.01,-71.62 904.28,-64.63"/>
</g>
<!-- Node14 -->
<g id="node14" class="node">
<title>Node14</title>
<g id="a_node14"><a xlink:href="riemann_2concept_8hpp.html" target="_top" xlink:title=" ">
<polygon fill="white" stroke="black" points="964.6,-112.5 964.6,-131.5 1108.6,-131.5 1108.6,-112.5 964.6,-112.5"/>
<text text-anchor="middle" x="1036.6" y="-119.5" font-family="Helvetica,sans-Serif" font-size="10.00">mini/riemann/concept.hpp</text>
</a>
</g>
</g>
<!-- Node10&#45;&gt;Node14 -->
<g id="edge21" class="edge">
<title>Node10&#45;&gt;Node14</title>
<path fill="none" stroke="midnightblue" d="M1036.6,-168.08C1036.6,-161.01 1036.6,-150.86 1036.6,-141.99"/>
<polygon fill="midnightblue" stroke="midnightblue" points="1040.1,-141.75 1036.6,-131.75 1033.1,-141.75 1040.1,-141.75"/>
</g>
<!-- Node16 -->
<g id="node16" class="node">
<title>Node16</title>
<g id="a_node16"><a xlink:href="ode_8hpp.html" target="_top" xlink:title=" ">
<polygon fill="white" stroke="black" points="818.6,-112.5 818.6,-131.5 946.6,-131.5 946.6,-112.5 818.6,-112.5"/>
<text text-anchor="middle" x="882.6" y="-119.5" font-family="Helvetica,sans-Serif" font-size="10.00">mini/temporal/ode.hpp</text>
</a>
</g>
</g>
<!-- Node10&#45;&gt;Node16 -->
<g id="edge24" class="edge">
<title>Node10&#45;&gt;Node16</title>
<path fill="none" stroke="midnightblue" d="M1012.2,-168.44C986.41,-159.4 945.53,-145.06 916.58,-134.92"/>
<polygon fill="midnightblue" stroke="midnightblue" points="917.48,-131.52 906.89,-131.52 915.17,-138.13 917.48,-131.52"/>
</g>
<!-- Node21 -->
<g id="node21" class="node">
<title>Node21</title>
<g id="a_node21"><a xlink:href="index_8hpp.html" target="_top" xlink:title=" ">
<polygon fill="white" stroke="black" points="1238.6,-112.5 1238.6,-131.5 1372.6,-131.5 1372.6,-112.5 1238.6,-112.5"/>
<text text-anchor="middle" x="1305.6" y="-119.5" font-family="Helvetica,sans-Serif" font-size="10.00">mini/constant/index.hpp</text>
</a>
</g>
</g>
<!-- Node10&#45;&gt;Node21 -->
<g id="edge31" class="edge">
<title>Node10&#45;&gt;Node21</title>
<path fill="none" stroke="midnightblue" d="M1079.23,-168.44C1126.35,-158.98 1202.29,-143.74 1253.06,-133.55"/>
<polygon fill="midnightblue" stroke="midnightblue" points="1254.06,-136.92 1263.18,-131.52 1252.68,-130.05 1254.06,-136.92"/>
</g>
<!-- Node14&#45;&gt;Node13 -->
<g id="edge23" class="edge">
<title>Node14&#45;&gt;Node13</title>
<path fill="none" stroke="midnightblue" d="M1008.56,-112.44C978.52,-103.28 930.69,-88.69 897.36,-78.52"/>
<polygon fill="midnightblue" stroke="midnightblue" points="898.1,-75.09 887.52,-75.52 896.06,-81.78 898.1,-75.09"/>
</g>
<!-- Node15 -->
<g id="node15" class="node">
<title>Node15</title>
<g id="a_node15"><a xlink:title=" ">
<polygon fill="white" stroke="#bfbfbf" points="657.6,-56.5 657.6,-75.5 717.6,-75.5 717.6,-56.5 657.6,-56.5"/>
<text text-anchor="middle" x="687.6" y="-63.5" font-family="Helvetica,sans-Serif" font-size="10.00">concepts</text>
</a>
</g>
</g>
<!-- Node14&#45;&gt;Node15 -->
<g id="edge22" class="edge">
<title>Node14&#45;&gt;Node15</title>
<path fill="none" stroke="midnightblue" d="M981.3,-112.44C910.81,-101.54 790.59,-82.93 728.07,-73.26"/>
<polygon fill="midnightblue" stroke="midnightblue" points="728.23,-69.75 717.82,-71.67 727.16,-76.66 728.23,-69.75"/>
</g>
<!-- Node16&#45;&gt;Node2 -->
<g id="edge25" class="edge">
<title>Node16&#45;&gt;Node2</title>
<path fill="none" stroke="midnightblue" d="M818.34,-113.46C813.69,-112.96 809.08,-112.46 804.6,-112 633.37,-94.28 586.17,-105.5 412.84,-75.96"/>
<polygon fill="midnightblue" stroke="midnightblue" points="413.33,-72.49 402.88,-74.24 412.14,-79.39 413.33,-72.49"/>
</g>
<!-- Node17 -->
<g id="node17" class="node">
<title>Node17</title>
<g id="a_node17"><a xlink:href="algebra_2eigen_8hpp.html" target="_top" xlink:title=" ">
<polygon fill="white" stroke="black" points="421.1,-56.5 421.1,-75.5 550.1,-75.5 550.1,-56.5 421.1,-56.5"/>
<text text-anchor="middle" x="485.6" y="-63.5" font-family="Helvetica,sans-Serif" font-size="10.00">mini/algebra/eigen.hpp</text>
</a>
</g>
</g>
<!-- Node16&#45;&gt;Node17 -->
<g id="edge26" class="edge">
<title>Node16&#45;&gt;Node17</title>
<path fill="none" stroke="midnightblue" d="M819.7,-112.44C748.7,-102.79 633.37,-87.1 558.5,-76.92"/>
<polygon fill="midnightblue" stroke="midnightblue" points="558.59,-73.4 548.21,-75.52 557.65,-80.33 558.59,-73.4"/>
</g>
<!-- Node17&#45;&gt;Node11 -->
<g id="edge27" class="edge">
<title>Node17&#45;&gt;Node11</title>
<path fill="none" stroke="midnightblue" d="M499.58,-56.32C513.15,-47.9 533.98,-34.97 549.93,-25.07"/>
<polygon fill="midnightblue" stroke="midnightblue" points="552.01,-27.9 558.66,-19.65 548.32,-21.95 552.01,-27.9"/>
</g>
<!-- Node18 -->
<g id="node18" class="node">
<title>Node18</title>
<g id="a_node18"><a xlink:title=" ">
<polygon fill="white" stroke="#bfbfbf" points="299.1,-0.5 299.1,-19.5 346.1,-19.5 346.1,-0.5 299.1,-0.5"/>
<text text-anchor="middle" x="322.6" y="-7.5" font-family="Helvetica,sans-Serif" font-size="10.00">cmath</text>
</a>
</g>
</g>
<!-- Node17&#45;&gt;Node18 -->
<g id="edge28" class="edge">
<title>Node17&#45;&gt;Node18</title>
<path fill="none" stroke="midnightblue" d="M459.77,-56.44C431.71,-47.15 386.77,-32.26 356.03,-22.07"/>
<polygon fill="midnightblue" stroke="midnightblue" points="356.79,-18.64 346.19,-18.82 354.58,-25.28 356.79,-18.64"/>
</g>
<!-- Node19 -->
<g id="node19" class="node">
<title>Node19</title>
<g id="a_node19"><a xlink:title=" ">
<polygon fill="white" stroke="#bfbfbf" points="381.1,-0.5 381.1,-19.5 430.1,-19.5 430.1,-0.5 381.1,-0.5"/>
<text text-anchor="middle" x="405.6" y="-7.5" font-family="Helvetica,sans-Serif" font-size="10.00">cstdlib</text>
</a>
</g>
</g>
<!-- Node17&#45;&gt;Node19 -->
<g id="edge29" class="edge">
<title>Node17&#45;&gt;Node19</title>
<path fill="none" stroke="midnightblue" d="M472.75,-56.32C460.39,-47.98 441.47,-35.21 426.86,-25.35"/>
<polygon fill="midnightblue" stroke="midnightblue" points="428.67,-22.35 418.42,-19.65 424.75,-28.15 428.67,-22.35"/>
</g>
<!-- Node20 -->
<g id="node20" class="node">
<title>Node20</title>
<g id="a_node20"><a xlink:title=" ">
<polygon fill="white" stroke="#bfbfbf" points="448.6,-0.5 448.6,-19.5 522.6,-19.5 522.6,-0.5 448.6,-0.5"/>
<text text-anchor="middle" x="485.6" y="-7.5" font-family="Helvetica,sans-Serif" font-size="10.00">Eigen/Eigen</text>
</a>
</g>
</g>
<!-- Node17&#45;&gt;Node20 -->
<g id="edge30" class="edge">
<title>Node17&#45;&gt;Node20</title>
<path fill="none" stroke="midnightblue" d="M485.6,-56.08C485.6,-49.01 485.6,-38.86 485.6,-29.99"/>
<polygon fill="midnightblue" stroke="midnightblue" points="489.1,-29.75 485.6,-19.75 482.1,-29.75 489.1,-29.75"/>
</g>
<!-- Node22&#45;&gt;Node2 -->
<g id="edge33" class="edge">
<title>Node22&#45;&gt;Node2</title>
<path fill="none" stroke="midnightblue" d="M207.28,-168.06C220.73,-154.58 247.86,-128.83 274.6,-112 295.86,-98.63 321.78,-87.25 342.17,-79.28"/>
<polygon fill="midnightblue" stroke="midnightblue" points="343.59,-82.48 351.69,-75.65 341.09,-75.94 343.59,-82.48"/>
</g>
<!-- Node22&#45;&gt;Node5 -->
<g id="edge41" class="edge">
<title>Node22&#45;&gt;Node5</title>
<path fill="none" stroke="midnightblue" d="M274.78,-170.2C343.34,-163.38 446.92,-151.36 546.02,-131.86"/>
<polygon fill="midnightblue" stroke="midnightblue" points="546.78,-135.27 555.9,-129.88 545.41,-128.41 546.78,-135.27"/>
</g>
<!-- Node22&#45;&gt;Node9 -->
<g id="edge40" class="edge">
<title>Node22&#45;&gt;Node9</title>
<path fill="none" stroke="midnightblue" d="M260.58,-168.48C317.49,-160.31 404.04,-147.04 478.6,-132 480.06,-131.71 481.55,-131.39 483.05,-131.07"/>
<polygon fill="midnightblue" stroke="midnightblue" points="484,-134.44 492.97,-128.81 482.44,-127.62 484,-134.44"/>
</g>
<!-- Node22&#45;&gt;Node11 -->
<g id="edge35" class="edge">
<title>Node22&#45;&gt;Node11</title>
<path fill="none" stroke="midnightblue" d="M196.14,-168.18C190.49,-145.9 179.34,-86.89 209.6,-56 257.97,-6.62 444.74,-29.69 530.28,-19.81"/>
<polygon fill="midnightblue" stroke="midnightblue" points="531.01,-23.24 540.43,-18.39 530.05,-16.31 531.01,-23.24"/>
</g>
<!-- Node22&#45;&gt;Node13 -->
<g id="edge39" class="edge">
<title>Node22&#45;&gt;Node13</title>
<path fill="none" stroke="midnightblue" d="M274.88,-168.9C324.21,-162.25 389.31,-150.78 444.6,-132 463.05,-125.74 464.97,-117.69 483.6,-112 544.56,-93.38 728.91,-77.15 814.74,-70.37"/>
<polygon fill="midnightblue" stroke="midnightblue" points="815.25,-73.84 824.95,-69.57 814.7,-66.86 815.25,-73.84"/>
</g>
<!-- Node22&#45;&gt;Node18 -->
<g id="edge34" class="edge">
<title>Node22&#45;&gt;Node18</title>
<path fill="none" stroke="midnightblue" d="M122.44,-175.68C56.34,-171.54 -24.15,-157.43 7.6,-112 40.53,-64.89 214.53,-29.7 288.87,-16.6"/>
<polygon fill="midnightblue" stroke="midnightblue" points="289.84,-19.98 299.09,-14.82 288.64,-13.08 289.84,-19.98"/>
</g>
<!-- Node23 -->
<g id="node23" class="node">
<title>Node23</title>
<g id="a_node23"><a xlink:title=" ">
<polygon fill="white" stroke="#bfbfbf" points="16.6,-112.5 16.6,-131.5 72.6,-131.5 72.6,-112.5 16.6,-112.5"/>
<text text-anchor="middle" x="44.6" y="-119.5" font-family="Helvetica,sans-Serif" font-size="10.00">iomanip</text>
</a>
</g>
</g>
<!-- Node22&#45;&gt;Node23 -->
<g id="edge36" class="edge">
<title>Node22&#45;&gt;Node23</title>
<path fill="none" stroke="midnightblue" d="M174.2,-168.44C148.41,-159.4 107.53,-145.06 78.58,-134.92"/>
<polygon fill="midnightblue" stroke="midnightblue" points="79.48,-131.52 68.89,-131.52 77.17,-138.13 79.48,-131.52"/>
</g>
<!-- Node24 -->
<g id="node24" class="node">
<title>Node24</title>
<g id="a_node24"><a xlink:title=" ">
<polygon fill="white" stroke="#bfbfbf" points="218.6,-56.5 218.6,-75.5 278.6,-75.5 278.6,-56.5 218.6,-56.5"/>
<text text-anchor="middle" x="248.6" y="-63.5" font-family="Helvetica,sans-Serif" font-size="10.00">iostream</text>
</a>
</g>
</g>
<!-- Node22&#45;&gt;Node24 -->
<g id="edge37" class="edge">
<title>Node22&#45;&gt;Node24</title>
<path fill="none" stroke="midnightblue" d="M202.53,-168.37C210.67,-150.46 229.55,-108.92 240.44,-84.95"/>
<polygon fill="midnightblue" stroke="midnightblue" points="243.75,-86.14 244.7,-75.59 237.37,-83.25 243.75,-86.14"/>
</g>
<!-- Node25 -->
<g id="node25" class="node">
<title>Node25</title>
<g id="a_node25"><a xlink:title=" ">
<polygon fill="white" stroke="#bfbfbf" points="90.6,-112.5 90.6,-131.5 146.6,-131.5 146.6,-112.5 90.6,-112.5"/>
<text text-anchor="middle" x="118.6" y="-119.5" font-family="Helvetica,sans-Serif" font-size="10.00">numeric</text>
</a>
</g>
</g>
<!-- Node22&#45;&gt;Node25 -->
<g id="edge38" class="edge">
<title>Node22&#45;&gt;Node25</title>
<path fill="none" stroke="midnightblue" d="M185.75,-168.32C173.39,-159.98 154.47,-147.21 139.86,-137.35"/>
<polygon fill="midnightblue" stroke="midnightblue" points="141.67,-134.35 131.42,-131.65 137.75,-140.15 141.67,-134.35"/>
</g>
<!-- Node26 -->
<g id="node26" class="node">
<title>Node26</title>
<g id="a_node26"><a xlink:href="taylor_8hpp.html" target="_top" xlink:title=" ">
<polygon fill="white" stroke="black" points="317.1,-112.5 317.1,-131.5 436.1,-131.5 436.1,-112.5 317.1,-112.5"/>
<text text-anchor="middle" x="376.6" y="-119.5" font-family="Helvetica,sans-Serif" font-size="10.00">mini/basis/taylor.hpp</text>
</a>
</g>
</g>
<!-- Node22&#45;&gt;Node26 -->
<g id="edge42" class="edge">
<title>Node22&#45;&gt;Node26</title>
<path fill="none" stroke="midnightblue" d="M226.81,-168.44C257.01,-159.28 305.11,-144.69 338.63,-134.52"/>
<polygon fill="midnightblue" stroke="midnightblue" points="339.98,-137.77 348.53,-131.52 337.94,-131.07 339.98,-137.77"/>
</g>
<!-- Node26&#45;&gt;Node2 -->
<g id="edge44" class="edge">
<title>Node26&#45;&gt;Node2</title>
<path fill="none" stroke="midnightblue" d="M376.6,-112.08C376.6,-105.01 376.6,-94.86 376.6,-85.99"/>
<polygon fill="midnightblue" stroke="midnightblue" points="380.1,-85.75 376.6,-75.75 373.1,-85.75 380.1,-85.75"/>
</g>
<!-- Node26&#45;&gt;Node13 -->
<g id="edge47" class="edge">
<title>Node26&#45;&gt;Node13</title>
<path fill="none" stroke="midnightblue" d="M436.37,-113.67C441.18,-113.1 445.97,-112.54 450.6,-112 582.93,-96.67 739.5,-79.8 814.77,-71.76"/>
<polygon fill="midnightblue" stroke="midnightblue" points="815.27,-75.23 824.84,-70.69 814.53,-68.27 815.27,-75.23"/>
</g>
<!-- Node26&#45;&gt;Node15 -->
<g id="edge43" class="edge">
<title>Node26&#45;&gt;Node15</title>
<path fill="none" stroke="midnightblue" d="M425.88,-112.44C487.15,-101.8 590.57,-83.85 647.33,-73.99"/>
<polygon fill="midnightblue" stroke="midnightblue" points="648.11,-77.41 657.36,-72.25 646.91,-70.51 648.11,-77.41"/>
</g>
<!-- Node26&#45;&gt;Node17 -->
<g id="edge48" class="edge">
<title>Node26&#45;&gt;Node17</title>
<path fill="none" stroke="midnightblue" d="M394.11,-112.32C411.67,-103.62 438.93,-90.12 459.13,-80.11"/>
<polygon fill="midnightblue" stroke="midnightblue" points="460.73,-83.23 468.13,-75.65 457.62,-76.96 460.73,-83.23"/>
</g>
<!-- Node26&#45;&gt;Node18 -->
<g id="edge45" class="edge">
<title>Node26&#45;&gt;Node18</title>
<path fill="none" stroke="midnightblue" d="M368.27,-112.39C360.39,-103.8 348.72,-89.92 341.6,-76 334.07,-61.28 329.08,-43.12 326.11,-29.74"/>
<polygon fill="midnightblue" stroke="midnightblue" points="329.52,-28.9 324.08,-19.8 322.66,-30.3 329.52,-28.9"/>
</g>
<!-- Node26&#45;&gt;Node24 -->
<g id="edge46" class="edge">
<title>Node26&#45;&gt;Node24</title>
<path fill="none" stroke="midnightblue" d="M356.32,-112.44C335.25,-103.56 302.09,-89.56 278.12,-79.45"/>
<polygon fill="midnightblue" stroke="midnightblue" points="279.36,-76.18 268.79,-75.52 276.64,-82.63 279.36,-76.18"/>
</g>
</g>
</svg>
