<?xml version="1.0" encoding="UTF-8" standalone="no"?>
<!DOCTYPE svg PUBLIC "-//W3C//DTD SVG 1.1//EN"
 "http://www.w3.org/Graphics/SVG/1.1/DTD/svg11.dtd">
<!-- Generated by graphviz version 2.43.0 (0)
 -->
<!-- Title: include/mini/mesh Pages: 1 -->
<svg width="268pt" height="383pt"
 viewBox="0.00 0.00 268.00 383.00" xmlns="http://www.w3.org/2000/svg" xmlns:xlink="http://www.w3.org/1999/xlink">
<g id="graph0" class="graph" transform="scale(1 1) rotate(0) translate(4 379)">
<title>include/mini/mesh</title>
<polygon fill="white" stroke="transparent" points="-4,4 -4,-379 264,-379 264,4 -4,4"/>
<g id="clust1" class="cluster">
<title>clusterdir_52c4e261fccb9ba9630288b59582e709</title>
<g id="a_clust1"><a xlink:href="dir_52c4e261fccb9ba9630288b59582e709.html" target="_top" xlink:title="mini">
<polygon fill="#ddddee" stroke="black" points="8,-8 8,-367 252,-367 252,-8 8,-8"/>
<text text-anchor="middle" x="130" y="-355" font-family="Helvetica,sans-Serif" font-size="10.00">mini</text>
</a>
</g>
</g>
<!-- dir_8cc458dbcc0b32b454bc89428ebd057f -->
<g id="node1" class="node">
<title>dir_8cc458dbcc0b32b454bc89428ebd057f</title>
<g id="a_node1"><a xlink:href="dir_8cc458dbcc0b32b454bc89428ebd057f.html" target="_top" xlink:title="coordinate">
<polygon fill="none" stroke="black" points="172,-124 104,-124 104,-88 172,-88 172,-124"/>
<text text-anchor="middle" x="138" y="-103.5" font-family="Helvetica,sans-Serif" font-size="10.00">coordinate</text>
</a>
</g>
</g>
<!-- dir_bb69ec456759f21295a9444e150033a6 -->
<g id="node3" class="node">
<title>dir_bb69ec456759f21295a9444e150033a6</title>
<g id="a_node3"><a xlink:href="dir_bb69ec456759f21295a9444e150033a6.html" target="_top" xlink:title="algebra">
<polygon fill="none" stroke="black" points="165,-52 111,-52 111,-16 165,-16 165,-52"/>
<text text-anchor="middle" x="138" y="-31.5" font-family="Helvetica,sans-Serif" font-size="10.00">algebra</text>
</a>
</g>
</g>
<!-- dir_8cc458dbcc0b32b454bc89428ebd057f&#45;&gt;dir_bb69ec456759f21295a9444e150033a6 -->
<g id="edge4" class="edge">
<title>dir_8cc458dbcc0b32b454bc89428ebd057f&#45;&gt;dir_bb69ec456759f21295a9444e150033a6</title>
<path fill="none" stroke="black" d="M138,-87.7C138,-79.98 138,-70.71 138,-62.11"/>
<polygon fill="black" stroke="black" points="141.5,-62.1 138,-52.1 134.5,-62.1 141.5,-62.1"/>
<g id="a_edge4&#45;headlabel"><a xlink:href="dir_000009_000003.html" target="_top" xlink:title="2">
<text text-anchor="middle" x="144.34" y="-63.2" font-family="Helvetica,sans-Serif" font-size="10.00">2</text>
</a>
</g>
</g>
<!-- dir_90514e4c6cb1184f77f58f9d9324bf36 -->
<g id="node2" class="node">
<title>dir_90514e4c6cb1184f77f58f9d9324bf36</title>
<g id="a_node2"><a xlink:href="dir_90514e4c6cb1184f77f58f9d9324bf36.html" target="_top" xlink:title="geometry">
<polygon fill="none" stroke="black" points="80,-196 16,-196 16,-160 80,-160 80,-196"/>
<text text-anchor="middle" x="48" y="-175.5" font-family="Helvetica,sans-Serif" font-size="10.00">geometry</text>
</a>
</g>
</g>
<!-- dir_90514e4c6cb1184f77f58f9d9324bf36&#45;&gt;dir_bb69ec456759f21295a9444e150033a6 -->
<g id="edge10" class="edge">
<title>dir_90514e4c6cb1184f77f58f9d9324bf36&#45;&gt;dir_bb69ec456759f21295a9444e150033a6</title>
<path fill="none" stroke="black" d="M51.56,-159.8C56.03,-141 64.98,-110.55 80,-88 87.15,-77.27 96.93,-67.24 106.42,-58.85"/>
<polygon fill="black" stroke="black" points="108.89,-61.35 114.26,-52.21 104.37,-56 108.89,-61.35"/>
<g id="a_edge10&#45;headlabel"><a xlink:href="dir_000012_000003.html" target="_top" xlink:title="3">
<text text-anchor="middle" x="107.98" y="-63.34" font-family="Helvetica,sans-Serif" font-size="10.00">3</text>
</a>
</g>
</g>
<!-- dir_f30ada7b744033f76dae4428084f7af5 -->
<g id="node4" class="node">
<title>dir_f30ada7b744033f76dae4428084f7af5</title>
<g id="a_node4"><a xlink:href="dir_f30ada7b744033f76dae4428084f7af5.html" target="_top" xlink:title="polynomial">
<polygon fill="none" stroke="black" points="209.5,-268 138.5,-268 138.5,-232 209.5,-232 209.5,-268"/>
<text text-anchor="middle" x="174" y="-247.5" font-family="Helvetica,sans-Serif" font-size="10.00">polynomial</text>
</a>
</g>
</g>
<!-- dir_f30ada7b744033f76dae4428084f7af5&#45;&gt;dir_8cc458dbcc0b32b454bc89428ebd057f -->
<g id="edge1" class="edge">
<title>dir_f30ada7b744033f76dae4428084f7af5&#45;&gt;dir_8cc458dbcc0b32b454bc89428ebd057f</title>
<path fill="none" stroke="black" d="M166.51,-231.6C162.35,-221.38 157.35,-208.13 154,-196 148.37,-175.6 144.23,-152.01 141.58,-134.24"/>
<polygon fill="black" stroke="black" points="145.03,-133.67 140.15,-124.27 138.1,-134.67 145.03,-133.67"/>
<g id="a_edge1&#45;headlabel"><a xlink:href="dir_000011_000009.html" target="_top" xlink:title="1">
<text text-anchor="middle" x="148.35" y="-134.33" font-family="Helvetica,sans-Serif" font-size="10.00">1</text>
</a>
</g>
</g>
<!-- dir_f30ada7b744033f76dae4428084f7af5&#45;&gt;dir_bb69ec456759f21295a9444e150033a6 -->
<g id="edge2" class="edge">
<title>dir_f30ada7b744033f76dae4428084f7af5&#45;&gt;dir_bb69ec456759f21295a9444e150033a6</title>
<path fill="none" stroke="black" d="M172.38,-231.83C171.48,-221.47 170.45,-207.99 170,-196 169.4,-180.01 167.64,-175.82 170,-160 174.78,-127.98 191.82,-118.51 181,-88 177.34,-77.68 170.71,-67.9 163.74,-59.61"/>
<polygon fill="black" stroke="black" points="166.33,-57.26 157.04,-52.16 161.13,-61.94 166.33,-57.26"/>
<g id="a_edge2&#45;headlabel"><a xlink:href="dir_000011_000003.html" target="_top" xlink:title="3">
<text text-anchor="middle" x="170.84" y="-55.53" font-family="Helvetica,sans-Serif" font-size="10.00">3</text>
</a>
</g>
</g>
<!-- dir_f79aa91d151ccd05d66e8fd20c96b5c9 -->
<g id="node5" class="node">
<title>dir_f79aa91d151ccd05d66e8fd20c96b5c9</title>
<g id="a_node5"><a xlink:href="dir_f79aa91d151ccd05d66e8fd20c96b5c9.html" target="_top" xlink:title="integrator">
<polygon fill="none" stroke="black" points="243.5,-196 178.5,-196 178.5,-160 243.5,-160 243.5,-196"/>
<text text-anchor="middle" x="211" y="-175.5" font-family="Helvetica,sans-Serif" font-size="10.00">integrator</text>
</a>
</g>
</g>
<!-- dir_f30ada7b744033f76dae4428084f7af5&#45;&gt;dir_f79aa91d151ccd05d66e8fd20c96b5c9 -->
<g id="edge3" class="edge">
<title>dir_f30ada7b744033f76dae4428084f7af5&#45;&gt;dir_f79aa91d151ccd05d66e8fd20c96b5c9</title>
<path fill="none" stroke="black" d="M183.15,-231.7C187.4,-223.64 192.56,-213.89 197.27,-204.98"/>
<polygon fill="black" stroke="black" points="200.38,-206.58 201.96,-196.1 194.19,-203.31 200.38,-206.58"/>
<g id="a_edge3&#45;headlabel"><a xlink:href="dir_000011_000010.html" target="_top" xlink:title="3">
<text text-anchor="middle" x="201.21" y="-208.59" font-family="Helvetica,sans-Serif" font-size="10.00">3</text>
</a>
</g>
</g>
<!-- dir_f79aa91d151ccd05d66e8fd20c96b5c9&#45;&gt;dir_8cc458dbcc0b32b454bc89428ebd057f -->
<g id="edge11" class="edge">
<title>dir_f79aa91d151ccd05d66e8fd20c96b5c9&#45;&gt;dir_8cc458dbcc0b32b454bc89428ebd057f</title>
<path fill="none" stroke="black" d="M192.96,-159.7C183.94,-151.05 172.88,-140.45 163.06,-131.03"/>
<polygon fill="black" stroke="black" points="165.48,-128.5 155.84,-124.1 160.63,-133.55 165.48,-128.5"/>
<g id="a_edge11&#45;headlabel"><a xlink:href="dir_000010_000009.html" target="_top" xlink:title="10">
<text text-anchor="middle" x="170.04" y="-126.44" font-family="Helvetica,sans-Serif" font-size="10.00">10</text>
</a>
</g>
</g>
<!-- dir_f79aa91d151ccd05d66e8fd20c96b5c9&#45;&gt;dir_bb69ec456759f21295a9444e150033a6 -->
<g id="edge12" class="edge">
<title>dir_f79aa91d151ccd05d66e8fd20c96b5c9&#45;&gt;dir_bb69ec456759f21295a9444e150033a6</title>
<path fill="none" stroke="black" d="M211.35,-159.86C211.02,-141.11 208.37,-110.71 196,-88 189.93,-76.86 180.63,-66.83 171.23,-58.56"/>
<polygon fill="black" stroke="black" points="173.31,-55.74 163.38,-52.04 168.84,-61.12 173.31,-55.74"/>
<g id="a_edge12&#45;headlabel"><a xlink:href="dir_000010_000003.html" target="_top" xlink:title="3">
<text text-anchor="middle" x="177.89" y="-53.35" font-family="Helvetica,sans-Serif" font-size="10.00">3</text>
</a>
</g>
</g>
<!-- dir_63af4d6d5f6d067ae1e80c5ce681974a -->
<g id="node6" class="node">
<title>dir_63af4d6d5f6d067ae1e80c5ce681974a</title>
<g id="a_node6"><a xlink:href="dir_63af4d6d5f6d067ae1e80c5ce681974a.html" target="_top" xlink:title="mesh">
<polygon fill="#eeeeff" stroke="black" points="146,-340 92,-340 92,-304 146,-304 146,-340"/>
<text text-anchor="middle" x="119" y="-319.5" font-family="Helvetica,sans-Serif" font-size="10.00">mesh</text>
</a>
</g>
</g>
<!-- dir_63af4d6d5f6d067ae1e80c5ce681974a&#45;&gt;dir_8cc458dbcc0b32b454bc89428ebd057f -->
<g id="edge5" class="edge">
<title>dir_63af4d6d5f6d067ae1e80c5ce681974a&#45;&gt;dir_8cc458dbcc0b32b454bc89428ebd057f</title>
<path fill="none" stroke="black" d="M120.52,-303.85C123.81,-266.83 131.59,-179.18 135.57,-134.39"/>
<polygon fill="black" stroke="black" points="139.07,-134.5 136.47,-124.23 132.1,-133.88 139.07,-134.5"/>
<g id="a_edge5&#45;headlabel"><a xlink:href="dir_000017_000009.html" target="_top" xlink:title="3">
<text text-anchor="middle" x="141.58" y="-135.83" font-family="Helvetica,sans-Serif" font-size="10.00">3</text>
</a>
</g>
</g>
<!-- dir_63af4d6d5f6d067ae1e80c5ce681974a&#45;&gt;dir_90514e4c6cb1184f77f58f9d9324bf36 -->
<g id="edge6" class="edge">
<title>dir_63af4d6d5f6d067ae1e80c5ce681974a&#45;&gt;dir_90514e4c6cb1184f77f58f9d9324bf36</title>
<path fill="none" stroke="black" d="M110.44,-303.87C98.18,-279.35 75.52,-234.03 61.13,-205.26"/>
<polygon fill="black" stroke="black" points="64.2,-203.57 56.59,-196.19 57.94,-206.7 64.2,-203.57"/>
<g id="a_edge6&#45;headlabel"><a xlink:href="dir_000017_000012.html" target="_top" xlink:title="1">
<text text-anchor="middle" x="68.34" y="-203.01" font-family="Helvetica,sans-Serif" font-size="10.00">1</text>
</a>
</g>
</g>
<!-- dir_63af4d6d5f6d067ae1e80c5ce681974a&#45;&gt;dir_bb69ec456759f21295a9444e150033a6 -->
<g id="edge7" class="edge">
<title>dir_63af4d6d5f6d067ae1e80c5ce681974a&#45;&gt;dir_bb69ec456759f21295a9444e150033a6</title>
<path fill="none" stroke="black" d="M115.29,-303.7C105.54,-256.76 80.86,-127.86 95,-88 98.66,-77.68 105.29,-67.9 112.26,-59.61"/>
<polygon fill="black" stroke="black" points="114.87,-61.94 118.96,-52.16 109.67,-57.26 114.87,-61.94"/>
<g id="a_edge7&#45;headlabel"><a xlink:href="dir_000017_000003.html" target="_top" xlink:title="1">
<text text-anchor="middle" x="114.58" y="-64.01" font-family="Helvetica,sans-Serif" font-size="10.00">1</text>
</a>
</g>
</g>
<!-- dir_63af4d6d5f6d067ae1e80c5ce681974a&#45;&gt;dir_f30ada7b744033f76dae4428084f7af5 -->
<g id="edge8" class="edge">
<title>dir_63af4d6d5f6d067ae1e80c5ce681974a&#45;&gt;dir_f30ada7b744033f76dae4428084f7af5</title>
<path fill="none" stroke="black" d="M132.6,-303.7C139.12,-295.39 147.07,-285.28 154.25,-276.14"/>
<polygon fill="black" stroke="black" points="157.13,-278.13 160.56,-268.1 151.63,-273.81 157.13,-278.13"/>
<g id="a_edge8&#45;headlabel"><a xlink:href="dir_000017_000011.html" target="_top" xlink:title="1">
<text text-anchor="middle" x="157.15" y="-280.21" font-family="Helvetica,sans-Serif" font-size="10.00">1</text>
</a>
</g>
</g>
<!-- dir_63af4d6d5f6d067ae1e80c5ce681974a&#45;&gt;dir_f79aa91d151ccd05d66e8fd20c96b5c9 -->
<g id="edge9" class="edge">
<title>dir_63af4d6d5f6d067ae1e80c5ce681974a&#45;&gt;dir_f79aa91d151ccd05d66e8fd20c96b5c9</title>
<path fill="none" stroke="black" d="M146.08,-314.95C169.95,-308.02 203.3,-294.1 219,-268 230.2,-249.38 226.75,-224.5 221.33,-205.77"/>
<polygon fill="black" stroke="black" points="224.6,-204.52 218.19,-196.08 217.94,-206.68 224.6,-204.52"/>
<g id="a_edge9&#45;headlabel"><a xlink:href="dir_000017_000010.html" target="_top" xlink:title="4">
<text text-anchor="middle" x="228.41" y="-204.57" font-family="Helvetica,sans-Serif" font-size="10.00">4</text>
</a>
</g>
</g>
</g>
</svg>
