<?xml version="1.0" encoding="UTF-8" standalone="no"?>
<!DOCTYPE svg PUBLIC "-//W3C//DTD SVG 1.1//EN"
 "http://www.w3.org/Graphics/SVG/1.1/DTD/svg11.dtd">
<!-- Generated by graphviz version 2.43.0 (0)
 -->
<!-- Title: include/mini Pages: 1 -->
<svg width="462pt" height="543pt"
 viewBox="0.00 0.00 462.00 543.00" xmlns="http://www.w3.org/2000/svg" xmlns:xlink="http://www.w3.org/1999/xlink">
<g id="graph0" class="graph" transform="scale(1 1) rotate(0) translate(4 539)">
<title>include/mini</title>
<polygon fill="white" stroke="transparent" points="-4,4 -4,-539 458,-539 458,4 -4,4"/>
<g id="clust1" class="cluster">
<title>clusterdir_d44c64559bbebec7f509842c48db8b23</title>
<g id="a_clust1"><a xlink:href="dir_d44c64559bbebec7f509842c48db8b23.html" target="_top" xlink:title="include">
<polygon fill="#ddddee" stroke="black" points="8,-8 8,-527 446,-527 446,-8 8,-8"/>
<text text-anchor="middle" x="227" y="-515" font-family="Helvetica,sans-Serif" font-size="10.00">include</text>
</a>
</g>
</g>
<g id="clust2" class="cluster">
<title>clusterdir_52c4e261fccb9ba9630288b59582e709</title>
<g id="a_clust2"><a xlink:href="dir_52c4e261fccb9ba9630288b59582e709.html" target="_top">
<polygon fill="#eeeeff" stroke="black" points="16,-16 16,-500 438,-500 438,-16 16,-16"/>
</a>
</g>
</g>
<!-- dir_52c4e261fccb9ba9630288b59582e709 -->
<g id="node1" class="node">
<title>dir_52c4e261fccb9ba9630288b59582e709</title>
<text text-anchor="middle" x="326" y="-471.5" font-family="Helvetica,sans-Serif" font-size="10.00">mini</text>
</g>
<!-- dir_dfeb873596d4562771adae787035a975 -->
<g id="node2" class="node">
<title>dir_dfeb873596d4562771adae787035a975</title>
<g id="a_node2"><a xlink:href="dir_dfeb873596d4562771adae787035a975.html" target="_top" xlink:title="aircraft">
<polygon fill="white" stroke="black" points="330,-276 276,-276 276,-240 330,-240 330,-276"/>
<text text-anchor="middle" x="303" y="-255.5" font-family="Helvetica,sans-Serif" font-size="10.00">aircraft</text>
</a>
</g>
</g>
<!-- dir_bb69ec456759f21295a9444e150033a6 -->
<g id="node3" class="node">
<title>dir_bb69ec456759f21295a9444e150033a6</title>
<g id="a_node3"><a xlink:href="dir_bb69ec456759f21295a9444e150033a6.html" target="_top" xlink:title="algebra">
<polygon fill="white" stroke="black" points="350,-60 296,-60 296,-24 350,-24 350,-60"/>
<text text-anchor="middle" x="323" y="-39.5" font-family="Helvetica,sans-Serif" font-size="10.00">algebra</text>
</a>
</g>
</g>
<!-- dir_dfeb873596d4562771adae787035a975&#45;&gt;dir_bb69ec456759f21295a9444e150033a6 -->
<g id="edge21" class="edge">
<title>dir_dfeb873596d4562771adae787035a975&#45;&gt;dir_bb69ec456759f21295a9444e150033a6</title>
<path fill="none" stroke="black" d="M311.14,-239.76C324.01,-210.47 346.82,-148.99 339,-96 337.72,-87.35 335.33,-78.15 332.78,-69.89"/>
<polygon fill="black" stroke="black" points="336.1,-68.78 329.65,-60.37 329.45,-70.96 336.1,-68.78"/>
<g id="a_edge21&#45;headlabel"><a xlink:href="dir_000002_000003.html" target="_top" xlink:title="1">
<text text-anchor="middle" x="339.92" y="-68.81" font-family="Helvetica,sans-Serif" font-size="10.00">1</text>
</a>
</g>
</g>
<!-- dir_90514e4c6cb1184f77f58f9d9324bf36 -->
<g id="node7" class="node">
<title>dir_90514e4c6cb1184f77f58f9d9324bf36</title>
<g id="a_node7"><a xlink:href="dir_90514e4c6cb1184f77f58f9d9324bf36.html" target="_top" xlink:title="geometry">
<polygon fill="white" stroke="black" points="330,-132 266,-132 266,-96 330,-96 330,-132"/>
<text text-anchor="middle" x="298" y="-111.5" font-family="Helvetica,sans-Serif" font-size="10.00">geometry</text>
</a>
</g>
</g>
<!-- dir_dfeb873596d4562771adae787035a975&#45;&gt;dir_90514e4c6cb1184f77f58f9d9324bf36 -->
<g id="edge20" class="edge">
<title>dir_dfeb873596d4562771adae787035a975&#45;&gt;dir_90514e4c6cb1184f77f58f9d9324bf36</title>
<path fill="none" stroke="black" d="M302.4,-239.87C301.54,-215.67 299.98,-171.21 298.96,-142.39"/>
<polygon fill="black" stroke="black" points="302.46,-142.06 298.61,-132.19 295.46,-142.31 302.46,-142.06"/>
<g id="a_edge20&#45;headlabel"><a xlink:href="dir_000002_000012.html" target="_top" xlink:title="4">
<text text-anchor="middle" x="305.42" y="-143.05" font-family="Helvetica,sans-Serif" font-size="10.00">4</text>
</a>
</g>
</g>
<!-- dir_f79aa91d151ccd05d66e8fd20c96b5c9 -->
<g id="node8" class="node">
<title>dir_f79aa91d151ccd05d66e8fd20c96b5c9</title>
<g id="a_node8"><a xlink:href="dir_f79aa91d151ccd05d66e8fd20c96b5c9.html" target="_top" xlink:title="integrator">
<polygon fill="white" stroke="black" points="171.5,-204 106.5,-204 106.5,-168 171.5,-168 171.5,-204"/>
<text text-anchor="middle" x="139" y="-183.5" font-family="Helvetica,sans-Serif" font-size="10.00">integrator</text>
</a>
</g>
</g>
<!-- dir_dfeb873596d4562771adae787035a975&#45;&gt;dir_f79aa91d151ccd05d66e8fd20c96b5c9 -->
<g id="edge23" class="edge">
<title>dir_dfeb873596d4562771adae787035a975&#45;&gt;dir_f79aa91d151ccd05d66e8fd20c96b5c9</title>
<path fill="none" stroke="black" d="M275.92,-245.44C250.14,-234.44 210.96,-217.72 181.11,-204.97"/>
<polygon fill="black" stroke="black" points="182.35,-201.7 171.78,-200.99 179.6,-208.13 182.35,-201.7"/>
<g id="a_edge23&#45;headlabel"><a xlink:href="dir_000002_000010.html" target="_top" xlink:title="1">
<text text-anchor="middle" x="186.77" y="-198" font-family="Helvetica,sans-Serif" font-size="10.00">1</text>
</a>
</g>
</g>
<!-- dir_d4ada3be3cf0417758450d654a32218e -->
<g id="node12" class="node">
<title>dir_d4ada3be3cf0417758450d654a32218e</title>
<g id="a_node12"><a xlink:href="dir_d4ada3be3cf0417758450d654a32218e.html" target="_top" xlink:title="riemann">
<polygon fill="white" stroke="red" points="289.5,-204 232.5,-204 232.5,-168 289.5,-168 289.5,-204"/>
<text text-anchor="middle" x="261" y="-183.5" font-family="Helvetica,sans-Serif" font-size="10.00">riemann</text>
</a>
</g>
</g>
<!-- dir_dfeb873596d4562771adae787035a975&#45;&gt;dir_d4ada3be3cf0417758450d654a32218e -->
<g id="edge22" class="edge">
<title>dir_dfeb873596d4562771adae787035a975&#45;&gt;dir_d4ada3be3cf0417758450d654a32218e</title>
<path fill="none" stroke="black" d="M292.62,-239.7C287.74,-231.56 281.81,-221.69 276.42,-212.7"/>
<polygon fill="black" stroke="black" points="279.41,-210.88 271.26,-204.1 273.41,-214.48 279.41,-210.88"/>
<g id="a_edge22&#45;headlabel"><a xlink:href="dir_000002_000004.html" target="_top" xlink:title="1">
<text text-anchor="middle" x="283.69" y="-210" font-family="Helvetica,sans-Serif" font-size="10.00">1</text>
</a>
</g>
</g>
<!-- dir_c8c3c9a4437e07b1ae0892d098d82a3c -->
<g id="node4" class="node">
<title>dir_c8c3c9a4437e07b1ae0892d098d82a3c</title>
<g id="a_node4"><a xlink:href="dir_c8c3c9a4437e07b1ae0892d098d82a3c.html" target="_top" xlink:title="basis">
<polygon fill="white" stroke="black" points="178,-276 124,-276 124,-240 178,-240 178,-276"/>
<text text-anchor="middle" x="151" y="-255.5" font-family="Helvetica,sans-Serif" font-size="10.00">basis</text>
</a>
</g>
</g>
<!-- dir_c8c3c9a4437e07b1ae0892d098d82a3c&#45;&gt;dir_bb69ec456759f21295a9444e150033a6 -->
<g id="edge36" class="edge">
<title>dir_c8c3c9a4437e07b1ae0892d098d82a3c&#45;&gt;dir_bb69ec456759f21295a9444e150033a6</title>
<path fill="none" stroke="black" d="M160.81,-239.93C183.94,-199.73 240.38,-102.02 246,-96 257.8,-83.34 273.13,-72.03 287.01,-63.15"/>
<polygon fill="black" stroke="black" points="289.2,-65.91 295.86,-57.67 285.51,-59.95 289.2,-65.91"/>
<g id="a_edge36&#45;headlabel"><a xlink:href="dir_000006_000003.html" target="_top" xlink:title="3">
<text text-anchor="middle" x="287.64" y="-67.71" font-family="Helvetica,sans-Serif" font-size="10.00">3</text>
</a>
</g>
</g>
<!-- dir_c8c3c9a4437e07b1ae0892d098d82a3c&#45;&gt;dir_f79aa91d151ccd05d66e8fd20c96b5c9 -->
<g id="edge37" class="edge">
<title>dir_c8c3c9a4437e07b1ae0892d098d82a3c&#45;&gt;dir_f79aa91d151ccd05d66e8fd20c96b5c9</title>
<path fill="none" stroke="black" d="M148.03,-239.7C146.71,-231.98 145.12,-222.71 143.65,-214.11"/>
<polygon fill="black" stroke="black" points="147.07,-213.37 141.93,-204.1 140.17,-214.55 147.07,-213.37"/>
<g id="a_edge37&#45;headlabel"><a xlink:href="dir_000006_000010.html" target="_top" xlink:title="3">
<text text-anchor="middle" x="150.48" y="-213.93" font-family="Helvetica,sans-Serif" font-size="10.00">3</text>
</a>
</g>
</g>
<!-- dir_fa7fd7bf69357dece0c85b99bdf728f8 -->
<g id="node5" class="node">
<title>dir_fa7fd7bf69357dece0c85b99bdf728f8</title>
<g id="a_node5"><a xlink:href="dir_fa7fd7bf69357dece0c85b99bdf728f8.html" target="_top" xlink:title="constant">
<polygon fill="white" stroke="black" points="110.5,-60 51.5,-60 51.5,-24 110.5,-24 110.5,-60"/>
<text text-anchor="middle" x="81" y="-39.5" font-family="Helvetica,sans-Serif" font-size="10.00">constant</text>
</a>
</g>
</g>
<!-- dir_8cc458dbcc0b32b454bc89428ebd057f -->
<g id="node6" class="node">
<title>dir_8cc458dbcc0b32b454bc89428ebd057f</title>
<g id="a_node6"><a xlink:href="dir_8cc458dbcc0b32b454bc89428ebd057f.html" target="_top" xlink:title="coordinate">
<polygon fill="white" stroke="black" points="168,-132 100,-132 100,-96 168,-96 168,-132"/>
<text text-anchor="middle" x="134" y="-111.5" font-family="Helvetica,sans-Serif" font-size="10.00">coordinate</text>
</a>
</g>
</g>
<!-- dir_8cc458dbcc0b32b454bc89428ebd057f&#45;&gt;dir_bb69ec456759f21295a9444e150033a6 -->
<g id="edge6" class="edge">
<title>dir_8cc458dbcc0b32b454bc89428ebd057f&#45;&gt;dir_bb69ec456759f21295a9444e150033a6</title>
<path fill="none" stroke="black" d="M168.23,-100.32C201.53,-87.99 251.98,-69.3 286.15,-56.65"/>
<polygon fill="black" stroke="black" points="287.6,-59.84 295.76,-53.09 285.17,-53.28 287.6,-59.84"/>
<g id="a_edge6&#45;headlabel"><a xlink:href="dir_000009_000003.html" target="_top" xlink:title="2">
<text text-anchor="middle" x="285.22" y="-61.25" font-family="Helvetica,sans-Serif" font-size="10.00">2</text>
</a>
</g>
</g>
<!-- dir_8cc458dbcc0b32b454bc89428ebd057f&#45;&gt;dir_fa7fd7bf69357dece0c85b99bdf728f8 -->
<g id="edge7" class="edge">
<title>dir_8cc458dbcc0b32b454bc89428ebd057f&#45;&gt;dir_fa7fd7bf69357dece0c85b99bdf728f8</title>
<path fill="none" stroke="black" d="M120.9,-95.7C114.61,-87.39 106.95,-77.28 100.04,-68.14"/>
<polygon fill="black" stroke="black" points="102.78,-65.96 93.95,-60.1 97.2,-70.19 102.78,-65.96"/>
<g id="a_edge7&#45;headlabel"><a xlink:href="dir_000009_000008.html" target="_top" xlink:title="1">
<text text-anchor="middle" x="107.21" y="-64.62" font-family="Helvetica,sans-Serif" font-size="10.00">1</text>
</a>
</g>
</g>
<!-- dir_90514e4c6cb1184f77f58f9d9324bf36&#45;&gt;dir_bb69ec456759f21295a9444e150033a6 -->
<g id="edge13" class="edge">
<title>dir_90514e4c6cb1184f77f58f9d9324bf36&#45;&gt;dir_bb69ec456759f21295a9444e150033a6</title>
<path fill="none" stroke="black" d="M304.18,-95.7C307,-87.81 310.39,-78.3 313.52,-69.55"/>
<polygon fill="black" stroke="black" points="316.82,-70.7 316.89,-60.1 310.23,-68.34 316.82,-70.7"/>
<g id="a_edge13&#45;headlabel"><a xlink:href="dir_000012_000003.html" target="_top" xlink:title="3">
<text text-anchor="middle" x="318.29" y="-72.54" font-family="Helvetica,sans-Serif" font-size="10.00">3</text>
</a>
</g>
</g>
<!-- dir_f79aa91d151ccd05d66e8fd20c96b5c9&#45;&gt;dir_bb69ec456759f21295a9444e150033a6 -->
<g id="edge33" class="edge">
<title>dir_f79aa91d151ccd05d66e8fd20c96b5c9&#45;&gt;dir_bb69ec456759f21295a9444e150033a6</title>
<path fill="none" stroke="black" d="M151.95,-167.97C167.17,-148.76 193.95,-117.4 222,-96 241.84,-80.86 266.63,-67.78 286.68,-58.4"/>
<polygon fill="black" stroke="black" points="288.17,-61.57 295.81,-54.23 285.26,-55.2 288.17,-61.57"/>
<g id="a_edge33&#45;headlabel"><a xlink:href="dir_000010_000003.html" target="_top" xlink:title="3">
<text text-anchor="middle" x="286.08" y="-63.15" font-family="Helvetica,sans-Serif" font-size="10.00">3</text>
</a>
</g>
</g>
<!-- dir_f79aa91d151ccd05d66e8fd20c96b5c9&#45;&gt;dir_fa7fd7bf69357dece0c85b99bdf728f8 -->
<g id="edge34" class="edge">
<title>dir_f79aa91d151ccd05d66e8fd20c96b5c9&#45;&gt;dir_fa7fd7bf69357dece0c85b99bdf728f8</title>
<path fill="none" stroke="black" d="M118.43,-167.98C108.42,-158.49 97.23,-145.8 91,-132 82.27,-112.66 80.01,-88.65 79.8,-70.45"/>
<polygon fill="black" stroke="black" points="83.3,-70.25 79.88,-60.22 76.3,-70.19 83.3,-70.25"/>
<g id="a_edge34&#45;headlabel"><a xlink:href="dir_000010_000008.html" target="_top" xlink:title="1">
<text text-anchor="middle" x="86.11" y="-71.36" font-family="Helvetica,sans-Serif" font-size="10.00">1</text>
</a>
</g>
</g>
<!-- dir_f79aa91d151ccd05d66e8fd20c96b5c9&#45;&gt;dir_8cc458dbcc0b32b454bc89428ebd057f -->
<g id="edge32" class="edge">
<title>dir_f79aa91d151ccd05d66e8fd20c96b5c9&#45;&gt;dir_8cc458dbcc0b32b454bc89428ebd057f</title>
<path fill="none" stroke="black" d="M137.76,-167.7C137.21,-159.98 136.55,-150.71 135.94,-142.11"/>
<polygon fill="black" stroke="black" points="139.43,-141.83 135.22,-132.1 132.44,-142.33 139.43,-141.83"/>
<g id="a_edge32&#45;headlabel"><a xlink:href="dir_000010_000009.html" target="_top" xlink:title="10">
<text text-anchor="middle" x="142.51" y="-142.71" font-family="Helvetica,sans-Serif" font-size="10.00">10</text>
</a>
</g>
</g>
<!-- dir_3eb17f3a1b5a40a6fbee1ab72e64eb0a -->
<g id="node9" class="node">
<title>dir_3eb17f3a1b5a40a6fbee1ab72e64eb0a</title>
<g id="a_node9"><a xlink:href="dir_3eb17f3a1b5a40a6fbee1ab72e64eb0a.html" target="_top" xlink:title="limiter">
<polygon fill="white" stroke="black" points="158,-420 104,-420 104,-384 158,-384 158,-420"/>
<text text-anchor="middle" x="131" y="-399.5" font-family="Helvetica,sans-Serif" font-size="10.00">limiter</text>
</a>
</g>
</g>
<!-- dir_3eb17f3a1b5a40a6fbee1ab72e64eb0a&#45;&gt;dir_c8c3c9a4437e07b1ae0892d098d82a3c -->
<g id="edge14" class="edge">
<title>dir_3eb17f3a1b5a40a6fbee1ab72e64eb0a&#45;&gt;dir_c8c3c9a4437e07b1ae0892d098d82a3c</title>
<path fill="none" stroke="black" d="M136.98,-383.55C140.23,-373.32 143.98,-360.07 146,-348 149.43,-327.52 150.64,-304.07 151.01,-286.38"/>
<polygon fill="black" stroke="black" points="154.51,-286.23 151.15,-276.19 147.51,-286.14 154.51,-286.23"/>
<g id="a_edge14&#45;headlabel"><a xlink:href="dir_000016_000006.html" target="_top" xlink:title="2">
<text text-anchor="middle" x="157.3" y="-287.36" font-family="Helvetica,sans-Serif" font-size="10.00">2</text>
</a>
</g>
</g>
<!-- dir_f30ada7b744033f76dae4428084f7af5 -->
<g id="node11" class="node">
<title>dir_f30ada7b744033f76dae4428084f7af5</title>
<g id="a_node11"><a xlink:href="dir_f30ada7b744033f76dae4428084f7af5.html" target="_top" xlink:title="polynomial">
<polygon fill="white" stroke="black" points="136.5,-348 65.5,-348 65.5,-312 136.5,-312 136.5,-348"/>
<text text-anchor="middle" x="101" y="-327.5" font-family="Helvetica,sans-Serif" font-size="10.00">polynomial</text>
</a>
</g>
</g>
<!-- dir_3eb17f3a1b5a40a6fbee1ab72e64eb0a&#45;&gt;dir_f30ada7b744033f76dae4428084f7af5 -->
<g id="edge16" class="edge">
<title>dir_3eb17f3a1b5a40a6fbee1ab72e64eb0a&#45;&gt;dir_f30ada7b744033f76dae4428084f7af5</title>
<path fill="none" stroke="black" d="M123.58,-383.7C120.21,-375.81 116.13,-366.3 112.38,-357.55"/>
<polygon fill="black" stroke="black" points="115.49,-355.92 108.33,-348.1 109.05,-358.67 115.49,-355.92"/>
<g id="a_edge16&#45;headlabel"><a xlink:href="dir_000016_000011.html" target="_top" xlink:title="3">
<text text-anchor="middle" x="119.51" y="-355.6" font-family="Helvetica,sans-Serif" font-size="10.00">3</text>
</a>
</g>
</g>
<!-- dir_3eb17f3a1b5a40a6fbee1ab72e64eb0a&#45;&gt;dir_d4ada3be3cf0417758450d654a32218e -->
<g id="edge15" class="edge">
<title>dir_3eb17f3a1b5a40a6fbee1ab72e64eb0a&#45;&gt;dir_d4ada3be3cf0417758450d654a32218e</title>
<path fill="none" stroke="black" d="M141.42,-383.85C164.14,-346.44 218.28,-257.32 245.22,-212.98"/>
<polygon fill="black" stroke="black" points="248.33,-214.6 250.53,-204.23 242.35,-210.96 248.33,-214.6"/>
<g id="a_edge15&#45;headlabel"><a xlink:href="dir_000016_000004.html" target="_top" xlink:title="1">
<text text-anchor="middle" x="248.89" y="-216.64" font-family="Helvetica,sans-Serif" font-size="10.00">1</text>
</a>
</g>
</g>
<!-- dir_63af4d6d5f6d067ae1e80c5ce681974a -->
<g id="node10" class="node">
<title>dir_63af4d6d5f6d067ae1e80c5ce681974a</title>
<g id="a_node10"><a xlink:href="dir_63af4d6d5f6d067ae1e80c5ce681974a.html" target="_top" xlink:title="mesh">
<polygon fill="white" stroke="black" points="258,-420 204,-420 204,-384 258,-384 258,-420"/>
<text text-anchor="middle" x="231" y="-399.5" font-family="Helvetica,sans-Serif" font-size="10.00">mesh</text>
</a>
</g>
</g>
<!-- dir_63af4d6d5f6d067ae1e80c5ce681974a&#45;&gt;dir_bb69ec456759f21295a9444e150033a6 -->
<g id="edge10" class="edge">
<title>dir_63af4d6d5f6d067ae1e80c5ce681974a&#45;&gt;dir_bb69ec456759f21295a9444e150033a6</title>
<path fill="none" stroke="black" d="M258.14,-387.47C274.73,-378.15 295.49,-364.49 310,-348 355.7,-296.08 358.35,-272.34 369,-204 376.45,-156.18 372.4,-141.17 355,-96 351.43,-86.72 346.25,-77.22 341.11,-68.88"/>
<polygon fill="black" stroke="black" points="343.97,-66.86 335.61,-60.34 338.08,-70.65 343.97,-66.86"/>
<g id="a_edge10&#45;headlabel"><a xlink:href="dir_000017_000003.html" target="_top" xlink:title="1">
<text text-anchor="middle" x="348.3" y="-65.84" font-family="Helvetica,sans-Serif" font-size="10.00">1</text>
</a>
</g>
</g>
<!-- dir_63af4d6d5f6d067ae1e80c5ce681974a&#45;&gt;dir_8cc458dbcc0b32b454bc89428ebd057f -->
<g id="edge8" class="edge">
<title>dir_63af4d6d5f6d067ae1e80c5ce681974a&#45;&gt;dir_8cc458dbcc0b32b454bc89428ebd057f</title>
<path fill="none" stroke="black" d="M230.65,-383.74C229.14,-343.42 221.31,-240.97 181,-168 175.35,-157.78 167.43,-147.85 159.7,-139.4"/>
<polygon fill="black" stroke="black" points="162.16,-136.91 152.72,-132.09 157.1,-141.74 162.16,-136.91"/>
<g id="a_edge8&#45;headlabel"><a xlink:href="dir_000017_000009.html" target="_top" xlink:title="3">
<text text-anchor="middle" x="166.69" y="-135.05" font-family="Helvetica,sans-Serif" font-size="10.00">3</text>
</a>
</g>
</g>
<!-- dir_63af4d6d5f6d067ae1e80c5ce681974a&#45;&gt;dir_90514e4c6cb1184f77f58f9d9324bf36 -->
<g id="edge9" class="edge">
<title>dir_63af4d6d5f6d067ae1e80c5ce681974a&#45;&gt;dir_90514e4c6cb1184f77f58f9d9324bf36</title>
<path fill="none" stroke="black" d="M253.62,-383.63C279.95,-361.82 321.99,-321.69 339,-276 356.21,-229.75 332.1,-173.4 314.21,-141.11"/>
<polygon fill="black" stroke="black" points="317.16,-139.21 309.15,-132.29 311.09,-142.7 317.16,-139.21"/>
<g id="a_edge9&#45;headlabel"><a xlink:href="dir_000017_000012.html" target="_top" xlink:title="1">
<text text-anchor="middle" x="321.41" y="-138.42" font-family="Helvetica,sans-Serif" font-size="10.00">1</text>
</a>
</g>
</g>
<!-- dir_63af4d6d5f6d067ae1e80c5ce681974a&#45;&gt;dir_f79aa91d151ccd05d66e8fd20c96b5c9 -->
<g id="edge12" class="edge">
<title>dir_63af4d6d5f6d067ae1e80c5ce681974a&#45;&gt;dir_f79aa91d151ccd05d66e8fd20c96b5c9</title>
<path fill="none" stroke="black" d="M228.94,-383.56C224.76,-352.89 213.32,-288.03 187,-240 181.43,-229.83 173.53,-220.03 165.75,-211.68"/>
<polygon fill="black" stroke="black" points="168.19,-209.17 158.7,-204.45 163.18,-214.05 168.19,-209.17"/>
<g id="a_edge12&#45;headlabel"><a xlink:href="dir_000017_000010.html" target="_top" xlink:title="4">
<text text-anchor="middle" x="172.73" y="-207.26" font-family="Helvetica,sans-Serif" font-size="10.00">4</text>
</a>
</g>
</g>
<!-- dir_63af4d6d5f6d067ae1e80c5ce681974a&#45;&gt;dir_f30ada7b744033f76dae4428084f7af5 -->
<g id="edge11" class="edge">
<title>dir_63af4d6d5f6d067ae1e80c5ce681974a&#45;&gt;dir_f30ada7b744033f76dae4428084f7af5</title>
<path fill="none" stroke="black" d="M203.75,-386.33C185.8,-376.66 161.97,-363.83 141.78,-352.96"/>
<polygon fill="black" stroke="black" points="143.26,-349.78 132.8,-348.12 139.94,-355.94 143.26,-349.78"/>
<g id="a_edge11&#45;headlabel"><a xlink:href="dir_000017_000011.html" target="_top" xlink:title="1">
<text text-anchor="middle" x="147.77" y="-346.49" font-family="Helvetica,sans-Serif" font-size="10.00">1</text>
</a>
</g>
</g>
<!-- dir_f30ada7b744033f76dae4428084f7af5&#45;&gt;dir_bb69ec456759f21295a9444e150033a6 -->
<g id="edge2" class="edge">
<title>dir_f30ada7b744033f76dae4428084f7af5&#45;&gt;dir_bb69ec456759f21295a9444e150033a6</title>
<path fill="none" stroke="black" d="M136.6,-326.29C196.52,-320.92 313.51,-306.69 339,-276 388.34,-216.6 355.41,-116.62 335.31,-69.32"/>
<polygon fill="black" stroke="black" points="338.48,-67.81 331.25,-60.06 332.06,-70.62 338.48,-67.81"/>
<g id="a_edge2&#45;headlabel"><a xlink:href="dir_000011_000003.html" target="_top" xlink:title="3">
<text text-anchor="middle" x="342.52" y="-67.47" font-family="Helvetica,sans-Serif" font-size="10.00">3</text>
</a>
</g>
</g>
<!-- dir_f30ada7b744033f76dae4428084f7af5&#45;&gt;dir_c8c3c9a4437e07b1ae0892d098d82a3c -->
<g id="edge3" class="edge">
<title>dir_f30ada7b744033f76dae4428084f7af5&#45;&gt;dir_c8c3c9a4437e07b1ae0892d098d82a3c</title>
<path fill="none" stroke="black" d="M113.36,-311.7C119.23,-303.47 126.37,-293.48 132.84,-284.42"/>
<polygon fill="black" stroke="black" points="135.82,-286.28 138.78,-276.1 130.12,-282.21 135.82,-286.28"/>
<g id="a_edge3&#45;headlabel"><a xlink:href="dir_000011_000006.html" target="_top" xlink:title="2">
<text text-anchor="middle" x="136.04" y="-288.35" font-family="Helvetica,sans-Serif" font-size="10.00">2</text>
</a>
</g>
</g>
<!-- dir_f30ada7b744033f76dae4428084f7af5&#45;&gt;dir_fa7fd7bf69357dece0c85b99bdf728f8 -->
<g id="edge5" class="edge">
<title>dir_f30ada7b744033f76dae4428084f7af5&#45;&gt;dir_fa7fd7bf69357dece0c85b99bdf728f8</title>
<path fill="none" stroke="black" d="M94.57,-311.59C91.09,-301.37 87.09,-288.12 85,-276 72.32,-202.49 75.83,-114.01 78.79,-70.25"/>
<polygon fill="black" stroke="black" points="82.29,-70.35 79.52,-60.12 75.31,-69.85 82.29,-70.35"/>
<g id="a_edge5&#45;headlabel"><a xlink:href="dir_000011_000008.html" target="_top" xlink:title="1">
<text text-anchor="middle" x="84.86" y="-71.64" font-family="Helvetica,sans-Serif" font-size="10.00">1</text>
</a>
</g>
</g>
<!-- dir_f30ada7b744033f76dae4428084f7af5&#45;&gt;dir_8cc458dbcc0b32b454bc89428ebd057f -->
<g id="edge1" class="edge">
<title>dir_f30ada7b744033f76dae4428084f7af5&#45;&gt;dir_8cc458dbcc0b32b454bc89428ebd057f</title>
<path fill="none" stroke="black" d="M96.96,-311.57C90.78,-281.47 81.23,-218.14 97,-168 100.1,-158.15 105.75,-148.53 111.72,-140.25"/>
<polygon fill="black" stroke="black" points="114.63,-142.21 117.96,-132.15 109.09,-137.94 114.63,-142.21"/>
<g id="a_edge1&#45;headlabel"><a xlink:href="dir_000011_000009.html" target="_top" xlink:title="1">
<text text-anchor="middle" x="114.68" y="-144.29" font-family="Helvetica,sans-Serif" font-size="10.00">1</text>
</a>
</g>
</g>
<!-- dir_f30ada7b744033f76dae4428084f7af5&#45;&gt;dir_f79aa91d151ccd05d66e8fd20c96b5c9 -->
<g id="edge4" class="edge">
<title>dir_f30ada7b744033f76dae4428084f7af5&#45;&gt;dir_f79aa91d151ccd05d66e8fd20c96b5c9</title>
<path fill="none" stroke="black" d="M102.31,-311.97C104.02,-293.83 107.69,-264.43 115,-240 117.66,-231.1 121.51,-221.75 125.35,-213.42"/>
<polygon fill="black" stroke="black" points="128.6,-214.74 129.78,-204.21 122.29,-211.71 128.6,-214.74"/>
<g id="a_edge4&#45;headlabel"><a xlink:href="dir_000011_000010.html" target="_top" xlink:title="3">
<text text-anchor="middle" x="129.6" y="-216.71" font-family="Helvetica,sans-Serif" font-size="10.00">3</text>
</a>
</g>
</g>
<!-- dir_d4ada3be3cf0417758450d654a32218e&#45;&gt;dir_bb69ec456759f21295a9444e150033a6 -->
<g id="edge17" class="edge">
<title>dir_d4ada3be3cf0417758450d654a32218e&#45;&gt;dir_bb69ec456759f21295a9444e150033a6</title>
<path fill="none" stroke="black" d="M255.66,-167.98C250.82,-149.33 245.97,-119.01 257,-96 263.49,-82.46 275.32,-71.28 287.19,-62.74"/>
<polygon fill="black" stroke="black" points="289.4,-65.47 295.76,-56.99 285.51,-59.65 289.4,-65.47"/>
<g id="a_edge17&#45;headlabel"><a xlink:href="dir_000004_000003.html" target="_top" xlink:title="12">
<text text-anchor="middle" x="288" y="-67.33" font-family="Helvetica,sans-Serif" font-size="10.00">12</text>
</a>
</g>
</g>
<!-- dir_d4ada3be3cf0417758450d654a32218e&#45;&gt;dir_fa7fd7bf69357dece0c85b99bdf728f8 -->
<g id="edge18" class="edge">
<title>dir_d4ada3be3cf0417758450d654a32218e&#45;&gt;dir_fa7fd7bf69357dece0c85b99bdf728f8</title>
<path fill="none" stroke="black" d="M247.49,-167.75C231.92,-148.61 204.88,-117.61 177,-96 159.45,-82.39 137.95,-70.18 119.76,-60.92"/>
<polygon fill="black" stroke="black" points="121.09,-57.67 110.58,-56.35 117.98,-63.94 121.09,-57.67"/>
<g id="a_edge18&#45;headlabel"><a xlink:href="dir_000004_000008.html" target="_top" xlink:title="5">
<text text-anchor="middle" x="125.58" y="-54.23" font-family="Helvetica,sans-Serif" font-size="10.00">5</text>
</a>
</g>
</g>
<!-- dir_d4ada3be3cf0417758450d654a32218e&#45;&gt;dir_90514e4c6cb1184f77f58f9d9324bf36 -->
<g id="edge19" class="edge">
<title>dir_d4ada3be3cf0417758450d654a32218e&#45;&gt;dir_90514e4c6cb1184f77f58f9d9324bf36</title>
<path fill="none" stroke="black" d="M270.15,-167.7C274.4,-159.64 279.56,-149.89 284.27,-140.98"/>
<polygon fill="black" stroke="black" points="287.38,-142.58 288.96,-132.1 281.19,-139.31 287.38,-142.58"/>
<g id="a_edge19&#45;headlabel"><a xlink:href="dir_000004_000012.html" target="_top" xlink:title="1">
<text text-anchor="middle" x="288.21" y="-144.59" font-family="Helvetica,sans-Serif" font-size="10.00">1</text>
</a>
</g>
</g>
<!-- dir_fc0b6fe8fa7363834f3a0d558455b58c -->
<g id="node13" class="node">
<title>dir_fc0b6fe8fa7363834f3a0d558455b58c</title>
<g id="a_node13"><a xlink:href="dir_fc0b6fe8fa7363834f3a0d558455b58c.html" target="_top" xlink:title="spatial">
<polygon fill="white" stroke="red" points="181,-492 127,-492 127,-456 181,-456 181,-492"/>
<text text-anchor="middle" x="154" y="-471.5" font-family="Helvetica,sans-Serif" font-size="10.00">spatial</text>
</a>
</g>
</g>
<!-- dir_fc0b6fe8fa7363834f3a0d558455b58c&#45;&gt;dir_bb69ec456759f21295a9444e150033a6 -->
<g id="edge26" class="edge">
<title>dir_fc0b6fe8fa7363834f3a0d558455b58c&#45;&gt;dir_bb69ec456759f21295a9444e150033a6</title>
<path fill="none" stroke="black" d="M181.13,-465.23C206.7,-456.96 245.14,-442.01 273,-420 332.4,-373.06 341.08,-348.15 364,-276 388.23,-199.75 397.37,-169.6 366,-96 361.75,-86.03 355.04,-76.41 348.18,-68.17"/>
<polygon fill="black" stroke="black" points="350.59,-65.62 341.35,-60.43 345.34,-70.25 350.59,-65.62"/>
<g id="a_edge26&#45;headlabel"><a xlink:href="dir_000013_000003.html" target="_top" xlink:title="1">
<text text-anchor="middle" x="355.1" y="-63.93" font-family="Helvetica,sans-Serif" font-size="10.00">1</text>
</a>
</g>
</g>
<!-- dir_fc0b6fe8fa7363834f3a0d558455b58c&#45;&gt;dir_c8c3c9a4437e07b1ae0892d098d82a3c -->
<g id="edge27" class="edge">
<title>dir_fc0b6fe8fa7363834f3a0d558455b58c&#45;&gt;dir_c8c3c9a4437e07b1ae0892d098d82a3c</title>
<path fill="none" stroke="black" d="M159.41,-455.53C162.3,-445.29 165.55,-432.04 167,-420 172.66,-373.15 164,-318.45 157.38,-286.38"/>
<polygon fill="black" stroke="black" points="160.76,-285.46 155.23,-276.42 153.92,-286.93 160.76,-285.46"/>
<g id="a_edge27&#45;headlabel"><a xlink:href="dir_000013_000006.html" target="_top" xlink:title="2">
<text text-anchor="middle" x="164.29" y="-285.88" font-family="Helvetica,sans-Serif" font-size="10.00">2</text>
</a>
</g>
</g>
<!-- dir_fc0b6fe8fa7363834f3a0d558455b58c&#45;&gt;dir_fa7fd7bf69357dece0c85b99bdf728f8 -->
<g id="edge31" class="edge">
<title>dir_fc0b6fe8fa7363834f3a0d558455b58c&#45;&gt;dir_fa7fd7bf69357dece0c85b99bdf728f8</title>
<path fill="none" stroke="black" d="M126.88,-460.05C102.99,-448.21 70.54,-430.91 61,-420 32.91,-387.88 25,-373.67 25,-331 25,-331 25,-331 25,-185 25,-141.91 47.6,-96.26 64.08,-68.7"/>
<polygon fill="black" stroke="black" points="67.13,-70.42 69.4,-60.07 61.17,-66.75 67.13,-70.42"/>
<g id="a_edge31&#45;headlabel"><a xlink:href="dir_000013_000008.html" target="_top" xlink:title="1">
<text text-anchor="middle" x="67.66" y="-72.47" font-family="Helvetica,sans-Serif" font-size="10.00">1</text>
</a>
</g>
</g>
<!-- dir_fc0b6fe8fa7363834f3a0d558455b58c&#45;&gt;dir_f79aa91d151ccd05d66e8fd20c96b5c9 -->
<g id="edge30" class="edge">
<title>dir_fc0b6fe8fa7363834f3a0d558455b58c&#45;&gt;dir_f79aa91d151ccd05d66e8fd20c96b5c9</title>
<path fill="none" stroke="black" d="M126.72,-456.57C113.04,-447.24 97.08,-434.52 86,-420 64.97,-392.44 62.8,-381.99 56,-348 52.86,-332.31 51.38,-327.32 56,-312 67.65,-273.41 95.54,-235.79 115.79,-212.08"/>
<polygon fill="black" stroke="black" points="118.65,-214.13 122.59,-204.29 113.37,-209.52 118.65,-214.13"/>
<g id="a_edge30&#45;headlabel"><a xlink:href="dir_000013_000010.html" target="_top" xlink:title="1">
<text text-anchor="middle" x="118.42" y="-216.2" font-family="Helvetica,sans-Serif" font-size="10.00">1</text>
</a>
</g>
</g>
<!-- dir_fc0b6fe8fa7363834f3a0d558455b58c&#45;&gt;dir_3eb17f3a1b5a40a6fbee1ab72e64eb0a -->
<g id="edge25" class="edge">
<title>dir_fc0b6fe8fa7363834f3a0d558455b58c&#45;&gt;dir_3eb17f3a1b5a40a6fbee1ab72e64eb0a</title>
<path fill="none" stroke="black" d="M148.31,-455.7C145.75,-447.9 142.67,-438.51 139.82,-429.83"/>
<polygon fill="black" stroke="black" points="143.07,-428.51 136.62,-420.1 136.42,-430.7 143.07,-428.51"/>
<g id="a_edge25&#45;headlabel"><a xlink:href="dir_000013_000016.html" target="_top" xlink:title="2">
<text text-anchor="middle" x="146.89" y="-428.54" font-family="Helvetica,sans-Serif" font-size="10.00">2</text>
</a>
</g>
</g>
<!-- dir_fc0b6fe8fa7363834f3a0d558455b58c&#45;&gt;dir_f30ada7b744033f76dae4428084f7af5 -->
<g id="edge29" class="edge">
<title>dir_fc0b6fe8fa7363834f3a0d558455b58c&#45;&gt;dir_f30ada7b744033f76dae4428084f7af5</title>
<path fill="none" stroke="black" d="M126.82,-456.34C114.67,-447.26 101.62,-434.84 95,-420 86.31,-400.52 88.71,-376.24 92.78,-357.96"/>
<polygon fill="black" stroke="black" points="96.18,-358.79 95.22,-348.23 89.39,-357.08 96.18,-358.79"/>
<g id="a_edge29&#45;headlabel"><a xlink:href="dir_000013_000011.html" target="_top" xlink:title="5">
<text text-anchor="middle" x="98.06" y="-360.46" font-family="Helvetica,sans-Serif" font-size="10.00">5</text>
</a>
</g>
</g>
<!-- dir_fc0b6fe8fa7363834f3a0d558455b58c&#45;&gt;dir_d4ada3be3cf0417758450d654a32218e -->
<g id="edge28" class="edge">
<title>dir_fc0b6fe8fa7363834f3a0d558455b58c&#45;&gt;dir_d4ada3be3cf0417758450d654a32218e</title>
<path fill="none" stroke="black" d="M181.15,-468.74C208.17,-462.9 248.23,-449.54 267,-420 272.43,-411.46 265.71,-273.99 262.51,-214.3"/>
<polygon fill="black" stroke="black" points="266,-213.91 261.96,-204.11 259.01,-214.29 266,-213.91"/>
<g id="a_edge28&#45;headlabel"><a xlink:href="dir_000013_000004.html" target="_top" xlink:title="4">
<text text-anchor="middle" x="269.03" y="-214.84" font-family="Helvetica,sans-Serif" font-size="10.00">4</text>
</a>
</g>
</g>
<!-- dir_28c05fa16227e673b78ef39be9409f7d -->
<g id="node14" class="node">
<title>dir_28c05fa16227e673b78ef39be9409f7d</title>
<g id="a_node14"><a xlink:href="dir_28c05fa16227e673b78ef39be9409f7d.html" target="_top" xlink:title="temporal">
<polygon fill="white" stroke="black" points="429.5,-348 368.5,-348 368.5,-312 429.5,-312 429.5,-348"/>
<text text-anchor="middle" x="399" y="-327.5" font-family="Helvetica,sans-Serif" font-size="10.00">temporal</text>
</a>
</g>
</g>
<!-- dir_fc0b6fe8fa7363834f3a0d558455b58c&#45;&gt;dir_28c05fa16227e673b78ef39be9409f7d -->
<g id="edge24" class="edge">
<title>dir_fc0b6fe8fa7363834f3a0d558455b58c&#45;&gt;dir_28c05fa16227e673b78ef39be9409f7d</title>
<path fill="none" stroke="black" d="M181.05,-472.62C222.67,-470.68 302.92,-461.38 354,-420 373.48,-404.22 385.32,-377.83 391.93,-357.87"/>
<polygon fill="black" stroke="black" points="395.33,-358.7 394.92,-348.11 388.64,-356.65 395.33,-358.7"/>
<g id="a_edge24&#45;headlabel"><a xlink:href="dir_000013_000020.html" target="_top" xlink:title="1">
<text text-anchor="middle" x="396.99" y="-360.47" font-family="Helvetica,sans-Serif" font-size="10.00">1</text>
</a>
</g>
</g>
<!-- dir_28c05fa16227e673b78ef39be9409f7d&#45;&gt;dir_bb69ec456759f21295a9444e150033a6 -->
<g id="edge35" class="edge">
<title>dir_28c05fa16227e673b78ef39be9409f7d&#45;&gt;dir_bb69ec456759f21295a9444e150033a6</title>
<path fill="none" stroke="black" d="M406.17,-311.75C421.88,-271.02 454.81,-166.99 414,-96 402.33,-75.7 379.57,-62.45 359.73,-54.27"/>
<polygon fill="black" stroke="black" points="360.88,-50.97 350.29,-50.66 358.38,-57.5 360.88,-50.97"/>
<g id="a_edge35&#45;headlabel"><a xlink:href="dir_000020_000003.html" target="_top" xlink:title="1">
<text text-anchor="middle" x="365.25" y="-47.1" font-family="Helvetica,sans-Serif" font-size="10.00">1</text>
</a>
</g>
</g>
<!-- dir_3a67c7efa46424fa4344ebbca144ed81 -->
<g id="node15" class="node">
<title>dir_3a67c7efa46424fa4344ebbca144ed81</title>
<g id="a_node15"><a xlink:href="dir_3a67c7efa46424fa4344ebbca144ed81.html" target="_top" xlink:title="type">
<polygon fill="white" stroke="black" points="105,-492 51,-492 51,-456 105,-456 105,-492"/>
<text text-anchor="middle" x="78" y="-471.5" font-family="Helvetica,sans-Serif" font-size="10.00">type</text>
</a>
</g>
</g>
</g>
</svg>
