<?xml version="1.0" encoding="UTF-8" standalone="no"?>
<!DOCTYPE svg PUBLIC "-//W3C//DTD SVG 1.1//EN"
 "http://www.w3.org/Graphics/SVG/1.1/DTD/svg11.dtd">
<!-- Generated by graphviz version 2.43.0 (0)
 -->
<!-- Title: include/mini/spatial Pages: 1 -->
<svg width="314pt" height="463pt"
 viewBox="0.00 0.00 314.00 463.00" xmlns="http://www.w3.org/2000/svg" xmlns:xlink="http://www.w3.org/1999/xlink">
<g id="graph0" class="graph" transform="scale(1 1) rotate(0) translate(4 459)">
<title>include/mini/spatial</title>
<polygon fill="white" stroke="transparent" points="-4,4 -4,-459 310,-459 310,4 -4,4"/>
<g id="clust1" class="cluster">
<title>clusterdir_52c4e261fccb9ba9630288b59582e709</title>
<g id="a_clust1"><a xlink:href="dir_52c4e261fccb9ba9630288b59582e709.html" target="_top" xlink:title="mini">
<polygon fill="#ddddee" stroke="black" points="8,-8 8,-447 298,-447 298,-8 8,-8"/>
<text text-anchor="middle" x="153" y="-435" font-family="Helvetica,sans-Serif" font-size="10.00">mini</text>
</a>
</g>
</g>
<g id="clust2" class="cluster">
<title>clusterdir_fc0b6fe8fa7363834f3a0d558455b58c</title>
<g id="a_clust2"><a xlink:href="dir_fc0b6fe8fa7363834f3a0d558455b58c.html" target="_top">
<polygon fill="#eeeeff" stroke="black" points="16,-368 16,-420 230,-420 230,-368 16,-368"/>
</a>
</g>
</g>
<!-- dir_28c05fa16227e673b78ef39be9409f7d -->
<g id="node1" class="node">
<title>dir_28c05fa16227e673b78ef39be9409f7d</title>
<g id="a_node1"><a xlink:href="dir_28c05fa16227e673b78ef39be9409f7d.html" target="_top" xlink:title="temporal">
<polygon fill="none" stroke="black" points="269.5,-340 208.5,-340 208.5,-304 269.5,-304 269.5,-340"/>
<text text-anchor="middle" x="239" y="-319.5" font-family="Helvetica,sans-Serif" font-size="10.00">temporal</text>
</a>
</g>
</g>
<!-- dir_bb69ec456759f21295a9444e150033a6 -->
<g id="node3" class="node">
<title>dir_bb69ec456759f21295a9444e150033a6</title>
<g id="a_node3"><a xlink:href="dir_bb69ec456759f21295a9444e150033a6.html" target="_top" xlink:title="algebra">
<polygon fill="none" stroke="black" points="224,-52 170,-52 170,-16 224,-16 224,-52"/>
<text text-anchor="middle" x="197" y="-31.5" font-family="Helvetica,sans-Serif" font-size="10.00">algebra</text>
</a>
</g>
</g>
<!-- dir_28c05fa16227e673b78ef39be9409f7d&#45;&gt;dir_bb69ec456759f21295a9444e150033a6 -->
<g id="edge21" class="edge">
<title>dir_28c05fa16227e673b78ef39be9409f7d&#45;&gt;dir_bb69ec456759f21295a9444e150033a6</title>
<path fill="none" stroke="black" d="M245.65,-303.63C249.2,-293.42 253.2,-280.17 255,-268 257.34,-252.17 257.28,-247.84 255,-232 245.98,-169.42 221.63,-99.02 207.51,-61.65"/>
<polygon fill="black" stroke="black" points="210.67,-60.11 203.82,-52.02 204.13,-62.61 210.67,-60.11"/>
<g id="a_edge21&#45;headlabel"><a xlink:href="dir_000020_000003.html" target="_top" xlink:title="1">
<text text-anchor="middle" x="214.6" y="-59.95" font-family="Helvetica,sans-Serif" font-size="10.00">1</text>
</a>
</g>
</g>
<!-- dir_3eb17f3a1b5a40a6fbee1ab72e64eb0a -->
<g id="node2" class="node">
<title>dir_3eb17f3a1b5a40a6fbee1ab72e64eb0a</title>
<g id="a_node2"><a xlink:href="dir_3eb17f3a1b5a40a6fbee1ab72e64eb0a.html" target="_top" xlink:title="limiter">
<polygon fill="none" stroke="black" points="150,-340 96,-340 96,-304 150,-304 150,-340"/>
<text text-anchor="middle" x="123" y="-319.5" font-family="Helvetica,sans-Serif" font-size="10.00">limiter</text>
</a>
</g>
</g>
<!-- dir_c8c3c9a4437e07b1ae0892d098d82a3c -->
<g id="node4" class="node">
<title>dir_c8c3c9a4437e07b1ae0892d098d82a3c</title>
<g id="a_node4"><a xlink:href="dir_c8c3c9a4437e07b1ae0892d098d82a3c.html" target="_top" xlink:title="basis">
<polygon fill="none" stroke="black" points="150,-196 96,-196 96,-160 150,-160 150,-196"/>
<text text-anchor="middle" x="123" y="-175.5" font-family="Helvetica,sans-Serif" font-size="10.00">basis</text>
</a>
</g>
</g>
<!-- dir_3eb17f3a1b5a40a6fbee1ab72e64eb0a&#45;&gt;dir_c8c3c9a4437e07b1ae0892d098d82a3c -->
<g id="edge5" class="edge">
<title>dir_3eb17f3a1b5a40a6fbee1ab72e64eb0a&#45;&gt;dir_c8c3c9a4437e07b1ae0892d098d82a3c</title>
<path fill="none" stroke="black" d="M126.65,-303.91C128.68,-293.57 130.98,-280.09 132,-268 133.34,-252.06 133.34,-247.94 132,-232 131.28,-223.5 129.93,-214.31 128.49,-206.01"/>
<polygon fill="black" stroke="black" points="131.91,-205.29 126.65,-196.09 125.03,-206.56 131.91,-205.29"/>
<g id="a_edge5&#45;headlabel"><a xlink:href="dir_000016_000006.html" target="_top" xlink:title="2">
<text text-anchor="middle" x="135.36" y="-205.81" font-family="Helvetica,sans-Serif" font-size="10.00">2</text>
</a>
</g>
</g>
<!-- dir_d4ada3be3cf0417758450d654a32218e -->
<g id="node5" class="node">
<title>dir_d4ada3be3cf0417758450d654a32218e</title>
<g id="a_node5"><a xlink:href="dir_d4ada3be3cf0417758450d654a32218e.html" target="_top" xlink:title="riemann">
<polygon fill="white" stroke="red" points="245.5,-268 188.5,-268 188.5,-232 245.5,-232 245.5,-268"/>
<text text-anchor="middle" x="217" y="-247.5" font-family="Helvetica,sans-Serif" font-size="10.00">riemann</text>
</a>
</g>
</g>
<!-- dir_3eb17f3a1b5a40a6fbee1ab72e64eb0a&#45;&gt;dir_d4ada3be3cf0417758450d654a32218e -->
<g id="edge6" class="edge">
<title>dir_3eb17f3a1b5a40a6fbee1ab72e64eb0a&#45;&gt;dir_d4ada3be3cf0417758450d654a32218e</title>
<path fill="none" stroke="black" d="M146.24,-303.7C158.19,-294.8 172.92,-283.82 185.85,-274.2"/>
<polygon fill="black" stroke="black" points="188.1,-276.88 194.03,-268.1 183.92,-271.27 188.1,-276.88"/>
<g id="a_edge6&#45;headlabel"><a xlink:href="dir_000016_000004.html" target="_top" xlink:title="1">
<text text-anchor="middle" x="186.91" y="-278.81" font-family="Helvetica,sans-Serif" font-size="10.00">1</text>
</a>
</g>
</g>
<!-- dir_f30ada7b744033f76dae4428084f7af5 -->
<g id="node6" class="node">
<title>dir_f30ada7b744033f76dae4428084f7af5</title>
<g id="a_node6"><a xlink:href="dir_f30ada7b744033f76dae4428084f7af5.html" target="_top" xlink:title="polynomial">
<polygon fill="none" stroke="black" points="107.5,-268 36.5,-268 36.5,-232 107.5,-232 107.5,-268"/>
<text text-anchor="middle" x="72" y="-247.5" font-family="Helvetica,sans-Serif" font-size="10.00">polynomial</text>
</a>
</g>
</g>
<!-- dir_3eb17f3a1b5a40a6fbee1ab72e64eb0a&#45;&gt;dir_f30ada7b744033f76dae4428084f7af5 -->
<g id="edge7" class="edge">
<title>dir_3eb17f3a1b5a40a6fbee1ab72e64eb0a&#45;&gt;dir_f30ada7b744033f76dae4428084f7af5</title>
<path fill="none" stroke="black" d="M110.39,-303.7C104.4,-295.47 97.12,-285.48 90.52,-276.42"/>
<polygon fill="black" stroke="black" points="93.18,-274.13 84.46,-268.1 87.52,-278.25 93.18,-274.13"/>
<g id="a_edge7&#45;headlabel"><a xlink:href="dir_000016_000011.html" target="_top" xlink:title="3">
<text text-anchor="middle" x="97.59" y="-272.86" font-family="Helvetica,sans-Serif" font-size="10.00">3</text>
</a>
</g>
</g>
<!-- dir_c8c3c9a4437e07b1ae0892d098d82a3c&#45;&gt;dir_bb69ec456759f21295a9444e150033a6 -->
<g id="edge22" class="edge">
<title>dir_c8c3c9a4437e07b1ae0892d098d82a3c&#45;&gt;dir_bb69ec456759f21295a9444e150033a6</title>
<path fill="none" stroke="black" d="M137.57,-159.63C145.49,-149.64 155.04,-136.6 162,-124 172.99,-104.1 182.23,-80.04 188.46,-61.95"/>
<polygon fill="black" stroke="black" points="191.82,-62.92 191.68,-52.32 185.18,-60.69 191.82,-62.92"/>
<g id="a_edge22&#45;headlabel"><a xlink:href="dir_000006_000003.html" target="_top" xlink:title="3">
<text text-anchor="middle" x="193.37" y="-64.73" font-family="Helvetica,sans-Serif" font-size="10.00">3</text>
</a>
</g>
</g>
<!-- dir_f79aa91d151ccd05d66e8fd20c96b5c9 -->
<g id="node7" class="node">
<title>dir_f79aa91d151ccd05d66e8fd20c96b5c9</title>
<g id="a_node7"><a xlink:href="dir_f79aa91d151ccd05d66e8fd20c96b5c9.html" target="_top" xlink:title="integrator">
<polygon fill="none" stroke="black" points="117.5,-124 52.5,-124 52.5,-88 117.5,-88 117.5,-124"/>
<text text-anchor="middle" x="85" y="-103.5" font-family="Helvetica,sans-Serif" font-size="10.00">integrator</text>
</a>
</g>
</g>
<!-- dir_c8c3c9a4437e07b1ae0892d098d82a3c&#45;&gt;dir_f79aa91d151ccd05d66e8fd20c96b5c9 -->
<g id="edge23" class="edge">
<title>dir_c8c3c9a4437e07b1ae0892d098d82a3c&#45;&gt;dir_f79aa91d151ccd05d66e8fd20c96b5c9</title>
<path fill="none" stroke="black" d="M113.61,-159.7C109.24,-151.64 103.94,-141.89 99.1,-132.98"/>
<polygon fill="black" stroke="black" points="102.13,-131.22 94.29,-124.1 95.98,-134.56 102.13,-131.22"/>
<g id="a_edge23&#45;headlabel"><a xlink:href="dir_000006_000010.html" target="_top" xlink:title="3">
<text text-anchor="middle" x="106.34" y="-130.53" font-family="Helvetica,sans-Serif" font-size="10.00">3</text>
</a>
</g>
</g>
<!-- dir_d4ada3be3cf0417758450d654a32218e&#45;&gt;dir_bb69ec456759f21295a9444e150033a6 -->
<g id="edge8" class="edge">
<title>dir_d4ada3be3cf0417758450d654a32218e&#45;&gt;dir_bb69ec456759f21295a9444e150033a6</title>
<path fill="none" stroke="black" d="M215.39,-231.61C212.65,-202.08 206.9,-140.27 202,-88 201.22,-79.68 200.37,-70.63 199.59,-62.4"/>
<polygon fill="black" stroke="black" points="203.05,-61.81 198.63,-52.19 196.08,-62.47 203.05,-61.81"/>
<g id="a_edge8&#45;headlabel"><a xlink:href="dir_000004_000003.html" target="_top" xlink:title="12">
<text text-anchor="middle" x="206.22" y="-62.62" font-family="Helvetica,sans-Serif" font-size="10.00">12</text>
</a>
</g>
</g>
<!-- dir_fa7fd7bf69357dece0c85b99bdf728f8 -->
<g id="node8" class="node">
<title>dir_fa7fd7bf69357dece0c85b99bdf728f8</title>
<g id="a_node8"><a xlink:href="dir_fa7fd7bf69357dece0c85b99bdf728f8.html" target="_top" xlink:title="constant">
<polygon fill="none" stroke="black" points="122.5,-52 63.5,-52 63.5,-16 122.5,-16 122.5,-52"/>
<text text-anchor="middle" x="93" y="-31.5" font-family="Helvetica,sans-Serif" font-size="10.00">constant</text>
</a>
</g>
</g>
<!-- dir_d4ada3be3cf0417758450d654a32218e&#45;&gt;dir_fa7fd7bf69357dece0c85b99bdf728f8 -->
<g id="edge9" class="edge">
<title>dir_d4ada3be3cf0417758450d654a32218e&#45;&gt;dir_fa7fd7bf69357dece0c85b99bdf728f8</title>
<path fill="none" stroke="black" d="M210.95,-231.63C199.88,-201.08 174.48,-136.39 142,-88 135.37,-78.12 126.92,-68.28 118.91,-59.81"/>
<polygon fill="black" stroke="black" points="121.23,-57.17 111.74,-52.45 116.21,-62.06 121.23,-57.17"/>
<g id="a_edge9&#45;headlabel"><a xlink:href="dir_000004_000008.html" target="_top" xlink:title="5">
<text text-anchor="middle" x="125.77" y="-55.27" font-family="Helvetica,sans-Serif" font-size="10.00">5</text>
</a>
</g>
</g>
<!-- dir_f30ada7b744033f76dae4428084f7af5&#45;&gt;dir_bb69ec456759f21295a9444e150033a6 -->
<g id="edge1" class="edge">
<title>dir_f30ada7b744033f76dae4428084f7af5&#45;&gt;dir_bb69ec456759f21295a9444e150033a6</title>
<path fill="none" stroke="black" d="M71.67,-231.88C72.02,-213.14 74.69,-182.74 87,-160 98.23,-139.26 109.93,-141.27 126,-124 144.98,-103.61 164.58,-78.69 178.36,-60.42"/>
<polygon fill="black" stroke="black" points="181.45,-62.13 184.64,-52.03 175.85,-57.94 181.45,-62.13"/>
<g id="a_edge1&#45;headlabel"><a xlink:href="dir_000011_000003.html" target="_top" xlink:title="3">
<text text-anchor="middle" x="181.57" y="-64.21" font-family="Helvetica,sans-Serif" font-size="10.00">3</text>
</a>
</g>
</g>
<!-- dir_f30ada7b744033f76dae4428084f7af5&#45;&gt;dir_c8c3c9a4437e07b1ae0892d098d82a3c -->
<g id="edge2" class="edge">
<title>dir_f30ada7b744033f76dae4428084f7af5&#45;&gt;dir_c8c3c9a4437e07b1ae0892d098d82a3c</title>
<path fill="none" stroke="black" d="M84.61,-231.7C90.6,-223.47 97.88,-213.48 104.48,-204.42"/>
<polygon fill="black" stroke="black" points="107.48,-206.25 110.54,-196.1 101.82,-202.13 107.48,-206.25"/>
<g id="a_edge2&#45;headlabel"><a xlink:href="dir_000011_000006.html" target="_top" xlink:title="2">
<text text-anchor="middle" x="107.66" y="-208.32" font-family="Helvetica,sans-Serif" font-size="10.00">2</text>
</a>
</g>
</g>
<!-- dir_f30ada7b744033f76dae4428084f7af5&#45;&gt;dir_f79aa91d151ccd05d66e8fd20c96b5c9 -->
<g id="edge3" class="edge">
<title>dir_f30ada7b744033f76dae4428084f7af5&#45;&gt;dir_f79aa91d151ccd05d66e8fd20c96b5c9</title>
<path fill="none" stroke="black" d="M70.79,-231.86C69.79,-213.89 69,-184.85 72,-160 73.02,-151.53 74.93,-142.47 76.98,-134.28"/>
<polygon fill="black" stroke="black" points="80.4,-135.03 79.59,-124.47 73.64,-133.23 80.4,-135.03"/>
<g id="a_edge3&#45;headlabel"><a xlink:href="dir_000011_000010.html" target="_top" xlink:title="3">
<text text-anchor="middle" x="82.22" y="-136.74" font-family="Helvetica,sans-Serif" font-size="10.00">3</text>
</a>
</g>
</g>
<!-- dir_f30ada7b744033f76dae4428084f7af5&#45;&gt;dir_fa7fd7bf69357dece0c85b99bdf728f8 -->
<g id="edge4" class="edge">
<title>dir_f30ada7b744033f76dae4428084f7af5&#45;&gt;dir_fa7fd7bf69357dece0c85b99bdf728f8</title>
<path fill="none" stroke="black" d="M63.01,-231.94C48.43,-201.87 23.18,-137.89 43,-88 47.29,-77.2 54.94,-67.32 62.99,-59.1"/>
<polygon fill="black" stroke="black" points="65.58,-61.47 70.4,-52.04 60.75,-56.4 65.58,-61.47"/>
<g id="a_edge4&#45;headlabel"><a xlink:href="dir_000011_000008.html" target="_top" xlink:title="1">
<text text-anchor="middle" x="64.93" y="-63.5" font-family="Helvetica,sans-Serif" font-size="10.00">1</text>
</a>
</g>
</g>
<!-- dir_f79aa91d151ccd05d66e8fd20c96b5c9&#45;&gt;dir_bb69ec456759f21295a9444e150033a6 -->
<g id="edge19" class="edge">
<title>dir_f79aa91d151ccd05d66e8fd20c96b5c9&#45;&gt;dir_bb69ec456759f21295a9444e150033a6</title>
<path fill="none" stroke="black" d="M112.4,-87.88C127.15,-78.66 145.53,-67.17 161.38,-57.26"/>
<polygon fill="black" stroke="black" points="163.26,-60.22 169.88,-51.95 159.55,-54.28 163.26,-60.22"/>
<g id="a_edge19&#45;headlabel"><a xlink:href="dir_000010_000003.html" target="_top" xlink:title="3">
<text text-anchor="middle" x="161.72" y="-62.03" font-family="Helvetica,sans-Serif" font-size="10.00">3</text>
</a>
</g>
</g>
<!-- dir_f79aa91d151ccd05d66e8fd20c96b5c9&#45;&gt;dir_fa7fd7bf69357dece0c85b99bdf728f8 -->
<g id="edge20" class="edge">
<title>dir_f79aa91d151ccd05d66e8fd20c96b5c9&#45;&gt;dir_fa7fd7bf69357dece0c85b99bdf728f8</title>
<path fill="none" stroke="black" d="M86.98,-87.7C87.86,-79.98 88.92,-70.71 89.9,-62.11"/>
<polygon fill="black" stroke="black" points="93.39,-62.44 91.05,-52.1 86.43,-61.64 93.39,-62.44"/>
<g id="a_edge20&#45;headlabel"><a xlink:href="dir_000010_000008.html" target="_top" xlink:title="1">
<text text-anchor="middle" x="95.8" y="-63.83" font-family="Helvetica,sans-Serif" font-size="10.00">1</text>
</a>
</g>
</g>
<!-- dir_fc0b6fe8fa7363834f3a0d558455b58c -->
<g id="node9" class="node">
<title>dir_fc0b6fe8fa7363834f3a0d558455b58c</title>
<text text-anchor="middle" x="195" y="-391.5" font-family="Helvetica,sans-Serif" font-size="10.00">spatial</text>
</g>
<!-- dir_fc0b6fe8fa7363834f3a0d558455b58c&#45;&gt;dir_28c05fa16227e673b78ef39be9409f7d -->
<g id="edge12" class="edge">
<title>dir_fc0b6fe8fa7363834f3a0d558455b58c&#45;&gt;dir_28c05fa16227e673b78ef39be9409f7d</title>
<path fill="none" stroke="black" d="M205.88,-375.7C210.99,-367.56 217.2,-357.69 222.84,-348.7"/>
<polygon fill="black" stroke="black" points="225.89,-350.43 228.25,-340.1 219.96,-346.71 225.89,-350.43"/>
<g id="a_edge12&#45;headlabel"><a xlink:href="dir_000013_000020.html" target="_top" xlink:title="1">
<text text-anchor="middle" x="226.38" y="-352.49" font-family="Helvetica,sans-Serif" font-size="10.00">1</text>
</a>
</g>
</g>
<!-- dir_fc0b6fe8fa7363834f3a0d558455b58c&#45;&gt;dir_bb69ec456759f21295a9444e150033a6 -->
<g id="edge13" class="edge">
<title>dir_fc0b6fe8fa7363834f3a0d558455b58c&#45;&gt;dir_bb69ec456759f21295a9444e150033a6</title>
<path fill="none" stroke="black" d="M222.4,-383.17C241.57,-374.78 266,-360.75 279,-340 300.14,-306.27 289,-290.8 289,-251 289,-251 289,-251 289,-177 289,-129.47 252.25,-85.3 225.21,-59.23"/>
<polygon fill="black" stroke="black" points="227.57,-56.65 217.88,-52.37 222.79,-61.76 227.57,-56.65"/>
<g id="a_edge13&#45;headlabel"><a xlink:href="dir_000013_000003.html" target="_top" xlink:title="1">
<text text-anchor="middle" x="232.13" y="-54.53" font-family="Helvetica,sans-Serif" font-size="10.00">1</text>
</a>
</g>
</g>
<!-- dir_fc0b6fe8fa7363834f3a0d558455b58c&#45;&gt;dir_d4ada3be3cf0417758450d654a32218e -->
<g id="edge14" class="edge">
<title>dir_fc0b6fe8fa7363834f3a0d558455b58c&#45;&gt;dir_d4ada3be3cf0417758450d654a32218e</title>
<path fill="none" stroke="black" d="M194.35,-375.77C193.99,-357.72 194.36,-328.62 199,-304 200.64,-295.31 203.38,-286.1 206.25,-277.84"/>
<polygon fill="black" stroke="black" points="209.58,-278.93 209.73,-268.33 203,-276.52 209.58,-278.93"/>
<g id="a_edge14&#45;headlabel"><a xlink:href="dir_000013_000004.html" target="_top" xlink:title="4">
<text text-anchor="middle" x="211.01" y="-280.78" font-family="Helvetica,sans-Serif" font-size="10.00">4</text>
</a>
</g>
</g>
<!-- dir_fc0b6fe8fa7363834f3a0d558455b58c&#45;&gt;dir_fa7fd7bf69357dece0c85b99bdf728f8 -->
<g id="edge15" class="edge">
<title>dir_fc0b6fe8fa7363834f3a0d558455b58c&#45;&gt;dir_fa7fd7bf69357dece0c85b99bdf728f8</title>
<path fill="none" stroke="black" d="M192.99,-375.79C187.44,-329.08 171.47,-200.7 159,-160 153.82,-143.08 149.37,-140.09 142,-124 134.71,-108.08 134.2,-103.47 126,-88 121.23,-79 115.51,-69.46 110.19,-61"/>
<polygon fill="black" stroke="black" points="112.96,-58.84 104.63,-52.31 107.07,-62.62 112.96,-58.84"/>
<g id="a_edge15&#45;headlabel"><a xlink:href="dir_000013_000008.html" target="_top" xlink:title="1">
<text text-anchor="middle" x="117.29" y="-57.84" font-family="Helvetica,sans-Serif" font-size="10.00">1</text>
</a>
</g>
</g>
<!-- dir_057eabca0cce5968d6785b9d2369978a -->
<g id="node10" class="node">
<title>dir_057eabca0cce5968d6785b9d2369978a</title>
<g id="a_node10"><a xlink:href="dir_057eabca0cce5968d6785b9d2369978a.html" target="_top" xlink:title="dg">
<polygon fill="white" stroke="black" points="150,-412 96,-412 96,-376 150,-376 150,-412"/>
<text text-anchor="middle" x="123" y="-391.5" font-family="Helvetica,sans-Serif" font-size="10.00">dg</text>
</a>
</g>
</g>
<!-- dir_057eabca0cce5968d6785b9d2369978a&#45;&gt;dir_3eb17f3a1b5a40a6fbee1ab72e64eb0a -->
<g id="edge10" class="edge">
<title>dir_057eabca0cce5968d6785b9d2369978a&#45;&gt;dir_3eb17f3a1b5a40a6fbee1ab72e64eb0a</title>
<path fill="none" stroke="black" d="M123,-375.7C123,-367.98 123,-358.71 123,-350.11"/>
<polygon fill="black" stroke="black" points="126.5,-350.1 123,-340.1 119.5,-350.1 126.5,-350.1"/>
<g id="a_edge10&#45;headlabel"><a xlink:href="dir_000014_000016.html" target="_top" xlink:title="1">
<text text-anchor="middle" x="129.34" y="-351.2" font-family="Helvetica,sans-Serif" font-size="10.00">1</text>
</a>
</g>
</g>
<!-- dir_057eabca0cce5968d6785b9d2369978a&#45;&gt;dir_f30ada7b744033f76dae4428084f7af5 -->
<g id="edge11" class="edge">
<title>dir_057eabca0cce5968d6785b9d2369978a&#45;&gt;dir_f30ada7b744033f76dae4428084f7af5</title>
<path fill="none" stroke="black" d="M108.62,-375.94C101.02,-366.05 92.22,-353.01 87,-340 79.08,-320.28 75.34,-296.48 73.58,-278.45"/>
<polygon fill="black" stroke="black" points="77.05,-277.99 72.73,-268.32 70.08,-278.58 77.05,-277.99"/>
<g id="a_edge11&#45;headlabel"><a xlink:href="dir_000014_000011.html" target="_top" xlink:title="2">
<text text-anchor="middle" x="80.18" y="-278.84" font-family="Helvetica,sans-Serif" font-size="10.00">2</text>
</a>
</g>
</g>
<!-- dir_5bafb79f7b9af0cc872d988adb406c78 -->
<g id="node11" class="node">
<title>dir_5bafb79f7b9af0cc872d988adb406c78</title>
<g id="a_node11"><a xlink:href="dir_5bafb79f7b9af0cc872d988adb406c78.html" target="_top" xlink:title="fr">
<polygon fill="white" stroke="black" points="78,-412 24,-412 24,-376 78,-376 78,-412"/>
<text text-anchor="middle" x="51" y="-391.5" font-family="Helvetica,sans-Serif" font-size="10.00">fr</text>
</a>
</g>
</g>
<!-- dir_5bafb79f7b9af0cc872d988adb406c78&#45;&gt;dir_c8c3c9a4437e07b1ae0892d098d82a3c -->
<g id="edge16" class="edge">
<title>dir_5bafb79f7b9af0cc872d988adb406c78&#45;&gt;dir_c8c3c9a4437e07b1ae0892d098d82a3c</title>
<path fill="none" stroke="black" d="M56.24,-375.91C62.27,-357.46 73.15,-327.57 87,-304 97.41,-286.29 108.41,-287.09 116,-268 123.81,-248.35 125.28,-224.36 124.96,-206.24"/>
<polygon fill="black" stroke="black" points="128.45,-205.93 124.58,-196.07 121.45,-206.19 128.45,-205.93"/>
<g id="a_edge16&#45;headlabel"><a xlink:href="dir_000015_000006.html" target="_top" xlink:title="2">
<text text-anchor="middle" x="131.42" y="-206.92" font-family="Helvetica,sans-Serif" font-size="10.00">2</text>
</a>
</g>
</g>
<!-- dir_5bafb79f7b9af0cc872d988adb406c78&#45;&gt;dir_f30ada7b744033f76dae4428084f7af5 -->
<g id="edge17" class="edge">
<title>dir_5bafb79f7b9af0cc872d988adb406c78&#45;&gt;dir_f30ada7b744033f76dae4428084f7af5</title>
<path fill="none" stroke="black" d="M49.43,-375.76C48.2,-357.71 47.37,-328.6 52,-304 53.66,-295.2 56.66,-285.97 59.85,-277.71"/>
<polygon fill="black" stroke="black" points="63.18,-278.8 63.75,-268.22 56.71,-276.14 63.18,-278.8"/>
<g id="a_edge17&#45;headlabel"><a xlink:href="dir_000015_000011.html" target="_top" xlink:title="3">
<text text-anchor="middle" x="64.44" y="-280.71" font-family="Helvetica,sans-Serif" font-size="10.00">3</text>
</a>
</g>
</g>
<!-- dir_5bafb79f7b9af0cc872d988adb406c78&#45;&gt;dir_f79aa91d151ccd05d66e8fd20c96b5c9 -->
<g id="edge18" class="edge">
<title>dir_5bafb79f7b9af0cc872d988adb406c78&#45;&gt;dir_f79aa91d151ccd05d66e8fd20c96b5c9</title>
<path fill="none" stroke="black" d="M44.4,-375.94C33.86,-346.39 15.55,-283.88 27,-232 35,-195.75 54.61,-157.52 68.82,-133.03"/>
<polygon fill="black" stroke="black" points="71.88,-134.73 73.96,-124.34 65.86,-131.16 71.88,-134.73"/>
<g id="a_edge18&#45;headlabel"><a xlink:href="dir_000015_000010.html" target="_top" xlink:title="1">
<text text-anchor="middle" x="72.49" y="-136.77" font-family="Helvetica,sans-Serif" font-size="10.00">1</text>
</a>
</g>
</g>
</g>
</svg>
