<?xml version="1.0" encoding="UTF-8" standalone="no"?>
<!DOCTYPE svg PUBLIC "-//W3C//DTD SVG 1.1//EN"
 "http://www.w3.org/Graphics/SVG/1.1/DTD/svg11.dtd">
<!-- Generated by graphviz version 2.43.0 (0)
 -->
<!-- Title: include/mini/geometry Pages: 1 -->
<svg width="104pt" height="167pt"
 viewBox="0.00 0.00 104.00 167.00" xmlns="http://www.w3.org/2000/svg" xmlns:xlink="http://www.w3.org/1999/xlink">
<g id="graph0" class="graph" transform="scale(1 1) rotate(0) translate(4 163)">
<title>include/mini/geometry</title>
<polygon fill="white" stroke="transparent" points="-4,4 -4,-163 100,-163 100,4 -4,4"/>
<g id="clust1" class="cluster">
<title>clusterdir_52c4e261fccb9ba9630288b59582e709</title>
<g id="a_clust1"><a xlink:href="dir_52c4e261fccb9ba9630288b59582e709.html" target="_top" xlink:title="mini">
<polygon fill="#ddddee" stroke="black" points="8,-8 8,-151 88,-151 88,-8 8,-8"/>
<text text-anchor="middle" x="48" y="-139" font-family="Helvetica,sans-Serif" font-size="10.00">mini</text>
</a>
</g>
</g>
<!-- dir_bb69ec456759f21295a9444e150033a6 -->
<g id="node1" class="node">
<title>dir_bb69ec456759f21295a9444e150033a6</title>
<g id="a_node1"><a xlink:href="dir_bb69ec456759f21295a9444e150033a6.html" target="_top" xlink:title="algebra">
<polygon fill="none" stroke="black" points="75,-52 21,-52 21,-16 75,-16 75,-52"/>
<text text-anchor="middle" x="48" y="-31.5" font-family="Helvetica,sans-Serif" font-size="10.00">algebra</text>
</a>
</g>
</g>
<!-- dir_90514e4c6cb1184f77f58f9d9324bf36 -->
<g id="node2" class="node">
<title>dir_90514e4c6cb1184f77f58f9d9324bf36</title>
<g id="a_node2"><a xlink:href="dir_90514e4c6cb1184f77f58f9d9324bf36.html" target="_top" xlink:title="geometry">
<polygon fill="#eeeeff" stroke="black" points="80,-124 16,-124 16,-88 80,-88 80,-124"/>
<text text-anchor="middle" x="48" y="-103.5" font-family="Helvetica,sans-Serif" font-size="10.00">geometry</text>
</a>
</g>
</g>
<!-- dir_90514e4c6cb1184f77f58f9d9324bf36&#45;&gt;dir_bb69ec456759f21295a9444e150033a6 -->
<g id="edge1" class="edge">
<title>dir_90514e4c6cb1184f77f58f9d9324bf36&#45;&gt;dir_bb69ec456759f21295a9444e150033a6</title>
<path fill="none" stroke="black" d="M48,-87.7C48,-79.98 48,-70.71 48,-62.11"/>
<polygon fill="black" stroke="black" points="51.5,-62.1 48,-52.1 44.5,-62.1 51.5,-62.1"/>
<g id="a_edge1&#45;headlabel"><a xlink:href="dir_000012_000003.html" target="_top" xlink:title="3">
<text text-anchor="middle" x="54.34" y="-63.2" font-family="Helvetica,sans-Serif" font-size="10.00">3</text>
</a>
</g>
</g>
</g>
</svg>
