<?xml version="1.0" encoding="UTF-8" standalone="no"?>
<!DOCTYPE svg PUBLIC "-//W3C//DTD SVG 1.1//EN"
 "http://www.w3.org/Graphics/SVG/1.1/DTD/svg11.dtd">
<!-- Generated by graphviz version 2.43.0 (0)
 -->
<!-- Title: include/mini/riemann/rotated Pages: 1 -->
<svg width="348pt" height="223pt"
 viewBox="0.00 0.00 347.50 223.00" xmlns="http://www.w3.org/2000/svg" xmlns:xlink="http://www.w3.org/1999/xlink">
<g id="graph0" class="graph" transform="scale(1 1) rotate(0) translate(4 219)">
<title>include/mini/riemann/rotated</title>
<polygon fill="white" stroke="transparent" points="-4,4 -4,-219 343.5,-219 343.5,4 -4,4"/>
<g id="clust1" class="cluster">
<title>clusterdir_d4ada3be3cf0417758450d654a32218e</title>
<g id="a_clust1"><a xlink:href="dir_d4ada3be3cf0417758450d654a32218e.html" target="_top" xlink:title="riemann">
<polygon fill="#ddddee" stroke="black" points="8,-64 8,-207 150,-207 150,-64 8,-64"/>
<text text-anchor="middle" x="79" y="-195" font-family="Helvetica,sans-Serif" font-size="10.00">riemann</text>
</a>
</g>
</g>
<!-- dir_265509d7be65d46bbb6d92d45e979dd2 -->
<g id="node1" class="node">
<title>dir_265509d7be65d46bbb6d92d45e979dd2</title>
<g id="a_node1"><a xlink:href="dir_265509d7be65d46bbb6d92d45e979dd2.html" target="_top" xlink:title="euler">
<polygon fill="none" stroke="black" points="70,-108 16,-108 16,-72 70,-72 70,-108"/>
<text text-anchor="middle" x="43" y="-87.5" font-family="Helvetica,sans-Serif" font-size="10.00">euler</text>
</a>
</g>
</g>
<!-- dir_bb69ec456759f21295a9444e150033a6 -->
<g id="node5" class="node">
<title>dir_bb69ec456759f21295a9444e150033a6</title>
<g id="a_node5"><a xlink:href="dir_bb69ec456759f21295a9444e150033a6.html" target="_top" xlink:title="algebra">
<polygon fill="none" stroke="black" points="180,-36 126,-36 126,0 180,0 180,-36"/>
<text text-anchor="middle" x="153" y="-15.5" font-family="Helvetica,sans-Serif" font-size="10.00">algebra</text>
</a>
</g>
</g>
<!-- dir_265509d7be65d46bbb6d92d45e979dd2&#45;&gt;dir_bb69ec456759f21295a9444e150033a6 -->
<g id="edge3" class="edge">
<title>dir_265509d7be65d46bbb6d92d45e979dd2&#45;&gt;dir_bb69ec456759f21295a9444e150033a6</title>
<path fill="none" stroke="black" d="M67.26,-71.85C71.16,-69.19 75.17,-66.49 79,-64 91.27,-56.02 104.91,-47.6 117.11,-40.23"/>
<polygon fill="black" stroke="black" points="118.92,-43.22 125.69,-35.07 115.32,-37.22 118.92,-43.22"/>
<g id="a_edge3&#45;headlabel"><a xlink:href="dir_000005_000003.html" target="_top" xlink:title="2">
<text text-anchor="middle" x="117.31" y="-45.01" font-family="Helvetica,sans-Serif" font-size="10.00">2</text>
</a>
</g>
</g>
<!-- dir_ee0d81d17814e7122286078165dcfe80 -->
<g id="node2" class="node">
<title>dir_ee0d81d17814e7122286078165dcfe80</title>
<g id="a_node2"><a xlink:href="dir_ee0d81d17814e7122286078165dcfe80.html" target="_top" xlink:title="simple">
<polygon fill="none" stroke="black" points="142,-108 88,-108 88,-72 142,-72 142,-108"/>
<text text-anchor="middle" x="115" y="-87.5" font-family="Helvetica,sans-Serif" font-size="10.00">simple</text>
</a>
</g>
</g>
<!-- dir_ee0d81d17814e7122286078165dcfe80&#45;&gt;dir_bb69ec456759f21295a9444e150033a6 -->
<g id="edge1" class="edge">
<title>dir_ee0d81d17814e7122286078165dcfe80&#45;&gt;dir_bb69ec456759f21295a9444e150033a6</title>
<path fill="none" stroke="black" d="M124.39,-71.7C128.76,-63.64 134.06,-53.89 138.9,-44.98"/>
<polygon fill="black" stroke="black" points="142.02,-46.56 143.71,-36.1 135.87,-43.22 142.02,-46.56"/>
<g id="a_edge1&#45;headlabel"><a xlink:href="dir_000019_000003.html" target="_top" xlink:title="4">
<text text-anchor="middle" x="142.8" y="-48.58" font-family="Helvetica,sans-Serif" font-size="10.00">4</text>
</a>
</g>
</g>
<!-- dir_7eca9c5c36b7bb4b5a83c3eea0f24fd0 -->
<g id="node3" class="node">
<title>dir_7eca9c5c36b7bb4b5a83c3eea0f24fd0</title>
<g id="a_node3"><a xlink:href="dir_7eca9c5c36b7bb4b5a83c3eea0f24fd0.html" target="_top" xlink:title="rotated">
<polygon fill="#eeeeff" stroke="black" points="142,-180 88,-180 88,-144 142,-144 142,-180"/>
<text text-anchor="middle" x="115" y="-159.5" font-family="Helvetica,sans-Serif" font-size="10.00">rotated</text>
</a>
</g>
</g>
<!-- dir_7eca9c5c36b7bb4b5a83c3eea0f24fd0&#45;&gt;dir_265509d7be65d46bbb6d92d45e979dd2 -->
<g id="edge4" class="edge">
<title>dir_7eca9c5c36b7bb4b5a83c3eea0f24fd0&#45;&gt;dir_265509d7be65d46bbb6d92d45e979dd2</title>
<path fill="none" stroke="black" d="M97.2,-143.7C88.4,-135.14 77.62,-124.66 68,-115.3"/>
<polygon fill="black" stroke="black" points="70.2,-112.57 60.59,-108.1 65.32,-117.58 70.2,-112.57"/>
<g id="a_edge4&#45;headlabel"><a xlink:href="dir_000018_000005.html" target="_top" xlink:title="1">
<text text-anchor="middle" x="74.76" y="-110.54" font-family="Helvetica,sans-Serif" font-size="10.00">1</text>
</a>
</g>
</g>
<!-- dir_7eca9c5c36b7bb4b5a83c3eea0f24fd0&#45;&gt;dir_ee0d81d17814e7122286078165dcfe80 -->
<g id="edge7" class="edge">
<title>dir_7eca9c5c36b7bb4b5a83c3eea0f24fd0&#45;&gt;dir_ee0d81d17814e7122286078165dcfe80</title>
<path fill="none" stroke="black" d="M115,-143.7C115,-135.98 115,-126.71 115,-118.11"/>
<polygon fill="black" stroke="black" points="118.5,-118.1 115,-108.1 111.5,-118.1 118.5,-118.1"/>
<g id="a_edge7&#45;headlabel"><a xlink:href="dir_000018_000019.html" target="_top" xlink:title="4">
<text text-anchor="middle" x="121.34" y="-119.2" font-family="Helvetica,sans-Serif" font-size="10.00">4</text>
</a>
</g>
</g>
<!-- dir_90514e4c6cb1184f77f58f9d9324bf36 -->
<g id="node4" class="node">
<title>dir_90514e4c6cb1184f77f58f9d9324bf36</title>
<g id="a_node4"><a xlink:href="dir_90514e4c6cb1184f77f58f9d9324bf36.html" target="_top" xlink:title="geometry">
<polygon fill="none" stroke="black" points="224,-108 160,-108 160,-72 224,-72 224,-108"/>
<text text-anchor="middle" x="192" y="-87.5" font-family="Helvetica,sans-Serif" font-size="10.00">geometry</text>
</a>
</g>
</g>
<!-- dir_7eca9c5c36b7bb4b5a83c3eea0f24fd0&#45;&gt;dir_90514e4c6cb1184f77f58f9d9324bf36 -->
<g id="edge5" class="edge">
<title>dir_7eca9c5c36b7bb4b5a83c3eea0f24fd0&#45;&gt;dir_90514e4c6cb1184f77f58f9d9324bf36</title>
<path fill="none" stroke="black" d="M134.03,-143.7C143.54,-135.05 155.21,-124.45 165.57,-115.03"/>
<polygon fill="black" stroke="black" points="168.14,-117.42 173.19,-108.1 163.43,-112.24 168.14,-117.42"/>
<g id="a_edge5&#45;headlabel"><a xlink:href="dir_000018_000012.html" target="_top" xlink:title="1">
<text text-anchor="middle" x="167.39" y="-119.44" font-family="Helvetica,sans-Serif" font-size="10.00">1</text>
</a>
</g>
</g>
<!-- dir_7eca9c5c36b7bb4b5a83c3eea0f24fd0&#45;&gt;dir_bb69ec456759f21295a9444e150033a6 -->
<g id="edge6" class="edge">
<title>dir_7eca9c5c36b7bb4b5a83c3eea0f24fd0&#45;&gt;dir_bb69ec456759f21295a9444e150033a6</title>
<path fill="none" stroke="black" d="M142.01,-157.37C170.19,-151.98 212.99,-138.92 233,-108 243.62,-91.58 242.87,-80.88 233,-64 223.52,-47.79 205.81,-36.96 189.46,-30"/>
<polygon fill="black" stroke="black" points="190.65,-26.71 180.06,-26.34 188.11,-33.23 190.65,-26.71"/>
<g id="a_edge6&#45;headlabel"><a xlink:href="dir_000018_000003.html" target="_top" xlink:title="3">
<text text-anchor="middle" x="195.03" y="-22.87" font-family="Helvetica,sans-Serif" font-size="10.00">3</text>
</a>
</g>
</g>
<!-- dir_fa7fd7bf69357dece0c85b99bdf728f8 -->
<g id="node6" class="node">
<title>dir_fa7fd7bf69357dece0c85b99bdf728f8</title>
<g id="a_node6"><a xlink:href="dir_fa7fd7bf69357dece0c85b99bdf728f8.html" target="_top" xlink:title="constant">
<polygon fill="none" stroke="black" points="339.5,-108 280.5,-108 280.5,-72 339.5,-72 339.5,-108"/>
<text text-anchor="middle" x="310" y="-87.5" font-family="Helvetica,sans-Serif" font-size="10.00">constant</text>
</a>
</g>
</g>
<!-- dir_7eca9c5c36b7bb4b5a83c3eea0f24fd0&#45;&gt;dir_fa7fd7bf69357dece0c85b99bdf728f8 -->
<g id="edge8" class="edge">
<title>dir_7eca9c5c36b7bb4b5a83c3eea0f24fd0&#45;&gt;dir_fa7fd7bf69357dece0c85b99bdf728f8</title>
<path fill="none" stroke="black" d="M142.1,-151.77C172.39,-141.39 222.86,-123.9 266,-108 267.58,-107.42 269.2,-106.82 270.83,-106.21"/>
<polygon fill="black" stroke="black" points="272.11,-109.46 280.23,-102.65 269.63,-102.92 272.11,-109.46"/>
<g id="a_edge8&#45;headlabel"><a xlink:href="dir_000018_000008.html" target="_top" xlink:title="2">
<text text-anchor="middle" x="269.76" y="-110.89" font-family="Helvetica,sans-Serif" font-size="10.00">2</text>
</a>
</g>
</g>
<!-- dir_90514e4c6cb1184f77f58f9d9324bf36&#45;&gt;dir_bb69ec456759f21295a9444e150033a6 -->
<g id="edge2" class="edge">
<title>dir_90514e4c6cb1184f77f58f9d9324bf36&#45;&gt;dir_bb69ec456759f21295a9444e150033a6</title>
<path fill="none" stroke="black" d="M182.36,-71.7C177.87,-63.64 172.44,-53.89 167.48,-44.98"/>
<polygon fill="black" stroke="black" points="170.45,-43.14 162.53,-36.1 164.34,-46.54 170.45,-43.14"/>
<g id="a_edge2&#45;headlabel"><a xlink:href="dir_000012_000003.html" target="_top" xlink:title="3">
<text text-anchor="middle" x="174.68" y="-42.39" font-family="Helvetica,sans-Serif" font-size="10.00">3</text>
</a>
</g>
</g>
</g>
</svg>
