<?xml version="1.0" encoding="UTF-8" standalone="no"?>
<!DOCTYPE svg PUBLIC "-//W3C//DTD SVG 1.1//EN"
 "http://www.w3.org/Graphics/SVG/1.1/DTD/svg11.dtd">
<!-- Generated by graphviz version 2.43.0 (0)
 -->
<!-- Title: include/mini/aircraft Pages: 1 -->
<svg width="228pt" height="311pt"
 viewBox="0.00 0.00 228.00 311.00" xmlns="http://www.w3.org/2000/svg" xmlns:xlink="http://www.w3.org/1999/xlink">
<g id="graph0" class="graph" transform="scale(1 1) rotate(0) translate(4 307)">
<title>include/mini/aircraft</title>
<polygon fill="white" stroke="transparent" points="-4,4 -4,-307 224,-307 224,4 -4,4"/>
<g id="clust1" class="cluster">
<title>clusterdir_52c4e261fccb9ba9630288b59582e709</title>
<g id="a_clust1"><a xlink:href="dir_52c4e261fccb9ba9630288b59582e709.html" target="_top" xlink:title="mini">
<polygon fill="#ddddee" stroke="black" points="8,-8 8,-295 212,-295 212,-8 8,-8"/>
<text text-anchor="middle" x="110" y="-283" font-family="Helvetica,sans-Serif" font-size="10.00">mini</text>
</a>
</g>
</g>
<!-- dir_90514e4c6cb1184f77f58f9d9324bf36 -->
<g id="node1" class="node">
<title>dir_90514e4c6cb1184f77f58f9d9324bf36</title>
<g id="a_node1"><a xlink:href="dir_90514e4c6cb1184f77f58f9d9324bf36.html" target="_top" xlink:title="geometry">
<polygon fill="none" stroke="black" points="80,-124 16,-124 16,-88 80,-88 80,-124"/>
<text text-anchor="middle" x="48" y="-103.5" font-family="Helvetica,sans-Serif" font-size="10.00">geometry</text>
</a>
</g>
</g>
<!-- dir_bb69ec456759f21295a9444e150033a6 -->
<g id="node2" class="node">
<title>dir_bb69ec456759f21295a9444e150033a6</title>
<g id="a_node2"><a xlink:href="dir_bb69ec456759f21295a9444e150033a6.html" target="_top" xlink:title="algebra">
<polygon fill="none" stroke="black" points="136,-52 82,-52 82,-16 136,-16 136,-52"/>
<text text-anchor="middle" x="109" y="-31.5" font-family="Helvetica,sans-Serif" font-size="10.00">algebra</text>
</a>
</g>
</g>
<!-- dir_90514e4c6cb1184f77f58f9d9324bf36&#45;&gt;dir_bb69ec456759f21295a9444e150033a6 -->
<g id="edge1" class="edge">
<title>dir_90514e4c6cb1184f77f58f9d9324bf36&#45;&gt;dir_bb69ec456759f21295a9444e150033a6</title>
<path fill="none" stroke="black" d="M63.08,-87.7C70.39,-79.3 79.31,-69.07 87.34,-59.86"/>
<polygon fill="black" stroke="black" points="90.16,-61.94 94.09,-52.1 84.89,-57.34 90.16,-61.94"/>
<g id="a_edge1&#45;headlabel"><a xlink:href="dir_000012_000003.html" target="_top" xlink:title="3">
<text text-anchor="middle" x="89.94" y="-64.02" font-family="Helvetica,sans-Serif" font-size="10.00">3</text>
</a>
</g>
</g>
<!-- dir_d4ada3be3cf0417758450d654a32218e -->
<g id="node3" class="node">
<title>dir_d4ada3be3cf0417758450d654a32218e</title>
<g id="a_node3"><a xlink:href="dir_d4ada3be3cf0417758450d654a32218e.html" target="_top" xlink:title="riemann">
<polygon fill="white" stroke="red" points="99.5,-196 42.5,-196 42.5,-160 99.5,-160 99.5,-196"/>
<text text-anchor="middle" x="71" y="-175.5" font-family="Helvetica,sans-Serif" font-size="10.00">riemann</text>
</a>
</g>
</g>
<!-- dir_d4ada3be3cf0417758450d654a32218e&#45;&gt;dir_90514e4c6cb1184f77f58f9d9324bf36 -->
<g id="edge3" class="edge">
<title>dir_d4ada3be3cf0417758450d654a32218e&#45;&gt;dir_90514e4c6cb1184f77f58f9d9324bf36</title>
<path fill="none" stroke="black" d="M65.31,-159.7C62.75,-151.9 59.67,-142.51 56.82,-133.83"/>
<polygon fill="black" stroke="black" points="60.07,-132.51 53.62,-124.1 53.42,-134.7 60.07,-132.51"/>
<g id="a_edge3&#45;headlabel"><a xlink:href="dir_000004_000012.html" target="_top" xlink:title="1">
<text text-anchor="middle" x="63.89" y="-132.54" font-family="Helvetica,sans-Serif" font-size="10.00">1</text>
</a>
</g>
</g>
<!-- dir_d4ada3be3cf0417758450d654a32218e&#45;&gt;dir_bb69ec456759f21295a9444e150033a6 -->
<g id="edge2" class="edge">
<title>dir_d4ada3be3cf0417758450d654a32218e&#45;&gt;dir_bb69ec456759f21295a9444e150033a6</title>
<path fill="none" stroke="black" d="M77.3,-159.96C80.99,-149.64 85.58,-136.16 89,-124 94.75,-103.55 99.97,-80.09 103.63,-62.39"/>
<polygon fill="black" stroke="black" points="107.14,-62.69 105.7,-52.2 100.28,-61.3 107.14,-62.69"/>
<g id="a_edge2&#45;headlabel"><a xlink:href="dir_000004_000003.html" target="_top" xlink:title="12">
<text text-anchor="middle" x="109.21" y="-64.28" font-family="Helvetica,sans-Serif" font-size="10.00">12</text>
</a>
</g>
</g>
<!-- dir_f79aa91d151ccd05d66e8fd20c96b5c9 -->
<g id="node4" class="node">
<title>dir_f79aa91d151ccd05d66e8fd20c96b5c9</title>
<g id="a_node4"><a xlink:href="dir_f79aa91d151ccd05d66e8fd20c96b5c9.html" target="_top" xlink:title="integrator">
<polygon fill="none" stroke="black" points="203.5,-124 138.5,-124 138.5,-88 203.5,-88 203.5,-124"/>
<text text-anchor="middle" x="171" y="-103.5" font-family="Helvetica,sans-Serif" font-size="10.00">integrator</text>
</a>
</g>
</g>
<!-- dir_f79aa91d151ccd05d66e8fd20c96b5c9&#45;&gt;dir_bb69ec456759f21295a9444e150033a6 -->
<g id="edge8" class="edge">
<title>dir_f79aa91d151ccd05d66e8fd20c96b5c9&#45;&gt;dir_bb69ec456759f21295a9444e150033a6</title>
<path fill="none" stroke="black" d="M155.67,-87.7C148.24,-79.3 139.18,-69.07 131.02,-59.86"/>
<polygon fill="black" stroke="black" points="133.4,-57.27 124.15,-52.1 128.16,-61.91 133.4,-57.27"/>
<g id="a_edge8&#45;headlabel"><a xlink:href="dir_000010_000003.html" target="_top" xlink:title="3">
<text text-anchor="middle" x="137.91" y="-55.58" font-family="Helvetica,sans-Serif" font-size="10.00">3</text>
</a>
</g>
</g>
<!-- dir_dfeb873596d4562771adae787035a975 -->
<g id="node5" class="node">
<title>dir_dfeb873596d4562771adae787035a975</title>
<g id="a_node5"><a xlink:href="dir_dfeb873596d4562771adae787035a975.html" target="_top" xlink:title="aircraft">
<polygon fill="#eeeeff" stroke="black" points="122,-268 68,-268 68,-232 122,-232 122,-268"/>
<text text-anchor="middle" x="95" y="-247.5" font-family="Helvetica,sans-Serif" font-size="10.00">aircraft</text>
</a>
</g>
</g>
<!-- dir_dfeb873596d4562771adae787035a975&#45;&gt;dir_90514e4c6cb1184f77f58f9d9324bf36 -->
<g id="edge4" class="edge">
<title>dir_dfeb873596d4562771adae787035a975&#45;&gt;dir_90514e4c6cb1184f77f58f9d9324bf36</title>
<path fill="none" stroke="black" d="M67.76,-233.54C54.65,-224.46 40.23,-211.69 33,-196 23.93,-176.31 29.04,-151.9 35.66,-133.63"/>
<polygon fill="black" stroke="black" points="38.98,-134.76 39.41,-124.18 32.47,-132.18 38.98,-134.76"/>
<g id="a_edge4&#45;headlabel"><a xlink:href="dir_000002_000012.html" target="_top" xlink:title="4">
<text text-anchor="middle" x="40.29" y="-136.65" font-family="Helvetica,sans-Serif" font-size="10.00">4</text>
</a>
</g>
</g>
<!-- dir_dfeb873596d4562771adae787035a975&#45;&gt;dir_bb69ec456759f21295a9444e150033a6 -->
<g id="edge5" class="edge">
<title>dir_dfeb873596d4562771adae787035a975&#45;&gt;dir_bb69ec456759f21295a9444e150033a6</title>
<path fill="none" stroke="black" d="M100.82,-231.56C103.93,-221.33 107.43,-208.08 109,-196 115.05,-149.38 113.15,-94.54 111.14,-62.39"/>
<polygon fill="black" stroke="black" points="114.6,-61.75 110.43,-52.01 107.62,-62.23 114.6,-61.75"/>
<g id="a_edge5&#45;headlabel"><a xlink:href="dir_000002_000003.html" target="_top" xlink:title="1">
<text text-anchor="middle" x="117.68" y="-62.65" font-family="Helvetica,sans-Serif" font-size="10.00">1</text>
</a>
</g>
</g>
<!-- dir_dfeb873596d4562771adae787035a975&#45;&gt;dir_d4ada3be3cf0417758450d654a32218e -->
<g id="edge6" class="edge">
<title>dir_dfeb873596d4562771adae787035a975&#45;&gt;dir_d4ada3be3cf0417758450d654a32218e</title>
<path fill="none" stroke="black" d="M89.07,-231.7C86.39,-223.9 83.17,-214.51 80.2,-205.83"/>
<polygon fill="black" stroke="black" points="83.42,-204.43 76.86,-196.1 76.8,-206.7 83.42,-204.43"/>
<g id="a_edge6&#45;headlabel"><a xlink:href="dir_000002_000004.html" target="_top" xlink:title="1">
<text text-anchor="middle" x="87.27" y="-204.41" font-family="Helvetica,sans-Serif" font-size="10.00">1</text>
</a>
</g>
</g>
<!-- dir_dfeb873596d4562771adae787035a975&#45;&gt;dir_f79aa91d151ccd05d66e8fd20c96b5c9 -->
<g id="edge7" class="edge">
<title>dir_dfeb873596d4562771adae787035a975&#45;&gt;dir_f79aa91d151ccd05d66e8fd20c96b5c9</title>
<path fill="none" stroke="black" d="M104.47,-231.85C110.17,-221.49 117.54,-208.01 124,-196 135.31,-174.96 147.94,-151.02 157.26,-133.27"/>
<polygon fill="black" stroke="black" points="160.52,-134.58 162.06,-124.1 154.32,-131.33 160.52,-134.58"/>
<g id="a_edge7&#45;headlabel"><a xlink:href="dir_000002_000010.html" target="_top" xlink:title="1">
<text text-anchor="middle" x="161.37" y="-136.59" font-family="Helvetica,sans-Serif" font-size="10.00">1</text>
</a>
</g>
</g>
</g>
</svg>
