<?xml version="1.0" encoding="UTF-8" standalone="no"?>
<!DOCTYPE svg PUBLIC "-//W3C//DTD SVG 1.1//EN"
 "http://www.w3.org/Graphics/SVG/1.1/DTD/svg11.dtd">
<!-- Generated by graphviz version 2.43.0 (0)
 -->
<!-- Title: include/mini/polynomial Pages: 1 -->
<svg width="208pt" height="383pt"
 viewBox="0.00 0.00 208.00 383.00" xmlns="http://www.w3.org/2000/svg" xmlns:xlink="http://www.w3.org/1999/xlink">
<g id="graph0" class="graph" transform="scale(1 1) rotate(0) translate(4 379)">
<title>include/mini/polynomial</title>
<polygon fill="white" stroke="transparent" points="-4,4 -4,-379 204,-379 204,4 -4,4"/>
<g id="clust1" class="cluster">
<title>clusterdir_52c4e261fccb9ba9630288b59582e709</title>
<g id="a_clust1"><a xlink:href="dir_52c4e261fccb9ba9630288b59582e709.html" target="_top" xlink:title="mini">
<polygon fill="#ddddee" stroke="black" points="8,-8 8,-367 192,-367 192,-8 8,-8"/>
<text text-anchor="middle" x="100" y="-355" font-family="Helvetica,sans-Serif" font-size="10.00">mini</text>
</a>
</g>
</g>
<!-- dir_8cc458dbcc0b32b454bc89428ebd057f -->
<g id="node1" class="node">
<title>dir_8cc458dbcc0b32b454bc89428ebd057f</title>
<g id="a_node1"><a xlink:href="dir_8cc458dbcc0b32b454bc89428ebd057f.html" target="_top" xlink:title="coordinate">
<polygon fill="none" stroke="black" points="164,-124 96,-124 96,-88 164,-88 164,-124"/>
<text text-anchor="middle" x="130" y="-103.5" font-family="Helvetica,sans-Serif" font-size="10.00">coordinate</text>
</a>
</g>
</g>
<!-- dir_bb69ec456759f21295a9444e150033a6 -->
<g id="node2" class="node">
<title>dir_bb69ec456759f21295a9444e150033a6</title>
<g id="a_node2"><a xlink:href="dir_bb69ec456759f21295a9444e150033a6.html" target="_top" xlink:title="algebra">
<polygon fill="none" stroke="black" points="76,-52 22,-52 22,-16 76,-16 76,-52"/>
<text text-anchor="middle" x="49" y="-31.5" font-family="Helvetica,sans-Serif" font-size="10.00">algebra</text>
</a>
</g>
</g>
<!-- dir_8cc458dbcc0b32b454bc89428ebd057f&#45;&gt;dir_bb69ec456759f21295a9444e150033a6 -->
<g id="edge6" class="edge">
<title>dir_8cc458dbcc0b32b454bc89428ebd057f&#45;&gt;dir_bb69ec456759f21295a9444e150033a6</title>
<path fill="none" stroke="black" d="M109.98,-87.7C99.87,-78.97 87.46,-68.24 76.48,-58.75"/>
<polygon fill="black" stroke="black" points="78.65,-55.99 68.79,-52.1 74.07,-61.29 78.65,-55.99"/>
<g id="a_edge6&#45;headlabel"><a xlink:href="dir_000009_000003.html" target="_top" xlink:title="2">
<text text-anchor="middle" x="83.22" y="-53.7" font-family="Helvetica,sans-Serif" font-size="10.00">2</text>
</a>
</g>
</g>
<!-- dir_fa7fd7bf69357dece0c85b99bdf728f8 -->
<g id="node5" class="node">
<title>dir_fa7fd7bf69357dece0c85b99bdf728f8</title>
<g id="a_node5"><a xlink:href="dir_fa7fd7bf69357dece0c85b99bdf728f8.html" target="_top" xlink:title="constant">
<polygon fill="none" stroke="black" points="159.5,-52 100.5,-52 100.5,-16 159.5,-16 159.5,-52"/>
<text text-anchor="middle" x="130" y="-31.5" font-family="Helvetica,sans-Serif" font-size="10.00">constant</text>
</a>
</g>
</g>
<!-- dir_8cc458dbcc0b32b454bc89428ebd057f&#45;&gt;dir_fa7fd7bf69357dece0c85b99bdf728f8 -->
<g id="edge7" class="edge">
<title>dir_8cc458dbcc0b32b454bc89428ebd057f&#45;&gt;dir_fa7fd7bf69357dece0c85b99bdf728f8</title>
<path fill="none" stroke="black" d="M130,-87.7C130,-79.98 130,-70.71 130,-62.11"/>
<polygon fill="black" stroke="black" points="133.5,-62.1 130,-52.1 126.5,-62.1 133.5,-62.1"/>
<g id="a_edge7&#45;headlabel"><a xlink:href="dir_000009_000008.html" target="_top" xlink:title="1">
<text text-anchor="middle" x="136.34" y="-63.2" font-family="Helvetica,sans-Serif" font-size="10.00">1</text>
</a>
</g>
</g>
<!-- dir_c8c3c9a4437e07b1ae0892d098d82a3c -->
<g id="node3" class="node">
<title>dir_c8c3c9a4437e07b1ae0892d098d82a3c</title>
<g id="a_node3"><a xlink:href="dir_c8c3c9a4437e07b1ae0892d098d82a3c.html" target="_top" xlink:title="basis">
<polygon fill="none" stroke="black" points="96,-268 42,-268 42,-232 96,-232 96,-268"/>
<text text-anchor="middle" x="69" y="-247.5" font-family="Helvetica,sans-Serif" font-size="10.00">basis</text>
</a>
</g>
</g>
<!-- dir_c8c3c9a4437e07b1ae0892d098d82a3c&#45;&gt;dir_bb69ec456759f21295a9444e150033a6 -->
<g id="edge11" class="edge">
<title>dir_c8c3c9a4437e07b1ae0892d098d82a3c&#45;&gt;dir_bb69ec456759f21295a9444e150033a6</title>
<path fill="none" stroke="black" d="M59.87,-231.88C54.99,-221.76 49.49,-208.51 47,-196 37.77,-149.7 41.59,-94.41 45.26,-62.15"/>
<polygon fill="black" stroke="black" points="48.74,-62.48 46.48,-52.13 41.79,-61.64 48.74,-62.48"/>
<g id="a_edge11&#45;headlabel"><a xlink:href="dir_000006_000003.html" target="_top" xlink:title="3">
<text text-anchor="middle" x="51.13" y="-63.9" font-family="Helvetica,sans-Serif" font-size="10.00">3</text>
</a>
</g>
</g>
<!-- dir_f79aa91d151ccd05d66e8fd20c96b5c9 -->
<g id="node4" class="node">
<title>dir_f79aa91d151ccd05d66e8fd20c96b5c9</title>
<g id="a_node4"><a xlink:href="dir_f79aa91d151ccd05d66e8fd20c96b5c9.html" target="_top" xlink:title="integrator">
<polygon fill="none" stroke="black" points="121.5,-196 56.5,-196 56.5,-160 121.5,-160 121.5,-196"/>
<text text-anchor="middle" x="89" y="-175.5" font-family="Helvetica,sans-Serif" font-size="10.00">integrator</text>
</a>
</g>
</g>
<!-- dir_c8c3c9a4437e07b1ae0892d098d82a3c&#45;&gt;dir_f79aa91d151ccd05d66e8fd20c96b5c9 -->
<g id="edge12" class="edge">
<title>dir_c8c3c9a4437e07b1ae0892d098d82a3c&#45;&gt;dir_f79aa91d151ccd05d66e8fd20c96b5c9</title>
<path fill="none" stroke="black" d="M73.94,-231.7C76.17,-223.9 78.85,-214.51 81.33,-205.83"/>
<polygon fill="black" stroke="black" points="84.73,-206.68 84.11,-196.1 78,-204.76 84.73,-206.68"/>
<g id="a_edge12&#45;headlabel"><a xlink:href="dir_000006_000010.html" target="_top" xlink:title="3">
<text text-anchor="middle" x="86.47" y="-208.42" font-family="Helvetica,sans-Serif" font-size="10.00">3</text>
</a>
</g>
</g>
<!-- dir_f79aa91d151ccd05d66e8fd20c96b5c9&#45;&gt;dir_8cc458dbcc0b32b454bc89428ebd057f -->
<g id="edge8" class="edge">
<title>dir_f79aa91d151ccd05d66e8fd20c96b5c9&#45;&gt;dir_8cc458dbcc0b32b454bc89428ebd057f</title>
<path fill="none" stroke="black" d="M99.13,-159.7C103.85,-151.64 109.56,-141.89 114.78,-132.98"/>
<polygon fill="black" stroke="black" points="117.95,-134.5 119.98,-124.1 111.91,-130.96 117.95,-134.5"/>
<g id="a_edge8&#45;headlabel"><a xlink:href="dir_000010_000009.html" target="_top" xlink:title="10">
<text text-anchor="middle" x="118.58" y="-136.54" font-family="Helvetica,sans-Serif" font-size="10.00">10</text>
</a>
</g>
</g>
<!-- dir_f79aa91d151ccd05d66e8fd20c96b5c9&#45;&gt;dir_bb69ec456759f21295a9444e150033a6 -->
<g id="edge9" class="edge">
<title>dir_f79aa91d151ccd05d66e8fd20c96b5c9&#45;&gt;dir_bb69ec456759f21295a9444e150033a6</title>
<path fill="none" stroke="black" d="M83.24,-159.89C79.82,-149.55 75.49,-136.07 72,-124 66.05,-103.43 60.02,-79.98 55.63,-62.32"/>
<polygon fill="black" stroke="black" points="58.91,-61.01 53.12,-52.14 52.11,-62.69 58.91,-61.01"/>
<g id="a_edge9&#45;headlabel"><a xlink:href="dir_000010_000003.html" target="_top" xlink:title="3">
<text text-anchor="middle" x="62.53" y="-61.32" font-family="Helvetica,sans-Serif" font-size="10.00">3</text>
</a>
</g>
</g>
<!-- dir_f79aa91d151ccd05d66e8fd20c96b5c9&#45;&gt;dir_fa7fd7bf69357dece0c85b99bdf728f8 -->
<g id="edge10" class="edge">
<title>dir_f79aa91d151ccd05d66e8fd20c96b5c9&#45;&gt;dir_fa7fd7bf69357dece0c85b99bdf728f8</title>
<path fill="none" stroke="black" d="M85.07,-159.7C81.69,-141.33 78.58,-111.74 87,-88 90.66,-77.68 97.29,-67.9 104.26,-59.61"/>
<polygon fill="black" stroke="black" points="106.87,-61.94 110.96,-52.16 101.67,-57.26 106.87,-61.94"/>
<g id="a_edge10&#45;headlabel"><a xlink:href="dir_000010_000008.html" target="_top" xlink:title="1">
<text text-anchor="middle" x="106.58" y="-64.01" font-family="Helvetica,sans-Serif" font-size="10.00">1</text>
</a>
</g>
</g>
<!-- dir_f30ada7b744033f76dae4428084f7af5 -->
<g id="node6" class="node">
<title>dir_f30ada7b744033f76dae4428084f7af5</title>
<g id="a_node6"><a xlink:href="dir_f30ada7b744033f76dae4428084f7af5.html" target="_top" xlink:title="polynomial">
<polygon fill="#eeeeff" stroke="black" points="150.5,-340 79.5,-340 79.5,-304 150.5,-304 150.5,-340"/>
<text text-anchor="middle" x="115" y="-319.5" font-family="Helvetica,sans-Serif" font-size="10.00">polynomial</text>
</a>
</g>
</g>
<!-- dir_f30ada7b744033f76dae4428084f7af5&#45;&gt;dir_8cc458dbcc0b32b454bc89428ebd057f -->
<g id="edge1" class="edge">
<title>dir_f30ada7b744033f76dae4428084f7af5&#45;&gt;dir_8cc458dbcc0b32b454bc89428ebd057f</title>
<path fill="none" stroke="black" d="M117.93,-303.68C121.83,-279.61 128.54,-234.65 131,-196 132.02,-180.03 131.15,-176 131,-160 130.92,-151.68 130.77,-142.63 130.62,-134.4"/>
<polygon fill="black" stroke="black" points="134.11,-134.11 130.41,-124.18 127.11,-134.25 134.11,-134.11"/>
<g id="a_edge1&#45;headlabel"><a xlink:href="dir_000011_000009.html" target="_top" xlink:title="1">
<text text-anchor="middle" x="137.02" y="-135.15" font-family="Helvetica,sans-Serif" font-size="10.00">1</text>
</a>
</g>
</g>
<!-- dir_f30ada7b744033f76dae4428084f7af5&#45;&gt;dir_bb69ec456759f21295a9444e150033a6 -->
<g id="edge2" class="edge">
<title>dir_f30ada7b744033f76dae4428084f7af5&#45;&gt;dir_bb69ec456759f21295a9444e150033a6</title>
<path fill="none" stroke="black" d="M79.25,-307.57C61.97,-299.05 42.89,-286.16 33,-268 -3.41,-201.12 22.21,-106.98 38.45,-61.56"/>
<polygon fill="black" stroke="black" points="41.75,-62.72 41.94,-52.13 35.18,-60.29 41.75,-62.72"/>
<g id="a_edge2&#45;headlabel"><a xlink:href="dir_000011_000003.html" target="_top" xlink:title="3">
<text text-anchor="middle" x="43.16" y="-64.58" font-family="Helvetica,sans-Serif" font-size="10.00">3</text>
</a>
</g>
</g>
<!-- dir_f30ada7b744033f76dae4428084f7af5&#45;&gt;dir_c8c3c9a4437e07b1ae0892d098d82a3c -->
<g id="edge3" class="edge">
<title>dir_f30ada7b744033f76dae4428084f7af5&#45;&gt;dir_c8c3c9a4437e07b1ae0892d098d82a3c</title>
<path fill="none" stroke="black" d="M103.63,-303.7C98.28,-295.56 91.8,-285.69 85.89,-276.7"/>
<polygon fill="black" stroke="black" points="88.66,-274.54 80.24,-268.1 82.81,-278.38 88.66,-274.54"/>
<g id="a_edge3&#45;headlabel"><a xlink:href="dir_000011_000006.html" target="_top" xlink:title="2">
<text text-anchor="middle" x="93" y="-273.48" font-family="Helvetica,sans-Serif" font-size="10.00">2</text>
</a>
</g>
</g>
<!-- dir_f30ada7b744033f76dae4428084f7af5&#45;&gt;dir_f79aa91d151ccd05d66e8fd20c96b5c9 -->
<g id="edge4" class="edge">
<title>dir_f30ada7b744033f76dae4428084f7af5&#45;&gt;dir_f79aa91d151ccd05d66e8fd20c96b5c9</title>
<path fill="none" stroke="black" d="M113.99,-303.79C112.73,-285.76 110.07,-256.67 105,-232 103.24,-223.43 100.71,-214.26 98.18,-205.99"/>
<polygon fill="black" stroke="black" points="101.51,-204.93 95.14,-196.46 94.84,-207.05 101.51,-204.93"/>
<g id="a_edge4&#45;headlabel"><a xlink:href="dir_000011_000010.html" target="_top" xlink:title="3">
<text text-anchor="middle" x="105.31" y="-204.99" font-family="Helvetica,sans-Serif" font-size="10.00">3</text>
</a>
</g>
</g>
<!-- dir_f30ada7b744033f76dae4428084f7af5&#45;&gt;dir_fa7fd7bf69357dece0c85b99bdf728f8 -->
<g id="edge5" class="edge">
<title>dir_f30ada7b744033f76dae4428084f7af5&#45;&gt;dir_fa7fd7bf69357dece0c85b99bdf728f8</title>
<path fill="none" stroke="black" d="M121.82,-303.98C134.91,-270.29 163.13,-192.46 173,-124 175.28,-108.16 178.35,-103.08 173,-88 169.34,-77.68 162.71,-67.9 155.74,-59.61"/>
<polygon fill="black" stroke="black" points="158.33,-57.26 149.04,-52.16 153.13,-61.94 158.33,-57.26"/>
<g id="a_edge5&#45;headlabel"><a xlink:href="dir_000011_000008.html" target="_top" xlink:title="1">
<text text-anchor="middle" x="162.84" y="-55.53" font-family="Helvetica,sans-Serif" font-size="10.00">1</text>
</a>
</g>
</g>
</g>
</svg>
