<?xml version="1.0" encoding="UTF-8" standalone="no"?>
<!DOCTYPE svg PUBLIC "-//W3C//DTD SVG 1.1//EN"
 "http://www.w3.org/Graphics/SVG/1.1/DTD/svg11.dtd">
<!-- Generated by graphviz version 2.43.0 (0)
 -->
<!-- Title: include/mini/riemann Pages: 1 -->
<svg width="434pt" height="247pt"
 viewBox="0.00 0.00 434.00 247.00" xmlns="http://www.w3.org/2000/svg" xmlns:xlink="http://www.w3.org/1999/xlink">
<g id="graph0" class="graph" transform="scale(1 1) rotate(0) translate(4 243)">
<title>include/mini/riemann</title>
<polygon fill="white" stroke="transparent" points="-4,4 -4,-243 430,-243 430,4 -4,4"/>
<g id="clust1" class="cluster">
<title>clusterdir_52c4e261fccb9ba9630288b59582e709</title>
<g id="a_clust1"><a xlink:href="dir_52c4e261fccb9ba9630288b59582e709.html" target="_top" xlink:title="mini">
<polygon fill="#ddddee" stroke="black" points="8,-8 8,-231 418,-231 418,-8 8,-8"/>
<text text-anchor="middle" x="213" y="-219" font-family="Helvetica,sans-Serif" font-size="10.00">mini</text>
</a>
</g>
</g>
<g id="clust2" class="cluster">
<title>clusterdir_d4ada3be3cf0417758450d654a32218e</title>
<g id="a_clust2"><a xlink:href="dir_d4ada3be3cf0417758450d654a32218e.html" target="_top">
<polygon fill="#eeeeff" stroke="black" points="16,-80 16,-204 240,-204 240,-80 16,-80"/>
</a>
</g>
</g>
<!-- dir_bb69ec456759f21295a9444e150033a6 -->
<g id="node1" class="node">
<title>dir_bb69ec456759f21295a9444e150033a6</title>
<g id="a_node1"><a xlink:href="dir_bb69ec456759f21295a9444e150033a6.html" target="_top" xlink:title="algebra">
<polygon fill="none" stroke="black" points="229,-52 175,-52 175,-16 229,-16 229,-52"/>
<text text-anchor="middle" x="202" y="-31.5" font-family="Helvetica,sans-Serif" font-size="10.00">algebra</text>
</a>
</g>
</g>
<!-- dir_fa7fd7bf69357dece0c85b99bdf728f8 -->
<g id="node2" class="node">
<title>dir_fa7fd7bf69357dece0c85b99bdf728f8</title>
<g id="a_node2"><a xlink:href="dir_fa7fd7bf69357dece0c85b99bdf728f8.html" target="_top" xlink:title="constant">
<polygon fill="none" stroke="black" points="307.5,-124 248.5,-124 248.5,-88 307.5,-88 307.5,-124"/>
<text text-anchor="middle" x="278" y="-103.5" font-family="Helvetica,sans-Serif" font-size="10.00">constant</text>
</a>
</g>
</g>
<!-- dir_90514e4c6cb1184f77f58f9d9324bf36 -->
<g id="node3" class="node">
<title>dir_90514e4c6cb1184f77f58f9d9324bf36</title>
<g id="a_node3"><a xlink:href="dir_90514e4c6cb1184f77f58f9d9324bf36.html" target="_top" xlink:title="geometry">
<polygon fill="none" stroke="black" points="410,-124 346,-124 346,-88 410,-88 410,-124"/>
<text text-anchor="middle" x="378" y="-103.5" font-family="Helvetica,sans-Serif" font-size="10.00">geometry</text>
</a>
</g>
</g>
<!-- dir_90514e4c6cb1184f77f58f9d9324bf36&#45;&gt;dir_bb69ec456759f21295a9444e150033a6 -->
<g id="edge5" class="edge">
<title>dir_90514e4c6cb1184f77f58f9d9324bf36&#45;&gt;dir_bb69ec456759f21295a9444e150033a6</title>
<path fill="none" stroke="black" d="M348.17,-87.87C342.86,-85.08 337.32,-82.35 332,-80 301.29,-66.45 265.12,-54.21 238.74,-45.93"/>
<polygon fill="black" stroke="black" points="239.72,-42.58 229.14,-42.96 237.65,-49.26 239.72,-42.58"/>
<g id="a_edge5&#45;headlabel"><a xlink:href="dir_000012_000003.html" target="_top" xlink:title="3">
<text text-anchor="middle" x="244" y="-38.43" font-family="Helvetica,sans-Serif" font-size="10.00">3</text>
</a>
</g>
</g>
<!-- dir_d4ada3be3cf0417758450d654a32218e -->
<g id="node4" class="node">
<title>dir_d4ada3be3cf0417758450d654a32218e</title>
<text text-anchor="middle" x="203" y="-175.5" font-family="Helvetica,sans-Serif" font-size="10.00">riemann</text>
</g>
<!-- dir_da750fcfd5f1e07c1b69b96226d07d4a -->
<g id="node5" class="node">
<title>dir_da750fcfd5f1e07c1b69b96226d07d4a</title>
<g id="a_node5"><a xlink:href="dir_da750fcfd5f1e07c1b69b96226d07d4a.html" target="_top" xlink:title="diffusive">
<polygon fill="white" stroke="black" points="83.5,-196 24.5,-196 24.5,-160 83.5,-160 83.5,-196"/>
<text text-anchor="middle" x="54" y="-175.5" font-family="Helvetica,sans-Serif" font-size="10.00">diffusive</text>
</a>
</g>
</g>
<!-- dir_da750fcfd5f1e07c1b69b96226d07d4a&#45;&gt;dir_bb69ec456759f21295a9444e150033a6 -->
<g id="edge2" class="edge">
<title>dir_da750fcfd5f1e07c1b69b96226d07d4a&#45;&gt;dir_bb69ec456759f21295a9444e150033a6</title>
<path fill="none" stroke="black" d="M83.73,-163.81C86.85,-162.5 89.98,-161.21 93,-160 136.48,-142.64 163.04,-160.79 192,-124 205.63,-106.68 207.24,-81.26 205.95,-62.01"/>
<polygon fill="black" stroke="black" points="209.43,-61.67 205,-52.04 202.46,-62.33 209.43,-61.67"/>
<g id="a_edge2&#45;headlabel"><a xlink:href="dir_000007_000003.html" target="_top" xlink:title="3">
<text text-anchor="middle" x="212.6" y="-62.47" font-family="Helvetica,sans-Serif" font-size="10.00">3</text>
</a>
</g>
</g>
<!-- dir_da750fcfd5f1e07c1b69b96226d07d4a&#45;&gt;dir_fa7fd7bf69357dece0c85b99bdf728f8 -->
<g id="edge3" class="edge">
<title>dir_da750fcfd5f1e07c1b69b96226d07d4a&#45;&gt;dir_fa7fd7bf69357dece0c85b99bdf728f8</title>
<path fill="none" stroke="black" d="M83.6,-163.45C86.74,-162.21 89.92,-161.03 93,-160 155.24,-139.2 177.03,-146.73 238.36,-125.85"/>
<polygon fill="black" stroke="black" points="239.87,-129.03 248.13,-122.4 237.54,-122.43 239.87,-129.03"/>
<g id="a_edge3&#45;headlabel"><a xlink:href="dir_000007_000008.html" target="_top" xlink:title="3">
<text text-anchor="middle" x="237.42" y="-130.4" font-family="Helvetica,sans-Serif" font-size="10.00">3</text>
</a>
</g>
</g>
<!-- dir_265509d7be65d46bbb6d92d45e979dd2 -->
<g id="node6" class="node">
<title>dir_265509d7be65d46bbb6d92d45e979dd2</title>
<g id="a_node6"><a xlink:href="dir_265509d7be65d46bbb6d92d45e979dd2.html" target="_top" xlink:title="euler">
<polygon fill="white" stroke="black" points="111,-124 57,-124 57,-88 111,-88 111,-124"/>
<text text-anchor="middle" x="84" y="-103.5" font-family="Helvetica,sans-Serif" font-size="10.00">euler</text>
</a>
</g>
</g>
<!-- dir_da750fcfd5f1e07c1b69b96226d07d4a&#45;&gt;dir_265509d7be65d46bbb6d92d45e979dd2 -->
<g id="edge1" class="edge">
<title>dir_da750fcfd5f1e07c1b69b96226d07d4a&#45;&gt;dir_265509d7be65d46bbb6d92d45e979dd2</title>
<path fill="none" stroke="black" d="M61.42,-159.7C64.79,-151.81 68.87,-142.3 72.62,-133.55"/>
<polygon fill="black" stroke="black" points="75.95,-134.67 76.67,-124.1 69.51,-131.92 75.95,-134.67"/>
<g id="a_edge1&#45;headlabel"><a xlink:href="dir_000007_000005.html" target="_top" xlink:title="1">
<text text-anchor="middle" x="77.14" y="-136.6" font-family="Helvetica,sans-Serif" font-size="10.00">1</text>
</a>
</g>
</g>
<!-- dir_265509d7be65d46bbb6d92d45e979dd2&#45;&gt;dir_bb69ec456759f21295a9444e150033a6 -->
<g id="edge6" class="edge">
<title>dir_265509d7be65d46bbb6d92d45e979dd2&#45;&gt;dir_bb69ec456759f21295a9444e150033a6</title>
<path fill="none" stroke="black" d="M107.78,-87.97C111.81,-85.23 115.99,-82.48 120,-80 134.61,-70.95 151.15,-61.7 165.53,-53.95"/>
<polygon fill="black" stroke="black" points="167.46,-56.89 174.63,-49.09 164.16,-50.72 167.46,-56.89"/>
<g id="a_edge6&#45;headlabel"><a xlink:href="dir_000005_000003.html" target="_top" xlink:title="2">
<text text-anchor="middle" x="165.62" y="-58.59" font-family="Helvetica,sans-Serif" font-size="10.00">2</text>
</a>
</g>
</g>
<!-- dir_7eca9c5c36b7bb4b5a83c3eea0f24fd0 -->
<g id="node7" class="node">
<title>dir_7eca9c5c36b7bb4b5a83c3eea0f24fd0</title>
<g id="a_node7"><a xlink:href="dir_7eca9c5c36b7bb4b5a83c3eea0f24fd0.html" target="_top" xlink:title="rotated">
<polygon fill="white" stroke="black" points="156,-196 102,-196 102,-160 156,-160 156,-196"/>
<text text-anchor="middle" x="129" y="-175.5" font-family="Helvetica,sans-Serif" font-size="10.00">rotated</text>
</a>
</g>
</g>
<!-- dir_7eca9c5c36b7bb4b5a83c3eea0f24fd0&#45;&gt;dir_bb69ec456759f21295a9444e150033a6 -->
<g id="edge9" class="edge">
<title>dir_7eca9c5c36b7bb4b5a83c3eea0f24fd0&#45;&gt;dir_bb69ec456759f21295a9444e150033a6</title>
<path fill="none" stroke="black" d="M156.23,-163.76C159.49,-162.4 162.79,-161.11 166,-160 231.22,-137.49 274.24,-178.15 317,-124 329.12,-108.65 328.02,-96.15 317,-80 299.71,-54.67 265.85,-43.6 239.33,-38.76"/>
<polygon fill="black" stroke="black" points="239.64,-35.27 229.21,-37.14 238.53,-42.18 239.64,-35.27"/>
<g id="a_edge9&#45;headlabel"><a xlink:href="dir_000018_000003.html" target="_top" xlink:title="3">
<text text-anchor="middle" x="243.63" y="-30.53" font-family="Helvetica,sans-Serif" font-size="10.00">3</text>
</a>
</g>
</g>
<!-- dir_7eca9c5c36b7bb4b5a83c3eea0f24fd0&#45;&gt;dir_fa7fd7bf69357dece0c85b99bdf728f8 -->
<g id="edge11" class="edge">
<title>dir_7eca9c5c36b7bb4b5a83c3eea0f24fd0&#45;&gt;dir_fa7fd7bf69357dece0c85b99bdf728f8</title>
<path fill="none" stroke="black" d="M156.08,-164.55C182.46,-152.41 220.86,-134.74 239.16,-126.21"/>
<polygon fill="black" stroke="black" points="240.8,-129.31 248.36,-121.89 237.82,-122.98 240.8,-129.31"/>
<g id="a_edge11&#45;headlabel"><a xlink:href="dir_000018_000008.html" target="_top" xlink:title="2">
<text text-anchor="middle" x="238.75" y="-130.91" font-family="Helvetica,sans-Serif" font-size="10.00">2</text>
</a>
</g>
</g>
<!-- dir_7eca9c5c36b7bb4b5a83c3eea0f24fd0&#45;&gt;dir_90514e4c6cb1184f77f58f9d9324bf36 -->
<g id="edge8" class="edge">
<title>dir_7eca9c5c36b7bb4b5a83c3eea0f24fd0&#45;&gt;dir_90514e4c6cb1184f77f58f9d9324bf36</title>
<path fill="none" stroke="black" d="M156.21,-163.7C159.47,-162.34 162.78,-161.07 166,-160 237.61,-136.1 259.53,-145.14 332,-124 333.4,-123.59 334.83,-123.16 336.26,-122.71"/>
<polygon fill="black" stroke="black" points="337.38,-126.03 345.77,-119.56 335.18,-119.38 337.38,-126.03"/>
<g id="a_edge8&#45;headlabel"><a xlink:href="dir_000018_000012.html" target="_top" xlink:title="1">
<text text-anchor="middle" x="334.86" y="-127.35" font-family="Helvetica,sans-Serif" font-size="10.00">1</text>
</a>
</g>
</g>
<!-- dir_7eca9c5c36b7bb4b5a83c3eea0f24fd0&#45;&gt;dir_265509d7be65d46bbb6d92d45e979dd2 -->
<g id="edge7" class="edge">
<title>dir_7eca9c5c36b7bb4b5a83c3eea0f24fd0&#45;&gt;dir_265509d7be65d46bbb6d92d45e979dd2</title>
<path fill="none" stroke="black" d="M117.88,-159.7C112.64,-151.56 106.3,-141.69 100.52,-132.7"/>
<polygon fill="black" stroke="black" points="103.35,-130.62 95,-124.1 97.46,-134.41 103.35,-130.62"/>
<g id="a_edge7&#45;headlabel"><a xlink:href="dir_000018_000005.html" target="_top" xlink:title="1">
<text text-anchor="middle" x="107.68" y="-129.61" font-family="Helvetica,sans-Serif" font-size="10.00">1</text>
</a>
</g>
</g>
<!-- dir_ee0d81d17814e7122286078165dcfe80 -->
<g id="node8" class="node">
<title>dir_ee0d81d17814e7122286078165dcfe80</title>
<g id="a_node8"><a xlink:href="dir_ee0d81d17814e7122286078165dcfe80.html" target="_top" xlink:title="simple">
<polygon fill="white" stroke="black" points="183,-124 129,-124 129,-88 183,-88 183,-124"/>
<text text-anchor="middle" x="156" y="-103.5" font-family="Helvetica,sans-Serif" font-size="10.00">simple</text>
</a>
</g>
</g>
<!-- dir_7eca9c5c36b7bb4b5a83c3eea0f24fd0&#45;&gt;dir_ee0d81d17814e7122286078165dcfe80 -->
<g id="edge10" class="edge">
<title>dir_7eca9c5c36b7bb4b5a83c3eea0f24fd0&#45;&gt;dir_ee0d81d17814e7122286078165dcfe80</title>
<path fill="none" stroke="black" d="M135.67,-159.7C138.71,-151.81 142.38,-142.3 145.76,-133.55"/>
<polygon fill="black" stroke="black" points="149.07,-134.69 149.4,-124.1 142.54,-132.17 149.07,-134.69"/>
<g id="a_edge10&#45;headlabel"><a xlink:href="dir_000018_000019.html" target="_top" xlink:title="4">
<text text-anchor="middle" x="150.42" y="-136.57" font-family="Helvetica,sans-Serif" font-size="10.00">4</text>
</a>
</g>
</g>
<!-- dir_ee0d81d17814e7122286078165dcfe80&#45;&gt;dir_bb69ec456759f21295a9444e150033a6 -->
<g id="edge4" class="edge">
<title>dir_ee0d81d17814e7122286078165dcfe80&#45;&gt;dir_bb69ec456759f21295a9444e150033a6</title>
<path fill="none" stroke="black" d="M167.37,-87.7C172.72,-79.56 179.2,-69.69 185.11,-60.7"/>
<polygon fill="black" stroke="black" points="188.19,-62.38 190.76,-52.1 182.34,-58.54 188.19,-62.38"/>
<g id="a_edge4&#45;headlabel"><a xlink:href="dir_000019_000003.html" target="_top" xlink:title="4">
<text text-anchor="middle" x="188.59" y="-64.45" font-family="Helvetica,sans-Serif" font-size="10.00">4</text>
</a>
</g>
</g>
</g>
</svg>
