<?xml version="1.0" encoding="UTF-8" standalone="no"?>
<!DOCTYPE svg PUBLIC "-//W3C//DTD SVG 1.1//EN"
 "http://www.w3.org/Graphics/SVG/1.1/DTD/svg11.dtd">
<!-- Generated by graphviz version 2.43.0 (0)
 -->
<!-- Title: include/mini/integrator Pages: 1 -->
<svg width="172pt" height="239pt"
 viewBox="0.00 0.00 172.00 239.00" xmlns="http://www.w3.org/2000/svg" xmlns:xlink="http://www.w3.org/1999/xlink">
<g id="graph0" class="graph" transform="scale(1 1) rotate(0) translate(4 235)">
<title>include/mini/integrator</title>
<polygon fill="white" stroke="transparent" points="-4,4 -4,-235 168,-235 168,4 -4,4"/>
<g id="clust1" class="cluster">
<title>clusterdir_52c4e261fccb9ba9630288b59582e709</title>
<g id="a_clust1"><a xlink:href="dir_52c4e261fccb9ba9630288b59582e709.html" target="_top" xlink:title="mini">
<polygon fill="#ddddee" stroke="black" points="8,-8 8,-223 156,-223 156,-8 8,-8"/>
<text text-anchor="middle" x="82" y="-211" font-family="Helvetica,sans-Serif" font-size="10.00">mini</text>
</a>
</g>
</g>
<!-- dir_8cc458dbcc0b32b454bc89428ebd057f -->
<g id="node1" class="node">
<title>dir_8cc458dbcc0b32b454bc89428ebd057f</title>
<g id="a_node1"><a xlink:href="dir_8cc458dbcc0b32b454bc89428ebd057f.html" target="_top" xlink:title="coordinate">
<polygon fill="none" stroke="black" points="116,-124 48,-124 48,-88 116,-88 116,-124"/>
<text text-anchor="middle" x="82" y="-103.5" font-family="Helvetica,sans-Serif" font-size="10.00">coordinate</text>
</a>
</g>
</g>
<!-- dir_bb69ec456759f21295a9444e150033a6 -->
<g id="node2" class="node">
<title>dir_bb69ec456759f21295a9444e150033a6</title>
<g id="a_node2"><a xlink:href="dir_bb69ec456759f21295a9444e150033a6.html" target="_top" xlink:title="algebra">
<polygon fill="none" stroke="black" points="70,-52 16,-52 16,-16 70,-16 70,-52"/>
<text text-anchor="middle" x="43" y="-31.5" font-family="Helvetica,sans-Serif" font-size="10.00">algebra</text>
</a>
</g>
</g>
<!-- dir_8cc458dbcc0b32b454bc89428ebd057f&#45;&gt;dir_bb69ec456759f21295a9444e150033a6 -->
<g id="edge1" class="edge">
<title>dir_8cc458dbcc0b32b454bc89428ebd057f&#45;&gt;dir_bb69ec456759f21295a9444e150033a6</title>
<path fill="none" stroke="black" d="M72.36,-87.7C67.87,-79.64 62.44,-69.89 57.48,-60.98"/>
<polygon fill="black" stroke="black" points="60.45,-59.14 52.53,-52.1 54.34,-62.54 60.45,-59.14"/>
<g id="a_edge1&#45;headlabel"><a xlink:href="dir_000009_000003.html" target="_top" xlink:title="2">
<text text-anchor="middle" x="64.68" y="-58.39" font-family="Helvetica,sans-Serif" font-size="10.00">2</text>
</a>
</g>
</g>
<!-- dir_fa7fd7bf69357dece0c85b99bdf728f8 -->
<g id="node3" class="node">
<title>dir_fa7fd7bf69357dece0c85b99bdf728f8</title>
<g id="a_node3"><a xlink:href="dir_fa7fd7bf69357dece0c85b99bdf728f8.html" target="_top" xlink:title="constant">
<polygon fill="none" stroke="black" points="147.5,-52 88.5,-52 88.5,-16 147.5,-16 147.5,-52"/>
<text text-anchor="middle" x="118" y="-31.5" font-family="Helvetica,sans-Serif" font-size="10.00">constant</text>
</a>
</g>
</g>
<!-- dir_8cc458dbcc0b32b454bc89428ebd057f&#45;&gt;dir_fa7fd7bf69357dece0c85b99bdf728f8 -->
<g id="edge2" class="edge">
<title>dir_8cc458dbcc0b32b454bc89428ebd057f&#45;&gt;dir_fa7fd7bf69357dece0c85b99bdf728f8</title>
<path fill="none" stroke="black" d="M90.9,-87.7C95,-79.73 99.95,-70.1 104.49,-61.26"/>
<polygon fill="black" stroke="black" points="107.74,-62.6 109.2,-52.1 101.52,-59.4 107.74,-62.6"/>
<g id="a_edge2&#45;headlabel"><a xlink:href="dir_000009_000008.html" target="_top" xlink:title="1">
<text text-anchor="middle" x="108.62" y="-64.59" font-family="Helvetica,sans-Serif" font-size="10.00">1</text>
</a>
</g>
</g>
<!-- dir_f79aa91d151ccd05d66e8fd20c96b5c9 -->
<g id="node4" class="node">
<title>dir_f79aa91d151ccd05d66e8fd20c96b5c9</title>
<g id="a_node4"><a xlink:href="dir_f79aa91d151ccd05d66e8fd20c96b5c9.html" target="_top" xlink:title="integrator">
<polygon fill="#eeeeff" stroke="black" points="114.5,-196 49.5,-196 49.5,-160 114.5,-160 114.5,-196"/>
<text text-anchor="middle" x="82" y="-175.5" font-family="Helvetica,sans-Serif" font-size="10.00">integrator</text>
</a>
</g>
</g>
<!-- dir_f79aa91d151ccd05d66e8fd20c96b5c9&#45;&gt;dir_8cc458dbcc0b32b454bc89428ebd057f -->
<g id="edge3" class="edge">
<title>dir_f79aa91d151ccd05d66e8fd20c96b5c9&#45;&gt;dir_8cc458dbcc0b32b454bc89428ebd057f</title>
<path fill="none" stroke="black" d="M82,-159.7C82,-151.98 82,-142.71 82,-134.11"/>
<polygon fill="black" stroke="black" points="85.5,-134.1 82,-124.1 78.5,-134.1 85.5,-134.1"/>
<g id="a_edge3&#45;headlabel"><a xlink:href="dir_000010_000009.html" target="_top" xlink:title="10">
<text text-anchor="middle" x="88.34" y="-135.2" font-family="Helvetica,sans-Serif" font-size="10.00">10</text>
</a>
</g>
</g>
<!-- dir_f79aa91d151ccd05d66e8fd20c96b5c9&#45;&gt;dir_bb69ec456759f21295a9444e150033a6 -->
<g id="edge4" class="edge">
<title>dir_f79aa91d151ccd05d66e8fd20c96b5c9&#45;&gt;dir_bb69ec456759f21295a9444e150033a6</title>
<path fill="none" stroke="black" d="M62.96,-159.84C53.82,-150.3 43.83,-137.62 39,-124 31.96,-104.14 33.54,-80.21 36.57,-62.16"/>
<polygon fill="black" stroke="black" points="40.02,-62.78 38.46,-52.3 33.14,-61.46 40.02,-62.78"/>
<g id="a_edge4&#45;headlabel"><a xlink:href="dir_000010_000003.html" target="_top" xlink:title="3">
<text text-anchor="middle" x="42.13" y="-64.34" font-family="Helvetica,sans-Serif" font-size="10.00">3</text>
</a>
</g>
</g>
<!-- dir_f79aa91d151ccd05d66e8fd20c96b5c9&#45;&gt;dir_fa7fd7bf69357dece0c85b99bdf728f8 -->
<g id="edge5" class="edge">
<title>dir_f79aa91d151ccd05d66e8fd20c96b5c9&#45;&gt;dir_fa7fd7bf69357dece0c85b99bdf728f8</title>
<path fill="none" stroke="black" d="M101.04,-159.84C110.18,-150.3 120.17,-137.62 125,-124 132.06,-104.1 129.62,-80.17 125.79,-62.14"/>
<polygon fill="black" stroke="black" points="129.17,-61.19 123.44,-52.28 122.36,-62.82 129.17,-61.19"/>
<g id="a_edge5&#45;headlabel"><a xlink:href="dir_000010_000008.html" target="_top" xlink:title="1">
<text text-anchor="middle" x="132.76" y="-61.53" font-family="Helvetica,sans-Serif" font-size="10.00">1</text>
</a>
</g>
</g>
</g>
</svg>
