<?xml version="1.0" encoding="UTF-8" standalone="no"?>
<!DOCTYPE svg PUBLIC "-//W3C//DTD SVG 1.1//EN"
 "http://www.w3.org/Graphics/SVG/1.1/DTD/svg11.dtd">
<!-- Generated by graphviz version 2.43.0 (0)
 -->
<!-- Title: include/mini/riemann/diffusive Pages: 1 -->
<svg width="194pt" height="223pt"
 viewBox="0.00 0.00 193.50 223.00" xmlns="http://www.w3.org/2000/svg" xmlns:xlink="http://www.w3.org/1999/xlink">
<g id="graph0" class="graph" transform="scale(1 1) rotate(0) translate(4 219)">
<title>include/mini/riemann/diffusive</title>
<polygon fill="white" stroke="transparent" points="-4,4 -4,-219 189.5,-219 189.5,4 -4,4"/>
<g id="clust1" class="cluster">
<title>clusterdir_d4ada3be3cf0417758450d654a32218e</title>
<g id="a_clust1"><a xlink:href="dir_d4ada3be3cf0417758450d654a32218e.html" target="_top" xlink:title="riemann">
<polygon fill="#ddddee" stroke="black" points="8,-64 8,-207 84,-207 84,-64 8,-64"/>
<text text-anchor="middle" x="46" y="-195" font-family="Helvetica,sans-Serif" font-size="10.00">riemann</text>
</a>
</g>
</g>
<!-- dir_265509d7be65d46bbb6d92d45e979dd2 -->
<g id="node1" class="node">
<title>dir_265509d7be65d46bbb6d92d45e979dd2</title>
<g id="a_node1"><a xlink:href="dir_265509d7be65d46bbb6d92d45e979dd2.html" target="_top" xlink:title="euler">
<polygon fill="none" stroke="black" points="70,-108 16,-108 16,-72 70,-72 70,-108"/>
<text text-anchor="middle" x="43" y="-87.5" font-family="Helvetica,sans-Serif" font-size="10.00">euler</text>
</a>
</g>
</g>
<!-- dir_bb69ec456759f21295a9444e150033a6 -->
<g id="node3" class="node">
<title>dir_bb69ec456759f21295a9444e150033a6</title>
<g id="a_node3"><a xlink:href="dir_bb69ec456759f21295a9444e150033a6.html" target="_top" xlink:title="algebra">
<polygon fill="none" stroke="black" points="97,-36 43,-36 43,0 97,0 97,-36"/>
<text text-anchor="middle" x="70" y="-15.5" font-family="Helvetica,sans-Serif" font-size="10.00">algebra</text>
</a>
</g>
</g>
<!-- dir_265509d7be65d46bbb6d92d45e979dd2&#45;&gt;dir_bb69ec456759f21295a9444e150033a6 -->
<g id="edge4" class="edge">
<title>dir_265509d7be65d46bbb6d92d45e979dd2&#45;&gt;dir_bb69ec456759f21295a9444e150033a6</title>
<path fill="none" stroke="black" d="M49.67,-71.7C52.71,-63.81 56.38,-54.3 59.76,-45.55"/>
<polygon fill="black" stroke="black" points="63.07,-46.69 63.4,-36.1 56.54,-44.17 63.07,-46.69"/>
<g id="a_edge4&#45;headlabel"><a xlink:href="dir_000005_000003.html" target="_top" xlink:title="2">
<text text-anchor="middle" x="64.42" y="-48.57" font-family="Helvetica,sans-Serif" font-size="10.00">2</text>
</a>
</g>
</g>
<!-- dir_da750fcfd5f1e07c1b69b96226d07d4a -->
<g id="node2" class="node">
<title>dir_da750fcfd5f1e07c1b69b96226d07d4a</title>
<g id="a_node2"><a xlink:href="dir_da750fcfd5f1e07c1b69b96226d07d4a.html" target="_top" xlink:title="diffusive">
<polygon fill="#eeeeff" stroke="black" points="75.5,-180 16.5,-180 16.5,-144 75.5,-144 75.5,-180"/>
<text text-anchor="middle" x="46" y="-159.5" font-family="Helvetica,sans-Serif" font-size="10.00">diffusive</text>
</a>
</g>
</g>
<!-- dir_da750fcfd5f1e07c1b69b96226d07d4a&#45;&gt;dir_265509d7be65d46bbb6d92d45e979dd2 -->
<g id="edge1" class="edge">
<title>dir_da750fcfd5f1e07c1b69b96226d07d4a&#45;&gt;dir_265509d7be65d46bbb6d92d45e979dd2</title>
<path fill="none" stroke="black" d="M45.26,-143.7C44.93,-135.98 44.53,-126.71 44.16,-118.11"/>
<polygon fill="black" stroke="black" points="47.66,-117.95 43.73,-108.1 40.66,-118.25 47.66,-117.95"/>
<g id="a_edge1&#45;headlabel"><a xlink:href="dir_000007_000005.html" target="_top" xlink:title="1">
<text text-anchor="middle" x="50.65" y="-118.92" font-family="Helvetica,sans-Serif" font-size="10.00">1</text>
</a>
</g>
</g>
<!-- dir_da750fcfd5f1e07c1b69b96226d07d4a&#45;&gt;dir_bb69ec456759f21295a9444e150033a6 -->
<g id="edge2" class="edge">
<title>dir_da750fcfd5f1e07c1b69b96226d07d4a&#45;&gt;dir_bb69ec456759f21295a9444e150033a6</title>
<path fill="none" stroke="black" d="M60.33,-143.57C67.45,-133.76 75.31,-120.92 79,-108 84.82,-87.65 81.89,-63.75 77.88,-45.85"/>
<polygon fill="black" stroke="black" points="81.26,-44.93 75.46,-36.07 74.47,-46.62 81.26,-44.93"/>
<g id="a_edge2&#45;headlabel"><a xlink:href="dir_000007_000003.html" target="_top" xlink:title="3">
<text text-anchor="middle" x="84.88" y="-45.23" font-family="Helvetica,sans-Serif" font-size="10.00">3</text>
</a>
</g>
</g>
<!-- dir_fa7fd7bf69357dece0c85b99bdf728f8 -->
<g id="node4" class="node">
<title>dir_fa7fd7bf69357dece0c85b99bdf728f8</title>
<g id="a_node4"><a xlink:href="dir_fa7fd7bf69357dece0c85b99bdf728f8.html" target="_top" xlink:title="constant">
<polygon fill="none" stroke="black" points="185.5,-108 126.5,-108 126.5,-72 185.5,-72 185.5,-108"/>
<text text-anchor="middle" x="156" y="-87.5" font-family="Helvetica,sans-Serif" font-size="10.00">constant</text>
</a>
</g>
</g>
<!-- dir_da750fcfd5f1e07c1b69b96226d07d4a&#45;&gt;dir_fa7fd7bf69357dece0c85b99bdf728f8 -->
<g id="edge3" class="edge">
<title>dir_da750fcfd5f1e07c1b69b96226d07d4a&#45;&gt;dir_fa7fd7bf69357dece0c85b99bdf728f8</title>
<path fill="none" stroke="black" d="M72.91,-143.88C87.16,-134.81 104.85,-123.55 120.24,-113.76"/>
<polygon fill="black" stroke="black" points="122.43,-116.51 128.99,-108.19 118.67,-110.61 122.43,-116.51"/>
<g id="a_edge3&#45;headlabel"><a xlink:href="dir_000007_000008.html" target="_top" xlink:title="3">
<text text-anchor="middle" x="120.92" y="-118.34" font-family="Helvetica,sans-Serif" font-size="10.00">3</text>
</a>
</g>
</g>
</g>
</svg>
