<?xml version="1.0" encoding="UTF-8" standalone="no"?>
<!DOCTYPE svg PUBLIC "-//W3C//DTD SVG 1.1//EN"
 "http://www.w3.org/Graphics/SVG/1.1/DTD/svg11.dtd">
<!-- Generated by graphviz version 2.43.0 (0)
 -->
<!-- Title: include/mini/basis Pages: 1 -->
<svg width="126pt" height="239pt"
 viewBox="0.00 0.00 126.00 239.00" xmlns="http://www.w3.org/2000/svg" xmlns:xlink="http://www.w3.org/1999/xlink">
<g id="graph0" class="graph" transform="scale(1 1) rotate(0) translate(4 235)">
<title>include/mini/basis</title>
<polygon fill="white" stroke="transparent" points="-4,4 -4,-235 122,-235 122,4 -4,4"/>
<g id="clust1" class="cluster">
<title>clusterdir_52c4e261fccb9ba9630288b59582e709</title>
<g id="a_clust1"><a xlink:href="dir_52c4e261fccb9ba9630288b59582e709.html" target="_top" xlink:title="mini">
<polygon fill="#ddddee" stroke="black" points="8,-8 8,-223 110,-223 110,-8 8,-8"/>
<text text-anchor="middle" x="59" y="-211" font-family="Helvetica,sans-Serif" font-size="10.00">mini</text>
</a>
</g>
</g>
<!-- dir_bb69ec456759f21295a9444e150033a6 -->
<g id="node1" class="node">
<title>dir_bb69ec456759f21295a9444e150033a6</title>
<g id="a_node1"><a xlink:href="dir_bb69ec456759f21295a9444e150033a6.html" target="_top" xlink:title="algebra">
<polygon fill="none" stroke="black" points="83,-52 29,-52 29,-16 83,-16 83,-52"/>
<text text-anchor="middle" x="56" y="-31.5" font-family="Helvetica,sans-Serif" font-size="10.00">algebra</text>
</a>
</g>
</g>
<!-- dir_f79aa91d151ccd05d66e8fd20c96b5c9 -->
<g id="node2" class="node">
<title>dir_f79aa91d151ccd05d66e8fd20c96b5c9</title>
<g id="a_node2"><a xlink:href="dir_f79aa91d151ccd05d66e8fd20c96b5c9.html" target="_top" xlink:title="integrator">
<polygon fill="none" stroke="black" points="101.5,-124 36.5,-124 36.5,-88 101.5,-88 101.5,-124"/>
<text text-anchor="middle" x="69" y="-103.5" font-family="Helvetica,sans-Serif" font-size="10.00">integrator</text>
</a>
</g>
</g>
<!-- dir_f79aa91d151ccd05d66e8fd20c96b5c9&#45;&gt;dir_bb69ec456759f21295a9444e150033a6 -->
<g id="edge1" class="edge">
<title>dir_f79aa91d151ccd05d66e8fd20c96b5c9&#45;&gt;dir_bb69ec456759f21295a9444e150033a6</title>
<path fill="none" stroke="black" d="M65.79,-87.7C64.35,-79.98 62.63,-70.71 61.04,-62.11"/>
<polygon fill="black" stroke="black" points="64.44,-61.3 59.18,-52.1 57.56,-62.58 64.44,-61.3"/>
<g id="a_edge1&#45;headlabel"><a xlink:href="dir_000010_000003.html" target="_top" xlink:title="3">
<text text-anchor="middle" x="67.89" y="-61.81" font-family="Helvetica,sans-Serif" font-size="10.00">3</text>
</a>
</g>
</g>
<!-- dir_c8c3c9a4437e07b1ae0892d098d82a3c -->
<g id="node3" class="node">
<title>dir_c8c3c9a4437e07b1ae0892d098d82a3c</title>
<g id="a_node3"><a xlink:href="dir_c8c3c9a4437e07b1ae0892d098d82a3c.html" target="_top" xlink:title="basis">
<polygon fill="#eeeeff" stroke="black" points="83,-196 29,-196 29,-160 83,-160 83,-196"/>
<text text-anchor="middle" x="56" y="-175.5" font-family="Helvetica,sans-Serif" font-size="10.00">basis</text>
</a>
</g>
</g>
<!-- dir_c8c3c9a4437e07b1ae0892d098d82a3c&#45;&gt;dir_bb69ec456759f21295a9444e150033a6 -->
<g id="edge2" class="edge">
<title>dir_c8c3c9a4437e07b1ae0892d098d82a3c&#45;&gt;dir_bb69ec456759f21295a9444e150033a6</title>
<path fill="none" stroke="black" d="M43.69,-159.78C37.35,-149.84 30.27,-136.8 27,-124 23.04,-108.5 23.04,-103.5 27,-88 29.38,-78.7 33.76,-69.27 38.42,-61"/>
<polygon fill="black" stroke="black" points="41.54,-62.59 43.69,-52.22 35.54,-58.99 41.54,-62.59"/>
<g id="a_edge2&#45;headlabel"><a xlink:href="dir_000006_000003.html" target="_top" xlink:title="3">
<text text-anchor="middle" x="42.13" y="-64.63" font-family="Helvetica,sans-Serif" font-size="10.00">3</text>
</a>
</g>
</g>
<!-- dir_c8c3c9a4437e07b1ae0892d098d82a3c&#45;&gt;dir_f79aa91d151ccd05d66e8fd20c96b5c9 -->
<g id="edge3" class="edge">
<title>dir_c8c3c9a4437e07b1ae0892d098d82a3c&#45;&gt;dir_f79aa91d151ccd05d66e8fd20c96b5c9</title>
<path fill="none" stroke="black" d="M59.21,-159.7C60.65,-151.98 62.37,-142.71 63.96,-134.11"/>
<polygon fill="black" stroke="black" points="67.44,-134.58 65.82,-124.1 60.56,-133.3 67.44,-134.58"/>
<g id="a_edge3&#45;headlabel"><a xlink:href="dir_000006_000010.html" target="_top" xlink:title="3">
<text text-anchor="middle" x="69.57" y="-136.13" font-family="Helvetica,sans-Serif" font-size="10.00">3</text>
</a>
</g>
</g>
</g>
</svg>
