<?xml version="1.0" encoding="UTF-8" standalone="no"?>
<!DOCTYPE svg PUBLIC "-//W3C//DTD SVG 1.1//EN"
 "http://www.w3.org/Graphics/SVG/1.1/DTD/svg11.dtd">
<!-- Generated by graphviz version 2.43.0 (0)
 -->
<!-- Title: include/mini/coordinate Pages: 1 -->
<svg width="172pt" height="167pt"
 viewBox="0.00 0.00 172.00 167.00" xmlns="http://www.w3.org/2000/svg" xmlns:xlink="http://www.w3.org/1999/xlink">
<g id="graph0" class="graph" transform="scale(1 1) rotate(0) translate(4 163)">
<title>include/mini/coordinate</title>
<polygon fill="white" stroke="transparent" points="-4,4 -4,-163 168,-163 168,4 -4,4"/>
<g id="clust1" class="cluster">
<title>clusterdir_52c4e261fccb9ba9630288b59582e709</title>
<g id="a_clust1"><a xlink:href="dir_52c4e261fccb9ba9630288b59582e709.html" target="_top" xlink:title="mini">
<polygon fill="#ddddee" stroke="black" points="8,-8 8,-151 156,-151 156,-8 8,-8"/>
<text text-anchor="middle" x="82" y="-139" font-family="Helvetica,sans-Serif" font-size="10.00">mini</text>
</a>
</g>
</g>
<!-- dir_bb69ec456759f21295a9444e150033a6 -->
<g id="node1" class="node">
<title>dir_bb69ec456759f21295a9444e150033a6</title>
<g id="a_node1"><a xlink:href="dir_bb69ec456759f21295a9444e150033a6.html" target="_top" xlink:title="algebra">
<polygon fill="none" stroke="black" points="70,-52 16,-52 16,-16 70,-16 70,-52"/>
<text text-anchor="middle" x="43" y="-31.5" font-family="Helvetica,sans-Serif" font-size="10.00">algebra</text>
</a>
</g>
</g>
<!-- dir_fa7fd7bf69357dece0c85b99bdf728f8 -->
<g id="node2" class="node">
<title>dir_fa7fd7bf69357dece0c85b99bdf728f8</title>
<g id="a_node2"><a xlink:href="dir_fa7fd7bf69357dece0c85b99bdf728f8.html" target="_top" xlink:title="constant">
<polygon fill="none" stroke="black" points="147.5,-52 88.5,-52 88.5,-16 147.5,-16 147.5,-52"/>
<text text-anchor="middle" x="118" y="-31.5" font-family="Helvetica,sans-Serif" font-size="10.00">constant</text>
</a>
</g>
</g>
<!-- dir_8cc458dbcc0b32b454bc89428ebd057f -->
<g id="node3" class="node">
<title>dir_8cc458dbcc0b32b454bc89428ebd057f</title>
<g id="a_node3"><a xlink:href="dir_8cc458dbcc0b32b454bc89428ebd057f.html" target="_top" xlink:title="coordinate">
<polygon fill="#eeeeff" stroke="black" points="116,-124 48,-124 48,-88 116,-88 116,-124"/>
<text text-anchor="middle" x="82" y="-103.5" font-family="Helvetica,sans-Serif" font-size="10.00">coordinate</text>
</a>
</g>
</g>
<!-- dir_8cc458dbcc0b32b454bc89428ebd057f&#45;&gt;dir_bb69ec456759f21295a9444e150033a6 -->
<g id="edge1" class="edge">
<title>dir_8cc458dbcc0b32b454bc89428ebd057f&#45;&gt;dir_bb69ec456759f21295a9444e150033a6</title>
<path fill="none" stroke="black" d="M72.36,-87.7C67.87,-79.64 62.44,-69.89 57.48,-60.98"/>
<polygon fill="black" stroke="black" points="60.45,-59.14 52.53,-52.1 54.34,-62.54 60.45,-59.14"/>
<g id="a_edge1&#45;headlabel"><a xlink:href="dir_000009_000003.html" target="_top" xlink:title="2">
<text text-anchor="middle" x="64.68" y="-58.39" font-family="Helvetica,sans-Serif" font-size="10.00">2</text>
</a>
</g>
</g>
<!-- dir_8cc458dbcc0b32b454bc89428ebd057f&#45;&gt;dir_fa7fd7bf69357dece0c85b99bdf728f8 -->
<g id="edge2" class="edge">
<title>dir_8cc458dbcc0b32b454bc89428ebd057f&#45;&gt;dir_fa7fd7bf69357dece0c85b99bdf728f8</title>
<path fill="none" stroke="black" d="M90.9,-87.7C95,-79.73 99.95,-70.1 104.49,-61.26"/>
<polygon fill="black" stroke="black" points="107.74,-62.6 109.2,-52.1 101.52,-59.4 107.74,-62.6"/>
<g id="a_edge2&#45;headlabel"><a xlink:href="dir_000009_000008.html" target="_top" xlink:title="1">
<text text-anchor="middle" x="108.62" y="-64.59" font-family="Helvetica,sans-Serif" font-size="10.00">1</text>
</a>
</g>
</g>
</g>
</svg>
