<?xml version="1.0" encoding="UTF-8" standalone="no"?>
<!DOCTYPE svg PUBLIC "-//W3C//DTD SVG 1.1//EN"
 "http://www.w3.org/Graphics/SVG/1.1/DTD/svg11.dtd">
<!-- Generated by graphviz version 2.43.0 (0)
 -->
<!-- Title: include/mini/limiter Pages: 1 -->
<svg width="207pt" height="239pt"
 viewBox="0.00 0.00 207.00 239.00" xmlns="http://www.w3.org/2000/svg" xmlns:xlink="http://www.w3.org/1999/xlink">
<g id="graph0" class="graph" transform="scale(1 1) rotate(0) translate(4 235)">
<title>include/mini/limiter</title>
<polygon fill="white" stroke="transparent" points="-4,4 -4,-235 203,-235 203,4 -4,4"/>
<g id="clust1" class="cluster">
<title>clusterdir_52c4e261fccb9ba9630288b59582e709</title>
<g id="a_clust1"><a xlink:href="dir_52c4e261fccb9ba9630288b59582e709.html" target="_top" xlink:title="mini">
<polygon fill="#ddddee" stroke="black" points="8,-8 8,-223 191,-223 191,-8 8,-8"/>
<text text-anchor="middle" x="99.5" y="-211" font-family="Helvetica,sans-Serif" font-size="10.00">mini</text>
</a>
</g>
</g>
<!-- dir_c8c3c9a4437e07b1ae0892d098d82a3c -->
<g id="node1" class="node">
<title>dir_c8c3c9a4437e07b1ae0892d098d82a3c</title>
<g id="a_node1"><a xlink:href="dir_c8c3c9a4437e07b1ae0892d098d82a3c.html" target="_top" xlink:title="basis">
<polygon fill="none" stroke="black" points="122,-52 68,-52 68,-16 122,-16 122,-52"/>
<text text-anchor="middle" x="95" y="-31.5" font-family="Helvetica,sans-Serif" font-size="10.00">basis</text>
</a>
</g>
</g>
<!-- dir_d4ada3be3cf0417758450d654a32218e -->
<g id="node2" class="node">
<title>dir_d4ada3be3cf0417758450d654a32218e</title>
<g id="a_node2"><a xlink:href="dir_d4ada3be3cf0417758450d654a32218e.html" target="_top" xlink:title="riemann">
<polygon fill="white" stroke="red" points="93.5,-124 36.5,-124 36.5,-88 93.5,-88 93.5,-124"/>
<text text-anchor="middle" x="65" y="-103.5" font-family="Helvetica,sans-Serif" font-size="10.00">riemann</text>
</a>
</g>
</g>
<!-- dir_f30ada7b744033f76dae4428084f7af5 -->
<g id="node3" class="node">
<title>dir_f30ada7b744033f76dae4428084f7af5</title>
<g id="a_node3"><a xlink:href="dir_f30ada7b744033f76dae4428084f7af5.html" target="_top" xlink:title="polynomial">
<polygon fill="none" stroke="black" points="182.5,-124 111.5,-124 111.5,-88 182.5,-88 182.5,-124"/>
<text text-anchor="middle" x="147" y="-103.5" font-family="Helvetica,sans-Serif" font-size="10.00">polynomial</text>
</a>
</g>
</g>
<!-- dir_f30ada7b744033f76dae4428084f7af5&#45;&gt;dir_c8c3c9a4437e07b1ae0892d098d82a3c -->
<g id="edge1" class="edge">
<title>dir_f30ada7b744033f76dae4428084f7af5&#45;&gt;dir_c8c3c9a4437e07b1ae0892d098d82a3c</title>
<path fill="none" stroke="black" d="M134.15,-87.7C127.97,-79.39 120.46,-69.28 113.68,-60.14"/>
<polygon fill="black" stroke="black" points="116.48,-58.04 107.71,-52.1 110.86,-62.22 116.48,-58.04"/>
<g id="a_edge1&#45;headlabel"><a xlink:href="dir_000011_000006.html" target="_top" xlink:title="2">
<text text-anchor="middle" x="120.9" y="-56.74" font-family="Helvetica,sans-Serif" font-size="10.00">2</text>
</a>
</g>
</g>
<!-- dir_3eb17f3a1b5a40a6fbee1ab72e64eb0a -->
<g id="node4" class="node">
<title>dir_3eb17f3a1b5a40a6fbee1ab72e64eb0a</title>
<g id="a_node4"><a xlink:href="dir_3eb17f3a1b5a40a6fbee1ab72e64eb0a.html" target="_top" xlink:title="limiter">
<polygon fill="#eeeeff" stroke="black" points="92,-196 38,-196 38,-160 92,-160 92,-196"/>
<text text-anchor="middle" x="65" y="-175.5" font-family="Helvetica,sans-Serif" font-size="10.00">limiter</text>
</a>
</g>
</g>
<!-- dir_3eb17f3a1b5a40a6fbee1ab72e64eb0a&#45;&gt;dir_c8c3c9a4437e07b1ae0892d098d82a3c -->
<g id="edge2" class="edge">
<title>dir_3eb17f3a1b5a40a6fbee1ab72e64eb0a&#45;&gt;dir_c8c3c9a4437e07b1ae0892d098d82a3c</title>
<path fill="none" stroke="black" d="M48.56,-159.71C33.44,-141.6 15.05,-112.46 27,-88 33.89,-73.9 46.53,-62.47 59.07,-53.87"/>
<polygon fill="black" stroke="black" points="61.12,-56.72 67.66,-48.38 57.35,-50.82 61.12,-56.72"/>
<g id="a_edge2&#45;headlabel"><a xlink:href="dir_000016_000006.html" target="_top" xlink:title="2">
<text text-anchor="middle" x="59.62" y="-58.54" font-family="Helvetica,sans-Serif" font-size="10.00">2</text>
</a>
</g>
</g>
<!-- dir_3eb17f3a1b5a40a6fbee1ab72e64eb0a&#45;&gt;dir_d4ada3be3cf0417758450d654a32218e -->
<g id="edge3" class="edge">
<title>dir_3eb17f3a1b5a40a6fbee1ab72e64eb0a&#45;&gt;dir_d4ada3be3cf0417758450d654a32218e</title>
<path fill="none" stroke="black" d="M65,-159.7C65,-151.98 65,-142.71 65,-134.11"/>
<polygon fill="black" stroke="black" points="68.5,-134.1 65,-124.1 61.5,-134.1 68.5,-134.1"/>
<g id="a_edge3&#45;headlabel"><a xlink:href="dir_000016_000004.html" target="_top" xlink:title="1">
<text text-anchor="middle" x="71.34" y="-135.2" font-family="Helvetica,sans-Serif" font-size="10.00">1</text>
</a>
</g>
</g>
<!-- dir_3eb17f3a1b5a40a6fbee1ab72e64eb0a&#45;&gt;dir_f30ada7b744033f76dae4428084f7af5 -->
<g id="edge4" class="edge">
<title>dir_3eb17f3a1b5a40a6fbee1ab72e64eb0a&#45;&gt;dir_f30ada7b744033f76dae4428084f7af5</title>
<path fill="none" stroke="black" d="M85.27,-159.7C95.5,-150.97 108.06,-140.24 119.18,-130.75"/>
<polygon fill="black" stroke="black" points="121.63,-133.26 126.96,-124.1 117.09,-127.94 121.63,-133.26"/>
<g id="a_edge4&#45;headlabel"><a xlink:href="dir_000016_000011.html" target="_top" xlink:title="3">
<text text-anchor="middle" x="120.74" y="-135.25" font-family="Helvetica,sans-Serif" font-size="10.00">3</text>
</a>
</g>
</g>
</g>
</svg>
