<?xml version="1.0" encoding="UTF-8" standalone="no"?>
<!DOCTYPE svg PUBLIC "-//W3C//DTD SVG 1.1//EN"
 "http://www.w3.org/Graphics/SVG/1.1/DTD/svg11.dtd">
<!-- Generated by graphviz version 2.43.0 (0)
 -->
<!-- Title: include/mini/spatial/fr Pages: 1 -->
<svg width="128pt" height="295pt"
 viewBox="0.00 0.00 127.58 295.00" xmlns="http://www.w3.org/2000/svg" xmlns:xlink="http://www.w3.org/1999/xlink">
<g id="graph0" class="graph" transform="scale(1 1) rotate(0) translate(4 291)">
<title>include/mini/spatial/fr</title>
<polygon fill="white" stroke="transparent" points="-4,4 -4,-291 123.58,-291 123.58,4 -4,4"/>
<g id="clust1" class="cluster">
<title>clusterdir_fc0b6fe8fa7363834f3a0d558455b58c</title>
<g id="a_clust1"><a xlink:href="dir_fc0b6fe8fa7363834f3a0d558455b58c.html" target="_top" xlink:title="spatial">
<polygon fill="#ddddee" stroke="black" points="34,-208 34,-279 104,-279 104,-208 34,-208"/>
<text text-anchor="middle" x="69" y="-267" font-family="Helvetica,sans-Serif" font-size="10.00">spatial</text>
</a>
</g>
</g>
<!-- dir_5bafb79f7b9af0cc872d988adb406c78 -->
<g id="node1" class="node">
<title>dir_5bafb79f7b9af0cc872d988adb406c78</title>
<g id="a_node1"><a xlink:href="dir_5bafb79f7b9af0cc872d988adb406c78.html" target="_top" xlink:title="fr">
<polygon fill="#eeeeff" stroke="black" points="96,-252 42,-252 42,-216 96,-216 96,-252"/>
<text text-anchor="middle" x="69" y="-231.5" font-family="Helvetica,sans-Serif" font-size="10.00">fr</text>
</a>
</g>
</g>
<!-- dir_c8c3c9a4437e07b1ae0892d098d82a3c -->
<g id="node2" class="node">
<title>dir_c8c3c9a4437e07b1ae0892d098d82a3c</title>
<g id="a_node2"><a xlink:href="dir_c8c3c9a4437e07b1ae0892d098d82a3c.html" target="_top" xlink:title="basis">
<polygon fill="none" stroke="black" points="54,-108 0,-108 0,-72 54,-72 54,-108"/>
<text text-anchor="middle" x="27" y="-87.5" font-family="Helvetica,sans-Serif" font-size="10.00">basis</text>
</a>
</g>
</g>
<!-- dir_5bafb79f7b9af0cc872d988adb406c78&#45;&gt;dir_c8c3c9a4437e07b1ae0892d098d82a3c -->
<g id="edge3" class="edge">
<title>dir_5bafb79f7b9af0cc872d988adb406c78&#45;&gt;dir_c8c3c9a4437e07b1ae0892d098d82a3c</title>
<path fill="none" stroke="black" d="M48.62,-215.53C39.19,-206.09 28.99,-193.6 24,-180 16.69,-160.1 18.07,-135.99 20.93,-117.89"/>
<polygon fill="black" stroke="black" points="24.38,-118.47 22.73,-108 17.5,-117.21 24.38,-118.47"/>
<g id="a_edge3&#45;headlabel"><a xlink:href="dir_000015_000006.html" target="_top" xlink:title="2">
<text text-anchor="middle" x="26.53" y="-120.01" font-family="Helvetica,sans-Serif" font-size="10.00">2</text>
</a>
</g>
</g>
<!-- dir_f30ada7b744033f76dae4428084f7af5 -->
<g id="node3" class="node">
<title>dir_f30ada7b744033f76dae4428084f7af5</title>
<g id="a_node3"><a xlink:href="dir_f30ada7b744033f76dae4428084f7af5.html" target="_top" xlink:title="polynomial">
<polygon fill="none" stroke="black" points="104.5,-180 33.5,-180 33.5,-144 104.5,-144 104.5,-180"/>
<text text-anchor="middle" x="69" y="-159.5" font-family="Helvetica,sans-Serif" font-size="10.00">polynomial</text>
</a>
</g>
</g>
<!-- dir_5bafb79f7b9af0cc872d988adb406c78&#45;&gt;dir_f30ada7b744033f76dae4428084f7af5 -->
<g id="edge4" class="edge">
<title>dir_5bafb79f7b9af0cc872d988adb406c78&#45;&gt;dir_f30ada7b744033f76dae4428084f7af5</title>
<path fill="none" stroke="black" d="M69,-215.7C69,-207.98 69,-198.71 69,-190.11"/>
<polygon fill="black" stroke="black" points="72.5,-190.1 69,-180.1 65.5,-190.1 72.5,-190.1"/>
<g id="a_edge4&#45;headlabel"><a xlink:href="dir_000015_000011.html" target="_top" xlink:title="3">
<text text-anchor="middle" x="75.34" y="-191.2" font-family="Helvetica,sans-Serif" font-size="10.00">3</text>
</a>
</g>
</g>
<!-- dir_f79aa91d151ccd05d66e8fd20c96b5c9 -->
<g id="node4" class="node">
<title>dir_f79aa91d151ccd05d66e8fd20c96b5c9</title>
<g id="a_node4"><a xlink:href="dir_f79aa91d151ccd05d66e8fd20c96b5c9.html" target="_top" xlink:title="integrator">
<polygon fill="none" stroke="black" points="114.5,-36 49.5,-36 49.5,0 114.5,0 114.5,-36"/>
<text text-anchor="middle" x="82" y="-15.5" font-family="Helvetica,sans-Serif" font-size="10.00">integrator</text>
</a>
</g>
</g>
<!-- dir_5bafb79f7b9af0cc872d988adb406c78&#45;&gt;dir_f79aa91d151ccd05d66e8fd20c96b5c9 -->
<g id="edge5" class="edge">
<title>dir_5bafb79f7b9af0cc872d988adb406c78&#45;&gt;dir_f79aa91d151ccd05d66e8fd20c96b5c9</title>
<path fill="none" stroke="black" d="M88.47,-215.92C97.82,-206.4 108.05,-193.72 113,-180 129.47,-134.38 110.28,-78.17 95.61,-45.68"/>
<polygon fill="black" stroke="black" points="98.67,-43.95 91.25,-36.39 92.33,-46.93 98.67,-43.95"/>
<g id="a_edge5&#45;headlabel"><a xlink:href="dir_000015_000010.html" target="_top" xlink:title="1">
<text text-anchor="middle" x="102.77" y="-43.5" font-family="Helvetica,sans-Serif" font-size="10.00">1</text>
</a>
</g>
</g>
<!-- dir_c8c3c9a4437e07b1ae0892d098d82a3c&#45;&gt;dir_f79aa91d151ccd05d66e8fd20c96b5c9 -->
<g id="edge6" class="edge">
<title>dir_c8c3c9a4437e07b1ae0892d098d82a3c&#45;&gt;dir_f79aa91d151ccd05d66e8fd20c96b5c9</title>
<path fill="none" stroke="black" d="M40.6,-71.7C47.12,-63.39 55.07,-53.28 62.25,-44.14"/>
<polygon fill="black" stroke="black" points="65.13,-46.13 68.56,-36.1 59.63,-41.81 65.13,-46.13"/>
<g id="a_edge6&#45;headlabel"><a xlink:href="dir_000006_000010.html" target="_top" xlink:title="3">
<text text-anchor="middle" x="65.15" y="-48.21" font-family="Helvetica,sans-Serif" font-size="10.00">3</text>
</a>
</g>
</g>
<!-- dir_f30ada7b744033f76dae4428084f7af5&#45;&gt;dir_c8c3c9a4437e07b1ae0892d098d82a3c -->
<g id="edge1" class="edge">
<title>dir_f30ada7b744033f76dae4428084f7af5&#45;&gt;dir_c8c3c9a4437e07b1ae0892d098d82a3c</title>
<path fill="none" stroke="black" d="M58.62,-143.7C53.74,-135.56 47.81,-125.69 42.42,-116.7"/>
<polygon fill="black" stroke="black" points="45.41,-114.88 37.26,-108.1 39.41,-118.48 45.41,-114.88"/>
<g id="a_edge1&#45;headlabel"><a xlink:href="dir_000011_000006.html" target="_top" xlink:title="2">
<text text-anchor="middle" x="49.69" y="-114" font-family="Helvetica,sans-Serif" font-size="10.00">2</text>
</a>
</g>
</g>
<!-- dir_f30ada7b744033f76dae4428084f7af5&#45;&gt;dir_f79aa91d151ccd05d66e8fd20c96b5c9 -->
<g id="edge2" class="edge">
<title>dir_f30ada7b744033f76dae4428084f7af5&#45;&gt;dir_f79aa91d151ccd05d66e8fd20c96b5c9</title>
<path fill="none" stroke="black" d="M70.57,-143.87C72.78,-119.67 76.85,-75.21 79.49,-46.39"/>
<polygon fill="black" stroke="black" points="83,-46.47 80.43,-36.19 76.03,-45.83 83,-46.47"/>
<g id="a_edge2&#45;headlabel"><a xlink:href="dir_000011_000010.html" target="_top" xlink:title="3">
<text text-anchor="middle" x="85.5" y="-47.81" font-family="Helvetica,sans-Serif" font-size="10.00">3</text>
</a>
</g>
</g>
</g>
</svg>
