<?xml version="1.0" encoding="UTF-8" standalone="no"?>
<!DOCTYPE svg PUBLIC "-//W3C//DTD SVG 1.1//EN"
 "http://www.w3.org/Graphics/SVG/1.1/DTD/svg11.dtd">
<!-- Generated by graphviz version 2.43.0 (0)
 -->
<!-- Title: include/mini/riemann/rotated/euler.hpp Pages: 1 -->
<svg width="705pt" height="285pt"
 viewBox="0.00 0.00 705.00 285.00" xmlns="http://www.w3.org/2000/svg" xmlns:xlink="http://www.w3.org/1999/xlink">
<g id="graph0" class="graph" transform="scale(1 1) rotate(0) translate(4 281)">
<title>include/mini/riemann/rotated/euler.hpp</title>
<polygon fill="white" stroke="transparent" points="-4,4 -4,-281 701,-281 701,4 -4,4"/>
<!-- Node1 -->
<g id="node1" class="node">
<title>Node1</title>
<g id="a_node1"><a xlink:title=" ">
<polygon fill="#bfbfbf" stroke="black" points="277,-246.5 277,-276.5 397,-276.5 397,-246.5 277,-246.5"/>
<text text-anchor="start" x="285" y="-264.5" font-family="Helvetica,sans-Serif" font-size="10.00">include/mini/riemann</text>
<text text-anchor="middle" x="337" y="-253.5" font-family="Helvetica,sans-Serif" font-size="10.00">/rotated/euler.hpp</text>
</a>
</g>
</g>
<!-- Node2 -->
<g id="node2" class="node">
<title>Node2</title>
<g id="a_node2"><a xlink:title=" ">
<polygon fill="white" stroke="#bfbfbf" points="12,-56.5 12,-75.5 72,-75.5 72,-56.5 12,-56.5"/>
<text text-anchor="middle" x="42" y="-63.5" font-family="Helvetica,sans-Serif" font-size="10.00">concepts</text>
</a>
</g>
</g>
<!-- Node1&#45;&gt;Node2 -->
<g id="edge1" class="edge">
<title>Node1&#45;&gt;Node2</title>
<path fill="none" stroke="midnightblue" d="M276.71,-252.73C240.32,-245.87 194.32,-233.18 159,-210 108.41,-176.8 68.84,-114.86 51.53,-84.58"/>
<polygon fill="midnightblue" stroke="midnightblue" points="54.45,-82.64 46.52,-75.61 48.34,-86.05 54.45,-82.64"/>
</g>
<!-- Node3 -->
<g id="node3" class="node">
<title>Node3</title>
<g id="a_node3"><a xlink:title=" ">
<polygon fill="white" stroke="#bfbfbf" points="49,-0.5 49,-19.5 113,-19.5 113,-0.5 49,-0.5"/>
<text text-anchor="middle" x="81" y="-7.5" font-family="Helvetica,sans-Serif" font-size="10.00">algorithm</text>
</a>
</g>
</g>
<!-- Node1&#45;&gt;Node3 -->
<g id="edge2" class="edge">
<title>Node1&#45;&gt;Node3</title>
<path fill="none" stroke="midnightblue" d="M276.64,-256.48C230.88,-251.16 167.92,-238.78 120,-210 52.22,-169.29 30.77,-150.03 3,-76 -0.12,-67.68 -1.44,-63.7 3,-56 11.68,-40.98 27.49,-30.52 42.62,-23.5"/>
<polygon fill="midnightblue" stroke="midnightblue" points="44.05,-26.69 51.88,-19.56 41.31,-20.25 44.05,-26.69"/>
</g>
<!-- Node4 -->
<g id="node4" class="node">
<title>Node4</title>
<g id="a_node4"><a xlink:title=" ">
<polygon fill="white" stroke="#bfbfbf" points="334.5,-185 334.5,-204 403.5,-204 403.5,-185 334.5,-185"/>
<text text-anchor="middle" x="369" y="-192" font-family="Helvetica,sans-Serif" font-size="10.00">type_traits</text>
</a>
</g>
</g>
<!-- Node1&#45;&gt;Node4 -->
<g id="edge3" class="edge">
<title>Node1&#45;&gt;Node4</title>
<path fill="none" stroke="midnightblue" d="M343.95,-246.4C348.74,-236.66 355.15,-223.65 360.28,-213.21"/>
<polygon fill="midnightblue" stroke="midnightblue" points="363.45,-214.71 364.72,-204.19 357.17,-211.62 363.45,-214.71"/>
</g>
<!-- Node5 -->
<g id="node5" class="node">
<title>Node5</title>
<g id="a_node5"><a xlink:title=" ">
<polygon fill="white" stroke="#bfbfbf" points="421.5,-185 421.5,-204 466.5,-204 466.5,-185 421.5,-185"/>
<text text-anchor="middle" x="444" y="-192" font-family="Helvetica,sans-Serif" font-size="10.00">utility</text>
</a>
</g>
</g>
<!-- Node1&#45;&gt;Node5 -->
<g id="edge4" class="edge">
<title>Node1&#45;&gt;Node5</title>
<path fill="none" stroke="midnightblue" d="M360.22,-246.4C378.33,-235.39 403.34,-220.2 421.32,-209.28"/>
<polygon fill="midnightblue" stroke="midnightblue" points="423.27,-212.19 430,-204.01 419.64,-206.21 423.27,-212.19"/>
</g>
<!-- Node6 -->
<g id="node6" class="node">
<title>Node6</title>
<g id="a_node6"><a xlink:title=" ">
<polygon fill="white" stroke="#bfbfbf" points="485,-185 485,-204 545,-204 545,-185 485,-185"/>
<text text-anchor="middle" x="515" y="-192" font-family="Helvetica,sans-Serif" font-size="10.00">iostream</text>
</a>
</g>
</g>
<!-- Node1&#45;&gt;Node6 -->
<g id="edge5" class="edge">
<title>Node1&#45;&gt;Node6</title>
<path fill="none" stroke="midnightblue" d="M375.98,-246.43C403.86,-236.34 442.26,-222.4 476,-210 478.1,-209.23 480.25,-208.44 482.43,-207.63"/>
<polygon fill="midnightblue" stroke="midnightblue" points="483.76,-210.87 491.92,-204.12 481.32,-204.31 483.76,-210.87"/>
</g>
<!-- Node7 -->
<g id="node7" class="node">
<title>Node7</title>
<g id="a_node7"><a xlink:href="algebra_2eigen_8hpp.html" target="_top" xlink:title=" ">
<polygon fill="white" stroke="black" points="266.5,-56.5 266.5,-75.5 395.5,-75.5 395.5,-56.5 266.5,-56.5"/>
<text text-anchor="middle" x="331" y="-63.5" font-family="Helvetica,sans-Serif" font-size="10.00">mini/algebra/eigen.hpp</text>
</a>
</g>
</g>
<!-- Node1&#45;&gt;Node7 -->
<g id="edge6" class="edge">
<title>Node1&#45;&gt;Node7</title>
<path fill="none" stroke="midnightblue" d="M333.1,-246.48C330.51,-236.42 327.35,-222.49 326,-210 321.23,-165.7 325.6,-113.27 328.65,-85.86"/>
<polygon fill="midnightblue" stroke="midnightblue" points="332.14,-86.08 329.84,-75.74 325.19,-85.26 332.14,-86.08"/>
</g>
<!-- Node11 -->
<g id="node11" class="node">
<title>Node11</title>
<g id="a_node11"><a xlink:href="riemann_2euler_2eigen_8hpp.html" target="_top" xlink:title=" ">
<polygon fill="white" stroke="black" points="168,-179.5 168,-209.5 278,-209.5 278,-179.5 168,-179.5"/>
<text text-anchor="start" x="176" y="-197.5" font-family="Helvetica,sans-Serif" font-size="10.00">mini/riemann/euler</text>
<text text-anchor="middle" x="223" y="-186.5" font-family="Helvetica,sans-Serif" font-size="10.00">/eigen.hpp</text>
</a>
</g>
</g>
<!-- Node1&#45;&gt;Node11 -->
<g id="edge11" class="edge">
<title>Node1&#45;&gt;Node11</title>
<path fill="none" stroke="midnightblue" d="M312.27,-246.4C295.98,-237.11 274.46,-224.84 256.63,-214.67"/>
<polygon fill="midnightblue" stroke="midnightblue" points="258.11,-211.49 247.69,-209.58 254.64,-217.57 258.11,-211.49"/>
</g>
<!-- Node15 -->
<g id="node15" class="node">
<title>Node15</title>
<g id="a_node15"><a xlink:href="index_8hpp.html" target="_top" xlink:title=" ">
<polygon fill="white" stroke="black" points="563,-185 563,-204 697,-204 697,-185 563,-185"/>
<text text-anchor="middle" x="630" y="-192" font-family="Helvetica,sans-Serif" font-size="10.00">mini/constant/index.hpp</text>
</a>
</g>
</g>
<!-- Node1&#45;&gt;Node15 -->
<g id="edge19" class="edge">
<title>Node1&#45;&gt;Node15</title>
<path fill="none" stroke="midnightblue" d="M397.36,-247.11C451.9,-235.01 531.15,-217.43 581.62,-206.23"/>
<polygon fill="midnightblue" stroke="midnightblue" points="582.63,-209.6 591.63,-204.01 581.11,-202.76 582.63,-209.6"/>
</g>
<!-- Node7&#45;&gt;Node3 -->
<g id="edge7" class="edge">
<title>Node7&#45;&gt;Node3</title>
<path fill="none" stroke="midnightblue" d="M291.39,-56.44C245.47,-46.52 170.1,-30.24 123.13,-20.1"/>
<polygon fill="midnightblue" stroke="midnightblue" points="123.79,-16.66 113.28,-17.97 122.31,-23.5 123.79,-16.66"/>
</g>
<!-- Node8 -->
<g id="node8" class="node">
<title>Node8</title>
<g id="a_node8"><a xlink:title=" ">
<polygon fill="white" stroke="#bfbfbf" points="221.5,-0.5 221.5,-19.5 268.5,-19.5 268.5,-0.5 221.5,-0.5"/>
<text text-anchor="middle" x="245" y="-7.5" font-family="Helvetica,sans-Serif" font-size="10.00">cmath</text>
</a>
</g>
</g>
<!-- Node7&#45;&gt;Node8 -->
<g id="edge8" class="edge">
<title>Node7&#45;&gt;Node8</title>
<path fill="none" stroke="midnightblue" d="M317.19,-56.32C303.77,-47.9 283.18,-34.97 267.42,-25.07"/>
<polygon fill="midnightblue" stroke="midnightblue" points="269.12,-22.01 258.79,-19.65 265.39,-27.94 269.12,-22.01"/>
</g>
<!-- Node9 -->
<g id="node9" class="node">
<title>Node9</title>
<g id="a_node9"><a xlink:title=" ">
<polygon fill="white" stroke="#bfbfbf" points="299.5,-0.5 299.5,-19.5 348.5,-19.5 348.5,-0.5 299.5,-0.5"/>
<text text-anchor="middle" x="324" y="-7.5" font-family="Helvetica,sans-Serif" font-size="10.00">cstdlib</text>
</a>
</g>
</g>
<!-- Node7&#45;&gt;Node9 -->
<g id="edge9" class="edge">
<title>Node7&#45;&gt;Node9</title>
<path fill="none" stroke="midnightblue" d="M329.85,-56.08C328.92,-48.93 327.59,-38.64 326.43,-29.69"/>
<polygon fill="midnightblue" stroke="midnightblue" points="329.89,-29.22 325.14,-19.75 322.95,-30.12 329.89,-29.22"/>
</g>
<!-- Node10 -->
<g id="node10" class="node">
<title>Node10</title>
<g id="a_node10"><a xlink:title=" ">
<polygon fill="white" stroke="#bfbfbf" points="367,-0.5 367,-19.5 441,-19.5 441,-0.5 367,-0.5"/>
<text text-anchor="middle" x="404" y="-7.5" font-family="Helvetica,sans-Serif" font-size="10.00">Eigen/Eigen</text>
</a>
</g>
</g>
<!-- Node7&#45;&gt;Node10 -->
<g id="edge10" class="edge">
<title>Node7&#45;&gt;Node10</title>
<path fill="none" stroke="midnightblue" d="M342.73,-56.32C353.84,-48.11 370.75,-35.6 383.99,-25.81"/>
<polygon fill="midnightblue" stroke="midnightblue" points="386.1,-28.59 392.06,-19.83 381.94,-22.97 386.1,-28.59"/>
</g>
<!-- Node11&#45;&gt;Node7 -->
<g id="edge12" class="edge">
<title>Node11&#45;&gt;Node7</title>
<path fill="none" stroke="midnightblue" d="M234.92,-179.32C248.64,-163.03 271.86,-135.51 292,-112 300.17,-102.46 309.37,-91.84 316.79,-83.31"/>
<polygon fill="midnightblue" stroke="midnightblue" points="319.57,-85.44 323.5,-75.6 314.29,-80.85 319.57,-85.44"/>
</g>
<!-- Node12 -->
<g id="node12" class="node">
<title>Node12</title>
<g id="a_node12"><a xlink:href="types_8hpp.html" target="_top" xlink:title=" ">
<polygon fill="white" stroke="black" points="130,-112.5 130,-142.5 240,-142.5 240,-112.5 130,-112.5"/>
<text text-anchor="start" x="138" y="-130.5" font-family="Helvetica,sans-Serif" font-size="10.00">mini/riemann/euler</text>
<text text-anchor="middle" x="185" y="-119.5" font-family="Helvetica,sans-Serif" font-size="10.00">/types.hpp</text>
</a>
</g>
</g>
<!-- Node11&#45;&gt;Node12 -->
<g id="edge13" class="edge">
<title>Node11&#45;&gt;Node12</title>
<path fill="none" stroke="midnightblue" d="M214.76,-179.4C209.98,-171.22 203.84,-160.73 198.39,-151.39"/>
<polygon fill="midnightblue" stroke="midnightblue" points="201.3,-149.44 193.23,-142.58 195.26,-152.98 201.3,-149.44"/>
</g>
<!-- Node12&#45;&gt;Node2 -->
<g id="edge14" class="edge">
<title>Node12&#45;&gt;Node2</title>
<path fill="none" stroke="midnightblue" d="M151.11,-112.4C127.12,-102.42 95.23,-89.15 72.13,-79.53"/>
<polygon fill="midnightblue" stroke="midnightblue" points="73.39,-76.27 62.81,-75.66 70.7,-82.73 73.39,-76.27"/>
</g>
<!-- Node12&#45;&gt;Node7 -->
<g id="edge18" class="edge">
<title>Node12&#45;&gt;Node7</title>
<path fill="none" stroke="midnightblue" d="M219.6,-112.4C244.1,-102.42 276.66,-89.15 300.25,-79.53"/>
<polygon fill="midnightblue" stroke="midnightblue" points="301.82,-82.67 309.76,-75.66 299.18,-76.19 301.82,-82.67"/>
</g>
<!-- Node12&#45;&gt;Node8 -->
<g id="edge16" class="edge">
<title>Node12&#45;&gt;Node8</title>
<path fill="none" stroke="midnightblue" d="M195.67,-112.42C202.84,-102.56 212.18,-88.89 219,-76 226.99,-60.89 234.05,-42.77 238.79,-29.5"/>
<polygon fill="midnightblue" stroke="midnightblue" points="242.23,-30.27 242.19,-19.67 235.61,-27.98 242.23,-30.27"/>
</g>
<!-- Node13 -->
<g id="node13" class="node">
<title>Node13</title>
<g id="a_node13"><a xlink:title=" ">
<polygon fill="white" stroke="#bfbfbf" points="90,-56.5 90,-75.5 142,-75.5 142,-56.5 90,-56.5"/>
<text text-anchor="middle" x="116" y="-63.5" font-family="Helvetica,sans-Serif" font-size="10.00">cassert</text>
</a>
</g>
</g>
<!-- Node12&#45;&gt;Node13 -->
<g id="edge15" class="edge">
<title>Node12&#45;&gt;Node13</title>
<path fill="none" stroke="midnightblue" d="M168.65,-112.4C158.11,-103.31 144.4,-91.49 133.62,-82.19"/>
<polygon fill="midnightblue" stroke="midnightblue" points="135.9,-79.54 126.04,-75.66 131.33,-84.84 135.9,-79.54"/>
</g>
<!-- Node14 -->
<g id="node14" class="node">
<title>Node14</title>
<g id="a_node14"><a xlink:title=" ">
<polygon fill="white" stroke="#bfbfbf" points="160,-56.5 160,-75.5 210,-75.5 210,-56.5 160,-56.5"/>
<text text-anchor="middle" x="185" y="-63.5" font-family="Helvetica,sans-Serif" font-size="10.00">cstring</text>
</a>
</g>
</g>
<!-- Node12&#45;&gt;Node14 -->
<g id="edge17" class="edge">
<title>Node12&#45;&gt;Node14</title>
<path fill="none" stroke="midnightblue" d="M185,-112.4C185,-104.47 185,-94.46 185,-85.86"/>
<polygon fill="midnightblue" stroke="midnightblue" points="188.5,-85.66 185,-75.66 181.5,-85.66 188.5,-85.66"/>
</g>
</g>
</svg>
