<?xml version="1.0" encoding="UTF-8" standalone="no"?>
<!DOCTYPE svg PUBLIC "-//W3C//DTD SVG 1.1//EN"
 "http://www.w3.org/Graphics/SVG/1.1/DTD/svg11.dtd">
<!-- Generated by graphviz version 2.43.0 (0)
 -->
<!-- Title: include/mini/riemann/euler/exact.hpp Pages: 1 -->
<svg width="428pt" height="218pt"
 viewBox="0.00 0.00 428.00 218.00" xmlns="http://www.w3.org/2000/svg" xmlns:xlink="http://www.w3.org/1999/xlink">
<g id="graph0" class="graph" transform="scale(1 1) rotate(0) translate(4 214)">
<title>include/mini/riemann/euler/exact.hpp</title>
<polygon fill="white" stroke="transparent" points="-4,4 -4,-214 424,-214 424,4 -4,4"/>
<!-- Node1 -->
<g id="node1" class="node">
<title>Node1</title>
<g id="a_node1"><a xlink:title=" ">
<polygon fill="#bfbfbf" stroke="black" points="0,-179.5 0,-209.5 120,-209.5 120,-179.5 0,-179.5"/>
<text text-anchor="start" x="8" y="-197.5" font-family="Helvetica,sans-Serif" font-size="10.00">include/mini/riemann</text>
<text text-anchor="middle" x="60" y="-186.5" font-family="Helvetica,sans-Serif" font-size="10.00">/euler/exact.hpp</text>
</a>
</g>
</g>
<!-- Node2 -->
<g id="node2" class="node">
<title>Node2</title>
<g id="a_node2"><a xlink:title=" ">
<polygon fill="white" stroke="#bfbfbf" points="34,-56.5 34,-75.5 86,-75.5 86,-56.5 34,-56.5"/>
<text text-anchor="middle" x="60" y="-63.5" font-family="Helvetica,sans-Serif" font-size="10.00">cassert</text>
</a>
</g>
</g>
<!-- Node1&#45;&gt;Node2 -->
<g id="edge1" class="edge">
<title>Node1&#45;&gt;Node2</title>
<path fill="none" stroke="midnightblue" d="M60,-179.48C60,-156.72 60,-111.7 60,-86.06"/>
<polygon fill="midnightblue" stroke="midnightblue" points="63.5,-85.79 60,-75.79 56.5,-85.79 63.5,-85.79"/>
</g>
<!-- Node3 -->
<g id="node3" class="node">
<title>Node3</title>
<g id="a_node3"><a xlink:title=" ">
<polygon fill="white" stroke="#bfbfbf" points="130.5,-0.5 130.5,-19.5 177.5,-19.5 177.5,-0.5 130.5,-0.5"/>
<text text-anchor="middle" x="154" y="-7.5" font-family="Helvetica,sans-Serif" font-size="10.00">cmath</text>
</a>
</g>
</g>
<!-- Node1&#45;&gt;Node3 -->
<g id="edge2" class="edge">
<title>Node1&#45;&gt;Node3</title>
<path fill="none" stroke="midnightblue" d="M49.4,-179.25C30.99,-152.62 -2.39,-94.56 25,-56 46.44,-25.81 89.7,-15.71 120.19,-12.42"/>
<polygon fill="midnightblue" stroke="midnightblue" points="120.74,-15.88 130.39,-11.52 120.12,-8.91 120.74,-15.88"/>
</g>
<!-- Node4 -->
<g id="node4" class="node">
<title>Node4</title>
<g id="a_node4"><a xlink:href="types_8hpp.html" target="_top" xlink:title=" ">
<polygon fill="white" stroke="black" points="107,-112.5 107,-142.5 217,-142.5 217,-112.5 107,-112.5"/>
<text text-anchor="start" x="115" y="-130.5" font-family="Helvetica,sans-Serif" font-size="10.00">mini/riemann/euler</text>
<text text-anchor="middle" x="162" y="-119.5" font-family="Helvetica,sans-Serif" font-size="10.00">/types.hpp</text>
</a>
</g>
</g>
<!-- Node1&#45;&gt;Node4 -->
<g id="edge3" class="edge">
<title>Node1&#45;&gt;Node4</title>
<path fill="none" stroke="midnightblue" d="M82.13,-179.4C96.57,-170.2 115.6,-158.07 131.47,-147.95"/>
<polygon fill="midnightblue" stroke="midnightblue" points="133.36,-150.9 139.91,-142.58 129.6,-145 133.36,-150.9"/>
</g>
<!-- Node4&#45;&gt;Node2 -->
<g id="edge5" class="edge">
<title>Node4&#45;&gt;Node2</title>
<path fill="none" stroke="midnightblue" d="M137.83,-112.4C121.48,-102.86 99.99,-90.32 83.73,-80.84"/>
<polygon fill="midnightblue" stroke="midnightblue" points="85.24,-77.67 74.84,-75.66 81.72,-83.72 85.24,-77.67"/>
</g>
<!-- Node4&#45;&gt;Node3 -->
<g id="edge6" class="edge">
<title>Node4&#45;&gt;Node3</title>
<path fill="none" stroke="midnightblue" d="M163.13,-112.42C164.06,-98.16 164.93,-75.49 163,-56 162.13,-47.17 160.31,-37.51 158.53,-29.4"/>
<polygon fill="midnightblue" stroke="midnightblue" points="161.92,-28.49 156.23,-19.55 155.1,-30.08 161.92,-28.49"/>
</g>
<!-- Node5 -->
<g id="node5" class="node">
<title>Node5</title>
<g id="a_node5"><a xlink:title=" ">
<polygon fill="white" stroke="#bfbfbf" points="358,-56.5 358,-75.5 418,-75.5 418,-56.5 358,-56.5"/>
<text text-anchor="middle" x="388" y="-63.5" font-family="Helvetica,sans-Serif" font-size="10.00">concepts</text>
</a>
</g>
</g>
<!-- Node4&#45;&gt;Node5 -->
<g id="edge4" class="edge">
<title>Node4&#45;&gt;Node5</title>
<path fill="none" stroke="midnightblue" d="M215.27,-112.47C255.95,-101.77 311.11,-87.24 348.05,-77.52"/>
<polygon fill="midnightblue" stroke="midnightblue" points="349.18,-80.84 357.96,-74.91 347.4,-74.07 349.18,-80.84"/>
</g>
<!-- Node6 -->
<g id="node6" class="node">
<title>Node6</title>
<g id="a_node6"><a xlink:title=" ">
<polygon fill="white" stroke="#bfbfbf" points="104,-56.5 104,-75.5 154,-75.5 154,-56.5 104,-56.5"/>
<text text-anchor="middle" x="129" y="-63.5" font-family="Helvetica,sans-Serif" font-size="10.00">cstring</text>
</a>
</g>
</g>
<!-- Node4&#45;&gt;Node6 -->
<g id="edge7" class="edge">
<title>Node4&#45;&gt;Node6</title>
<path fill="none" stroke="midnightblue" d="M154.18,-112.4C149.53,-104.02 143.6,-93.33 138.66,-84.42"/>
<polygon fill="midnightblue" stroke="midnightblue" points="141.71,-82.71 133.8,-75.66 135.59,-86.1 141.71,-82.71"/>
</g>
<!-- Node7 -->
<g id="node7" class="node">
<title>Node7</title>
<g id="a_node7"><a xlink:href="algebra_2eigen_8hpp.html" target="_top" xlink:title=" ">
<polygon fill="white" stroke="black" points="210.5,-56.5 210.5,-75.5 339.5,-75.5 339.5,-56.5 210.5,-56.5"/>
<text text-anchor="middle" x="275" y="-63.5" font-family="Helvetica,sans-Serif" font-size="10.00">mini/algebra/eigen.hpp</text>
</a>
</g>
</g>
<!-- Node4&#45;&gt;Node7 -->
<g id="edge8" class="edge">
<title>Node4&#45;&gt;Node7</title>
<path fill="none" stroke="midnightblue" d="M188.78,-112.4C207.06,-102.77 231.15,-90.09 249.21,-80.58"/>
<polygon fill="midnightblue" stroke="midnightblue" points="251.34,-83.41 258.56,-75.66 248.08,-77.22 251.34,-83.41"/>
</g>
<!-- Node7&#45;&gt;Node3 -->
<g id="edge10" class="edge">
<title>Node7&#45;&gt;Node3</title>
<path fill="none" stroke="midnightblue" d="M255.83,-56.44C236.09,-47.64 205.11,-33.81 182.51,-23.72"/>
<polygon fill="midnightblue" stroke="midnightblue" points="183.64,-20.4 173.08,-19.52 180.79,-26.79 183.64,-20.4"/>
</g>
<!-- Node8 -->
<g id="node8" class="node">
<title>Node8</title>
<g id="a_node8"><a xlink:title=" ">
<polygon fill="white" stroke="#bfbfbf" points="196,-0.5 196,-19.5 260,-19.5 260,-0.5 196,-0.5"/>
<text text-anchor="middle" x="228" y="-7.5" font-family="Helvetica,sans-Serif" font-size="10.00">algorithm</text>
</a>
</g>
</g>
<!-- Node7&#45;&gt;Node8 -->
<g id="edge9" class="edge">
<title>Node7&#45;&gt;Node8</title>
<path fill="none" stroke="midnightblue" d="M267.24,-56.08C260.46,-48.3 250.46,-36.8 242.24,-27.37"/>
<polygon fill="midnightblue" stroke="midnightblue" points="244.82,-25 235.62,-19.75 239.54,-29.59 244.82,-25"/>
</g>
<!-- Node9 -->
<g id="node9" class="node">
<title>Node9</title>
<g id="a_node9"><a xlink:title=" ">
<polygon fill="white" stroke="#bfbfbf" points="278.5,-0.5 278.5,-19.5 327.5,-19.5 327.5,-0.5 278.5,-0.5"/>
<text text-anchor="middle" x="303" y="-7.5" font-family="Helvetica,sans-Serif" font-size="10.00">cstdlib</text>
</a>
</g>
</g>
<!-- Node7&#45;&gt;Node9 -->
<g id="edge11" class="edge">
<title>Node7&#45;&gt;Node9</title>
<path fill="none" stroke="midnightblue" d="M279.62,-56.08C283.46,-48.69 289.02,-37.95 293.76,-28.81"/>
<polygon fill="midnightblue" stroke="midnightblue" points="296.97,-30.24 298.46,-19.75 290.75,-27.02 296.97,-30.24"/>
</g>
<!-- Node10 -->
<g id="node10" class="node">
<title>Node10</title>
<g id="a_node10"><a xlink:title=" ">
<polygon fill="white" stroke="#bfbfbf" points="346,-0.5 346,-19.5 420,-19.5 420,-0.5 346,-0.5"/>
<text text-anchor="middle" x="383" y="-7.5" font-family="Helvetica,sans-Serif" font-size="10.00">Eigen/Eigen</text>
</a>
</g>
</g>
<!-- Node7&#45;&gt;Node10 -->
<g id="edge12" class="edge">
<title>Node7&#45;&gt;Node10</title>
<path fill="none" stroke="midnightblue" d="M292.35,-56.32C309.67,-47.66 336.52,-34.24 356.5,-24.25"/>
<polygon fill="midnightblue" stroke="midnightblue" points="358.31,-27.26 365.69,-19.65 355.18,-21 358.31,-27.26"/>
</g>
</g>
</svg>
