<?xml version="1.0" encoding="UTF-8" standalone="no"?>
<!DOCTYPE svg PUBLIC "-//W3C//DTD SVG 1.1//EN"
 "http://www.w3.org/Graphics/SVG/1.1/DTD/svg11.dtd">
<!-- Generated by graphviz version 2.43.0 (0)
 -->
<!-- Title: include/mini/polynomial/expansion.hpp Pages: 1 -->
<svg width="443pt" height="240pt"
 viewBox="0.00 0.00 442.50 240.00" xmlns="http://www.w3.org/2000/svg" xmlns:xlink="http://www.w3.org/1999/xlink">
<g id="graph0" class="graph" transform="scale(1 1) rotate(0) translate(4 236)">
<title>include/mini/polynomial/expansion.hpp</title>
<polygon fill="white" stroke="transparent" points="-4,4 -4,-236 438.5,-236 438.5,4 -4,4"/>
<!-- Node1 -->
<g id="node1" class="node">
<title>Node1</title>
<g id="a_node1"><a xlink:title=" ">
<polygon fill="#bfbfbf" stroke="black" points="210.5,-201.5 210.5,-231.5 344.5,-231.5 344.5,-201.5 210.5,-201.5"/>
<text text-anchor="start" x="218.5" y="-219.5" font-family="Helvetica,sans-Serif" font-size="10.00">include/mini/polynomial</text>
<text text-anchor="middle" x="277.5" y="-208.5" font-family="Helvetica,sans-Serif" font-size="10.00">/expansion.hpp</text>
</a>
</g>
</g>
<!-- Node2 -->
<g id="node2" class="node">
<title>Node2</title>
<g id="a_node2"><a xlink:href="polynomial_2hexahedron_8hpp.html" target="_top" xlink:title=" ">
<polygon fill="white" stroke="black" points="134.5,-134.5 134.5,-164.5 268.5,-164.5 268.5,-134.5 134.5,-134.5"/>
<text text-anchor="start" x="142.5" y="-152.5" font-family="Helvetica,sans-Serif" font-size="10.00">include/mini/polynomial</text>
<text text-anchor="middle" x="201.5" y="-141.5" font-family="Helvetica,sans-Serif" font-size="10.00">/hexahedron.hpp</text>
</a>
</g>
</g>
<!-- Node1&#45;&gt;Node2 -->
<g id="edge1" class="edge">
<title>Node1&#45;&gt;Node2</title>
<path fill="none" stroke="midnightblue" d="M253.39,-194.88C241.84,-185.01 228.31,-173.43 217.96,-164.58"/>
<polygon fill="midnightblue" stroke="midnightblue" points="251.13,-197.56 261.01,-201.4 255.68,-192.24 251.13,-197.56"/>
</g>
<!-- Node6 -->
<g id="node6" class="node">
<title>Node6</title>
<g id="a_node6"><a xlink:href="projection_8hpp.html" target="_top" xlink:title=" ">
<polygon fill="white" stroke="black" points="293.5,-134.5 293.5,-164.5 427.5,-164.5 427.5,-134.5 293.5,-134.5"/>
<text text-anchor="start" x="301.5" y="-152.5" font-family="Helvetica,sans-Serif" font-size="10.00">include/mini/polynomial</text>
<text text-anchor="middle" x="360.5" y="-141.5" font-family="Helvetica,sans-Serif" font-size="10.00">/projection.hpp</text>
</a>
</g>
</g>
<!-- Node1&#45;&gt;Node6 -->
<g id="edge6" class="edge">
<title>Node1&#45;&gt;Node6</title>
<path fill="none" stroke="midnightblue" d="M303.46,-195.17C316.15,-185.23 331.11,-173.51 342.53,-164.58"/>
<polygon fill="midnightblue" stroke="midnightblue" points="301.22,-192.47 295.51,-201.4 305.54,-197.99 301.22,-192.47"/>
</g>
<!-- Node3 -->
<g id="node3" class="node">
<title>Node3</title>
<g id="a_node3"><a xlink:href="spatial_2dg_2lobatto_8hpp.html" target="_top" xlink:title=" ">
<polygon fill="white" stroke="black" points="0,-67.5 0,-97.5 113,-97.5 113,-67.5 0,-67.5"/>
<text text-anchor="start" x="8" y="-85.5" font-family="Helvetica,sans-Serif" font-size="10.00">include/mini/spatial</text>
<text text-anchor="middle" x="56.5" y="-74.5" font-family="Helvetica,sans-Serif" font-size="10.00">/dg/lobatto.hpp</text>
</a>
</g>
</g>
<!-- Node2&#45;&gt;Node3 -->
<g id="edge2" class="edge">
<title>Node2&#45;&gt;Node3</title>
<path fill="none" stroke="midnightblue" d="M160.83,-130.27C137.74,-119.92 109.26,-107.15 87.9,-97.58"/>
<polygon fill="midnightblue" stroke="midnightblue" points="159.48,-133.5 170.04,-134.4 162.34,-127.11 159.48,-133.5"/>
</g>
<!-- Node4 -->
<g id="node4" class="node">
<title>Node4</title>
<g id="a_node4"><a xlink:href="fr_2general_8hpp.html" target="_top" xlink:title=" ">
<polygon fill="white" stroke="black" points="131,-67.5 131,-97.5 244,-97.5 244,-67.5 131,-67.5"/>
<text text-anchor="start" x="139" y="-85.5" font-family="Helvetica,sans-Serif" font-size="10.00">include/mini/spatial</text>
<text text-anchor="middle" x="187.5" y="-74.5" font-family="Helvetica,sans-Serif" font-size="10.00">/fr/general.hpp</text>
</a>
</g>
</g>
<!-- Node2&#45;&gt;Node4 -->
<g id="edge3" class="edge">
<title>Node2&#45;&gt;Node4</title>
<path fill="none" stroke="midnightblue" d="M196.31,-124.4C194.36,-115.37 192.22,-105.41 190.53,-97.58"/>
<polygon fill="midnightblue" stroke="midnightblue" points="192.94,-125.36 198.46,-134.4 199.78,-123.88 192.94,-125.36"/>
</g>
<!-- Node5 -->
<g id="node5" class="node">
<title>Node5</title>
<g id="a_node5"><a xlink:href="spatial_2fr_2lobatto_8hpp.html" target="_top" xlink:title=" ">
<polygon fill="white" stroke="black" points="173,-0.5 173,-30.5 286,-30.5 286,-0.5 173,-0.5"/>
<text text-anchor="start" x="181" y="-18.5" font-family="Helvetica,sans-Serif" font-size="10.00">include/mini/spatial</text>
<text text-anchor="middle" x="229.5" y="-7.5" font-family="Helvetica,sans-Serif" font-size="10.00">/fr/lobatto.hpp</text>
</a>
</g>
</g>
<!-- Node2&#45;&gt;Node5 -->
<g id="edge5" class="edge">
<title>Node2&#45;&gt;Node5</title>
<path fill="none" stroke="midnightblue" d="M229.95,-127.85C238.91,-119.68 247.71,-109.47 252.5,-98 262.01,-75.2 249.13,-47.23 239.16,-30.69"/>
<polygon fill="midnightblue" stroke="midnightblue" points="227.48,-125.36 222.13,-134.5 232.02,-130.69 227.48,-125.36"/>
</g>
<!-- Node4&#45;&gt;Node5 -->
<g id="edge4" class="edge">
<title>Node4&#45;&gt;Node5</title>
<path fill="none" stroke="midnightblue" d="M202.12,-58.87C208.2,-49.46 215.07,-38.83 220.4,-30.58"/>
<polygon fill="midnightblue" stroke="midnightblue" points="199.1,-57.1 196.61,-67.4 204.98,-60.9 199.1,-57.1"/>
</g>
<!-- Node7 -->
<g id="node7" class="node">
<title>Node7</title>
<g id="a_node7"><a xlink:href="extrapolation_8hpp.html" target="_top" xlink:title=" ">
<polygon fill="white" stroke="black" points="300.5,-67.5 300.5,-97.5 434.5,-97.5 434.5,-67.5 300.5,-67.5"/>
<text text-anchor="start" x="308.5" y="-85.5" font-family="Helvetica,sans-Serif" font-size="10.00">include/mini/polynomial</text>
<text text-anchor="middle" x="367.5" y="-74.5" font-family="Helvetica,sans-Serif" font-size="10.00">/extrapolation.hpp</text>
</a>
</g>
</g>
<!-- Node6&#45;&gt;Node7 -->
<g id="edge7" class="edge">
<title>Node6&#45;&gt;Node7</title>
<path fill="none" stroke="midnightblue" d="M363.1,-124.4C364.07,-115.37 365.14,-105.41 365.98,-97.58"/>
<polygon fill="midnightblue" stroke="midnightblue" points="359.61,-124.08 362.02,-134.4 366.57,-124.83 359.61,-124.08"/>
</g>
</g>
</svg>
