<?xml version="1.0" encoding="UTF-8" standalone="no"?>
<!DOCTYPE svg PUBLIC "-//W3C//DTD SVG 1.1//EN"
 "http://www.w3.org/Graphics/SVG/1.1/DTD/svg11.dtd">
<!-- Generated by graphviz version 2.43.0 (0)
 -->
<!-- Title: include/mini/polynomial/extrapolation.hpp Pages: 1 -->
<svg width="1754pt" height="431pt"
 viewBox="0.00 0.00 1753.85 431.00" xmlns="http://www.w3.org/2000/svg" xmlns:xlink="http://www.w3.org/1999/xlink">
<g id="graph0" class="graph" transform="scale(1 1) rotate(0) translate(4 427)">
<title>include/mini/polynomial/extrapolation.hpp</title>
<polygon fill="white" stroke="transparent" points="-4,4 -4,-427 1749.85,-427 1749.85,4 -4,4"/>
<!-- Node1 -->
<g id="node1" class="node">
<title>Node1</title>
<g id="a_node1"><a xlink:title=" ">
<polygon fill="#bfbfbf" stroke="black" points="1158.85,-392.5 1158.85,-422.5 1292.85,-422.5 1292.85,-392.5 1158.85,-392.5"/>
<text text-anchor="start" x="1166.85" y="-410.5" font-family="Helvetica,sans-Serif" font-size="10.00">include/mini/polynomial</text>
<text text-anchor="middle" x="1225.85" y="-399.5" font-family="Helvetica,sans-Serif" font-size="10.00">/extrapolation.hpp</text>
</a>
</g>
</g>
<!-- Node2 -->
<g id="node2" class="node">
<title>Node2</title>
<g id="a_node2"><a xlink:title=" ">
<polygon fill="white" stroke="#bfbfbf" points="893.85,-56.5 893.85,-75.5 953.85,-75.5 953.85,-56.5 893.85,-56.5"/>
<text text-anchor="middle" x="923.85" y="-63.5" font-family="Helvetica,sans-Serif" font-size="10.00">concepts</text>
</a>
</g>
</g>
<!-- Node1&#45;&gt;Node2 -->
<g id="edge1" class="edge">
<title>Node1&#45;&gt;Node2</title>
<path fill="none" stroke="midnightblue" d="M1158.66,-400.74C1002.54,-385.84 622.77,-340.23 546.85,-244 541.34,-237.02 541.63,-231.2 546.85,-224 577.04,-182.35 609.61,-208.35 656.85,-188 689.36,-173.99 764.51,-126.4 796.85,-112 826.18,-98.94 860.58,-86.94 886.17,-78.63"/>
<polygon fill="midnightblue" stroke="midnightblue" points="887.41,-81.91 895.86,-75.52 885.27,-75.24 887.41,-81.91"/>
</g>
<!-- Node3 -->
<g id="node3" class="node">
<title>Node3</title>
<g id="a_node3"><a xlink:title=" ">
<polygon fill="white" stroke="#bfbfbf" points="1376.35,-112.5 1376.35,-131.5 1421.35,-131.5 1421.35,-112.5 1376.35,-112.5"/>
<text text-anchor="middle" x="1398.85" y="-119.5" font-family="Helvetica,sans-Serif" font-size="10.00">utility</text>
</a>
</g>
</g>
<!-- Node1&#45;&gt;Node3 -->
<g id="edge2" class="edge">
<title>Node1&#45;&gt;Node3</title>
<path fill="none" stroke="midnightblue" d="M1267.34,-392.38C1285.47,-384.31 1305.58,-372.44 1318.85,-356 1337.75,-332.58 1337.85,-321.1 1337.85,-291 1337.85,-291 1337.85,-291 1337.85,-233 1337.85,-202.9 1341.96,-194.15 1356.85,-168 1363.1,-157.02 1372.54,-146.59 1380.88,-138.53"/>
<polygon fill="midnightblue" stroke="midnightblue" points="1383.42,-140.95 1388.41,-131.6 1378.68,-135.8 1383.42,-140.95"/>
</g>
<!-- Node4 -->
<g id="node4" class="node">
<title>Node4</title>
<g id="a_node4"><a xlink:href="projection_8hpp.html" target="_top" xlink:title=" ">
<polygon fill="white" stroke="black" points="1141.35,-336.5 1141.35,-355.5 1310.35,-355.5 1310.35,-336.5 1141.35,-336.5"/>
<text text-anchor="middle" x="1225.85" y="-343.5" font-family="Helvetica,sans-Serif" font-size="10.00">mini/polynomial/projection.hpp</text>
</a>
</g>
</g>
<!-- Node1&#45;&gt;Node4 -->
<g id="edge3" class="edge">
<title>Node1&#45;&gt;Node4</title>
<path fill="none" stroke="midnightblue" d="M1225.85,-392.4C1225.85,-384.47 1225.85,-374.46 1225.85,-365.86"/>
<polygon fill="midnightblue" stroke="midnightblue" points="1229.35,-365.66 1225.85,-355.66 1222.35,-365.66 1229.35,-365.66"/>
</g>
<!-- Node4&#45;&gt;Node2 -->
<g id="edge4" class="edge">
<title>Node4&#45;&gt;Node2</title>
<path fill="none" stroke="midnightblue" d="M1140.98,-341.07C1060.06,-335.91 945.17,-324.44 907.85,-300 879.47,-281.41 867.85,-268.92 867.85,-235 867.85,-235 867.85,-235 867.85,-177 867.85,-140.44 892.73,-103.75 909.32,-83.34"/>
<polygon fill="midnightblue" stroke="midnightblue" points="912.05,-85.54 915.83,-75.64 906.7,-81.02 912.05,-85.54"/>
</g>
<!-- Node4&#45;&gt;Node3 -->
<g id="edge9" class="edge">
<title>Node4&#45;&gt;Node3</title>
<path fill="none" stroke="midnightblue" d="M1238.55,-336.36C1249.74,-328.17 1265.79,-314.91 1275.85,-300 1310.76,-248.25 1284.13,-216.16 1323.85,-168 1335.26,-154.16 1352.11,-143.51 1366.95,-136.06"/>
<polygon fill="midnightblue" stroke="midnightblue" points="1368.79,-139.06 1376.33,-131.62 1365.8,-132.73 1368.79,-139.06"/>
</g>
<!-- Node5 -->
<g id="node5" class="node">
<title>Node5</title>
<g id="a_node5"><a xlink:title=" ">
<polygon fill="white" stroke="#bfbfbf" points="1483.35,-0.5 1483.35,-19.5 1530.35,-19.5 1530.35,-0.5 1483.35,-0.5"/>
<text text-anchor="middle" x="1506.85" y="-7.5" font-family="Helvetica,sans-Serif" font-size="10.00">cmath</text>
</a>
</g>
</g>
<!-- Node4&#45;&gt;Node5 -->
<g id="edge5" class="edge">
<title>Node4&#45;&gt;Node5</title>
<path fill="none" stroke="midnightblue" d="M1310.55,-344.34C1457.9,-340.89 1745.85,-322.89 1745.85,-235 1745.85,-235 1745.85,-235 1745.85,-121 1745.85,-31.87 1606.98,-14.7 1540.95,-11.58"/>
<polygon fill="midnightblue" stroke="midnightblue" points="1540.77,-8.07 1530.64,-11.18 1540.5,-15.07 1540.77,-8.07"/>
</g>
<!-- Node6 -->
<g id="node6" class="node">
<title>Node6</title>
<g id="a_node6"><a xlink:title=" ">
<polygon fill="white" stroke="#bfbfbf" points="1629.85,-112.5 1629.85,-131.5 1679.85,-131.5 1679.85,-112.5 1629.85,-112.5"/>
<text text-anchor="middle" x="1654.85" y="-119.5" font-family="Helvetica,sans-Serif" font-size="10.00">cstring</text>
</a>
</g>
</g>
<!-- Node4&#45;&gt;Node6 -->
<g id="edge6" class="edge">
<title>Node4&#45;&gt;Node6</title>
<path fill="none" stroke="midnightblue" d="M1272.04,-336.49C1350.6,-320 1511.8,-277.18 1615.85,-188 1630.65,-175.32 1641.37,-155.56 1647.79,-141.16"/>
<polygon fill="midnightblue" stroke="midnightblue" points="1651.07,-142.37 1651.69,-131.79 1644.61,-139.68 1651.07,-142.37"/>
</g>
<!-- Node7 -->
<g id="node7" class="node">
<title>Node7</title>
<g id="a_node7"><a xlink:title=" ">
<polygon fill="white" stroke="#bfbfbf" points="1156.85,-0.5 1156.85,-19.5 1216.85,-19.5 1216.85,-0.5 1156.85,-0.5"/>
<text text-anchor="middle" x="1186.85" y="-7.5" font-family="Helvetica,sans-Serif" font-size="10.00">iostream</text>
</a>
</g>
</g>
<!-- Node4&#45;&gt;Node7 -->
<g id="edge7" class="edge">
<title>Node4&#45;&gt;Node7</title>
<path fill="none" stroke="midnightblue" d="M1228.41,-336.48C1238.75,-300.53 1274.74,-158.39 1230.85,-56 1225.84,-44.31 1216.29,-33.95 1207.37,-26.13"/>
<polygon fill="midnightblue" stroke="midnightblue" points="1209.45,-23.31 1199.5,-19.69 1205.02,-28.73 1209.45,-23.31"/>
</g>
<!-- Node8 -->
<g id="node8" class="node">
<title>Node8</title>
<g id="a_node8"><a xlink:title=" ">
<polygon fill="white" stroke="#bfbfbf" points="224.35,-0.5 224.35,-19.5 293.35,-19.5 293.35,-0.5 224.35,-0.5"/>
<text text-anchor="middle" x="258.85" y="-7.5" font-family="Helvetica,sans-Serif" font-size="10.00">type_traits</text>
</a>
</g>
</g>
<!-- Node4&#45;&gt;Node8 -->
<g id="edge8" class="edge">
<title>Node4&#45;&gt;Node8</title>
<path fill="none" stroke="midnightblue" d="M1141.27,-343.36C925.94,-338.13 362.06,-317.6 191.85,-244 106.1,-206.93 39.41,-128.88 97.85,-56 112.36,-37.91 171.5,-24.87 213.9,-17.62"/>
<polygon fill="midnightblue" stroke="midnightblue" points="214.71,-21.03 224,-15.95 213.57,-14.13 214.71,-21.03"/>
</g>
<!-- Node9 -->
<g id="node9" class="node">
<title>Node9</title>
<g id="a_node9"><a xlink:href="algebra_2eigen_8hpp.html" target="_top" xlink:title=" ">
<polygon fill="white" stroke="black" points="1349.35,-56.5 1349.35,-75.5 1478.35,-75.5 1478.35,-56.5 1349.35,-56.5"/>
<text text-anchor="middle" x="1413.85" y="-63.5" font-family="Helvetica,sans-Serif" font-size="10.00">mini/algebra/eigen.hpp</text>
</a>
</g>
</g>
<!-- Node4&#45;&gt;Node9 -->
<g id="edge10" class="edge">
<title>Node4&#45;&gt;Node9</title>
<path fill="none" stroke="midnightblue" d="M1310.36,-342.89C1448.6,-337.13 1707.85,-315.57 1707.85,-235 1707.85,-235 1707.85,-235 1707.85,-177 1707.85,-146.9 1711.39,-131.94 1688.85,-112 1659.88,-86.37 1559.83,-75.2 1488.78,-70.43"/>
<polygon fill="midnightblue" stroke="midnightblue" points="1488.73,-66.92 1478.52,-69.77 1488.28,-73.9 1488.73,-66.92"/>
</g>
<!-- Node13 -->
<g id="node13" class="node">
<title>Node13</title>
<g id="a_node13"><a xlink:href="function_8hpp.html" target="_top" xlink:title=" ">
<polygon fill="white" stroke="black" points="1042.35,-168.5 1042.35,-187.5 1195.35,-187.5 1195.35,-168.5 1042.35,-168.5"/>
<text text-anchor="middle" x="1118.85" y="-175.5" font-family="Helvetica,sans-Serif" font-size="10.00">mini/integrator/function.hpp</text>
</a>
</g>
</g>
<!-- Node4&#45;&gt;Node13 -->
<g id="edge15" class="edge">
<title>Node4&#45;&gt;Node13</title>
<path fill="none" stroke="midnightblue" d="M1220.1,-336.08C1203.04,-309.61 1152.5,-231.21 1129.94,-196.21"/>
<polygon fill="midnightblue" stroke="midnightblue" points="1132.73,-194.08 1124.37,-187.57 1126.85,-197.87 1132.73,-194.08"/>
</g>
<!-- Node14 -->
<g id="node14" class="node">
<title>Node14</title>
<g id="a_node14"><a xlink:href="basis_2linear_8hpp.html" target="_top" xlink:title=" ">
<polygon fill="white" stroke="black" points="916.85,-280.5 916.85,-299.5 1034.85,-299.5 1034.85,-280.5 916.85,-280.5"/>
<text text-anchor="middle" x="975.85" y="-287.5" font-family="Helvetica,sans-Serif" font-size="10.00">mini/basis/linear.hpp</text>
</a>
</g>
</g>
<!-- Node4&#45;&gt;Node14 -->
<g id="edge21" class="edge">
<title>Node4&#45;&gt;Node14</title>
<path fill="none" stroke="midnightblue" d="M1186.24,-336.44C1142.62,-327.02 1072.45,-311.87 1025.27,-301.68"/>
<polygon fill="midnightblue" stroke="midnightblue" points="1025.79,-298.21 1015.28,-299.52 1024.31,-305.05 1025.79,-298.21"/>
</g>
<!-- Node30 -->
<g id="node30" class="node">
<title>Node30</title>
<g id="a_node30"><a xlink:href="expansion_8hpp.html" target="_top" xlink:title=" ">
<polygon fill="white" stroke="black" points="1365.85,-168.5 1365.85,-187.5 1535.85,-187.5 1535.85,-168.5 1365.85,-168.5"/>
<text text-anchor="middle" x="1450.85" y="-175.5" font-family="Helvetica,sans-Serif" font-size="10.00">mini/polynomial/expansion.hpp</text>
</a>
</g>
</g>
<!-- Node4&#45;&gt;Node30 -->
<g id="edge78" class="edge">
<title>Node4&#45;&gt;Node30</title>
<path fill="none" stroke="midnightblue" d="M1246.23,-336.35C1264.6,-328.14 1292.01,-314.88 1313.85,-300 1361.68,-267.41 1410.89,-219.84 1435.24,-195.18"/>
<polygon fill="midnightblue" stroke="midnightblue" points="1438.02,-197.34 1442.51,-187.75 1433.02,-192.45 1438.02,-197.34"/>
</g>
<!-- Node9&#45;&gt;Node5 -->
<g id="edge12" class="edge">
<title>Node9&#45;&gt;Node5</title>
<path fill="none" stroke="midnightblue" d="M1428.79,-56.32C1443.44,-47.82 1465.98,-34.73 1483.09,-24.8"/>
<polygon fill="midnightblue" stroke="midnightblue" points="1485.05,-27.7 1491.95,-19.65 1481.54,-21.65 1485.05,-27.7"/>
</g>
<!-- Node10 -->
<g id="node10" class="node">
<title>Node10</title>
<g id="a_node10"><a xlink:title=" ">
<polygon fill="white" stroke="#bfbfbf" points="833.85,-0.5 833.85,-19.5 897.85,-19.5 897.85,-0.5 833.85,-0.5"/>
<text text-anchor="middle" x="865.85" y="-7.5" font-family="Helvetica,sans-Serif" font-size="10.00">algorithm</text>
</a>
</g>
</g>
<!-- Node9&#45;&gt;Node10 -->
<g id="edge11" class="edge">
<title>Node9&#45;&gt;Node10</title>
<path fill="none" stroke="midnightblue" d="M1349.11,-58.62C1235.54,-47.43 1003.47,-24.56 908.15,-15.17"/>
<polygon fill="midnightblue" stroke="midnightblue" points="908.32,-11.67 898.02,-14.17 907.63,-18.63 908.32,-11.67"/>
</g>
<!-- Node11 -->
<g id="node11" class="node">
<title>Node11</title>
<g id="a_node11"><a xlink:title=" ">
<polygon fill="white" stroke="#bfbfbf" points="1403.35,-0.5 1403.35,-19.5 1452.35,-19.5 1452.35,-0.5 1403.35,-0.5"/>
<text text-anchor="middle" x="1427.85" y="-7.5" font-family="Helvetica,sans-Serif" font-size="10.00">cstdlib</text>
</a>
</g>
</g>
<!-- Node9&#45;&gt;Node11 -->
<g id="edge13" class="edge">
<title>Node9&#45;&gt;Node11</title>
<path fill="none" stroke="midnightblue" d="M1416.16,-56.08C1418.02,-48.93 1420.69,-38.64 1423,-29.69"/>
<polygon fill="midnightblue" stroke="midnightblue" points="1426.46,-30.31 1425.58,-19.75 1419.68,-28.55 1426.46,-30.31"/>
</g>
<!-- Node12 -->
<g id="node12" class="node">
<title>Node12</title>
<g id="a_node12"><a xlink:title=" ">
<polygon fill="white" stroke="#bfbfbf" points="1310.85,-0.5 1310.85,-19.5 1384.85,-19.5 1384.85,-0.5 1310.85,-0.5"/>
<text text-anchor="middle" x="1347.85" y="-7.5" font-family="Helvetica,sans-Serif" font-size="10.00">Eigen/Eigen</text>
</a>
</g>
</g>
<!-- Node9&#45;&gt;Node12 -->
<g id="edge14" class="edge">
<title>Node9&#45;&gt;Node12</title>
<path fill="none" stroke="midnightblue" d="M1403.25,-56.32C1393.39,-48.26 1378.5,-36.08 1366.63,-26.37"/>
<polygon fill="midnightblue" stroke="midnightblue" points="1368.6,-23.46 1358.65,-19.83 1364.17,-28.88 1368.6,-23.46"/>
</g>
<!-- Node13&#45;&gt;Node2 -->
<g id="edge16" class="edge">
<title>Node13&#45;&gt;Node2</title>
<path fill="none" stroke="midnightblue" d="M1056.84,-168.43C1027.71,-162.04 993.77,-151.01 967.85,-132 951.24,-119.82 938.91,-99.37 931.59,-84.66"/>
<polygon fill="midnightblue" stroke="midnightblue" points="934.74,-83.13 927.34,-75.56 928.4,-86.1 934.74,-83.13"/>
</g>
<!-- Node13&#45;&gt;Node3 -->
<g id="edge19" class="edge">
<title>Node13&#45;&gt;Node3</title>
<path fill="none" stroke="midnightblue" d="M1163.22,-168.44C1219.65,-157.56 1315.8,-139.02 1366.05,-129.33"/>
<polygon fill="midnightblue" stroke="midnightblue" points="1366.89,-132.73 1376.05,-127.4 1365.57,-125.85 1366.89,-132.73"/>
</g>
<!-- Node13&#45;&gt;Node5 -->
<g id="edge17" class="edge">
<title>Node13&#45;&gt;Node5</title>
<path fill="none" stroke="midnightblue" d="M1151.52,-168.48C1240.45,-145.23 1480.66,-82.02 1486.85,-76 1499.13,-64.04 1503.92,-44.74 1505.76,-30.27"/>
<polygon fill="midnightblue" stroke="midnightblue" points="1509.28,-30.21 1506.69,-19.94 1502.3,-29.58 1509.28,-30.21"/>
</g>
<!-- Node13&#45;&gt;Node8 -->
<g id="edge18" class="edge">
<title>Node13&#45;&gt;Node8</title>
<path fill="none" stroke="midnightblue" d="M1102.41,-168.46C1086.77,-160.04 1062.87,-146.37 1043.85,-132 1004.46,-102.24 1008.15,-75.62 962.85,-56 902.62,-29.91 449.55,-15.96 303.84,-12.11"/>
<polygon fill="midnightblue" stroke="midnightblue" points="303.57,-8.6 293.49,-11.84 303.39,-15.6 303.57,-8.6"/>
</g>
<!-- Node13&#45;&gt;Node9 -->
<g id="edge20" class="edge">
<title>Node13&#45;&gt;Node9</title>
<path fill="none" stroke="midnightblue" d="M1144.71,-168.48C1170.87,-159.74 1212.4,-145.55 1247.85,-132 1269.44,-123.75 1274.38,-120.56 1295.85,-112 1324.54,-100.56 1357.39,-88.08 1381.13,-79.17"/>
<polygon fill="midnightblue" stroke="midnightblue" points="1382.57,-82.37 1390.71,-75.59 1380.11,-75.82 1382.57,-82.37"/>
</g>
<!-- Node14&#45;&gt;Node2 -->
<g id="edge22" class="edge">
<title>Node14&#45;&gt;Node2</title>
<path fill="none" stroke="midnightblue" d="M973.81,-280.3C966.14,-247.56 938.93,-131.38 928.22,-85.67"/>
<polygon fill="midnightblue" stroke="midnightblue" points="931.62,-84.82 925.93,-75.88 924.8,-86.42 931.62,-84.82"/>
</g>
<!-- Node14&#45;&gt;Node5 -->
<g id="edge24" class="edge">
<title>Node14&#45;&gt;Node5</title>
<path fill="none" stroke="midnightblue" d="M1035.06,-288.07C1170.52,-284.57 1496.55,-267.84 1563.85,-188 1604.53,-139.74 1549.82,-61.94 1521.7,-27.88"/>
<polygon fill="midnightblue" stroke="midnightblue" points="1524.02,-25.21 1514.89,-19.85 1518.69,-29.74 1524.02,-25.21"/>
</g>
<!-- Node14&#45;&gt;Node7 -->
<g id="edge25" class="edge">
<title>Node14&#45;&gt;Node7</title>
<path fill="none" stroke="midnightblue" d="M978.73,-280.5C987.34,-255.5 1013.55,-183.09 1032.85,-168 1097.47,-117.49 1161.82,-195.4 1213.85,-132 1238.55,-101.9 1214.86,-53.93 1198.84,-28.36"/>
<polygon fill="midnightblue" stroke="midnightblue" points="1201.6,-26.19 1193.19,-19.75 1195.74,-30.03 1201.6,-26.19"/>
</g>
<!-- Node14&#45;&gt;Node8 -->
<g id="edge26" class="edge">
<title>Node14&#45;&gt;Node8</title>
<path fill="none" stroke="midnightblue" d="M916.69,-287.67C771.71,-284.01 401.83,-272.13 281.85,-244 219.01,-229.27 191.32,-235.71 147.85,-188 106.97,-143.14 76.8,-104.83 112.85,-56 135.91,-24.77 180.32,-14.54 214.14,-11.51"/>
<polygon fill="midnightblue" stroke="midnightblue" points="214.53,-14.99 224.25,-10.78 214.03,-8 214.53,-14.99"/>
</g>
<!-- Node14&#45;&gt;Node9 -->
<g id="edge27" class="edge">
<title>Node14&#45;&gt;Node9</title>
<path fill="none" stroke="midnightblue" d="M1001.15,-280.5C1043.72,-266.52 1132.62,-238.77 1209.85,-224 1283.39,-209.93 1494.82,-243.7 1544.85,-188 1583.45,-145.03 1496.22,-100.43 1446.05,-79.39"/>
<polygon fill="midnightblue" stroke="midnightblue" points="1447.15,-76.06 1436.56,-75.51 1444.49,-82.54 1447.15,-76.06"/>
</g>
<!-- Node14&#45;&gt;Node13 -->
<g id="edge28" class="edge">
<title>Node14&#45;&gt;Node13</title>
<path fill="none" stroke="midnightblue" d="M987.07,-280.37C1011.4,-261.65 1069.25,-217.15 1099.57,-193.83"/>
<polygon fill="midnightblue" stroke="midnightblue" points="1101.89,-196.46 1107.68,-187.59 1097.62,-190.91 1101.89,-196.46"/>
</g>
<!-- Node15 -->
<g id="node15" class="node">
<title>Node15</title>
<g id="a_node15"><a xlink:title=" ">
<polygon fill="white" stroke="#bfbfbf" points="557.85,-56.5 557.85,-75.5 609.85,-75.5 609.85,-56.5 557.85,-56.5"/>
<text text-anchor="middle" x="583.85" y="-63.5" font-family="Helvetica,sans-Serif" font-size="10.00">cassert</text>
</a>
</g>
</g>
<!-- Node14&#45;&gt;Node15 -->
<g id="edge23" class="edge">
<title>Node14&#45;&gt;Node15</title>
<path fill="none" stroke="midnightblue" d="M916.83,-285.69C739.55,-275.18 220.66,-240.2 166.85,-188 142.4,-164.28 133.89,-137.17 156.85,-112 184.78,-81.39 472.87,-83.17 547.23,-75.6"/>
<polygon fill="midnightblue" stroke="midnightblue" points="548.12,-79.01 557.57,-74.24 547.2,-72.07 548.12,-79.01"/>
</g>
<!-- Node16 -->
<g id="node16" class="node">
<title>Node16</title>
<g id="a_node16"><a xlink:href="integrator_2face_8hpp.html" target="_top" xlink:title=" ">
<polygon fill="white" stroke="black" points="555.85,-224.5 555.85,-243.5 689.85,-243.5 689.85,-224.5 555.85,-224.5"/>
<text text-anchor="middle" x="622.85" y="-231.5" font-family="Helvetica,sans-Serif" font-size="10.00">mini/integrator/face.hpp</text>
</a>
</g>
</g>
<!-- Node14&#45;&gt;Node16 -->
<g id="edge29" class="edge">
<title>Node14&#45;&gt;Node16</title>
<path fill="none" stroke="midnightblue" d="M919.92,-280.44C857.05,-270.83 755.08,-255.23 688.49,-245.04"/>
<polygon fill="midnightblue" stroke="midnightblue" points="688.94,-241.57 678.52,-243.52 687.88,-248.49 688.94,-241.57"/>
</g>
<!-- Node27 -->
<g id="node27" class="node">
<title>Node27</title>
<g id="a_node27"><a xlink:href="integrator_2cell_8hpp.html" target="_top" xlink:title=" ">
<polygon fill="white" stroke="black" points="708.35,-224.5 708.35,-243.5 839.35,-243.5 839.35,-224.5 708.35,-224.5"/>
<text text-anchor="middle" x="773.85" y="-231.5" font-family="Helvetica,sans-Serif" font-size="10.00">mini/integrator/cell.hpp</text>
</a>
</g>
</g>
<!-- Node14&#45;&gt;Node27 -->
<g id="edge59" class="edge">
<title>Node14&#45;&gt;Node27</title>
<path fill="none" stroke="midnightblue" d="M943.84,-280.44C909.12,-271.16 853.56,-256.31 815.47,-246.13"/>
<polygon fill="midnightblue" stroke="midnightblue" points="816.27,-242.72 805.71,-243.52 814.46,-249.48 816.27,-242.72"/>
</g>
<!-- Node29 -->
<g id="node29" class="node">
<title>Node29</title>
<g id="a_node29"><a xlink:href="taylor_8hpp.html" target="_top" xlink:title=" ">
<polygon fill="white" stroke="black" points="1086.35,-112.5 1086.35,-131.5 1205.35,-131.5 1205.35,-112.5 1086.35,-112.5"/>
<text text-anchor="middle" x="1145.85" y="-119.5" font-family="Helvetica,sans-Serif" font-size="10.00">mini/basis/taylor.hpp</text>
</a>
</g>
</g>
<!-- Node14&#45;&gt;Node29 -->
<g id="edge71" class="edge">
<title>Node14&#45;&gt;Node29</title>
<path fill="none" stroke="midnightblue" d="M974.83,-280.39C972.75,-258.58 970.45,-200.6 999.85,-168 1019.31,-146.42 1048.85,-135.07 1076.28,-129.15"/>
<polygon fill="midnightblue" stroke="midnightblue" points="1077.12,-132.55 1086.27,-127.2 1075.78,-125.68 1077.12,-132.55"/>
</g>
<!-- Node16&#45;&gt;Node2 -->
<g id="edge30" class="edge">
<title>Node16&#45;&gt;Node2</title>
<path fill="none" stroke="midnightblue" d="M637.27,-224.35C671.2,-204.08 758.86,-152.21 833.85,-112 854.76,-100.79 878.82,-88.8 896.8,-80.02"/>
<polygon fill="midnightblue" stroke="midnightblue" points="898.64,-83.02 906.11,-75.5 895.58,-76.72 898.64,-83.02"/>
</g>
<!-- Node16&#45;&gt;Node3 -->
<g id="edge32" class="edge">
<title>Node16&#45;&gt;Node3</title>
<path fill="none" stroke="midnightblue" d="M689.97,-224.88C692.97,-224.57 695.94,-224.28 698.85,-224 922.86,-202.76 983.16,-231.92 1203.85,-188 1264.25,-175.98 1331.83,-150.63 1369.47,-135.38"/>
<polygon fill="midnightblue" stroke="midnightblue" points="1370.88,-138.58 1378.81,-131.55 1368.23,-132.1 1370.88,-138.58"/>
</g>
<!-- Node16&#45;&gt;Node13 -->
<g id="edge58" class="edge">
<title>Node16&#45;&gt;Node13</title>
<path fill="none" stroke="midnightblue" d="M689.98,-225.01C692.98,-224.67 695.95,-224.33 698.85,-224 814.04,-211.01 947.11,-196.9 1032.06,-188.01"/>
<polygon fill="midnightblue" stroke="midnightblue" points="1032.6,-191.48 1042.18,-186.96 1031.87,-184.51 1032.6,-191.48"/>
</g>
<!-- Node17 -->
<g id="node17" class="node">
<title>Node17</title>
<g id="a_node17"><a xlink:title=" ">
<polygon fill="white" stroke="#bfbfbf" points="667.85,-112.5 667.85,-131.5 725.85,-131.5 725.85,-112.5 667.85,-112.5"/>
<text text-anchor="middle" x="696.85" y="-119.5" font-family="Helvetica,sans-Serif" font-size="10.00">memory</text>
</a>
</g>
</g>
<!-- Node16&#45;&gt;Node17 -->
<g id="edge31" class="edge">
<title>Node16&#45;&gt;Node17</title>
<path fill="none" stroke="midnightblue" d="M629.88,-224.22C636.94,-215.28 648.01,-200.94 656.85,-188 667.57,-172.31 678.84,-153.79 686.67,-140.55"/>
<polygon fill="midnightblue" stroke="midnightblue" points="689.89,-141.98 691.92,-131.58 683.85,-138.44 689.89,-141.98"/>
</g>
<!-- Node18 -->
<g id="node18" class="node">
<title>Node18</title>
<g id="a_node18"><a xlink:title=" ">
<polygon fill="white" stroke="#bfbfbf" points="0.35,-0.5 0.35,-19.5 47.35,-19.5 47.35,-0.5 0.35,-0.5"/>
<text text-anchor="middle" x="23.85" y="-7.5" font-family="Helvetica,sans-Serif" font-size="10.00">vector</text>
</a>
</g>
</g>
<!-- Node16&#45;&gt;Node18 -->
<g id="edge33" class="edge">
<title>Node16&#45;&gt;Node18</title>
<path fill="none" stroke="midnightblue" d="M555.56,-233.14C465.51,-231.81 301.53,-224.01 166.85,-188 81.23,-165.1 29.39,-160.24 1.85,-76 -3.45,-59.78 4.07,-41.36 11.72,-28.28"/>
<polygon fill="midnightblue" stroke="midnightblue" points="14.7,-30.12 17.13,-19.81 8.8,-26.35 14.7,-30.12"/>
</g>
<!-- Node19 -->
<g id="node19" class="node">
<title>Node19</title>
<g id="a_node19"><a xlink:href="coordinate_2face_8hpp.html" target="_top" xlink:title=" ">
<polygon fill="white" stroke="black" points="175.85,-168.5 175.85,-187.5 313.85,-187.5 313.85,-168.5 175.85,-168.5"/>
<text text-anchor="middle" x="244.85" y="-175.5" font-family="Helvetica,sans-Serif" font-size="10.00">mini/coordinate/face.hpp</text>
</a>
</g>
</g>
<!-- Node16&#45;&gt;Node19 -->
<g id="edge34" class="edge">
<title>Node16&#45;&gt;Node19</title>
<path fill="none" stroke="midnightblue" d="M562.95,-224.44C495.49,-214.81 385.99,-199.16 314.7,-188.98"/>
<polygon fill="midnightblue" stroke="midnightblue" points="314.86,-185.47 304.47,-187.52 313.87,-192.4 314.86,-185.47"/>
</g>
<!-- Node26 -->
<g id="node26" class="node">
<title>Node26</title>
<g id="a_node26"><a xlink:href="integrator_2element_8hpp.html" target="_top" xlink:title=" ">
<polygon fill="white" stroke="black" points="341.85,-168.5 341.85,-187.5 495.85,-187.5 495.85,-168.5 341.85,-168.5"/>
<text text-anchor="middle" x="418.85" y="-175.5" font-family="Helvetica,sans-Serif" font-size="10.00">mini/integrator/element.hpp</text>
</a>
</g>
</g>
<!-- Node16&#45;&gt;Node26 -->
<g id="edge55" class="edge">
<title>Node16&#45;&gt;Node26</title>
<path fill="none" stroke="midnightblue" d="M590.53,-224.44C555.46,-215.16 499.35,-200.31 460.89,-190.13"/>
<polygon fill="midnightblue" stroke="midnightblue" points="461.59,-186.69 451.02,-187.52 459.79,-193.46 461.59,-186.69"/>
</g>
<!-- Node19&#45;&gt;Node2 -->
<g id="edge35" class="edge">
<title>Node19&#45;&gt;Node2</title>
<path fill="none" stroke="midnightblue" d="M294.64,-168.46C393.97,-151.42 608.64,-114.61 624.85,-112 717.31,-97.14 826.11,-81.14 883.57,-72.8"/>
<polygon fill="midnightblue" stroke="midnightblue" points="884.29,-76.23 893.69,-71.34 883.29,-69.31 884.29,-76.23"/>
</g>
<!-- Node19&#45;&gt;Node8 -->
<g id="edge39" class="edge">
<title>Node19&#45;&gt;Node8</title>
<path fill="none" stroke="midnightblue" d="M223.41,-168.39C180.19,-149.77 89.54,-103.6 123.85,-56 144.23,-27.73 183.13,-16.95 213.96,-12.97"/>
<polygon fill="midnightblue" stroke="midnightblue" points="214.51,-16.43 224.07,-11.87 213.75,-9.47 214.51,-16.43"/>
</g>
<!-- Node19&#45;&gt;Node10 -->
<g id="edge36" class="edge">
<title>Node19&#45;&gt;Node10</title>
<path fill="none" stroke="midnightblue" d="M240.1,-168.28C228.79,-146.21 203.35,-87.67 232.85,-56 273.02,-12.88 688.2,-10.4 823.49,-10.75"/>
<polygon fill="midnightblue" stroke="midnightblue" points="823.84,-14.25 833.85,-10.79 823.86,-7.25 823.84,-14.25"/>
</g>
<!-- Node19&#45;&gt;Node17 -->
<g id="edge38" class="edge">
<title>Node19&#45;&gt;Node17</title>
<path fill="none" stroke="midnightblue" d="M313.99,-168.74C410.12,-157.26 580.97,-136.84 657.67,-127.68"/>
<polygon fill="midnightblue" stroke="midnightblue" points="658.33,-131.13 667.85,-126.46 657.5,-124.18 658.33,-131.13"/>
</g>
<!-- Node19&#45;&gt;Node18 -->
<g id="edge40" class="edge">
<title>Node19&#45;&gt;Node18</title>
<path fill="none" stroke="midnightblue" d="M176.9,-168.48C121.23,-157.49 45.96,-132.5 9.85,-76 0.75,-61.75 6.64,-42.54 13.35,-28.7"/>
<polygon fill="midnightblue" stroke="midnightblue" points="16.53,-30.18 18.18,-19.72 10.36,-26.87 16.53,-30.18"/>
</g>
<!-- Node20 -->
<g id="node20" class="node">
<title>Node20</title>
<g id="a_node20"><a xlink:title=" ">
<polygon fill="white" stroke="#bfbfbf" points="165.85,-112.5 165.85,-131.5 207.85,-131.5 207.85,-112.5 165.85,-112.5"/>
<text text-anchor="middle" x="186.85" y="-119.5" font-family="Helvetica,sans-Serif" font-size="10.00">array</text>
</a>
</g>
</g>
<!-- Node19&#45;&gt;Node20 -->
<g id="edge37" class="edge">
<title>Node19&#45;&gt;Node20</title>
<path fill="none" stroke="midnightblue" d="M235.53,-168.32C226.96,-160.34 214.04,-148.31 203.66,-138.65"/>
<polygon fill="midnightblue" stroke="midnightblue" points="206.04,-136.09 196.34,-131.83 201.27,-141.21 206.04,-136.09"/>
</g>
<!-- Node21 -->
<g id="node21" class="node">
<title>Node21</title>
<g id="a_node21"><a xlink:href="coordinate_2element_8hpp.html" target="_top" xlink:title=" ">
<polygon fill="white" stroke="black" points="339.85,-112.5 339.85,-131.5 497.85,-131.5 497.85,-112.5 339.85,-112.5"/>
<text text-anchor="middle" x="418.85" y="-119.5" font-family="Helvetica,sans-Serif" font-size="10.00">mini/coordinate/element.hpp</text>
</a>
</g>
</g>
<!-- Node19&#45;&gt;Node21 -->
<g id="edge41" class="edge">
<title>Node19&#45;&gt;Node21</title>
<path fill="none" stroke="midnightblue" d="M272.42,-168.44C301.95,-159.28 348.97,-144.69 381.73,-134.52"/>
<polygon fill="midnightblue" stroke="midnightblue" points="382.9,-137.82 391.41,-131.52 380.82,-131.14 382.9,-137.82"/>
</g>
<!-- Node21&#45;&gt;Node2 -->
<g id="edge42" class="edge">
<title>Node21&#45;&gt;Node2</title>
<path fill="none" stroke="midnightblue" d="M498.16,-112.94C584.1,-104.14 725.25,-89.5 846.85,-76 858.75,-74.68 871.67,-73.19 883.48,-71.81"/>
<polygon fill="midnightblue" stroke="midnightblue" points="883.98,-75.27 893.51,-70.63 883.16,-68.32 883.98,-75.27"/>
</g>
<!-- Node21&#45;&gt;Node5 -->
<g id="edge44" class="edge">
<title>Node21&#45;&gt;Node5</title>
<path fill="none" stroke="midnightblue" d="M491.17,-112.47C538.56,-105.61 601.41,-94.07 654.85,-76 673.68,-69.63 675.62,-61.02 694.85,-56 859.74,-12.96 1291.67,-40.41 1460.85,-20 1464.83,-19.52 1468.97,-18.89 1473.08,-18.19"/>
<polygon fill="midnightblue" stroke="midnightblue" points="1473.89,-21.6 1483.08,-16.34 1472.61,-14.72 1473.89,-21.6"/>
</g>
<!-- Node21&#45;&gt;Node7 -->
<g id="edge47" class="edge">
<title>Node21&#45;&gt;Node7</title>
<path fill="none" stroke="midnightblue" d="M470.65,-112.5C511.53,-105.04 569.66,-92.76 618.85,-76 638.8,-69.2 641.48,-61.43 661.85,-56 753.38,-31.61 1040.42,-17.23 1146.73,-12.63"/>
<polygon fill="midnightblue" stroke="midnightblue" points="1146.89,-16.12 1156.73,-12.2 1146.59,-9.13 1146.89,-16.12"/>
</g>
<!-- Node21&#45;&gt;Node9 -->
<g id="edge49" class="edge">
<title>Node21&#45;&gt;Node9</title>
<path fill="none" stroke="midnightblue" d="M498.17,-116.69C686.03,-106.5 1156.03,-80.99 1339.16,-71.05"/>
<polygon fill="midnightblue" stroke="midnightblue" points="1339.44,-74.54 1349.23,-70.51 1339.06,-67.55 1339.44,-74.54"/>
</g>
<!-- Node21&#45;&gt;Node15 -->
<g id="edge43" class="edge">
<title>Node21&#45;&gt;Node15</title>
<path fill="none" stroke="midnightblue" d="M444.99,-112.44C472.87,-103.32 517.2,-88.81 548.25,-78.65"/>
<polygon fill="midnightblue" stroke="midnightblue" points="549.41,-81.95 557.83,-75.52 547.24,-75.3 549.41,-81.95"/>
</g>
<!-- Node21&#45;&gt;Node18 -->
<g id="edge48" class="edge">
<title>Node21&#45;&gt;Node18</title>
<path fill="none" stroke="midnightblue" d="M380.55,-112.49C342.81,-103.93 283.61,-90.02 232.85,-76 170.25,-58.71 98.08,-35.54 57.02,-22.04"/>
<polygon fill="midnightblue" stroke="midnightblue" points="58.12,-18.72 47.52,-18.91 55.93,-25.36 58.12,-18.72"/>
</g>
<!-- Node22 -->
<g id="node22" class="node">
<title>Node22</title>
<g id="a_node22"><a xlink:title=" ">
<polygon fill="white" stroke="#bfbfbf" points="483.85,-56.5 483.85,-75.5 539.85,-75.5 539.85,-56.5 483.85,-56.5"/>
<text text-anchor="middle" x="511.85" y="-63.5" font-family="Helvetica,sans-Serif" font-size="10.00">numeric</text>
</a>
</g>
</g>
<!-- Node21&#45;&gt;Node22 -->
<g id="edge45" class="edge">
<title>Node21&#45;&gt;Node22</title>
<path fill="none" stroke="midnightblue" d="M433.79,-112.32C448.44,-103.82 470.98,-90.73 488.09,-80.8"/>
<polygon fill="midnightblue" stroke="midnightblue" points="490.05,-83.7 496.95,-75.65 486.54,-77.65 490.05,-83.7"/>
</g>
<!-- Node23 -->
<g id="node23" class="node">
<title>Node23</title>
<g id="a_node23"><a xlink:title=" ">
<polygon fill="white" stroke="#bfbfbf" points="382.35,-56.5 382.35,-75.5 465.35,-75.5 465.35,-56.5 382.35,-56.5"/>
<text text-anchor="middle" x="423.85" y="-63.5" font-family="Helvetica,sans-Serif" font-size="10.00">initializer_list</text>
</a>
</g>
</g>
<!-- Node21&#45;&gt;Node23 -->
<g id="edge46" class="edge">
<title>Node21&#45;&gt;Node23</title>
<path fill="none" stroke="midnightblue" d="M419.68,-112.08C420.33,-105.01 421.27,-94.86 422.09,-85.99"/>
<polygon fill="midnightblue" stroke="midnightblue" points="425.6,-86.03 423.04,-75.75 418.63,-85.39 425.6,-86.03"/>
</g>
<!-- Node24 -->
<g id="node24" class="node">
<title>Node24</title>
<g id="a_node24"><a xlink:href="root_8hpp.html" target="_top" xlink:title=" ">
<polygon fill="white" stroke="black" points="241.85,-56.5 241.85,-75.5 363.85,-75.5 363.85,-56.5 241.85,-56.5"/>
<text text-anchor="middle" x="302.85" y="-63.5" font-family="Helvetica,sans-Serif" font-size="10.00">mini/algebra/root.hpp</text>
</a>
</g>
</g>
<!-- Node21&#45;&gt;Node24 -->
<g id="edge50" class="edge">
<title>Node21&#45;&gt;Node24</title>
<path fill="none" stroke="midnightblue" d="M400.47,-112.44C381.63,-103.68 352.12,-89.94 330.47,-79.86"/>
<polygon fill="midnightblue" stroke="midnightblue" points="331.69,-76.56 321.14,-75.52 328.73,-82.91 331.69,-76.56"/>
</g>
<!-- Node25 -->
<g id="node25" class="node">
<title>Node25</title>
<g id="a_node25"><a xlink:href="index_8hpp.html" target="_top" xlink:title=" ">
<polygon fill="white" stroke="black" points="703.85,-56.5 703.85,-75.5 837.85,-75.5 837.85,-56.5 703.85,-56.5"/>
<text text-anchor="middle" x="770.85" y="-63.5" font-family="Helvetica,sans-Serif" font-size="10.00">mini/constant/index.hpp</text>
</a>
</g>
</g>
<!-- Node21&#45;&gt;Node25 -->
<g id="edge54" class="edge">
<title>Node21&#45;&gt;Node25</title>
<path fill="none" stroke="midnightblue" d="M474.63,-112.44C537.32,-102.83 639,-87.23 705.4,-77.04"/>
<polygon fill="midnightblue" stroke="midnightblue" points="705.98,-80.49 715.34,-75.52 704.92,-73.57 705.98,-80.49"/>
</g>
<!-- Node24&#45;&gt;Node7 -->
<g id="edge52" class="edge">
<title>Node24&#45;&gt;Node7</title>
<path fill="none" stroke="midnightblue" d="M363.9,-56.88C366.93,-56.57 369.92,-56.27 372.85,-56 669.05,-28.81 1027.5,-15.93 1146.39,-12.2"/>
<polygon fill="midnightblue" stroke="midnightblue" points="1146.6,-15.69 1156.49,-11.88 1146.38,-8.69 1146.6,-15.69"/>
</g>
<!-- Node24&#45;&gt;Node8 -->
<g id="edge53" class="edge">
<title>Node24&#45;&gt;Node8</title>
<path fill="none" stroke="midnightblue" d="M295.58,-56.08C289.31,-48.38 280.06,-37.03 272.42,-27.65"/>
<polygon fill="midnightblue" stroke="midnightblue" points="275.01,-25.29 265.98,-19.75 269.58,-29.71 275.01,-25.29"/>
</g>
<!-- Node24&#45;&gt;Node18 -->
<g id="edge51" class="edge">
<title>Node24&#45;&gt;Node18</title>
<path fill="none" stroke="midnightblue" d="M258.64,-56.44C202.84,-45.64 108.07,-27.3 57.69,-17.55"/>
<polygon fill="midnightblue" stroke="midnightblue" points="58.13,-14.07 47.64,-15.6 56.79,-20.94 58.13,-14.07"/>
</g>
<!-- Node26&#45;&gt;Node21 -->
<g id="edge56" class="edge">
<title>Node26&#45;&gt;Node21</title>
<path fill="none" stroke="midnightblue" d="M418.85,-168.08C418.85,-161.01 418.85,-150.86 418.85,-141.99"/>
<polygon fill="midnightblue" stroke="midnightblue" points="422.35,-141.75 418.85,-131.75 415.35,-141.75 422.35,-141.75"/>
</g>
<!-- Node26&#45;&gt;Node25 -->
<g id="edge57" class="edge">
<title>Node26&#45;&gt;Node25</title>
<path fill="none" stroke="midnightblue" d="M435.63,-168.37C468.26,-151.63 538.14,-116.02 549.85,-112 597.61,-95.6 653.33,-84.31 696.87,-77.13"/>
<polygon fill="midnightblue" stroke="midnightblue" points="697.5,-80.58 706.82,-75.53 696.39,-73.67 697.5,-80.58"/>
</g>
<!-- Node27&#45;&gt;Node2 -->
<g id="edge60" class="edge">
<title>Node27&#45;&gt;Node2</title>
<path fill="none" stroke="midnightblue" d="M780.13,-224.47C786.68,-215.49 797.2,-200.9 805.85,-188 828.1,-154.82 825.71,-140.36 853.85,-112 866.42,-99.33 883.15,-88.41 897.1,-80.51"/>
<polygon fill="midnightblue" stroke="midnightblue" points="899.13,-83.39 906.24,-75.53 895.78,-77.24 899.13,-83.39"/>
</g>
<!-- Node27&#45;&gt;Node13 -->
<g id="edge70" class="edge">
<title>Node27&#45;&gt;Node13</title>
<path fill="none" stroke="midnightblue" d="M828.52,-224.44C889.84,-214.85 989.21,-199.29 1054.3,-189.1"/>
<polygon fill="midnightblue" stroke="midnightblue" points="1055.1,-192.52 1064.44,-187.52 1054.02,-185.61 1055.1,-192.52"/>
</g>
<!-- Node27&#45;&gt;Node17 -->
<g id="edge61" class="edge">
<title>Node27&#45;&gt;Node17</title>
<path fill="none" stroke="midnightblue" d="M767.81,-224.37C755.1,-206.22 725.41,-163.8 708.74,-139.99"/>
<polygon fill="midnightblue" stroke="midnightblue" points="711.47,-137.78 702.86,-131.59 705.73,-141.79 711.47,-137.78"/>
</g>
<!-- Node27&#45;&gt;Node26 -->
<g id="edge69" class="edge">
<title>Node27&#45;&gt;Node26</title>
<path fill="none" stroke="midnightblue" d="M717.6,-224.44C654.37,-214.83 551.83,-199.23 484.86,-189.04"/>
<polygon fill="midnightblue" stroke="midnightblue" points="485.25,-185.56 474.84,-187.52 484.2,-192.48 485.25,-185.56"/>
</g>
<!-- Node28 -->
<g id="node28" class="node">
<title>Node28</title>
<g id="a_node28"><a xlink:href="coordinate_2cell_8hpp.html" target="_top" xlink:title=" ">
<polygon fill="white" stroke="black" points="513.85,-168.5 513.85,-187.5 647.85,-187.5 647.85,-168.5 513.85,-168.5"/>
<text text-anchor="middle" x="580.85" y="-175.5" font-family="Helvetica,sans-Serif" font-size="10.00">mini/coordinate/cell.hpp</text>
</a>
</g>
</g>
<!-- Node27&#45;&gt;Node28 -->
<g id="edge62" class="edge">
<title>Node27&#45;&gt;Node28</title>
<path fill="none" stroke="midnightblue" d="M743.27,-224.44C710.24,-215.2 657.46,-200.44 621.08,-190.26"/>
<polygon fill="midnightblue" stroke="midnightblue" points="621.86,-186.84 611.29,-187.52 619.98,-193.58 621.86,-186.84"/>
</g>
<!-- Node28&#45;&gt;Node2 -->
<g id="edge63" class="edge">
<title>Node28&#45;&gt;Node2</title>
<path fill="none" stroke="midnightblue" d="M588.47,-168.13C601.36,-153.76 629.02,-125.61 658.85,-112 749.39,-70.69 781.97,-93.98 879.85,-76 881.1,-75.77 882.37,-75.53 883.65,-75.29"/>
<polygon fill="midnightblue" stroke="midnightblue" points="884.44,-78.7 893.58,-73.36 883.1,-71.83 884.44,-78.7"/>
</g>
<!-- Node28&#45;&gt;Node8 -->
<g id="edge66" class="edge">
<title>Node28&#45;&gt;Node8</title>
<path fill="none" stroke="midnightblue" d="M520.08,-168.49C457.59,-159.3 364.79,-144.33 330.85,-132 319.06,-127.72 239.14,-86.85 232.85,-76 223.84,-60.48 233.88,-41.24 243.98,-27.73"/>
<polygon fill="midnightblue" stroke="midnightblue" points="246.85,-29.75 250.43,-19.78 241.41,-25.34 246.85,-29.75"/>
</g>
<!-- Node28&#45;&gt;Node10 -->
<g id="edge64" class="edge">
<title>Node28&#45;&gt;Node10</title>
<path fill="none" stroke="midnightblue" d="M584.13,-168.14C589.94,-153.77 603.49,-125.64 624.85,-112 709.1,-58.21 771.94,-142.18 846.85,-76 859.91,-64.46 864.22,-44.5 865.53,-29.73"/>
<polygon fill="midnightblue" stroke="midnightblue" points="869.03,-29.84 866.04,-19.67 862.03,-29.48 869.03,-29.84"/>
</g>
<!-- Node28&#45;&gt;Node17 -->
<g id="edge65" class="edge">
<title>Node28&#45;&gt;Node17</title>
<path fill="none" stroke="midnightblue" d="M599.23,-168.44C618.07,-159.68 647.58,-145.94 669.23,-135.86"/>
<polygon fill="midnightblue" stroke="midnightblue" points="670.97,-138.91 678.56,-131.52 668.01,-132.56 670.97,-138.91"/>
</g>
<!-- Node28&#45;&gt;Node18 -->
<g id="edge67" class="edge">
<title>Node28&#45;&gt;Node18</title>
<path fill="none" stroke="midnightblue" d="M513.83,-168.9C440.82,-159.68 328.95,-144.31 287.85,-132 194.96,-104.17 92.64,-49.87 47.49,-24.57"/>
<polygon fill="midnightblue" stroke="midnightblue" points="49.17,-21.5 38.74,-19.63 45.73,-27.6 49.17,-21.5"/>
</g>
<!-- Node28&#45;&gt;Node21 -->
<g id="edge68" class="edge">
<title>Node28&#45;&gt;Node21</title>
<path fill="none" stroke="midnightblue" d="M555.18,-168.44C527.93,-159.36 484.67,-144.94 454.2,-134.78"/>
<polygon fill="midnightblue" stroke="midnightblue" points="454.99,-131.36 444.4,-131.52 452.78,-138 454.99,-131.36"/>
</g>
<!-- Node29&#45;&gt;Node2 -->
<g id="edge72" class="edge">
<title>Node29&#45;&gt;Node2</title>
<path fill="none" stroke="midnightblue" d="M1110.67,-112.44C1070.69,-102.72 1005.56,-86.88 963.73,-76.7"/>
<polygon fill="midnightblue" stroke="midnightblue" points="964.42,-73.27 953.88,-74.3 962.77,-80.07 964.42,-73.27"/>
</g>
<!-- Node29&#45;&gt;Node5 -->
<g id="edge74" class="edge">
<title>Node29&#45;&gt;Node5</title>
<path fill="none" stroke="midnightblue" d="M1169.9,-112.42C1206.41,-99.52 1278.13,-74.64 1339.85,-56 1385.83,-42.12 1439.55,-28.01 1473.38,-19.39"/>
<polygon fill="midnightblue" stroke="midnightblue" points="1474.38,-22.74 1483.22,-16.89 1472.66,-15.96 1474.38,-22.74"/>
</g>
<!-- Node29&#45;&gt;Node7 -->
<g id="edge75" class="edge">
<title>Node29&#45;&gt;Node7</title>
<path fill="none" stroke="midnightblue" d="M1149.07,-112.37C1155.71,-94.54 1171.09,-53.3 1180.04,-29.27"/>
<polygon fill="midnightblue" stroke="midnightblue" points="1183.43,-30.18 1183.65,-19.59 1176.88,-27.74 1183.43,-30.18"/>
</g>
<!-- Node29&#45;&gt;Node8 -->
<g id="edge76" class="edge">
<title>Node29&#45;&gt;Node8</title>
<path fill="none" stroke="midnightblue" d="M1139.26,-112.25C1127.57,-97.52 1101.61,-68.16 1071.85,-56 1000.78,-26.95 464.79,-14.8 304.19,-11.78"/>
<polygon fill="midnightblue" stroke="midnightblue" points="303.79,-8.28 293.72,-11.59 303.66,-15.27 303.79,-8.28"/>
</g>
<!-- Node29&#45;&gt;Node9 -->
<g id="edge77" class="edge">
<title>Node29&#45;&gt;Node9</title>
<path fill="none" stroke="midnightblue" d="M1188.32,-112.44C1235.26,-102.98 1310.93,-87.74 1361.5,-77.55"/>
<polygon fill="midnightblue" stroke="midnightblue" points="1362.47,-80.92 1371.58,-75.52 1361.09,-74.06 1362.47,-80.92"/>
</g>
<!-- Node29&#45;&gt;Node15 -->
<g id="edge73" class="edge">
<title>Node29&#45;&gt;Node15</title>
<path fill="none" stroke="midnightblue" d="M1086.24,-115.27C969.68,-104.07 714.73,-79.58 620.13,-70.49"/>
<polygon fill="midnightblue" stroke="midnightblue" points="620.21,-66.98 609.92,-69.5 619.54,-73.95 620.21,-66.98"/>
</g>
<!-- Node30&#45;&gt;Node2 -->
<g id="edge79" class="edge">
<title>Node30&#45;&gt;Node2</title>
<path fill="none" stroke="midnightblue" d="M1365.5,-177.03C1281.78,-174.88 1151.39,-165.65 1043.85,-132 1006.49,-120.31 967.36,-96.63 944.32,-81.31"/>
<polygon fill="midnightblue" stroke="midnightblue" points="946,-78.22 935.75,-75.51 942.07,-84.01 946,-78.22"/>
</g>
<!-- Node30&#45;&gt;Node3 -->
<g id="edge84" class="edge">
<title>Node30&#45;&gt;Node3</title>
<path fill="none" stroke="midnightblue" d="M1442.26,-168.08C1434.69,-160.22 1423.47,-148.57 1414.34,-139.08"/>
<polygon fill="midnightblue" stroke="midnightblue" points="1416.73,-136.53 1407.28,-131.75 1411.69,-141.38 1416.73,-136.53"/>
</g>
<!-- Node30&#45;&gt;Node5 -->
<g id="edge80" class="edge">
<title>Node30&#45;&gt;Node5</title>
<path fill="none" stroke="midnightblue" d="M1459.75,-168.29C1475.71,-151.97 1508.69,-114.89 1520.85,-76 1525.74,-60.35 1520.9,-42.06 1515.61,-28.87"/>
<polygon fill="midnightblue" stroke="midnightblue" points="1518.72,-27.25 1511.46,-19.54 1512.33,-30.1 1518.72,-27.25"/>
</g>
<!-- Node30&#45;&gt;Node6 -->
<g id="edge81" class="edge">
<title>Node30&#45;&gt;Node6</title>
<path fill="none" stroke="midnightblue" d="M1483.17,-168.44C1520.51,-158.56 1581.7,-142.36 1620.05,-132.21"/>
<polygon fill="midnightblue" stroke="midnightblue" points="1620.98,-135.59 1629.75,-129.64 1619.19,-128.82 1620.98,-135.59"/>
</g>
<!-- Node30&#45;&gt;Node7 -->
<g id="edge82" class="edge">
<title>Node30&#45;&gt;Node7</title>
<path fill="none" stroke="midnightblue" d="M1450.34,-168.25C1449.08,-154.55 1444.75,-127.95 1429.85,-112 1400.44,-80.52 1379.68,-92.42 1339.85,-76 1296.51,-58.13 1246.58,-36.77 1215.86,-23.54"/>
<polygon fill="midnightblue" stroke="midnightblue" points="1217.17,-20.29 1206.6,-19.55 1214.4,-26.72 1217.17,-20.29"/>
</g>
<!-- Node30&#45;&gt;Node8 -->
<g id="edge83" class="edge">
<title>Node30&#45;&gt;Node8</title>
<path fill="none" stroke="midnightblue" d="M1365.53,-172.73C1271.42,-166.97 1126.69,-154.71 1076.85,-132 1031.04,-111.12 1039.25,-75.53 992.85,-56 929.5,-29.34 453.41,-15.69 303.74,-12.03"/>
<polygon fill="midnightblue" stroke="midnightblue" points="303.62,-8.52 293.54,-11.78 303.45,-15.52 303.62,-8.52"/>
</g>
<!-- Node30&#45;&gt;Node9 -->
<g id="edge85" class="edge">
<title>Node30&#45;&gt;Node9</title>
<path fill="none" stroke="midnightblue" d="M1455.84,-168.22C1462.43,-155.37 1472.28,-130.92 1463.85,-112 1458.28,-99.5 1447.33,-89.01 1437.1,-81.32"/>
<polygon fill="midnightblue" stroke="midnightblue" points="1439.01,-78.38 1428.8,-75.53 1435,-84.12 1439.01,-78.38"/>
</g>
</g>
</svg>
