<?xml version="1.0" encoding="UTF-8" standalone="no"?>
<!DOCTYPE svg PUBLIC "-//W3C//DTD SVG 1.1//EN"
 "http://www.w3.org/Graphics/SVG/1.1/DTD/svg11.dtd">
<!-- Generated by graphviz version 2.43.0 (0)
 -->
<!-- Title: include/mini/spatial/fem.hpp Pages: 1 -->
<svg width="645pt" height="173pt"
 viewBox="0.00 0.00 645.00 173.00" xmlns="http://www.w3.org/2000/svg" xmlns:xlink="http://www.w3.org/1999/xlink">
<g id="graph0" class="graph" transform="scale(1 1) rotate(0) translate(4 169)">
<title>include/mini/spatial/fem.hpp</title>
<polygon fill="white" stroke="transparent" points="-4,4 -4,-169 641,-169 641,4 -4,4"/>
<!-- Node1 -->
<g id="node1" class="node">
<title>Node1</title>
<g id="a_node1"><a xlink:title=" ">
<polygon fill="#bfbfbf" stroke="black" points="262,-134.5 262,-164.5 375,-164.5 375,-134.5 262,-134.5"/>
<text text-anchor="start" x="270" y="-152.5" font-family="Helvetica,sans-Serif" font-size="10.00">include/mini/spatial</text>
<text text-anchor="middle" x="318.5" y="-141.5" font-family="Helvetica,sans-Serif" font-size="10.00">/fem.hpp</text>
</a>
</g>
</g>
<!-- Node2 -->
<g id="node2" class="node">
<title>Node2</title>
<g id="a_node2"><a xlink:href="dg_2general_8hpp.html" target="_top" xlink:title=" ">
<polygon fill="white" stroke="black" points="0,-67.5 0,-97.5 113,-97.5 113,-67.5 0,-67.5"/>
<text text-anchor="start" x="8" y="-85.5" font-family="Helvetica,sans-Serif" font-size="10.00">include/mini/spatial</text>
<text text-anchor="middle" x="56.5" y="-74.5" font-family="Helvetica,sans-Serif" font-size="10.00">/dg/general.hpp</text>
</a>
</g>
</g>
<!-- Node1&#45;&gt;Node2 -->
<g id="edge1" class="edge">
<title>Node1&#45;&gt;Node2</title>
<path fill="none" stroke="midnightblue" d="M252.2,-132.05C209.37,-121.43 154.21,-107.74 113.38,-97.61"/>
<polygon fill="midnightblue" stroke="midnightblue" points="251.42,-135.47 261.97,-134.48 253.11,-128.67 251.42,-135.47"/>
</g>
<!-- Node4 -->
<g id="node4" class="node">
<title>Node4</title>
<g id="a_node4"><a xlink:href="fr_2general_8hpp.html" target="_top" xlink:title=" ">
<polygon fill="white" stroke="black" points="131,-67.5 131,-97.5 244,-97.5 244,-67.5 131,-67.5"/>
<text text-anchor="start" x="139" y="-85.5" font-family="Helvetica,sans-Serif" font-size="10.00">include/mini/spatial</text>
<text text-anchor="middle" x="187.5" y="-74.5" font-family="Helvetica,sans-Serif" font-size="10.00">/fr/general.hpp</text>
</a>
</g>
</g>
<!-- Node1&#45;&gt;Node4 -->
<g id="edge3" class="edge">
<title>Node1&#45;&gt;Node4</title>
<path fill="none" stroke="midnightblue" d="M280.92,-129.85C260.21,-119.58 234.91,-107.03 215.87,-97.58"/>
<polygon fill="midnightblue" stroke="midnightblue" points="279.56,-133.09 290.07,-134.4 282.67,-126.82 279.56,-133.09"/>
</g>
<!-- Node6 -->
<g id="node6" class="node">
<title>Node6</title>
<g id="a_node6"><a xlink:href="viscosity_8hpp.html" target="_top" xlink:title=" ">
<polygon fill="white" stroke="black" points="262,-67.5 262,-97.5 375,-97.5 375,-67.5 262,-67.5"/>
<text text-anchor="start" x="270" y="-85.5" font-family="Helvetica,sans-Serif" font-size="10.00">include/mini/spatial</text>
<text text-anchor="middle" x="318.5" y="-74.5" font-family="Helvetica,sans-Serif" font-size="10.00">/viscosity.hpp</text>
</a>
</g>
</g>
<!-- Node1&#45;&gt;Node6 -->
<g id="edge5" class="edge">
<title>Node1&#45;&gt;Node6</title>
<path fill="none" stroke="midnightblue" d="M318.5,-124.11C318.5,-115.15 318.5,-105.32 318.5,-97.58"/>
<polygon fill="midnightblue" stroke="midnightblue" points="315,-124.4 318.5,-134.4 322,-124.4 315,-124.4"/>
</g>
<!-- Node7 -->
<g id="node7" class="node">
<title>Node7</title>
<g id="a_node7"><a xlink:href="with__limiter_8hpp.html" target="_top" xlink:title=" ">
<polygon fill="white" stroke="black" points="393,-67.5 393,-97.5 506,-97.5 506,-67.5 393,-67.5"/>
<text text-anchor="start" x="401" y="-85.5" font-family="Helvetica,sans-Serif" font-size="10.00">include/mini/spatial</text>
<text text-anchor="middle" x="449.5" y="-74.5" font-family="Helvetica,sans-Serif" font-size="10.00">/with_limiter.hpp</text>
</a>
</g>
</g>
<!-- Node1&#45;&gt;Node7 -->
<g id="edge6" class="edge">
<title>Node1&#45;&gt;Node7</title>
<path fill="none" stroke="midnightblue" d="M356.08,-129.85C376.79,-119.58 402.09,-107.03 421.13,-97.58"/>
<polygon fill="midnightblue" stroke="midnightblue" points="354.33,-126.82 346.93,-134.4 357.44,-133.09 354.33,-126.82"/>
</g>
<!-- Node8 -->
<g id="node8" class="node">
<title>Node8</title>
<g id="a_node8"><a xlink:href="with__viscosity_8hpp.html" target="_top" xlink:title=" ">
<polygon fill="white" stroke="black" points="524,-67.5 524,-97.5 637,-97.5 637,-67.5 524,-67.5"/>
<text text-anchor="start" x="532" y="-85.5" font-family="Helvetica,sans-Serif" font-size="10.00">include/mini/spatial</text>
<text text-anchor="middle" x="580.5" y="-74.5" font-family="Helvetica,sans-Serif" font-size="10.00">/with_viscosity.hpp</text>
</a>
</g>
</g>
<!-- Node1&#45;&gt;Node8 -->
<g id="edge7" class="edge">
<title>Node1&#45;&gt;Node8</title>
<path fill="none" stroke="midnightblue" d="M384.8,-132.05C427.63,-121.43 482.79,-107.74 523.62,-97.61"/>
<polygon fill="midnightblue" stroke="midnightblue" points="383.89,-128.67 375.03,-134.48 385.58,-135.47 383.89,-128.67"/>
</g>
<!-- Node3 -->
<g id="node3" class="node">
<title>Node3</title>
<g id="a_node3"><a xlink:href="spatial_2dg_2lobatto_8hpp.html" target="_top" xlink:title=" ">
<polygon fill="white" stroke="black" points="0,-0.5 0,-30.5 113,-30.5 113,-0.5 0,-0.5"/>
<text text-anchor="start" x="8" y="-18.5" font-family="Helvetica,sans-Serif" font-size="10.00">include/mini/spatial</text>
<text text-anchor="middle" x="56.5" y="-7.5" font-family="Helvetica,sans-Serif" font-size="10.00">/dg/lobatto.hpp</text>
</a>
</g>
</g>
<!-- Node2&#45;&gt;Node3 -->
<g id="edge2" class="edge">
<title>Node2&#45;&gt;Node3</title>
<path fill="none" stroke="midnightblue" d="M56.5,-57.11C56.5,-48.15 56.5,-38.32 56.5,-30.58"/>
<polygon fill="midnightblue" stroke="midnightblue" points="53,-57.4 56.5,-67.4 60,-57.4 53,-57.4"/>
</g>
<!-- Node5 -->
<g id="node5" class="node">
<title>Node5</title>
<g id="a_node5"><a xlink:href="spatial_2fr_2lobatto_8hpp.html" target="_top" xlink:title=" ">
<polygon fill="white" stroke="black" points="131,-0.5 131,-30.5 244,-30.5 244,-0.5 131,-0.5"/>
<text text-anchor="start" x="139" y="-18.5" font-family="Helvetica,sans-Serif" font-size="10.00">include/mini/spatial</text>
<text text-anchor="middle" x="187.5" y="-7.5" font-family="Helvetica,sans-Serif" font-size="10.00">/fr/lobatto.hpp</text>
</a>
</g>
</g>
<!-- Node4&#45;&gt;Node5 -->
<g id="edge4" class="edge">
<title>Node4&#45;&gt;Node5</title>
<path fill="none" stroke="midnightblue" d="M187.5,-57.11C187.5,-48.15 187.5,-38.32 187.5,-30.58"/>
<polygon fill="midnightblue" stroke="midnightblue" points="184,-57.4 187.5,-67.4 191,-57.4 184,-57.4"/>
</g>
</g>
</svg>
