<?xml version="1.0" encoding="UTF-8" standalone="no"?>
<!DOCTYPE svg PUBLIC "-//W3C//DTD SVG 1.1//EN"
 "http://www.w3.org/Graphics/SVG/1.1/DTD/svg11.dtd">
<!-- Generated by graphviz version 2.43.0 (0)
 -->
<!-- Title: include/mini/spatial/fem.hpp Pages: 1 -->
<svg width="1139pt" height="207pt"
 viewBox="0.00 0.00 1138.56 207.00" xmlns="http://www.w3.org/2000/svg" xmlns:xlink="http://www.w3.org/1999/xlink">
<g id="graph0" class="graph" transform="scale(1 1) rotate(0) translate(4 203)">
<title>include/mini/spatial/fem.hpp</title>
<polygon fill="white" stroke="transparent" points="-4,4 -4,-203 1134.56,-203 1134.56,4 -4,4"/>
<!-- Node1 -->
<g id="node1" class="node">
<title>Node1</title>
<g id="a_node1"><a xlink:title=" ">
<polygon fill="#bfbfbf" stroke="black" points="342.06,-168.5 342.06,-198.5 455.06,-198.5 455.06,-168.5 342.06,-168.5"/>
<text text-anchor="start" x="350.06" y="-186.5" font-family="Helvetica,sans-Serif" font-size="10.00">include/mini/spatial</text>
<text text-anchor="middle" x="398.56" y="-175.5" font-family="Helvetica,sans-Serif" font-size="10.00">/fem.hpp</text>
</a>
</g>
</g>
<!-- Node2 -->
<g id="node2" class="node">
<title>Node2</title>
<g id="a_node2"><a xlink:title=" ">
<polygon fill="white" stroke="#bfbfbf" points="91.56,-0.5 91.56,-19.5 155.56,-19.5 155.56,-0.5 91.56,-0.5"/>
<text text-anchor="middle" x="123.56" y="-7.5" font-family="Helvetica,sans-Serif" font-size="10.00">algorithm</text>
</a>
</g>
</g>
<!-- Node1&#45;&gt;Node2 -->
<g id="edge1" class="edge">
<title>Node1&#45;&gt;Node2</title>
<path fill="none" stroke="midnightblue" d="M341.82,-179.21C239.16,-172.68 31.13,-156.56 9.56,-132 -25.94,-91.6 50.63,-45.91 94.93,-24.03"/>
<polygon fill="midnightblue" stroke="midnightblue" points="96.62,-27.11 104.11,-19.61 93.58,-20.8 96.62,-27.11"/>
</g>
<!-- Node3 -->
<g id="node3" class="node">
<title>Node3</title>
<g id="a_node3"><a xlink:title=" ">
<polygon fill="white" stroke="#bfbfbf" points="198.56,-56.5 198.56,-75.5 250.56,-75.5 250.56,-56.5 198.56,-56.5"/>
<text text-anchor="middle" x="224.56" y="-63.5" font-family="Helvetica,sans-Serif" font-size="10.00">cassert</text>
</a>
</g>
</g>
<!-- Node1&#45;&gt;Node3 -->
<g id="edge2" class="edge">
<title>Node1&#45;&gt;Node3</title>
<path fill="none" stroke="midnightblue" d="M341.76,-178.94C241.85,-172.09 43.23,-155.64 22.56,-132 -24.85,-77.8 117.9,-68.47 188.06,-67.09"/>
<polygon fill="midnightblue" stroke="midnightblue" points="188.31,-70.59 198.26,-66.94 188.21,-63.59 188.31,-70.59"/>
</g>
<!-- Node4 -->
<g id="node4" class="node">
<title>Node4</title>
<g id="a_node4"><a xlink:title=" ">
<polygon fill="white" stroke="#bfbfbf" points="32.06,-112.5 32.06,-131.5 87.06,-131.5 87.06,-112.5 32.06,-112.5"/>
<text text-anchor="middle" x="59.56" y="-119.5" font-family="Helvetica,sans-Serif" font-size="10.00">fstream</text>
</a>
</g>
</g>
<!-- Node1&#45;&gt;Node4 -->
<g id="edge3" class="edge">
<title>Node1&#45;&gt;Node4</title>
<path fill="none" stroke="midnightblue" d="M341.9,-174.44C282.99,-165.75 187.9,-150.85 97.3,-132.25"/>
<polygon fill="midnightblue" stroke="midnightblue" points="97.92,-128.8 87.41,-130.2 96.5,-135.65 97.92,-128.8"/>
</g>
<!-- Node5 -->
<g id="node5" class="node">
<title>Node5</title>
<g id="a_node5"><a xlink:title=" ">
<polygon fill="white" stroke="#bfbfbf" points="105.06,-112.5 105.06,-131.5 170.06,-131.5 170.06,-112.5 105.06,-112.5"/>
<text text-anchor="middle" x="137.56" y="-119.5" font-family="Helvetica,sans-Serif" font-size="10.00">functional</text>
</a>
</g>
</g>
<!-- Node1&#45;&gt;Node5 -->
<g id="edge4" class="edge">
<title>Node1&#45;&gt;Node5</title>
<path fill="none" stroke="midnightblue" d="M341.92,-169.59C293.24,-158.49 224.11,-142.73 180.05,-132.69"/>
<polygon fill="midnightblue" stroke="midnightblue" points="180.76,-129.26 170.23,-130.45 179.2,-136.08 180.76,-129.26"/>
</g>
<!-- Node6 -->
<g id="node6" class="node">
<title>Node6</title>
<g id="a_node6"><a xlink:title=" ">
<polygon fill="white" stroke="#bfbfbf" points="188.56,-112.5 188.56,-131.5 246.56,-131.5 246.56,-112.5 188.56,-112.5"/>
<text text-anchor="middle" x="217.56" y="-119.5" font-family="Helvetica,sans-Serif" font-size="10.00">memory</text>
</a>
</g>
</g>
<!-- Node1&#45;&gt;Node6 -->
<g id="edge5" class="edge">
<title>Node1&#45;&gt;Node6</title>
<path fill="none" stroke="midnightblue" d="M355.66,-168.4C324.52,-158.16 282.87,-144.47 253.48,-134.81"/>
<polygon fill="midnightblue" stroke="midnightblue" points="254.22,-131.37 243.63,-131.57 252.04,-138.02 254.22,-131.37"/>
</g>
<!-- Node7 -->
<g id="node7" class="node">
<title>Node7</title>
<g id="a_node7"><a xlink:title=" ">
<polygon fill="white" stroke="#bfbfbf" points="265.06,-112.5 265.06,-131.5 312.06,-131.5 312.06,-112.5 265.06,-112.5"/>
<text text-anchor="middle" x="288.56" y="-119.5" font-family="Helvetica,sans-Serif" font-size="10.00">vector</text>
</a>
</g>
</g>
<!-- Node1&#45;&gt;Node7 -->
<g id="edge6" class="edge">
<title>Node1&#45;&gt;Node7</title>
<path fill="none" stroke="midnightblue" d="M372.49,-168.4C354.69,-158.77 331.24,-146.09 313.66,-136.58"/>
<polygon fill="midnightblue" stroke="midnightblue" points="315.02,-133.34 304.56,-131.66 311.69,-139.49 315.02,-133.34"/>
</g>
<!-- Node8 -->
<g id="node8" class="node">
<title>Node8</title>
<g id="a_node8"><a xlink:title=" ">
<polygon fill="white" stroke="#bfbfbf" points="330.06,-112.5 330.06,-131.5 395.06,-131.5 395.06,-112.5 330.06,-112.5"/>
<text text-anchor="middle" x="362.56" y="-119.5" font-family="Helvetica,sans-Serif" font-size="10.00">stdexcept</text>
</a>
</g>
</g>
<!-- Node1&#45;&gt;Node8 -->
<g id="edge7" class="edge">
<title>Node1&#45;&gt;Node8</title>
<path fill="none" stroke="midnightblue" d="M390.02,-168.4C384.96,-160.02 378.49,-149.33 373.1,-140.42"/>
<polygon fill="midnightblue" stroke="midnightblue" points="375.97,-138.4 367.79,-131.66 369.98,-142.03 375.97,-138.4"/>
</g>
<!-- Node9 -->
<g id="node9" class="node">
<title>Node9</title>
<g id="a_node9"><a xlink:title=" ">
<polygon fill="white" stroke="#bfbfbf" points="413.56,-112.5 413.56,-131.5 457.56,-131.5 457.56,-112.5 413.56,-112.5"/>
<text text-anchor="middle" x="435.56" y="-119.5" font-family="Helvetica,sans-Serif" font-size="10.00">string</text>
</a>
</g>
</g>
<!-- Node1&#45;&gt;Node9 -->
<g id="edge8" class="edge">
<title>Node1&#45;&gt;Node9</title>
<path fill="none" stroke="midnightblue" d="M407.32,-168.4C412.53,-160.02 419.18,-149.33 424.72,-140.42"/>
<polygon fill="midnightblue" stroke="midnightblue" points="427.86,-142 430.17,-131.66 421.92,-138.3 427.86,-142"/>
</g>
<!-- Node10 -->
<g id="node10" class="node">
<title>Node10</title>
<g id="a_node10"><a xlink:title=" ">
<polygon fill="white" stroke="#bfbfbf" points="780.06,-56.5 780.06,-75.5 849.06,-75.5 849.06,-56.5 780.06,-56.5"/>
<text text-anchor="middle" x="814.56" y="-63.5" font-family="Helvetica,sans-Serif" font-size="10.00">type_traits</text>
</a>
</g>
</g>
<!-- Node1&#45;&gt;Node10 -->
<g id="edge9" class="edge">
<title>Node1&#45;&gt;Node10</title>
<path fill="none" stroke="midnightblue" d="M455.35,-181.85C550.23,-179.68 735.6,-170.48 786.56,-132 801.09,-121.03 808.18,-100.97 811.57,-86.03"/>
<polygon fill="midnightblue" stroke="midnightblue" points="815.08,-86.31 813.51,-75.83 808.21,-85 815.08,-86.31"/>
</g>
<!-- Node11 -->
<g id="node11" class="node">
<title>Node11</title>
<g id="a_node11"><a xlink:title=" ">
<polygon fill="white" stroke="#bfbfbf" points="622.06,-112.5 622.06,-131.5 715.06,-131.5 715.06,-112.5 622.06,-112.5"/>
<text text-anchor="middle" x="668.56" y="-119.5" font-family="Helvetica,sans-Serif" font-size="10.00">unordered_map</text>
</a>
</g>
</g>
<!-- Node1&#45;&gt;Node11 -->
<g id="edge10" class="edge">
<title>Node1&#45;&gt;Node11</title>
<path fill="none" stroke="midnightblue" d="M455.16,-170.03C503.99,-159.26 573.78,-143.89 620.09,-133.68"/>
<polygon fill="midnightblue" stroke="midnightblue" points="620.87,-137.09 629.88,-131.52 619.37,-130.26 620.87,-137.09"/>
</g>
<!-- Node12 -->
<g id="node12" class="node">
<title>Node12</title>
<g id="a_node12"><a xlink:title=" ">
<polygon fill="white" stroke="#bfbfbf" points="733.06,-112.5 733.06,-131.5 778.06,-131.5 778.06,-112.5 733.06,-112.5"/>
<text text-anchor="middle" x="755.56" y="-119.5" font-family="Helvetica,sans-Serif" font-size="10.00">utility</text>
</a>
</g>
</g>
<!-- Node1&#45;&gt;Node12 -->
<g id="edge11" class="edge">
<title>Node1&#45;&gt;Node12</title>
<path fill="none" stroke="midnightblue" d="M455.3,-175.78C518.36,-167.85 623.34,-153.25 722.98,-131.89"/>
<polygon fill="midnightblue" stroke="midnightblue" points="723.88,-135.27 732.92,-129.73 722.4,-128.43 723.88,-135.27"/>
</g>
<!-- Node13 -->
<g id="node13" class="node">
<title>Node13</title>
<g id="a_node13"><a xlink:href="riemann_2concept_8hpp.html" target="_top" xlink:title=" ">
<polygon fill="white" stroke="black" points="834.56,-112.5 834.56,-131.5 978.56,-131.5 978.56,-112.5 834.56,-112.5"/>
<text text-anchor="middle" x="906.56" y="-119.5" font-family="Helvetica,sans-Serif" font-size="10.00">mini/riemann/concept.hpp</text>
</a>
</g>
</g>
<!-- Node1&#45;&gt;Node13 -->
<g id="edge12" class="edge">
<title>Node1&#45;&gt;Node13</title>
<path fill="none" stroke="midnightblue" d="M455.35,-175.85C545.18,-165.33 720.45,-144.8 824.12,-132.66"/>
<polygon fill="midnightblue" stroke="midnightblue" points="824.71,-136.11 834.24,-131.47 823.9,-129.16 824.71,-136.11"/>
</g>
<!-- Node15 -->
<g id="node15" class="node">
<title>Node15</title>
<g id="a_node15"><a xlink:href="ode_8hpp.html" target="_top" xlink:title=" ">
<polygon fill="white" stroke="black" points="475.56,-112.5 475.56,-131.5 603.56,-131.5 603.56,-112.5 475.56,-112.5"/>
<text text-anchor="middle" x="539.56" y="-119.5" font-family="Helvetica,sans-Serif" font-size="10.00">mini/temporal/ode.hpp</text>
</a>
</g>
</g>
<!-- Node1&#45;&gt;Node15 -->
<g id="edge15" class="edge">
<title>Node1&#45;&gt;Node15</title>
<path fill="none" stroke="midnightblue" d="M431.97,-168.4C455.52,-158.46 486.79,-145.26 509.55,-135.66"/>
<polygon fill="midnightblue" stroke="midnightblue" points="511.19,-138.77 519.04,-131.66 508.47,-132.32 511.19,-138.77"/>
</g>
<!-- Node20 -->
<g id="node20" class="node">
<title>Node20</title>
<g id="a_node20"><a xlink:href="index_8hpp.html" target="_top" xlink:title=" ">
<polygon fill="white" stroke="black" points="996.56,-112.5 996.56,-131.5 1130.56,-131.5 1130.56,-112.5 996.56,-112.5"/>
<text text-anchor="middle" x="1063.56" y="-119.5" font-family="Helvetica,sans-Serif" font-size="10.00">mini/constant/index.hpp</text>
</a>
</g>
</g>
<!-- Node1&#45;&gt;Node20 -->
<g id="edge22" class="edge">
<title>Node1&#45;&gt;Node20</title>
<path fill="none" stroke="midnightblue" d="M455.06,-178.27C558.31,-170.4 784.61,-152.53 986.24,-132.1"/>
<polygon fill="midnightblue" stroke="midnightblue" points="986.84,-135.56 996.43,-131.07 986.13,-128.6 986.84,-135.56"/>
</g>
<!-- Node13&#45;&gt;Node10 -->
<g id="edge14" class="edge">
<title>Node13&#45;&gt;Node10</title>
<path fill="none" stroke="midnightblue" d="M891.77,-112.32C877.29,-103.82 854.98,-90.73 838.06,-80.8"/>
<polygon fill="midnightblue" stroke="midnightblue" points="839.7,-77.7 829.3,-75.65 836.15,-83.74 839.7,-77.7"/>
</g>
<!-- Node14 -->
<g id="node14" class="node">
<title>Node14</title>
<g id="a_node14"><a xlink:title=" ">
<polygon fill="white" stroke="#bfbfbf" points="876.56,-56.5 876.56,-75.5 936.56,-75.5 936.56,-56.5 876.56,-56.5"/>
<text text-anchor="middle" x="906.56" y="-63.5" font-family="Helvetica,sans-Serif" font-size="10.00">concepts</text>
</a>
</g>
</g>
<!-- Node13&#45;&gt;Node14 -->
<g id="edge13" class="edge">
<title>Node13&#45;&gt;Node14</title>
<path fill="none" stroke="midnightblue" d="M906.56,-112.08C906.56,-105.01 906.56,-94.86 906.56,-85.99"/>
<polygon fill="midnightblue" stroke="midnightblue" points="910.06,-85.75 906.56,-75.75 903.06,-85.75 910.06,-85.75"/>
</g>
<!-- Node15&#45;&gt;Node3 -->
<g id="edge16" class="edge">
<title>Node15&#45;&gt;Node3</title>
<path fill="none" stroke="midnightblue" d="M489.64,-112.44C425.79,-101.5 316.74,-82.8 260.48,-73.16"/>
<polygon fill="midnightblue" stroke="midnightblue" points="261.06,-69.71 250.61,-71.47 259.87,-76.61 261.06,-69.71"/>
</g>
<!-- Node16 -->
<g id="node16" class="node">
<title>Node16</title>
<g id="a_node16"><a xlink:href="algebra_2eigen_8hpp.html" target="_top" xlink:title=" ">
<polygon fill="white" stroke="black" points="372.06,-56.5 372.06,-75.5 501.06,-75.5 501.06,-56.5 372.06,-56.5"/>
<text text-anchor="middle" x="436.56" y="-63.5" font-family="Helvetica,sans-Serif" font-size="10.00">mini/algebra/eigen.hpp</text>
</a>
</g>
</g>
<!-- Node15&#45;&gt;Node16 -->
<g id="edge17" class="edge">
<title>Node15&#45;&gt;Node16</title>
<path fill="none" stroke="midnightblue" d="M523.01,-112.32C506.56,-103.7 481.12,-90.36 462.09,-80.39"/>
<polygon fill="midnightblue" stroke="midnightblue" points="463.55,-77.2 453.06,-75.65 460.3,-83.4 463.55,-77.2"/>
</g>
<!-- Node16&#45;&gt;Node2 -->
<g id="edge18" class="edge">
<title>Node16&#45;&gt;Node2</title>
<path fill="none" stroke="midnightblue" d="M386.96,-56.44C325.94,-45.92 223.4,-28.23 165.91,-18.31"/>
<polygon fill="midnightblue" stroke="midnightblue" points="166.17,-14.8 155.72,-16.55 164.98,-21.7 166.17,-14.8"/>
</g>
<!-- Node17 -->
<g id="node17" class="node">
<title>Node17</title>
<g id="a_node17"><a xlink:title=" ">
<polygon fill="white" stroke="#bfbfbf" points="492.06,-0.5 492.06,-19.5 539.06,-19.5 539.06,-0.5 492.06,-0.5"/>
<text text-anchor="middle" x="515.56" y="-7.5" font-family="Helvetica,sans-Serif" font-size="10.00">cmath</text>
</a>
</g>
</g>
<!-- Node16&#45;&gt;Node17 -->
<g id="edge19" class="edge">
<title>Node16&#45;&gt;Node17</title>
<path fill="none" stroke="midnightblue" d="M449.25,-56.32C461.46,-47.98 480.13,-35.21 494.56,-25.35"/>
<polygon fill="midnightblue" stroke="midnightblue" points="496.61,-28.19 502.89,-19.65 492.66,-22.41 496.61,-28.19"/>
</g>
<!-- Node18 -->
<g id="node18" class="node">
<title>Node18</title>
<g id="a_node18"><a xlink:title=" ">
<polygon fill="white" stroke="#bfbfbf" points="332.06,-0.5 332.06,-19.5 381.06,-19.5 381.06,-0.5 332.06,-0.5"/>
<text text-anchor="middle" x="356.56" y="-7.5" font-family="Helvetica,sans-Serif" font-size="10.00">cstdlib</text>
</a>
</g>
</g>
<!-- Node16&#45;&gt;Node18 -->
<g id="edge20" class="edge">
<title>Node16&#45;&gt;Node18</title>
<path fill="none" stroke="midnightblue" d="M423.7,-56.32C411.34,-47.98 392.43,-35.21 377.82,-25.35"/>
<polygon fill="midnightblue" stroke="midnightblue" points="379.62,-22.35 369.38,-19.65 375.71,-28.15 379.62,-22.35"/>
</g>
<!-- Node19 -->
<g id="node19" class="node">
<title>Node19</title>
<g id="a_node19"><a xlink:title=" ">
<polygon fill="white" stroke="#bfbfbf" points="399.56,-0.5 399.56,-19.5 473.56,-19.5 473.56,-0.5 399.56,-0.5"/>
<text text-anchor="middle" x="436.56" y="-7.5" font-family="Helvetica,sans-Serif" font-size="10.00">Eigen/Eigen</text>
</a>
</g>
</g>
<!-- Node16&#45;&gt;Node19 -->
<g id="edge21" class="edge">
<title>Node16&#45;&gt;Node19</title>
<path fill="none" stroke="midnightblue" d="M436.56,-56.08C436.56,-49.01 436.56,-38.86 436.56,-29.99"/>
<polygon fill="midnightblue" stroke="midnightblue" points="440.06,-29.75 436.56,-19.75 433.06,-29.75 440.06,-29.75"/>
</g>
</g>
</svg>
