<?xml version="1.0" encoding="UTF-8" standalone="no"?>
<!DOCTYPE svg PUBLIC "-//W3C//DTD SVG 1.1//EN"
 "http://www.w3.org/Graphics/SVG/1.1/DTD/svg11.dtd">
<!-- Generated by graphviz version 2.43.0 (0)
 -->
<!-- Title: include/mini/geometry/frame.hpp Pages: 1 -->
<svg width="426pt" height="207pt"
 viewBox="0.00 0.00 425.50 207.00" xmlns="http://www.w3.org/2000/svg" xmlns:xlink="http://www.w3.org/1999/xlink">
<g id="graph0" class="graph" transform="scale(1 1) rotate(0) translate(4 203)">
<title>include/mini/geometry/frame.hpp</title>
<polygon fill="white" stroke="transparent" points="-4,4 -4,-203 421.5,-203 421.5,4 -4,4"/>
<!-- Node1 -->
<g id="node1" class="node">
<title>Node1</title>
<g id="a_node1"><a xlink:title=" ">
<polygon fill="#bfbfbf" stroke="black" points="102.5,-168.5 102.5,-198.5 229.5,-198.5 229.5,-168.5 102.5,-168.5"/>
<text text-anchor="start" x="110.5" y="-186.5" font-family="Helvetica,sans-Serif" font-size="10.00">include/mini/geometry</text>
<text text-anchor="middle" x="166" y="-175.5" font-family="Helvetica,sans-Serif" font-size="10.00">/frame.hpp</text>
</a>
</g>
</g>
<!-- Node2 -->
<g id="node2" class="node">
<title>Node2</title>
<g id="a_node2"><a xlink:title=" ">
<polygon fill="white" stroke="#bfbfbf" points="0,-112.5 0,-131.5 60,-131.5 60,-112.5 0,-112.5"/>
<text text-anchor="middle" x="30" y="-119.5" font-family="Helvetica,sans-Serif" font-size="10.00">concepts</text>
</a>
</g>
</g>
<!-- Node1&#45;&gt;Node2 -->
<g id="edge1" class="edge">
<title>Node1&#45;&gt;Node2</title>
<path fill="none" stroke="midnightblue" d="M133.77,-168.4C111.16,-158.51 81.16,-145.38 59.24,-135.79"/>
<polygon fill="midnightblue" stroke="midnightblue" points="60.35,-132.46 49.79,-131.66 57.55,-138.87 60.35,-132.46"/>
</g>
<!-- Node3 -->
<g id="node3" class="node">
<title>Node3</title>
<g id="a_node3"><a xlink:title=" ">
<polygon fill="white" stroke="#bfbfbf" points="78,-112.5 78,-131.5 138,-131.5 138,-112.5 78,-112.5"/>
<text text-anchor="middle" x="108" y="-119.5" font-family="Helvetica,sans-Serif" font-size="10.00">iostream</text>
</a>
</g>
</g>
<!-- Node1&#45;&gt;Node3 -->
<g id="edge2" class="edge">
<title>Node1&#45;&gt;Node3</title>
<path fill="none" stroke="midnightblue" d="M152.25,-168.4C143.65,-159.58 132.55,-148.18 123.61,-139.02"/>
<polygon fill="midnightblue" stroke="midnightblue" points="125.93,-136.38 116.44,-131.66 120.91,-141.26 125.93,-136.38"/>
</g>
<!-- Node4 -->
<g id="node4" class="node">
<title>Node4</title>
<g id="a_node4"><a xlink:title=" ">
<polygon fill="white" stroke="#bfbfbf" points="109.5,-56.5 109.5,-75.5 154.5,-75.5 154.5,-56.5 109.5,-56.5"/>
<text text-anchor="middle" x="132" y="-63.5" font-family="Helvetica,sans-Serif" font-size="10.00">utility</text>
</a>
</g>
</g>
<!-- Node1&#45;&gt;Node4 -->
<g id="edge3" class="edge">
<title>Node1&#45;&gt;Node4</title>
<path fill="none" stroke="midnightblue" d="M162.46,-168.39C158.81,-154.1 152.85,-131.42 147,-112 144.33,-103.12 141.1,-93.34 138.33,-85.17"/>
<polygon fill="midnightblue" stroke="midnightblue" points="141.59,-83.9 135.03,-75.58 134.97,-86.17 141.59,-83.9"/>
</g>
<!-- Node5 -->
<g id="node5" class="node">
<title>Node5</title>
<g id="a_node5"><a xlink:href="algebra_2eigen_8hpp.html" target="_top" xlink:title=" ">
<polygon fill="white" stroke="black" points="172.5,-56.5 172.5,-75.5 301.5,-75.5 301.5,-56.5 172.5,-56.5"/>
<text text-anchor="middle" x="237" y="-63.5" font-family="Helvetica,sans-Serif" font-size="10.00">mini/algebra/eigen.hpp</text>
</a>
</g>
</g>
<!-- Node1&#45;&gt;Node5 -->
<g id="edge4" class="edge">
<title>Node1&#45;&gt;Node5</title>
<path fill="none" stroke="midnightblue" d="M174.71,-168.34C187.73,-147.15 212.26,-107.24 226.34,-84.34"/>
<polygon fill="midnightblue" stroke="midnightblue" points="229.42,-86.02 231.67,-75.67 223.45,-82.36 229.42,-86.02"/>
</g>
<!-- Node10 -->
<g id="node10" class="node">
<title>Node10</title>
<g id="a_node10"><a xlink:href="pi_8hpp.html" target="_top" xlink:title=" ">
<polygon fill="white" stroke="black" points="232,-112.5 232,-131.5 354,-131.5 354,-112.5 232,-112.5"/>
<text text-anchor="middle" x="293" y="-119.5" font-family="Helvetica,sans-Serif" font-size="10.00">mini/geometry/pi.hpp</text>
</a>
</g>
</g>
<!-- Node1&#45;&gt;Node10 -->
<g id="edge9" class="edge">
<title>Node1&#45;&gt;Node10</title>
<path fill="none" stroke="midnightblue" d="M196.1,-168.4C217.12,-158.55 244.97,-145.5 265.42,-135.92"/>
<polygon fill="midnightblue" stroke="midnightblue" points="266.95,-139.07 274.52,-131.66 263.98,-132.73 266.95,-139.07"/>
</g>
<!-- Node6 -->
<g id="node6" class="node">
<title>Node6</title>
<g id="a_node6"><a xlink:title=" ">
<polygon fill="white" stroke="#bfbfbf" points="64,-0.5 64,-19.5 128,-19.5 128,-0.5 64,-0.5"/>
<text text-anchor="middle" x="96" y="-7.5" font-family="Helvetica,sans-Serif" font-size="10.00">algorithm</text>
</a>
</g>
</g>
<!-- Node5&#45;&gt;Node6 -->
<g id="edge5" class="edge">
<title>Node5&#45;&gt;Node6</title>
<path fill="none" stroke="midnightblue" d="M214.66,-56.44C191.25,-47.48 154.26,-33.31 127.81,-23.18"/>
<polygon fill="midnightblue" stroke="midnightblue" points="128.83,-19.82 118.24,-19.52 126.32,-26.36 128.83,-19.82"/>
</g>
<!-- Node7 -->
<g id="node7" class="node">
<title>Node7</title>
<g id="a_node7"><a xlink:title=" ">
<polygon fill="white" stroke="#bfbfbf" points="306.5,-0.5 306.5,-19.5 353.5,-19.5 353.5,-0.5 306.5,-0.5"/>
<text text-anchor="middle" x="330" y="-7.5" font-family="Helvetica,sans-Serif" font-size="10.00">cmath</text>
</a>
</g>
</g>
<!-- Node5&#45;&gt;Node7 -->
<g id="edge6" class="edge">
<title>Node5&#45;&gt;Node7</title>
<path fill="none" stroke="midnightblue" d="M251.94,-56.32C266.59,-47.82 289.13,-34.73 306.24,-24.8"/>
<polygon fill="midnightblue" stroke="midnightblue" points="308.2,-27.7 315.1,-19.65 304.69,-21.65 308.2,-27.7"/>
</g>
<!-- Node8 -->
<g id="node8" class="node">
<title>Node8</title>
<g id="a_node8"><a xlink:title=" ">
<polygon fill="white" stroke="#bfbfbf" points="146.5,-0.5 146.5,-19.5 195.5,-19.5 195.5,-0.5 146.5,-0.5"/>
<text text-anchor="middle" x="171" y="-7.5" font-family="Helvetica,sans-Serif" font-size="10.00">cstdlib</text>
</a>
</g>
</g>
<!-- Node5&#45;&gt;Node8 -->
<g id="edge7" class="edge">
<title>Node5&#45;&gt;Node8</title>
<path fill="none" stroke="midnightblue" d="M226.4,-56.32C216.54,-48.26 201.65,-36.08 189.78,-26.37"/>
<polygon fill="midnightblue" stroke="midnightblue" points="191.75,-23.46 181.8,-19.83 187.32,-28.88 191.75,-23.46"/>
</g>
<!-- Node9 -->
<g id="node9" class="node">
<title>Node9</title>
<g id="a_node9"><a xlink:title=" ">
<polygon fill="white" stroke="#bfbfbf" points="214,-0.5 214,-19.5 288,-19.5 288,-0.5 214,-0.5"/>
<text text-anchor="middle" x="251" y="-7.5" font-family="Helvetica,sans-Serif" font-size="10.00">Eigen/Eigen</text>
</a>
</g>
</g>
<!-- Node5&#45;&gt;Node9 -->
<g id="edge8" class="edge">
<title>Node5&#45;&gt;Node9</title>
<path fill="none" stroke="midnightblue" d="M239.31,-56.08C241.17,-48.93 243.84,-38.64 246.15,-29.69"/>
<polygon fill="midnightblue" stroke="midnightblue" points="249.61,-30.31 248.73,-19.75 242.83,-28.55 249.61,-30.31"/>
</g>
<!-- Node10&#45;&gt;Node4 -->
<g id="edge12" class="edge">
<title>Node10&#45;&gt;Node4</title>
<path fill="none" stroke="midnightblue" d="M267.49,-112.44C239.53,-103.07 194.61,-88 164.23,-77.81"/>
<polygon fill="midnightblue" stroke="midnightblue" points="165.13,-74.42 154.53,-74.56 162.9,-81.06 165.13,-74.42"/>
</g>
<!-- Node10&#45;&gt;Node5 -->
<g id="edge13" class="edge">
<title>Node10&#45;&gt;Node5</title>
<path fill="none" stroke="midnightblue" d="M284,-112.32C275.81,-104.42 263.49,-92.55 253.53,-82.94"/>
<polygon fill="midnightblue" stroke="midnightblue" points="255.79,-80.26 246.16,-75.83 250.93,-85.29 255.79,-80.26"/>
</g>
<!-- Node10&#45;&gt;Node7 -->
<g id="edge10" class="edge">
<title>Node10&#45;&gt;Node7</title>
<path fill="none" stroke="midnightblue" d="M296.7,-112.47C300.52,-103.48 306.55,-88.88 311,-76 316.34,-60.55 321.48,-42.7 325.07,-29.62"/>
<polygon fill="midnightblue" stroke="midnightblue" points="328.46,-30.48 327.69,-19.92 321.7,-28.66 328.46,-30.48"/>
</g>
<!-- Node11 -->
<g id="node11" class="node">
<title>Node11</title>
<g id="a_node11"><a xlink:title=" ">
<polygon fill="white" stroke="#bfbfbf" points="358.5,-56.5 358.5,-75.5 417.5,-75.5 417.5,-56.5 358.5,-56.5"/>
<text text-anchor="middle" x="388" y="-63.5" font-family="Helvetica,sans-Serif" font-size="10.00">numbers</text>
</a>
</g>
</g>
<!-- Node10&#45;&gt;Node11 -->
<g id="edge11" class="edge">
<title>Node10&#45;&gt;Node11</title>
<path fill="none" stroke="midnightblue" d="M308.26,-112.32C323.22,-103.82 346.25,-90.73 363.73,-80.8"/>
<polygon fill="midnightblue" stroke="midnightblue" points="365.81,-83.64 372.77,-75.65 362.35,-77.55 365.81,-83.64"/>
</g>
</g>
</svg>
