<?xml version="1.0" encoding="UTF-8" standalone="no"?>
<!DOCTYPE svg PUBLIC "-//W3C//DTD SVG 1.1//EN"
 "http://www.w3.org/Graphics/SVG/1.1/DTD/svg11.dtd">
<!-- Generated by graphviz version 2.43.0 (0)
 -->
<!-- Title: include/mini/geometry/frame.hpp Pages: 1 -->
<svg width="171pt" height="307pt"
 viewBox="0.00 0.00 170.50 307.00" xmlns="http://www.w3.org/2000/svg" xmlns:xlink="http://www.w3.org/1999/xlink">
<g id="graph0" class="graph" transform="scale(1 1) rotate(0) translate(4 303)">
<title>include/mini/geometry/frame.hpp</title>
<polygon fill="white" stroke="transparent" points="-4,4 -4,-303 166.5,-303 166.5,4 -4,4"/>
<!-- Node1 -->
<g id="node1" class="node">
<title>Node1</title>
<g id="a_node1"><a xlink:title=" ">
<polygon fill="#bfbfbf" stroke="black" points="35.5,-268.5 35.5,-298.5 162.5,-298.5 162.5,-268.5 35.5,-268.5"/>
<text text-anchor="start" x="43.5" y="-286.5" font-family="Helvetica,sans-Serif" font-size="10.00">include/mini/geometry</text>
<text text-anchor="middle" x="99" y="-275.5" font-family="Helvetica,sans-Serif" font-size="10.00">/frame.hpp</text>
</a>
</g>
</g>
<!-- Node2 -->
<g id="node2" class="node">
<title>Node2</title>
<g id="a_node2"><a xlink:href="section_8hpp.html" target="_top" xlink:title=" ">
<polygon fill="white" stroke="black" points="0,-201.5 0,-231.5 114,-231.5 114,-201.5 0,-201.5"/>
<text text-anchor="start" x="8" y="-219.5" font-family="Helvetica,sans-Serif" font-size="10.00">include/mini/aircraft</text>
<text text-anchor="middle" x="57" y="-208.5" font-family="Helvetica,sans-Serif" font-size="10.00">/section.hpp</text>
</a>
</g>
</g>
<!-- Node1&#45;&gt;Node2 -->
<g id="edge1" class="edge">
<title>Node1&#45;&gt;Node2</title>
<path fill="none" stroke="midnightblue" d="M84.38,-259.87C78.3,-250.46 71.43,-239.83 66.1,-231.58"/>
<polygon fill="midnightblue" stroke="midnightblue" points="81.52,-261.9 89.89,-268.4 87.4,-258.1 81.52,-261.9"/>
</g>
<!-- Node5 -->
<g id="node5" class="node">
<title>Node5</title>
<g id="a_node5"><a xlink:href="source_8hpp.html" target="_top" xlink:title=" ">
<polygon fill="white" stroke="black" points="42,-0.5 42,-30.5 156,-30.5 156,-0.5 42,-0.5"/>
<text text-anchor="start" x="50" y="-18.5" font-family="Helvetica,sans-Serif" font-size="10.00">include/mini/aircraft</text>
<text text-anchor="middle" x="99" y="-7.5" font-family="Helvetica,sans-Serif" font-size="10.00">/source.hpp</text>
</a>
</g>
</g>
<!-- Node1&#45;&gt;Node5 -->
<g id="edge5" class="edge">
<title>Node1&#45;&gt;Node5</title>
<path fill="none" stroke="midnightblue" d="M112.78,-259.08C116.92,-250.81 120.91,-241.26 123,-232 139.13,-160.46 139.13,-138.54 123,-67 120.1,-54.12 113.5,-40.67 107.96,-30.9"/>
<polygon fill="midnightblue" stroke="midnightblue" points="109.58,-257.63 107.96,-268.1 115.76,-260.93 109.58,-257.63"/>
</g>
<!-- Node3 -->
<g id="node3" class="node">
<title>Node3</title>
<g id="a_node3"><a xlink:href="blade_8hpp.html" target="_top" xlink:title=" ">
<polygon fill="white" stroke="black" points="0,-134.5 0,-164.5 114,-164.5 114,-134.5 0,-134.5"/>
<text text-anchor="start" x="8" y="-152.5" font-family="Helvetica,sans-Serif" font-size="10.00">include/mini/aircraft</text>
<text text-anchor="middle" x="57" y="-141.5" font-family="Helvetica,sans-Serif" font-size="10.00">/blade.hpp</text>
</a>
</g>
</g>
<!-- Node2&#45;&gt;Node3 -->
<g id="edge2" class="edge">
<title>Node2&#45;&gt;Node3</title>
<path fill="none" stroke="midnightblue" d="M57,-191.11C57,-182.15 57,-172.32 57,-164.58"/>
<polygon fill="midnightblue" stroke="midnightblue" points="53.5,-191.4 57,-201.4 60.5,-191.4 53.5,-191.4"/>
</g>
<!-- Node4 -->
<g id="node4" class="node">
<title>Node4</title>
<g id="a_node4"><a xlink:href="rotor_8hpp.html" target="_top" xlink:title=" ">
<polygon fill="white" stroke="black" points="0,-67.5 0,-97.5 114,-97.5 114,-67.5 0,-67.5"/>
<text text-anchor="start" x="8" y="-85.5" font-family="Helvetica,sans-Serif" font-size="10.00">include/mini/aircraft</text>
<text text-anchor="middle" x="57" y="-74.5" font-family="Helvetica,sans-Serif" font-size="10.00">/rotor.hpp</text>
</a>
</g>
</g>
<!-- Node3&#45;&gt;Node4 -->
<g id="edge3" class="edge">
<title>Node3&#45;&gt;Node4</title>
<path fill="none" stroke="midnightblue" d="M57,-124.11C57,-115.15 57,-105.32 57,-97.58"/>
<polygon fill="midnightblue" stroke="midnightblue" points="53.5,-124.4 57,-134.4 60.5,-124.4 53.5,-124.4"/>
</g>
<!-- Node4&#45;&gt;Node5 -->
<g id="edge4" class="edge">
<title>Node4&#45;&gt;Node5</title>
<path fill="none" stroke="midnightblue" d="M71.62,-58.87C77.7,-49.46 84.57,-38.83 89.9,-30.58"/>
<polygon fill="midnightblue" stroke="midnightblue" points="68.6,-57.1 66.11,-67.4 74.48,-60.9 68.6,-57.1"/>
</g>
</g>
</svg>
