<?xml version="1.0" encoding="UTF-8" standalone="no"?>
<!DOCTYPE svg PUBLIC "-//W3C//DTD SVG 1.1//EN"
 "http://www.w3.org/Graphics/SVG/1.1/DTD/svg11.dtd">
<!-- Generated by graphviz version 2.43.0 (0)
 -->
<!-- Title: include/mini/integrator/function.hpp Pages: 1 -->
<svg width="1215pt" height="374pt"
 viewBox="0.00 0.00 1215.00 374.00" xmlns="http://www.w3.org/2000/svg" xmlns:xlink="http://www.w3.org/1999/xlink">
<g id="graph0" class="graph" transform="scale(1 1) rotate(0) translate(4 370)">
<title>include/mini/integrator/function.hpp</title>
<polygon fill="white" stroke="transparent" points="-4,4 -4,-370 1211,-370 1211,4 -4,4"/>
<!-- Node1 -->
<g id="node1" class="node">
<title>Node1</title>
<g id="a_node1"><a xlink:title=" ">
<polygon fill="#bfbfbf" stroke="black" points="242,-335.5 242,-365.5 370,-365.5 370,-335.5 242,-335.5"/>
<text text-anchor="start" x="250" y="-353.5" font-family="Helvetica,sans-Serif" font-size="10.00">include/mini/integrator</text>
<text text-anchor="middle" x="306" y="-342.5" font-family="Helvetica,sans-Serif" font-size="10.00">/function.hpp</text>
</a>
</g>
</g>
<!-- Node2 -->
<g id="node2" class="node">
<title>Node2</title>
<g id="a_node2"><a xlink:href="basis_2linear_8hpp.html" target="_top" xlink:title=" ">
<polygon fill="white" stroke="black" points="127.5,-201.5 127.5,-231.5 232.5,-231.5 232.5,-201.5 127.5,-201.5"/>
<text text-anchor="start" x="135.5" y="-219.5" font-family="Helvetica,sans-Serif" font-size="10.00">include/mini/basis</text>
<text text-anchor="middle" x="180" y="-208.5" font-family="Helvetica,sans-Serif" font-size="10.00">/linear.hpp</text>
</a>
</g>
</g>
<!-- Node1&#45;&gt;Node2 -->
<g id="edge1" class="edge">
<title>Node1&#45;&gt;Node2</title>
<path fill="none" stroke="midnightblue" d="M285.38,-327.9C259.37,-300.65 215.4,-254.58 193.39,-231.52"/>
<polygon fill="midnightblue" stroke="midnightblue" points="283.08,-330.56 292.52,-335.37 288.14,-325.72 283.08,-330.56"/>
</g>
<!-- Node3 -->
<g id="node3" class="node">
<title>Node3</title>
<g id="a_node3"><a xlink:href="projection_8hpp.html" target="_top" xlink:title=" ">
<polygon fill="white" stroke="black" points="32,-134.5 32,-164.5 166,-164.5 166,-134.5 32,-134.5"/>
<text text-anchor="start" x="40" y="-152.5" font-family="Helvetica,sans-Serif" font-size="10.00">include/mini/polynomial</text>
<text text-anchor="middle" x="99" y="-141.5" font-family="Helvetica,sans-Serif" font-size="10.00">/projection.hpp</text>
</a>
</g>
</g>
<!-- Node1&#45;&gt;Node3 -->
<g id="edge24" class="edge">
<title>Node1&#45;&gt;Node3</title>
<path fill="none" stroke="midnightblue" d="M256.94,-331.49C213.76,-313.09 152.54,-280.32 118,-232 103.55,-211.79 99.93,-182.21 99.11,-164.8"/>
<polygon fill="midnightblue" stroke="midnightblue" points="255.83,-334.82 266.41,-335.42 258.51,-328.35 255.83,-334.82"/>
</g>
<!-- Node5 -->
<g id="node5" class="node">
<title>Node5</title>
<g id="a_node5"><a xlink:href="integrator_2cell_8hpp.html" target="_top" xlink:title=" ">
<polygon fill="white" stroke="black" points="362,-268.5 362,-298.5 490,-298.5 490,-268.5 362,-268.5"/>
<text text-anchor="start" x="370" y="-286.5" font-family="Helvetica,sans-Serif" font-size="10.00">include/mini/integrator</text>
<text text-anchor="middle" x="426" y="-275.5" font-family="Helvetica,sans-Serif" font-size="10.00">/cell.hpp</text>
</a>
</g>
</g>
<!-- Node1&#45;&gt;Node5 -->
<g id="edge4" class="edge">
<title>Node1&#45;&gt;Node5</title>
<path fill="none" stroke="midnightblue" d="M340.94,-330.57C359.82,-320.35 382.73,-307.94 400.01,-298.58"/>
<polygon fill="midnightblue" stroke="midnightblue" points="339.16,-327.56 332.04,-335.4 342.5,-333.71 339.16,-327.56"/>
</g>
<!-- Node16 -->
<g id="node16" class="node">
<title>Node16</title>
<g id="a_node16"><a xlink:href="integrator_2face_8hpp.html" target="_top" xlink:title=" ">
<polygon fill="white" stroke="black" points="776,-268.5 776,-298.5 904,-298.5 904,-268.5 776,-268.5"/>
<text text-anchor="start" x="784" y="-286.5" font-family="Helvetica,sans-Serif" font-size="10.00">include/mini/integrator</text>
<text text-anchor="middle" x="840" y="-275.5" font-family="Helvetica,sans-Serif" font-size="10.00">/face.hpp</text>
</a>
</g>
</g>
<!-- Node1&#45;&gt;Node16 -->
<g id="edge18" class="edge">
<title>Node1&#45;&gt;Node16</title>
<path fill="none" stroke="midnightblue" d="M380.37,-340.45C485.62,-327.64 676.25,-304.43 775.7,-292.33"/>
<polygon fill="midnightblue" stroke="midnightblue" points="379.65,-337.01 370.15,-341.69 380.5,-343.96 379.65,-337.01"/>
</g>
<!-- Node2&#45;&gt;Node3 -->
<g id="edge2" class="edge">
<title>Node2&#45;&gt;Node3</title>
<path fill="none" stroke="midnightblue" d="M154.31,-194.88C142,-185.01 127.57,-173.43 116.54,-164.58"/>
<polygon fill="midnightblue" stroke="midnightblue" points="152.43,-197.87 162.42,-201.4 156.82,-192.41 152.43,-197.87"/>
</g>
<!-- Node4 -->
<g id="node4" class="node">
<title>Node4</title>
<g id="a_node4"><a xlink:href="extrapolation_8hpp.html" target="_top" xlink:title=" ">
<polygon fill="white" stroke="black" points="0,-67.5 0,-97.5 134,-97.5 134,-67.5 0,-67.5"/>
<text text-anchor="start" x="8" y="-85.5" font-family="Helvetica,sans-Serif" font-size="10.00">include/mini/polynomial</text>
<text text-anchor="middle" x="67" y="-74.5" font-family="Helvetica,sans-Serif" font-size="10.00">/extrapolation.hpp</text>
</a>
</g>
</g>
<!-- Node3&#45;&gt;Node4 -->
<g id="edge3" class="edge">
<title>Node3&#45;&gt;Node4</title>
<path fill="none" stroke="midnightblue" d="M87.57,-125.28C83.01,-116.02 77.91,-105.66 73.93,-97.58"/>
<polygon fill="midnightblue" stroke="midnightblue" points="84.5,-126.97 92.06,-134.4 90.78,-123.88 84.5,-126.97"/>
</g>
<!-- Node5&#45;&gt;Node2 -->
<g id="edge5" class="edge">
<title>Node5&#45;&gt;Node2</title>
<path fill="none" stroke="midnightblue" d="M363.17,-265.9C322.74,-255.22 270.8,-241.49 232.56,-231.39"/>
<polygon fill="midnightblue" stroke="midnightblue" points="362.36,-269.31 372.92,-268.48 364.15,-262.54 362.36,-269.31"/>
</g>
<!-- Node6 -->
<g id="node6" class="node">
<title>Node6</title>
<g id="a_node6"><a xlink:href="integrator_2hexahedron_8hpp.html" target="_top" xlink:title=" ">
<polygon fill="white" stroke="black" points="289,-201.5 289,-231.5 417,-231.5 417,-201.5 289,-201.5"/>
<text text-anchor="start" x="297" y="-219.5" font-family="Helvetica,sans-Serif" font-size="10.00">include/mini/integrator</text>
<text text-anchor="middle" x="353" y="-208.5" font-family="Helvetica,sans-Serif" font-size="10.00">/hexahedron.hpp</text>
</a>
</g>
</g>
<!-- Node5&#45;&gt;Node6 -->
<g id="edge6" class="edge">
<title>Node5&#45;&gt;Node6</title>
<path fill="none" stroke="midnightblue" d="M402.53,-261.6C391.5,-251.78 378.66,-240.34 368.81,-231.58"/>
<polygon fill="midnightblue" stroke="midnightblue" points="400.36,-264.36 410.16,-268.4 405.02,-259.13 400.36,-264.36"/>
</g>
<!-- Node8 -->
<g id="node8" class="node">
<title>Node8</title>
<g id="a_node8"><a xlink:href="polynomial_2hexahedron_8hpp.html" target="_top" xlink:title=" ">
<polygon fill="white" stroke="black" points="210,-134.5 210,-164.5 344,-164.5 344,-134.5 210,-134.5"/>
<text text-anchor="start" x="218" y="-152.5" font-family="Helvetica,sans-Serif" font-size="10.00">include/mini/polynomial</text>
<text text-anchor="middle" x="277" y="-141.5" font-family="Helvetica,sans-Serif" font-size="10.00">/hexahedron.hpp</text>
</a>
</g>
</g>
<!-- Node5&#45;&gt;Node8 -->
<g id="edge17" class="edge">
<title>Node5&#45;&gt;Node8</title>
<path fill="none" stroke="midnightblue" d="M351.78,-274.34C324.85,-267.43 296.91,-254.85 280,-232 265.51,-212.43 269.14,-182.36 273.08,-164.74"/>
<polygon fill="midnightblue" stroke="midnightblue" points="351.1,-277.77 361.63,-276.63 352.68,-270.95 351.1,-277.77"/>
</g>
<!-- Node12 -->
<g id="node12" class="node">
<title>Node12</title>
<g id="a_node12"><a xlink:href="integrator_2pyramid_8hpp.html" target="_top" xlink:title=" ">
<polygon fill="white" stroke="black" points="435,-201.5 435,-231.5 563,-231.5 563,-201.5 435,-201.5"/>
<text text-anchor="start" x="443" y="-219.5" font-family="Helvetica,sans-Serif" font-size="10.00">include/mini/integrator</text>
<text text-anchor="middle" x="499" y="-208.5" font-family="Helvetica,sans-Serif" font-size="10.00">/pyramid.hpp</text>
</a>
</g>
</g>
<!-- Node5&#45;&gt;Node12 -->
<g id="edge13" class="edge">
<title>Node5&#45;&gt;Node12</title>
<path fill="none" stroke="midnightblue" d="M449.47,-261.6C460.5,-251.78 473.34,-240.34 483.19,-231.58"/>
<polygon fill="midnightblue" stroke="midnightblue" points="446.98,-259.13 441.84,-268.4 451.64,-264.36 446.98,-259.13"/>
</g>
<!-- Node13 -->
<g id="node13" class="node">
<title>Node13</title>
<g id="a_node13"><a xlink:href="integrator_2tetrahedron_8hpp.html" target="_top" xlink:title=" ">
<polygon fill="white" stroke="black" points="581,-201.5 581,-231.5 709,-231.5 709,-201.5 581,-201.5"/>
<text text-anchor="start" x="589" y="-219.5" font-family="Helvetica,sans-Serif" font-size="10.00">include/mini/integrator</text>
<text text-anchor="middle" x="645" y="-208.5" font-family="Helvetica,sans-Serif" font-size="10.00">/tetrahedron.hpp</text>
</a>
</g>
</g>
<!-- Node5&#45;&gt;Node13 -->
<g id="edge14" class="edge">
<title>Node5&#45;&gt;Node13</title>
<path fill="none" stroke="midnightblue" d="M483.01,-265.58C518.58,-255.02 563.83,-241.59 597.46,-231.61"/>
<polygon fill="midnightblue" stroke="midnightblue" points="481.84,-262.28 473.25,-268.48 483.83,-268.99 481.84,-262.28"/>
</g>
<!-- Node14 -->
<g id="node14" class="node">
<title>Node14</title>
<g id="a_node14"><a xlink:href="integrator_2wedge_8hpp.html" target="_top" xlink:title=" ">
<polygon fill="white" stroke="black" points="803,-134.5 803,-164.5 931,-164.5 931,-134.5 803,-134.5"/>
<text text-anchor="start" x="811" y="-152.5" font-family="Helvetica,sans-Serif" font-size="10.00">include/mini/integrator</text>
<text text-anchor="middle" x="867" y="-141.5" font-family="Helvetica,sans-Serif" font-size="10.00">/wedge.hpp</text>
</a>
</g>
</g>
<!-- Node5&#45;&gt;Node14 -->
<g id="edge15" class="edge">
<title>Node5&#45;&gt;Node14</title>
<path fill="none" stroke="midnightblue" d="M500.56,-280.02C561.46,-275.6 648.53,-263.68 718,-232 737.83,-222.96 737.48,-212.5 756,-201 779.47,-186.43 807.86,-173.59 830.05,-164.5"/>
<polygon fill="midnightblue" stroke="midnightblue" points="500,-276.55 490.26,-280.72 500.47,-283.54 500,-276.55"/>
</g>
<!-- Node15 -->
<g id="node15" class="node">
<title>Node15</title>
<g id="a_node15"><a xlink:href="part_8hpp.html" target="_top" xlink:title=" ">
<polygon fill="white" stroke="black" points="765,-207 765,-226 915,-226 915,-207 765,-207"/>
<text text-anchor="middle" x="840" y="-214" font-family="Helvetica,sans-Serif" font-size="10.00">include/mini/mesh/part.hpp</text>
</a>
</g>
</g>
<!-- Node5&#45;&gt;Node15 -->
<g id="edge16" class="edge">
<title>Node5&#45;&gt;Node15</title>
<path fill="none" stroke="midnightblue" d="M500.44,-271.09C566.33,-260.96 665.09,-245.67 751,-232 762.9,-230.11 775.7,-228.04 787.77,-226.07"/>
<polygon fill="midnightblue" stroke="midnightblue" points="499.51,-267.69 490.15,-272.67 500.57,-274.61 499.51,-267.69"/>
</g>
<!-- Node7 -->
<g id="node7" class="node">
<title>Node7</title>
<g id="a_node7"><a xlink:href="quality_8hpp.html" target="_top" xlink:title=" ">
<polygon fill="white" stroke="black" points="362.5,-140 362.5,-159 525.5,-159 525.5,-140 362.5,-140"/>
<text text-anchor="middle" x="444" y="-147" font-family="Helvetica,sans-Serif" font-size="10.00">include/mini/mesh/quality.hpp</text>
</a>
</g>
</g>
<!-- Node6&#45;&gt;Node7 -->
<g id="edge7" class="edge">
<title>Node6&#45;&gt;Node7</title>
<path fill="none" stroke="midnightblue" d="M381.27,-195.31C398.36,-183.1 419.25,-168.18 432.09,-159.01"/>
<polygon fill="midnightblue" stroke="midnightblue" points="378.85,-192.74 372.75,-201.4 382.92,-198.43 378.85,-192.74"/>
</g>
<!-- Node6&#45;&gt;Node8 -->
<g id="edge8" class="edge">
<title>Node6&#45;&gt;Node8</title>
<path fill="none" stroke="midnightblue" d="M328.89,-194.88C317.34,-185.01 303.81,-173.43 293.46,-164.58"/>
<polygon fill="midnightblue" stroke="midnightblue" points="326.63,-197.56 336.51,-201.4 331.18,-192.24 326.63,-197.56"/>
</g>
<!-- Node9 -->
<g id="node9" class="node">
<title>Node9</title>
<g id="a_node9"><a xlink:href="spatial_2dg_2lobatto_8hpp.html" target="_top" xlink:title=" ">
<polygon fill="white" stroke="black" points="152.5,-67.5 152.5,-97.5 265.5,-97.5 265.5,-67.5 152.5,-67.5"/>
<text text-anchor="start" x="160.5" y="-85.5" font-family="Helvetica,sans-Serif" font-size="10.00">include/mini/spatial</text>
<text text-anchor="middle" x="209" y="-74.5" font-family="Helvetica,sans-Serif" font-size="10.00">/dg/lobatto.hpp</text>
</a>
</g>
</g>
<!-- Node8&#45;&gt;Node9 -->
<g id="edge9" class="edge">
<title>Node8&#45;&gt;Node9</title>
<path fill="none" stroke="midnightblue" d="M254.83,-127.31C244.63,-117.56 232.81,-106.26 223.73,-97.58"/>
<polygon fill="midnightblue" stroke="midnightblue" points="252.6,-130.02 262.25,-134.4 257.43,-124.96 252.6,-130.02"/>
</g>
<!-- Node10 -->
<g id="node10" class="node">
<title>Node10</title>
<g id="a_node10"><a xlink:href="fr_2general_8hpp.html" target="_top" xlink:title=" ">
<polygon fill="white" stroke="black" points="322.5,-67.5 322.5,-97.5 435.5,-97.5 435.5,-67.5 322.5,-67.5"/>
<text text-anchor="start" x="330.5" y="-85.5" font-family="Helvetica,sans-Serif" font-size="10.00">include/mini/spatial</text>
<text text-anchor="middle" x="379" y="-74.5" font-family="Helvetica,sans-Serif" font-size="10.00">/fr/general.hpp</text>
</a>
</g>
</g>
<!-- Node8&#45;&gt;Node10 -->
<g id="edge10" class="edge">
<title>Node8&#45;&gt;Node10</title>
<path fill="none" stroke="midnightblue" d="M307.58,-129.02C323.45,-118.9 342.48,-106.77 356.91,-97.58"/>
<polygon fill="midnightblue" stroke="midnightblue" points="305.68,-126.07 299.13,-134.4 309.45,-131.97 305.68,-126.07"/>
</g>
<!-- Node11 -->
<g id="node11" class="node">
<title>Node11</title>
<g id="a_node11"><a xlink:href="spatial_2fr_2lobatto_8hpp.html" target="_top" xlink:title=" ">
<polygon fill="white" stroke="black" points="279.5,-0.5 279.5,-30.5 392.5,-30.5 392.5,-0.5 279.5,-0.5"/>
<text text-anchor="start" x="287.5" y="-18.5" font-family="Helvetica,sans-Serif" font-size="10.00">include/mini/spatial</text>
<text text-anchor="middle" x="336" y="-7.5" font-family="Helvetica,sans-Serif" font-size="10.00">/fr/lobatto.hpp</text>
</a>
</g>
</g>
<!-- Node8&#45;&gt;Node11 -->
<g id="edge12" class="edge">
<title>Node8&#45;&gt;Node11</title>
<path fill="none" stroke="midnightblue" d="M287.28,-125.03C294.44,-108.73 304.24,-86.52 313,-67 318.52,-54.69 324.88,-40.74 329.51,-30.63"/>
<polygon fill="midnightblue" stroke="midnightblue" points="284.01,-123.78 283.19,-134.34 290.42,-126.59 284.01,-123.78"/>
</g>
<!-- Node10&#45;&gt;Node11 -->
<g id="edge11" class="edge">
<title>Node10&#45;&gt;Node11</title>
<path fill="none" stroke="midnightblue" d="M364.03,-58.87C357.8,-49.46 350.77,-38.83 345.31,-30.58"/>
<polygon fill="midnightblue" stroke="midnightblue" points="361.23,-60.99 369.67,-67.4 367.07,-57.12 361.23,-60.99"/>
</g>
<!-- Node16&#45;&gt;Node2 -->
<g id="edge19" class="edge">
<title>Node16&#45;&gt;Node2</title>
<path fill="none" stroke="midnightblue" d="M765.55,-277.07C658.13,-268.95 453.52,-252.39 280,-232 264.58,-230.19 247.87,-227.9 232.61,-225.67"/>
<polygon fill="midnightblue" stroke="midnightblue" points="765.4,-280.57 775.63,-277.83 765.92,-273.59 765.4,-280.57"/>
</g>
<!-- Node16&#45;&gt;Node15 -->
<g id="edge23" class="edge">
<title>Node16&#45;&gt;Node15</title>
<path fill="none" stroke="midnightblue" d="M840,-258.25C840,-247.02 840,-234.38 840,-226.19"/>
<polygon fill="midnightblue" stroke="midnightblue" points="836.5,-258.4 840,-268.4 843.5,-258.4 836.5,-258.4"/>
</g>
<!-- Node17 -->
<g id="node17" class="node">
<title>Node17</title>
<g id="a_node17"><a xlink:href="integrator_2quadrangle_8hpp.html" target="_top" xlink:title=" ">
<polygon fill="white" stroke="black" points="1079,-201.5 1079,-231.5 1207,-231.5 1207,-201.5 1079,-201.5"/>
<text text-anchor="start" x="1087" y="-219.5" font-family="Helvetica,sans-Serif" font-size="10.00">include/mini/integrator</text>
<text text-anchor="middle" x="1143" y="-208.5" font-family="Helvetica,sans-Serif" font-size="10.00">/quadrangle.hpp</text>
</a>
</g>
</g>
<!-- Node16&#45;&gt;Node17 -->
<g id="edge20" class="edge">
<title>Node16&#45;&gt;Node17</title>
<path fill="none" stroke="midnightblue" d="M914.13,-266.6C964.57,-255.78 1030.65,-241.6 1078.83,-231.26"/>
<polygon fill="midnightblue" stroke="midnightblue" points="913.3,-263.2 904.26,-268.72 914.77,-270.04 913.3,-263.2"/>
</g>
<!-- Node18 -->
<g id="node18" class="node">
<title>Node18</title>
<g id="a_node18"><a xlink:href="integrator_2triangle_8hpp.html" target="_top" xlink:title=" ">
<polygon fill="white" stroke="black" points="933,-201.5 933,-231.5 1061,-231.5 1061,-201.5 933,-201.5"/>
<text text-anchor="start" x="941" y="-219.5" font-family="Helvetica,sans-Serif" font-size="10.00">include/mini/integrator</text>
<text text-anchor="middle" x="997" y="-208.5" font-family="Helvetica,sans-Serif" font-size="10.00">/triangle.hpp</text>
</a>
</g>
</g>
<!-- Node16&#45;&gt;Node18 -->
<g id="edge21" class="edge">
<title>Node16&#45;&gt;Node18</title>
<path fill="none" stroke="midnightblue" d="M883.37,-264.54C908.49,-254.14 939.66,-241.24 963,-231.58"/>
<polygon fill="midnightblue" stroke="midnightblue" points="881.97,-261.34 874.07,-268.4 884.64,-267.8 881.97,-261.34"/>
</g>
<!-- Node18&#45;&gt;Node14 -->
<g id="edge22" class="edge">
<title>Node18&#45;&gt;Node14</title>
<path fill="none" stroke="midnightblue" d="M959.71,-196.85C939.15,-186.58 914.05,-174.03 895.15,-164.58"/>
<polygon fill="midnightblue" stroke="midnightblue" points="958.28,-200.05 968.79,-201.4 961.41,-193.79 958.28,-200.05"/>
</g>
</g>
</svg>
