<?xml version="1.0" encoding="UTF-8" standalone="no"?>
<!DOCTYPE svg PUBLIC "-//W3C//DTD SVG 1.1//EN"
 "http://www.w3.org/Graphics/SVG/1.1/DTD/svg11.dtd">
<!-- Generated by graphviz version 2.43.0 (0)
 -->
<!-- Title: include/mini/integrator/function.hpp Pages: 1 -->
<svg width="1176pt" height="374pt"
 viewBox="0.00 0.00 1176.00 374.00" xmlns="http://www.w3.org/2000/svg" xmlns:xlink="http://www.w3.org/1999/xlink">
<g id="graph0" class="graph" transform="scale(1 1) rotate(0) translate(4 370)">
<title>include/mini/integrator/function.hpp</title>
<polygon fill="white" stroke="transparent" points="-4,4 -4,-370 1172,-370 1172,4 -4,4"/>
<!-- Node1 -->
<g id="node1" class="node">
<title>Node1</title>
<g id="a_node1"><a xlink:title=" ">
<polygon fill="#bfbfbf" stroke="black" points="203,-335.5 203,-365.5 331,-365.5 331,-335.5 203,-335.5"/>
<text text-anchor="start" x="211" y="-353.5" font-family="Helvetica,sans-Serif" font-size="10.00">include/mini/integrator</text>
<text text-anchor="middle" x="267" y="-342.5" font-family="Helvetica,sans-Serif" font-size="10.00">/function.hpp</text>
</a>
</g>
</g>
<!-- Node2 -->
<g id="node2" class="node">
<title>Node2</title>
<g id="a_node2"><a xlink:href="basis_2linear_8hpp.html" target="_top" xlink:title=" ">
<polygon fill="white" stroke="black" points="88.5,-201.5 88.5,-231.5 193.5,-231.5 193.5,-201.5 88.5,-201.5"/>
<text text-anchor="start" x="96.5" y="-219.5" font-family="Helvetica,sans-Serif" font-size="10.00">include/mini/basis</text>
<text text-anchor="middle" x="141" y="-208.5" font-family="Helvetica,sans-Serif" font-size="10.00">/linear.hpp</text>
</a>
</g>
</g>
<!-- Node1&#45;&gt;Node2 -->
<g id="edge1" class="edge">
<title>Node1&#45;&gt;Node2</title>
<path fill="none" stroke="midnightblue" d="M246.38,-327.9C220.37,-300.65 176.4,-254.58 154.39,-231.52"/>
<polygon fill="midnightblue" stroke="midnightblue" points="244.08,-330.56 253.52,-335.37 249.14,-325.72 244.08,-330.56"/>
</g>
<!-- Node3 -->
<g id="node3" class="node">
<title>Node3</title>
<g id="a_node3"><a xlink:href="projection_8hpp.html" target="_top" xlink:title=" ">
<polygon fill="white" stroke="black" points="0,-134.5 0,-164.5 134,-164.5 134,-134.5 0,-134.5"/>
<text text-anchor="start" x="8" y="-152.5" font-family="Helvetica,sans-Serif" font-size="10.00">include/mini/polynomial</text>
<text text-anchor="middle" x="67" y="-141.5" font-family="Helvetica,sans-Serif" font-size="10.00">/projection.hpp</text>
</a>
</g>
</g>
<!-- Node1&#45;&gt;Node3 -->
<g id="edge23" class="edge">
<title>Node1&#45;&gt;Node3</title>
<path fill="none" stroke="midnightblue" d="M215.66,-331.6C171.92,-313.54 111.19,-281.22 79,-232 65.61,-211.53 64.76,-182.04 65.66,-164.72"/>
<polygon fill="midnightblue" stroke="midnightblue" points="214.41,-334.87 225,-335.35 217.02,-328.38 214.41,-334.87"/>
</g>
<!-- Node5 -->
<g id="node5" class="node">
<title>Node5</title>
<g id="a_node5"><a xlink:href="integrator_2cell_8hpp.html" target="_top" xlink:title=" ">
<polygon fill="white" stroke="black" points="323,-268.5 323,-298.5 451,-298.5 451,-268.5 323,-268.5"/>
<text text-anchor="start" x="331" y="-286.5" font-family="Helvetica,sans-Serif" font-size="10.00">include/mini/integrator</text>
<text text-anchor="middle" x="387" y="-275.5" font-family="Helvetica,sans-Serif" font-size="10.00">/cell.hpp</text>
</a>
</g>
</g>
<!-- Node1&#45;&gt;Node5 -->
<g id="edge4" class="edge">
<title>Node1&#45;&gt;Node5</title>
<path fill="none" stroke="midnightblue" d="M301.94,-330.57C320.82,-320.35 343.73,-307.94 361.01,-298.58"/>
<polygon fill="midnightblue" stroke="midnightblue" points="300.16,-327.56 293.04,-335.4 303.5,-333.71 300.16,-327.56"/>
</g>
<!-- Node15 -->
<g id="node15" class="node">
<title>Node15</title>
<g id="a_node15"><a xlink:href="integrator_2face_8hpp.html" target="_top" xlink:title=" ">
<polygon fill="white" stroke="black" points="737,-268.5 737,-298.5 865,-298.5 865,-268.5 737,-268.5"/>
<text text-anchor="start" x="745" y="-286.5" font-family="Helvetica,sans-Serif" font-size="10.00">include/mini/integrator</text>
<text text-anchor="middle" x="801" y="-275.5" font-family="Helvetica,sans-Serif" font-size="10.00">/face.hpp</text>
</a>
</g>
</g>
<!-- Node1&#45;&gt;Node15 -->
<g id="edge17" class="edge">
<title>Node1&#45;&gt;Node15</title>
<path fill="none" stroke="midnightblue" d="M341.37,-340.45C446.62,-327.64 637.25,-304.43 736.7,-292.33"/>
<polygon fill="midnightblue" stroke="midnightblue" points="340.65,-337.01 331.15,-341.69 341.5,-343.96 340.65,-337.01"/>
</g>
<!-- Node2&#45;&gt;Node3 -->
<g id="edge2" class="edge">
<title>Node2&#45;&gt;Node3</title>
<path fill="none" stroke="midnightblue" d="M117.2,-194.6C106.03,-184.78 93.01,-173.34 83.03,-164.58"/>
<polygon fill="midnightblue" stroke="midnightblue" points="115.12,-197.43 124.94,-201.4 119.74,-192.17 115.12,-197.43"/>
</g>
<!-- Node4 -->
<g id="node4" class="node">
<title>Node4</title>
<g id="a_node4"><a xlink:href="extrapolation_8hpp.html" target="_top" xlink:title=" ">
<polygon fill="white" stroke="black" points="0,-67.5 0,-97.5 134,-97.5 134,-67.5 0,-67.5"/>
<text text-anchor="start" x="8" y="-85.5" font-family="Helvetica,sans-Serif" font-size="10.00">include/mini/polynomial</text>
<text text-anchor="middle" x="67" y="-74.5" font-family="Helvetica,sans-Serif" font-size="10.00">/extrapolation.hpp</text>
</a>
</g>
</g>
<!-- Node3&#45;&gt;Node4 -->
<g id="edge3" class="edge">
<title>Node3&#45;&gt;Node4</title>
<path fill="none" stroke="midnightblue" d="M67,-124.11C67,-115.15 67,-105.32 67,-97.58"/>
<polygon fill="midnightblue" stroke="midnightblue" points="63.5,-124.4 67,-134.4 70.5,-124.4 63.5,-124.4"/>
</g>
<!-- Node5&#45;&gt;Node2 -->
<g id="edge5" class="edge">
<title>Node5&#45;&gt;Node2</title>
<path fill="none" stroke="midnightblue" d="M324.17,-265.9C283.74,-255.22 231.8,-241.49 193.56,-231.39"/>
<polygon fill="midnightblue" stroke="midnightblue" points="323.36,-269.31 333.92,-268.48 325.15,-262.54 323.36,-269.31"/>
</g>
<!-- Node6 -->
<g id="node6" class="node">
<title>Node6</title>
<g id="a_node6"><a xlink:href="integrator_2hexahedron_8hpp.html" target="_top" xlink:title=" ">
<polygon fill="white" stroke="black" points="250,-201.5 250,-231.5 378,-231.5 378,-201.5 250,-201.5"/>
<text text-anchor="start" x="258" y="-219.5" font-family="Helvetica,sans-Serif" font-size="10.00">include/mini/integrator</text>
<text text-anchor="middle" x="314" y="-208.5" font-family="Helvetica,sans-Serif" font-size="10.00">/hexahedron.hpp</text>
</a>
</g>
</g>
<!-- Node5&#45;&gt;Node6 -->
<g id="edge6" class="edge">
<title>Node5&#45;&gt;Node6</title>
<path fill="none" stroke="midnightblue" d="M363.53,-261.6C352.5,-251.78 339.66,-240.34 329.81,-231.58"/>
<polygon fill="midnightblue" stroke="midnightblue" points="361.36,-264.36 371.16,-268.4 366.02,-259.13 361.36,-264.36"/>
</g>
<!-- Node7 -->
<g id="node7" class="node">
<title>Node7</title>
<g id="a_node7"><a xlink:href="polynomial_2hexahedron_8hpp.html" target="_top" xlink:title=" ">
<polygon fill="white" stroke="black" points="234,-134.5 234,-164.5 368,-164.5 368,-134.5 234,-134.5"/>
<text text-anchor="start" x="242" y="-152.5" font-family="Helvetica,sans-Serif" font-size="10.00">include/mini/polynomial</text>
<text text-anchor="middle" x="301" y="-141.5" font-family="Helvetica,sans-Serif" font-size="10.00">/hexahedron.hpp</text>
</a>
</g>
</g>
<!-- Node5&#45;&gt;Node7 -->
<g id="edge16" class="edge">
<title>Node5&#45;&gt;Node7</title>
<path fill="none" stroke="midnightblue" d="M313.02,-274.82C285.82,-268 257.63,-255.35 241,-232 223.98,-208.1 254.7,-180.7 278.11,-164.54"/>
<polygon fill="midnightblue" stroke="midnightblue" points="312.45,-278.28 322.97,-277.08 314,-271.46 312.45,-278.28"/>
</g>
<!-- Node11 -->
<g id="node11" class="node">
<title>Node11</title>
<g id="a_node11"><a xlink:href="integrator_2pyramid_8hpp.html" target="_top" xlink:title=" ">
<polygon fill="white" stroke="black" points="396,-201.5 396,-231.5 524,-231.5 524,-201.5 396,-201.5"/>
<text text-anchor="start" x="404" y="-219.5" font-family="Helvetica,sans-Serif" font-size="10.00">include/mini/integrator</text>
<text text-anchor="middle" x="460" y="-208.5" font-family="Helvetica,sans-Serif" font-size="10.00">/pyramid.hpp</text>
</a>
</g>
</g>
<!-- Node5&#45;&gt;Node11 -->
<g id="edge12" class="edge">
<title>Node5&#45;&gt;Node11</title>
<path fill="none" stroke="midnightblue" d="M410.47,-261.6C421.5,-251.78 434.34,-240.34 444.19,-231.58"/>
<polygon fill="midnightblue" stroke="midnightblue" points="407.98,-259.13 402.84,-268.4 412.64,-264.36 407.98,-259.13"/>
</g>
<!-- Node12 -->
<g id="node12" class="node">
<title>Node12</title>
<g id="a_node12"><a xlink:href="integrator_2tetrahedron_8hpp.html" target="_top" xlink:title=" ">
<polygon fill="white" stroke="black" points="542,-201.5 542,-231.5 670,-231.5 670,-201.5 542,-201.5"/>
<text text-anchor="start" x="550" y="-219.5" font-family="Helvetica,sans-Serif" font-size="10.00">include/mini/integrator</text>
<text text-anchor="middle" x="606" y="-208.5" font-family="Helvetica,sans-Serif" font-size="10.00">/tetrahedron.hpp</text>
</a>
</g>
</g>
<!-- Node5&#45;&gt;Node12 -->
<g id="edge13" class="edge">
<title>Node5&#45;&gt;Node12</title>
<path fill="none" stroke="midnightblue" d="M444.01,-265.58C479.58,-255.02 524.83,-241.59 558.46,-231.61"/>
<polygon fill="midnightblue" stroke="midnightblue" points="442.84,-262.28 434.25,-268.48 444.83,-268.99 442.84,-262.28"/>
</g>
<!-- Node13 -->
<g id="node13" class="node">
<title>Node13</title>
<g id="a_node13"><a xlink:href="integrator_2wedge_8hpp.html" target="_top" xlink:title=" ">
<polygon fill="white" stroke="black" points="764,-134.5 764,-164.5 892,-164.5 892,-134.5 764,-134.5"/>
<text text-anchor="start" x="772" y="-152.5" font-family="Helvetica,sans-Serif" font-size="10.00">include/mini/integrator</text>
<text text-anchor="middle" x="828" y="-141.5" font-family="Helvetica,sans-Serif" font-size="10.00">/wedge.hpp</text>
</a>
</g>
</g>
<!-- Node5&#45;&gt;Node13 -->
<g id="edge14" class="edge">
<title>Node5&#45;&gt;Node13</title>
<path fill="none" stroke="midnightblue" d="M461.56,-280.02C522.46,-275.6 609.53,-263.68 679,-232 698.83,-222.96 698.48,-212.5 717,-201 740.47,-186.43 768.86,-173.59 791.05,-164.5"/>
<polygon fill="midnightblue" stroke="midnightblue" points="461,-276.55 451.26,-280.72 461.47,-283.54 461,-276.55"/>
</g>
<!-- Node14 -->
<g id="node14" class="node">
<title>Node14</title>
<g id="a_node14"><a xlink:href="part_8hpp.html" target="_top" xlink:title=" ">
<polygon fill="white" stroke="black" points="726,-207 726,-226 876,-226 876,-207 726,-207"/>
<text text-anchor="middle" x="801" y="-214" font-family="Helvetica,sans-Serif" font-size="10.00">include/mini/mesh/part.hpp</text>
</a>
</g>
</g>
<!-- Node5&#45;&gt;Node14 -->
<g id="edge15" class="edge">
<title>Node5&#45;&gt;Node14</title>
<path fill="none" stroke="midnightblue" d="M461.44,-271.09C527.33,-260.96 626.09,-245.67 712,-232 723.9,-230.11 736.7,-228.04 748.77,-226.07"/>
<polygon fill="midnightblue" stroke="midnightblue" points="460.51,-267.69 451.15,-272.67 461.57,-274.61 460.51,-267.69"/>
</g>
<!-- Node6&#45;&gt;Node7 -->
<g id="edge7" class="edge">
<title>Node6&#45;&gt;Node7</title>
<path fill="none" stroke="midnightblue" d="M309.18,-191.4C307.37,-182.37 305.38,-172.41 303.82,-164.58"/>
<polygon fill="midnightblue" stroke="midnightblue" points="305.79,-192.28 311.18,-201.4 312.65,-190.9 305.79,-192.28"/>
</g>
<!-- Node8 -->
<g id="node8" class="node">
<title>Node8</title>
<g id="a_node8"><a xlink:href="spatial_2dg_2lobatto_8hpp.html" target="_top" xlink:title=" ">
<polygon fill="white" stroke="black" points="159.5,-67.5 159.5,-97.5 272.5,-97.5 272.5,-67.5 159.5,-67.5"/>
<text text-anchor="start" x="167.5" y="-85.5" font-family="Helvetica,sans-Serif" font-size="10.00">include/mini/spatial</text>
<text text-anchor="middle" x="216" y="-74.5" font-family="Helvetica,sans-Serif" font-size="10.00">/dg/lobatto.hpp</text>
</a>
</g>
</g>
<!-- Node7&#45;&gt;Node8 -->
<g id="edge8" class="edge">
<title>Node7&#45;&gt;Node8</title>
<path fill="none" stroke="midnightblue" d="M274.41,-128.17C261.41,-118.23 246.1,-106.51 234.41,-97.58"/>
<polygon fill="midnightblue" stroke="midnightblue" points="272.49,-131.1 282.56,-134.4 276.74,-125.54 272.49,-131.1"/>
</g>
<!-- Node9 -->
<g id="node9" class="node">
<title>Node9</title>
<g id="a_node9"><a xlink:href="fr_2general_8hpp.html" target="_top" xlink:title=" ">
<polygon fill="white" stroke="black" points="329.5,-67.5 329.5,-97.5 442.5,-97.5 442.5,-67.5 329.5,-67.5"/>
<text text-anchor="start" x="337.5" y="-85.5" font-family="Helvetica,sans-Serif" font-size="10.00">include/mini/spatial</text>
<text text-anchor="middle" x="386" y="-74.5" font-family="Helvetica,sans-Serif" font-size="10.00">/fr/general.hpp</text>
</a>
</g>
</g>
<!-- Node7&#45;&gt;Node9 -->
<g id="edge9" class="edge">
<title>Node7&#45;&gt;Node9</title>
<path fill="none" stroke="midnightblue" d="M327.59,-128.17C340.59,-118.23 355.9,-106.51 367.59,-97.58"/>
<polygon fill="midnightblue" stroke="midnightblue" points="325.26,-125.54 319.44,-134.4 329.51,-131.1 325.26,-125.54"/>
</g>
<!-- Node10 -->
<g id="node10" class="node">
<title>Node10</title>
<g id="a_node10"><a xlink:href="spatial_2fr_2lobatto_8hpp.html" target="_top" xlink:title=" ">
<polygon fill="white" stroke="black" points="286.5,-0.5 286.5,-30.5 399.5,-30.5 399.5,-0.5 286.5,-0.5"/>
<text text-anchor="start" x="294.5" y="-18.5" font-family="Helvetica,sans-Serif" font-size="10.00">include/mini/spatial</text>
<text text-anchor="middle" x="343" y="-7.5" font-family="Helvetica,sans-Serif" font-size="10.00">/fr/lobatto.hpp</text>
</a>
</g>
</g>
<!-- Node7&#45;&gt;Node10 -->
<g id="edge11" class="edge">
<title>Node7&#45;&gt;Node10</title>
<path fill="none" stroke="midnightblue" d="M305.28,-124.55C308.53,-108.12 313.55,-85.95 320,-67 324.29,-54.41 330.63,-40.72 335.58,-30.78"/>
<polygon fill="midnightblue" stroke="midnightblue" points="301.84,-123.94 303.4,-134.42 308.71,-125.25 301.84,-123.94"/>
</g>
<!-- Node9&#45;&gt;Node10 -->
<g id="edge10" class="edge">
<title>Node9&#45;&gt;Node10</title>
<path fill="none" stroke="midnightblue" d="M371.03,-58.87C364.8,-49.46 357.77,-38.83 352.31,-30.58"/>
<polygon fill="midnightblue" stroke="midnightblue" points="368.23,-60.99 376.67,-67.4 374.07,-57.12 368.23,-60.99"/>
</g>
<!-- Node15&#45;&gt;Node2 -->
<g id="edge18" class="edge">
<title>Node15&#45;&gt;Node2</title>
<path fill="none" stroke="midnightblue" d="M726.55,-277.07C619.13,-268.95 414.52,-252.39 241,-232 225.58,-230.19 208.87,-227.9 193.61,-225.67"/>
<polygon fill="midnightblue" stroke="midnightblue" points="726.4,-280.57 736.63,-277.83 726.92,-273.59 726.4,-280.57"/>
</g>
<!-- Node15&#45;&gt;Node14 -->
<g id="edge22" class="edge">
<title>Node15&#45;&gt;Node14</title>
<path fill="none" stroke="midnightblue" d="M801,-258.25C801,-247.02 801,-234.38 801,-226.19"/>
<polygon fill="midnightblue" stroke="midnightblue" points="797.5,-258.4 801,-268.4 804.5,-258.4 797.5,-258.4"/>
</g>
<!-- Node16 -->
<g id="node16" class="node">
<title>Node16</title>
<g id="a_node16"><a xlink:href="integrator_2quadrangle_8hpp.html" target="_top" xlink:title=" ">
<polygon fill="white" stroke="black" points="1040,-201.5 1040,-231.5 1168,-231.5 1168,-201.5 1040,-201.5"/>
<text text-anchor="start" x="1048" y="-219.5" font-family="Helvetica,sans-Serif" font-size="10.00">include/mini/integrator</text>
<text text-anchor="middle" x="1104" y="-208.5" font-family="Helvetica,sans-Serif" font-size="10.00">/quadrangle.hpp</text>
</a>
</g>
</g>
<!-- Node15&#45;&gt;Node16 -->
<g id="edge19" class="edge">
<title>Node15&#45;&gt;Node16</title>
<path fill="none" stroke="midnightblue" d="M875.13,-266.6C925.57,-255.78 991.65,-241.6 1039.83,-231.26"/>
<polygon fill="midnightblue" stroke="midnightblue" points="874.3,-263.2 865.26,-268.72 875.77,-270.04 874.3,-263.2"/>
</g>
<!-- Node17 -->
<g id="node17" class="node">
<title>Node17</title>
<g id="a_node17"><a xlink:href="integrator_2triangle_8hpp.html" target="_top" xlink:title=" ">
<polygon fill="white" stroke="black" points="894,-201.5 894,-231.5 1022,-231.5 1022,-201.5 894,-201.5"/>
<text text-anchor="start" x="902" y="-219.5" font-family="Helvetica,sans-Serif" font-size="10.00">include/mini/integrator</text>
<text text-anchor="middle" x="958" y="-208.5" font-family="Helvetica,sans-Serif" font-size="10.00">/triangle.hpp</text>
</a>
</g>
</g>
<!-- Node15&#45;&gt;Node17 -->
<g id="edge20" class="edge">
<title>Node15&#45;&gt;Node17</title>
<path fill="none" stroke="midnightblue" d="M844.37,-264.54C869.49,-254.14 900.66,-241.24 924,-231.58"/>
<polygon fill="midnightblue" stroke="midnightblue" points="842.97,-261.34 835.07,-268.4 845.64,-267.8 842.97,-261.34"/>
</g>
<!-- Node17&#45;&gt;Node13 -->
<g id="edge21" class="edge">
<title>Node17&#45;&gt;Node13</title>
<path fill="none" stroke="midnightblue" d="M920.71,-196.85C900.15,-186.58 875.05,-174.03 856.15,-164.58"/>
<polygon fill="midnightblue" stroke="midnightblue" points="919.28,-200.05 929.79,-201.4 922.41,-193.79 919.28,-200.05"/>
</g>
</g>
</svg>
