<?xml version="1.0" encoding="UTF-8" standalone="no"?>
<!DOCTYPE svg PUBLIC "-//W3C//DTD SVG 1.1//EN"
 "http://www.w3.org/Graphics/SVG/1.1/DTD/svg11.dtd">
<!-- Generated by graphviz version 2.43.0 (0)
 -->
<!-- Title: include/mini/integrator/function.hpp Pages: 1 -->
<svg width="456pt" height="151pt"
 viewBox="0.00 0.00 456.00 151.00" xmlns="http://www.w3.org/2000/svg" xmlns:xlink="http://www.w3.org/1999/xlink">
<g id="graph0" class="graph" transform="scale(1 1) rotate(0) translate(4 147)">
<title>include/mini/integrator/function.hpp</title>
<polygon fill="white" stroke="transparent" points="-4,4 -4,-147 452,-147 452,4 -4,4"/>
<!-- Node1 -->
<g id="node1" class="node">
<title>Node1</title>
<g id="a_node1"><a xlink:title=" ">
<polygon fill="#bfbfbf" stroke="black" points="87,-112.5 87,-142.5 215,-142.5 215,-112.5 87,-112.5"/>
<text text-anchor="start" x="95" y="-130.5" font-family="Helvetica,sans-Serif" font-size="10.00">include/mini/integrator</text>
<text text-anchor="middle" x="151" y="-119.5" font-family="Helvetica,sans-Serif" font-size="10.00">/function.hpp</text>
</a>
</g>
</g>
<!-- Node2 -->
<g id="node2" class="node">
<title>Node2</title>
<g id="a_node2"><a xlink:title=" ">
<polygon fill="white" stroke="#bfbfbf" points="0,-56.5 0,-75.5 60,-75.5 60,-56.5 0,-56.5"/>
<text text-anchor="middle" x="30" y="-63.5" font-family="Helvetica,sans-Serif" font-size="10.00">concepts</text>
</a>
</g>
</g>
<!-- Node1&#45;&gt;Node2 -->
<g id="edge1" class="edge">
<title>Node1&#45;&gt;Node2</title>
<path fill="none" stroke="midnightblue" d="M122.32,-112.4C102.48,-102.64 76.24,-89.74 56.81,-80.18"/>
<polygon fill="midnightblue" stroke="midnightblue" points="58.12,-76.93 47.61,-75.66 55.04,-83.21 58.12,-76.93"/>
</g>
<!-- Node3 -->
<g id="node3" class="node">
<title>Node3</title>
<g id="a_node3"><a xlink:title=" ">
<polygon fill="white" stroke="#bfbfbf" points="111.5,-0.5 111.5,-19.5 158.5,-19.5 158.5,-0.5 111.5,-0.5"/>
<text text-anchor="middle" x="135" y="-7.5" font-family="Helvetica,sans-Serif" font-size="10.00">cmath</text>
</a>
</g>
</g>
<!-- Node1&#45;&gt;Node3 -->
<g id="edge2" class="edge">
<title>Node1&#45;&gt;Node3</title>
<path fill="none" stroke="midnightblue" d="M133.37,-112.13C123.57,-102.96 112.3,-90.16 107,-76 100.77,-59.36 110.51,-40.77 120.17,-27.75"/>
<polygon fill="midnightblue" stroke="midnightblue" points="123.1,-29.7 126.65,-19.72 117.65,-25.31 123.1,-29.7"/>
</g>
<!-- Node4 -->
<g id="node4" class="node">
<title>Node4</title>
<g id="a_node4"><a xlink:title=" ">
<polygon fill="white" stroke="#bfbfbf" points="116.5,-56.5 116.5,-75.5 185.5,-75.5 185.5,-56.5 116.5,-56.5"/>
<text text-anchor="middle" x="151" y="-63.5" font-family="Helvetica,sans-Serif" font-size="10.00">type_traits</text>
</a>
</g>
</g>
<!-- Node1&#45;&gt;Node4 -->
<g id="edge3" class="edge">
<title>Node1&#45;&gt;Node4</title>
<path fill="none" stroke="midnightblue" d="M151,-112.4C151,-104.47 151,-94.46 151,-85.86"/>
<polygon fill="midnightblue" stroke="midnightblue" points="154.5,-85.66 151,-75.66 147.5,-85.66 154.5,-85.66"/>
</g>
<!-- Node5 -->
<g id="node5" class="node">
<title>Node5</title>
<g id="a_node5"><a xlink:title=" ">
<polygon fill="white" stroke="#bfbfbf" points="203.5,-56.5 203.5,-75.5 248.5,-75.5 248.5,-56.5 203.5,-56.5"/>
<text text-anchor="middle" x="226" y="-63.5" font-family="Helvetica,sans-Serif" font-size="10.00">utility</text>
</a>
</g>
</g>
<!-- Node1&#45;&gt;Node5 -->
<g id="edge4" class="edge">
<title>Node1&#45;&gt;Node5</title>
<path fill="none" stroke="midnightblue" d="M168.77,-112.4C180.35,-103.22 195.42,-91.26 207.2,-81.92"/>
<polygon fill="midnightblue" stroke="midnightblue" points="209.43,-84.61 215.09,-75.66 205.08,-79.13 209.43,-84.61"/>
</g>
<!-- Node6 -->
<g id="node6" class="node">
<title>Node6</title>
<g id="a_node6"><a xlink:href="algebra_2eigen_8hpp.html" target="_top" xlink:title=" ">
<polygon fill="white" stroke="black" points="266.5,-56.5 266.5,-75.5 395.5,-75.5 395.5,-56.5 266.5,-56.5"/>
<text text-anchor="middle" x="331" y="-63.5" font-family="Helvetica,sans-Serif" font-size="10.00">mini/algebra/eigen.hpp</text>
</a>
</g>
</g>
<!-- Node1&#45;&gt;Node6 -->
<g id="edge5" class="edge">
<title>Node1&#45;&gt;Node6</title>
<path fill="none" stroke="midnightblue" d="M193.66,-112.4C224.63,-102.16 266.05,-88.47 295.28,-78.81"/>
<polygon fill="midnightblue" stroke="midnightblue" points="296.67,-82.03 305.07,-75.57 294.48,-75.39 296.67,-82.03"/>
</g>
<!-- Node6&#45;&gt;Node3 -->
<g id="edge7" class="edge">
<title>Node6&#45;&gt;Node3</title>
<path fill="none" stroke="midnightblue" d="M299.94,-56.44C264.03,-46.55 205.14,-30.32 168.3,-20.17"/>
<polygon fill="midnightblue" stroke="midnightblue" points="169.1,-16.76 158.53,-17.48 167.24,-23.51 169.1,-16.76"/>
</g>
<!-- Node7 -->
<g id="node7" class="node">
<title>Node7</title>
<g id="a_node7"><a xlink:title=" ">
<polygon fill="white" stroke="#bfbfbf" points="224,-0.5 224,-19.5 288,-19.5 288,-0.5 224,-0.5"/>
<text text-anchor="middle" x="256" y="-7.5" font-family="Helvetica,sans-Serif" font-size="10.00">algorithm</text>
</a>
</g>
</g>
<!-- Node6&#45;&gt;Node7 -->
<g id="edge6" class="edge">
<title>Node6&#45;&gt;Node7</title>
<path fill="none" stroke="midnightblue" d="M318.95,-56.32C307.54,-48.11 290.17,-35.6 276.57,-25.81"/>
<polygon fill="midnightblue" stroke="midnightblue" points="278.43,-22.84 268.27,-19.83 274.34,-28.52 278.43,-22.84"/>
</g>
<!-- Node8 -->
<g id="node8" class="node">
<title>Node8</title>
<g id="a_node8"><a xlink:title=" ">
<polygon fill="white" stroke="#bfbfbf" points="306.5,-0.5 306.5,-19.5 355.5,-19.5 355.5,-0.5 306.5,-0.5"/>
<text text-anchor="middle" x="331" y="-7.5" font-family="Helvetica,sans-Serif" font-size="10.00">cstdlib</text>
</a>
</g>
</g>
<!-- Node6&#45;&gt;Node8 -->
<g id="edge8" class="edge">
<title>Node6&#45;&gt;Node8</title>
<path fill="none" stroke="midnightblue" d="M331,-56.08C331,-49.01 331,-38.86 331,-29.99"/>
<polygon fill="midnightblue" stroke="midnightblue" points="334.5,-29.75 331,-19.75 327.5,-29.75 334.5,-29.75"/>
</g>
<!-- Node9 -->
<g id="node9" class="node">
<title>Node9</title>
<g id="a_node9"><a xlink:title=" ">
<polygon fill="white" stroke="#bfbfbf" points="374,-0.5 374,-19.5 448,-19.5 448,-0.5 374,-0.5"/>
<text text-anchor="middle" x="411" y="-7.5" font-family="Helvetica,sans-Serif" font-size="10.00">Eigen/Eigen</text>
</a>
</g>
</g>
<!-- Node6&#45;&gt;Node9 -->
<g id="edge9" class="edge">
<title>Node6&#45;&gt;Node9</title>
<path fill="none" stroke="midnightblue" d="M343.85,-56.32C356.22,-47.98 375.13,-35.21 389.74,-25.35"/>
<polygon fill="midnightblue" stroke="midnightblue" points="391.85,-28.15 398.18,-19.65 387.93,-22.35 391.85,-28.15"/>
</g>
</g>
</svg>
