<?xml version="1.0" encoding="UTF-8" standalone="no"?>
<!DOCTYPE svg PUBLIC "-//W3C//DTD SVG 1.1//EN"
 "http://www.w3.org/Graphics/SVG/1.1/DTD/svg11.dtd">
<!-- Generated by graphviz version 2.43.0 (0)
 -->
<!-- Title: include/mini/constant/index.hpp Pages: 1 -->
<svg width="2225pt" height="508pt"
 viewBox="0.00 0.00 2224.50 508.00" xmlns="http://www.w3.org/2000/svg" xmlns:xlink="http://www.w3.org/1999/xlink">
<g id="graph0" class="graph" transform="scale(1 1) rotate(0) translate(4 504)">
<title>include/mini/constant/index.hpp</title>
<polygon fill="white" stroke="transparent" points="-4,4 -4,-504 2220.5,-504 2220.5,4 -4,4"/>
<!-- Node1 -->
<g id="node1" class="node">
<title>Node1</title>
<g id="a_node1"><a xlink:title=" ">
<polygon fill="#bfbfbf" stroke="black" points="950.5,-469.5 950.5,-499.5 1072.5,-499.5 1072.5,-469.5 950.5,-469.5"/>
<text text-anchor="start" x="958.5" y="-487.5" font-family="Helvetica,sans-Serif" font-size="10.00">include/mini/constant</text>
<text text-anchor="middle" x="1011.5" y="-476.5" font-family="Helvetica,sans-Serif" font-size="10.00">/index.hpp</text>
</a>
</g>
</g>
<!-- Node2 -->
<g id="node2" class="node">
<title>Node2</title>
<g id="a_node2"><a xlink:href="coordinate_2element_8hpp.html" target="_top" xlink:title=" ">
<polygon fill="white" stroke="black" points="946,-402.5 946,-432.5 1077,-432.5 1077,-402.5 946,-402.5"/>
<text text-anchor="start" x="954" y="-420.5" font-family="Helvetica,sans-Serif" font-size="10.00">include/mini/coordinate</text>
<text text-anchor="middle" x="1011.5" y="-409.5" font-family="Helvetica,sans-Serif" font-size="10.00">/element.hpp</text>
</a>
</g>
</g>
<!-- Node1&#45;&gt;Node2 -->
<g id="edge1" class="edge">
<title>Node1&#45;&gt;Node2</title>
<path fill="none" stroke="midnightblue" d="M1011.5,-459.11C1011.5,-450.15 1011.5,-440.32 1011.5,-432.58"/>
<polygon fill="midnightblue" stroke="midnightblue" points="1008,-459.4 1011.5,-469.4 1015,-459.4 1008,-459.4"/>
</g>
<!-- Node7 -->
<g id="node7" class="node">
<title>Node7</title>
<g id="a_node7"><a xlink:href="polynomial_2hexahedron_8hpp.html" target="_top" xlink:title=" ">
<polygon fill="white" stroke="black" points="507.5,-134.5 507.5,-164.5 641.5,-164.5 641.5,-134.5 507.5,-134.5"/>
<text text-anchor="start" x="515.5" y="-152.5" font-family="Helvetica,sans-Serif" font-size="10.00">include/mini/polynomial</text>
<text text-anchor="middle" x="574.5" y="-141.5" font-family="Helvetica,sans-Serif" font-size="10.00">/hexahedron.hpp</text>
</a>
</g>
</g>
<!-- Node1&#45;&gt;Node7 -->
<g id="edge53" class="edge">
<title>Node1&#45;&gt;Node7</title>
<path fill="none" stroke="midnightblue" d="M940.52,-469.01C869.02,-452.16 757.55,-419.59 673.5,-366 613.83,-327.96 603.7,-300.89 587.5,-232 582.02,-208.71 578.16,-181.12 576.14,-164.76"/>
<polygon fill="midnightblue" stroke="midnightblue" points="939.81,-472.44 950.34,-471.28 941.39,-465.62 939.81,-472.44"/>
</g>
<!-- Node28 -->
<g id="node28" class="node">
<title>Node28</title>
<g id="a_node28"><a xlink:href="integrator_2element_8hpp.html" target="_top" xlink:title=" ">
<polygon fill="white" stroke="black" points="1208.5,-335.5 1208.5,-365.5 1336.5,-365.5 1336.5,-335.5 1208.5,-335.5"/>
<text text-anchor="start" x="1216.5" y="-353.5" font-family="Helvetica,sans-Serif" font-size="10.00">include/mini/integrator</text>
<text text-anchor="middle" x="1272.5" y="-342.5" font-family="Helvetica,sans-Serif" font-size="10.00">/element.hpp</text>
</a>
</g>
</g>
<!-- Node1&#45;&gt;Node28 -->
<g id="edge52" class="edge">
<title>Node1&#45;&gt;Node28</title>
<path fill="none" stroke="midnightblue" d="M1041.66,-463.64C1055.22,-454.53 1071.33,-443.45 1085.5,-433 1103.32,-419.86 1105.07,-412.62 1124.5,-402 1153.44,-386.18 1188.25,-374 1216.84,-365.57"/>
<polygon fill="midnightblue" stroke="midnightblue" points="1039.53,-460.85 1033.16,-469.32 1043.42,-466.68 1039.53,-460.85"/>
</g>
<!-- Node29 -->
<g id="node29" class="node">
<title>Node29</title>
<g id="a_node29"><a xlink:href="direct_8hpp.html" target="_top" xlink:title=" ">
<polygon fill="white" stroke="black" points="439.5,-402.5 439.5,-432.5 559.5,-432.5 559.5,-402.5 439.5,-402.5"/>
<text text-anchor="start" x="447.5" y="-420.5" font-family="Helvetica,sans-Serif" font-size="10.00">include/mini/riemann</text>
<text text-anchor="middle" x="499.5" y="-409.5" font-family="Helvetica,sans-Serif" font-size="10.00">/diffusive/direct.hpp</text>
</a>
</g>
</g>
<!-- Node1&#45;&gt;Node29 -->
<g id="edge54" class="edge">
<title>Node1&#45;&gt;Node29</title>
<path fill="none" stroke="midnightblue" d="M940.35,-477.03C853.5,-468.74 702.28,-453.01 573.5,-433 568.97,-432.3 564.3,-431.51 559.61,-430.69"/>
<polygon fill="midnightblue" stroke="midnightblue" points="940.07,-480.52 950.36,-477.98 940.73,-473.55 940.07,-480.52"/>
</g>
<!-- Node31 -->
<g id="node31" class="node">
<title>Node31</title>
<g id="a_node31"><a xlink:href="riemann_2diffusive_2linear_8hpp.html" target="_top" xlink:title=" ">
<polygon fill="white" stroke="black" points="301.5,-402.5 301.5,-432.5 421.5,-432.5 421.5,-402.5 301.5,-402.5"/>
<text text-anchor="start" x="309.5" y="-420.5" font-family="Helvetica,sans-Serif" font-size="10.00">include/mini/riemann</text>
<text text-anchor="middle" x="361.5" y="-409.5" font-family="Helvetica,sans-Serif" font-size="10.00">/diffusive/linear.hpp</text>
</a>
</g>
</g>
<!-- Node1&#45;&gt;Node31 -->
<g id="edge56" class="edge">
<title>Node1&#45;&gt;Node31</title>
<path fill="none" stroke="midnightblue" d="M939.85,-480.05C829.84,-474.14 612.91,-459.99 430.5,-433 427.59,-432.57 424.63,-432.09 421.63,-431.58"/>
<polygon fill="midnightblue" stroke="midnightblue" points="939.98,-483.57 950.15,-480.6 940.35,-476.58 939.98,-483.57"/>
</g>
<!-- Node32 -->
<g id="node32" class="node">
<title>Node32</title>
<g id="a_node32"><a xlink:href="navier__stokes_8hpp.html" target="_top" xlink:title=" ">
<polygon fill="white" stroke="black" points="1134,-402.5 1134,-432.5 1287,-432.5 1287,-402.5 1134,-402.5"/>
<text text-anchor="start" x="1142" y="-420.5" font-family="Helvetica,sans-Serif" font-size="10.00">include/mini/riemann</text>
<text text-anchor="middle" x="1210.5" y="-409.5" font-family="Helvetica,sans-Serif" font-size="10.00">/diffusive/navier_stokes.hpp</text>
</a>
</g>
</g>
<!-- Node1&#45;&gt;Node32 -->
<g id="edge58" class="edge">
<title>Node1&#45;&gt;Node32</title>
<path fill="none" stroke="midnightblue" d="M1064.38,-466.23C1096.57,-455.71 1137.17,-442.45 1167.4,-432.58"/>
<polygon fill="midnightblue" stroke="midnightblue" points="1063.1,-462.96 1054.68,-469.4 1065.27,-469.62 1063.1,-462.96"/>
</g>
<!-- Node33 -->
<g id="node33" class="node">
<title>Node33</title>
<g id="a_node33"><a xlink:href="euler_8hpp.html" target="_top" xlink:title=" ">
<polygon fill="white" stroke="black" points="1305.5,-402.5 1305.5,-432.5 1425.5,-432.5 1425.5,-402.5 1305.5,-402.5"/>
<text text-anchor="start" x="1313.5" y="-420.5" font-family="Helvetica,sans-Serif" font-size="10.00">include/mini/riemann</text>
<text text-anchor="middle" x="1365.5" y="-409.5" font-family="Helvetica,sans-Serif" font-size="10.00">/rotated/euler.hpp</text>
</a>
</g>
</g>
<!-- Node1&#45;&gt;Node33 -->
<g id="edge59" class="edge">
<title>Node1&#45;&gt;Node33</title>
<path fill="none" stroke="midnightblue" d="M1082.61,-471.43C1140.11,-461.53 1223.13,-446.93 1295.5,-433 1298.67,-432.39 1301.92,-431.75 1305.19,-431.11"/>
<polygon fill="midnightblue" stroke="midnightblue" points="1081.79,-468.02 1072.53,-473.16 1082.98,-474.92 1081.79,-468.02"/>
</g>
<!-- Node34 -->
<g id="node34" class="node">
<title>Node34</title>
<g id="a_node34"><a xlink:href="simple_8hpp.html" target="_top" xlink:title=" ">
<polygon fill="white" stroke="black" points="1820.5,-402.5 1820.5,-432.5 1940.5,-432.5 1940.5,-402.5 1820.5,-402.5"/>
<text text-anchor="start" x="1828.5" y="-420.5" font-family="Helvetica,sans-Serif" font-size="10.00">include/mini/riemann</text>
<text text-anchor="middle" x="1880.5" y="-409.5" font-family="Helvetica,sans-Serif" font-size="10.00">/rotated/simple.hpp</text>
</a>
</g>
</g>
<!-- Node1&#45;&gt;Node34 -->
<g id="edge60" class="edge">
<title>Node1&#45;&gt;Node34</title>
<path fill="none" stroke="midnightblue" d="M1082.78,-478.17C1249.94,-465.67 1664.79,-434.63 1820.33,-423"/>
<polygon fill="midnightblue" stroke="midnightblue" points="1082.32,-474.69 1072.61,-478.93 1082.84,-481.67 1082.32,-474.69"/>
</g>
<!-- Node39 -->
<g id="node39" class="node">
<title>Node39</title>
<g id="a_node39"><a xlink:href="fem_8hpp.html" target="_top" xlink:title=" ">
<polygon fill="white" stroke="black" points="170,-402.5 170,-432.5 283,-432.5 283,-402.5 170,-402.5"/>
<text text-anchor="start" x="178" y="-420.5" font-family="Helvetica,sans-Serif" font-size="10.00">include/mini/spatial</text>
<text text-anchor="middle" x="226.5" y="-409.5" font-family="Helvetica,sans-Serif" font-size="10.00">/fem.hpp</text>
</a>
</g>
</g>
<!-- Node1&#45;&gt;Node39 -->
<g id="edge65" class="edge">
<title>Node1&#45;&gt;Node39</title>
<path fill="none" stroke="midnightblue" d="M939.9,-481.93C810.2,-478.32 527.95,-466.95 292.5,-433 289.48,-432.56 286.39,-432.07 283.29,-431.53"/>
<polygon fill="midnightblue" stroke="midnightblue" points="940.01,-485.44 950.1,-482.21 940.2,-478.44 940.01,-485.44"/>
</g>
<!-- Node3 -->
<g id="node3" class="node">
<title>Node3</title>
<g id="a_node3"><a xlink:href="coordinate_2cell_8hpp.html" target="_top" xlink:title=" ">
<polygon fill="white" stroke="black" points="993,-335.5 993,-365.5 1124,-365.5 1124,-335.5 993,-335.5"/>
<text text-anchor="start" x="1001" y="-353.5" font-family="Helvetica,sans-Serif" font-size="10.00">include/mini/coordinate</text>
<text text-anchor="middle" x="1058.5" y="-342.5" font-family="Helvetica,sans-Serif" font-size="10.00">/cell.hpp</text>
</a>
</g>
</g>
<!-- Node2&#45;&gt;Node3 -->
<g id="edge2" class="edge">
<title>Node2&#45;&gt;Node3</title>
<path fill="none" stroke="midnightblue" d="M1027.66,-394.16C1034.51,-384.68 1042.29,-373.92 1048.32,-365.58"/>
<polygon fill="midnightblue" stroke="midnightblue" points="1024.72,-392.24 1021.7,-402.4 1030.39,-396.34 1024.72,-392.24"/>
</g>
<!-- Node4 -->
<g id="node4" class="node">
<title>Node4</title>
<g id="a_node4"><a xlink:href="coordinate_2hexahedron_8hpp.html" target="_top" xlink:title=" ">
<polygon fill="white" stroke="black" points="640,-268.5 640,-298.5 771,-298.5 771,-268.5 640,-268.5"/>
<text text-anchor="start" x="648" y="-286.5" font-family="Helvetica,sans-Serif" font-size="10.00">include/mini/coordinate</text>
<text text-anchor="middle" x="705.5" y="-275.5" font-family="Helvetica,sans-Serif" font-size="10.00">/hexahedron.hpp</text>
</a>
</g>
</g>
<!-- Node2&#45;&gt;Node4 -->
<g id="edge42" class="edge">
<title>Node2&#45;&gt;Node4</title>
<path fill="none" stroke="midnightblue" d="M969.61,-398.43C907.92,-371.82 793.95,-322.65 738.09,-298.56"/>
<polygon fill="midnightblue" stroke="midnightblue" points="968.47,-401.75 979.04,-402.5 971.25,-395.32 968.47,-401.75"/>
</g>
<!-- Node2&#45;&gt;Node7 -->
<g id="edge51" class="edge">
<title>Node2&#45;&gt;Node7</title>
<path fill="none" stroke="midnightblue" d="M935.8,-412.95C850.73,-404.96 713.67,-379.49 630.5,-299 610.5,-279.65 587.2,-198.38 578.25,-164.95"/>
<polygon fill="midnightblue" stroke="midnightblue" points="935.64,-416.45 945.91,-413.84 936.26,-409.47 935.64,-416.45"/>
</g>
<!-- Node11 -->
<g id="node11" class="node">
<title>Node11</title>
<g id="a_node11"><a xlink:href="coordinate_2pyramid_8hpp.html" target="_top" xlink:title=" ">
<polygon fill="white" stroke="black" points="789,-268.5 789,-298.5 920,-298.5 920,-268.5 789,-268.5"/>
<text text-anchor="start" x="797" y="-286.5" font-family="Helvetica,sans-Serif" font-size="10.00">include/mini/coordinate</text>
<text text-anchor="middle" x="854.5" y="-275.5" font-family="Helvetica,sans-Serif" font-size="10.00">/pyramid.hpp</text>
</a>
</g>
</g>
<!-- Node2&#45;&gt;Node11 -->
<g id="edge43" class="edge">
<title>Node2&#45;&gt;Node11</title>
<path fill="none" stroke="midnightblue" d="M987.04,-395.94C954.81,-368.84 898.96,-321.88 871.18,-298.52"/>
<polygon fill="midnightblue" stroke="midnightblue" points="984.79,-398.62 994.7,-402.37 989.3,-393.26 984.79,-398.62"/>
</g>
<!-- Node13 -->
<g id="node13" class="node">
<title>Node13</title>
<g id="a_node13"><a xlink:href="coordinate_2tetrahedron_8hpp.html" target="_top" xlink:title=" ">
<polygon fill="white" stroke="black" points="938,-268.5 938,-298.5 1069,-298.5 1069,-268.5 938,-268.5"/>
<text text-anchor="start" x="946" y="-286.5" font-family="Helvetica,sans-Serif" font-size="10.00">include/mini/coordinate</text>
<text text-anchor="middle" x="1003.5" y="-275.5" font-family="Helvetica,sans-Serif" font-size="10.00">/tetrahedron.hpp</text>
</a>
</g>
</g>
<!-- Node2&#45;&gt;Node13 -->
<g id="edge45" class="edge">
<title>Node2&#45;&gt;Node13</title>
<path fill="none" stroke="midnightblue" d="M995.6,-393.61C990.72,-385.3 985.98,-375.59 983.5,-366 977.41,-342.44 987.77,-314.94 995.72,-298.66"/>
<polygon fill="midnightblue" stroke="midnightblue" points="992.78,-395.7 1001.06,-402.31 998.71,-391.98 992.78,-395.7"/>
</g>
<!-- Node15 -->
<g id="node15" class="node">
<title>Node15</title>
<g id="a_node15"><a xlink:href="coordinate_2wedge_8hpp.html" target="_top" xlink:title=" ">
<polygon fill="white" stroke="black" points="1087,-268.5 1087,-298.5 1218,-298.5 1218,-268.5 1087,-268.5"/>
<text text-anchor="start" x="1095" y="-286.5" font-family="Helvetica,sans-Serif" font-size="10.00">include/mini/coordinate</text>
<text text-anchor="middle" x="1152.5" y="-275.5" font-family="Helvetica,sans-Serif" font-size="10.00">/wedge.hpp</text>
</a>
</g>
</g>
<!-- Node2&#45;&gt;Node15 -->
<g id="edge47" class="edge">
<title>Node2&#45;&gt;Node15</title>
<path fill="none" stroke="midnightblue" d="M1084.13,-398.83C1102.11,-391.35 1119.83,-380.8 1132.5,-366 1148.89,-346.85 1152.26,-316.37 1152.73,-298.61"/>
<polygon fill="midnightblue" stroke="midnightblue" points="1082.79,-395.6 1074.73,-402.47 1085.32,-402.13 1082.79,-395.6"/>
</g>
<!-- Node22 -->
<g id="node22" class="node">
<title>Node22</title>
<g id="a_node22"><a xlink:href="coordinate_2face_8hpp.html" target="_top" xlink:title=" ">
<polygon fill="white" stroke="black" points="1457,-335.5 1457,-365.5 1588,-365.5 1588,-335.5 1457,-335.5"/>
<text text-anchor="start" x="1465" y="-353.5" font-family="Helvetica,sans-Serif" font-size="10.00">include/mini/coordinate</text>
<text text-anchor="middle" x="1522.5" y="-342.5" font-family="Helvetica,sans-Serif" font-size="10.00">/face.hpp</text>
</a>
</g>
</g>
<!-- Node2&#45;&gt;Node22 -->
<g id="edge29" class="edge">
<title>Node2&#45;&gt;Node22</title>
<path fill="none" stroke="midnightblue" d="M1087.14,-406.78C1099.62,-405.18 1112.42,-403.54 1124.5,-402 1241.61,-387.06 1378.12,-369.76 1457,-359.78"/>
<polygon fill="midnightblue" stroke="midnightblue" points="1086.7,-403.31 1077.23,-408.05 1087.59,-410.25 1086.7,-403.31"/>
</g>
<!-- Node23 -->
<g id="node23" class="node">
<title>Node23</title>
<g id="a_node23"><a xlink:href="coordinate_2quadrangle_8hpp.html" target="_top" xlink:title=" ">
<polygon fill="white" stroke="black" points="1793,-268.5 1793,-298.5 1924,-298.5 1924,-268.5 1793,-268.5"/>
<text text-anchor="start" x="1801" y="-286.5" font-family="Helvetica,sans-Serif" font-size="10.00">include/mini/coordinate</text>
<text text-anchor="middle" x="1858.5" y="-275.5" font-family="Helvetica,sans-Serif" font-size="10.00">/quadrangle.hpp</text>
</a>
</g>
</g>
<!-- Node2&#45;&gt;Node23 -->
<g id="edge44" class="edge">
<title>Node2&#45;&gt;Node23</title>
<path fill="none" stroke="midnightblue" d="M1087.45,-406.16C1099.82,-404.64 1112.51,-403.2 1124.5,-402 1236.45,-390.84 1523.53,-403.78 1629.5,-366 1652.03,-357.97 1651.86,-345.19 1673.5,-335 1711.3,-317.2 1756.5,-304.71 1792.76,-296.61"/>
<polygon fill="midnightblue" stroke="midnightblue" points="1086.65,-402.73 1077.16,-407.44 1087.51,-409.68 1086.65,-402.73"/>
</g>
<!-- Node25 -->
<g id="node25" class="node">
<title>Node25</title>
<g id="a_node25"><a xlink:href="coordinate_2triangle_8hpp.html" target="_top" xlink:title=" ">
<polygon fill="white" stroke="black" points="1605,-268.5 1605,-298.5 1736,-298.5 1736,-268.5 1605,-268.5"/>
<text text-anchor="start" x="1613" y="-286.5" font-family="Helvetica,sans-Serif" font-size="10.00">include/mini/coordinate</text>
<text text-anchor="middle" x="1670.5" y="-275.5" font-family="Helvetica,sans-Serif" font-size="10.00">/triangle.hpp</text>
</a>
</g>
</g>
<!-- Node2&#45;&gt;Node25 -->
<g id="edge46" class="edge">
<title>Node2&#45;&gt;Node25</title>
<path fill="none" stroke="midnightblue" d="M1087.46,-406.21C1099.82,-404.69 1112.51,-403.23 1124.5,-402 1229.15,-391.3 1502,-412.22 1596.5,-366 1626.89,-351.14 1650.63,-317.87 1662.39,-298.75"/>
<polygon fill="midnightblue" stroke="midnightblue" points="1086.65,-402.78 1077.16,-407.49 1087.52,-409.73 1086.65,-402.78"/>
</g>
<!-- Node2&#45;&gt;Node28 -->
<g id="edge48" class="edge">
<title>Node2&#45;&gt;Node28</title>
<path fill="none" stroke="midnightblue" d="M1077.55,-400.05C1120.22,-389.43 1175.16,-375.74 1215.84,-365.61"/>
<polygon fill="midnightblue" stroke="midnightblue" points="1076.67,-396.66 1067.81,-402.48 1078.36,-403.46 1076.67,-396.66"/>
</g>
<!-- Node3&#45;&gt;Node4 -->
<g id="edge3" class="edge">
<title>Node3&#45;&gt;Node4</title>
<path fill="none" stroke="midnightblue" d="M982.91,-336.12C926.75,-326.11 848.29,-311.96 779.5,-299 776.8,-298.49 774.04,-297.97 771.26,-297.44"/>
<polygon fill="midnightblue" stroke="midnightblue" points="982.32,-339.57 992.78,-337.88 983.55,-332.68 982.32,-339.57"/>
</g>
<!-- Node3&#45;&gt;Node11 -->
<g id="edge12" class="edge">
<title>Node3&#45;&gt;Node11</title>
<path fill="none" stroke="midnightblue" d="M1004.54,-332.31C971.54,-321.79 929.84,-308.51 898.79,-298.61"/>
<polygon fill="midnightblue" stroke="midnightblue" points="1003.9,-335.77 1014.49,-335.48 1006.02,-329.11 1003.9,-335.77"/>
</g>
<!-- Node3&#45;&gt;Node13 -->
<g id="edge14" class="edge">
<title>Node3&#45;&gt;Node13</title>
<path fill="none" stroke="midnightblue" d="M1040.08,-327.74C1031.95,-318.12 1022.61,-307.09 1015.41,-298.58"/>
<polygon fill="midnightblue" stroke="midnightblue" points="1037.43,-330.02 1046.57,-335.4 1042.78,-325.5 1037.43,-330.02"/>
</g>
<!-- Node3&#45;&gt;Node15 -->
<g id="edge16" class="edge">
<title>Node3&#45;&gt;Node15</title>
<path fill="none" stroke="midnightblue" d="M1087.49,-329.45C1101.95,-319.45 1119.09,-307.6 1132.14,-298.58"/>
<polygon fill="midnightblue" stroke="midnightblue" points="1085.13,-326.83 1078.9,-335.4 1089.11,-332.59 1085.13,-326.83"/>
</g>
<!-- Node17 -->
<g id="node17" class="node">
<title>Node17</title>
<g id="a_node17"><a xlink:href="integrator_2cell_8hpp.html" target="_top" xlink:title=" ">
<polygon fill="white" stroke="black" points="1236.5,-268.5 1236.5,-298.5 1364.5,-298.5 1364.5,-268.5 1236.5,-268.5"/>
<text text-anchor="start" x="1244.5" y="-286.5" font-family="Helvetica,sans-Serif" font-size="10.00">include/mini/integrator</text>
<text text-anchor="middle" x="1300.5" y="-275.5" font-family="Helvetica,sans-Serif" font-size="10.00">/cell.hpp</text>
</a>
</g>
</g>
<!-- Node3&#45;&gt;Node17 -->
<g id="edge18" class="edge">
<title>Node3&#45;&gt;Node17</title>
<path fill="none" stroke="midnightblue" d="M1120.49,-332.85C1159.95,-322.25 1210.49,-308.68 1247.96,-298.61"/>
<polygon fill="midnightblue" stroke="midnightblue" points="1119.46,-329.5 1110.71,-335.48 1121.28,-336.26 1119.46,-329.5"/>
</g>
<!-- Node21 -->
<g id="node21" class="node">
<title>Node21</title>
<g id="a_node21"><a xlink:href="part_8hpp.html" target="_top" xlink:title=" ">
<polygon fill="white" stroke="black" points="1371.5,-207 1371.5,-226 1521.5,-226 1521.5,-207 1371.5,-207"/>
<text text-anchor="middle" x="1446.5" y="-214" font-family="Helvetica,sans-Serif" font-size="10.00">include/mini/mesh/part.hpp</text>
</a>
</g>
</g>
<!-- Node3&#45;&gt;Node21 -->
<g id="edge28" class="edge">
<title>Node3&#45;&gt;Node21</title>
<path fill="none" stroke="midnightblue" d="M1134.24,-340.05C1220.68,-328.85 1352.84,-310.28 1373.5,-299 1406.01,-281.25 1431.35,-243.25 1441.58,-226.15"/>
<polygon fill="midnightblue" stroke="midnightblue" points="1133.67,-336.6 1124.2,-341.35 1134.56,-343.54 1133.67,-336.6"/>
</g>
<!-- Node5 -->
<g id="node5" class="node">
<title>Node5</title>
<g id="a_node5"><a xlink:href="integrator_2hexahedron_8hpp.html" target="_top" xlink:title=" ">
<polygon fill="white" stroke="black" points="678.5,-201.5 678.5,-231.5 806.5,-231.5 806.5,-201.5 678.5,-201.5"/>
<text text-anchor="start" x="686.5" y="-219.5" font-family="Helvetica,sans-Serif" font-size="10.00">include/mini/integrator</text>
<text text-anchor="middle" x="742.5" y="-208.5" font-family="Helvetica,sans-Serif" font-size="10.00">/hexahedron.hpp</text>
</a>
</g>
</g>
<!-- Node4&#45;&gt;Node5 -->
<g id="edge4" class="edge">
<title>Node4&#45;&gt;Node5</title>
<path fill="none" stroke="midnightblue" d="M718.55,-259.58C723.86,-250.24 729.84,-239.75 734.49,-231.58"/>
<polygon fill="midnightblue" stroke="midnightblue" points="715.43,-257.97 713.53,-268.4 721.52,-261.44 715.43,-257.97"/>
</g>
<!-- Node6 -->
<g id="node6" class="node">
<title>Node6</title>
<g id="a_node6"><a xlink:href="quality_8hpp.html" target="_top" xlink:title=" ">
<polygon fill="white" stroke="black" points="660,-140 660,-159 823,-159 823,-140 660,-140"/>
<text text-anchor="middle" x="741.5" y="-147" font-family="Helvetica,sans-Serif" font-size="10.00">include/mini/mesh/quality.hpp</text>
</a>
</g>
</g>
<!-- Node4&#45;&gt;Node6 -->
<g id="edge11" class="edge">
<title>Node4&#45;&gt;Node6</title>
<path fill="none" stroke="midnightblue" d="M684.7,-260.37C671.73,-243.78 659.29,-220.63 669.5,-201 680,-180.82 702.67,-167.02 719.78,-159.01"/>
<polygon fill="midnightblue" stroke="midnightblue" points="682.31,-262.97 691.41,-268.4 687.68,-258.49 682.31,-262.97"/>
</g>
<!-- Node5&#45;&gt;Node6 -->
<g id="edge5" class="edge">
<title>Node5&#45;&gt;Node6</title>
<path fill="none" stroke="midnightblue" d="M742.13,-191.25C741.95,-180.02 741.76,-167.38 741.63,-159.19"/>
<polygon fill="midnightblue" stroke="midnightblue" points="738.63,-191.45 742.28,-201.4 745.63,-191.34 738.63,-191.45"/>
</g>
<!-- Node5&#45;&gt;Node7 -->
<g id="edge6" class="edge">
<title>Node5&#45;&gt;Node7</title>
<path fill="none" stroke="midnightblue" d="M696.45,-197.68C669.5,-187.26 635.96,-174.28 610.88,-164.58"/>
<polygon fill="midnightblue" stroke="midnightblue" points="695.46,-201.05 706.05,-201.4 697.98,-194.52 695.46,-201.05"/>
</g>
<!-- Node8 -->
<g id="node8" class="node">
<title>Node8</title>
<g id="a_node8"><a xlink:href="spatial_2dg_2lobatto_8hpp.html" target="_top" xlink:title=" ">
<polygon fill="white" stroke="black" points="151,-67.5 151,-97.5 264,-97.5 264,-67.5 151,-67.5"/>
<text text-anchor="start" x="159" y="-85.5" font-family="Helvetica,sans-Serif" font-size="10.00">include/mini/spatial</text>
<text text-anchor="middle" x="207.5" y="-74.5" font-family="Helvetica,sans-Serif" font-size="10.00">/dg/lobatto.hpp</text>
</a>
</g>
</g>
<!-- Node7&#45;&gt;Node8 -->
<g id="edge7" class="edge">
<title>Node7&#45;&gt;Node8</title>
<path fill="none" stroke="midnightblue" d="M497.14,-134.8C427.44,-122.45 326.61,-104.6 264.16,-93.53"/>
<polygon fill="midnightblue" stroke="midnightblue" points="496.73,-138.28 507.19,-136.58 497.95,-131.39 496.73,-138.28"/>
</g>
<!-- Node9 -->
<g id="node9" class="node">
<title>Node9</title>
<g id="a_node9"><a xlink:href="fr_2general_8hpp.html" target="_top" xlink:title=" ">
<polygon fill="white" stroke="black" points="433,-67.5 433,-97.5 546,-97.5 546,-67.5 433,-67.5"/>
<text text-anchor="start" x="441" y="-85.5" font-family="Helvetica,sans-Serif" font-size="10.00">include/mini/spatial</text>
<text text-anchor="middle" x="489.5" y="-74.5" font-family="Helvetica,sans-Serif" font-size="10.00">/fr/general.hpp</text>
</a>
</g>
</g>
<!-- Node7&#45;&gt;Node9 -->
<g id="edge8" class="edge">
<title>Node7&#45;&gt;Node9</title>
<path fill="none" stroke="midnightblue" d="M547.91,-128.17C534.91,-118.23 519.6,-106.51 507.91,-97.58"/>
<polygon fill="midnightblue" stroke="midnightblue" points="545.99,-131.1 556.06,-134.4 550.24,-125.54 545.99,-131.1"/>
</g>
<!-- Node10 -->
<g id="node10" class="node">
<title>Node10</title>
<g id="a_node10"><a xlink:href="spatial_2fr_2lobatto_8hpp.html" target="_top" xlink:title=" ">
<polygon fill="white" stroke="black" points="475,-0.5 475,-30.5 588,-30.5 588,-0.5 475,-0.5"/>
<text text-anchor="start" x="483" y="-18.5" font-family="Helvetica,sans-Serif" font-size="10.00">include/mini/spatial</text>
<text text-anchor="middle" x="531.5" y="-7.5" font-family="Helvetica,sans-Serif" font-size="10.00">/fr/lobatto.hpp</text>
</a>
</g>
</g>
<!-- Node7&#45;&gt;Node10 -->
<g id="edge10" class="edge">
<title>Node7&#45;&gt;Node10</title>
<path fill="none" stroke="midnightblue" d="M569.86,-124.56C566.37,-108.13 561.08,-85.97 554.5,-67 550.14,-54.44 543.8,-40.75 538.88,-30.79"/>
<polygon fill="midnightblue" stroke="midnightblue" points="566.44,-125.33 571.88,-134.43 573.3,-123.93 566.44,-125.33"/>
</g>
<!-- Node9&#45;&gt;Node10 -->
<g id="edge9" class="edge">
<title>Node9&#45;&gt;Node10</title>
<path fill="none" stroke="midnightblue" d="M504.12,-58.87C510.2,-49.46 517.07,-38.83 522.4,-30.58"/>
<polygon fill="midnightblue" stroke="midnightblue" points="501.1,-57.1 498.61,-67.4 506.98,-60.9 501.1,-57.1"/>
</g>
<!-- Node12 -->
<g id="node12" class="node">
<title>Node12</title>
<g id="a_node12"><a xlink:href="integrator_2pyramid_8hpp.html" target="_top" xlink:title=" ">
<polygon fill="white" stroke="black" points="833.5,-201.5 833.5,-231.5 961.5,-231.5 961.5,-201.5 833.5,-201.5"/>
<text text-anchor="start" x="841.5" y="-219.5" font-family="Helvetica,sans-Serif" font-size="10.00">include/mini/integrator</text>
<text text-anchor="middle" x="897.5" y="-208.5" font-family="Helvetica,sans-Serif" font-size="10.00">/pyramid.hpp</text>
</a>
</g>
</g>
<!-- Node11&#45;&gt;Node12 -->
<g id="edge13" class="edge">
<title>Node11&#45;&gt;Node12</title>
<path fill="none" stroke="midnightblue" d="M869.47,-259.87C875.7,-250.46 882.73,-239.83 888.19,-231.58"/>
<polygon fill="midnightblue" stroke="midnightblue" points="866.43,-258.12 863.83,-268.4 872.27,-261.99 866.43,-258.12"/>
</g>
<!-- Node14 -->
<g id="node14" class="node">
<title>Node14</title>
<g id="a_node14"><a xlink:href="integrator_2tetrahedron_8hpp.html" target="_top" xlink:title=" ">
<polygon fill="white" stroke="black" points="983.5,-201.5 983.5,-231.5 1111.5,-231.5 1111.5,-201.5 983.5,-201.5"/>
<text text-anchor="start" x="991.5" y="-219.5" font-family="Helvetica,sans-Serif" font-size="10.00">include/mini/integrator</text>
<text text-anchor="middle" x="1047.5" y="-208.5" font-family="Helvetica,sans-Serif" font-size="10.00">/tetrahedron.hpp</text>
</a>
</g>
</g>
<!-- Node13&#45;&gt;Node14 -->
<g id="edge15" class="edge">
<title>Node13&#45;&gt;Node14</title>
<path fill="none" stroke="midnightblue" d="M1018.82,-259.87C1025.19,-250.46 1032.38,-239.83 1037.97,-231.58"/>
<polygon fill="midnightblue" stroke="midnightblue" points="1015.75,-258.15 1013.05,-268.4 1021.55,-262.08 1015.75,-258.15"/>
</g>
<!-- Node16 -->
<g id="node16" class="node">
<title>Node16</title>
<g id="a_node16"><a xlink:href="integrator_2wedge_8hpp.html" target="_top" xlink:title=" ">
<polygon fill="white" stroke="black" points="1135.5,-134.5 1135.5,-164.5 1263.5,-164.5 1263.5,-134.5 1135.5,-134.5"/>
<text text-anchor="start" x="1143.5" y="-152.5" font-family="Helvetica,sans-Serif" font-size="10.00">include/mini/integrator</text>
<text text-anchor="middle" x="1199.5" y="-141.5" font-family="Helvetica,sans-Serif" font-size="10.00">/wedge.hpp</text>
</a>
</g>
</g>
<!-- Node15&#45;&gt;Node16 -->
<g id="edge17" class="edge">
<title>Node15&#45;&gt;Node16</title>
<path fill="none" stroke="midnightblue" d="M1160.96,-258.75C1170.73,-231.29 1186.51,-186.99 1194.51,-164.52"/>
<polygon fill="midnightblue" stroke="midnightblue" points="1157.59,-257.78 1157.53,-268.37 1164.18,-260.13 1157.59,-257.78"/>
</g>
<!-- Node17&#45;&gt;Node5 -->
<g id="edge22" class="edge">
<title>Node17&#45;&gt;Node5</title>
<path fill="none" stroke="midnightblue" d="M1226.8,-268.04C1226.7,-268.03 1226.6,-268.01 1226.5,-268 1048.91,-242.72 1002.32,-255.64 824.5,-232 818.77,-231.24 812.82,-230.36 806.88,-229.42"/>
<polygon fill="midnightblue" stroke="midnightblue" points="1225.98,-271.46 1236.39,-269.51 1227.04,-264.54 1225.98,-271.46"/>
</g>
<!-- Node17&#45;&gt;Node7 -->
<g id="edge27" class="edge">
<title>Node17&#45;&gt;Node7</title>
<path fill="none" stroke="midnightblue" d="M1267.9,-263.52C1232.79,-244.1 1174.65,-214.87 1120.5,-201 917.55,-149.01 858.16,-192.67 650.5,-165 647.57,-164.61 644.58,-164.18 641.57,-163.72"/>
<polygon fill="midnightblue" stroke="midnightblue" points="1266.31,-266.64 1276.74,-268.47 1269.73,-260.53 1266.31,-266.64"/>
</g>
<!-- Node17&#45;&gt;Node12 -->
<g id="edge23" class="edge">
<title>Node17&#45;&gt;Node12</title>
<path fill="none" stroke="midnightblue" d="M1226.8,-268.05C1226.7,-268.03 1226.6,-268.02 1226.5,-268 1114.95,-249.12 1086.12,-250.47 974.5,-232 970.34,-231.31 966.06,-230.58 961.74,-229.82"/>
<polygon fill="midnightblue" stroke="midnightblue" points="1225.91,-271.45 1236.36,-269.72 1227.11,-264.55 1225.91,-271.45"/>
</g>
<!-- Node17&#45;&gt;Node14 -->
<g id="edge24" class="edge">
<title>Node17&#45;&gt;Node14</title>
<path fill="none" stroke="midnightblue" d="M1236.22,-265.98C1194.89,-255.37 1141.77,-241.72 1102.42,-231.61"/>
<polygon fill="midnightblue" stroke="midnightblue" points="1235.36,-269.38 1245.91,-268.48 1237.1,-262.6 1235.36,-269.38"/>
</g>
<!-- Node17&#45;&gt;Node16 -->
<g id="edge25" class="edge">
<title>Node17&#45;&gt;Node16</title>
<path fill="none" stroke="midnightblue" d="M1270.45,-262.33C1259.43,-253.89 1247.46,-243.39 1238.5,-232 1221.91,-210.92 1210.08,-181.64 1204.06,-164.52"/>
<polygon fill="midnightblue" stroke="midnightblue" points="1268.51,-265.24 1278.63,-268.36 1272.66,-259.61 1268.51,-265.24"/>
</g>
<!-- Node18 -->
<g id="node18" class="node">
<title>Node18</title>
<g id="a_node18"><a xlink:href="basis_2linear_8hpp.html" target="_top" xlink:title=" ">
<polygon fill="white" stroke="black" points="1248,-201.5 1248,-231.5 1353,-231.5 1353,-201.5 1248,-201.5"/>
<text text-anchor="start" x="1256" y="-219.5" font-family="Helvetica,sans-Serif" font-size="10.00">include/mini/basis</text>
<text text-anchor="middle" x="1300.5" y="-208.5" font-family="Helvetica,sans-Serif" font-size="10.00">/linear.hpp</text>
</a>
</g>
</g>
<!-- Node17&#45;&gt;Node18 -->
<g id="edge19" class="edge">
<title>Node17&#45;&gt;Node18</title>
<path fill="none" stroke="midnightblue" d="M1300.5,-258.11C1300.5,-249.15 1300.5,-239.32 1300.5,-231.58"/>
<polygon fill="midnightblue" stroke="midnightblue" points="1297,-258.4 1300.5,-268.4 1304,-258.4 1297,-258.4"/>
</g>
<!-- Node17&#45;&gt;Node21 -->
<g id="edge26" class="edge">
<title>Node17&#45;&gt;Node21</title>
<path fill="none" stroke="midnightblue" d="M1341.39,-264.3C1369.55,-251.76 1405.66,-235.68 1427.39,-226.01"/>
<polygon fill="midnightblue" stroke="midnightblue" points="1339.89,-261.13 1332.18,-268.4 1342.74,-267.53 1339.89,-261.13"/>
</g>
<!-- Node19 -->
<g id="node19" class="node">
<title>Node19</title>
<g id="a_node19"><a xlink:href="projection_8hpp.html" target="_top" xlink:title=" ">
<polygon fill="white" stroke="black" points="1281.5,-134.5 1281.5,-164.5 1415.5,-164.5 1415.5,-134.5 1281.5,-134.5"/>
<text text-anchor="start" x="1289.5" y="-152.5" font-family="Helvetica,sans-Serif" font-size="10.00">include/mini/polynomial</text>
<text text-anchor="middle" x="1348.5" y="-141.5" font-family="Helvetica,sans-Serif" font-size="10.00">/projection.hpp</text>
</a>
</g>
</g>
<!-- Node18&#45;&gt;Node19 -->
<g id="edge20" class="edge">
<title>Node18&#45;&gt;Node19</title>
<path fill="none" stroke="midnightblue" d="M1317,-193.16C1324,-183.68 1331.94,-172.92 1338.11,-164.58"/>
<polygon fill="midnightblue" stroke="midnightblue" points="1314.04,-191.27 1310.92,-201.4 1319.67,-195.43 1314.04,-191.27"/>
</g>
<!-- Node20 -->
<g id="node20" class="node">
<title>Node20</title>
<g id="a_node20"><a xlink:href="extrapolation_8hpp.html" target="_top" xlink:title=" ">
<polygon fill="white" stroke="black" points="1281.5,-67.5 1281.5,-97.5 1415.5,-97.5 1415.5,-67.5 1281.5,-67.5"/>
<text text-anchor="start" x="1289.5" y="-85.5" font-family="Helvetica,sans-Serif" font-size="10.00">include/mini/polynomial</text>
<text text-anchor="middle" x="1348.5" y="-74.5" font-family="Helvetica,sans-Serif" font-size="10.00">/extrapolation.hpp</text>
</a>
</g>
</g>
<!-- Node19&#45;&gt;Node20 -->
<g id="edge21" class="edge">
<title>Node19&#45;&gt;Node20</title>
<path fill="none" stroke="midnightblue" d="M1348.5,-124.11C1348.5,-115.15 1348.5,-105.32 1348.5,-97.58"/>
<polygon fill="midnightblue" stroke="midnightblue" points="1345,-124.4 1348.5,-134.4 1352,-124.4 1345,-124.4"/>
</g>
<!-- Node22&#45;&gt;Node21 -->
<g id="edge41" class="edge">
<title>Node22&#45;&gt;Node21</title>
<path fill="none" stroke="midnightblue" d="M1480.83,-330.12C1468.59,-322.27 1456.59,-311.94 1449.5,-299 1436.51,-275.28 1441.23,-241.59 1444.47,-226.01"/>
<polygon fill="midnightblue" stroke="midnightblue" points="1479.34,-333.31 1489.73,-335.41 1482.92,-327.29 1479.34,-333.31"/>
</g>
<!-- Node22&#45;&gt;Node23 -->
<g id="edge30" class="edge">
<title>Node22&#45;&gt;Node23</title>
<path fill="none" stroke="midnightblue" d="M1598.02,-334.89C1656.57,-323.56 1736.89,-308.03 1792.8,-297.21"/>
<polygon fill="midnightblue" stroke="midnightblue" points="1597.24,-331.48 1588.08,-336.81 1598.56,-338.35 1597.24,-331.48"/>
</g>
<!-- Node24 -->
<g id="node24" class="node">
<title>Node24</title>
<g id="a_node24"><a xlink:href="integrator_2quadrangle_8hpp.html" target="_top" xlink:title=" ">
<polygon fill="white" stroke="black" points="1700.5,-201.5 1700.5,-231.5 1828.5,-231.5 1828.5,-201.5 1700.5,-201.5"/>
<text text-anchor="start" x="1708.5" y="-219.5" font-family="Helvetica,sans-Serif" font-size="10.00">include/mini/integrator</text>
<text text-anchor="middle" x="1764.5" y="-208.5" font-family="Helvetica,sans-Serif" font-size="10.00">/quadrangle.hpp</text>
</a>
</g>
</g>
<!-- Node22&#45;&gt;Node24 -->
<g id="edge40" class="edge">
<title>Node22&#45;&gt;Node24</title>
<path fill="none" stroke="midnightblue" d="M1598.4,-340.81C1654.24,-332.88 1723.87,-319.28 1744.5,-299 1762.58,-281.23 1765.32,-249.96 1765.22,-231.76"/>
<polygon fill="midnightblue" stroke="midnightblue" points="1597.57,-337.39 1588.15,-342.22 1598.53,-344.32 1597.57,-337.39"/>
</g>
<!-- Node22&#45;&gt;Node25 -->
<g id="edge32" class="edge">
<title>Node22&#45;&gt;Node25</title>
<path fill="none" stroke="midnightblue" d="M1564.01,-331.27C1587.58,-320.92 1616.64,-308.15 1638.45,-298.58"/>
<polygon fill="midnightblue" stroke="midnightblue" points="1562.36,-328.17 1554.61,-335.4 1565.18,-334.58 1562.36,-328.17"/>
</g>
<!-- Node27 -->
<g id="node27" class="node">
<title>Node27</title>
<g id="a_node27"><a xlink:href="integrator_2face_8hpp.html" target="_top" xlink:title=" ">
<polygon fill="white" stroke="black" points="1458.5,-268.5 1458.5,-298.5 1586.5,-298.5 1586.5,-268.5 1458.5,-268.5"/>
<text text-anchor="start" x="1466.5" y="-286.5" font-family="Helvetica,sans-Serif" font-size="10.00">include/mini/integrator</text>
<text text-anchor="middle" x="1522.5" y="-275.5" font-family="Helvetica,sans-Serif" font-size="10.00">/face.hpp</text>
</a>
</g>
</g>
<!-- Node22&#45;&gt;Node27 -->
<g id="edge35" class="edge">
<title>Node22&#45;&gt;Node27</title>
<path fill="none" stroke="midnightblue" d="M1522.5,-325.11C1522.5,-316.15 1522.5,-306.32 1522.5,-298.58"/>
<polygon fill="midnightblue" stroke="midnightblue" points="1519,-325.4 1522.5,-335.4 1526,-325.4 1519,-325.4"/>
</g>
<!-- Node23&#45;&gt;Node24 -->
<g id="edge31" class="edge">
<title>Node23&#45;&gt;Node24</title>
<path fill="none" stroke="midnightblue" d="M1829.51,-262.45C1815.05,-252.45 1797.91,-240.6 1784.86,-231.58"/>
<polygon fill="midnightblue" stroke="midnightblue" points="1827.89,-265.59 1838.1,-268.4 1831.87,-259.83 1827.89,-265.59"/>
</g>
<!-- Node26 -->
<g id="node26" class="node">
<title>Node26</title>
<g id="a_node26"><a xlink:href="integrator_2triangle_8hpp.html" target="_top" xlink:title=" ">
<polygon fill="white" stroke="black" points="1539.5,-201.5 1539.5,-231.5 1667.5,-231.5 1667.5,-201.5 1539.5,-201.5"/>
<text text-anchor="start" x="1547.5" y="-219.5" font-family="Helvetica,sans-Serif" font-size="10.00">include/mini/integrator</text>
<text text-anchor="middle" x="1603.5" y="-208.5" font-family="Helvetica,sans-Serif" font-size="10.00">/triangle.hpp</text>
</a>
</g>
</g>
<!-- Node25&#45;&gt;Node26 -->
<g id="edge33" class="edge">
<title>Node25&#45;&gt;Node26</title>
<path fill="none" stroke="midnightblue" d="M1648.66,-261.31C1638.61,-251.56 1626.96,-240.26 1618.01,-231.58"/>
<polygon fill="midnightblue" stroke="midnightblue" points="1646.35,-263.94 1655.96,-268.4 1651.22,-258.92 1646.35,-263.94"/>
</g>
<!-- Node26&#45;&gt;Node16 -->
<g id="edge34" class="edge">
<title>Node26&#45;&gt;Node16</title>
<path fill="none" stroke="midnightblue" d="M1529.55,-200.9C1414.65,-181.84 1383.54,-183.76 1272.5,-165 1269.57,-164.5 1266.58,-163.98 1263.56,-163.44"/>
<polygon fill="midnightblue" stroke="midnightblue" points="1529,-204.36 1539.44,-202.56 1530.16,-197.46 1529,-204.36"/>
</g>
<!-- Node27&#45;&gt;Node18 -->
<g id="edge36" class="edge">
<title>Node27&#45;&gt;Node18</title>
<path fill="none" stroke="midnightblue" d="M1464.71,-265.58C1428.65,-255.02 1382.78,-241.59 1348.69,-231.61"/>
<polygon fill="midnightblue" stroke="midnightblue" points="1464.02,-269.02 1474.6,-268.48 1465.99,-262.31 1464.02,-269.02"/>
</g>
<!-- Node27&#45;&gt;Node21 -->
<g id="edge39" class="edge">
<title>Node27&#45;&gt;Node21</title>
<path fill="none" stroke="midnightblue" d="M1498.15,-261.67C1484.11,-249.67 1467.22,-235.22 1456.67,-226.19"/>
<polygon fill="midnightblue" stroke="midnightblue" points="1496.13,-264.56 1506.01,-268.4 1500.68,-259.24 1496.13,-264.56"/>
</g>
<!-- Node27&#45;&gt;Node24 -->
<g id="edge37" class="edge">
<title>Node27&#45;&gt;Node24</title>
<path fill="none" stroke="midnightblue" d="M1584.49,-265.85C1623.95,-255.25 1674.49,-241.68 1711.96,-231.61"/>
<polygon fill="midnightblue" stroke="midnightblue" points="1583.46,-262.5 1574.71,-268.48 1585.28,-269.26 1583.46,-262.5"/>
</g>
<!-- Node27&#45;&gt;Node26 -->
<g id="edge38" class="edge">
<title>Node27&#45;&gt;Node26</title>
<path fill="none" stroke="midnightblue" d="M1548.19,-261.88C1560.5,-252.01 1574.93,-240.43 1585.96,-231.58"/>
<polygon fill="midnightblue" stroke="midnightblue" points="1545.68,-259.41 1540.08,-268.4 1550.07,-264.87 1545.68,-259.41"/>
</g>
<!-- Node28&#45;&gt;Node17 -->
<g id="edge49" class="edge">
<title>Node28&#45;&gt;Node17</title>
<path fill="none" stroke="midnightblue" d="M1282.63,-325.99C1286.58,-316.8 1290.99,-306.58 1294.44,-298.58"/>
<polygon fill="midnightblue" stroke="midnightblue" points="1279.32,-324.83 1278.58,-335.4 1285.75,-327.6 1279.32,-324.83"/>
</g>
<!-- Node28&#45;&gt;Node27 -->
<g id="edge50" class="edge">
<title>Node28&#45;&gt;Node27</title>
<path fill="none" stroke="midnightblue" d="M1336.28,-332.92C1377.08,-322.31 1429.43,-308.7 1468.23,-298.61"/>
<polygon fill="midnightblue" stroke="midnightblue" points="1335.24,-329.57 1326.44,-335.48 1337,-336.35 1335.24,-329.57"/>
</g>
<!-- Node30 -->
<g id="node30" class="node">
<title>Node30</title>
<g id="a_node30"><a xlink:href="viscosity_8hpp.html" target="_top" xlink:title=" ">
<polygon fill="white" stroke="black" points="432,-335.5 432,-365.5 545,-365.5 545,-335.5 432,-335.5"/>
<text text-anchor="start" x="440" y="-353.5" font-family="Helvetica,sans-Serif" font-size="10.00">include/mini/spatial</text>
<text text-anchor="middle" x="488.5" y="-342.5" font-family="Helvetica,sans-Serif" font-size="10.00">/viscosity.hpp</text>
</a>
</g>
</g>
<!-- Node29&#45;&gt;Node30 -->
<g id="edge55" class="edge">
<title>Node29&#45;&gt;Node30</title>
<path fill="none" stroke="midnightblue" d="M495.42,-392.4C493.89,-383.37 492.21,-373.41 490.88,-365.58"/>
<polygon fill="midnightblue" stroke="midnightblue" points="491.99,-393.12 497.11,-402.4 498.9,-391.95 491.99,-393.12"/>
</g>
<!-- Node31&#45;&gt;Node30 -->
<g id="edge57" class="edge">
<title>Node31&#45;&gt;Node30</title>
<path fill="none" stroke="midnightblue" d="M398.2,-397.71C418.23,-387.46 442.62,-374.98 461,-365.58"/>
<polygon fill="midnightblue" stroke="midnightblue" points="396.36,-394.72 389.06,-402.4 399.55,-400.96 396.36,-394.72"/>
</g>
<!-- Node35 -->
<g id="node35" class="node">
<title>Node35</title>
<g id="a_node35"><a xlink:href="rotated_2burgers_8hpp.html" target="_top" xlink:title=" ">
<polygon fill="white" stroke="black" points="1682.5,-335.5 1682.5,-365.5 1802.5,-365.5 1802.5,-335.5 1682.5,-335.5"/>
<text text-anchor="start" x="1690.5" y="-353.5" font-family="Helvetica,sans-Serif" font-size="10.00">include/mini/riemann</text>
<text text-anchor="middle" x="1742.5" y="-342.5" font-family="Helvetica,sans-Serif" font-size="10.00">/rotated/burgers.hpp</text>
</a>
</g>
</g>
<!-- Node34&#45;&gt;Node35 -->
<g id="edge61" class="edge">
<title>Node34&#45;&gt;Node35</title>
<path fill="none" stroke="midnightblue" d="M1841.5,-398.13C1819.57,-387.8 1792.63,-375.11 1772.39,-365.58"/>
<polygon fill="midnightblue" stroke="midnightblue" points="1840.02,-401.3 1850.56,-402.4 1843,-394.97 1840.02,-401.3"/>
</g>
<!-- Node36 -->
<g id="node36" class="node">
<title>Node36</title>
<g id="a_node36"><a xlink:href="rotated_2double_8hpp.html" target="_top" xlink:title=" ">
<polygon fill="white" stroke="black" points="1820.5,-335.5 1820.5,-365.5 1940.5,-365.5 1940.5,-335.5 1820.5,-335.5"/>
<text text-anchor="start" x="1828.5" y="-353.5" font-family="Helvetica,sans-Serif" font-size="10.00">include/mini/riemann</text>
<text text-anchor="middle" x="1880.5" y="-342.5" font-family="Helvetica,sans-Serif" font-size="10.00">/rotated/double.hpp</text>
</a>
</g>
</g>
<!-- Node34&#45;&gt;Node36 -->
<g id="edge62" class="edge">
<title>Node34&#45;&gt;Node36</title>
<path fill="none" stroke="midnightblue" d="M1880.5,-392.11C1880.5,-383.15 1880.5,-373.32 1880.5,-365.58"/>
<polygon fill="midnightblue" stroke="midnightblue" points="1877,-392.4 1880.5,-402.4 1884,-392.4 1877,-392.4"/>
</g>
<!-- Node37 -->
<g id="node37" class="node">
<title>Node37</title>
<g id="a_node37"><a xlink:href="rotated_2multiple_8hpp.html" target="_top" xlink:title=" ">
<polygon fill="white" stroke="black" points="1958.5,-335.5 1958.5,-365.5 2078.5,-365.5 2078.5,-335.5 1958.5,-335.5"/>
<text text-anchor="start" x="1966.5" y="-353.5" font-family="Helvetica,sans-Serif" font-size="10.00">include/mini/riemann</text>
<text text-anchor="middle" x="2018.5" y="-342.5" font-family="Helvetica,sans-Serif" font-size="10.00">/rotated/multiple.hpp</text>
</a>
</g>
</g>
<!-- Node34&#45;&gt;Node37 -->
<g id="edge63" class="edge">
<title>Node34&#45;&gt;Node37</title>
<path fill="none" stroke="midnightblue" d="M1919.5,-398.13C1941.43,-387.8 1968.37,-375.11 1988.61,-365.58"/>
<polygon fill="midnightblue" stroke="midnightblue" points="1918,-394.97 1910.44,-402.4 1920.98,-401.3 1918,-394.97"/>
</g>
<!-- Node38 -->
<g id="node38" class="node">
<title>Node38</title>
<g id="a_node38"><a xlink:href="rotated_2single_8hpp.html" target="_top" xlink:title=" ">
<polygon fill="white" stroke="black" points="2096.5,-335.5 2096.5,-365.5 2216.5,-365.5 2216.5,-335.5 2096.5,-335.5"/>
<text text-anchor="start" x="2104.5" y="-353.5" font-family="Helvetica,sans-Serif" font-size="10.00">include/mini/riemann</text>
<text text-anchor="middle" x="2156.5" y="-342.5" font-family="Helvetica,sans-Serif" font-size="10.00">/rotated/single.hpp</text>
</a>
</g>
</g>
<!-- Node34&#45;&gt;Node38 -->
<g id="edge64" class="edge">
<title>Node34&#45;&gt;Node38</title>
<path fill="none" stroke="midnightblue" d="M1950.06,-400.12C1995.22,-389.48 2053.48,-375.76 2096.58,-365.61"/>
<polygon fill="midnightblue" stroke="midnightblue" points="1948.98,-396.78 1940.05,-402.48 1950.58,-403.59 1948.98,-396.78"/>
</g>
<!-- Node39&#45;&gt;Node9 -->
<g id="edge68" class="edge">
<title>Node39&#45;&gt;Node9</title>
<path fill="none" stroke="midnightblue" d="M191.7,-396.7C180.2,-388.56 168.36,-378.17 160.5,-366 140.32,-334.75 141.5,-321.69 141.5,-284.5 141.5,-284.5 141.5,-284.5 141.5,-215.5 141.5,-153.95 334.2,-110.91 432.81,-92.91"/>
<polygon fill="midnightblue" stroke="midnightblue" points="190.09,-399.83 200.36,-402.47 193.98,-394.01 190.09,-399.83"/>
</g>
<!-- Node39&#45;&gt;Node30 -->
<g id="edge69" class="edge">
<title>Node39&#45;&gt;Node30</title>
<path fill="none" stroke="midnightblue" d="M292.8,-400.05C335.63,-389.43 390.79,-375.74 431.62,-365.61"/>
<polygon fill="midnightblue" stroke="midnightblue" points="291.89,-396.67 283.03,-402.48 293.58,-403.47 291.89,-396.67"/>
</g>
<!-- Node40 -->
<g id="node40" class="node">
<title>Node40</title>
<g id="a_node40"><a xlink:href="dg_2general_8hpp.html" target="_top" xlink:title=" ">
<polygon fill="white" stroke="black" points="0,-134.5 0,-164.5 113,-164.5 113,-134.5 0,-134.5"/>
<text text-anchor="start" x="8" y="-152.5" font-family="Helvetica,sans-Serif" font-size="10.00">include/mini/spatial</text>
<text text-anchor="middle" x="56.5" y="-141.5" font-family="Helvetica,sans-Serif" font-size="10.00">/dg/general.hpp</text>
</a>
</g>
</g>
<!-- Node39&#45;&gt;Node40 -->
<g id="edge66" class="edge">
<title>Node39&#45;&gt;Node40</title>
<path fill="none" stroke="midnightblue" d="M172.37,-398.18C156.1,-390.43 139.41,-379.9 127.5,-366 74.56,-304.24 60.83,-201.9 57.5,-164.63"/>
<polygon fill="midnightblue" stroke="midnightblue" points="171.32,-401.55 181.87,-402.43 174.17,-395.16 171.32,-401.55"/>
</g>
<!-- Node41 -->
<g id="node41" class="node">
<title>Node41</title>
<g id="a_node41"><a xlink:href="with__limiter_8hpp.html" target="_top" xlink:title=" ">
<polygon fill="white" stroke="black" points="170,-335.5 170,-365.5 283,-365.5 283,-335.5 170,-335.5"/>
<text text-anchor="start" x="178" y="-353.5" font-family="Helvetica,sans-Serif" font-size="10.00">include/mini/spatial</text>
<text text-anchor="middle" x="226.5" y="-342.5" font-family="Helvetica,sans-Serif" font-size="10.00">/with_limiter.hpp</text>
</a>
</g>
</g>
<!-- Node39&#45;&gt;Node41 -->
<g id="edge70" class="edge">
<title>Node39&#45;&gt;Node41</title>
<path fill="none" stroke="midnightblue" d="M226.5,-392.11C226.5,-383.15 226.5,-373.32 226.5,-365.58"/>
<polygon fill="midnightblue" stroke="midnightblue" points="223,-392.4 226.5,-402.4 230,-392.4 223,-392.4"/>
</g>
<!-- Node42 -->
<g id="node42" class="node">
<title>Node42</title>
<g id="a_node42"><a xlink:href="with__viscosity_8hpp.html" target="_top" xlink:title=" ">
<polygon fill="white" stroke="black" points="301,-335.5 301,-365.5 414,-365.5 414,-335.5 301,-335.5"/>
<text text-anchor="start" x="309" y="-353.5" font-family="Helvetica,sans-Serif" font-size="10.00">include/mini/spatial</text>
<text text-anchor="middle" x="357.5" y="-342.5" font-family="Helvetica,sans-Serif" font-size="10.00">/with_viscosity.hpp</text>
</a>
</g>
</g>
<!-- Node39&#45;&gt;Node42 -->
<g id="edge71" class="edge">
<title>Node39&#45;&gt;Node42</title>
<path fill="none" stroke="midnightblue" d="M264.08,-397.85C284.79,-387.58 310.09,-375.03 329.13,-365.58"/>
<polygon fill="midnightblue" stroke="midnightblue" points="262.33,-394.82 254.93,-402.4 265.44,-401.09 262.33,-394.82"/>
</g>
<!-- Node40&#45;&gt;Node8 -->
<g id="edge67" class="edge">
<title>Node40&#45;&gt;Node8</title>
<path fill="none" stroke="midnightblue" d="M98.53,-130.41C122.64,-120.03 152.45,-107.2 174.8,-97.58"/>
<polygon fill="midnightblue" stroke="midnightblue" points="97.07,-127.23 89.26,-134.4 99.83,-133.66 97.07,-127.23"/>
</g>
</g>
</svg>
