<?xml version="1.0" encoding="UTF-8" standalone="no"?>
<!DOCTYPE svg PUBLIC "-//W3C//DTD SVG 1.1//EN"
 "http://www.w3.org/Graphics/SVG/1.1/DTD/svg11.dtd">
<!-- Generated by graphviz version 2.43.0 (0)
 -->
<!-- Title: include/mini/constant/index.hpp Pages: 1 -->
<svg width="1967pt" height="508pt"
 viewBox="0.00 0.00 1966.50 508.00" xmlns="http://www.w3.org/2000/svg" xmlns:xlink="http://www.w3.org/1999/xlink">
<g id="graph0" class="graph" transform="scale(1 1) rotate(0) translate(4 504)">
<title>include/mini/constant/index.hpp</title>
<polygon fill="white" stroke="transparent" points="-4,4 -4,-504 1962.5,-504 1962.5,4 -4,4"/>
<!-- Node1 -->
<g id="node1" class="node">
<title>Node1</title>
<g id="a_node1"><a xlink:title=" ">
<polygon fill="#bfbfbf" stroke="black" points="689.5,-469.5 689.5,-499.5 811.5,-499.5 811.5,-469.5 689.5,-469.5"/>
<text text-anchor="start" x="697.5" y="-487.5" font-family="Helvetica,sans-Serif" font-size="10.00">include/mini/constant</text>
<text text-anchor="middle" x="750.5" y="-476.5" font-family="Helvetica,sans-Serif" font-size="10.00">/index.hpp</text>
</a>
</g>
</g>
<!-- Node2 -->
<g id="node2" class="node">
<title>Node2</title>
<g id="a_node2"><a xlink:href="coordinate_2element_8hpp.html" target="_top" xlink:title=" ">
<polygon fill="white" stroke="black" points="685,-402.5 685,-432.5 816,-432.5 816,-402.5 685,-402.5"/>
<text text-anchor="start" x="693" y="-420.5" font-family="Helvetica,sans-Serif" font-size="10.00">include/mini/coordinate</text>
<text text-anchor="middle" x="750.5" y="-409.5" font-family="Helvetica,sans-Serif" font-size="10.00">/element.hpp</text>
</a>
</g>
</g>
<!-- Node1&#45;&gt;Node2 -->
<g id="edge1" class="edge">
<title>Node1&#45;&gt;Node2</title>
<path fill="none" stroke="midnightblue" d="M750.5,-459.11C750.5,-450.15 750.5,-440.32 750.5,-432.58"/>
<polygon fill="midnightblue" stroke="midnightblue" points="747,-459.4 750.5,-469.4 754,-459.4 747,-459.4"/>
</g>
<!-- Node6 -->
<g id="node6" class="node">
<title>Node6</title>
<g id="a_node6"><a xlink:href="polynomial_2hexahedron_8hpp.html" target="_top" xlink:title=" ">
<polygon fill="white" stroke="black" points="340.5,-134.5 340.5,-164.5 474.5,-164.5 474.5,-134.5 340.5,-134.5"/>
<text text-anchor="start" x="348.5" y="-152.5" font-family="Helvetica,sans-Serif" font-size="10.00">include/mini/polynomial</text>
<text text-anchor="middle" x="407.5" y="-141.5" font-family="Helvetica,sans-Serif" font-size="10.00">/hexahedron.hpp</text>
</a>
</g>
</g>
<!-- Node1&#45;&gt;Node6 -->
<g id="edge51" class="edge">
<title>Node1&#45;&gt;Node6</title>
<path fill="none" stroke="midnightblue" d="M679.04,-482.61C583.81,-479.97 422.08,-469.99 377.5,-433 348.14,-408.63 350.5,-389.66 350.5,-351.5 350.5,-351.5 350.5,-351.5 350.5,-282.5 350.5,-236.32 380.27,-187.95 396.78,-164.67"/>
<polygon fill="midnightblue" stroke="midnightblue" points="679.09,-486.11 689.18,-482.87 679.27,-479.11 679.09,-486.11"/>
</g>
<!-- Node27 -->
<g id="node27" class="node">
<title>Node27</title>
<g id="a_node27"><a xlink:href="integrator_2element_8hpp.html" target="_top" xlink:title=" ">
<polygon fill="white" stroke="black" points="940.5,-335.5 940.5,-365.5 1068.5,-365.5 1068.5,-335.5 940.5,-335.5"/>
<text text-anchor="start" x="948.5" y="-353.5" font-family="Helvetica,sans-Serif" font-size="10.00">include/mini/integrator</text>
<text text-anchor="middle" x="1004.5" y="-342.5" font-family="Helvetica,sans-Serif" font-size="10.00">/element.hpp</text>
</a>
</g>
</g>
<!-- Node1&#45;&gt;Node27 -->
<g id="edge50" class="edge">
<title>Node1&#45;&gt;Node27</title>
<path fill="none" stroke="midnightblue" d="M780.66,-463.64C794.22,-454.53 810.33,-443.45 824.5,-433 842.32,-419.86 844.15,-412.77 863.5,-402 891.56,-386.39 925.36,-374.08 952.84,-365.53"/>
<polygon fill="midnightblue" stroke="midnightblue" points="778.53,-460.85 772.16,-469.32 782.42,-466.68 778.53,-460.85"/>
</g>
<!-- Node28 -->
<g id="node28" class="node">
<title>Node28</title>
<g id="a_node28"><a xlink:href="direct_8hpp.html" target="_top" xlink:title=" ">
<polygon fill="white" stroke="black" points="539.5,-402.5 539.5,-432.5 659.5,-432.5 659.5,-402.5 539.5,-402.5"/>
<text text-anchor="start" x="547.5" y="-420.5" font-family="Helvetica,sans-Serif" font-size="10.00">include/mini/riemann</text>
<text text-anchor="middle" x="599.5" y="-409.5" font-family="Helvetica,sans-Serif" font-size="10.00">/diffusive/direct.hpp</text>
</a>
</g>
</g>
<!-- Node1&#45;&gt;Node28 -->
<g id="edge52" class="edge">
<title>Node1&#45;&gt;Node28</title>
<path fill="none" stroke="midnightblue" d="M708.47,-465.41C684.36,-455.03 654.55,-442.2 632.2,-432.58"/>
<polygon fill="midnightblue" stroke="midnightblue" points="707.17,-468.66 717.74,-469.4 709.93,-462.23 707.17,-468.66"/>
</g>
<!-- Node30 -->
<g id="node30" class="node">
<title>Node30</title>
<g id="a_node30"><a xlink:href="riemann_2diffusive_2linear_8hpp.html" target="_top" xlink:title=" ">
<polygon fill="white" stroke="black" points="386.5,-402.5 386.5,-432.5 506.5,-432.5 506.5,-402.5 386.5,-402.5"/>
<text text-anchor="start" x="394.5" y="-420.5" font-family="Helvetica,sans-Serif" font-size="10.00">include/mini/riemann</text>
<text text-anchor="middle" x="446.5" y="-409.5" font-family="Helvetica,sans-Serif" font-size="10.00">/diffusive/linear.hpp</text>
</a>
</g>
</g>
<!-- Node1&#45;&gt;Node30 -->
<g id="edge54" class="edge">
<title>Node1&#45;&gt;Node30</title>
<path fill="none" stroke="midnightblue" d="M679.43,-468.3C626.92,-457.08 556.21,-441.96 506.52,-431.33"/>
<polygon fill="midnightblue" stroke="midnightblue" points="678.84,-471.76 689.35,-470.42 680.3,-464.91 678.84,-471.76"/>
</g>
<!-- Node31 -->
<g id="node31" class="node">
<title>Node31</title>
<g id="a_node31"><a xlink:href="navier__stokes_8hpp.html" target="_top" xlink:title=" ">
<polygon fill="white" stroke="black" points="873,-402.5 873,-432.5 1026,-432.5 1026,-402.5 873,-402.5"/>
<text text-anchor="start" x="881" y="-420.5" font-family="Helvetica,sans-Serif" font-size="10.00">include/mini/riemann</text>
<text text-anchor="middle" x="949.5" y="-409.5" font-family="Helvetica,sans-Serif" font-size="10.00">/diffusive/navier_stokes.hpp</text>
</a>
</g>
</g>
<!-- Node1&#45;&gt;Node31 -->
<g id="edge56" class="edge">
<title>Node1&#45;&gt;Node31</title>
<path fill="none" stroke="midnightblue" d="M803.38,-466.23C835.57,-455.71 876.17,-442.45 906.4,-432.58"/>
<polygon fill="midnightblue" stroke="midnightblue" points="802.1,-462.96 793.68,-469.4 804.27,-469.62 802.1,-462.96"/>
</g>
<!-- Node32 -->
<g id="node32" class="node">
<title>Node32</title>
<g id="a_node32"><a xlink:href="euler_8hpp.html" target="_top" xlink:title=" ">
<polygon fill="white" stroke="black" points="1044.5,-402.5 1044.5,-432.5 1164.5,-432.5 1164.5,-402.5 1044.5,-402.5"/>
<text text-anchor="start" x="1052.5" y="-420.5" font-family="Helvetica,sans-Serif" font-size="10.00">include/mini/riemann</text>
<text text-anchor="middle" x="1104.5" y="-409.5" font-family="Helvetica,sans-Serif" font-size="10.00">/rotated/euler.hpp</text>
</a>
</g>
</g>
<!-- Node1&#45;&gt;Node32 -->
<g id="edge57" class="edge">
<title>Node1&#45;&gt;Node32</title>
<path fill="none" stroke="midnightblue" d="M821.61,-471.43C879.11,-461.53 962.13,-446.93 1034.5,-433 1037.67,-432.39 1040.92,-431.75 1044.19,-431.11"/>
<polygon fill="midnightblue" stroke="midnightblue" points="820.79,-468.02 811.53,-473.16 821.98,-474.92 820.79,-468.02"/>
</g>
<!-- Node33 -->
<g id="node33" class="node">
<title>Node33</title>
<g id="a_node33"><a xlink:href="simple_8hpp.html" target="_top" xlink:title=" ">
<polygon fill="white" stroke="black" points="1562.5,-402.5 1562.5,-432.5 1682.5,-432.5 1682.5,-402.5 1562.5,-402.5"/>
<text text-anchor="start" x="1570.5" y="-420.5" font-family="Helvetica,sans-Serif" font-size="10.00">include/mini/riemann</text>
<text text-anchor="middle" x="1622.5" y="-409.5" font-family="Helvetica,sans-Serif" font-size="10.00">/rotated/simple.hpp</text>
</a>
</g>
</g>
<!-- Node1&#45;&gt;Node33 -->
<g id="edge58" class="edge">
<title>Node1&#45;&gt;Node33</title>
<path fill="none" stroke="midnightblue" d="M822.03,-478.17C989.87,-465.66 1406.56,-434.6 1562.41,-422.98"/>
<polygon fill="midnightblue" stroke="midnightblue" points="821.53,-474.7 811.82,-478.93 822.05,-481.68 821.53,-474.7"/>
</g>
<!-- Node38 -->
<g id="node38" class="node">
<title>Node38</title>
<g id="a_node38"><a xlink:href="fem_8hpp.html" target="_top" xlink:title=" ">
<polygon fill="white" stroke="black" points="190,-402.5 190,-432.5 303,-432.5 303,-402.5 190,-402.5"/>
<text text-anchor="start" x="198" y="-420.5" font-family="Helvetica,sans-Serif" font-size="10.00">include/mini/spatial</text>
<text text-anchor="middle" x="246.5" y="-409.5" font-family="Helvetica,sans-Serif" font-size="10.00">/fem.hpp</text>
</a>
</g>
</g>
<!-- Node1&#45;&gt;Node38 -->
<g id="edge63" class="edge">
<title>Node1&#45;&gt;Node38</title>
<path fill="none" stroke="midnightblue" d="M679.35,-475.66C596.79,-466.37 456.6,-449.99 336.5,-433 325.69,-431.47 314.17,-429.71 303.1,-427.96"/>
<polygon fill="midnightblue" stroke="midnightblue" points="679.05,-479.15 689.38,-476.79 679.83,-472.19 679.05,-479.15"/>
</g>
<!-- Node3 -->
<g id="node3" class="node">
<title>Node3</title>
<g id="a_node3"><a xlink:href="coordinate_2cell_8hpp.html" target="_top" xlink:title=" ">
<polygon fill="white" stroke="black" points="715,-335.5 715,-365.5 846,-365.5 846,-335.5 715,-335.5"/>
<text text-anchor="start" x="723" y="-353.5" font-family="Helvetica,sans-Serif" font-size="10.00">include/mini/coordinate</text>
<text text-anchor="middle" x="780.5" y="-342.5" font-family="Helvetica,sans-Serif" font-size="10.00">/cell.hpp</text>
</a>
</g>
</g>
<!-- Node2&#45;&gt;Node3 -->
<g id="edge2" class="edge">
<title>Node2&#45;&gt;Node3</title>
<path fill="none" stroke="midnightblue" d="M761.22,-393.28C765.49,-384.02 770.27,-373.66 774,-365.58"/>
<polygon fill="midnightblue" stroke="midnightblue" points="758.02,-391.85 757.01,-402.4 764.38,-394.78 758.02,-391.85"/>
</g>
<!-- Node4 -->
<g id="node4" class="node">
<title>Node4</title>
<g id="a_node4"><a xlink:href="coordinate_2hexahedron_8hpp.html" target="_top" xlink:title=" ">
<polygon fill="white" stroke="black" points="417,-268.5 417,-298.5 548,-298.5 548,-268.5 417,-268.5"/>
<text text-anchor="start" x="425" y="-286.5" font-family="Helvetica,sans-Serif" font-size="10.00">include/mini/coordinate</text>
<text text-anchor="middle" x="482.5" y="-275.5" font-family="Helvetica,sans-Serif" font-size="10.00">/hexahedron.hpp</text>
</a>
</g>
</g>
<!-- Node2&#45;&gt;Node4 -->
<g id="edge40" class="edge">
<title>Node2&#45;&gt;Node4</title>
<path fill="none" stroke="midnightblue" d="M712.8,-397.93C658.56,-371.21 559.66,-322.51 511.04,-298.56"/>
<polygon fill="midnightblue" stroke="midnightblue" points="711.56,-401.22 722.07,-402.5 714.65,-394.94 711.56,-401.22"/>
</g>
<!-- Node2&#45;&gt;Node6 -->
<g id="edge49" class="edge">
<title>Node2&#45;&gt;Node6</title>
<path fill="none" stroke="midnightblue" d="M693.34,-399.48C662.21,-390.01 623.1,-377.79 588.5,-366 583.43,-364.27 410.56,-303.4 407.5,-299 378.78,-257.74 393.81,-193.17 402.61,-164.75"/>
<polygon fill="midnightblue" stroke="midnightblue" points="692.56,-402.9 703.15,-402.45 694.59,-396.2 692.56,-402.9"/>
</g>
<!-- Node10 -->
<g id="node10" class="node">
<title>Node10</title>
<g id="a_node10"><a xlink:href="coordinate_2pyramid_8hpp.html" target="_top" xlink:title=" ">
<polygon fill="white" stroke="black" points="566,-268.5 566,-298.5 697,-298.5 697,-268.5 566,-268.5"/>
<text text-anchor="start" x="574" y="-286.5" font-family="Helvetica,sans-Serif" font-size="10.00">include/mini/coordinate</text>
<text text-anchor="middle" x="631.5" y="-275.5" font-family="Helvetica,sans-Serif" font-size="10.00">/pyramid.hpp</text>
</a>
</g>
</g>
<!-- Node2&#45;&gt;Node10 -->
<g id="edge41" class="edge">
<title>Node2&#45;&gt;Node10</title>
<path fill="none" stroke="midnightblue" d="M727.64,-395.36C718.36,-386.51 707.69,-375.98 698.5,-366 677.66,-343.36 655.32,-315.34 642.42,-298.74"/>
<polygon fill="midnightblue" stroke="midnightblue" points="725.36,-398.03 735.04,-402.35 730.17,-392.94 725.36,-398.03"/>
</g>
<!-- Node12 -->
<g id="node12" class="node">
<title>Node12</title>
<g id="a_node12"><a xlink:href="coordinate_2tetrahedron_8hpp.html" target="_top" xlink:title=" ">
<polygon fill="white" stroke="black" points="715,-268.5 715,-298.5 846,-298.5 846,-268.5 715,-268.5"/>
<text text-anchor="start" x="723" y="-286.5" font-family="Helvetica,sans-Serif" font-size="10.00">include/mini/coordinate</text>
<text text-anchor="middle" x="780.5" y="-275.5" font-family="Helvetica,sans-Serif" font-size="10.00">/tetrahedron.hpp</text>
</a>
</g>
</g>
<!-- Node2&#45;&gt;Node12 -->
<g id="edge43" class="edge">
<title>Node2&#45;&gt;Node12</title>
<path fill="none" stroke="midnightblue" d="M726.19,-395.43C710.35,-379.03 694.5,-355.66 705.5,-335 714.13,-318.79 730.54,-306.85 745.81,-298.66"/>
<polygon fill="midnightblue" stroke="midnightblue" points="723.77,-397.96 733.37,-402.44 728.66,-392.95 723.77,-397.96"/>
</g>
<!-- Node14 -->
<g id="node14" class="node">
<title>Node14</title>
<g id="a_node14"><a xlink:href="coordinate_2wedge_8hpp.html" target="_top" xlink:title=" ">
<polygon fill="white" stroke="black" points="1049,-268.5 1049,-298.5 1180,-298.5 1180,-268.5 1049,-268.5"/>
<text text-anchor="start" x="1057" y="-286.5" font-family="Helvetica,sans-Serif" font-size="10.00">include/mini/coordinate</text>
<text text-anchor="middle" x="1114.5" y="-275.5" font-family="Helvetica,sans-Serif" font-size="10.00">/wedge.hpp</text>
</a>
</g>
</g>
<!-- Node2&#45;&gt;Node14 -->
<g id="edge45" class="edge">
<title>Node2&#45;&gt;Node14</title>
<path fill="none" stroke="midnightblue" d="M792.22,-398.13C811.55,-389.14 834.59,-377.74 854.5,-366 875.1,-353.85 876.67,-344.79 898.5,-335 925.07,-323.08 995.64,-307.62 1048.95,-296.96"/>
<polygon fill="midnightblue" stroke="midnightblue" points="790.69,-394.98 783.06,-402.33 793.61,-401.34 790.69,-394.98"/>
</g>
<!-- Node21 -->
<g id="node21" class="node">
<title>Node21</title>
<g id="a_node21"><a xlink:href="coordinate_2face_8hpp.html" target="_top" xlink:title=" ">
<polygon fill="white" stroke="black" points="1237,-335.5 1237,-365.5 1368,-365.5 1368,-335.5 1237,-335.5"/>
<text text-anchor="start" x="1245" y="-353.5" font-family="Helvetica,sans-Serif" font-size="10.00">include/mini/coordinate</text>
<text text-anchor="middle" x="1302.5" y="-342.5" font-family="Helvetica,sans-Serif" font-size="10.00">/face.hpp</text>
</a>
</g>
</g>
<!-- Node2&#45;&gt;Node21 -->
<g id="edge27" class="edge">
<title>Node2&#45;&gt;Node21</title>
<path fill="none" stroke="midnightblue" d="M826.13,-406.66C838.61,-405.07 851.42,-403.47 863.5,-402 995.82,-385.9 1150.75,-368.39 1236.65,-358.8"/>
<polygon fill="midnightblue" stroke="midnightblue" points="825.69,-403.18 816.21,-407.92 826.57,-410.13 825.69,-403.18"/>
</g>
<!-- Node22 -->
<g id="node22" class="node">
<title>Node22</title>
<g id="a_node22"><a xlink:href="coordinate_2quadrangle_8hpp.html" target="_top" xlink:title=" ">
<polygon fill="white" stroke="black" points="1571,-268.5 1571,-298.5 1702,-298.5 1702,-268.5 1571,-268.5"/>
<text text-anchor="start" x="1579" y="-286.5" font-family="Helvetica,sans-Serif" font-size="10.00">include/mini/coordinate</text>
<text text-anchor="middle" x="1636.5" y="-275.5" font-family="Helvetica,sans-Serif" font-size="10.00">/quadrangle.hpp</text>
</a>
</g>
</g>
<!-- Node2&#45;&gt;Node22 -->
<g id="edge42" class="edge">
<title>Node2&#45;&gt;Node22</title>
<path fill="none" stroke="midnightblue" d="M826.45,-406.15C838.82,-404.63 851.51,-403.19 863.5,-402 977.22,-390.72 1269.99,-407.41 1376.5,-366 1397.14,-357.98 1395.54,-344.59 1415.5,-335 1442.59,-321.98 1516.03,-306.52 1570.87,-296.16"/>
<polygon fill="midnightblue" stroke="midnightblue" points="825.65,-402.72 816.16,-407.43 826.51,-409.66 825.65,-402.72"/>
</g>
<!-- Node24 -->
<g id="node24" class="node">
<title>Node24</title>
<g id="a_node24"><a xlink:href="coordinate_2triangle_8hpp.html" target="_top" xlink:title=" ">
<polygon fill="white" stroke="black" points="1237,-268.5 1237,-298.5 1368,-298.5 1368,-268.5 1237,-268.5"/>
<text text-anchor="start" x="1245" y="-286.5" font-family="Helvetica,sans-Serif" font-size="10.00">include/mini/coordinate</text>
<text text-anchor="middle" x="1302.5" y="-275.5" font-family="Helvetica,sans-Serif" font-size="10.00">/triangle.hpp</text>
</a>
</g>
</g>
<!-- Node2&#45;&gt;Node24 -->
<g id="edge44" class="edge">
<title>Node2&#45;&gt;Node24</title>
<path fill="none" stroke="midnightblue" d="M810.21,-399.37C835.7,-390.95 865.32,-379.65 890.5,-366 910.58,-355.11 910.38,-343.71 931.5,-335 938.5,-332.11 1132.21,-306.63 1236.86,-293.01"/>
<polygon fill="midnightblue" stroke="midnightblue" points="809.09,-396.05 800.66,-402.46 811.25,-402.71 809.09,-396.05"/>
</g>
<!-- Node2&#45;&gt;Node27 -->
<g id="edge46" class="edge">
<title>Node2&#45;&gt;Node27</title>
<path fill="none" stroke="midnightblue" d="M815.04,-399.98C856.53,-389.37 909.86,-375.72 949.36,-365.61"/>
<polygon fill="midnightblue" stroke="midnightblue" points="814.12,-396.61 805.3,-402.48 815.86,-403.39 814.12,-396.61"/>
</g>
<!-- Node3&#45;&gt;Node4 -->
<g id="edge3" class="edge">
<title>Node3&#45;&gt;Node4</title>
<path fill="none" stroke="midnightblue" d="M706.3,-333.32C657.32,-322.63 593.79,-308.77 546.94,-298.55"/>
<polygon fill="midnightblue" stroke="midnightblue" points="705.69,-336.76 716.21,-335.48 707.18,-329.93 705.69,-336.76"/>
</g>
<!-- Node3&#45;&gt;Node10 -->
<g id="edge10" class="edge">
<title>Node3&#45;&gt;Node10</title>
<path fill="none" stroke="midnightblue" d="M738.71,-331.27C714.98,-320.92 685.72,-308.15 663.77,-298.58"/>
<polygon fill="midnightblue" stroke="midnightblue" points="737.6,-334.61 748.17,-335.4 740.4,-328.19 737.6,-334.61"/>
</g>
<!-- Node3&#45;&gt;Node12 -->
<g id="edge12" class="edge">
<title>Node3&#45;&gt;Node12</title>
<path fill="none" stroke="midnightblue" d="M780.5,-325.11C780.5,-316.15 780.5,-306.32 780.5,-298.58"/>
<polygon fill="midnightblue" stroke="midnightblue" points="777,-325.4 780.5,-335.4 784,-325.4 777,-325.4"/>
</g>
<!-- Node3&#45;&gt;Node14 -->
<g id="edge14" class="edge">
<title>Node3&#45;&gt;Node14</title>
<path fill="none" stroke="midnightblue" d="M855.94,-334.82C913.96,-323.53 993.33,-308.08 1048.78,-297.29"/>
<polygon fill="midnightblue" stroke="midnightblue" points="855.24,-331.39 846.09,-336.74 856.57,-338.26 855.24,-331.39"/>
</g>
<!-- Node16 -->
<g id="node16" class="node">
<title>Node16</title>
<g id="a_node16"><a xlink:href="integrator_2cell_8hpp.html" target="_top" xlink:title=" ">
<polygon fill="white" stroke="black" points="864.5,-268.5 864.5,-298.5 992.5,-298.5 992.5,-268.5 864.5,-268.5"/>
<text text-anchor="start" x="872.5" y="-286.5" font-family="Helvetica,sans-Serif" font-size="10.00">include/mini/integrator</text>
<text text-anchor="middle" x="928.5" y="-275.5" font-family="Helvetica,sans-Serif" font-size="10.00">/cell.hpp</text>
</a>
</g>
</g>
<!-- Node3&#45;&gt;Node16 -->
<g id="edge16" class="edge">
<title>Node3&#45;&gt;Node16</title>
<path fill="none" stroke="midnightblue" d="M822.01,-331.27C845.58,-320.92 874.64,-308.15 896.45,-298.58"/>
<polygon fill="midnightblue" stroke="midnightblue" points="820.36,-328.17 812.61,-335.4 823.18,-334.58 820.36,-328.17"/>
</g>
<!-- Node20 -->
<g id="node20" class="node">
<title>Node20</title>
<g id="a_node20"><a xlink:href="part_8hpp.html" target="_top" xlink:title=" ">
<polygon fill="white" stroke="black" points="1017.5,-207 1017.5,-226 1167.5,-226 1167.5,-207 1017.5,-207"/>
<text text-anchor="middle" x="1092.5" y="-214" font-family="Helvetica,sans-Serif" font-size="10.00">include/mini/mesh/part.hpp</text>
</a>
</g>
</g>
<!-- Node3&#45;&gt;Node20 -->
<g id="edge26" class="edge">
<title>Node3&#45;&gt;Node20</title>
<path fill="none" stroke="midnightblue" d="M856.25,-334.14C914.94,-321.92 988.41,-305.78 1001.5,-299 1011.01,-294.08 1062.17,-246.18 1083.33,-226.19"/>
<polygon fill="midnightblue" stroke="midnightblue" points="855.31,-330.76 846.23,-336.22 856.73,-337.62 855.31,-330.76"/>
</g>
<!-- Node5 -->
<g id="node5" class="node">
<title>Node5</title>
<g id="a_node5"><a xlink:href="integrator_2hexahedron_8hpp.html" target="_top" xlink:title=" ">
<polygon fill="white" stroke="black" points="418.5,-201.5 418.5,-231.5 546.5,-231.5 546.5,-201.5 418.5,-201.5"/>
<text text-anchor="start" x="426.5" y="-219.5" font-family="Helvetica,sans-Serif" font-size="10.00">include/mini/integrator</text>
<text text-anchor="middle" x="482.5" y="-208.5" font-family="Helvetica,sans-Serif" font-size="10.00">/hexahedron.hpp</text>
</a>
</g>
</g>
<!-- Node4&#45;&gt;Node5 -->
<g id="edge4" class="edge">
<title>Node4&#45;&gt;Node5</title>
<path fill="none" stroke="midnightblue" d="M482.5,-258.11C482.5,-249.15 482.5,-239.32 482.5,-231.58"/>
<polygon fill="midnightblue" stroke="midnightblue" points="479,-258.4 482.5,-268.4 486,-258.4 479,-258.4"/>
</g>
<!-- Node5&#45;&gt;Node6 -->
<g id="edge5" class="edge">
<title>Node5&#45;&gt;Node6</title>
<path fill="none" stroke="midnightblue" d="M458.38,-194.6C447.06,-184.78 433.86,-173.34 423.74,-164.58"/>
<polygon fill="midnightblue" stroke="midnightblue" points="456.38,-197.49 466.23,-201.4 460.96,-192.2 456.38,-197.49"/>
</g>
<!-- Node7 -->
<g id="node7" class="node">
<title>Node7</title>
<g id="a_node7"><a xlink:href="spatial_2dg_2lobatto_8hpp.html" target="_top" xlink:title=" ">
<polygon fill="white" stroke="black" points="90,-67.5 90,-97.5 203,-97.5 203,-67.5 90,-67.5"/>
<text text-anchor="start" x="98" y="-85.5" font-family="Helvetica,sans-Serif" font-size="10.00">include/mini/spatial</text>
<text text-anchor="middle" x="146.5" y="-74.5" font-family="Helvetica,sans-Serif" font-size="10.00">/dg/lobatto.hpp</text>
</a>
</g>
</g>
<!-- Node6&#45;&gt;Node7 -->
<g id="edge6" class="edge">
<title>Node6&#45;&gt;Node7</title>
<path fill="none" stroke="midnightblue" d="M341.45,-132.05C298.78,-121.43 243.84,-107.74 203.16,-97.61"/>
<polygon fill="midnightblue" stroke="midnightblue" points="340.64,-135.46 351.19,-134.48 342.33,-128.66 340.64,-135.46"/>
</g>
<!-- Node8 -->
<g id="node8" class="node">
<title>Node8</title>
<g id="a_node8"><a xlink:href="fr_2general_8hpp.html" target="_top" xlink:title=" ">
<polygon fill="white" stroke="black" points="266,-67.5 266,-97.5 379,-97.5 379,-67.5 266,-67.5"/>
<text text-anchor="start" x="274" y="-85.5" font-family="Helvetica,sans-Serif" font-size="10.00">include/mini/spatial</text>
<text text-anchor="middle" x="322.5" y="-74.5" font-family="Helvetica,sans-Serif" font-size="10.00">/fr/general.hpp</text>
</a>
</g>
</g>
<!-- Node6&#45;&gt;Node8 -->
<g id="edge7" class="edge">
<title>Node6&#45;&gt;Node8</title>
<path fill="none" stroke="midnightblue" d="M380.91,-128.17C367.91,-118.23 352.6,-106.51 340.91,-97.58"/>
<polygon fill="midnightblue" stroke="midnightblue" points="378.99,-131.1 389.06,-134.4 383.24,-125.54 378.99,-131.1"/>
</g>
<!-- Node9 -->
<g id="node9" class="node">
<title>Node9</title>
<g id="a_node9"><a xlink:href="spatial_2fr_2lobatto_8hpp.html" target="_top" xlink:title=" ">
<polygon fill="white" stroke="black" points="308,-0.5 308,-30.5 421,-30.5 421,-0.5 308,-0.5"/>
<text text-anchor="start" x="316" y="-18.5" font-family="Helvetica,sans-Serif" font-size="10.00">include/mini/spatial</text>
<text text-anchor="middle" x="364.5" y="-7.5" font-family="Helvetica,sans-Serif" font-size="10.00">/fr/lobatto.hpp</text>
</a>
</g>
</g>
<!-- Node6&#45;&gt;Node9 -->
<g id="edge9" class="edge">
<title>Node6&#45;&gt;Node9</title>
<path fill="none" stroke="midnightblue" d="M402.86,-124.56C399.37,-108.13 394.08,-85.97 387.5,-67 383.14,-54.44 376.8,-40.75 371.88,-30.79"/>
<polygon fill="midnightblue" stroke="midnightblue" points="399.44,-125.33 404.88,-134.43 406.3,-123.93 399.44,-125.33"/>
</g>
<!-- Node8&#45;&gt;Node9 -->
<g id="edge8" class="edge">
<title>Node8&#45;&gt;Node9</title>
<path fill="none" stroke="midnightblue" d="M337.12,-58.87C343.2,-49.46 350.07,-38.83 355.4,-30.58"/>
<polygon fill="midnightblue" stroke="midnightblue" points="334.1,-57.1 331.61,-67.4 339.98,-60.9 334.1,-57.1"/>
</g>
<!-- Node11 -->
<g id="node11" class="node">
<title>Node11</title>
<g id="a_node11"><a xlink:href="integrator_2pyramid_8hpp.html" target="_top" xlink:title=" ">
<polygon fill="white" stroke="black" points="568.5,-201.5 568.5,-231.5 696.5,-231.5 696.5,-201.5 568.5,-201.5"/>
<text text-anchor="start" x="576.5" y="-219.5" font-family="Helvetica,sans-Serif" font-size="10.00">include/mini/integrator</text>
<text text-anchor="middle" x="632.5" y="-208.5" font-family="Helvetica,sans-Serif" font-size="10.00">/pyramid.hpp</text>
</a>
</g>
</g>
<!-- Node10&#45;&gt;Node11 -->
<g id="edge11" class="edge">
<title>Node10&#45;&gt;Node11</title>
<path fill="none" stroke="midnightblue" d="M631.88,-258.11C632.01,-249.15 632.16,-239.32 632.28,-231.58"/>
<polygon fill="midnightblue" stroke="midnightblue" points="628.37,-258.34 631.72,-268.4 635.37,-258.45 628.37,-258.34"/>
</g>
<!-- Node13 -->
<g id="node13" class="node">
<title>Node13</title>
<g id="a_node13"><a xlink:href="integrator_2tetrahedron_8hpp.html" target="_top" xlink:title=" ">
<polygon fill="white" stroke="black" points="726.5,-201.5 726.5,-231.5 854.5,-231.5 854.5,-201.5 726.5,-201.5"/>
<text text-anchor="start" x="734.5" y="-219.5" font-family="Helvetica,sans-Serif" font-size="10.00">include/mini/integrator</text>
<text text-anchor="middle" x="790.5" y="-208.5" font-family="Helvetica,sans-Serif" font-size="10.00">/tetrahedron.hpp</text>
</a>
</g>
</g>
<!-- Node12&#45;&gt;Node13 -->
<g id="edge13" class="edge">
<title>Node12&#45;&gt;Node13</title>
<path fill="none" stroke="midnightblue" d="M784.21,-258.4C785.6,-249.37 787.13,-239.41 788.33,-231.58"/>
<polygon fill="midnightblue" stroke="midnightblue" points="780.73,-257.98 782.67,-268.4 787.65,-259.04 780.73,-257.98"/>
</g>
<!-- Node15 -->
<g id="node15" class="node">
<title>Node15</title>
<g id="a_node15"><a xlink:href="integrator_2wedge_8hpp.html" target="_top" xlink:title=" ">
<polygon fill="white" stroke="black" points="925.5,-134.5 925.5,-164.5 1053.5,-164.5 1053.5,-134.5 925.5,-134.5"/>
<text text-anchor="start" x="933.5" y="-152.5" font-family="Helvetica,sans-Serif" font-size="10.00">include/mini/integrator</text>
<text text-anchor="middle" x="989.5" y="-141.5" font-family="Helvetica,sans-Serif" font-size="10.00">/wedge.hpp</text>
</a>
</g>
</g>
<!-- Node14&#45;&gt;Node15 -->
<g id="edge15" class="edge">
<title>Node14&#45;&gt;Node15</title>
<path fill="none" stroke="midnightblue" d="M1053.49,-264.54C1036.78,-256.94 1020.09,-246.4 1008.5,-232 992.83,-212.53 989.64,-182.43 989.23,-164.78"/>
<polygon fill="midnightblue" stroke="midnightblue" points="1052.17,-267.79 1062.74,-268.47 1054.91,-261.34 1052.17,-267.79"/>
</g>
<!-- Node16&#45;&gt;Node5 -->
<g id="edge20" class="edge">
<title>Node16&#45;&gt;Node5</title>
<path fill="none" stroke="midnightblue" d="M854.8,-268.05C854.7,-268.03 854.6,-268.02 854.5,-268 724.05,-247.29 690.03,-252.23 559.5,-232 555.33,-231.35 551.05,-230.65 546.73,-229.92"/>
<polygon fill="midnightblue" stroke="midnightblue" points="853.94,-271.45 864.37,-269.64 855.09,-264.55 853.94,-271.45"/>
</g>
<!-- Node16&#45;&gt;Node6 -->
<g id="edge25" class="edge">
<title>Node16&#45;&gt;Node6</title>
<path fill="none" stroke="midnightblue" d="M916.83,-259.43C905.85,-240.32 887.5,-214.23 863.5,-201 798.28,-165.04 585.03,-154.67 474.81,-151.69"/>
<polygon fill="midnightblue" stroke="midnightblue" points="913.89,-261.34 921.76,-268.43 920.03,-257.97 913.89,-261.34"/>
</g>
<!-- Node16&#45;&gt;Node11 -->
<g id="edge21" class="edge">
<title>Node16&#45;&gt;Node11</title>
<path fill="none" stroke="midnightblue" d="M854.8,-266.32C806.15,-255.63 743.04,-241.77 696.5,-231.55"/>
<polygon fill="midnightblue" stroke="midnightblue" points="854.12,-269.75 864.64,-268.48 855.62,-262.91 854.12,-269.75"/>
</g>
<!-- Node16&#45;&gt;Node13 -->
<g id="edge22" class="edge">
<title>Node16&#45;&gt;Node13</title>
<path fill="none" stroke="midnightblue" d="M889.5,-264.13C867.57,-253.8 840.63,-241.11 820.39,-231.58"/>
<polygon fill="midnightblue" stroke="midnightblue" points="888.02,-267.3 898.56,-268.4 891,-260.97 888.02,-267.3"/>
</g>
<!-- Node16&#45;&gt;Node15 -->
<g id="edge23" class="edge">
<title>Node16&#45;&gt;Node15</title>
<path fill="none" stroke="midnightblue" d="M939.31,-259.12C951.98,-231.68 972.59,-187.09 983.02,-164.52"/>
<polygon fill="midnightblue" stroke="midnightblue" points="936.05,-257.83 935.03,-268.37 942.4,-260.76 936.05,-257.83"/>
</g>
<!-- Node17 -->
<g id="node17" class="node">
<title>Node17</title>
<g id="a_node17"><a xlink:href="basis_2linear_8hpp.html" target="_top" xlink:title=" ">
<polygon fill="white" stroke="black" points="1186,-201.5 1186,-231.5 1291,-231.5 1291,-201.5 1186,-201.5"/>
<text text-anchor="start" x="1194" y="-219.5" font-family="Helvetica,sans-Serif" font-size="10.00">include/mini/basis</text>
<text text-anchor="middle" x="1238.5" y="-208.5" font-family="Helvetica,sans-Serif" font-size="10.00">/linear.hpp</text>
</a>
</g>
</g>
<!-- Node16&#45;&gt;Node17 -->
<g id="edge17" class="edge">
<title>Node16&#45;&gt;Node17</title>
<path fill="none" stroke="midnightblue" d="M1002.53,-268.01C1051.89,-258.2 1118.17,-244.76 1176.5,-232 1179.52,-231.34 1182.63,-230.65 1185.76,-229.94"/>
<polygon fill="midnightblue" stroke="midnightblue" points="1001.71,-264.6 992.58,-269.98 1003.07,-271.47 1001.71,-264.6"/>
</g>
<!-- Node16&#45;&gt;Node20 -->
<g id="edge24" class="edge">
<title>Node16&#45;&gt;Node20</title>
<path fill="none" stroke="midnightblue" d="M973.61,-264.62C1005.35,-252.04 1046.41,-235.77 1071.04,-226.01"/>
<polygon fill="midnightblue" stroke="midnightblue" points="972.09,-261.46 964.09,-268.4 974.67,-267.97 972.09,-261.46"/>
</g>
<!-- Node18 -->
<g id="node18" class="node">
<title>Node18</title>
<g id="a_node18"><a xlink:href="projection_8hpp.html" target="_top" xlink:title=" ">
<polygon fill="white" stroke="black" points="1171.5,-134.5 1171.5,-164.5 1305.5,-164.5 1305.5,-134.5 1171.5,-134.5"/>
<text text-anchor="start" x="1179.5" y="-152.5" font-family="Helvetica,sans-Serif" font-size="10.00">include/mini/polynomial</text>
<text text-anchor="middle" x="1238.5" y="-141.5" font-family="Helvetica,sans-Serif" font-size="10.00">/projection.hpp</text>
</a>
</g>
</g>
<!-- Node17&#45;&gt;Node18 -->
<g id="edge18" class="edge">
<title>Node17&#45;&gt;Node18</title>
<path fill="none" stroke="midnightblue" d="M1238.5,-191.11C1238.5,-182.15 1238.5,-172.32 1238.5,-164.58"/>
<polygon fill="midnightblue" stroke="midnightblue" points="1235,-191.4 1238.5,-201.4 1242,-191.4 1235,-191.4"/>
</g>
<!-- Node19 -->
<g id="node19" class="node">
<title>Node19</title>
<g id="a_node19"><a xlink:href="extrapolation_8hpp.html" target="_top" xlink:title=" ">
<polygon fill="white" stroke="black" points="1171.5,-67.5 1171.5,-97.5 1305.5,-97.5 1305.5,-67.5 1171.5,-67.5"/>
<text text-anchor="start" x="1179.5" y="-85.5" font-family="Helvetica,sans-Serif" font-size="10.00">include/mini/polynomial</text>
<text text-anchor="middle" x="1238.5" y="-74.5" font-family="Helvetica,sans-Serif" font-size="10.00">/extrapolation.hpp</text>
</a>
</g>
</g>
<!-- Node18&#45;&gt;Node19 -->
<g id="edge19" class="edge">
<title>Node18&#45;&gt;Node19</title>
<path fill="none" stroke="midnightblue" d="M1238.5,-124.11C1238.5,-115.15 1238.5,-105.32 1238.5,-97.58"/>
<polygon fill="midnightblue" stroke="midnightblue" points="1235,-124.4 1238.5,-134.4 1242,-124.4 1235,-124.4"/>
</g>
<!-- Node21&#45;&gt;Node20 -->
<g id="edge39" class="edge">
<title>Node21&#45;&gt;Node20</title>
<path fill="none" stroke="midnightblue" d="M1271.91,-329.69C1258.16,-320.59 1241.84,-309.5 1227.5,-299 1209.64,-285.92 1207.05,-280.1 1188.5,-268 1162.79,-251.23 1130.9,-235.34 1111.12,-226.01"/>
<polygon fill="midnightblue" stroke="midnightblue" points="1270.25,-332.79 1280.53,-335.36 1274.1,-326.94 1270.25,-332.79"/>
</g>
<!-- Node21&#45;&gt;Node22 -->
<g id="edge28" class="edge">
<title>Node21&#45;&gt;Node22</title>
<path fill="none" stroke="midnightblue" d="M1377.94,-334.82C1435.96,-323.53 1515.33,-308.08 1570.78,-297.29"/>
<polygon fill="midnightblue" stroke="midnightblue" points="1377.24,-331.39 1368.09,-336.74 1378.57,-338.26 1377.24,-331.39"/>
</g>
<!-- Node23 -->
<g id="node23" class="node">
<title>Node23</title>
<g id="a_node23"><a xlink:href="integrator_2quadrangle_8hpp.html" target="_top" xlink:title=" ">
<polygon fill="white" stroke="black" points="1478.5,-201.5 1478.5,-231.5 1606.5,-231.5 1606.5,-201.5 1478.5,-201.5"/>
<text text-anchor="start" x="1486.5" y="-219.5" font-family="Helvetica,sans-Serif" font-size="10.00">include/mini/integrator</text>
<text text-anchor="middle" x="1542.5" y="-208.5" font-family="Helvetica,sans-Serif" font-size="10.00">/quadrangle.hpp</text>
</a>
</g>
</g>
<!-- Node21&#45;&gt;Node23 -->
<g id="edge38" class="edge">
<title>Node21&#45;&gt;Node23</title>
<path fill="none" stroke="midnightblue" d="M1378.18,-334.19C1440.04,-321.36 1518.16,-304.32 1523.5,-299 1541.41,-281.16 1543.75,-249.92 1543.41,-231.74"/>
<polygon fill="midnightblue" stroke="midnightblue" points="1377.1,-330.84 1368.02,-336.29 1378.52,-337.69 1377.1,-330.84"/>
</g>
<!-- Node21&#45;&gt;Node24 -->
<g id="edge30" class="edge">
<title>Node21&#45;&gt;Node24</title>
<path fill="none" stroke="midnightblue" d="M1302.5,-325.11C1302.5,-316.15 1302.5,-306.32 1302.5,-298.58"/>
<polygon fill="midnightblue" stroke="midnightblue" points="1299,-325.4 1302.5,-335.4 1306,-325.4 1299,-325.4"/>
</g>
<!-- Node26 -->
<g id="node26" class="node">
<title>Node26</title>
<g id="a_node26"><a xlink:href="integrator_2face_8hpp.html" target="_top" xlink:title=" ">
<polygon fill="white" stroke="black" points="1386.5,-268.5 1386.5,-298.5 1514.5,-298.5 1514.5,-268.5 1386.5,-268.5"/>
<text text-anchor="start" x="1394.5" y="-286.5" font-family="Helvetica,sans-Serif" font-size="10.00">include/mini/integrator</text>
<text text-anchor="middle" x="1450.5" y="-275.5" font-family="Helvetica,sans-Serif" font-size="10.00">/face.hpp</text>
</a>
</g>
</g>
<!-- Node21&#45;&gt;Node26 -->
<g id="edge33" class="edge">
<title>Node21&#45;&gt;Node26</title>
<path fill="none" stroke="midnightblue" d="M1344.01,-331.27C1367.58,-320.92 1396.64,-308.15 1418.45,-298.58"/>
<polygon fill="midnightblue" stroke="midnightblue" points="1342.36,-328.17 1334.61,-335.4 1345.18,-334.58 1342.36,-328.17"/>
</g>
<!-- Node22&#45;&gt;Node23 -->
<g id="edge29" class="edge">
<title>Node22&#45;&gt;Node23</title>
<path fill="none" stroke="midnightblue" d="M1607.51,-262.45C1593.05,-252.45 1575.91,-240.6 1562.86,-231.58"/>
<polygon fill="midnightblue" stroke="midnightblue" points="1605.89,-265.59 1616.1,-268.4 1609.87,-259.83 1605.89,-265.59"/>
</g>
<!-- Node25 -->
<g id="node25" class="node">
<title>Node25</title>
<g id="a_node25"><a xlink:href="integrator_2triangle_8hpp.html" target="_top" xlink:title=" ">
<polygon fill="white" stroke="black" points="1309.5,-201.5 1309.5,-231.5 1437.5,-231.5 1437.5,-201.5 1309.5,-201.5"/>
<text text-anchor="start" x="1317.5" y="-219.5" font-family="Helvetica,sans-Serif" font-size="10.00">include/mini/integrator</text>
<text text-anchor="middle" x="1373.5" y="-208.5" font-family="Helvetica,sans-Serif" font-size="10.00">/triangle.hpp</text>
</a>
</g>
</g>
<!-- Node24&#45;&gt;Node25 -->
<g id="edge31" class="edge">
<title>Node24&#45;&gt;Node25</title>
<path fill="none" stroke="midnightblue" d="M1325.33,-261.6C1336.05,-251.78 1348.55,-240.34 1358.12,-231.58"/>
<polygon fill="midnightblue" stroke="midnightblue" points="1322.92,-259.06 1317.91,-268.4 1327.65,-264.22 1322.92,-259.06"/>
</g>
<!-- Node25&#45;&gt;Node15 -->
<g id="edge32" class="edge">
<title>Node25&#45;&gt;Node15</title>
<path fill="none" stroke="midnightblue" d="M1299.8,-201.05C1299.7,-201.04 1299.6,-201.02 1299.5,-201 1214.7,-185.79 1116.49,-170.12 1053.72,-160.35"/>
<polygon fill="midnightblue" stroke="midnightblue" points="1298.88,-204.44 1309.35,-202.8 1300.14,-197.56 1298.88,-204.44"/>
</g>
<!-- Node26&#45;&gt;Node17 -->
<g id="edge34" class="edge">
<title>Node26&#45;&gt;Node17</title>
<path fill="none" stroke="midnightblue" d="M1394.87,-265.44C1360.51,-254.91 1316.94,-241.55 1284.52,-231.61"/>
<polygon fill="midnightblue" stroke="midnightblue" points="1394.17,-268.89 1404.76,-268.48 1396.23,-262.2 1394.17,-268.89"/>
</g>
<!-- Node26&#45;&gt;Node20 -->
<g id="edge37" class="edge">
<title>Node26&#45;&gt;Node20</title>
<path fill="none" stroke="midnightblue" d="M1376.8,-268.06C1376.7,-268.04 1376.6,-268.02 1376.5,-268 1294.41,-252.66 1198.77,-235.88 1142.06,-226.04"/>
<polygon fill="midnightblue" stroke="midnightblue" points="1375.86,-271.44 1386.34,-269.86 1377.16,-264.56 1375.86,-271.44"/>
</g>
<!-- Node26&#45;&gt;Node23 -->
<g id="edge35" class="edge">
<title>Node26&#45;&gt;Node23</title>
<path fill="none" stroke="midnightblue" d="M1478.88,-262.45C1493.03,-252.45 1509.81,-240.6 1522.58,-231.58"/>
<polygon fill="midnightblue" stroke="midnightblue" points="1476.61,-259.77 1470.46,-268.4 1480.65,-265.48 1476.61,-259.77"/>
</g>
<!-- Node26&#45;&gt;Node25 -->
<g id="edge36" class="edge">
<title>Node26&#45;&gt;Node25</title>
<path fill="none" stroke="midnightblue" d="M1426.08,-261.88C1414.38,-252.01 1400.66,-240.43 1390.18,-231.58"/>
<polygon fill="midnightblue" stroke="midnightblue" points="1423.89,-264.62 1433.79,-268.4 1428.41,-259.27 1423.89,-264.62"/>
</g>
<!-- Node27&#45;&gt;Node16 -->
<g id="edge47" class="edge">
<title>Node27&#45;&gt;Node16</title>
<path fill="none" stroke="midnightblue" d="M980.39,-328.88C968.84,-319.01 955.31,-307.43 944.96,-298.58"/>
<polygon fill="midnightblue" stroke="midnightblue" points="978.13,-331.56 988.01,-335.4 982.68,-326.24 978.13,-331.56"/>
</g>
<!-- Node27&#45;&gt;Node26 -->
<g id="edge48" class="edge">
<title>Node27&#45;&gt;Node26</title>
<path fill="none" stroke="midnightblue" d="M1078.84,-340.71C1154.07,-331.51 1273.64,-316.04 1376.5,-299 1379.73,-298.46 1383.03,-297.9 1386.37,-297.31"/>
<polygon fill="midnightblue" stroke="midnightblue" points="1078.02,-337.28 1068.52,-341.97 1078.87,-344.23 1078.02,-337.28"/>
</g>
<!-- Node29 -->
<g id="node29" class="node">
<title>Node29</title>
<g id="a_node29"><a xlink:href="viscosity_8hpp.html" target="_top" xlink:title=" ">
<polygon fill="white" stroke="black" points="379,-335.5 379,-365.5 492,-365.5 492,-335.5 379,-335.5"/>
<text text-anchor="start" x="387" y="-353.5" font-family="Helvetica,sans-Serif" font-size="10.00">include/mini/spatial</text>
<text text-anchor="middle" x="435.5" y="-342.5" font-family="Helvetica,sans-Serif" font-size="10.00">/viscosity.hpp</text>
</a>
</g>
</g>
<!-- Node28&#45;&gt;Node29 -->
<g id="edge53" class="edge">
<title>Node28&#45;&gt;Node29</title>
<path fill="none" stroke="midnightblue" d="M554.54,-398.68C528.24,-388.26 495.5,-375.28 471.02,-365.58"/>
<polygon fill="midnightblue" stroke="midnightblue" points="553.33,-401.97 563.91,-402.4 555.91,-395.46 553.33,-401.97"/>
</g>
<!-- Node30&#45;&gt;Node29 -->
<g id="edge55" class="edge">
<title>Node30&#45;&gt;Node29</title>
<path fill="none" stroke="midnightblue" d="M442.42,-392.4C440.89,-383.37 439.21,-373.41 437.88,-365.58"/>
<polygon fill="midnightblue" stroke="midnightblue" points="438.99,-393.12 444.11,-402.4 445.9,-391.95 438.99,-393.12"/>
</g>
<!-- Node34 -->
<g id="node34" class="node">
<title>Node34</title>
<g id="a_node34"><a xlink:href="rotated_2burgers_8hpp.html" target="_top" xlink:title=" ">
<polygon fill="white" stroke="black" points="1424.5,-335.5 1424.5,-365.5 1544.5,-365.5 1544.5,-335.5 1424.5,-335.5"/>
<text text-anchor="start" x="1432.5" y="-353.5" font-family="Helvetica,sans-Serif" font-size="10.00">include/mini/riemann</text>
<text text-anchor="middle" x="1484.5" y="-342.5" font-family="Helvetica,sans-Serif" font-size="10.00">/rotated/burgers.hpp</text>
</a>
</g>
</g>
<!-- Node33&#45;&gt;Node34 -->
<g id="edge59" class="edge">
<title>Node33&#45;&gt;Node34</title>
<path fill="none" stroke="midnightblue" d="M1583.5,-398.13C1561.57,-387.8 1534.63,-375.11 1514.39,-365.58"/>
<polygon fill="midnightblue" stroke="midnightblue" points="1582.02,-401.3 1592.56,-402.4 1585,-394.97 1582.02,-401.3"/>
</g>
<!-- Node35 -->
<g id="node35" class="node">
<title>Node35</title>
<g id="a_node35"><a xlink:href="rotated_2double_8hpp.html" target="_top" xlink:title=" ">
<polygon fill="white" stroke="black" points="1562.5,-335.5 1562.5,-365.5 1682.5,-365.5 1682.5,-335.5 1562.5,-335.5"/>
<text text-anchor="start" x="1570.5" y="-353.5" font-family="Helvetica,sans-Serif" font-size="10.00">include/mini/riemann</text>
<text text-anchor="middle" x="1622.5" y="-342.5" font-family="Helvetica,sans-Serif" font-size="10.00">/rotated/double.hpp</text>
</a>
</g>
</g>
<!-- Node33&#45;&gt;Node35 -->
<g id="edge60" class="edge">
<title>Node33&#45;&gt;Node35</title>
<path fill="none" stroke="midnightblue" d="M1622.5,-392.11C1622.5,-383.15 1622.5,-373.32 1622.5,-365.58"/>
<polygon fill="midnightblue" stroke="midnightblue" points="1619,-392.4 1622.5,-402.4 1626,-392.4 1619,-392.4"/>
</g>
<!-- Node36 -->
<g id="node36" class="node">
<title>Node36</title>
<g id="a_node36"><a xlink:href="rotated_2multiple_8hpp.html" target="_top" xlink:title=" ">
<polygon fill="white" stroke="black" points="1700.5,-335.5 1700.5,-365.5 1820.5,-365.5 1820.5,-335.5 1700.5,-335.5"/>
<text text-anchor="start" x="1708.5" y="-353.5" font-family="Helvetica,sans-Serif" font-size="10.00">include/mini/riemann</text>
<text text-anchor="middle" x="1760.5" y="-342.5" font-family="Helvetica,sans-Serif" font-size="10.00">/rotated/multiple.hpp</text>
</a>
</g>
</g>
<!-- Node33&#45;&gt;Node36 -->
<g id="edge61" class="edge">
<title>Node33&#45;&gt;Node36</title>
<path fill="none" stroke="midnightblue" d="M1661.5,-398.13C1683.43,-387.8 1710.37,-375.11 1730.61,-365.58"/>
<polygon fill="midnightblue" stroke="midnightblue" points="1660,-394.97 1652.44,-402.4 1662.98,-401.3 1660,-394.97"/>
</g>
<!-- Node37 -->
<g id="node37" class="node">
<title>Node37</title>
<g id="a_node37"><a xlink:href="rotated_2single_8hpp.html" target="_top" xlink:title=" ">
<polygon fill="white" stroke="black" points="1838.5,-335.5 1838.5,-365.5 1958.5,-365.5 1958.5,-335.5 1838.5,-335.5"/>
<text text-anchor="start" x="1846.5" y="-353.5" font-family="Helvetica,sans-Serif" font-size="10.00">include/mini/riemann</text>
<text text-anchor="middle" x="1898.5" y="-342.5" font-family="Helvetica,sans-Serif" font-size="10.00">/rotated/single.hpp</text>
</a>
</g>
</g>
<!-- Node33&#45;&gt;Node37 -->
<g id="edge62" class="edge">
<title>Node33&#45;&gt;Node37</title>
<path fill="none" stroke="midnightblue" d="M1692.06,-400.12C1737.22,-389.48 1795.48,-375.76 1838.58,-365.61"/>
<polygon fill="midnightblue" stroke="midnightblue" points="1690.98,-396.78 1682.05,-402.48 1692.58,-403.59 1690.98,-396.78"/>
</g>
<!-- Node38&#45;&gt;Node8 -->
<g id="edge66" class="edge">
<title>Node38&#45;&gt;Node8</title>
<path fill="none" stroke="midnightblue" d="M270.46,-395.02C278.51,-386.67 286.86,-376.58 292.5,-366 310.04,-333.09 312.5,-321.8 312.5,-284.5 312.5,-284.5 312.5,-284.5 312.5,-215.5 312.5,-172.52 317.84,-121.9 320.71,-97.73"/>
<polygon fill="midnightblue" stroke="midnightblue" points="267.89,-392.64 263.24,-402.16 272.81,-397.61 267.89,-392.64"/>
</g>
<!-- Node38&#45;&gt;Node29 -->
<g id="edge67" class="edge">
<title>Node38&#45;&gt;Node29</title>
<path fill="none" stroke="midnightblue" d="M297.12,-399.09C327.63,-388.6 365.98,-375.41 394.57,-365.58"/>
<polygon fill="midnightblue" stroke="midnightblue" points="295.83,-395.83 287.51,-402.4 298.1,-402.45 295.83,-395.83"/>
</g>
<!-- Node39 -->
<g id="node39" class="node">
<title>Node39</title>
<g id="a_node39"><a xlink:href="dg_2general_8hpp.html" target="_top" xlink:title=" ">
<polygon fill="white" stroke="black" points="0,-134.5 0,-164.5 113,-164.5 113,-134.5 0,-134.5"/>
<text text-anchor="start" x="8" y="-152.5" font-family="Helvetica,sans-Serif" font-size="10.00">include/mini/spatial</text>
<text text-anchor="middle" x="56.5" y="-141.5" font-family="Helvetica,sans-Serif" font-size="10.00">/dg/general.hpp</text>
</a>
</g>
</g>
<!-- Node38&#45;&gt;Node39 -->
<g id="edge64" class="edge">
<title>Node38&#45;&gt;Node39</title>
<path fill="none" stroke="midnightblue" d="M179.99,-409.94C123.58,-402.83 48.96,-389.27 30.5,-366 -17.86,-305.03 28.72,-202.2 48.54,-164.72"/>
<polygon fill="midnightblue" stroke="midnightblue" points="179.59,-413.41 189.94,-411.15 180.44,-406.46 179.59,-413.41"/>
</g>
<!-- Node40 -->
<g id="node40" class="node">
<title>Node40</title>
<g id="a_node40"><a xlink:href="with__limiter_8hpp.html" target="_top" xlink:title=" ">
<polygon fill="white" stroke="black" points="40,-335.5 40,-365.5 153,-365.5 153,-335.5 40,-335.5"/>
<text text-anchor="start" x="48" y="-353.5" font-family="Helvetica,sans-Serif" font-size="10.00">include/mini/spatial</text>
<text text-anchor="middle" x="96.5" y="-342.5" font-family="Helvetica,sans-Serif" font-size="10.00">/with_limiter.hpp</text>
</a>
</g>
</g>
<!-- Node38&#45;&gt;Node40 -->
<g id="edge68" class="edge">
<title>Node38&#45;&gt;Node40</title>
<path fill="none" stroke="midnightblue" d="M204.75,-398.41C180.8,-388.03 151.18,-375.2 128.98,-365.58"/>
<polygon fill="midnightblue" stroke="midnightblue" points="203.39,-401.63 213.95,-402.4 206.17,-395.21 203.39,-401.63"/>
</g>
<!-- Node41 -->
<g id="node41" class="node">
<title>Node41</title>
<g id="a_node41"><a xlink:href="with__viscosity_8hpp.html" target="_top" xlink:title=" ">
<polygon fill="white" stroke="black" points="171,-335.5 171,-365.5 284,-365.5 284,-335.5 171,-335.5"/>
<text text-anchor="start" x="179" y="-353.5" font-family="Helvetica,sans-Serif" font-size="10.00">include/mini/spatial</text>
<text text-anchor="middle" x="227.5" y="-342.5" font-family="Helvetica,sans-Serif" font-size="10.00">/with_viscosity.hpp</text>
</a>
</g>
</g>
<!-- Node38&#45;&gt;Node41 -->
<g id="edge69" class="edge">
<title>Node38&#45;&gt;Node41</title>
<path fill="none" stroke="midnightblue" d="M239.54,-392.7C236.88,-383.59 233.93,-373.49 231.61,-365.58"/>
<polygon fill="midnightblue" stroke="midnightblue" points="236.21,-393.78 242.38,-402.4 242.93,-391.82 236.21,-393.78"/>
</g>
<!-- Node39&#45;&gt;Node7 -->
<g id="edge65" class="edge">
<title>Node39&#45;&gt;Node7</title>
<path fill="none" stroke="midnightblue" d="M84.26,-128.45C98.11,-118.45 114.52,-106.6 127.01,-97.58"/>
<polygon fill="midnightblue" stroke="midnightblue" points="82.09,-125.7 76.03,-134.4 86.18,-131.38 82.09,-125.7"/>
</g>
</g>
</svg>
