<?xml version="1.0" encoding="UTF-8" standalone="no"?>
<!DOCTYPE svg PUBLIC "-//W3C//DTD SVG 1.1//EN"
 "http://www.w3.org/Graphics/SVG/1.1/DTD/svg11.dtd">
<!-- Generated by graphviz version 2.43.0 (0)
 -->
<!-- Title: Graphical Class Hierarchy Pages: 1 -->
<svg width="263pt" height="259pt"
 viewBox="0.00 0.00 263.00 259.00" xmlns="http://www.w3.org/2000/svg" xmlns:xlink="http://www.w3.org/1999/xlink">
<g id="graph0" class="graph" transform="scale(1 1) rotate(0) translate(4 255)">
<title>Graphical Class Hierarchy</title>
<polygon fill="white" stroke="transparent" points="-4,4 -4,-255 259,-255 259,4 -4,4"/>
<!-- Node300 -->
<g id="node1" class="node">
<title>Node300</title>
<g id="a_node1"><a xlink:title=" ">
<polygon fill="white" stroke="#bfbfbf" points="0,-116 0,-135 68,-135 68,-116 0,-116"/>
<text text-anchor="middle" x="34" y="-123" font-family="Helvetica,sans-Serif" font-size="10.00">std::vector</text>
</a>
</g>
</g>
<!-- Node0 -->
<g id="node2" class="node">
<title>Node0</title>
<g id="a_node2"><a xlink:href="classmini_1_1mesh_1_1cgns_1_1ShiftedVector.html" target="_top" xlink:title=" ">
<polygon fill="white" stroke="black" points="109.5,-220.5 109.5,-250.5 249.5,-250.5 249.5,-220.5 109.5,-220.5"/>
<text text-anchor="start" x="117.5" y="-238.5" font-family="Helvetica,sans-Serif" font-size="10.00">mini::mesh::cgns::Shifted</text>
<text text-anchor="middle" x="179.5" y="-227.5" font-family="Helvetica,sans-Serif" font-size="10.00">Vector&lt; Scalar &gt;</text>
</a>
</g>
</g>
<!-- Node300&#45;&gt;Node0 -->
<g id="edge1" class="edge">
<title>Node300&#45;&gt;Node0</title>
<path fill="none" stroke="midnightblue" d="M45.54,-143.87C57.43,-163.07 78.48,-192.8 104,-210.5 109.49,-214.31 115.61,-217.58 121.92,-220.37"/>
<polygon fill="midnightblue" stroke="midnightblue" points="48.46,-141.94 40.32,-135.16 42.45,-145.53 48.46,-141.94"/>
</g>
<!-- Node302 -->
<g id="node3" class="node">
<title>Node302</title>
<g id="a_node3"><a xlink:href="classmini_1_1mesh_1_1cgns_1_1ShiftedVector.html" target="_top" xlink:title=" ">
<polygon fill="white" stroke="black" points="104,-160 104,-201 255,-201 255,-160 104,-160"/>
<text text-anchor="start" x="112" y="-189" font-family="Helvetica,sans-Serif" font-size="10.00">mini::mesh::cgns::Shifted</text>
<text text-anchor="start" x="112" y="-178" font-family="Helvetica,sans-Serif" font-size="10.00">Vector&lt; mini::mesh::cgns</text>
<text text-anchor="middle" x="179.5" y="-167" font-family="Helvetica,sans-Serif" font-size="10.00">::ShiftedVector&lt; Scalar &gt; &gt;</text>
</a>
</g>
</g>
<!-- Node300&#45;&gt;Node302 -->
<g id="edge2" class="edge">
<title>Node300&#45;&gt;Node302</title>
<path fill="none" stroke="midnightblue" d="M69.79,-138.83C86.35,-145.18 106.52,-152.91 124.97,-159.98"/>
<polygon fill="midnightblue" stroke="midnightblue" points="70.59,-135.39 60,-135.08 68.08,-141.93 70.59,-135.39"/>
</g>
<!-- Node303 -->
<g id="node4" class="node">
<title>Node303</title>
<g id="a_node4"><a xlink:href="classmini_1_1mesh_1_1cgns_1_1ShiftedVector.html" target="_top" xlink:title=" ">
<polygon fill="white" stroke="black" points="109.5,-110.5 109.5,-140.5 249.5,-140.5 249.5,-110.5 109.5,-110.5"/>
<text text-anchor="start" x="117.5" y="-128.5" font-family="Helvetica,sans-Serif" font-size="10.00">mini::mesh::cgns::Shifted</text>
<text text-anchor="middle" x="179.5" y="-117.5" font-family="Helvetica,sans-Serif" font-size="10.00">Vector&lt; Int &gt;</text>
</a>
</g>
</g>
<!-- Node300&#45;&gt;Node303 -->
<g id="edge3" class="edge">
<title>Node300&#45;&gt;Node303</title>
<path fill="none" stroke="midnightblue" d="M78.53,-125.5C88.31,-125.5 98.92,-125.5 109.46,-125.5"/>
<polygon fill="midnightblue" stroke="midnightblue" points="78.28,-122 68.28,-125.5 78.28,-129 78.28,-122"/>
</g>
<!-- Node304 -->
<g id="node5" class="node">
<title>Node304</title>
<g id="a_node5"><a xlink:href="classmini_1_1mesh_1_1cgns_1_1ShiftedVector.html" target="_top" xlink:title=" ">
<polygon fill="white" stroke="black" points="109.5,-50 109.5,-91 249.5,-91 249.5,-50 109.5,-50"/>
<text text-anchor="start" x="117.5" y="-79" font-family="Helvetica,sans-Serif" font-size="10.00">mini::mesh::cgns::Shifted</text>
<text text-anchor="start" x="117.5" y="-68" font-family="Helvetica,sans-Serif" font-size="10.00">Vector&lt; mini::mesh::part</text>
<text text-anchor="middle" x="179.5" y="-57" font-family="Helvetica,sans-Serif" font-size="10.00">::Cell &gt;</text>
</a>
</g>
</g>
<!-- Node300&#45;&gt;Node304 -->
<g id="edge4" class="edge">
<title>Node300&#45;&gt;Node304</title>
<path fill="none" stroke="midnightblue" d="M69.79,-112.17C86.35,-105.82 106.52,-98.09 124.97,-91.02"/>
<polygon fill="midnightblue" stroke="midnightblue" points="68.08,-109.07 60,-115.92 70.59,-115.61 68.08,-109.07"/>
</g>
<!-- Node305 -->
<g id="node6" class="node">
<title>Node305</title>
<g id="a_node6"><a xlink:href="classmini_1_1mesh_1_1cgns_1_1ShiftedVector.html" target="_top" xlink:title=" ">
<polygon fill="white" stroke="black" points="109.5,-0.5 109.5,-30.5 249.5,-30.5 249.5,-0.5 109.5,-0.5"/>
<text text-anchor="start" x="117.5" y="-18.5" font-family="Helvetica,sans-Serif" font-size="10.00">mini::mesh::cgns::Shifted</text>
<text text-anchor="middle" x="179.5" y="-7.5" font-family="Helvetica,sans-Serif" font-size="10.00">Vector&lt; T &gt;</text>
</a>
</g>
</g>
<!-- Node300&#45;&gt;Node305 -->
<g id="edge5" class="edge">
<title>Node300&#45;&gt;Node305</title>
<path fill="none" stroke="midnightblue" d="M45.54,-107.13C57.43,-87.93 78.48,-58.2 104,-40.5 109.49,-36.69 115.61,-33.42 121.92,-30.63"/>
<polygon fill="midnightblue" stroke="midnightblue" points="42.45,-105.47 40.32,-115.84 48.46,-109.06 42.45,-105.47"/>
</g>
</g>
</svg>
