<?xml version="1.0" encoding="UTF-8" standalone="no"?>
<!DOCTYPE svg PUBLIC "-//W3C//DTD SVG 1.1//EN"
 "http://www.w3.org/Graphics/SVG/1.1/DTD/svg11.dtd">
<!-- Generated by graphviz version 2.43.0 (0)
 -->
<!-- Title: Graphical Class Hierarchy Pages: 1 -->
<svg width="399pt" height="100pt"
 viewBox="0.00 0.00 399.00 99.50" xmlns="http://www.w3.org/2000/svg" xmlns:xlink="http://www.w3.org/1999/xlink">
<g id="graph0" class="graph" transform="scale(1 1) rotate(0) translate(4 95.5)">
<title>Graphical Class Hierarchy</title>
<polygon fill="white" stroke="transparent" points="-4,4 -4,-95.5 395,-95.5 395,4 -4,4"/>
<!-- Node0 -->
<g id="node1" class="node">
<title>Node0</title>
<g id="a_node1"><a xlink:href="classmini_1_1polynomial_1_1Expansion.html" target="_top" xlink:title=" ">
<polygon fill="white" stroke="black" points="0,-27.5 0,-68.5 196,-68.5 196,-27.5 0,-27.5"/>
<text text-anchor="start" x="8" y="-56.5" font-family="Helvetica,sans-Serif" font-size="10.00">mini::polynomial::Expansion</text>
<text text-anchor="start" x="8" y="-45.5" font-family="Helvetica,sans-Serif" font-size="10.00">&lt; kComponents, basis::OrthoNormal</text>
<text text-anchor="middle" x="98" y="-34.5" font-family="Helvetica,sans-Serif" font-size="10.00">&lt; S, kDimensions, kDegrees &gt; &gt;</text>
</a>
</g>
</g>
<!-- Node1 -->
<g id="node2" class="node">
<title>Node1</title>
<g id="a_node2"><a xlink:href="classmini_1_1polynomial_1_1Projection.html" target="_top" xlink:title=" ">
<polygon fill="white" stroke="black" points="234.5,-61 234.5,-91 388.5,-91 388.5,-61 234.5,-61"/>
<text text-anchor="start" x="242.5" y="-79" font-family="Helvetica,sans-Serif" font-size="10.00">mini::polynomial::Projection</text>
<text text-anchor="middle" x="311.5" y="-68" font-family="Helvetica,sans-Serif" font-size="10.00">&lt; Scalar, D, P, K &gt;</text>
</a>
</g>
</g>
<!-- Node0&#45;&gt;Node1 -->
<g id="edge1" class="edge">
<title>Node0&#45;&gt;Node1</title>
<path fill="none" stroke="midnightblue" d="M206.02,-62.17C215.55,-63.43 225.08,-64.69 234.28,-65.91"/>
<polygon fill="midnightblue" stroke="midnightblue" points="206.46,-58.7 196.08,-60.85 205.54,-65.63 206.46,-58.7"/>
</g>
<!-- Node2 -->
<g id="node3" class="node">
<title>Node2</title>
<g id="a_node3"><a xlink:href="classmini_1_1polynomial_1_1Projection.html" target="_top" xlink:title="A vector&#45;valued function projected onto an given basis::OrthoNormal basis.">
<polygon fill="white" stroke="black" points="232,-0.5 232,-41.5 391,-41.5 391,-0.5 232,-0.5"/>
<text text-anchor="start" x="240" y="-29.5" font-family="Helvetica,sans-Serif" font-size="10.00">mini::polynomial::Projection</text>
<text text-anchor="start" x="240" y="-18.5" font-family="Helvetica,sans-Serif" font-size="10.00">&lt; S, kDimensions, kDegrees,</text>
<text text-anchor="middle" x="311.5" y="-7.5" font-family="Helvetica,sans-Serif" font-size="10.00"> kComponents &gt;</text>
</a>
</g>
</g>
<!-- Node0&#45;&gt;Node2 -->
<g id="edge2" class="edge">
<title>Node0&#45;&gt;Node2</title>
<path fill="none" stroke="midnightblue" d="M206.18,-34.32C214.79,-33.22 223.39,-32.12 231.75,-31.05"/>
<polygon fill="midnightblue" stroke="midnightblue" points="205.56,-30.87 196.08,-35.61 206.45,-37.81 205.56,-30.87"/>
</g>
</g>
</svg>
