<?xml version="1.0" encoding="UTF-8" standalone="no"?>
<!DOCTYPE svg PUBLIC "-//W3C//DTD SVG 1.1//EN"
 "http://www.w3.org/Graphics/SVG/1.1/DTD/svg11.dtd">
<!-- Generated by graphviz version 2.43.0 (0)
 -->
<!-- Title: Graphical Class Hierarchy Pages: 1 -->
<svg width="567pt" height="284pt"
 viewBox="0.00 0.00 567.00 284.00" xmlns="http://www.w3.org/2000/svg" xmlns:xlink="http://www.w3.org/1999/xlink">
<g id="graph0" class="graph" transform="scale(1 1) rotate(0) translate(4 280)">
<title>Graphical Class Hierarchy</title>
<polygon fill="white" stroke="transparent" points="-4,4 -4,-280 563,-280 563,4 -4,4"/>
<!-- Node0 -->
<g id="node1" class="node">
<title>Node0</title>
<g id="a_node1"><a xlink:href="classmini_1_1integrator_1_1Element.html" target="_top" xlink:title="Abstract numerical integrators on elements.">
<polygon fill="white" stroke="black" points="0,-73.5 0,-103.5 176,-103.5 176,-73.5 0,-73.5"/>
<text text-anchor="start" x="8" y="-91.5" font-family="Helvetica,sans-Serif" font-size="10.00">mini::integrator::Element</text>
<text text-anchor="middle" x="88" y="-80.5" font-family="Helvetica,sans-Serif" font-size="10.00">&lt; Scalar, kPhysDim, kCellDim &gt;</text>
</a>
</g>
</g>
<!-- Node1 -->
<g id="node2" class="node">
<title>Node1</title>
<g id="a_node2"><a xlink:href="classmini_1_1integrator_1_1Cell.html" target="_top" xlink:title=" ">
<polygon fill="white" stroke="black" points="225.5,-171.5 225.5,-201.5 342.5,-201.5 342.5,-171.5 225.5,-171.5"/>
<text text-anchor="start" x="233.5" y="-189.5" font-family="Helvetica,sans-Serif" font-size="10.00">mini::integrator::Cell</text>
<text text-anchor="middle" x="284" y="-178.5" font-family="Helvetica,sans-Serif" font-size="10.00">&lt; Gx::Scalar &gt;</text>
</a>
</g>
</g>
<!-- Node0&#45;&gt;Node1 -->
<g id="edge1" class="edge">
<title>Node0&#45;&gt;Node1</title>
<path fill="none" stroke="midnightblue" d="M127.86,-108.13C164.76,-126.77 219.46,-154.4 253.08,-171.39"/>
<polygon fill="midnightblue" stroke="midnightblue" points="129.39,-104.98 118.89,-103.6 126.24,-111.23 129.39,-104.98"/>
</g>
<!-- Node5 -->
<g id="node6" class="node">
<title>Node5</title>
<g id="a_node6"><a xlink:href="classmini_1_1integrator_1_1Face.html" target="_top" xlink:title=" ">
<polygon fill="white" stroke="black" points="212,-98.5 212,-128.5 356,-128.5 356,-98.5 212,-98.5"/>
<text text-anchor="start" x="220" y="-116.5" font-family="Helvetica,sans-Serif" font-size="10.00">mini::integrator::Face</text>
<text text-anchor="middle" x="284" y="-105.5" font-family="Helvetica,sans-Serif" font-size="10.00">&lt; Gx::Scalar, kPhysDim &gt;</text>
</a>
</g>
</g>
<!-- Node0&#45;&gt;Node5 -->
<g id="edge5" class="edge">
<title>Node0&#45;&gt;Node5</title>
<path fill="none" stroke="midnightblue" d="M186.22,-101.03C194.87,-102.14 203.52,-103.26 211.9,-104.34"/>
<polygon fill="midnightblue" stroke="midnightblue" points="186.43,-97.53 176.07,-99.72 185.54,-104.47 186.43,-97.53"/>
</g>
<!-- Node7 -->
<g id="node8" class="node">
<title>Node7</title>
<g id="a_node8"><a xlink:href="classmini_1_1integrator_1_1Cell.html" target="_top" xlink:title="Abstract numerical integrators on volume elements.">
<polygon fill="white" stroke="black" points="225.5,-49.5 225.5,-79.5 342.5,-79.5 342.5,-49.5 225.5,-49.5"/>
<text text-anchor="start" x="233.5" y="-67.5" font-family="Helvetica,sans-Serif" font-size="10.00">mini::integrator::Cell</text>
<text text-anchor="middle" x="284" y="-56.5" font-family="Helvetica,sans-Serif" font-size="10.00">&lt; Scalar &gt;</text>
</a>
</g>
</g>
<!-- Node0&#45;&gt;Node7 -->
<g id="edge7" class="edge">
<title>Node0&#45;&gt;Node7</title>
<path fill="none" stroke="midnightblue" d="M186.29,-76.46C199.68,-74.81 213.06,-73.15 225.41,-71.62"/>
<polygon fill="midnightblue" stroke="midnightblue" points="185.56,-73.03 176.07,-77.73 186.42,-79.97 185.56,-73.03"/>
</g>
<!-- Node9 -->
<g id="node10" class="node">
<title>Node9</title>
<g id="a_node10"><a xlink:href="classmini_1_1integrator_1_1Face.html" target="_top" xlink:title="Abstract numerical integrators on surface elements.">
<polygon fill="white" stroke="black" points="221.5,-0.5 221.5,-30.5 346.5,-30.5 346.5,-0.5 221.5,-0.5"/>
<text text-anchor="start" x="229.5" y="-18.5" font-family="Helvetica,sans-Serif" font-size="10.00">mini::integrator::Face</text>
<text text-anchor="middle" x="284" y="-7.5" font-family="Helvetica,sans-Serif" font-size="10.00">&lt; Scalar, kPhysDim &gt;</text>
</a>
</g>
</g>
<!-- Node0&#45;&gt;Node9 -->
<g id="edge9" class="edge">
<title>Node0&#45;&gt;Node9</title>
<path fill="none" stroke="midnightblue" d="M136.02,-69.72C158.88,-60.7 186.8,-49.85 212,-40.5 220.82,-37.23 230.3,-33.82 239.36,-30.61"/>
<polygon fill="midnightblue" stroke="midnightblue" points="134.57,-66.53 126.56,-73.47 137.14,-73.04 134.57,-66.53"/>
</g>
<!-- Node2 -->
<g id="node3" class="node">
<title>Node2</title>
<g id="a_node3"><a xlink:href="classmini_1_1integrator_1_1Hexahedron.html" target="_top" xlink:title="Numerical integrators on hexahedral elements.">
<polygon fill="white" stroke="black" points="396.5,-245.5 396.5,-275.5 554.5,-275.5 554.5,-245.5 396.5,-245.5"/>
<text text-anchor="start" x="404.5" y="-263.5" font-family="Helvetica,sans-Serif" font-size="10.00">mini::integrator::Hexahedron</text>
<text text-anchor="middle" x="475.5" y="-252.5" font-family="Helvetica,sans-Serif" font-size="10.00">&lt; Gx, Gy, Gz &gt;</text>
</a>
</g>
</g>
<!-- Node1&#45;&gt;Node2 -->
<g id="edge2" class="edge">
<title>Node1&#45;&gt;Node2</title>
<path fill="none" stroke="midnightblue" d="M323.15,-206.08C343.31,-215.97 368.64,-227.7 392,-236.5 400.38,-239.65 409.36,-242.65 418.2,-245.38"/>
<polygon fill="midnightblue" stroke="midnightblue" points="324.51,-202.84 314,-201.54 321.4,-209.12 324.51,-202.84"/>
</g>
<!-- Node3 -->
<g id="node4" class="node">
<title>Node3</title>
<g id="a_node4"><a xlink:href="classmini_1_1integrator_1_1Pyramid.html" target="_top" xlink:title="Numerical integrators on pyramidal elements.">
<polygon fill="white" stroke="black" points="406,-196.5 406,-226.5 545,-226.5 545,-196.5 406,-196.5"/>
<text text-anchor="start" x="414" y="-214.5" font-family="Helvetica,sans-Serif" font-size="10.00">mini::integrator::Pyramid</text>
<text text-anchor="middle" x="475.5" y="-203.5" font-family="Helvetica,sans-Serif" font-size="10.00">&lt; Gx, Gy, Qz &gt;</text>
</a>
</g>
</g>
<!-- Node1&#45;&gt;Node3 -->
<g id="edge3" class="edge">
<title>Node1&#45;&gt;Node3</title>
<path fill="none" stroke="midnightblue" d="M352.63,-195.42C369.9,-197.7 388.48,-200.15 405.81,-202.44"/>
<polygon fill="midnightblue" stroke="midnightblue" points="353,-191.94 342.63,-194.1 352.08,-198.88 353,-191.94"/>
</g>
<!-- Node4 -->
<g id="node5" class="node">
<title>Node4</title>
<g id="a_node5"><a xlink:href="classmini_1_1integrator_1_1Wedge.html" target="_top" xlink:title="Numerical integrators on hexahedral elements.">
<polygon fill="white" stroke="black" points="410,-147.5 410,-177.5 541,-177.5 541,-147.5 410,-147.5"/>
<text text-anchor="start" x="418" y="-165.5" font-family="Helvetica,sans-Serif" font-size="10.00">mini::integrator::Wedge</text>
<text text-anchor="middle" x="475.5" y="-154.5" font-family="Helvetica,sans-Serif" font-size="10.00">&lt; Qt, Gx &gt;</text>
</a>
</g>
</g>
<!-- Node1&#45;&gt;Node4 -->
<g id="edge4" class="edge">
<title>Node1&#45;&gt;Node4</title>
<path fill="none" stroke="midnightblue" d="M352.78,-177.92C371.36,-175.56 391.46,-173.02 409.86,-170.69"/>
<polygon fill="midnightblue" stroke="midnightblue" points="352.11,-174.47 342.63,-179.2 352.99,-181.42 352.11,-174.47"/>
</g>
<!-- Node6 -->
<g id="node7" class="node">
<title>Node6</title>
<g id="a_node7"><a xlink:href="classmini_1_1integrator_1_1Quadrangle.html" target="_top" xlink:title="Numerical integrators on quadrilateral elements.">
<polygon fill="white" stroke="black" points="398,-98.5 398,-128.5 553,-128.5 553,-98.5 398,-98.5"/>
<text text-anchor="start" x="406" y="-116.5" font-family="Helvetica,sans-Serif" font-size="10.00">mini::integrator::Quadrangle</text>
<text text-anchor="middle" x="475.5" y="-105.5" font-family="Helvetica,sans-Serif" font-size="10.00">&lt; kPhysDim, Gx, Gy &gt;</text>
</a>
</g>
</g>
<!-- Node5&#45;&gt;Node6 -->
<g id="edge6" class="edge">
<title>Node5&#45;&gt;Node6</title>
<path fill="none" stroke="midnightblue" d="M366.13,-113.5C376.68,-113.5 387.45,-113.5 397.92,-113.5"/>
<polygon fill="midnightblue" stroke="midnightblue" points="366.1,-110 356.1,-113.5 366.1,-117 366.1,-110"/>
</g>
<!-- Node8 -->
<g id="node9" class="node">
<title>Node8</title>
<g id="a_node9"><a xlink:href="classmini_1_1integrator_1_1Tetrahedron.html" target="_top" xlink:title="Numerical integrators on tetrahedral elements.">
<polygon fill="white" stroke="black" points="397.5,-49.5 397.5,-79.5 553.5,-79.5 553.5,-49.5 397.5,-49.5"/>
<text text-anchor="start" x="405.5" y="-67.5" font-family="Helvetica,sans-Serif" font-size="10.00">mini::integrator::Tetrahedron</text>
<text text-anchor="middle" x="475.5" y="-56.5" font-family="Helvetica,sans-Serif" font-size="10.00">&lt; Scalar, kPoints &gt;</text>
</a>
</g>
</g>
<!-- Node7&#45;&gt;Node8 -->
<g id="edge8" class="edge">
<title>Node7&#45;&gt;Node8</title>
<path fill="none" stroke="midnightblue" d="M352.91,-64.5C367.28,-64.5 382.54,-64.5 397.23,-64.5"/>
<polygon fill="midnightblue" stroke="midnightblue" points="352.63,-61 342.63,-64.5 352.63,-68 352.63,-61"/>
</g>
<!-- Node10 -->
<g id="node11" class="node">
<title>Node10</title>
<g id="a_node11"><a xlink:href="classmini_1_1integrator_1_1Triangle.html" target="_top" xlink:title="Numerical integrators on triangular elements.">
<polygon fill="white" stroke="black" points="392,-0.5 392,-30.5 559,-30.5 559,-0.5 392,-0.5"/>
<text text-anchor="start" x="400" y="-18.5" font-family="Helvetica,sans-Serif" font-size="10.00">mini::integrator::Triangle</text>
<text text-anchor="middle" x="475.5" y="-7.5" font-family="Helvetica,sans-Serif" font-size="10.00">&lt; Scalar, kPhysDim, kPoints &gt;</text>
</a>
</g>
</g>
<!-- Node9&#45;&gt;Node10 -->
<g id="edge10" class="edge">
<title>Node9&#45;&gt;Node10</title>
<path fill="none" stroke="midnightblue" d="M356.53,-15.5C368.08,-15.5 380.13,-15.5 391.91,-15.5"/>
<polygon fill="midnightblue" stroke="midnightblue" points="356.53,-12 346.53,-15.5 356.53,-19 356.53,-12"/>
</g>
</g>
</svg>
