<?xml version="1.0" encoding="UTF-8" standalone="no"?>
<!DOCTYPE svg PUBLIC "-//W3C//DTD SVG 1.1//EN"
 "http://www.w3.org/Graphics/SVG/1.1/DTD/svg11.dtd">
<!-- Generated by graphviz version 2.43.0 (0)
 -->
<!-- Title: Graphical Class Hierarchy Pages: 1 -->
<svg width="402pt" height="170pt"
 viewBox="0.00 0.00 402.00 170.00" xmlns="http://www.w3.org/2000/svg" xmlns:xlink="http://www.w3.org/1999/xlink">
<g id="graph0" class="graph" transform="scale(1 1) rotate(0) translate(4 166)">
<title>Graphical Class Hierarchy</title>
<polygon fill="white" stroke="transparent" points="-4,4 -4,-166 398,-166 398,4 -4,4"/>
<!-- Node318 -->
<g id="node1" class="node">
<title>Node318</title>
<g id="a_node1"><a xlink:title=" ">
<polygon fill="white" stroke="#bfbfbf" points="0,-71.5 0,-90.5 47,-90.5 47,-71.5 0,-71.5"/>
<text text-anchor="middle" x="23.5" y="-78.5" font-family="Helvetica,sans-Serif" font-size="10.00">Vector</text>
</a>
</g>
</g>
<!-- Node0 -->
<g id="node2" class="node">
<title>Node0</title>
<g id="a_node2"><a xlink:href="classmini_1_1riemann_1_1euler_1_1Tuple.html" target="_top" xlink:title=" ">
<polygon fill="white" stroke="black" points="83,-60.5 83,-101.5 199,-101.5 199,-60.5 83,-60.5"/>
<text text-anchor="start" x="91" y="-89.5" font-family="Helvetica,sans-Serif" font-size="10.00">mini::riemann::euler</text>
<text text-anchor="start" x="91" y="-78.5" font-family="Helvetica,sans-Serif" font-size="10.00">::Tuple&lt; ScalarType,</text>
<text text-anchor="middle" x="141" y="-67.5" font-family="Helvetica,sans-Serif" font-size="10.00"> kDimensions &gt;</text>
</a>
</g>
</g>
<!-- Node318&#45;&gt;Node0 -->
<g id="edge1" class="edge">
<title>Node318&#45;&gt;Node0</title>
<path fill="none" stroke="midnightblue" d="M57.27,-81C65.18,-81 73.86,-81 82.53,-81"/>
<polygon fill="midnightblue" stroke="midnightblue" points="57.04,-77.5 47.04,-81 57.04,-84.5 57.04,-77.5"/>
</g>
<!-- Node1 -->
<g id="node3" class="node">
<title>Node1</title>
<g id="a_node3"><a xlink:href="structmini_1_1riemann_1_1euler_1_1Conservatives.html" target="_top" xlink:title=" ">
<polygon fill="white" stroke="black" points="235,-120.5 235,-161.5 394,-161.5 394,-120.5 235,-120.5"/>
<text text-anchor="start" x="243" y="-149.5" font-family="Helvetica,sans-Serif" font-size="10.00">mini::riemann::euler</text>
<text text-anchor="start" x="243" y="-138.5" font-family="Helvetica,sans-Serif" font-size="10.00">::Conservatives&lt; ScalarType,</text>
<text text-anchor="middle" x="314.5" y="-127.5" font-family="Helvetica,sans-Serif" font-size="10.00"> kDimensions &gt;</text>
</a>
</g>
</g>
<!-- Node0&#45;&gt;Node1 -->
<g id="edge2" class="edge">
<title>Node0&#45;&gt;Node1</title>
<path fill="none" stroke="midnightblue" d="M208.93,-104.42C224.1,-109.72 240.09,-115.32 254.88,-120.49"/>
<polygon fill="midnightblue" stroke="midnightblue" points="209.7,-100.98 199.11,-100.98 207.39,-107.59 209.7,-100.98"/>
</g>
<!-- Node2 -->
<g id="node4" class="node">
<title>Node2</title>
<g id="a_node4"><a xlink:href="classmini_1_1riemann_1_1euler_1_1FluxTuple.html" target="_top" xlink:title=" ">
<polygon fill="white" stroke="black" points="246.5,-60.5 246.5,-101.5 382.5,-101.5 382.5,-60.5 246.5,-60.5"/>
<text text-anchor="start" x="254.5" y="-89.5" font-family="Helvetica,sans-Serif" font-size="10.00">mini::riemann::euler</text>
<text text-anchor="start" x="254.5" y="-78.5" font-family="Helvetica,sans-Serif" font-size="10.00">::FluxTuple&lt; ScalarType,</text>
<text text-anchor="middle" x="314.5" y="-67.5" font-family="Helvetica,sans-Serif" font-size="10.00"> kDimensions &gt;</text>
</a>
</g>
</g>
<!-- Node0&#45;&gt;Node2 -->
<g id="edge3" class="edge">
<title>Node0&#45;&gt;Node2</title>
<path fill="none" stroke="midnightblue" d="M209.19,-81C221.36,-81 234.06,-81 246.24,-81"/>
<polygon fill="midnightblue" stroke="midnightblue" points="209.11,-77.5 199.11,-81 209.11,-84.5 209.11,-77.5"/>
</g>
<!-- Node3 -->
<g id="node5" class="node">
<title>Node3</title>
<g id="a_node5"><a xlink:href="classmini_1_1riemann_1_1euler_1_1Primitives.html" target="_top" xlink:title=" ">
<polygon fill="white" stroke="black" points="245,-0.5 245,-41.5 384,-41.5 384,-0.5 245,-0.5"/>
<text text-anchor="start" x="253" y="-29.5" font-family="Helvetica,sans-Serif" font-size="10.00">mini::riemann::euler</text>
<text text-anchor="start" x="253" y="-18.5" font-family="Helvetica,sans-Serif" font-size="10.00">::Primitives&lt; ScalarType,</text>
<text text-anchor="middle" x="314.5" y="-7.5" font-family="Helvetica,sans-Serif" font-size="10.00"> kDimensions &gt;</text>
</a>
</g>
</g>
<!-- Node0&#45;&gt;Node3 -->
<g id="edge4" class="edge">
<title>Node0&#45;&gt;Node3</title>
<path fill="none" stroke="midnightblue" d="M208.93,-57.58C224.1,-52.28 240.09,-46.68 254.88,-41.51"/>
<polygon fill="midnightblue" stroke="midnightblue" points="207.39,-54.41 199.11,-61.02 209.7,-61.02 207.39,-54.41"/>
</g>
</g>
</svg>
