<?xml version="1.0" encoding="UTF-8" standalone="no"?>
<!DOCTYPE svg PUBLIC "-//W3C//DTD SVG 1.1//EN"
 "http://www.w3.org/Graphics/SVG/1.1/DTD/svg11.dtd">
<!-- Generated by graphviz version 2.43.0 (0)
 -->
<!-- Title: Graphical Class Hierarchy Pages: 1 -->
<svg width="402pt" height="61pt"
 viewBox="0.00 0.00 402.00 61.00" xmlns="http://www.w3.org/2000/svg" xmlns:xlink="http://www.w3.org/1999/xlink">
<g id="graph0" class="graph" transform="scale(1 1) rotate(0) translate(4 57)">
<title>Graphical Class Hierarchy</title>
<polygon fill="white" stroke="transparent" points="-4,4 -4,-57 398,-57 398,4 -4,4"/>
<!-- Node0 -->
<g id="node1" class="node">
<title>Node0</title>
<g id="a_node1"><a xlink:href="classmini_1_1polynomial_1_1Expansion.html" target="_top" xlink:title=" ">
<polygon fill="white" stroke="black" points="0,-0.5 0,-52.5 176,-52.5 176,-0.5 0,-0.5"/>
<text text-anchor="start" x="8" y="-40.5" font-family="Helvetica,sans-Serif" font-size="10.00">mini::polynomial::Expansion</text>
<text text-anchor="start" x="8" y="-29.5" font-family="Helvetica,sans-Serif" font-size="10.00">&lt; kComponents, basis::lagrange</text>
<text text-anchor="start" x="8" y="-18.5" font-family="Helvetica,sans-Serif" font-size="10.00">::Hexahedron&lt; Gx::Scalar, Gx</text>
<text text-anchor="middle" x="88" y="-7.5" font-family="Helvetica,sans-Serif" font-size="10.00">::Q &#45; 1, Gy::Q &#45; 1, Gz::Q &#45; 1 &gt; &gt;</text>
</a>
</g>
</g>
<!-- Node1 -->
<g id="node2" class="node">
<title>Node1</title>
<g id="a_node2"><a xlink:href="classmini_1_1polynomial_1_1Hexahedron.html" target="_top" xlink:title="A vector&#45;valued function interpolated on an given basis::lagrange::Hexahedron basis.">
<polygon fill="white" stroke="black" points="212,-11.5 212,-41.5 394,-41.5 394,-11.5 212,-11.5"/>
<text text-anchor="start" x="220" y="-29.5" font-family="Helvetica,sans-Serif" font-size="10.00">mini::polynomial::Hexahedron</text>
<text text-anchor="middle" x="303" y="-18.5" font-family="Helvetica,sans-Serif" font-size="10.00">&lt; Gx, Gy, Gz, kComponents, kL &gt;</text>
</a>
</g>
</g>
<!-- Node0&#45;&gt;Node1 -->
<g id="edge1" class="edge">
<title>Node0&#45;&gt;Node1</title>
<path fill="none" stroke="midnightblue" d="M186.48,-26.5C194.91,-26.5 203.41,-26.5 211.78,-26.5"/>
<polygon fill="midnightblue" stroke="midnightblue" points="186.25,-23 176.25,-26.5 186.25,-30 186.25,-23"/>
</g>
</g>
</svg>
