<?xml version="1.0" encoding="UTF-8" standalone="no"?>
<!DOCTYPE svg PUBLIC "-//W3C//DTD SVG 1.1//EN"
 "http://www.w3.org/Graphics/SVG/1.1/DTD/svg11.dtd">
<!-- Generated by graphviz version 2.43.0 (0)
 -->
<!-- Title: Graphical Class Hierarchy Pages: 1 -->
<svg width="288pt" height="66pt"
 viewBox="0.00 0.00 288.00 66.00" xmlns="http://www.w3.org/2000/svg" xmlns:xlink="http://www.w3.org/1999/xlink">
<g id="graph0" class="graph" transform="scale(1 1) rotate(0) translate(4 62)">
<title>Graphical Class Hierarchy</title>
<polygon fill="white" stroke="transparent" points="-4,4 -4,-62 284,-62 284,4 -4,4"/>
<!-- Node315 -->
<g id="node1" class="node">
<title>Node315</title>
<g id="a_node1"><a xlink:title=" ">
<polygon fill="white" stroke="#bfbfbf" points="0,-38.5 0,-57.5 98,-57.5 98,-38.5 0,-38.5"/>
<text text-anchor="middle" x="49" y="-45.5" font-family="Helvetica,sans-Serif" font-size="10.00">mini::riemann::C</text>
</a>
</g>
</g>
<!-- Node0 -->
<g id="node2" class="node">
<title>Node0</title>
<g id="a_node2"><a xlink:href="classmini_1_1riemann_1_1ConvectionDiffusion.html" target="_top" xlink:title=" ">
<polygon fill="white" stroke="black" points="134,-14 134,-44 280,-44 280,-14 134,-14"/>
<text text-anchor="start" x="142" y="-32" font-family="Helvetica,sans-Serif" font-size="10.00">mini::riemann::Convection</text>
<text text-anchor="middle" x="207" y="-21" font-family="Helvetica,sans-Serif" font-size="10.00">Diffusion&lt; C, D &gt;</text>
</a>
</g>
</g>
<!-- Node315&#45;&gt;Node0 -->
<g id="edge1" class="edge">
<title>Node315&#45;&gt;Node0</title>
<path fill="none" stroke="midnightblue" d="M108.16,-40.92C116.58,-39.89 125.34,-38.82 133.99,-37.77"/>
<polygon fill="midnightblue" stroke="midnightblue" points="107.58,-37.46 98.08,-42.14 108.43,-44.41 107.58,-37.46"/>
</g>
<!-- Node317 -->
<g id="node3" class="node">
<title>Node317</title>
<g id="a_node3"><a xlink:title=" ">
<polygon fill="white" stroke="#bfbfbf" points="0,-0.5 0,-19.5 98,-19.5 98,-0.5 0,-0.5"/>
<text text-anchor="middle" x="49" y="-7.5" font-family="Helvetica,sans-Serif" font-size="10.00">mini::riemann::D</text>
</a>
</g>
</g>
<!-- Node317&#45;&gt;Node0 -->
<g id="edge2" class="edge">
<title>Node317&#45;&gt;Node0</title>
<path fill="none" stroke="midnightblue" d="M108.16,-17.08C116.58,-18.11 125.34,-19.18 133.99,-20.23"/>
<polygon fill="midnightblue" stroke="midnightblue" points="108.43,-13.59 98.08,-15.86 107.58,-20.54 108.43,-13.59"/>
</g>
</g>
</svg>
