<?xml version="1.0" encoding="UTF-8" standalone="no"?>
<!DOCTYPE svg PUBLIC "-//W3C//DTD SVG 1.1//EN"
 "http://www.w3.org/Graphics/SVG/1.1/DTD/svg11.dtd">
<!-- Generated by graphviz version 2.43.0 (0)
 -->
<!-- Title: Graphical Class Hierarchy Pages: 1 -->
<svg width="320pt" height="88pt"
 viewBox="0.00 0.00 320.00 88.00" xmlns="http://www.w3.org/2000/svg" xmlns:xlink="http://www.w3.org/1999/xlink">
<g id="graph0" class="graph" transform="scale(1 1) rotate(0) translate(4 84)">
<title>Graphical Class Hierarchy</title>
<polygon fill="white" stroke="transparent" points="-4,4 -4,-84 316,-84 316,4 -4,4"/>
<!-- Node0 -->
<g id="node1" class="node">
<title>Node0</title>
<g id="a_node1"><a xlink:href="classmini_1_1temporal_1_1Solver.html" target="_top" xlink:title="The abstract base of all ODE solvers.">
<polygon fill="white" stroke="black" points="0,-24.5 0,-54.5 125,-54.5 125,-24.5 0,-24.5"/>
<text text-anchor="start" x="8" y="-42.5" font-family="Helvetica,sans-Serif" font-size="10.00">mini::temporal::Solver</text>
<text text-anchor="middle" x="62.5" y="-31.5" font-family="Helvetica,sans-Serif" font-size="10.00">&lt; Scalar &gt;</text>
</a>
</g>
</g>
<!-- Node1 -->
<g id="node2" class="node">
<title>Node1</title>
<g id="a_node2"><a xlink:href="classmini_1_1temporal_1_1Euler.html" target="_top" xlink:title="The simplest ODE Solver: .">
<polygon fill="white" stroke="black" points="177,-49.5 177,-79.5 296,-79.5 296,-49.5 177,-49.5"/>
<text text-anchor="start" x="185" y="-67.5" font-family="Helvetica,sans-Serif" font-size="10.00">mini::temporal::Euler</text>
<text text-anchor="middle" x="236.5" y="-56.5" font-family="Helvetica,sans-Serif" font-size="10.00">&lt; Scalar &gt;</text>
</a>
</g>
</g>
<!-- Node0&#45;&gt;Node1 -->
<g id="edge1" class="edge">
<title>Node0&#45;&gt;Node1</title>
<path fill="none" stroke="midnightblue" d="M135.13,-49.91C149.04,-51.93 163.47,-54.03 176.91,-55.98"/>
<polygon fill="midnightblue" stroke="midnightblue" points="135.51,-46.43 125.11,-48.45 134.5,-53.36 135.51,-46.43"/>
</g>
<!-- Node2 -->
<g id="node3" class="node">
<title>Node2</title>
<g id="a_node3"><a xlink:href="structmini_1_1temporal_1_1RungeKutta.html" target="_top" xlink:title=" ">
<polygon fill="white" stroke="black" points="161,-0.5 161,-30.5 312,-30.5 312,-0.5 161,-0.5"/>
<text text-anchor="start" x="169" y="-18.5" font-family="Helvetica,sans-Serif" font-size="10.00">mini::temporal::RungeKutta</text>
<text text-anchor="middle" x="236.5" y="-7.5" font-family="Helvetica,sans-Serif" font-size="10.00">&lt; kOrders, Scalar &gt;</text>
</a>
</g>
</g>
<!-- Node0&#45;&gt;Node2 -->
<g id="edge2" class="edge">
<title>Node0&#45;&gt;Node2</title>
<path fill="none" stroke="midnightblue" d="M135.28,-29.48C143.71,-28.31 152.33,-27.11 160.8,-25.92"/>
<polygon fill="midnightblue" stroke="midnightblue" points="134.53,-26.05 125.11,-30.9 135.5,-32.99 134.53,-26.05"/>
</g>
</g>
</svg>
