<?xml version="1.0" encoding="UTF-8" standalone="no"?>
<!DOCTYPE svg PUBLIC "-//W3C//DTD SVG 1.1//EN"
 "http://www.w3.org/Graphics/SVG/1.1/DTD/svg11.dtd">
<!-- Generated by graphviz version 2.43.0 (0)
 -->
<!-- Title: Graphical Class Hierarchy Pages: 1 -->
<svg width="273pt" height="88pt"
 viewBox="0.00 0.00 273.00 88.00" xmlns="http://www.w3.org/2000/svg" xmlns:xlink="http://www.w3.org/1999/xlink">
<g id="graph0" class="graph" transform="scale(1 1) rotate(0) translate(4 84)">
<title>Graphical Class Hierarchy</title>
<polygon fill="white" stroke="transparent" points="-4,4 -4,-84 269,-84 269,4 -4,4"/>
<!-- Node0 -->
<g id="node1" class="node">
<title>Node0</title>
<g id="a_node1"><a xlink:href="classmini_1_1aircraft_1_1airfoil_1_1Abstract.html" target="_top" xlink:title=" ">
<polygon fill="white" stroke="black" points="0,-24.5 0,-54.5 116,-54.5 116,-24.5 0,-24.5"/>
<text text-anchor="start" x="8" y="-42.5" font-family="Helvetica,sans-Serif" font-size="10.00">mini::aircraft::airfoil</text>
<text text-anchor="middle" x="58" y="-31.5" font-family="Helvetica,sans-Serif" font-size="10.00">::Abstract&lt; Scalar &gt;</text>
</a>
</g>
</g>
<!-- Node1 -->
<g id="node2" class="node">
<title>Node1</title>
<g id="a_node2"><a xlink:href="classmini_1_1aircraft_1_1airfoil_1_1Linear.html" target="_top" xlink:title=" ">
<polygon fill="white" stroke="black" points="152,-49.5 152,-79.5 265,-79.5 265,-49.5 152,-49.5"/>
<text text-anchor="start" x="160" y="-67.5" font-family="Helvetica,sans-Serif" font-size="10.00">mini::aircraft::airfoil</text>
<text text-anchor="middle" x="208.5" y="-56.5" font-family="Helvetica,sans-Serif" font-size="10.00">::Linear&lt; Scalar &gt;</text>
</a>
</g>
</g>
<!-- Node0&#45;&gt;Node1 -->
<g id="edge1" class="edge">
<title>Node0&#45;&gt;Node1</title>
<path fill="none" stroke="midnightblue" d="M126.3,-50.83C134.8,-52.26 143.41,-53.71 151.7,-55.11"/>
<polygon fill="midnightblue" stroke="midnightblue" points="126.86,-47.37 116.41,-49.17 125.69,-54.28 126.86,-47.37"/>
</g>
<!-- Node2 -->
<g id="node3" class="node">
<title>Node2</title>
<g id="a_node3"><a xlink:href="classmini_1_1aircraft_1_1airfoil_1_1SC1095.html" target="_top" xlink:title=" ">
<polygon fill="white" stroke="black" points="152,-0.5 152,-30.5 265,-30.5 265,-0.5 152,-0.5"/>
<text text-anchor="start" x="160" y="-18.5" font-family="Helvetica,sans-Serif" font-size="10.00">mini::aircraft::airfoil</text>
<text text-anchor="middle" x="208.5" y="-7.5" font-family="Helvetica,sans-Serif" font-size="10.00">::SC1095&lt; Scalar &gt;</text>
</a>
</g>
</g>
<!-- Node0&#45;&gt;Node2 -->
<g id="edge2" class="edge">
<title>Node0&#45;&gt;Node2</title>
<path fill="none" stroke="midnightblue" d="M126.3,-28.62C134.8,-27.25 143.41,-25.86 151.7,-24.52"/>
<polygon fill="midnightblue" stroke="midnightblue" points="125.73,-25.17 116.41,-30.22 126.84,-32.08 125.73,-25.17"/>
</g>
</g>
</svg>
