<?xml version="1.0" encoding="UTF-8" standalone="no"?>
<!DOCTYPE svg PUBLIC "-//W3C//DTD SVG 1.1//EN"
 "http://www.w3.org/Graphics/SVG/1.1/DTD/svg11.dtd">
<!-- Generated by graphviz version 2.43.0 (0)
 -->
<!-- Title: Graphical Class Hierarchy Pages: 1 -->
<svg width="322pt" height="100pt"
 viewBox="0.00 0.00 322.00 99.50" xmlns="http://www.w3.org/2000/svg" xmlns:xlink="http://www.w3.org/1999/xlink">
<g id="graph0" class="graph" transform="scale(1 1) rotate(0) translate(4 95.5)">
<title>Graphical Class Hierarchy</title>
<polygon fill="white" stroke="transparent" points="-4,4 -4,-95.5 318,-95.5 318,4 -4,4"/>
<!-- Node126 -->
<g id="node1" class="node">
<title>Node126</title>
<g id="a_node1"><a xlink:title=" ">
<polygon fill="white" stroke="#bfbfbf" points="0,-33 0,-52 128,-52 128,-33 0,-33"/>
<text text-anchor="middle" x="64" y="-40" font-family="Helvetica,sans-Serif" font-size="10.00">ConcreteFiniteElement</text>
</a>
</g>
</g>
<!-- Node0 -->
<g id="node2" class="node">
<title>Node0</title>
<g id="a_node2"><a xlink:href="classmini_1_1spatial_1_1WithLimiter.html" target="_top" xlink:title="Augment a concrete FiniteElement with a concrete Limiter.">
<polygon fill="white" stroke="black" points="168,-50 168,-91 310,-91 310,-50 168,-50"/>
<text text-anchor="start" x="176" y="-79" font-family="Helvetica,sans-Serif" font-size="10.00">mini::spatial::WithLimiter</text>
<text text-anchor="start" x="176" y="-68" font-family="Helvetica,sans-Serif" font-size="10.00">&lt; ConcreteFiniteElement,</text>
<text text-anchor="middle" x="239" y="-57" font-family="Helvetica,sans-Serif" font-size="10.00"> Limiter &gt;</text>
</a>
</g>
</g>
<!-- Node126&#45;&gt;Node0 -->
<g id="edge1" class="edge">
<title>Node126&#45;&gt;Node0</title>
<path fill="none" stroke="midnightblue" d="M134.12,-53.69C145.23,-55.49 156.74,-57.35 167.87,-59.15"/>
<polygon fill="midnightblue" stroke="midnightblue" points="134.48,-50.2 124.05,-52.06 133.37,-57.11 134.48,-50.2"/>
</g>
<!-- Node128 -->
<g id="node3" class="node">
<title>Node128</title>
<g id="a_node3"><a xlink:href="classmini_1_1spatial_1_1WithViscosity.html" target="_top" xlink:title="Augment a concrete FiniteElement with a concrete Viscosity.">
<polygon fill="white" stroke="black" points="164,-0.5 164,-30.5 314,-30.5 314,-0.5 164,-0.5"/>
<text text-anchor="start" x="172" y="-18.5" font-family="Helvetica,sans-Serif" font-size="10.00">mini::spatial::WithViscosity</text>
<text text-anchor="middle" x="239" y="-7.5" font-family="Helvetica,sans-Serif" font-size="10.00">&lt; ConcreteFiniteElement &gt;</text>
</a>
</g>
</g>
<!-- Node126&#45;&gt;Node128 -->
<g id="edge2" class="edge">
<title>Node126&#45;&gt;Node128</title>
<path fill="none" stroke="midnightblue" d="M135.9,-31.43C145.14,-29.99 154.62,-28.51 163.91,-27.06"/>
<polygon fill="midnightblue" stroke="midnightblue" points="135.33,-27.98 125.99,-32.98 136.41,-34.9 135.33,-27.98"/>
</g>
</g>
</svg>
