<?xml version="1.0" encoding="UTF-8" standalone="no"?>
<!DOCTYPE svg PUBLIC "-//W3C//DTD SVG 1.1//EN"
 "http://www.w3.org/Graphics/SVG/1.1/DTD/svg11.dtd">
<!-- Generated by graphviz version 2.43.0 (0)
 -->
<!-- Title: Graphical Class Hierarchy Pages: 1 -->
<svg width="357pt" height="61pt"
 viewBox="0.00 0.00 357.00 61.00" xmlns="http://www.w3.org/2000/svg" xmlns:xlink="http://www.w3.org/1999/xlink">
<g id="graph0" class="graph" transform="scale(1 1) rotate(0) translate(4 57)">
<title>Graphical Class Hierarchy</title>
<polygon fill="white" stroke="transparent" points="-4,4 -4,-57 353,-57 353,4 -4,4"/>
<!-- Node0 -->
<g id="node1" class="node">
<title>Node0</title>
<g id="a_node1"><a xlink:href="classmini_1_1polynomial_1_1Expansion.html" target="_top" xlink:title=" ">
<polygon fill="white" stroke="black" points="0,-0.5 0,-52.5 159,-52.5 159,-0.5 0,-0.5"/>
<text text-anchor="start" x="8" y="-40.5" font-family="Helvetica,sans-Serif" font-size="10.00">mini::polynomial::Expansion</text>
<text text-anchor="start" x="8" y="-29.5" font-family="Helvetica,sans-Serif" font-size="10.00">&lt; kComponents, Projection</text>
<text text-anchor="start" x="8" y="-18.5" font-family="Helvetica,sans-Serif" font-size="10.00">&lt; S, kDimensions, kDegrees,</text>
<text text-anchor="middle" x="79.5" y="-7.5" font-family="Helvetica,sans-Serif" font-size="10.00"> kComponents &gt;::Basis &gt;</text>
</a>
</g>
</g>
<!-- Node1 -->
<g id="node2" class="node">
<title>Node1</title>
<g id="a_node2"><a xlink:href="classmini_1_1polynomial_1_1ProjectionWrapper.html" target="_top" xlink:title="A light&#45;weighted wrapper of Projection.">
<polygon fill="white" stroke="black" points="195,-6 195,-47 349,-47 349,-6 195,-6"/>
<text text-anchor="start" x="203" y="-35" font-family="Helvetica,sans-Serif" font-size="10.00">mini::polynomial::Projection</text>
<text text-anchor="start" x="203" y="-24" font-family="Helvetica,sans-Serif" font-size="10.00">Wrapper&lt; S, kDimensions,</text>
<text text-anchor="middle" x="272" y="-13" font-family="Helvetica,sans-Serif" font-size="10.00"> kDegrees, kComponents &gt;</text>
</a>
</g>
</g>
<!-- Node0&#45;&gt;Node1 -->
<g id="edge1" class="edge">
<title>Node0&#45;&gt;Node1</title>
<path fill="none" stroke="midnightblue" d="M169.09,-26.5C177.67,-26.5 186.31,-26.5 194.74,-26.5"/>
<polygon fill="midnightblue" stroke="midnightblue" points="169.08,-23 159.08,-26.5 169.08,-30 169.08,-23"/>
</g>
</g>
</svg>
