<?xml version="1.0" encoding="UTF-8" standalone="no"?>
<!DOCTYPE svg PUBLIC "-//W3C//DTD SVG 1.1//EN"
 "http://www.w3.org/Graphics/SVG/1.1/DTD/svg11.dtd">
<!-- Generated by graphviz version 2.43.0 (0)
 -->
<!-- Title: Graphical Class Hierarchy Pages: 1 -->
<svg width="241pt" height="78pt"
 viewBox="0.00 0.00 241.00 77.50" xmlns="http://www.w3.org/2000/svg" xmlns:xlink="http://www.w3.org/1999/xlink">
<g id="graph0" class="graph" transform="scale(1 1) rotate(0) translate(4 73.5)">
<title>Graphical Class Hierarchy</title>
<polygon fill="white" stroke="transparent" points="-4,4 -4,-73.5 237,-73.5 237,4 -4,4"/>
<!-- Node225 -->
<g id="node1" class="node">
<title>Node225</title>
<g id="a_node1"><a xlink:title=" ">
<polygon fill="white" stroke="#bfbfbf" points="0,-28 0,-47 47,-47 47,-28 0,-28"/>
<text text-anchor="middle" x="23.5" y="-35" font-family="Helvetica,sans-Serif" font-size="10.00">object</text>
</a>
</g>
</g>
<!-- Node0 -->
<g id="node2" class="node">
<title>Node0</title>
<g id="a_node2"><a xlink:href="classpython_1_1gas_1_1Ideal.html" target="_top" xlink:title=" ">
<polygon fill="white" stroke="black" points="109,-50 109,-69 207,-69 207,-50 109,-50"/>
<text text-anchor="middle" x="158" y="-57" font-family="Helvetica,sans-Serif" font-size="10.00">python.gas.Ideal</text>
</a>
</g>
</g>
<!-- Node225&#45;&gt;Node0 -->
<g id="edge1" class="edge">
<title>Node225&#45;&gt;Node0</title>
<path fill="none" stroke="midnightblue" d="M57.42,-42.97C72.91,-45.54 91.69,-48.66 108.75,-51.49"/>
<polygon fill="midnightblue" stroke="midnightblue" points="57.72,-39.47 47.28,-41.28 56.57,-46.37 57.72,-39.47"/>
</g>
<!-- Node227 -->
<g id="node3" class="node">
<title>Node227</title>
<g id="a_node3"><a xlink:href="classpython_1_1wave__packet_1_1LinearAdvection.html" target="_top" xlink:title=" ">
<polygon fill="white" stroke="black" points="83,-0.5 83,-30.5 233,-30.5 233,-0.5 83,-0.5"/>
<text text-anchor="start" x="91" y="-18.5" font-family="Helvetica,sans-Serif" font-size="10.00">python.wave_packet.Linear</text>
<text text-anchor="middle" x="158" y="-7.5" font-family="Helvetica,sans-Serif" font-size="10.00">Advection</text>
</a>
</g>
</g>
<!-- Node225&#45;&gt;Node227 -->
<g id="edge2" class="edge">
<title>Node225&#45;&gt;Node227</title>
<path fill="none" stroke="midnightblue" d="M57.16,-32.08C65.11,-30.76 73.93,-29.29 82.95,-27.79"/>
<polygon fill="midnightblue" stroke="midnightblue" points="56.57,-28.63 47.28,-33.72 57.72,-35.53 56.57,-28.63"/>
</g>
</g>
</svg>
