<?xml version="1.0" encoding="UTF-8" standalone="no"?>
<!DOCTYPE svg PUBLIC "-//W3C//DTD SVG 1.1//EN"
 "http://www.w3.org/Graphics/SVG/1.1/DTD/svg11.dtd">
<!-- Generated by graphviz version 2.43.0 (0)
 -->
<!-- Title: Graphical Class Hierarchy Pages: 1 -->
<svg width="714pt" height="578pt"
 viewBox="0.00 0.00 714.00 578.00" xmlns="http://www.w3.org/2000/svg" xmlns:xlink="http://www.w3.org/1999/xlink">
<g id="graph0" class="graph" transform="scale(1 1) rotate(0) translate(4 574)">
<title>Graphical Class Hierarchy</title>
<polygon fill="white" stroke="transparent" points="-4,4 -4,-574 710,-574 710,4 -4,4"/>
<!-- Node0 -->
<g id="node1" class="node">
<title>Node0</title>
<g id="a_node1"><a xlink:href="classmini_1_1coordinate_1_1Element.html" target="_top" xlink:title=" ">
<polygon fill="white" stroke="black" points="0,-245.5 0,-275.5 143,-275.5 143,-245.5 0,-245.5"/>
<text text-anchor="start" x="8" y="-263.5" font-family="Helvetica,sans-Serif" font-size="10.00">mini::coordinate::Element</text>
<text text-anchor="middle" x="71.5" y="-252.5" font-family="Helvetica,sans-Serif" font-size="10.00">&lt; Scalar, 3, 3 &gt;</text>
</a>
</g>
</g>
<!-- Node1 -->
<g id="node2" class="node">
<title>Node1</title>
<g id="a_node2"><a xlink:href="classmini_1_1coordinate_1_1Cell.html" target="_top" xlink:title="Abstract coordinate map on volume elements.">
<polygon fill="white" stroke="black" points="179,-245.5 179,-275.5 300,-275.5 300,-245.5 179,-245.5"/>
<text text-anchor="start" x="187" y="-263.5" font-family="Helvetica,sans-Serif" font-size="10.00">mini::coordinate::Cell</text>
<text text-anchor="middle" x="239.5" y="-252.5" font-family="Helvetica,sans-Serif" font-size="10.00">&lt; Scalar &gt;</text>
</a>
</g>
</g>
<!-- Node0&#45;&gt;Node1 -->
<g id="edge1" class="edge">
<title>Node0&#45;&gt;Node1</title>
<path fill="none" stroke="midnightblue" d="M153.4,-260.5C161.97,-260.5 170.56,-260.5 178.82,-260.5"/>
<polygon fill="midnightblue" stroke="midnightblue" points="153.38,-257 143.38,-260.5 153.38,-264 153.38,-257"/>
</g>
<!-- Node2 -->
<g id="node3" class="node">
<title>Node2</title>
<g id="a_node3"><a xlink:href="classmini_1_1coordinate_1_1Hexahedron.html" target="_top" xlink:title="Abstract coordinate map on hexahedral elements.">
<polygon fill="white" stroke="black" points="336,-441.5 336,-471.5 497,-471.5 497,-441.5 336,-441.5"/>
<text text-anchor="start" x="344" y="-459.5" font-family="Helvetica,sans-Serif" font-size="10.00">mini::coordinate::Hexahedron</text>
<text text-anchor="middle" x="416.5" y="-448.5" font-family="Helvetica,sans-Serif" font-size="10.00">&lt; Scalar &gt;</text>
</a>
</g>
</g>
<!-- Node1&#45;&gt;Node2 -->
<g id="edge2" class="edge">
<title>Node1&#45;&gt;Node2</title>
<path fill="none" stroke="midnightblue" d="M260.61,-283.03C296.68,-323.42 371.43,-407.14 402.01,-441.39"/>
<polygon fill="midnightblue" stroke="midnightblue" points="263.21,-280.68 253.94,-275.55 257.99,-285.34 263.21,-280.68"/>
</g>
<!-- Node7 -->
<g id="node8" class="node">
<title>Node7</title>
<g id="a_node8"><a xlink:href="classmini_1_1coordinate_1_1Pyramid.html" target="_top" xlink:title="Abstract coordinate map on pyramidal elements.">
<polygon fill="white" stroke="black" points="345,-270.5 345,-300.5 488,-300.5 488,-270.5 345,-270.5"/>
<text text-anchor="start" x="353" y="-288.5" font-family="Helvetica,sans-Serif" font-size="10.00">mini::coordinate::Pyramid</text>
<text text-anchor="middle" x="416.5" y="-277.5" font-family="Helvetica,sans-Serif" font-size="10.00">&lt; Scalar &gt;</text>
</a>
</g>
</g>
<!-- Node1&#45;&gt;Node7 -->
<g id="edge7" class="edge">
<title>Node1&#45;&gt;Node7</title>
<path fill="none" stroke="midnightblue" d="M310.14,-270.45C321.57,-272.08 333.42,-273.77 344.86,-275.41"/>
<polygon fill="midnightblue" stroke="midnightblue" points="310.63,-266.98 300.24,-269.03 309.64,-273.91 310.63,-266.98"/>
</g>
<!-- Node11 -->
<g id="node12" class="node">
<title>Node11</title>
<g id="a_node12"><a xlink:href="classmini_1_1coordinate_1_1Tetrahedron.html" target="_top" xlink:title="Abstract coordinate map on tetrahedral elements.">
<polygon fill="white" stroke="black" points="336.5,-196.5 336.5,-226.5 496.5,-226.5 496.5,-196.5 336.5,-196.5"/>
<text text-anchor="start" x="344.5" y="-214.5" font-family="Helvetica,sans-Serif" font-size="10.00">mini::coordinate::Tetrahedron</text>
<text text-anchor="middle" x="416.5" y="-203.5" font-family="Helvetica,sans-Serif" font-size="10.00">&lt; Scalar &gt;</text>
</a>
</g>
</g>
<!-- Node1&#45;&gt;Node11 -->
<g id="edge11" class="edge">
<title>Node1&#45;&gt;Node11</title>
<path fill="none" stroke="midnightblue" d="M304.15,-242.68C323.04,-237.39 343.54,-231.65 361.74,-226.55"/>
<polygon fill="midnightblue" stroke="midnightblue" points="303.12,-239.33 294.43,-245.4 305.01,-246.07 303.12,-239.33"/>
</g>
<!-- Node14 -->
<g id="node15" class="node">
<title>Node14</title>
<g id="a_node15"><a xlink:href="classmini_1_1coordinate_1_1Wedge.html" target="_top" xlink:title="Abstract coordinate map on wedge elements.">
<polygon fill="white" stroke="black" points="349,-74.5 349,-104.5 484,-104.5 484,-74.5 349,-74.5"/>
<text text-anchor="start" x="357" y="-92.5" font-family="Helvetica,sans-Serif" font-size="10.00">mini::coordinate::Wedge</text>
<text text-anchor="middle" x="416.5" y="-81.5" font-family="Helvetica,sans-Serif" font-size="10.00">&lt; Scalar &gt;</text>
</a>
</g>
</g>
<!-- Node1&#45;&gt;Node14 -->
<g id="edge14" class="edge">
<title>Node1&#45;&gt;Node14</title>
<path fill="none" stroke="midnightblue" d="M263.21,-238.31C299.35,-203 369.03,-134.91 400,-104.64"/>
<polygon fill="midnightblue" stroke="midnightblue" points="260.74,-235.83 256.03,-245.32 265.63,-240.84 260.74,-235.83"/>
</g>
<!-- Node3 -->
<g id="node4" class="node">
<title>Node3</title>
<g id="a_node4"><a xlink:href="classmini_1_1coordinate_1_1Hexahedron20.html" target="_top" xlink:title="Coordinate map on 20&#45;node hexahedral elements.">
<polygon fill="white" stroke="black" points="533,-539.5 533,-569.5 706,-569.5 706,-539.5 533,-539.5"/>
<text text-anchor="start" x="541" y="-557.5" font-family="Helvetica,sans-Serif" font-size="10.00">mini::coordinate::Hexahedron20</text>
<text text-anchor="middle" x="619.5" y="-546.5" font-family="Helvetica,sans-Serif" font-size="10.00">&lt; Scalar &gt;</text>
</a>
</g>
</g>
<!-- Node2&#45;&gt;Node3 -->
<g id="edge3" class="edge">
<title>Node2&#45;&gt;Node3</title>
<path fill="none" stroke="midnightblue" d="M445.02,-477.46C467.63,-493.84 501.02,-516.15 533,-530.5 540.46,-533.84 548.49,-536.83 556.54,-539.47"/>
<polygon fill="midnightblue" stroke="midnightblue" points="447.05,-474.61 436.91,-471.51 442.9,-480.25 447.05,-474.61"/>
</g>
<!-- Node4 -->
<g id="node5" class="node">
<title>Node4</title>
<g id="a_node5"><a xlink:href="classmini_1_1coordinate_1_1Hexahedron26.html" target="_top" xlink:title="Coordinate map on 26&#45;node hexahedral elements.">
<polygon fill="white" stroke="black" points="533,-490.5 533,-520.5 706,-520.5 706,-490.5 533,-490.5"/>
<text text-anchor="start" x="541" y="-508.5" font-family="Helvetica,sans-Serif" font-size="10.00">mini::coordinate::Hexahedron26</text>
<text text-anchor="middle" x="619.5" y="-497.5" font-family="Helvetica,sans-Serif" font-size="10.00">&lt; Scalar &gt;</text>
</a>
</g>
</g>
<!-- Node2&#45;&gt;Node4 -->
<g id="edge4" class="edge">
<title>Node2&#45;&gt;Node4</title>
<path fill="none" stroke="midnightblue" d="M488.89,-473.9C511.13,-479.32 535.44,-485.25 556.94,-490.49"/>
<polygon fill="midnightblue" stroke="midnightblue" points="489.72,-470.5 479.17,-471.53 488.06,-477.3 489.72,-470.5"/>
</g>
<!-- Node5 -->
<g id="node6" class="node">
<title>Node5</title>
<g id="a_node6"><a xlink:href="classmini_1_1coordinate_1_1Hexahedron27.html" target="_top" xlink:title="Coordinate map on 27&#45;node hexahedral elements.">
<polygon fill="white" stroke="black" points="533,-441.5 533,-471.5 706,-471.5 706,-441.5 533,-441.5"/>
<text text-anchor="start" x="541" y="-459.5" font-family="Helvetica,sans-Serif" font-size="10.00">mini::coordinate::Hexahedron27</text>
<text text-anchor="middle" x="619.5" y="-448.5" font-family="Helvetica,sans-Serif" font-size="10.00">&lt; Scalar &gt;</text>
</a>
</g>
</g>
<!-- Node2&#45;&gt;Node5 -->
<g id="edge5" class="edge">
<title>Node2&#45;&gt;Node5</title>
<path fill="none" stroke="midnightblue" d="M507.48,-456.5C515.94,-456.5 524.5,-456.5 532.92,-456.5"/>
<polygon fill="midnightblue" stroke="midnightblue" points="507.23,-453 497.23,-456.5 507.23,-460 507.23,-453"/>
</g>
<!-- Node6 -->
<g id="node7" class="node">
<title>Node6</title>
<g id="a_node7"><a xlink:href="classmini_1_1coordinate_1_1Hexahedron8.html" target="_top" xlink:title="Coordinate map on 8&#45;node hexahedral elements.">
<polygon fill="white" stroke="black" points="536,-392.5 536,-422.5 703,-422.5 703,-392.5 536,-392.5"/>
<text text-anchor="start" x="544" y="-410.5" font-family="Helvetica,sans-Serif" font-size="10.00">mini::coordinate::Hexahedron8</text>
<text text-anchor="middle" x="619.5" y="-399.5" font-family="Helvetica,sans-Serif" font-size="10.00">&lt; Scalar &gt;</text>
</a>
</g>
</g>
<!-- Node2&#45;&gt;Node6 -->
<g id="edge6" class="edge">
<title>Node2&#45;&gt;Node6</title>
<path fill="none" stroke="midnightblue" d="M488.89,-439.1C511.13,-433.68 535.44,-427.75 556.94,-422.51"/>
<polygon fill="midnightblue" stroke="midnightblue" points="488.06,-435.7 479.17,-441.47 489.72,-442.5 488.06,-435.7"/>
</g>
<!-- Node8 -->
<g id="node9" class="node">
<title>Node8</title>
<g id="a_node9"><a xlink:href="classmini_1_1coordinate_1_1Pyramid13.html" target="_top" xlink:title="Coordinate map on 13&#45;node pyramidal elements.">
<polygon fill="white" stroke="black" points="542,-343.5 542,-373.5 697,-373.5 697,-343.5 542,-343.5"/>
<text text-anchor="start" x="550" y="-361.5" font-family="Helvetica,sans-Serif" font-size="10.00">mini::coordinate::Pyramid13</text>
<text text-anchor="middle" x="619.5" y="-350.5" font-family="Helvetica,sans-Serif" font-size="10.00">&lt; Scalar &gt;</text>
</a>
</g>
</g>
<!-- Node7&#45;&gt;Node8 -->
<g id="edge8" class="edge">
<title>Node7&#45;&gt;Node8</title>
<path fill="none" stroke="midnightblue" d="M459.19,-304.71C480.93,-314.33 508.11,-325.77 533,-334.5 542.02,-337.66 551.69,-340.7 561.16,-343.49"/>
<polygon fill="midnightblue" stroke="midnightblue" points="460.48,-301.45 449.92,-300.57 457.62,-307.84 460.48,-301.45"/>
</g>
<!-- Node9 -->
<g id="node10" class="node">
<title>Node9</title>
<g id="a_node10"><a xlink:href="classmini_1_1coordinate_1_1Pyramid14.html" target="_top" xlink:title="Coordinate map on 14&#45;node pyramidal elements.">
<polygon fill="white" stroke="black" points="542,-294.5 542,-324.5 697,-324.5 697,-294.5 542,-294.5"/>
<text text-anchor="start" x="550" y="-312.5" font-family="Helvetica,sans-Serif" font-size="10.00">mini::coordinate::Pyramid14</text>
<text text-anchor="middle" x="619.5" y="-301.5" font-family="Helvetica,sans-Serif" font-size="10.00">&lt; Scalar &gt;</text>
</a>
</g>
</g>
<!-- Node7&#45;&gt;Node9 -->
<g id="edge9" class="edge">
<title>Node7&#45;&gt;Node9</title>
<path fill="none" stroke="midnightblue" d="M498.42,-295.16C512.78,-296.88 527.7,-298.66 541.93,-300.36"/>
<polygon fill="midnightblue" stroke="midnightblue" points="498.43,-291.64 488.08,-293.93 497.6,-298.59 498.43,-291.64"/>
</g>
<!-- Node10 -->
<g id="node11" class="node">
<title>Node10</title>
<g id="a_node11"><a xlink:href="classmini_1_1coordinate_1_1Pyramid5.html" target="_top" xlink:title="Coordinate map on 5&#45;node pyramidal elements.">
<polygon fill="white" stroke="black" points="545,-245.5 545,-275.5 694,-275.5 694,-245.5 545,-245.5"/>
<text text-anchor="start" x="553" y="-263.5" font-family="Helvetica,sans-Serif" font-size="10.00">mini::coordinate::Pyramid5</text>
<text text-anchor="middle" x="619.5" y="-252.5" font-family="Helvetica,sans-Serif" font-size="10.00">&lt; Scalar &gt;</text>
</a>
</g>
</g>
<!-- Node7&#45;&gt;Node10 -->
<g id="edge10" class="edge">
<title>Node7&#45;&gt;Node10</title>
<path fill="none" stroke="midnightblue" d="M498.09,-275.48C513.48,-273.56 529.51,-271.57 544.68,-269.68"/>
<polygon fill="midnightblue" stroke="midnightblue" points="497.57,-272.01 488.08,-276.72 498.44,-278.96 497.57,-272.01"/>
</g>
<!-- Node12 -->
<g id="node13" class="node">
<title>Node12</title>
<g id="a_node13"><a xlink:href="classmini_1_1coordinate_1_1Tetrahedron10.html" target="_top" xlink:title="Coordinate map on 10&#45;node tetrahedral elements.">
<polygon fill="white" stroke="black" points="533.5,-196.5 533.5,-226.5 705.5,-226.5 705.5,-196.5 533.5,-196.5"/>
<text text-anchor="start" x="541.5" y="-214.5" font-family="Helvetica,sans-Serif" font-size="10.00">mini::coordinate::Tetrahedron10</text>
<text text-anchor="middle" x="619.5" y="-203.5" font-family="Helvetica,sans-Serif" font-size="10.00">&lt; Scalar &gt;</text>
</a>
</g>
</g>
<!-- Node11&#45;&gt;Node12 -->
<g id="edge12" class="edge">
<title>Node11&#45;&gt;Node12</title>
<path fill="none" stroke="midnightblue" d="M506.93,-211.5C515.75,-211.5 524.69,-211.5 533.46,-211.5"/>
<polygon fill="midnightblue" stroke="midnightblue" points="506.65,-208 496.65,-211.5 506.65,-215 506.65,-208"/>
</g>
<!-- Node13 -->
<g id="node14" class="node">
<title>Node13</title>
<g id="a_node14"><a xlink:href="classmini_1_1coordinate_1_1Tetrahedron4.html" target="_top" xlink:title="Coordinate map on 4&#45;node tetrahedral elements.">
<polygon fill="white" stroke="black" points="536.5,-147.5 536.5,-177.5 702.5,-177.5 702.5,-147.5 536.5,-147.5"/>
<text text-anchor="start" x="544.5" y="-165.5" font-family="Helvetica,sans-Serif" font-size="10.00">mini::coordinate::Tetrahedron4</text>
<text text-anchor="middle" x="619.5" y="-154.5" font-family="Helvetica,sans-Serif" font-size="10.00">&lt; Scalar &gt;</text>
</a>
</g>
</g>
<!-- Node11&#45;&gt;Node13 -->
<g id="edge13" class="edge">
<title>Node11&#45;&gt;Node13</title>
<path fill="none" stroke="midnightblue" d="M488.89,-194.1C511.13,-188.68 535.44,-182.75 556.94,-177.51"/>
<polygon fill="midnightblue" stroke="midnightblue" points="488.06,-190.7 479.17,-196.47 489.72,-197.5 488.06,-190.7"/>
</g>
<!-- Node15 -->
<g id="node16" class="node">
<title>Node15</title>
<g id="a_node16"><a xlink:href="classmini_1_1coordinate_1_1Wedge15.html" target="_top" xlink:title="Coordinate map on 15&#45;node wedge elements.">
<polygon fill="white" stroke="black" points="546,-98.5 546,-128.5 693,-128.5 693,-98.5 546,-98.5"/>
<text text-anchor="start" x="554" y="-116.5" font-family="Helvetica,sans-Serif" font-size="10.00">mini::coordinate::Wedge15</text>
<text text-anchor="middle" x="619.5" y="-105.5" font-family="Helvetica,sans-Serif" font-size="10.00">&lt; Scalar &gt;</text>
</a>
</g>
</g>
<!-- Node14&#45;&gt;Node15 -->
<g id="edge15" class="edge">
<title>Node14&#45;&gt;Node15</title>
<path fill="none" stroke="midnightblue" d="M494.5,-98.69C511.35,-100.71 529.13,-102.83 545.8,-104.82"/>
<polygon fill="midnightblue" stroke="midnightblue" points="494.5,-95.17 484.15,-97.46 493.67,-102.12 494.5,-95.17"/>
</g>
<!-- Node16 -->
<g id="node17" class="node">
<title>Node16</title>
<g id="a_node17"><a xlink:href="classmini_1_1coordinate_1_1Wedge18.html" target="_top" xlink:title="Coordinate map on 18&#45;node wedge elements.">
<polygon fill="white" stroke="black" points="546,-49.5 546,-79.5 693,-79.5 693,-49.5 546,-49.5"/>
<text text-anchor="start" x="554" y="-67.5" font-family="Helvetica,sans-Serif" font-size="10.00">mini::coordinate::Wedge18</text>
<text text-anchor="middle" x="619.5" y="-56.5" font-family="Helvetica,sans-Serif" font-size="10.00">&lt; Scalar &gt;</text>
</a>
</g>
</g>
<!-- Node14&#45;&gt;Node16 -->
<g id="edge16" class="edge">
<title>Node14&#45;&gt;Node16</title>
<path fill="none" stroke="midnightblue" d="M494.5,-79.92C511.35,-77.83 529.13,-75.62 545.8,-73.54"/>
<polygon fill="midnightblue" stroke="midnightblue" points="493.64,-76.5 484.15,-81.21 494.51,-83.45 493.64,-76.5"/>
</g>
<!-- Node17 -->
<g id="node18" class="node">
<title>Node17</title>
<g id="a_node18"><a xlink:href="classmini_1_1coordinate_1_1Wedge6.html" target="_top" xlink:title="Coordinate map on 6&#45;node wedge elements.">
<polygon fill="white" stroke="black" points="549,-0.5 549,-30.5 690,-30.5 690,-0.5 549,-0.5"/>
<text text-anchor="start" x="557" y="-18.5" font-family="Helvetica,sans-Serif" font-size="10.00">mini::coordinate::Wedge6</text>
<text text-anchor="middle" x="619.5" y="-7.5" font-family="Helvetica,sans-Serif" font-size="10.00">&lt; Scalar &gt;</text>
</a>
</g>
</g>
<!-- Node14&#45;&gt;Node17 -->
<g id="edge17" class="edge">
<title>Node14&#45;&gt;Node17</title>
<path fill="none" stroke="midnightblue" d="M459.7,-70.2C481.37,-60.64 508.34,-49.3 533,-40.5 542.76,-37.02 553.27,-33.64 563.46,-30.56"/>
<polygon fill="midnightblue" stroke="midnightblue" points="458.17,-67.05 450.45,-74.31 461.01,-73.44 458.17,-67.05"/>
</g>
</g>
</svg>
