<?xml version="1.0" encoding="UTF-8" standalone="no"?>
<!DOCTYPE svg PUBLIC "-//W3C//DTD SVG 1.1//EN"
 "http://www.w3.org/Graphics/SVG/1.1/DTD/svg11.dtd">
<!-- Generated by graphviz version 2.43.0 (0)
 -->
<!-- Title: Graphical Class Hierarchy Pages: 1 -->
<svg width="295pt" height="50pt"
 viewBox="0.00 0.00 295.00 50.00" xmlns="http://www.w3.org/2000/svg" xmlns:xlink="http://www.w3.org/1999/xlink">
<g id="graph0" class="graph" transform="scale(1 1) rotate(0) translate(4 46)">
<title>Graphical Class Hierarchy</title>
<polygon fill="white" stroke="transparent" points="-4,4 -4,-46 291,-46 291,4 -4,4"/>
<!-- Node0 -->
<g id="node1" class="node">
<title>Node0</title>
<g id="a_node1"><a xlink:href="classmini_1_1mesh_1_1metis_1_1SparseGraph.html" target="_top" xlink:title="A CSR (Compressed Sparse Row) representation of sparse graphs.">
<polygon fill="white" stroke="black" points="0,-6 0,-36 114,-36 114,-6 0,-6"/>
<text text-anchor="start" x="8" y="-24" font-family="Helvetica,sans-Serif" font-size="10.00">mini::mesh::metis::</text>
<text text-anchor="middle" x="57" y="-13" font-family="Helvetica,sans-Serif" font-size="10.00">SparseGraph&lt; Int &gt;</text>
</a>
</g>
</g>
<!-- Node1 -->
<g id="node2" class="node">
<title>Node1</title>
<g id="a_node2"><a xlink:href="classmini_1_1mesh_1_1metis_1_1SparseGraphWithDeleter.html" target="_top" xlink:title="A wrapper, which holds arrays allocated by METIS, on SparseGraph.">
<polygon fill="white" stroke="black" points="150,-0.5 150,-41.5 287,-41.5 287,-0.5 150,-0.5"/>
<text text-anchor="start" x="158" y="-29.5" font-family="Helvetica,sans-Serif" font-size="10.00">mini::mesh::metis::</text>
<text text-anchor="start" x="158" y="-18.5" font-family="Helvetica,sans-Serif" font-size="10.00">SparseGraphWithDeleter</text>
<text text-anchor="middle" x="218.5" y="-7.5" font-family="Helvetica,sans-Serif" font-size="10.00">&lt; Int &gt;</text>
</a>
</g>
</g>
<!-- Node0&#45;&gt;Node1 -->
<g id="edge1" class="edge">
<title>Node0&#45;&gt;Node1</title>
<path fill="none" stroke="midnightblue" d="M124.34,-21C132.73,-21 141.33,-21 149.74,-21"/>
<polygon fill="midnightblue" stroke="midnightblue" points="124.23,-17.5 114.23,-21 124.23,-24.5 124.23,-17.5"/>
</g>
</g>
</svg>
