<?xml version="1.0" encoding="UTF-8" standalone="no"?>
<!DOCTYPE svg PUBLIC "-//W3C//DTD SVG 1.1//EN"
 "http://www.w3.org/Graphics/SVG/1.1/DTD/svg11.dtd">
<!-- Generated by graphviz version 2.43.0 (0)
 -->
<!-- Title: Graphical Class Hierarchy Pages: 1 -->
<svg width="305pt" height="1254pt"
 viewBox="0.00 0.00 305.00 1254.00" xmlns="http://www.w3.org/2000/svg" xmlns:xlink="http://www.w3.org/1999/xlink">
<g id="graph0" class="graph" transform="scale(1 1) rotate(0) translate(4 1250)">
<title>Graphical Class Hierarchy</title>
<polygon fill="white" stroke="transparent" points="-4,4 -4,-1250 301,-1250 301,4 -4,4"/>
<!-- Node273 -->
<g id="node1" class="node">
<title>Node273</title>
<g id="a_node1"><a xlink:title=" ">
<polygon fill="white" stroke="#bfbfbf" points="0,-616 0,-635 101,-635 101,-616 0,-616"/>
<text text-anchor="middle" x="50.5" y="-623" font-family="Helvetica,sans-Serif" font-size="10.00">unittest.TestCase</text>
</a>
</g>
</g>
<!-- Node0 -->
<g id="node2" class="node">
<title>Node0</title>
<g id="a_node2"><a xlink:href="classpython_1_1test__coordinate_1_1TestLinear.html" target="_top" xlink:title=" ">
<polygon fill="white" stroke="black" points="141,-1215.5 141,-1245.5 293,-1245.5 293,-1215.5 141,-1215.5"/>
<text text-anchor="start" x="149" y="-1233.5" font-family="Helvetica,sans-Serif" font-size="10.00">python.test_coordinate.Test</text>
<text text-anchor="middle" x="217" y="-1222.5" font-family="Helvetica,sans-Serif" font-size="10.00">Linear</text>
</a>
</g>
</g>
<!-- Node273&#45;&gt;Node0 -->
<g id="edge1" class="edge">
<title>Node273&#45;&gt;Node0</title>
<path fill="none" stroke="midnightblue" d="M51.67,-645.32C52.84,-737.05 62.19,-1119.64 137,-1206.5 139.9,-1209.87 143.26,-1212.77 146.91,-1215.27"/>
<polygon fill="midnightblue" stroke="midnightblue" points="55.17,-645.15 51.56,-635.19 48.17,-645.23 55.17,-645.15"/>
</g>
<!-- Node275 -->
<g id="node3" class="node">
<title>Node275</title>
<g id="a_node3"><a xlink:href="classpython_1_1test__detector_1_1TestDetectors.html" target="_top" xlink:title="Test various jump detectors.">
<polygon fill="white" stroke="black" points="147,-1166.5 147,-1196.5 287,-1196.5 287,-1166.5 147,-1166.5"/>
<text text-anchor="start" x="155" y="-1184.5" font-family="Helvetica,sans-Serif" font-size="10.00">python.test_detector.Test</text>
<text text-anchor="middle" x="217" y="-1173.5" font-family="Helvetica,sans-Serif" font-size="10.00">Detectors</text>
</a>
</g>
</g>
<!-- Node273&#45;&gt;Node275 -->
<g id="edge2" class="edge">
<title>Node273&#45;&gt;Node275</title>
<path fill="none" stroke="midnightblue" d="M51.96,-645.28C54.38,-732.11 68.27,-1078.75 137,-1157.5 140.02,-1160.96 143.51,-1163.92 147.32,-1166.47"/>
<polygon fill="midnightblue" stroke="midnightblue" points="55.46,-645.11 51.7,-635.2 48.46,-645.29 55.46,-645.11"/>
</g>
<!-- Node276 -->
<g id="node4" class="node">
<title>Node276</title>
<g id="a_node4"><a xlink:href="classpython_1_1test__element_1_1TestDGonGaussPoints.html" target="_top" xlink:title="Test elements for implementing discontinuous Galerkin schemes.">
<polygon fill="white" stroke="black" points="147,-1117.5 147,-1147.5 287,-1147.5 287,-1117.5 147,-1117.5"/>
<text text-anchor="start" x="155" y="-1135.5" font-family="Helvetica,sans-Serif" font-size="10.00">python.test_element.Test</text>
<text text-anchor="middle" x="217" y="-1124.5" font-family="Helvetica,sans-Serif" font-size="10.00">DGonGaussPoints</text>
</a>
</g>
</g>
<!-- Node273&#45;&gt;Node276 -->
<g id="edge3" class="edge">
<title>Node273&#45;&gt;Node276</title>
<path fill="none" stroke="midnightblue" d="M52.33,-645.49C56.11,-727.61 74.39,-1037.91 137,-1108.5 140.04,-1111.93 143.56,-1114.88 147.39,-1117.41"/>
<polygon fill="midnightblue" stroke="midnightblue" points="55.8,-644.93 51.87,-635.09 48.81,-645.23 55.8,-644.93"/>
</g>
<!-- Node277 -->
<g id="node5" class="node">
<title>Node277</title>
<g id="a_node5"><a xlink:href="classpython_1_1test__element_1_1TestFRonGaussPoints.html" target="_top" xlink:title="Test elements for implementing flux reconstruction schemes.">
<polygon fill="white" stroke="black" points="147,-1068.5 147,-1098.5 287,-1098.5 287,-1068.5 147,-1068.5"/>
<text text-anchor="start" x="155" y="-1086.5" font-family="Helvetica,sans-Serif" font-size="10.00">python.test_element.Test</text>
<text text-anchor="middle" x="217" y="-1075.5" font-family="Helvetica,sans-Serif" font-size="10.00">FRonGaussPoints</text>
</a>
</g>
</g>
<!-- Node273&#45;&gt;Node277 -->
<g id="edge4" class="edge">
<title>Node273&#45;&gt;Node277</title>
<path fill="none" stroke="midnightblue" d="M52.76,-645.41C57.98,-722.06 80.41,-996.92 137,-1059.5 140.08,-1062.9 143.62,-1065.83 147.46,-1068.35"/>
<polygon fill="midnightblue" stroke="midnightblue" points="56.23,-644.97 52.08,-635.23 49.25,-645.43 56.23,-644.97"/>
</g>
<!-- Node278 -->
<g id="node6" class="node">
<title>Node278</title>
<g id="a_node6"><a xlink:href="classpython_1_1test__element_1_1TestFRonLegendreRoots.html" target="_top" xlink:title="Test the element for implementing flux reconstruction schemes.">
<polygon fill="white" stroke="black" points="147,-1019.5 147,-1049.5 287,-1049.5 287,-1019.5 147,-1019.5"/>
<text text-anchor="start" x="155" y="-1037.5" font-family="Helvetica,sans-Serif" font-size="10.00">python.test_element.Test</text>
<text text-anchor="middle" x="217" y="-1026.5" font-family="Helvetica,sans-Serif" font-size="10.00">FRonLegendreRoots</text>
</a>
</g>
</g>
<!-- Node273&#45;&gt;Node278 -->
<g id="edge5" class="edge">
<title>Node273&#45;&gt;Node278</title>
<path fill="none" stroke="midnightblue" d="M53.3,-645.4C60.09,-716.39 86.42,-955.9 137,-1010.5 140.21,-1013.97 143.91,-1016.94 147.92,-1019.49"/>
<polygon fill="midnightblue" stroke="midnightblue" points="56.76,-644.8 52.34,-635.17 49.79,-645.45 56.76,-644.8"/>
</g>
<!-- Node279 -->
<g id="node7" class="node">
<title>Node279</title>
<g id="a_node7"><a xlink:href="classpython_1_1test__equation_1_1TestEquations.html" target="_top" xlink:title="Test methods for getting fluxes and Jacobians of various PDEs.">
<polygon fill="white" stroke="black" points="145.5,-970.5 145.5,-1000.5 288.5,-1000.5 288.5,-970.5 145.5,-970.5"/>
<text text-anchor="start" x="153.5" y="-988.5" font-family="Helvetica,sans-Serif" font-size="10.00">python.test_equation.Test</text>
<text text-anchor="middle" x="217" y="-977.5" font-family="Helvetica,sans-Serif" font-size="10.00">Equations</text>
</a>
</g>
</g>
<!-- Node273&#45;&gt;Node279 -->
<g id="edge6" class="edge">
<title>Node273&#45;&gt;Node279</title>
<path fill="none" stroke="midnightblue" d="M53.98,-645.34C62.48,-710.26 92.38,-914.79 137,-961.5 140.27,-964.92 144.01,-967.86 148.04,-970.38"/>
<polygon fill="midnightblue" stroke="midnightblue" points="57.43,-644.7 52.68,-635.23 50.49,-645.59 57.43,-644.7"/>
</g>
<!-- Node280 -->
<g id="node8" class="node">
<title>Node280</title>
<g id="a_node8"><a xlink:href="classpython_1_1test__expansion_1_1TestLagrangeOnLegendreRoots.html" target="_top" xlink:title="Test the expansion.LagrangeOnLegendreRoots class.">
<polygon fill="white" stroke="black" points="142,-921.5 142,-951.5 292,-951.5 292,-921.5 142,-921.5"/>
<text text-anchor="start" x="150" y="-939.5" font-family="Helvetica,sans-Serif" font-size="10.00">python.test_expansion.Test</text>
<text text-anchor="middle" x="217" y="-928.5" font-family="Helvetica,sans-Serif" font-size="10.00">LagrangeOnLegendreRoots</text>
</a>
</g>
</g>
<!-- Node273&#45;&gt;Node280 -->
<g id="edge7" class="edge">
<title>Node273&#45;&gt;Node280</title>
<path fill="none" stroke="midnightblue" d="M51.36,-645.09C52.1,-696.47 61.33,-836.42 137,-912.5 140.44,-915.96 144.35,-918.92 148.56,-921.45"/>
<polygon fill="midnightblue" stroke="midnightblue" points="54.86,-645 51.32,-635.01 47.86,-645.03 54.86,-645"/>
</g>
<!-- Node281 -->
<g id="node9" class="node">
<title>Node281</title>
<g id="a_node9"><a xlink:href="classpython_1_1test__expansion_1_1TestLagrangeOnLobattoRoots.html" target="_top" xlink:title="Test the expansion.LagrangeOnLobattoRoots class.">
<polygon fill="white" stroke="black" points="142,-872.5 142,-902.5 292,-902.5 292,-872.5 142,-872.5"/>
<text text-anchor="start" x="150" y="-890.5" font-family="Helvetica,sans-Serif" font-size="10.00">python.test_expansion.Test</text>
<text text-anchor="middle" x="217" y="-879.5" font-family="Helvetica,sans-Serif" font-size="10.00">LagrangeOnLobattoRoots</text>
</a>
</g>
</g>
<!-- Node273&#45;&gt;Node281 -->
<g id="edge8" class="edge">
<title>Node273&#45;&gt;Node281</title>
<path fill="none" stroke="midnightblue" d="M52.79,-645.34C56.82,-690.68 73.07,-802.69 137,-863.5 140.64,-866.96 144.75,-869.92 149.15,-872.45"/>
<polygon fill="midnightblue" stroke="midnightblue" points="56.28,-645.01 52.01,-635.31 49.3,-645.56 56.28,-645.01"/>
</g>
<!-- Node282 -->
<g id="node10" class="node">
<title>Node282</title>
<g id="a_node10"><a xlink:href="classpython_1_1test__expansion_1_1TestLagrangeOnUniformRoots.html" target="_top" xlink:title="Test the expansion.LagrangeOnUniformRoots class.">
<polygon fill="white" stroke="black" points="142,-823.5 142,-853.5 292,-853.5 292,-823.5 142,-823.5"/>
<text text-anchor="start" x="150" y="-841.5" font-family="Helvetica,sans-Serif" font-size="10.00">python.test_expansion.Test</text>
<text text-anchor="middle" x="217" y="-830.5" font-family="Helvetica,sans-Serif" font-size="10.00">LagrangeOnUniformRoots</text>
</a>
</g>
</g>
<!-- Node273&#45;&gt;Node282 -->
<g id="edge9" class="edge">
<title>Node273&#45;&gt;Node282</title>
<path fill="none" stroke="midnightblue" d="M54.89,-645.36C62.5,-683.75 84.53,-768.44 137,-814.5 140.88,-817.9 145.23,-820.83 149.84,-823.33"/>
<polygon fill="midnightblue" stroke="midnightblue" points="58.31,-644.61 53.05,-635.42 51.43,-645.89 58.31,-644.61"/>
</g>
<!-- Node283 -->
<g id="node11" class="node">
<title>Node283</title>
<g id="a_node11"><a xlink:href="classpython_1_1test__expansion_1_1TestLegendre.html" target="_top" xlink:title="Test the Legendre class.">
<polygon fill="white" stroke="black" points="142,-774.5 142,-804.5 292,-804.5 292,-774.5 142,-774.5"/>
<text text-anchor="start" x="150" y="-792.5" font-family="Helvetica,sans-Serif" font-size="10.00">python.test_expansion.Test</text>
<text text-anchor="middle" x="217" y="-781.5" font-family="Helvetica,sans-Serif" font-size="10.00">Legendre</text>
</a>
</g>
</g>
<!-- Node273&#45;&gt;Node283 -->
<g id="edge10" class="edge">
<title>Node273&#45;&gt;Node283</title>
<path fill="none" stroke="midnightblue" d="M58.1,-644.75C69.44,-674.96 95.5,-733.38 137,-765.5 141.42,-768.92 146.33,-771.86 151.47,-774.38"/>
<polygon fill="midnightblue" stroke="midnightblue" points="61.39,-643.54 54.7,-635.33 54.8,-645.92 61.39,-643.54"/>
</g>
<!-- Node284 -->
<g id="node12" class="node">
<title>Node284</title>
<g id="a_node12"><a xlink:href="classpython_1_1test__expansion_1_1TestTaylor.html" target="_top" xlink:title="Test the expansion.Taylor class.">
<polygon fill="white" stroke="black" points="142,-725.5 142,-755.5 292,-755.5 292,-725.5 142,-725.5"/>
<text text-anchor="start" x="150" y="-743.5" font-family="Helvetica,sans-Serif" font-size="10.00">python.test_expansion.Test</text>
<text text-anchor="middle" x="217" y="-732.5" font-family="Helvetica,sans-Serif" font-size="10.00">Taylor</text>
</a>
</g>
</g>
<!-- Node273&#45;&gt;Node284 -->
<g id="edge11" class="edge">
<title>Node273&#45;&gt;Node284</title>
<path fill="none" stroke="midnightblue" d="M63.63,-643.19C78.59,-663.71 105.88,-697.17 137,-716.5 142.48,-719.9 148.47,-722.85 154.63,-725.4"/>
<polygon fill="midnightblue" stroke="midnightblue" points="66.47,-641.15 57.83,-635.02 60.77,-645.2 66.47,-641.15"/>
</g>
<!-- Node285 -->
<g id="node13" class="node">
<title>Node285</title>
<g id="a_node13"><a xlink:href="classpython_1_1test__expansion_1_1TestTruncatedLegendre.html" target="_top" xlink:title="Test the TruncatedLegendre class.">
<polygon fill="white" stroke="black" points="142,-676.5 142,-706.5 292,-706.5 292,-676.5 142,-676.5"/>
<text text-anchor="start" x="150" y="-694.5" font-family="Helvetica,sans-Serif" font-size="10.00">python.test_expansion.Test</text>
<text text-anchor="middle" x="217" y="-683.5" font-family="Helvetica,sans-Serif" font-size="10.00">TruncatedLegendre</text>
</a>
</g>
</g>
<!-- Node273&#45;&gt;Node285 -->
<g id="edge12" class="edge">
<title>Node273&#45;&gt;Node285</title>
<path fill="none" stroke="midnightblue" d="M78.63,-639.72C95.23,-648.11 117.04,-658.6 137,-666.5 145.83,-669.99 155.36,-673.35 164.63,-676.4"/>
<polygon fill="midnightblue" stroke="midnightblue" points="80.01,-636.49 69.52,-635.06 76.82,-642.73 80.01,-636.49"/>
</g>
<!-- Node286 -->
<g id="node14" class="node">
<title>Node286</title>
<g id="a_node14"><a xlink:href="classpython_1_1test__gas_1_1TestIdealGas.html" target="_top" xlink:title="Test the IdealGas class.">
<polygon fill="white" stroke="black" points="137,-638 137,-657 297,-657 297,-638 137,-638"/>
<text text-anchor="middle" x="217" y="-645" font-family="Helvetica,sans-Serif" font-size="10.00">python.test_gas.TestIdealGas</text>
</a>
</g>
</g>
<!-- Node273&#45;&gt;Node286 -->
<g id="edge13" class="edge">
<title>Node273&#45;&gt;Node286</title>
<path fill="none" stroke="midnightblue" d="M111.49,-633.52C122.32,-634.97 133.71,-636.49 144.82,-637.98"/>
<polygon fill="midnightblue" stroke="midnightblue" points="111.68,-630.02 101.3,-632.16 110.75,-636.96 111.68,-630.02"/>
</g>
<!-- Node287 -->
<g id="node15" class="node">
<title>Node287</title>
<g id="a_node15"><a xlink:href="classpython_1_1test__integrator_1_1TestGaussOnLinearCoordinate.html" target="_top" xlink:title=" ">
<polygon fill="white" stroke="black" points="143.5,-588.5 143.5,-618.5 290.5,-618.5 290.5,-588.5 143.5,-588.5"/>
<text text-anchor="start" x="151.5" y="-606.5" font-family="Helvetica,sans-Serif" font-size="10.00">python.test_integrator.Test</text>
<text text-anchor="middle" x="217" y="-595.5" font-family="Helvetica,sans-Serif" font-size="10.00">GaussOnLinearCoordinate</text>
</a>
</g>
</g>
<!-- Node273&#45;&gt;Node287 -->
<g id="edge14" class="edge">
<title>Node273&#45;&gt;Node287</title>
<path fill="none" stroke="midnightblue" d="M111.45,-617.48C121.8,-616.1 132.66,-614.65 143.31,-613.22"/>
<polygon fill="midnightblue" stroke="midnightblue" points="110.75,-614.04 101.3,-618.84 111.68,-620.98 110.75,-614.04"/>
</g>
<!-- Node288 -->
<g id="node16" class="node">
<title>Node288</title>
<g id="a_node16"><a xlink:href="classpython_1_1test__limiter_1_1TestLimiters.html" target="_top" xlink:title="Test various oscillation limiters.">
<polygon fill="white" stroke="black" points="151.5,-539.5 151.5,-569.5 282.5,-569.5 282.5,-539.5 151.5,-539.5"/>
<text text-anchor="start" x="159.5" y="-557.5" font-family="Helvetica,sans-Serif" font-size="10.00">python.test_limiter.Test</text>
<text text-anchor="middle" x="217" y="-546.5" font-family="Helvetica,sans-Serif" font-size="10.00">Limiters</text>
</a>
</g>
</g>
<!-- Node273&#45;&gt;Node288 -->
<g id="edge15" class="edge">
<title>Node273&#45;&gt;Node288</title>
<path fill="none" stroke="midnightblue" d="M75.77,-610.86C92.56,-601.13 115.65,-588.53 137,-579.5 145.48,-575.91 154.66,-572.56 163.65,-569.54"/>
<polygon fill="midnightblue" stroke="midnightblue" points="73.98,-607.85 67.13,-615.93 77.53,-613.89 73.98,-607.85"/>
</g>
<!-- Node289 -->
<g id="node17" class="node">
<title>Node289</title>
<g id="a_node17"><a xlink:href="classpython_1_1test__polynomial_1_1TestHuynh.html" target="_top" xlink:title="Test the Huynh class.">
<polygon fill="white" stroke="black" points="139.5,-490.5 139.5,-520.5 294.5,-520.5 294.5,-490.5 139.5,-490.5"/>
<text text-anchor="start" x="147.5" y="-508.5" font-family="Helvetica,sans-Serif" font-size="10.00">python.test_polynomial.Test</text>
<text text-anchor="middle" x="217" y="-497.5" font-family="Helvetica,sans-Serif" font-size="10.00">Huynh</text>
</a>
</g>
</g>
<!-- Node273&#45;&gt;Node289 -->
<g id="edge16" class="edge">
<title>Node273&#45;&gt;Node289</title>
<path fill="none" stroke="midnightblue" d="M63.26,-607.4C78.03,-586.06 105.31,-550.91 137,-530.5 142.93,-526.68 149.48,-523.41 156.2,-520.62"/>
<polygon fill="midnightblue" stroke="midnightblue" points="60.24,-605.63 57.55,-615.88 66.04,-609.54 60.24,-605.63"/>
</g>
<!-- Node290 -->
<g id="node18" class="node">
<title>Node290</title>
<g id="a_node18"><a xlink:href="classpython_1_1test__polynomial_1_1TestLagrangeBasis.html" target="_top" xlink:title="Test the LagrangeBasis class.">
<polygon fill="white" stroke="black" points="139.5,-441.5 139.5,-471.5 294.5,-471.5 294.5,-441.5 139.5,-441.5"/>
<text text-anchor="start" x="147.5" y="-459.5" font-family="Helvetica,sans-Serif" font-size="10.00">python.test_polynomial.Test</text>
<text text-anchor="middle" x="217" y="-448.5" font-family="Helvetica,sans-Serif" font-size="10.00">LagrangeBasis</text>
</a>
</g>
</g>
<!-- Node273&#45;&gt;Node290 -->
<g id="edge17" class="edge">
<title>Node273&#45;&gt;Node290</title>
<path fill="none" stroke="midnightblue" d="M57.83,-606.21C68.93,-575.36 94.83,-514.96 137,-481.5 141.85,-477.66 147.29,-474.4 153,-471.64"/>
<polygon fill="midnightblue" stroke="midnightblue" points="54.47,-605.21 54.52,-615.8 61.09,-607.49 54.47,-605.21"/>
</g>
<!-- Node291 -->
<g id="node19" class="node">
<title>Node291</title>
<g id="a_node19"><a xlink:href="classpython_1_1test__polynomial_1_1TestRadau.html" target="_top" xlink:title="Test the Radau class.">
<polygon fill="white" stroke="black" points="139.5,-392.5 139.5,-422.5 294.5,-422.5 294.5,-392.5 139.5,-392.5"/>
<text text-anchor="start" x="147.5" y="-410.5" font-family="Helvetica,sans-Serif" font-size="10.00">python.test_polynomial.Test</text>
<text text-anchor="middle" x="217" y="-399.5" font-family="Helvetica,sans-Serif" font-size="10.00">Radau</text>
</a>
</g>
</g>
<!-- Node273&#45;&gt;Node291 -->
<g id="edge18" class="edge">
<title>Node273&#45;&gt;Node291</title>
<path fill="none" stroke="midnightblue" d="M54.71,-605.83C62.07,-566.99 83.82,-480.11 137,-432.5 141.29,-428.66 146.16,-425.41 151.34,-422.66"/>
<polygon fill="midnightblue" stroke="midnightblue" points="51.23,-605.39 52.93,-615.84 58.12,-606.61 51.23,-605.39"/>
</g>
<!-- Node292 -->
<g id="node20" class="node">
<title>Node292</title>
<g id="a_node20"><a xlink:href="classpython_1_1test__polynomial_1_1TestVincent.html" target="_top" xlink:title="Test the Vincent class.">
<polygon fill="white" stroke="black" points="139.5,-343.5 139.5,-373.5 294.5,-373.5 294.5,-343.5 139.5,-343.5"/>
<text text-anchor="start" x="147.5" y="-361.5" font-family="Helvetica,sans-Serif" font-size="10.00">python.test_polynomial.Test</text>
<text text-anchor="middle" x="217" y="-350.5" font-family="Helvetica,sans-Serif" font-size="10.00">Vincent</text>
</a>
</g>
</g>
<!-- Node273&#45;&gt;Node292 -->
<g id="edge19" class="edge">
<title>Node273&#45;&gt;Node292</title>
<path fill="none" stroke="midnightblue" d="M52.73,-605.39C56.64,-559.41 72.64,-445.76 137,-383.5 141.03,-379.6 145.67,-376.31 150.63,-373.53"/>
<polygon fill="midnightblue" stroke="midnightblue" points="49.23,-605.32 51.98,-615.55 56.21,-605.84 49.23,-605.32"/>
</g>
<!-- Node293 -->
<g id="node21" class="node">
<title>Node293</title>
<g id="a_node21"><a xlink:href="classpython_1_1test__riemann_1_1TestCoupled.html" target="_top" xlink:title=" ">
<polygon fill="white" stroke="black" points="147,-294.5 147,-324.5 287,-324.5 287,-294.5 147,-294.5"/>
<text text-anchor="start" x="155" y="-312.5" font-family="Helvetica,sans-Serif" font-size="10.00">python.test_riemann.Test</text>
<text text-anchor="middle" x="217" y="-301.5" font-family="Helvetica,sans-Serif" font-size="10.00">Coupled</text>
</a>
</g>
</g>
<!-- Node273&#45;&gt;Node293 -->
<g id="edge20" class="edge">
<title>Node273&#45;&gt;Node293</title>
<path fill="none" stroke="midnightblue" d="M51.32,-605.7C51.95,-553.73 60.95,-412.14 137,-334.5 140.83,-330.59 145.26,-327.3 150.03,-324.52"/>
<polygon fill="midnightblue" stroke="midnightblue" points="47.82,-605.87 51.3,-615.88 54.82,-605.89 47.82,-605.87"/>
</g>
<!-- Node294 -->
<g id="node22" class="node">
<title>Node294</title>
<g id="a_node22"><a xlink:href="classpython_1_1test__riemann_1_1TestEuler.html" target="_top" xlink:title=" ">
<polygon fill="white" stroke="black" points="147,-245.5 147,-275.5 287,-275.5 287,-245.5 147,-245.5"/>
<text text-anchor="start" x="155" y="-263.5" font-family="Helvetica,sans-Serif" font-size="10.00">python.test_riemann.Test</text>
<text text-anchor="middle" x="217" y="-252.5" font-family="Helvetica,sans-Serif" font-size="10.00">Euler</text>
</a>
</g>
</g>
<!-- Node273&#45;&gt;Node294 -->
<g id="edge21" class="edge">
<title>Node273&#45;&gt;Node294</title>
<path fill="none" stroke="midnightblue" d="M53.97,-605.44C62.43,-539.83 92.23,-333.05 137,-285.5 140.65,-281.62 144.89,-278.35 149.48,-275.58"/>
<polygon fill="midnightblue" stroke="midnightblue" points="50.46,-605.31 52.68,-615.67 57.4,-606.19 50.46,-605.31"/>
</g>
<!-- Node295 -->
<g id="node23" class="node">
<title>Node295</title>
<g id="a_node23"><a xlink:href="classpython_1_1test__riemann_1_1TestInviscidBurgers.html" target="_top" xlink:title=" ">
<polygon fill="white" stroke="black" points="147,-196.5 147,-226.5 287,-226.5 287,-196.5 147,-196.5"/>
<text text-anchor="start" x="155" y="-214.5" font-family="Helvetica,sans-Serif" font-size="10.00">python.test_riemann.Test</text>
<text text-anchor="middle" x="217" y="-203.5" font-family="Helvetica,sans-Serif" font-size="10.00">InviscidBurgers</text>
</a>
</g>
</g>
<!-- Node273&#45;&gt;Node295 -->
<g id="edge22" class="edge">
<title>Node273&#45;&gt;Node295</title>
<path fill="none" stroke="midnightblue" d="M53.29,-605.42C60.05,-533.76 86.3,-291.99 137,-236.5 140.49,-232.68 144.57,-229.43 148.99,-226.69"/>
<polygon fill="midnightblue" stroke="midnightblue" points="49.77,-605.46 52.34,-615.74 56.74,-606.1 49.77,-605.46"/>
</g>
<!-- Node296 -->
<g id="node24" class="node">
<title>Node296</title>
<g id="a_node24"><a xlink:href="classpython_1_1test__riemann_1_1TestLinearAdvection.html" target="_top" xlink:title=" ">
<polygon fill="white" stroke="black" points="147,-147.5 147,-177.5 287,-177.5 287,-147.5 147,-147.5"/>
<text text-anchor="start" x="155" y="-165.5" font-family="Helvetica,sans-Serif" font-size="10.00">python.test_riemann.Test</text>
<text text-anchor="middle" x="217" y="-154.5" font-family="Helvetica,sans-Serif" font-size="10.00">LinearAdvection</text>
</a>
</g>
</g>
<!-- Node273&#45;&gt;Node296 -->
<g id="edge23" class="edge">
<title>Node273&#45;&gt;Node296</title>
<path fill="none" stroke="midnightblue" d="M52.75,-605.43C57.95,-528.15 80.33,-251.01 137,-187.5 140.45,-183.64 144.49,-180.36 148.89,-177.59"/>
<polygon fill="midnightblue" stroke="midnightblue" points="49.24,-605.49 52.08,-615.69 56.22,-605.94 49.24,-605.49"/>
</g>
<!-- Node297 -->
<g id="node25" class="node">
<title>Node297</title>
<g id="a_node25"><a xlink:href="classpython_1_1test__spatial_1_1TestFRonLegendreRoots.html" target="_top" xlink:title="Test the element for implement flux reconstruction schemes.">
<polygon fill="white" stroke="black" points="150.5,-98.5 150.5,-128.5 283.5,-128.5 283.5,-98.5 150.5,-98.5"/>
<text text-anchor="start" x="158.5" y="-116.5" font-family="Helvetica,sans-Serif" font-size="10.00">python.test_spatial.Test</text>
<text text-anchor="middle" x="217" y="-105.5" font-family="Helvetica,sans-Serif" font-size="10.00">FRonLegendreRoots</text>
</a>
</g>
</g>
<!-- Node273&#45;&gt;Node297 -->
<g id="edge24" class="edge">
<title>Node273&#45;&gt;Node297</title>
<path fill="none" stroke="midnightblue" d="M52.32,-605.36C56.1,-522.65 74.35,-210.07 137,-138.5 140.79,-134.17 145.32,-130.58 150.28,-127.61"/>
<polygon fill="midnightblue" stroke="midnightblue" points="48.81,-605.7 51.87,-615.84 55.8,-606 48.81,-605.7"/>
</g>
<!-- Node298 -->
<g id="node26" class="node">
<title>Node298</title>
<g id="a_node26"><a xlink:href="classpython_1_1test__temporal_1_1TestExplicitEuler.html" target="_top" xlink:title="Test the ExplicitEuler class.">
<polygon fill="white" stroke="black" points="145,-49.5 145,-79.5 289,-79.5 289,-49.5 145,-49.5"/>
<text text-anchor="start" x="153" y="-67.5" font-family="Helvetica,sans-Serif" font-size="10.00">python.test_temporal.Test</text>
<text text-anchor="middle" x="217" y="-56.5" font-family="Helvetica,sans-Serif" font-size="10.00">ExplicitEuler</text>
</a>
</g>
</g>
<!-- Node273&#45;&gt;Node298 -->
<g id="edge25" class="edge">
<title>Node273&#45;&gt;Node298</title>
<path fill="none" stroke="midnightblue" d="M51.96,-605.6C54.38,-518.2 68.27,-169.26 137,-89.5 140.29,-85.69 144.15,-82.45 148.37,-79.7"/>
<polygon fill="midnightblue" stroke="midnightblue" points="48.46,-605.65 51.7,-615.74 55.46,-605.83 48.46,-605.65"/>
</g>
<!-- Node299 -->
<g id="node27" class="node">
<title>Node299</title>
<g id="a_node27"><a xlink:href="classpython_1_1test__temporal_1_1TestRungeKutta.html" target="_top" xlink:title="Test the RungeKutta class.">
<polygon fill="white" stroke="black" points="145,-0.5 145,-30.5 289,-30.5 289,-0.5 145,-0.5"/>
<text text-anchor="start" x="153" y="-18.5" font-family="Helvetica,sans-Serif" font-size="10.00">python.test_temporal.Test</text>
<text text-anchor="middle" x="217" y="-7.5" font-family="Helvetica,sans-Serif" font-size="10.00">RungeKutta</text>
</a>
</g>
</g>
<!-- Node273&#45;&gt;Node299 -->
<g id="edge26" class="edge">
<title>Node273&#45;&gt;Node299</title>
<path fill="none" stroke="midnightblue" d="M51.67,-605.57C52.85,-513.3 62.23,-128.42 137,-40.5 140.26,-36.66 144.11,-33.41 148.32,-30.65"/>
<polygon fill="midnightblue" stroke="midnightblue" points="48.17,-605.72 51.56,-615.75 55.17,-605.79 48.17,-605.72"/>
</g>
</g>
</svg>
