<?xml version="1.0" encoding="UTF-8" standalone="no"?>
<!DOCTYPE svg PUBLIC "-//W3C//DTD SVG 1.1//EN"
 "http://www.w3.org/Graphics/SVG/1.1/DTD/svg11.dtd">
<!-- Generated by graphviz version 2.43.0 (0)
 -->
<!-- Title: include/mini/integrator/face.hpp Pages: 1 -->
<svg width="588pt" height="240pt"
 viewBox="0.00 0.00 588.00 240.00" xmlns="http://www.w3.org/2000/svg" xmlns:xlink="http://www.w3.org/1999/xlink">
<g id="graph0" class="graph" transform="scale(1 1) rotate(0) translate(4 236)">
<title>include/mini/integrator/face.hpp</title>
<polygon fill="white" stroke="transparent" points="-4,4 -4,-236 584,-236 584,4 -4,4"/>
<!-- Node1 -->
<g id="node1" class="node">
<title>Node1</title>
<g id="a_node1"><a xlink:title=" ">
<polygon fill="#bfbfbf" stroke="black" points="211,-201.5 211,-231.5 339,-231.5 339,-201.5 211,-201.5"/>
<text text-anchor="start" x="219" y="-219.5" font-family="Helvetica,sans-Serif" font-size="10.00">include/mini/integrator</text>
<text text-anchor="middle" x="275" y="-208.5" font-family="Helvetica,sans-Serif" font-size="10.00">/face.hpp</text>
</a>
</g>
</g>
<!-- Node2 -->
<g id="node2" class="node">
<title>Node2</title>
<g id="a_node2"><a xlink:href="basis_2linear_8hpp.html" target="_top" xlink:title=" ">
<polygon fill="white" stroke="black" points="14.5,-134.5 14.5,-164.5 119.5,-164.5 119.5,-134.5 14.5,-134.5"/>
<text text-anchor="start" x="22.5" y="-152.5" font-family="Helvetica,sans-Serif" font-size="10.00">include/mini/basis</text>
<text text-anchor="middle" x="67" y="-141.5" font-family="Helvetica,sans-Serif" font-size="10.00">/linear.hpp</text>
</a>
</g>
</g>
<!-- Node1&#45;&gt;Node2 -->
<g id="edge1" class="edge">
<title>Node1&#45;&gt;Node2</title>
<path fill="none" stroke="midnightblue" d="M220.42,-198.44C186.7,-187.91 143.96,-174.55 112.15,-164.61"/>
<polygon fill="midnightblue" stroke="midnightblue" points="219.53,-201.83 230.12,-201.48 221.62,-195.15 219.53,-201.83"/>
</g>
<!-- Node5 -->
<g id="node5" class="node">
<title>Node5</title>
<g id="a_node5"><a xlink:href="integrator_2quadrangle_8hpp.html" target="_top" xlink:title=" ">
<polygon fill="white" stroke="black" points="138,-134.5 138,-164.5 266,-164.5 266,-134.5 138,-134.5"/>
<text text-anchor="start" x="146" y="-152.5" font-family="Helvetica,sans-Serif" font-size="10.00">include/mini/integrator</text>
<text text-anchor="middle" x="202" y="-141.5" font-family="Helvetica,sans-Serif" font-size="10.00">/quadrangle.hpp</text>
</a>
</g>
</g>
<!-- Node1&#45;&gt;Node5 -->
<g id="edge4" class="edge">
<title>Node1&#45;&gt;Node5</title>
<path fill="none" stroke="midnightblue" d="M251.53,-194.6C240.5,-184.78 227.66,-173.34 217.81,-164.58"/>
<polygon fill="midnightblue" stroke="midnightblue" points="249.36,-197.36 259.16,-201.4 254.02,-192.13 249.36,-197.36"/>
</g>
<!-- Node6 -->
<g id="node6" class="node">
<title>Node6</title>
<g id="a_node6"><a xlink:href="integrator_2triangle_8hpp.html" target="_top" xlink:title=" ">
<polygon fill="white" stroke="black" points="284,-134.5 284,-164.5 412,-164.5 412,-134.5 284,-134.5"/>
<text text-anchor="start" x="292" y="-152.5" font-family="Helvetica,sans-Serif" font-size="10.00">include/mini/integrator</text>
<text text-anchor="middle" x="348" y="-141.5" font-family="Helvetica,sans-Serif" font-size="10.00">/triangle.hpp</text>
</a>
</g>
</g>
<!-- Node1&#45;&gt;Node6 -->
<g id="edge5" class="edge">
<title>Node1&#45;&gt;Node6</title>
<path fill="none" stroke="midnightblue" d="M298.47,-194.6C309.5,-184.78 322.34,-173.34 332.19,-164.58"/>
<polygon fill="midnightblue" stroke="midnightblue" points="295.98,-192.13 290.84,-201.4 300.64,-197.36 295.98,-192.13"/>
</g>
<!-- Node8 -->
<g id="node8" class="node">
<title>Node8</title>
<g id="a_node8"><a xlink:href="part_8hpp.html" target="_top" xlink:title=" ">
<polygon fill="white" stroke="black" points="430,-140 430,-159 580,-159 580,-140 430,-140"/>
<text text-anchor="middle" x="505" y="-147" font-family="Helvetica,sans-Serif" font-size="10.00">include/mini/mesh/part.hpp</text>
</a>
</g>
</g>
<!-- Node1&#45;&gt;Node8 -->
<g id="edge7" class="edge">
<title>Node1&#45;&gt;Node8</title>
<path fill="none" stroke="midnightblue" d="M334.27,-198.75C379.25,-186.04 439.24,-169.09 474.82,-159.03"/>
<polygon fill="midnightblue" stroke="midnightblue" points="333.29,-195.39 324.62,-201.48 335.2,-202.12 333.29,-195.39"/>
</g>
<!-- Node3 -->
<g id="node3" class="node">
<title>Node3</title>
<g id="a_node3"><a xlink:href="projection_8hpp.html" target="_top" xlink:title=" ">
<polygon fill="white" stroke="black" points="0,-67.5 0,-97.5 134,-97.5 134,-67.5 0,-67.5"/>
<text text-anchor="start" x="8" y="-85.5" font-family="Helvetica,sans-Serif" font-size="10.00">include/mini/polynomial</text>
<text text-anchor="middle" x="67" y="-74.5" font-family="Helvetica,sans-Serif" font-size="10.00">/projection.hpp</text>
</a>
</g>
</g>
<!-- Node2&#45;&gt;Node3 -->
<g id="edge2" class="edge">
<title>Node2&#45;&gt;Node3</title>
<path fill="none" stroke="midnightblue" d="M67,-124.11C67,-115.15 67,-105.32 67,-97.58"/>
<polygon fill="midnightblue" stroke="midnightblue" points="63.5,-124.4 67,-134.4 70.5,-124.4 63.5,-124.4"/>
</g>
<!-- Node4 -->
<g id="node4" class="node">
<title>Node4</title>
<g id="a_node4"><a xlink:href="extrapolation_8hpp.html" target="_top" xlink:title=" ">
<polygon fill="white" stroke="black" points="0,-0.5 0,-30.5 134,-30.5 134,-0.5 0,-0.5"/>
<text text-anchor="start" x="8" y="-18.5" font-family="Helvetica,sans-Serif" font-size="10.00">include/mini/polynomial</text>
<text text-anchor="middle" x="67" y="-7.5" font-family="Helvetica,sans-Serif" font-size="10.00">/extrapolation.hpp</text>
</a>
</g>
</g>
<!-- Node3&#45;&gt;Node4 -->
<g id="edge3" class="edge">
<title>Node3&#45;&gt;Node4</title>
<path fill="none" stroke="midnightblue" d="M67,-57.11C67,-48.15 67,-38.32 67,-30.58"/>
<polygon fill="midnightblue" stroke="midnightblue" points="63.5,-57.4 67,-67.4 70.5,-57.4 63.5,-57.4"/>
</g>
<!-- Node7 -->
<g id="node7" class="node">
<title>Node7</title>
<g id="a_node7"><a xlink:href="integrator_2wedge_8hpp.html" target="_top" xlink:title=" ">
<polygon fill="white" stroke="black" points="284,-67.5 284,-97.5 412,-97.5 412,-67.5 284,-67.5"/>
<text text-anchor="start" x="292" y="-85.5" font-family="Helvetica,sans-Serif" font-size="10.00">include/mini/integrator</text>
<text text-anchor="middle" x="348" y="-74.5" font-family="Helvetica,sans-Serif" font-size="10.00">/wedge.hpp</text>
</a>
</g>
</g>
<!-- Node6&#45;&gt;Node7 -->
<g id="edge6" class="edge">
<title>Node6&#45;&gt;Node7</title>
<path fill="none" stroke="midnightblue" d="M348,-124.11C348,-115.15 348,-105.32 348,-97.58"/>
<polygon fill="midnightblue" stroke="midnightblue" points="344.5,-124.4 348,-134.4 351.5,-124.4 344.5,-124.4"/>
</g>
</g>
</svg>
