<?xml version="1.0" encoding="UTF-8" standalone="no"?>
<!DOCTYPE svg PUBLIC "-//W3C//DTD SVG 1.1//EN"
 "http://www.w3.org/Graphics/SVG/1.1/DTD/svg11.dtd">
<!-- Generated by graphviz version 2.43.0 (0)
 -->
<!-- Title: include/mini/integrator/triangle.hpp Pages: 1 -->
<svg width="1292pt" height="319pt"
 viewBox="0.00 0.00 1291.68 319.00" xmlns="http://www.w3.org/2000/svg" xmlns:xlink="http://www.w3.org/1999/xlink">
<g id="graph0" class="graph" transform="scale(1 1) rotate(0) translate(4 315)">
<title>include/mini/integrator/triangle.hpp</title>
<polygon fill="white" stroke="transparent" points="-4,4 -4,-315 1287.68,-315 1287.68,4 -4,4"/>
<!-- Node1 -->
<g id="node1" class="node">
<title>Node1</title>
<g id="a_node1"><a xlink:title=" ">
<polygon fill="#bfbfbf" stroke="black" points="215,-280.5 215,-310.5 343,-310.5 343,-280.5 215,-280.5"/>
<text text-anchor="start" x="223" y="-298.5" font-family="Helvetica,sans-Serif" font-size="10.00">include/mini/integrator</text>
<text text-anchor="middle" x="279" y="-287.5" font-family="Helvetica,sans-Serif" font-size="10.00">/triangle.hpp</text>
</a>
</g>
</g>
<!-- Node2 -->
<g id="node2" class="node">
<title>Node2</title>
<g id="a_node2"><a xlink:title=" ">
<polygon fill="white" stroke="#bfbfbf" points="468,-56.5 468,-75.5 528,-75.5 528,-56.5 468,-56.5"/>
<text text-anchor="middle" x="498" y="-63.5" font-family="Helvetica,sans-Serif" font-size="10.00">concepts</text>
</a>
</g>
</g>
<!-- Node1&#45;&gt;Node2 -->
<g id="edge1" class="edge">
<title>Node1&#45;&gt;Node2</title>
<path fill="none" stroke="midnightblue" d="M264.02,-280.34C250.77,-266.01 234.99,-243.3 245,-224 288.43,-140.28 398.46,-96.15 458.1,-77.7"/>
<polygon fill="midnightblue" stroke="midnightblue" points="459.35,-80.98 467.92,-74.75 457.34,-74.28 459.35,-80.98"/>
</g>
<!-- Node3 -->
<g id="node3" class="node">
<title>Node3</title>
<g id="a_node3"><a xlink:title=" ">
<polygon fill="white" stroke="#bfbfbf" points="124,-0.5 124,-19.5 188,-19.5 188,-0.5 124,-0.5"/>
<text text-anchor="middle" x="156" y="-7.5" font-family="Helvetica,sans-Serif" font-size="10.00">algorithm</text>
</a>
</g>
</g>
<!-- Node1&#45;&gt;Node3 -->
<g id="edge2" class="edge">
<title>Node1&#45;&gt;Node3</title>
<path fill="none" stroke="midnightblue" d="M214.99,-294.77C132.62,-291.37 0,-271.53 0,-179 0,-179 0,-179 0,-121 0,-65.12 67.69,-35.13 113.89,-21.17"/>
<polygon fill="midnightblue" stroke="midnightblue" points="115.04,-24.48 123.68,-18.35 113.1,-17.75 115.04,-24.48"/>
</g>
<!-- Node4 -->
<g id="node4" class="node">
<title>Node4</title>
<g id="a_node4"><a xlink:title=" ">
<polygon fill="white" stroke="#bfbfbf" points="1204,-56.5 1204,-75.5 1256,-75.5 1256,-56.5 1204,-56.5"/>
<text text-anchor="middle" x="1230" y="-63.5" font-family="Helvetica,sans-Serif" font-size="10.00">cassert</text>
</a>
</g>
</g>
<!-- Node1&#45;&gt;Node4 -->
<g id="edge3" class="edge">
<title>Node1&#45;&gt;Node4</title>
<path fill="none" stroke="midnightblue" d="M343.23,-294.83C497.52,-294.87 885.12,-290.22 1005,-244 1097.73,-208.25 1182.88,-120.35 1215.71,-83.59"/>
<polygon fill="midnightblue" stroke="midnightblue" points="1218.6,-85.6 1222.57,-75.78 1213.34,-80.98 1218.6,-85.6"/>
</g>
<!-- Node5 -->
<g id="node5" class="node">
<title>Node5</title>
<g id="a_node5"><a xlink:title=" ">
<polygon fill="white" stroke="#bfbfbf" points="206.5,-0.5 206.5,-19.5 253.5,-19.5 253.5,-0.5 206.5,-0.5"/>
<text text-anchor="middle" x="230" y="-7.5" font-family="Helvetica,sans-Serif" font-size="10.00">cmath</text>
</a>
</g>
</g>
<!-- Node1&#45;&gt;Node5 -->
<g id="edge4" class="edge">
<title>Node1&#45;&gt;Node5</title>
<path fill="none" stroke="midnightblue" d="M214.82,-286.38C159.29,-278.16 84.48,-263.83 62,-244 38.91,-223.63 38,-209.8 38,-179 38,-179 38,-179 38,-121 38,-90.2 39.23,-76.74 62,-56 105.66,-16.22 134.16,-34.17 196.36,-19.96"/>
<polygon fill="midnightblue" stroke="midnightblue" points="197.35,-23.32 206.21,-17.51 195.66,-16.53 197.35,-23.32"/>
</g>
<!-- Node6 -->
<g id="node6" class="node">
<title>Node6</title>
<g id="a_node6"><a xlink:title=" ">
<polygon fill="white" stroke="#bfbfbf" points="254,-224.5 254,-243.5 304,-243.5 304,-224.5 254,-224.5"/>
<text text-anchor="middle" x="279" y="-231.5" font-family="Helvetica,sans-Serif" font-size="10.00">cstring</text>
</a>
</g>
</g>
<!-- Node1&#45;&gt;Node6 -->
<g id="edge5" class="edge">
<title>Node1&#45;&gt;Node6</title>
<path fill="none" stroke="midnightblue" d="M279,-280.4C279,-272.47 279,-262.46 279,-253.86"/>
<polygon fill="midnightblue" stroke="midnightblue" points="282.5,-253.66 279,-243.66 275.5,-253.66 282.5,-253.66"/>
</g>
<!-- Node7 -->
<g id="node7" class="node">
<title>Node7</title>
<g id="a_node7"><a xlink:title=" ">
<polygon fill="white" stroke="#bfbfbf" points="476.5,-0.5 476.5,-19.5 545.5,-19.5 545.5,-0.5 476.5,-0.5"/>
<text text-anchor="middle" x="511" y="-7.5" font-family="Helvetica,sans-Serif" font-size="10.00">type_traits</text>
</a>
</g>
</g>
<!-- Node1&#45;&gt;Node7 -->
<g id="edge6" class="edge">
<title>Node1&#45;&gt;Node7</title>
<path fill="none" stroke="midnightblue" d="M214.77,-285.33C155.3,-272.78 76,-243.88 76,-179 76,-179 76,-179 76,-121 76,-90.9 71.92,-75.32 95,-56 98.54,-53.03 359.26,-26.35 466.1,-15.53"/>
<polygon fill="midnightblue" stroke="midnightblue" points="466.64,-18.99 476.24,-14.5 465.94,-12.03 466.64,-18.99"/>
</g>
<!-- Node8 -->
<g id="node8" class="node">
<title>Node8</title>
<g id="a_node8"><a xlink:title=" ">
<polygon fill="white" stroke="#bfbfbf" points="428,-112.5 428,-131.5 486,-131.5 486,-112.5 428,-112.5"/>
<text text-anchor="middle" x="457" y="-119.5" font-family="Helvetica,sans-Serif" font-size="10.00">memory</text>
</a>
</g>
</g>
<!-- Node1&#45;&gt;Node8 -->
<g id="edge7" class="edge">
<title>Node1&#45;&gt;Node8</title>
<path fill="none" stroke="midnightblue" d="M343.32,-285.46C390.95,-277.29 450.06,-263.54 465,-244 487.93,-214.02 474.82,-166.68 464.9,-141"/>
<polygon fill="midnightblue" stroke="midnightblue" points="468.13,-139.64 461.09,-131.73 461.65,-142.31 468.13,-139.64"/>
</g>
<!-- Node9 -->
<g id="node9" class="node">
<title>Node9</title>
<g id="a_node9"><a xlink:href="integrator_2face_8hpp.html" target="_top" xlink:title=" ">
<polygon fill="white" stroke="black" points="322,-224.5 322,-243.5 456,-243.5 456,-224.5 322,-224.5"/>
<text text-anchor="middle" x="389" y="-231.5" font-family="Helvetica,sans-Serif" font-size="10.00">mini/integrator/face.hpp</text>
</a>
</g>
</g>
<!-- Node1&#45;&gt;Node9 -->
<g id="edge8" class="edge">
<title>Node1&#45;&gt;Node9</title>
<path fill="none" stroke="midnightblue" d="M305.07,-280.4C322.87,-270.77 346.31,-258.09 363.9,-248.58"/>
<polygon fill="midnightblue" stroke="midnightblue" points="365.86,-251.49 372.99,-243.66 362.53,-245.34 365.86,-251.49"/>
</g>
<!-- Node25 -->
<g id="node25" class="node">
<title>Node25</title>
<g id="a_node25"><a xlink:href="coordinate_2triangle_8hpp.html" target="_top" xlink:title=" ">
<polygon fill="white" stroke="black" points="840.5,-224.5 840.5,-243.5 995.5,-243.5 995.5,-224.5 840.5,-224.5"/>
<text text-anchor="middle" x="918" y="-231.5" font-family="Helvetica,sans-Serif" font-size="10.00">mini/coordinate/triangle.hpp</text>
</a>
</g>
</g>
<!-- Node1&#45;&gt;Node25 -->
<g id="edge47" class="edge">
<title>Node1&#45;&gt;Node25</title>
<path fill="none" stroke="midnightblue" d="M343.2,-288.52C458.21,-277.81 699.54,-255.34 829.92,-243.2"/>
<polygon fill="midnightblue" stroke="midnightblue" points="830.63,-246.65 840.27,-242.24 829.98,-239.68 830.63,-246.65"/>
</g>
<!-- Node9&#45;&gt;Node2 -->
<g id="edge9" class="edge">
<title>Node9&#45;&gt;Node2</title>
<path fill="none" stroke="midnightblue" d="M388.91,-224.41C389.12,-203.14 392.35,-147.2 419,-112 429.97,-97.51 447.04,-86.96 462.52,-79.72"/>
<polygon fill="midnightblue" stroke="midnightblue" points="464.11,-82.85 471.88,-75.65 461.31,-76.43 464.11,-82.85"/>
</g>
<!-- Node9&#45;&gt;Node8 -->
<g id="edge10" class="edge">
<title>Node9&#45;&gt;Node8</title>
<path fill="none" stroke="midnightblue" d="M394.34,-224.37C405.51,-206.3 431.55,-164.18 446.3,-140.31"/>
<polygon fill="midnightblue" stroke="midnightblue" points="449.41,-141.94 451.69,-131.59 443.45,-138.26 449.41,-141.94"/>
</g>
<!-- Node10 -->
<g id="node10" class="node">
<title>Node10</title>
<g id="a_node10"><a xlink:title=" ">
<polygon fill="white" stroke="#bfbfbf" points="104.5,-56.5 104.5,-75.5 149.5,-75.5 149.5,-56.5 104.5,-56.5"/>
<text text-anchor="middle" x="127" y="-63.5" font-family="Helvetica,sans-Serif" font-size="10.00">utility</text>
</a>
</g>
</g>
<!-- Node9&#45;&gt;Node10 -->
<g id="edge11" class="edge">
<title>Node9&#45;&gt;Node10</title>
<path fill="none" stroke="midnightblue" d="M355.63,-224.49C292.8,-207.76 160.74,-168.98 133,-132 123.13,-118.84 122.52,-99.7 123.85,-85.59"/>
<polygon fill="midnightblue" stroke="midnightblue" points="127.33,-85.95 125.19,-75.57 120.4,-85.02 127.33,-85.95"/>
</g>
<!-- Node11 -->
<g id="node11" class="node">
<title>Node11</title>
<g id="a_node11"><a xlink:title=" ">
<polygon fill="white" stroke="#bfbfbf" points="872.5,-0.5 872.5,-19.5 919.5,-19.5 919.5,-0.5 872.5,-0.5"/>
<text text-anchor="middle" x="896" y="-7.5" font-family="Helvetica,sans-Serif" font-size="10.00">vector</text>
</a>
</g>
</g>
<!-- Node9&#45;&gt;Node11 -->
<g id="edge12" class="edge">
<title>Node9&#45;&gt;Node11</title>
<path fill="none" stroke="midnightblue" d="M388,-224.12C386.79,-211.55 385.21,-187.9 388,-168 396.17,-109.63 405.89,-81.56 459,-56 530.24,-21.72 772.7,-13.45 862.34,-11.54"/>
<polygon fill="midnightblue" stroke="midnightblue" points="862.56,-15.04 872.49,-11.34 862.42,-8.04 862.56,-15.04"/>
</g>
<!-- Node12 -->
<g id="node12" class="node">
<title>Node12</title>
<g id="a_node12"><a xlink:href="coordinate_2face_8hpp.html" target="_top" xlink:title=" ">
<polygon fill="white" stroke="black" points="580,-168.5 580,-187.5 718,-187.5 718,-168.5 580,-168.5"/>
<text text-anchor="middle" x="649" y="-175.5" font-family="Helvetica,sans-Serif" font-size="10.00">mini/coordinate/face.hpp</text>
</a>
</g>
</g>
<!-- Node9&#45;&gt;Node12 -->
<g id="edge13" class="edge">
<title>Node9&#45;&gt;Node12</title>
<path fill="none" stroke="midnightblue" d="M430.2,-224.44C475.65,-215 548.84,-199.8 597.91,-189.61"/>
<polygon fill="midnightblue" stroke="midnightblue" points="598.92,-192.98 607.99,-187.52 597.49,-186.12 598.92,-192.98"/>
</g>
<!-- Node23 -->
<g id="node23" class="node">
<title>Node23</title>
<g id="a_node23"><a xlink:href="integrator_2element_8hpp.html" target="_top" xlink:title=" ">
<polygon fill="white" stroke="black" points="736,-168.5 736,-187.5 890,-187.5 890,-168.5 736,-168.5"/>
<text text-anchor="middle" x="813" y="-175.5" font-family="Helvetica,sans-Serif" font-size="10.00">mini/integrator/element.hpp</text>
</a>
</g>
</g>
<!-- Node9&#45;&gt;Node23 -->
<g id="edge38" class="edge">
<title>Node9&#45;&gt;Node23</title>
<path fill="none" stroke="midnightblue" d="M456.18,-224.44C532.32,-214.75 656.19,-198.97 736.12,-188.79"/>
<polygon fill="midnightblue" stroke="midnightblue" points="736.65,-192.25 746.13,-187.52 735.77,-185.31 736.65,-192.25"/>
</g>
<!-- Node24 -->
<g id="node24" class="node">
<title>Node24</title>
<g id="a_node24"><a xlink:href="function_8hpp.html" target="_top" xlink:title=" ">
<polygon fill="white" stroke="black" points="142.5,-112.5 142.5,-131.5 295.5,-131.5 295.5,-112.5 142.5,-112.5"/>
<text text-anchor="middle" x="219" y="-119.5" font-family="Helvetica,sans-Serif" font-size="10.00">mini/integrator/function.hpp</text>
</a>
</g>
</g>
<!-- Node9&#45;&gt;Node24 -->
<g id="edge41" class="edge">
<title>Node9&#45;&gt;Node24</title>
<path fill="none" stroke="midnightblue" d="M375.66,-224.37C346.49,-205.49 276.78,-160.38 241,-137.24"/>
<polygon fill="midnightblue" stroke="midnightblue" points="242.57,-134.09 232.28,-131.59 238.77,-139.96 242.57,-134.09"/>
</g>
<!-- Node12&#45;&gt;Node2 -->
<g id="edge14" class="edge">
<title>Node12&#45;&gt;Node2</title>
<path fill="none" stroke="midnightblue" d="M638.46,-168.31C622.9,-155.57 592.73,-131.26 566,-112 551.07,-101.24 533.77,-89.8 520.35,-81.15"/>
<polygon fill="midnightblue" stroke="midnightblue" points="522.07,-78.1 511.76,-75.65 518.3,-83.99 522.07,-78.1"/>
</g>
<!-- Node12&#45;&gt;Node3 -->
<g id="edge15" class="edge">
<title>Node12&#45;&gt;Node3</title>
<path fill="none" stroke="midnightblue" d="M632.43,-168.29C604.76,-154.14 547.04,-126.32 495,-112 382.52,-81.05 341.85,-122.83 235,-76 209.47,-64.81 185.55,-42.91 170.86,-27.64"/>
<polygon fill="midnightblue" stroke="midnightblue" points="173.08,-24.88 163.7,-19.95 167.96,-29.65 173.08,-24.88"/>
</g>
<!-- Node12&#45;&gt;Node7 -->
<g id="edge18" class="edge">
<title>Node12&#45;&gt;Node7</title>
<path fill="none" stroke="midnightblue" d="M641.58,-168.08C619.39,-141.38 553.29,-61.87 524.57,-27.32"/>
<polygon fill="midnightblue" stroke="midnightblue" points="527.21,-25.02 518.12,-19.57 521.82,-29.5 527.21,-25.02"/>
</g>
<!-- Node12&#45;&gt;Node8 -->
<g id="edge17" class="edge">
<title>Node12&#45;&gt;Node8</title>
<path fill="none" stroke="midnightblue" d="M618.58,-168.44C585.33,-159.09 531.98,-144.09 495.76,-133.9"/>
<polygon fill="midnightblue" stroke="midnightblue" points="496.6,-130.5 486.02,-131.16 494.7,-137.24 496.6,-130.5"/>
</g>
<!-- Node12&#45;&gt;Node11 -->
<g id="edge19" class="edge">
<title>Node12&#45;&gt;Node11</title>
<path fill="none" stroke="midnightblue" d="M644.48,-168.38C631.86,-143.71 598.06,-73.5 613,-56 644.65,-18.91 793.75,-12.24 861.88,-11.15"/>
<polygon fill="midnightblue" stroke="midnightblue" points="862.14,-14.64 872.09,-11.01 862.05,-7.64 862.14,-14.64"/>
</g>
<!-- Node13 -->
<g id="node13" class="node">
<title>Node13</title>
<g id="a_node13"><a xlink:title=" ">
<polygon fill="white" stroke="#bfbfbf" points="935,-112.5 935,-131.5 977,-131.5 977,-112.5 935,-112.5"/>
<text text-anchor="middle" x="956" y="-119.5" font-family="Helvetica,sans-Serif" font-size="10.00">array</text>
</a>
</g>
</g>
<!-- Node12&#45;&gt;Node13 -->
<g id="edge16" class="edge">
<title>Node12&#45;&gt;Node13</title>
<path fill="none" stroke="midnightblue" d="M716.93,-168.48C770.99,-161.13 848.69,-149.28 925,-131.99"/>
<polygon fill="midnightblue" stroke="midnightblue" points="925.82,-135.39 934.79,-129.74 924.26,-128.57 925.82,-135.39"/>
</g>
<!-- Node14 -->
<g id="node14" class="node">
<title>Node14</title>
<g id="a_node14"><a xlink:href="coordinate_2element_8hpp.html" target="_top" xlink:title=" ">
<polygon fill="white" stroke="black" points="759,-112.5 759,-131.5 917,-131.5 917,-112.5 759,-112.5"/>
<text text-anchor="middle" x="838" y="-119.5" font-family="Helvetica,sans-Serif" font-size="10.00">mini/coordinate/element.hpp</text>
</a>
</g>
</g>
<!-- Node12&#45;&gt;Node14 -->
<g id="edge20" class="edge">
<title>Node12&#45;&gt;Node14</title>
<path fill="none" stroke="midnightblue" d="M678.95,-168.44C711.16,-159.24 762.53,-144.56 798.14,-134.39"/>
<polygon fill="midnightblue" stroke="midnightblue" points="799.54,-137.63 808.19,-131.52 797.62,-130.9 799.54,-137.63"/>
</g>
<!-- Node14&#45;&gt;Node2 -->
<g id="edge21" class="edge">
<title>Node14&#45;&gt;Node2</title>
<path fill="none" stroke="midnightblue" d="M784.13,-112.44C715.8,-101.59 599.54,-83.13 538.37,-73.41"/>
<polygon fill="midnightblue" stroke="midnightblue" points="538.75,-69.93 528.32,-71.82 537.65,-76.84 538.75,-69.93"/>
</g>
<!-- Node14&#45;&gt;Node4 -->
<g id="edge22" class="edge">
<title>Node14&#45;&gt;Node4</title>
<path fill="none" stroke="midnightblue" d="M914.92,-112.46C998.86,-102.94 1128.94,-87.58 1193.86,-75.97"/>
<polygon fill="midnightblue" stroke="midnightblue" points="1194.52,-79.41 1203.71,-74.14 1193.24,-72.53 1194.52,-79.41"/>
</g>
<!-- Node14&#45;&gt;Node5 -->
<g id="edge23" class="edge">
<title>Node14&#45;&gt;Node5</title>
<path fill="none" stroke="midnightblue" d="M831.51,-112.3C819.98,-97.65 794.39,-68.41 765,-56 664.78,-13.68 388.9,-37.42 263.85,-19.65"/>
<polygon fill="midnightblue" stroke="midnightblue" points="264.09,-16.14 253.67,-18.05 263.01,-23.06 264.09,-16.14"/>
</g>
<!-- Node14&#45;&gt;Node11 -->
<g id="edge27" class="edge">
<title>Node14&#45;&gt;Node11</title>
<path fill="none" stroke="midnightblue" d="M847.67,-112.25C856.49,-103.77 869.28,-90.16 877,-76 884.92,-61.48 889.87,-43.3 892.72,-29.86"/>
<polygon fill="midnightblue" stroke="midnightblue" points="896.19,-30.35 894.65,-19.87 889.32,-29.03 896.19,-30.35"/>
</g>
<!-- Node15 -->
<g id="node15" class="node">
<title>Node15</title>
<g id="a_node15"><a xlink:title=" ">
<polygon fill="white" stroke="#bfbfbf" points="812,-56.5 812,-75.5 868,-75.5 868,-56.5 812,-56.5"/>
<text text-anchor="middle" x="840" y="-63.5" font-family="Helvetica,sans-Serif" font-size="10.00">numeric</text>
</a>
</g>
</g>
<!-- Node14&#45;&gt;Node15 -->
<g id="edge24" class="edge">
<title>Node14&#45;&gt;Node15</title>
<path fill="none" stroke="midnightblue" d="M838.33,-112.08C838.59,-105.01 838.97,-94.86 839.3,-85.99"/>
<polygon fill="midnightblue" stroke="midnightblue" points="842.8,-85.87 839.68,-75.75 835.81,-85.61 842.8,-85.87"/>
</g>
<!-- Node16 -->
<g id="node16" class="node">
<title>Node16</title>
<g id="a_node16"><a xlink:title=" ">
<polygon fill="white" stroke="#bfbfbf" points="1102.5,-56.5 1102.5,-75.5 1185.5,-75.5 1185.5,-56.5 1102.5,-56.5"/>
<text text-anchor="middle" x="1144" y="-63.5" font-family="Helvetica,sans-Serif" font-size="10.00">initializer_list</text>
</a>
</g>
</g>
<!-- Node14&#45;&gt;Node16 -->
<g id="edge25" class="edge">
<title>Node14&#45;&gt;Node16</title>
<path fill="none" stroke="midnightblue" d="M886.49,-112.44C942.61,-102.54 1034.66,-86.3 1092.16,-76.15"/>
<polygon fill="midnightblue" stroke="midnightblue" points="1092.89,-79.57 1102.13,-74.39 1091.68,-72.68 1092.89,-79.57"/>
</g>
<!-- Node17 -->
<g id="node17" class="node">
<title>Node17</title>
<g id="a_node17"><a xlink:title=" ">
<polygon fill="white" stroke="#bfbfbf" points="999,-0.5 999,-19.5 1059,-19.5 1059,-0.5 999,-0.5"/>
<text text-anchor="middle" x="1029" y="-7.5" font-family="Helvetica,sans-Serif" font-size="10.00">iostream</text>
</a>
</g>
</g>
<!-- Node14&#45;&gt;Node17 -->
<g id="edge26" class="edge">
<title>Node14&#45;&gt;Node17</title>
<path fill="none" stroke="midnightblue" d="M898.08,-112.48C958.79,-103.26 1045.04,-88.23 1055,-76 1066.56,-61.79 1055.5,-41.78 1044.44,-27.73"/>
<polygon fill="midnightblue" stroke="midnightblue" points="1046.9,-25.22 1037.76,-19.85 1041.56,-29.74 1046.9,-25.22"/>
</g>
<!-- Node18 -->
<g id="node18" class="node">
<title>Node18</title>
<g id="a_node18"><a xlink:href="algebra_2eigen_8hpp.html" target="_top" xlink:title=" ">
<polygon fill="white" stroke="black" points="244.5,-56.5 244.5,-75.5 373.5,-75.5 373.5,-56.5 244.5,-56.5"/>
<text text-anchor="middle" x="309" y="-63.5" font-family="Helvetica,sans-Serif" font-size="10.00">mini/algebra/eigen.hpp</text>
</a>
</g>
</g>
<!-- Node14&#45;&gt;Node18 -->
<g id="edge28" class="edge">
<title>Node14&#45;&gt;Node18</title>
<path fill="none" stroke="midnightblue" d="M758.8,-112.92C657.37,-102.56 482.88,-84.75 383.67,-74.62"/>
<polygon fill="midnightblue" stroke="midnightblue" points="384.03,-71.14 373.73,-73.61 383.32,-78.1 384.03,-71.14"/>
</g>
<!-- Node21 -->
<g id="node21" class="node">
<title>Node21</title>
<g id="a_node21"><a xlink:href="root_8hpp.html" target="_top" xlink:title=" ">
<polygon fill="white" stroke="black" points="924,-56.5 924,-75.5 1046,-75.5 1046,-56.5 924,-56.5"/>
<text text-anchor="middle" x="985" y="-63.5" font-family="Helvetica,sans-Serif" font-size="10.00">mini/algebra/root.hpp</text>
</a>
</g>
</g>
<!-- Node14&#45;&gt;Node21 -->
<g id="edge33" class="edge">
<title>Node14&#45;&gt;Node21</title>
<path fill="none" stroke="midnightblue" d="M861.29,-112.44C885.81,-103.44 924.6,-89.19 952.2,-79.05"/>
<polygon fill="midnightblue" stroke="midnightblue" points="953.64,-82.25 961.82,-75.52 951.22,-75.68 953.64,-82.25"/>
</g>
<!-- Node22 -->
<g id="node22" class="node">
<title>Node22</title>
<g id="a_node22"><a xlink:href="index_8hpp.html" target="_top" xlink:title=" ">
<polygon fill="white" stroke="black" points="622,-56.5 622,-75.5 756,-75.5 756,-56.5 622,-56.5"/>
<text text-anchor="middle" x="689" y="-63.5" font-family="Helvetica,sans-Serif" font-size="10.00">mini/constant/index.hpp</text>
</a>
</g>
</g>
<!-- Node14&#45;&gt;Node22 -->
<g id="edge37" class="edge">
<title>Node14&#45;&gt;Node22</title>
<path fill="none" stroke="midnightblue" d="M814.39,-112.44C789.54,-103.44 750.23,-89.19 722.25,-79.05"/>
<polygon fill="midnightblue" stroke="midnightblue" points="723.09,-75.63 712.5,-75.52 720.71,-82.21 723.09,-75.63"/>
</g>
<!-- Node18&#45;&gt;Node3 -->
<g id="edge29" class="edge">
<title>Node18&#45;&gt;Node3</title>
<path fill="none" stroke="midnightblue" d="M284.76,-56.44C259.13,-47.4 218.51,-33.06 189.76,-22.92"/>
<polygon fill="midnightblue" stroke="midnightblue" points="190.72,-19.54 180.13,-19.52 188.39,-26.15 190.72,-19.54"/>
</g>
<!-- Node18&#45;&gt;Node5 -->
<g id="edge30" class="edge">
<title>Node18&#45;&gt;Node5</title>
<path fill="none" stroke="midnightblue" d="M296.31,-56.32C284.1,-47.98 265.42,-35.21 251,-25.35"/>
<polygon fill="midnightblue" stroke="midnightblue" points="252.89,-22.41 242.66,-19.65 248.94,-28.19 252.89,-22.41"/>
</g>
<!-- Node19 -->
<g id="node19" class="node">
<title>Node19</title>
<g id="a_node19"><a xlink:title=" ">
<polygon fill="white" stroke="#bfbfbf" points="364.5,-0.5 364.5,-19.5 413.5,-19.5 413.5,-0.5 364.5,-0.5"/>
<text text-anchor="middle" x="389" y="-7.5" font-family="Helvetica,sans-Serif" font-size="10.00">cstdlib</text>
</a>
</g>
</g>
<!-- Node18&#45;&gt;Node19 -->
<g id="edge31" class="edge">
<title>Node18&#45;&gt;Node19</title>
<path fill="none" stroke="midnightblue" d="M321.85,-56.32C334.22,-47.98 353.13,-35.21 367.74,-25.35"/>
<polygon fill="midnightblue" stroke="midnightblue" points="369.85,-28.15 376.18,-19.65 365.93,-22.35 369.85,-28.15"/>
</g>
<!-- Node20 -->
<g id="node20" class="node">
<title>Node20</title>
<g id="a_node20"><a xlink:title=" ">
<polygon fill="white" stroke="#bfbfbf" points="272,-0.5 272,-19.5 346,-19.5 346,-0.5 272,-0.5"/>
<text text-anchor="middle" x="309" y="-7.5" font-family="Helvetica,sans-Serif" font-size="10.00">Eigen/Eigen</text>
</a>
</g>
</g>
<!-- Node18&#45;&gt;Node20 -->
<g id="edge32" class="edge">
<title>Node18&#45;&gt;Node20</title>
<path fill="none" stroke="midnightblue" d="M309,-56.08C309,-49.01 309,-38.86 309,-29.99"/>
<polygon fill="midnightblue" stroke="midnightblue" points="312.5,-29.75 309,-19.75 305.5,-29.75 312.5,-29.75"/>
</g>
<!-- Node21&#45;&gt;Node7 -->
<g id="edge36" class="edge">
<title>Node21&#45;&gt;Node7</title>
<path fill="none" stroke="midnightblue" d="M923.52,-58C826.73,-46.97 641.09,-25.82 555.83,-16.11"/>
<polygon fill="midnightblue" stroke="midnightblue" points="556.03,-12.61 545.7,-14.95 555.24,-19.56 556.03,-12.61"/>
</g>
<!-- Node21&#45;&gt;Node11 -->
<g id="edge34" class="edge">
<title>Node21&#45;&gt;Node11</title>
<path fill="none" stroke="midnightblue" d="M970.7,-56.32C956.82,-47.9 935.51,-34.97 919.2,-25.07"/>
<polygon fill="midnightblue" stroke="midnightblue" points="920.63,-21.85 910.26,-19.65 917,-27.83 920.63,-21.85"/>
</g>
<!-- Node21&#45;&gt;Node17 -->
<g id="edge35" class="edge">
<title>Node21&#45;&gt;Node17</title>
<path fill="none" stroke="midnightblue" d="M992.27,-56.08C998.54,-48.38 1007.79,-37.03 1015.43,-27.65"/>
<polygon fill="midnightblue" stroke="midnightblue" points="1018.27,-29.71 1021.87,-19.75 1012.84,-25.29 1018.27,-29.71"/>
</g>
<!-- Node23&#45;&gt;Node14 -->
<g id="edge39" class="edge">
<title>Node23&#45;&gt;Node14</title>
<path fill="none" stroke="midnightblue" d="M817.13,-168.08C820.51,-160.77 825.42,-150.18 829.62,-141.1"/>
<polygon fill="midnightblue" stroke="midnightblue" points="832.92,-142.3 833.95,-131.75 826.57,-139.36 832.92,-142.3"/>
</g>
<!-- Node23&#45;&gt;Node22 -->
<g id="edge40" class="edge">
<title>Node23&#45;&gt;Node22</title>
<path fill="none" stroke="midnightblue" d="M799.4,-168.41C786.24,-159.85 765.98,-145.98 750,-132 732.44,-116.64 714.42,-96.84 702.56,-83.15"/>
<polygon fill="midnightblue" stroke="midnightblue" points="705.19,-80.84 696.03,-75.51 699.86,-85.38 705.19,-80.84"/>
</g>
<!-- Node24&#45;&gt;Node2 -->
<g id="edge42" class="edge">
<title>Node24&#45;&gt;Node2</title>
<path fill="none" stroke="midnightblue" d="M263.21,-112.44C316.68,-102.09 405.94,-84.82 457.63,-74.81"/>
<polygon fill="midnightblue" stroke="midnightblue" points="458.6,-78.19 467.76,-72.85 457.27,-71.32 458.6,-78.19"/>
</g>
<!-- Node24&#45;&gt;Node5 -->
<g id="edge43" class="edge">
<title>Node24&#45;&gt;Node5</title>
<path fill="none" stroke="midnightblue" d="M219.86,-112.37C221.64,-94.62 225.73,-53.67 228.14,-29.6"/>
<polygon fill="midnightblue" stroke="midnightblue" points="231.63,-29.89 229.14,-19.59 224.66,-29.19 231.63,-29.89"/>
</g>
<!-- Node24&#45;&gt;Node7 -->
<g id="edge44" class="edge">
<title>Node24&#45;&gt;Node7</title>
<path fill="none" stroke="midnightblue" d="M258.23,-112.47C291.69,-104.66 340.78,-91.9 382,-76 402.36,-68.15 454.64,-40.94 486.04,-24.32"/>
<polygon fill="midnightblue" stroke="midnightblue" points="487.86,-27.31 495.06,-19.53 484.58,-21.13 487.86,-27.31"/>
</g>
<!-- Node24&#45;&gt;Node10 -->
<g id="edge45" class="edge">
<title>Node24&#45;&gt;Node10</title>
<path fill="none" stroke="midnightblue" d="M204.22,-112.32C189.73,-103.82 167.43,-90.73 150.51,-80.8"/>
<polygon fill="midnightblue" stroke="midnightblue" points="152.14,-77.7 141.74,-75.65 148.6,-83.74 152.14,-77.7"/>
</g>
<!-- Node24&#45;&gt;Node18 -->
<g id="edge46" class="edge">
<title>Node24&#45;&gt;Node18</title>
<path fill="none" stroke="midnightblue" d="M233.46,-112.32C247.5,-103.9 269.05,-90.97 285.54,-81.07"/>
<polygon fill="midnightblue" stroke="midnightblue" points="287.8,-83.8 294.58,-75.65 284.2,-77.8 287.8,-83.8"/>
</g>
<!-- Node25&#45;&gt;Node2 -->
<g id="edge48" class="edge">
<title>Node25&#45;&gt;Node2</title>
<path fill="none" stroke="midnightblue" d="M840.29,-230.68C751.84,-226.72 614.04,-216.11 571,-188 533.63,-163.6 512.5,-112.77 503.41,-85.4"/>
<polygon fill="midnightblue" stroke="midnightblue" points="506.66,-84.05 500.33,-75.55 499.98,-86.14 506.66,-84.05"/>
</g>
<!-- Node25&#45;&gt;Node4 -->
<g id="edge50" class="edge">
<title>Node25&#45;&gt;Node4</title>
<path fill="none" stroke="midnightblue" d="M934.51,-224.42C951.84,-215.4 979.87,-200.77 1004,-188 1077.35,-149.17 1163.75,-102.71 1205.28,-80.34"/>
<polygon fill="midnightblue" stroke="midnightblue" points="1206.99,-83.39 1214.14,-75.56 1203.67,-77.22 1206.99,-83.39"/>
</g>
<!-- Node25&#45;&gt;Node8 -->
<g id="edge52" class="edge">
<title>Node25&#45;&gt;Node8</title>
<path fill="none" stroke="midnightblue" d="M840.37,-228.86C745.45,-222.92 590.92,-210.19 538,-188 511.38,-176.84 486.38,-154.22 471.38,-138.83"/>
<polygon fill="midnightblue" stroke="midnightblue" points="473.91,-136.41 464.49,-131.55 468.82,-141.22 473.91,-136.41"/>
</g>
<!-- Node25&#45;&gt;Node11 -->
<g id="edge53" class="edge">
<title>Node25&#45;&gt;Node11</title>
<path fill="none" stroke="midnightblue" d="M982.61,-224.46C1105.33,-205.75 1352.42,-154.73 1265,-56 1259.44,-49.72 1019.77,-23.99 929.72,-14.52"/>
<polygon fill="midnightblue" stroke="midnightblue" points="929.82,-11.01 919.51,-13.45 929.09,-17.97 929.82,-11.01"/>
</g>
<!-- Node25&#45;&gt;Node12 -->
<g id="edge55" class="edge">
<title>Node25&#45;&gt;Node12</title>
<path fill="none" stroke="midnightblue" d="M875.38,-224.44C828.25,-214.98 752.31,-199.74 701.54,-189.55"/>
<polygon fill="midnightblue" stroke="midnightblue" points="701.92,-186.05 691.42,-187.52 700.54,-192.92 701.92,-186.05"/>
</g>
<!-- Node25&#45;&gt;Node13 -->
<g id="edge49" class="edge">
<title>Node25&#45;&gt;Node13</title>
<path fill="none" stroke="midnightblue" d="M920.98,-224.37C927.14,-206.54 941.39,-165.3 949.69,-141.27"/>
<polygon fill="midnightblue" stroke="midnightblue" points="953.07,-142.19 953.03,-131.59 946.46,-139.9 953.07,-142.19"/>
</g>
<!-- Node25&#45;&gt;Node14 -->
<g id="edge54" class="edge">
<title>Node25&#45;&gt;Node14</title>
<path fill="none" stroke="midnightblue" d="M917.23,-224.24C915.69,-210.99 911.25,-185.54 899,-168 890.05,-155.19 876.28,-144.58 864.09,-136.89"/>
<polygon fill="midnightblue" stroke="midnightblue" points="865.56,-133.69 855.18,-131.59 861.98,-139.71 865.56,-133.69"/>
</g>
<!-- Node25&#45;&gt;Node16 -->
<g id="edge51" class="edge">
<title>Node25&#45;&gt;Node16</title>
<path fill="none" stroke="midnightblue" d="M929.83,-224.31C966.45,-197.42 1078.17,-115.35 1124.03,-81.67"/>
<polygon fill="midnightblue" stroke="midnightblue" points="1126.3,-84.35 1132.28,-75.61 1122.15,-78.7 1126.3,-84.35"/>
</g>
</g>
</svg>
