<?xml version="1.0" encoding="UTF-8" standalone="no"?>
<!DOCTYPE svg PUBLIC "-//W3C//DTD SVG 1.1//EN"
 "http://www.w3.org/Graphics/SVG/1.1/DTD/svg11.dtd">
<!-- Generated by graphviz version 2.43.0 (0)
 -->
<!-- Title: include/mini/integrator/quadrangle.hpp Pages: 1 -->
<svg width="1244pt" height="319pt"
 viewBox="0.00 0.00 1243.65 319.00" xmlns="http://www.w3.org/2000/svg" xmlns:xlink="http://www.w3.org/1999/xlink">
<g id="graph0" class="graph" transform="scale(1 1) rotate(0) translate(4 315)">
<title>include/mini/integrator/quadrangle.hpp</title>
<polygon fill="white" stroke="transparent" points="-4,4 -4,-315 1239.65,-315 1239.65,4 -4,4"/>
<!-- Node1 -->
<g id="node1" class="node">
<title>Node1</title>
<g id="a_node1"><a xlink:title=" ">
<polygon fill="#bfbfbf" stroke="black" points="322.82,-280.5 322.82,-310.5 450.82,-310.5 450.82,-280.5 322.82,-280.5"/>
<text text-anchor="start" x="330.82" y="-298.5" font-family="Helvetica,sans-Serif" font-size="10.00">include/mini/integrator</text>
<text text-anchor="middle" x="386.82" y="-287.5" font-family="Helvetica,sans-Serif" font-size="10.00">/quadrangle.hpp</text>
</a>
</g>
</g>
<!-- Node2 -->
<g id="node2" class="node">
<title>Node2</title>
<g id="a_node2"><a xlink:title=" ">
<polygon fill="white" stroke="#bfbfbf" points="353.82,-56.5 353.82,-75.5 413.82,-75.5 413.82,-56.5 353.82,-56.5"/>
<text text-anchor="middle" x="383.82" y="-63.5" font-family="Helvetica,sans-Serif" font-size="10.00">concepts</text>
</a>
</g>
</g>
<!-- Node1&#45;&gt;Node2 -->
<g id="edge1" class="edge">
<title>Node1&#45;&gt;Node2</title>
<path fill="none" stroke="midnightblue" d="M376.38,-280.31C369.92,-270.63 362.23,-257.2 358.82,-244 344.08,-187.04 364.88,-117.38 376.66,-85.06"/>
<polygon fill="midnightblue" stroke="midnightblue" points="379.98,-86.2 380.25,-75.61 373.43,-83.72 379.98,-86.2"/>
</g>
<!-- Node3 -->
<g id="node3" class="node">
<title>Node3</title>
<g id="a_node3"><a xlink:title=" ">
<polygon fill="white" stroke="#bfbfbf" points="223.32,-0.5 223.32,-19.5 270.32,-19.5 270.32,-0.5 223.32,-0.5"/>
<text text-anchor="middle" x="246.82" y="-7.5" font-family="Helvetica,sans-Serif" font-size="10.00">cmath</text>
</a>
</g>
</g>
<!-- Node1&#45;&gt;Node3 -->
<g id="edge2" class="edge">
<title>Node1&#45;&gt;Node3</title>
<path fill="none" stroke="midnightblue" d="M322.64,-288.63C212.88,-276.8 0.82,-245.36 0.82,-179 0.82,-179 0.82,-179 0.82,-121 0.82,-90.9 -2.45,-76.26 19.82,-56 82.41,0.96 123.96,-37.29 206.82,-20 208.88,-19.57 211.01,-19.12 213.15,-18.65"/>
<polygon fill="midnightblue" stroke="midnightblue" points="214.14,-22.02 223.15,-16.45 212.63,-15.18 214.14,-22.02"/>
</g>
<!-- Node4 -->
<g id="node4" class="node">
<title>Node4</title>
<g id="a_node4"><a xlink:title=" ">
<polygon fill="white" stroke="#bfbfbf" points="443.82,-112.5 443.82,-131.5 501.82,-131.5 501.82,-112.5 443.82,-112.5"/>
<text text-anchor="middle" x="472.82" y="-119.5" font-family="Helvetica,sans-Serif" font-size="10.00">memory</text>
</a>
</g>
</g>
<!-- Node1&#45;&gt;Node4 -->
<g id="edge3" class="edge">
<title>Node1&#45;&gt;Node4</title>
<path fill="none" stroke="midnightblue" d="M451.13,-283.66C473.89,-276.39 497.2,-264.25 510.82,-244 533.03,-210.97 504.91,-164.24 486.48,-139.64"/>
<polygon fill="midnightblue" stroke="midnightblue" points="489.15,-137.37 480.23,-131.64 483.63,-141.68 489.15,-137.37"/>
</g>
<!-- Node5 -->
<g id="node5" class="node">
<title>Node5</title>
<g id="a_node5"><a xlink:title=" ">
<polygon fill="white" stroke="#bfbfbf" points="570.32,-0.5 570.32,-19.5 639.32,-19.5 639.32,-0.5 570.32,-0.5"/>
<text text-anchor="middle" x="604.82" y="-7.5" font-family="Helvetica,sans-Serif" font-size="10.00">type_traits</text>
</a>
</g>
</g>
<!-- Node1&#45;&gt;Node5 -->
<g id="edge4" class="edge">
<title>Node1&#45;&gt;Node5</title>
<path fill="none" stroke="midnightblue" d="M373.64,-280.26C365.74,-270.75 356.36,-257.55 351.82,-244 325.21,-164.73 290.97,-119.97 344.82,-56 371.77,-23.98 492.71,-14.74 559.73,-12.08"/>
<polygon fill="midnightblue" stroke="midnightblue" points="560.14,-15.57 570,-11.71 559.88,-8.57 560.14,-15.57"/>
</g>
<!-- Node6 -->
<g id="node6" class="node">
<title>Node6</title>
<g id="a_node6"><a xlink:href="algebra_2eigen_8hpp.html" target="_top" xlink:title=" ">
<polygon fill="white" stroke="black" points="92.32,-56.5 92.32,-75.5 221.32,-75.5 221.32,-56.5 92.32,-56.5"/>
<text text-anchor="middle" x="156.82" y="-63.5" font-family="Helvetica,sans-Serif" font-size="10.00">mini/algebra/eigen.hpp</text>
</a>
</g>
</g>
<!-- Node1&#45;&gt;Node6 -->
<g id="edge5" class="edge">
<title>Node1&#45;&gt;Node6</title>
<path fill="none" stroke="midnightblue" d="M339.73,-280.48C278.95,-259.48 176.09,-213.36 134.82,-132 126.93,-116.46 135.24,-97.46 143.81,-84.03"/>
<polygon fill="midnightblue" stroke="midnightblue" points="146.74,-85.93 149.58,-75.73 141,-81.94 146.74,-85.93"/>
</g>
<!-- Node10 -->
<g id="node10" class="node">
<title>Node10</title>
<g id="a_node10"><a xlink:href="integrator_2face_8hpp.html" target="_top" xlink:title=" ">
<polygon fill="white" stroke="black" points="367.82,-224.5 367.82,-243.5 501.82,-243.5 501.82,-224.5 367.82,-224.5"/>
<text text-anchor="middle" x="434.82" y="-231.5" font-family="Helvetica,sans-Serif" font-size="10.00">mini/integrator/face.hpp</text>
</a>
</g>
</g>
<!-- Node1&#45;&gt;Node10 -->
<g id="edge10" class="edge">
<title>Node1&#45;&gt;Node10</title>
<path fill="none" stroke="midnightblue" d="M398.19,-280.4C405.17,-271.75 414.13,-260.64 421.44,-251.58"/>
<polygon fill="midnightblue" stroke="midnightblue" points="424.28,-253.64 427.83,-243.66 418.83,-249.24 424.28,-253.64"/>
</g>
<!-- Node13 -->
<g id="node13" class="node">
<title>Node13</title>
<g id="a_node13"><a xlink:href="coordinate_2face_8hpp.html" target="_top" xlink:title=" ">
<polygon fill="white" stroke="black" points="767.82,-168.5 767.82,-187.5 905.82,-187.5 905.82,-168.5 767.82,-168.5"/>
<text text-anchor="middle" x="836.82" y="-175.5" font-family="Helvetica,sans-Serif" font-size="10.00">mini/coordinate/face.hpp</text>
</a>
</g>
</g>
<!-- Node1&#45;&gt;Node13 -->
<g id="edge45" class="edge">
<title>Node1&#45;&gt;Node13</title>
<path fill="none" stroke="midnightblue" d="M441.54,-280.45C532.16,-257.19 711.51,-211.16 793.76,-190.05"/>
<polygon fill="midnightblue" stroke="midnightblue" points="794.72,-193.42 803.53,-187.54 792.98,-186.64 794.72,-193.42"/>
</g>
<!-- Node24 -->
<g id="node24" class="node">
<title>Node24</title>
<g id="a_node24"><a xlink:href="coordinate_2quadrangle_8hpp.html" target="_top" xlink:title=" ">
<polygon fill="white" stroke="black" points="909.82,-224.5 909.82,-243.5 1081.82,-243.5 1081.82,-224.5 909.82,-224.5"/>
<text text-anchor="middle" x="995.82" y="-231.5" font-family="Helvetica,sans-Serif" font-size="10.00">mini/coordinate/quadrangle.hpp</text>
</a>
</g>
</g>
<!-- Node1&#45;&gt;Node24 -->
<g id="edge46" class="edge">
<title>Node1&#45;&gt;Node24</title>
<path fill="none" stroke="midnightblue" d="M450.84,-288.24C557.95,-277.78 774.07,-256.66 899.57,-244.4"/>
<polygon fill="midnightblue" stroke="midnightblue" points="899.95,-247.88 909.57,-243.43 899.27,-240.92 899.95,-247.88"/>
</g>
<!-- Node6&#45;&gt;Node3 -->
<g id="edge7" class="edge">
<title>Node6&#45;&gt;Node3</title>
<path fill="none" stroke="midnightblue" d="M171.28,-56.32C185.31,-47.9 206.86,-34.97 223.36,-25.07"/>
<polygon fill="midnightblue" stroke="midnightblue" points="225.62,-27.8 232.39,-19.65 222.02,-21.8 225.62,-27.8"/>
</g>
<!-- Node7 -->
<g id="node7" class="node">
<title>Node7</title>
<g id="a_node7"><a xlink:title=" ">
<polygon fill="white" stroke="#bfbfbf" points="357.82,-0.5 357.82,-19.5 421.82,-19.5 421.82,-0.5 357.82,-0.5"/>
<text text-anchor="middle" x="389.82" y="-7.5" font-family="Helvetica,sans-Serif" font-size="10.00">algorithm</text>
</a>
</g>
</g>
<!-- Node6&#45;&gt;Node7 -->
<g id="edge6" class="edge">
<title>Node6&#45;&gt;Node7</title>
<path fill="none" stroke="midnightblue" d="M193.73,-56.44C235.64,-46.73 303.86,-30.92 347.77,-20.74"/>
<polygon fill="midnightblue" stroke="midnightblue" points="348.62,-24.14 357.57,-18.47 347.04,-17.32 348.62,-24.14"/>
</g>
<!-- Node8 -->
<g id="node8" class="node">
<title>Node8</title>
<g id="a_node8"><a xlink:title=" ">
<polygon fill="white" stroke="#bfbfbf" points="56.32,-0.5 56.32,-19.5 105.32,-19.5 105.32,-0.5 56.32,-0.5"/>
<text text-anchor="middle" x="80.82" y="-7.5" font-family="Helvetica,sans-Serif" font-size="10.00">cstdlib</text>
</a>
</g>
</g>
<!-- Node6&#45;&gt;Node8 -->
<g id="edge8" class="edge">
<title>Node6&#45;&gt;Node8</title>
<path fill="none" stroke="midnightblue" d="M144.6,-56.32C133.04,-48.11 115.44,-35.6 101.65,-25.81"/>
<polygon fill="midnightblue" stroke="midnightblue" points="103.43,-22.77 93.25,-19.83 99.37,-28.48 103.43,-22.77"/>
</g>
<!-- Node9 -->
<g id="node9" class="node">
<title>Node9</title>
<g id="a_node9"><a xlink:title=" ">
<polygon fill="white" stroke="#bfbfbf" points="123.82,-0.5 123.82,-19.5 197.82,-19.5 197.82,-0.5 123.82,-0.5"/>
<text text-anchor="middle" x="160.82" y="-7.5" font-family="Helvetica,sans-Serif" font-size="10.00">Eigen/Eigen</text>
</a>
</g>
</g>
<!-- Node6&#45;&gt;Node9 -->
<g id="edge9" class="edge">
<title>Node6&#45;&gt;Node9</title>
<path fill="none" stroke="midnightblue" d="M157.48,-56.08C158,-49.01 158.75,-38.86 159.41,-29.99"/>
<polygon fill="midnightblue" stroke="midnightblue" points="162.92,-29.98 160.17,-19.75 155.94,-29.47 162.92,-29.98"/>
</g>
<!-- Node10&#45;&gt;Node2 -->
<g id="edge11" class="edge">
<title>Node10&#45;&gt;Node2</title>
<path fill="none" stroke="midnightblue" d="M432.07,-224.08C424.05,-197.95 400.47,-121.21 389.52,-85.58"/>
<polygon fill="midnightblue" stroke="midnightblue" points="392.73,-84.1 386.45,-75.57 386.04,-86.16 392.73,-84.1"/>
</g>
<!-- Node10&#45;&gt;Node4 -->
<g id="edge12" class="edge">
<title>Node10&#45;&gt;Node4</title>
<path fill="none" stroke="midnightblue" d="M437.8,-224.37C443.96,-206.54 458.2,-165.3 466.5,-141.27"/>
<polygon fill="midnightblue" stroke="midnightblue" points="469.89,-142.19 469.85,-131.59 463.27,-139.9 469.89,-142.19"/>
</g>
<!-- Node11 -->
<g id="node11" class="node">
<title>Node11</title>
<g id="a_node11"><a xlink:title=" ">
<polygon fill="white" stroke="#bfbfbf" points="29.32,-56.5 29.32,-75.5 74.32,-75.5 74.32,-56.5 29.32,-56.5"/>
<text text-anchor="middle" x="51.82" y="-63.5" font-family="Helvetica,sans-Serif" font-size="10.00">utility</text>
</a>
</g>
</g>
<!-- Node10&#45;&gt;Node11 -->
<g id="edge13" class="edge">
<title>Node10&#45;&gt;Node11</title>
<path fill="none" stroke="midnightblue" d="M396.17,-224.46C337.34,-210.49 222.85,-179.47 134.82,-132 109.57,-118.39 84.14,-97.09 68.2,-82.61"/>
<polygon fill="midnightblue" stroke="midnightblue" points="70.5,-79.97 60.78,-75.74 65.74,-85.1 70.5,-79.97"/>
</g>
<!-- Node12 -->
<g id="node12" class="node">
<title>Node12</title>
<g id="a_node12"><a xlink:title=" ">
<polygon fill="white" stroke="#bfbfbf" points="974.32,-0.5 974.32,-19.5 1021.32,-19.5 1021.32,-0.5 974.32,-0.5"/>
<text text-anchor="middle" x="997.82" y="-7.5" font-family="Helvetica,sans-Serif" font-size="10.00">vector</text>
</a>
</g>
</g>
<!-- Node10&#45;&gt;Node12 -->
<g id="edge14" class="edge">
<title>Node10&#45;&gt;Node12</title>
<path fill="none" stroke="midnightblue" d="M502.15,-232.54C595.88,-230.58 770.44,-222.14 914.82,-188 981.64,-172.2 995.27,-158.03 1058.82,-132 1117.03,-108.15 1154.23,-128.55 1188.82,-76 1226.39,-18.9 1095.7,-11.08 1031.44,-10.59"/>
<polygon fill="midnightblue" stroke="midnightblue" points="1031.37,-7.09 1021.37,-10.57 1031.36,-14.09 1031.37,-7.09"/>
</g>
<!-- Node10&#45;&gt;Node13 -->
<g id="edge15" class="edge">
<title>Node10&#45;&gt;Node13</title>
<path fill="none" stroke="midnightblue" d="M498.51,-224.44C570.55,-214.77 687.66,-199.04 763.46,-188.85"/>
<polygon fill="midnightblue" stroke="midnightblue" points="763.97,-192.32 773.42,-187.52 763.04,-185.38 763.97,-192.32"/>
</g>
<!-- Node22 -->
<g id="node22" class="node">
<title>Node22</title>
<g id="a_node22"><a xlink:href="integrator_2element_8hpp.html" target="_top" xlink:title=" ">
<polygon fill="white" stroke="black" points="595.82,-168.5 595.82,-187.5 749.82,-187.5 749.82,-168.5 595.82,-168.5"/>
<text text-anchor="middle" x="672.82" y="-175.5" font-family="Helvetica,sans-Serif" font-size="10.00">mini/integrator/element.hpp</text>
</a>
</g>
</g>
<!-- Node10&#45;&gt;Node22 -->
<g id="edge36" class="edge">
<title>Node10&#45;&gt;Node22</title>
<path fill="none" stroke="midnightblue" d="M472.53,-224.44C513.96,-215.04 580.57,-199.93 625.48,-189.74"/>
<polygon fill="midnightblue" stroke="midnightblue" points="626.3,-193.14 635.28,-187.52 624.75,-186.32 626.3,-193.14"/>
</g>
<!-- Node23 -->
<g id="node23" class="node">
<title>Node23</title>
<g id="a_node23"><a xlink:href="function_8hpp.html" target="_top" xlink:title=" ">
<polygon fill="white" stroke="black" points="144.32,-112.5 144.32,-131.5 297.32,-131.5 297.32,-112.5 144.32,-112.5"/>
<text text-anchor="middle" x="220.82" y="-119.5" font-family="Helvetica,sans-Serif" font-size="10.00">mini/integrator/function.hpp</text>
</a>
</g>
</g>
<!-- Node10&#45;&gt;Node23 -->
<g id="edge39" class="edge">
<title>Node10&#45;&gt;Node23</title>
<path fill="none" stroke="midnightblue" d="M418.02,-224.37C380.75,-205.21 290.92,-159.04 246.53,-136.22"/>
<polygon fill="midnightblue" stroke="midnightblue" points="248.02,-133.05 237.53,-131.59 244.82,-139.28 248.02,-133.05"/>
</g>
<!-- Node13&#45;&gt;Node2 -->
<g id="edge16" class="edge">
<title>Node13&#45;&gt;Node2</title>
<path fill="none" stroke="midnightblue" d="M795.06,-168.49C753.17,-159.82 686.85,-145.73 629.82,-132 556.84,-114.44 472.37,-91.55 423.8,-78.15"/>
<polygon fill="midnightblue" stroke="midnightblue" points="424.57,-74.73 414,-75.44 422.71,-81.48 424.57,-74.73"/>
</g>
<!-- Node13&#45;&gt;Node4 -->
<g id="edge19" class="edge">
<title>Node13&#45;&gt;Node4</title>
<path fill="none" stroke="midnightblue" d="M779.14,-168.44C704.51,-157.37 576.46,-138.38 512.13,-128.83"/>
<polygon fill="midnightblue" stroke="midnightblue" points="512.4,-125.33 502,-127.33 511.38,-132.26 512.4,-125.33"/>
</g>
<!-- Node13&#45;&gt;Node5 -->
<g id="edge20" class="edge">
<title>Node13&#45;&gt;Node5</title>
<path fill="none" stroke="midnightblue" d="M816.88,-168.38C798.56,-160.1 770.98,-146.7 748.82,-132 698.97,-98.93 646.73,-51.24 621.04,-26.78"/>
<polygon fill="midnightblue" stroke="midnightblue" points="623.31,-24.1 613.67,-19.7 618.46,-29.15 623.31,-24.1"/>
</g>
<!-- Node13&#45;&gt;Node7 -->
<g id="edge17" class="edge">
<title>Node13&#45;&gt;Node7</title>
<path fill="none" stroke="midnightblue" d="M811.59,-168.38C787.45,-159.9 750.18,-146.19 718.82,-132 652.89,-102.16 642.49,-81.64 574.82,-56 527.35,-38.02 470.26,-25.42 432.17,-18.21"/>
<polygon fill="midnightblue" stroke="midnightblue" points="432.43,-14.7 421.96,-16.32 431.16,-21.58 432.43,-14.7"/>
</g>
<!-- Node13&#45;&gt;Node12 -->
<g id="edge21" class="edge">
<title>Node13&#45;&gt;Node12</title>
<path fill="none" stroke="midnightblue" d="M860.7,-168.43C879.53,-160.87 905.71,-148.47 924.82,-132 958.29,-103.13 980.81,-54.96 991.21,-28.96"/>
<polygon fill="midnightblue" stroke="midnightblue" points="994.49,-30.17 994.81,-19.58 987.96,-27.66 994.49,-30.17"/>
</g>
<!-- Node14 -->
<g id="node14" class="node">
<title>Node14</title>
<g id="a_node14"><a xlink:title=" ">
<polygon fill="white" stroke="#bfbfbf" points="1007.82,-112.5 1007.82,-131.5 1049.82,-131.5 1049.82,-112.5 1007.82,-112.5"/>
<text text-anchor="middle" x="1028.82" y="-119.5" font-family="Helvetica,sans-Serif" font-size="10.00">array</text>
</a>
</g>
</g>
<!-- Node13&#45;&gt;Node14 -->
<g id="edge18" class="edge">
<title>Node13&#45;&gt;Node14</title>
<path fill="none" stroke="midnightblue" d="M867.24,-168.44C902.94,-158.4 961.83,-141.84 997.79,-131.73"/>
<polygon fill="midnightblue" stroke="midnightblue" points="999.05,-135.01 1007.73,-128.93 997.15,-128.27 999.05,-135.01"/>
</g>
<!-- Node15 -->
<g id="node15" class="node">
<title>Node15</title>
<g id="a_node15"><a xlink:href="coordinate_2element_8hpp.html" target="_top" xlink:title=" ">
<polygon fill="white" stroke="black" points="757.82,-112.5 757.82,-131.5 915.82,-131.5 915.82,-112.5 757.82,-112.5"/>
<text text-anchor="middle" x="836.82" y="-119.5" font-family="Helvetica,sans-Serif" font-size="10.00">mini/coordinate/element.hpp</text>
</a>
</g>
</g>
<!-- Node13&#45;&gt;Node15 -->
<g id="edge22" class="edge">
<title>Node13&#45;&gt;Node15</title>
<path fill="none" stroke="midnightblue" d="M836.82,-168.08C836.82,-161.01 836.82,-150.86 836.82,-141.99"/>
<polygon fill="midnightblue" stroke="midnightblue" points="840.32,-141.75 836.82,-131.75 833.32,-141.75 840.32,-141.75"/>
</g>
<!-- Node15&#45;&gt;Node2 -->
<g id="edge23" class="edge">
<title>Node15&#45;&gt;Node2</title>
<path fill="none" stroke="midnightblue" d="M757.45,-115.19C676.03,-108.58 545.58,-96.23 423.85,-75.99"/>
<polygon fill="midnightblue" stroke="midnightblue" points="424.42,-72.54 413.98,-74.33 423.26,-79.44 424.42,-72.54"/>
</g>
<!-- Node15&#45;&gt;Node3 -->
<g id="edge25" class="edge">
<title>Node15&#45;&gt;Node3</title>
<path fill="none" stroke="midnightblue" d="M806.79,-112.44C758.33,-98.87 659.73,-72.31 574.82,-56 468.05,-35.49 340,-20.72 280.4,-14.41"/>
<polygon fill="midnightblue" stroke="midnightblue" points="280.73,-10.92 270.42,-13.36 280,-17.89 280.73,-10.92"/>
</g>
<!-- Node15&#45;&gt;Node6 -->
<g id="edge30" class="edge">
<title>Node15&#45;&gt;Node6</title>
<path fill="none" stroke="midnightblue" d="M757.81,-114.73C625.6,-104.23 361.31,-83.24 231.82,-72.96"/>
<polygon fill="midnightblue" stroke="midnightblue" points="231.85,-69.45 221.6,-72.14 231.29,-76.43 231.85,-69.45"/>
</g>
<!-- Node15&#45;&gt;Node12 -->
<g id="edge29" class="edge">
<title>Node15&#45;&gt;Node12</title>
<path fill="none" stroke="midnightblue" d="M865.51,-112.43C887.46,-105 917.76,-92.8 940.82,-76 959.13,-62.66 975.66,-42.45 986.15,-28.12"/>
<polygon fill="midnightblue" stroke="midnightblue" points="989.2,-29.86 992.12,-19.67 983.49,-25.81 989.2,-29.86"/>
</g>
<!-- Node16 -->
<g id="node16" class="node">
<title>Node16</title>
<g id="a_node16"><a xlink:title=" ">
<polygon fill="white" stroke="#bfbfbf" points="1127.82,-56.5 1127.82,-75.5 1179.82,-75.5 1179.82,-56.5 1127.82,-56.5"/>
<text text-anchor="middle" x="1153.82" y="-63.5" font-family="Helvetica,sans-Serif" font-size="10.00">cassert</text>
</a>
</g>
</g>
<!-- Node15&#45;&gt;Node16 -->
<g id="edge24" class="edge">
<title>Node15&#45;&gt;Node16</title>
<path fill="none" stroke="midnightblue" d="M901.25,-112.47C956.25,-104.78 1037.66,-92.47 1117.3,-76.16"/>
<polygon fill="midnightblue" stroke="midnightblue" points="1118.42,-79.5 1127.5,-74.05 1117,-72.65 1118.42,-79.5"/>
</g>
<!-- Node17 -->
<g id="node17" class="node">
<title>Node17</title>
<g id="a_node17"><a xlink:title=" ">
<polygon fill="white" stroke="#bfbfbf" points="875.82,-56.5 875.82,-75.5 931.82,-75.5 931.82,-56.5 875.82,-56.5"/>
<text text-anchor="middle" x="903.82" y="-63.5" font-family="Helvetica,sans-Serif" font-size="10.00">numeric</text>
</a>
</g>
</g>
<!-- Node15&#45;&gt;Node17 -->
<g id="edge26" class="edge">
<title>Node15&#45;&gt;Node17</title>
<path fill="none" stroke="midnightblue" d="M847.58,-112.32C857.58,-104.26 872.7,-92.08 884.75,-82.37"/>
<polygon fill="midnightblue" stroke="midnightblue" points="887.26,-84.83 892.85,-75.83 882.87,-79.38 887.26,-84.83"/>
</g>
<!-- Node18 -->
<g id="node18" class="node">
<title>Node18</title>
<g id="a_node18"><a xlink:title=" ">
<polygon fill="white" stroke="#bfbfbf" points="1026.32,-56.5 1026.32,-75.5 1109.32,-75.5 1109.32,-56.5 1026.32,-56.5"/>
<text text-anchor="middle" x="1067.82" y="-63.5" font-family="Helvetica,sans-Serif" font-size="10.00">initializer_list</text>
</a>
</g>
</g>
<!-- Node15&#45;&gt;Node18 -->
<g id="edge27" class="edge">
<title>Node15&#45;&gt;Node18</title>
<path fill="none" stroke="midnightblue" d="M873.42,-112.44C913.55,-103.06 978.01,-87.99 1021.6,-77.8"/>
<polygon fill="midnightblue" stroke="midnightblue" points="1022.44,-81.2 1031.38,-75.52 1020.85,-74.38 1022.44,-81.2"/>
</g>
<!-- Node19 -->
<g id="node19" class="node">
<title>Node19</title>
<g id="a_node19"><a xlink:title=" ">
<polygon fill="white" stroke="#bfbfbf" points="773.82,-0.5 773.82,-19.5 833.82,-19.5 833.82,-0.5 773.82,-0.5"/>
<text text-anchor="middle" x="803.82" y="-7.5" font-family="Helvetica,sans-Serif" font-size="10.00">iostream</text>
</a>
</g>
</g>
<!-- Node15&#45;&gt;Node19 -->
<g id="edge28" class="edge">
<title>Node15&#45;&gt;Node19</title>
<path fill="none" stroke="midnightblue" d="M836.79,-112.36C836.53,-99.69 835.15,-75.46 828.82,-56 825.63,-46.23 820.27,-36.15 815.32,-28.02"/>
<polygon fill="midnightblue" stroke="midnightblue" points="818.2,-26.03 809.86,-19.5 812.31,-29.81 818.2,-26.03"/>
</g>
<!-- Node20 -->
<g id="node20" class="node">
<title>Node20</title>
<g id="a_node20"><a xlink:href="root_8hpp.html" target="_top" xlink:title=" ">
<polygon fill="white" stroke="black" points="697.82,-56.5 697.82,-75.5 819.82,-75.5 819.82,-56.5 697.82,-56.5"/>
<text text-anchor="middle" x="758.82" y="-63.5" font-family="Helvetica,sans-Serif" font-size="10.00">mini/algebra/root.hpp</text>
</a>
</g>
</g>
<!-- Node15&#45;&gt;Node20 -->
<g id="edge31" class="edge">
<title>Node15&#45;&gt;Node20</title>
<path fill="none" stroke="midnightblue" d="M824.28,-112.32C812.23,-103.98 793.79,-91.21 779.55,-81.35"/>
<polygon fill="midnightblue" stroke="midnightblue" points="781.53,-78.47 771.32,-75.65 777.55,-84.22 781.53,-78.47"/>
</g>
<!-- Node21 -->
<g id="node21" class="node">
<title>Node21</title>
<g id="a_node21"><a xlink:href="index_8hpp.html" target="_top" xlink:title=" ">
<polygon fill="white" stroke="black" points="431.82,-56.5 431.82,-75.5 565.82,-75.5 565.82,-56.5 431.82,-56.5"/>
<text text-anchor="middle" x="498.82" y="-63.5" font-family="Helvetica,sans-Serif" font-size="10.00">mini/constant/index.hpp</text>
</a>
</g>
</g>
<!-- Node15&#45;&gt;Node21 -->
<g id="edge35" class="edge">
<title>Node15&#45;&gt;Node21</title>
<path fill="none" stroke="midnightblue" d="M783.26,-112.44C723.18,-102.85 625.83,-87.29 562.06,-77.1"/>
<polygon fill="midnightblue" stroke="midnightblue" points="562.55,-73.64 552.12,-75.52 561.44,-80.55 562.55,-73.64"/>
</g>
<!-- Node20&#45;&gt;Node5 -->
<g id="edge34" class="edge">
<title>Node20&#45;&gt;Node5</title>
<path fill="none" stroke="midnightblue" d="M734.41,-56.44C708.62,-47.4 667.74,-33.06 638.8,-22.92"/>
<polygon fill="midnightblue" stroke="midnightblue" points="639.7,-19.52 629.1,-19.52 637.38,-26.13 639.7,-19.52"/>
</g>
<!-- Node20&#45;&gt;Node12 -->
<g id="edge32" class="edge">
<title>Node20&#45;&gt;Node12</title>
<path fill="none" stroke="midnightblue" d="M796.69,-56.44C842.87,-46.01 920.21,-28.53 964.32,-18.57"/>
<polygon fill="midnightblue" stroke="midnightblue" points="965.27,-21.94 974.25,-16.32 963.72,-15.11 965.27,-21.94"/>
</g>
<!-- Node20&#45;&gt;Node19 -->
<g id="edge33" class="edge">
<title>Node20&#45;&gt;Node19</title>
<path fill="none" stroke="midnightblue" d="M766.25,-56.08C772.67,-48.38 782.12,-37.03 789.94,-27.65"/>
<polygon fill="midnightblue" stroke="midnightblue" points="792.81,-29.67 796.52,-19.75 787.43,-25.19 792.81,-29.67"/>
</g>
<!-- Node22&#45;&gt;Node15 -->
<g id="edge37" class="edge">
<title>Node22&#45;&gt;Node15</title>
<path fill="none" stroke="midnightblue" d="M698.8,-168.44C726.51,-159.32 770.57,-144.81 801.43,-134.65"/>
<polygon fill="midnightblue" stroke="midnightblue" points="802.55,-137.97 810.95,-131.52 800.36,-131.32 802.55,-137.97"/>
</g>
<!-- Node22&#45;&gt;Node21 -->
<g id="edge38" class="edge">
<title>Node22&#45;&gt;Node21</title>
<path fill="none" stroke="midnightblue" d="M659.16,-168.37C629.18,-149.41 557.34,-104 520.87,-80.94"/>
<polygon fill="midnightblue" stroke="midnightblue" points="522.73,-77.98 512.41,-75.59 518.99,-83.89 522.73,-77.98"/>
</g>
<!-- Node23&#45;&gt;Node2 -->
<g id="edge40" class="edge">
<title>Node23&#45;&gt;Node2</title>
<path fill="none" stroke="midnightblue" d="M246.64,-112.44C274.06,-103.36 317.59,-88.94 348.25,-78.78"/>
<polygon fill="midnightblue" stroke="midnightblue" points="349.72,-81.98 358.11,-75.52 347.51,-75.34 349.72,-81.98"/>
</g>
<!-- Node23&#45;&gt;Node3 -->
<g id="edge41" class="edge">
<title>Node23&#45;&gt;Node3</title>
<path fill="none" stroke="midnightblue" d="M222.86,-112.37C227.05,-94.62 236.73,-53.67 242.42,-29.6"/>
<polygon fill="midnightblue" stroke="midnightblue" points="245.89,-30.13 244.78,-19.59 239.08,-28.52 245.89,-30.13"/>
</g>
<!-- Node23&#45;&gt;Node5 -->
<g id="edge42" class="edge">
<title>Node23&#45;&gt;Node5</title>
<path fill="none" stroke="midnightblue" d="M230,-112.13C245.48,-97.75 278.36,-69.61 311.82,-56 395.01,-22.16 500.95,-13.54 559.95,-11.49"/>
<polygon fill="midnightblue" stroke="midnightblue" points="560.16,-14.98 570.06,-11.19 559.95,-7.99 560.16,-14.98"/>
</g>
<!-- Node23&#45;&gt;Node6 -->
<g id="edge44" class="edge">
<title>Node23&#45;&gt;Node6</title>
<path fill="none" stroke="midnightblue" d="M210.53,-112.32C200.98,-104.26 186.54,-92.08 175.03,-82.37"/>
<polygon fill="midnightblue" stroke="midnightblue" points="177.18,-79.61 167.28,-75.83 172.67,-84.96 177.18,-79.61"/>
</g>
<!-- Node23&#45;&gt;Node11 -->
<g id="edge43" class="edge">
<title>Node23&#45;&gt;Node11</title>
<path fill="none" stroke="midnightblue" d="M194.04,-112.44C164.22,-102.92 116.04,-87.52 84.15,-77.33"/>
<polygon fill="midnightblue" stroke="midnightblue" points="85,-73.93 74.41,-74.22 82.87,-80.6 85,-73.93"/>
</g>
<!-- Node24&#45;&gt;Node2 -->
<g id="edge47" class="edge">
<title>Node24&#45;&gt;Node2</title>
<path fill="none" stroke="midnightblue" d="M909.6,-230.19C806.83,-225.69 642.04,-214.51 586.82,-188 543.75,-167.33 551.21,-137.49 510.82,-112 495.82,-102.54 454.05,-88.5 422.48,-78.63"/>
<polygon fill="midnightblue" stroke="midnightblue" points="423.22,-75.19 412.63,-75.58 421.15,-81.88 423.22,-75.19"/>
</g>
<!-- Node24&#45;&gt;Node4 -->
<g id="edge51" class="edge">
<title>Node24&#45;&gt;Node4</title>
<path fill="none" stroke="midnightblue" d="M909.35,-230C799.36,-225.19 616.18,-213.55 553.82,-188 527.1,-177.06 502.12,-154.38 487.16,-138.93"/>
<polygon fill="midnightblue" stroke="midnightblue" points="489.68,-136.5 480.28,-131.6 484.57,-141.29 489.68,-136.5"/>
</g>
<!-- Node24&#45;&gt;Node12 -->
<g id="edge52" class="edge">
<title>Node24&#45;&gt;Node12</title>
<path fill="none" stroke="midnightblue" d="M1025.76,-224.47C1100.89,-201.64 1286.87,-135.42 1221.82,-56 1198.2,-27.17 1088.59,-16.42 1031.93,-12.74"/>
<polygon fill="midnightblue" stroke="midnightblue" points="1031.87,-9.23 1021.67,-12.11 1031.44,-16.22 1031.87,-9.23"/>
</g>
<!-- Node24&#45;&gt;Node13 -->
<g id="edge54" class="edge">
<title>Node24&#45;&gt;Node13</title>
<path fill="none" stroke="midnightblue" d="M970.62,-224.44C943.87,-215.36 901.41,-200.94 871.51,-190.78"/>
<polygon fill="midnightblue" stroke="midnightblue" points="872.49,-187.42 861.89,-187.52 870.23,-194.05 872.49,-187.42"/>
</g>
<!-- Node24&#45;&gt;Node14 -->
<g id="edge49" class="edge">
<title>Node24&#45;&gt;Node14</title>
<path fill="none" stroke="midnightblue" d="M998.54,-224.39C1001.4,-215.34 1005.99,-200.69 1009.82,-188 1014.54,-172.35 1019.74,-154.52 1023.5,-141.5"/>
<polygon fill="midnightblue" stroke="midnightblue" points="1026.88,-142.42 1026.28,-131.85 1020.15,-140.49 1026.88,-142.42"/>
</g>
<!-- Node24&#45;&gt;Node15 -->
<g id="edge53" class="edge">
<title>Node24&#45;&gt;Node15</title>
<path fill="none" stroke="midnightblue" d="M986.21,-224.49C971.42,-211.56 941.9,-186.52 914.82,-168 897.93,-156.45 877.93,-144.95 862.41,-136.47"/>
<polygon fill="midnightblue" stroke="midnightblue" points="863.85,-133.27 853.39,-131.61 860.53,-139.43 863.85,-133.27"/>
</g>
<!-- Node24&#45;&gt;Node16 -->
<g id="edge48" class="edge">
<title>Node24&#45;&gt;Node16</title>
<path fill="none" stroke="midnightblue" d="M1006.79,-224.49C1017.81,-215.77 1035.09,-201.58 1048.82,-188 1084.23,-152.96 1121.49,-107.72 1140.68,-83.7"/>
<polygon fill="midnightblue" stroke="midnightblue" points="1143.63,-85.61 1147.1,-75.61 1138.14,-81.26 1143.63,-85.61"/>
</g>
<!-- Node24&#45;&gt;Node18 -->
<g id="edge50" class="edge">
<title>Node24&#45;&gt;Node18</title>
<path fill="none" stroke="midnightblue" d="M1003.21,-224.24C1016.85,-207.55 1045.77,-169.47 1058.82,-132 1064.03,-117.02 1066.23,-99.11 1067.16,-85.89"/>
<polygon fill="midnightblue" stroke="midnightblue" points="1070.67,-85.83 1067.69,-75.66 1063.68,-85.47 1070.67,-85.83"/>
</g>
</g>
</svg>
