<?xml version="1.0" encoding="UTF-8" standalone="no"?>
<!DOCTYPE svg PUBLIC "-//W3C//DTD SVG 1.1//EN"
 "http://www.w3.org/Graphics/SVG/1.1/DTD/svg11.dtd">
<!-- Generated by graphviz version 2.43.0 (0)
 -->
<!-- Title: include/mini/integrator/cell.hpp Pages: 1 -->
<svg width="1135pt" height="263pt"
 viewBox="0.00 0.00 1135.00 263.00" xmlns="http://www.w3.org/2000/svg" xmlns:xlink="http://www.w3.org/1999/xlink">
<g id="graph0" class="graph" transform="scale(1 1) rotate(0) translate(4 259)">
<title>include/mini/integrator/cell.hpp</title>
<polygon fill="white" stroke="transparent" points="-4,4 -4,-259 1131,-259 1131,4 -4,4"/>
<!-- Node1 -->
<g id="node1" class="node">
<title>Node1</title>
<g id="a_node1"><a xlink:title=" ">
<polygon fill="#bfbfbf" stroke="black" points="396,-224.5 396,-254.5 524,-254.5 524,-224.5 396,-224.5"/>
<text text-anchor="start" x="404" y="-242.5" font-family="Helvetica,sans-Serif" font-size="10.00">include/mini/integrator</text>
<text text-anchor="middle" x="460" y="-231.5" font-family="Helvetica,sans-Serif" font-size="10.00">/cell.hpp</text>
</a>
</g>
</g>
<!-- Node2 -->
<g id="node2" class="node">
<title>Node2</title>
<g id="a_node2"><a xlink:title=" ">
<polygon fill="white" stroke="#bfbfbf" points="339,-56.5 339,-75.5 399,-75.5 399,-56.5 339,-56.5"/>
<text text-anchor="middle" x="369" y="-63.5" font-family="Helvetica,sans-Serif" font-size="10.00">concepts</text>
</a>
</g>
</g>
<!-- Node1&#45;&gt;Node2 -->
<g id="edge1" class="edge">
<title>Node1&#45;&gt;Node2</title>
<path fill="none" stroke="midnightblue" d="M426.52,-224.37C411.03,-216.07 393.91,-204.03 384,-188 364.4,-156.31 364.66,-110.98 366.74,-85.76"/>
<polygon fill="midnightblue" stroke="midnightblue" points="370.23,-86.01 367.76,-75.71 363.27,-85.31 370.23,-86.01"/>
</g>
<!-- Node3 -->
<g id="node3" class="node">
<title>Node3</title>
<g id="a_node3"><a xlink:title=" ">
<polygon fill="white" stroke="#bfbfbf" points="753,-112.5 753,-131.5 811,-131.5 811,-112.5 753,-112.5"/>
<text text-anchor="middle" x="782" y="-119.5" font-family="Helvetica,sans-Serif" font-size="10.00">memory</text>
</a>
</g>
</g>
<!-- Node1&#45;&gt;Node3 -->
<g id="edge2" class="edge">
<title>Node1&#45;&gt;Node3</title>
<path fill="none" stroke="midnightblue" d="M524.07,-234.56C575.97,-229.28 649.75,-216.92 708,-188 732.04,-176.07 754.41,-154.34 768.13,-139.31"/>
<polygon fill="midnightblue" stroke="midnightblue" points="770.81,-141.56 774.82,-131.75 765.57,-136.92 770.81,-141.56"/>
</g>
<!-- Node4 -->
<g id="node4" class="node">
<title>Node4</title>
<g id="a_node4"><a xlink:href="coordinate_2cell_8hpp.html" target="_top" xlink:title=" ">
<polygon fill="white" stroke="black" points="393,-168.5 393,-187.5 527,-187.5 527,-168.5 393,-168.5"/>
<text text-anchor="middle" x="460" y="-175.5" font-family="Helvetica,sans-Serif" font-size="10.00">mini/coordinate/cell.hpp</text>
</a>
</g>
</g>
<!-- Node1&#45;&gt;Node4 -->
<g id="edge3" class="edge">
<title>Node1&#45;&gt;Node4</title>
<path fill="none" stroke="midnightblue" d="M460,-224.4C460,-216.47 460,-206.46 460,-197.86"/>
<polygon fill="midnightblue" stroke="midnightblue" points="463.5,-197.66 460,-187.66 456.5,-197.66 463.5,-197.66"/>
</g>
<!-- Node19 -->
<g id="node19" class="node">
<title>Node19</title>
<g id="a_node19"><a xlink:href="integrator_2element_8hpp.html" target="_top" xlink:title=" ">
<polygon fill="white" stroke="black" points="545,-168.5 545,-187.5 699,-187.5 699,-168.5 545,-168.5"/>
<text text-anchor="middle" x="622" y="-175.5" font-family="Helvetica,sans-Serif" font-size="10.00">mini/integrator/element.hpp</text>
</a>
</g>
</g>
<!-- Node1&#45;&gt;Node19 -->
<g id="edge27" class="edge">
<title>Node1&#45;&gt;Node19</title>
<path fill="none" stroke="midnightblue" d="M498.39,-224.4C525.94,-214.28 562.67,-200.79 588.92,-191.15"/>
<polygon fill="midnightblue" stroke="midnightblue" points="590.25,-194.39 598.43,-187.66 587.83,-187.82 590.25,-194.39"/>
</g>
<!-- Node20 -->
<g id="node20" class="node">
<title>Node20</title>
<g id="a_node20"><a xlink:href="function_8hpp.html" target="_top" xlink:title=" ">
<polygon fill="white" stroke="black" points="183.5,-112.5 183.5,-131.5 336.5,-131.5 336.5,-112.5 183.5,-112.5"/>
<text text-anchor="middle" x="260" y="-119.5" font-family="Helvetica,sans-Serif" font-size="10.00">mini/integrator/function.hpp</text>
</a>
</g>
</g>
<!-- Node1&#45;&gt;Node20 -->
<g id="edge30" class="edge">
<title>Node1&#45;&gt;Node20</title>
<path fill="none" stroke="midnightblue" d="M425.29,-224.39C403.46,-215.04 374.97,-201.95 351,-188 324.75,-172.73 296.61,-151.85 278.69,-137.92"/>
<polygon fill="midnightblue" stroke="midnightblue" points="280.79,-135.12 270.76,-131.7 276.46,-140.63 280.79,-135.12"/>
</g>
<!-- Node4&#45;&gt;Node2 -->
<g id="edge4" class="edge">
<title>Node4&#45;&gt;Node2</title>
<path fill="none" stroke="midnightblue" d="M452.86,-168.37C437.71,-150.05 402.13,-107.05 382.54,-83.36"/>
<polygon fill="midnightblue" stroke="midnightblue" points="385.18,-81.07 376.11,-75.59 379.78,-85.53 385.18,-81.07"/>
</g>
<!-- Node4&#45;&gt;Node3 -->
<g id="edge6" class="edge">
<title>Node4&#45;&gt;Node3</title>
<path fill="none" stroke="midnightblue" d="M511.02,-168.44C575.43,-157.64 684.81,-139.3 742.96,-129.55"/>
<polygon fill="midnightblue" stroke="midnightblue" points="743.57,-132.99 752.86,-127.89 742.41,-126.09 743.57,-132.99"/>
</g>
<!-- Node5 -->
<g id="node5" class="node">
<title>Node5</title>
<g id="a_node5"><a xlink:title=" ">
<polygon fill="white" stroke="#bfbfbf" points="0,-0.5 0,-19.5 64,-19.5 64,-0.5 0,-0.5"/>
<text text-anchor="middle" x="32" y="-7.5" font-family="Helvetica,sans-Serif" font-size="10.00">algorithm</text>
</a>
</g>
</g>
<!-- Node4&#45;&gt;Node5 -->
<g id="edge5" class="edge">
<title>Node4&#45;&gt;Node5</title>
<path fill="none" stroke="midnightblue" d="M392.81,-171.18C334.2,-164.98 247.3,-153.08 174,-132 113.15,-114.5 82.18,-125.74 43,-76 32.72,-62.95 30.56,-43.79 30.62,-29.66"/>
<polygon fill="midnightblue" stroke="midnightblue" points="34.12,-29.74 31.03,-19.61 27.12,-29.46 34.12,-29.74"/>
</g>
<!-- Node6 -->
<g id="node6" class="node">
<title>Node6</title>
<g id="a_node6"><a xlink:title=" ">
<polygon fill="white" stroke="#bfbfbf" points="392.5,-0.5 392.5,-19.5 461.5,-19.5 461.5,-0.5 392.5,-0.5"/>
<text text-anchor="middle" x="427" y="-7.5" font-family="Helvetica,sans-Serif" font-size="10.00">type_traits</text>
</a>
</g>
</g>
<!-- Node4&#45;&gt;Node6 -->
<g id="edge7" class="edge">
<title>Node4&#45;&gt;Node6</title>
<path fill="none" stroke="midnightblue" d="M458.23,-168.08C453.03,-141.95 437.78,-65.21 430.69,-29.58"/>
<polygon fill="midnightblue" stroke="midnightblue" points="434.09,-28.69 428.7,-19.57 427.22,-30.06 434.09,-28.69"/>
</g>
<!-- Node7 -->
<g id="node7" class="node">
<title>Node7</title>
<g id="a_node7"><a xlink:title=" ">
<polygon fill="white" stroke="#bfbfbf" points="568.5,-0.5 568.5,-19.5 615.5,-19.5 615.5,-0.5 568.5,-0.5"/>
<text text-anchor="middle" x="592" y="-7.5" font-family="Helvetica,sans-Serif" font-size="10.00">vector</text>
</a>
</g>
</g>
<!-- Node4&#45;&gt;Node7 -->
<g id="edge8" class="edge">
<title>Node4&#45;&gt;Node7</title>
<path fill="none" stroke="midnightblue" d="M462.63,-168.47C469.49,-147.33 489.66,-91.67 522,-56 533.75,-43.04 550.04,-32.28 563.95,-24.53"/>
<polygon fill="midnightblue" stroke="midnightblue" points="565.93,-27.44 573.11,-19.65 562.64,-21.26 565.93,-27.44"/>
</g>
<!-- Node8 -->
<g id="node8" class="node">
<title>Node8</title>
<g id="a_node8"><a xlink:href="coordinate_2element_8hpp.html" target="_top" xlink:title=" ">
<polygon fill="white" stroke="black" points="539,-112.5 539,-131.5 697,-131.5 697,-112.5 539,-112.5"/>
<text text-anchor="middle" x="618" y="-119.5" font-family="Helvetica,sans-Serif" font-size="10.00">mini/coordinate/element.hpp</text>
</a>
</g>
</g>
<!-- Node4&#45;&gt;Node8 -->
<g id="edge9" class="edge">
<title>Node4&#45;&gt;Node8</title>
<path fill="none" stroke="midnightblue" d="M485.04,-168.44C511.62,-159.36 553.81,-144.94 583.52,-134.78"/>
<polygon fill="midnightblue" stroke="midnightblue" points="584.75,-138.06 593.08,-131.52 582.49,-131.44 584.75,-138.06"/>
</g>
<!-- Node8&#45;&gt;Node2 -->
<g id="edge10" class="edge">
<title>Node8&#45;&gt;Node2</title>
<path fill="none" stroke="midnightblue" d="M578.55,-112.44C532.27,-102.41 455.96,-85.86 409.31,-75.74"/>
<polygon fill="midnightblue" stroke="midnightblue" points="409.78,-72.26 399.26,-73.56 408.29,-79.1 409.78,-72.26"/>
</g>
<!-- Node8&#45;&gt;Node7 -->
<g id="edge16" class="edge">
<title>Node8&#45;&gt;Node7</title>
<path fill="none" stroke="midnightblue" d="M687.79,-112.47C771.29,-101.93 900.84,-84.35 908,-76 913.78,-69.25 913.83,-62.71 908,-56 889.66,-34.86 703.52,-19.07 625.8,-13.34"/>
<polygon fill="midnightblue" stroke="midnightblue" points="625.81,-9.83 615.58,-12.6 625.31,-16.81 625.81,-9.83"/>
</g>
<!-- Node9 -->
<g id="node9" class="node">
<title>Node9</title>
<g id="a_node9"><a xlink:title=" ">
<polygon fill="white" stroke="#bfbfbf" points="671,-56.5 671,-75.5 723,-75.5 723,-56.5 671,-56.5"/>
<text text-anchor="middle" x="697" y="-63.5" font-family="Helvetica,sans-Serif" font-size="10.00">cassert</text>
</a>
</g>
</g>
<!-- Node8&#45;&gt;Node9 -->
<g id="edge11" class="edge">
<title>Node8&#45;&gt;Node9</title>
<path fill="none" stroke="midnightblue" d="M630.69,-112.32C642.9,-103.98 661.58,-91.21 676,-81.35"/>
<polygon fill="midnightblue" stroke="midnightblue" points="678.06,-84.19 684.34,-75.65 674.11,-78.41 678.06,-84.19"/>
</g>
<!-- Node10 -->
<g id="node10" class="node">
<title>Node10</title>
<g id="a_node10"><a xlink:title=" ">
<polygon fill="white" stroke="#bfbfbf" points="249.5,-0.5 249.5,-19.5 296.5,-19.5 296.5,-0.5 249.5,-0.5"/>
<text text-anchor="middle" x="273" y="-7.5" font-family="Helvetica,sans-Serif" font-size="10.00">cmath</text>
</a>
</g>
</g>
<!-- Node8&#45;&gt;Node10 -->
<g id="edge12" class="edge">
<title>Node8&#45;&gt;Node10</title>
<path fill="none" stroke="midnightblue" d="M591.22,-112.46C529.02,-92.63 374.94,-43.5 306.58,-21.71"/>
<polygon fill="midnightblue" stroke="midnightblue" points="307.35,-18.28 296.76,-18.57 305.22,-24.95 307.35,-18.28"/>
</g>
<!-- Node11 -->
<g id="node11" class="node">
<title>Node11</title>
<g id="a_node11"><a xlink:title=" ">
<polygon fill="white" stroke="#bfbfbf" points="741,-56.5 741,-75.5 797,-75.5 797,-56.5 741,-56.5"/>
<text text-anchor="middle" x="769" y="-63.5" font-family="Helvetica,sans-Serif" font-size="10.00">numeric</text>
</a>
</g>
</g>
<!-- Node8&#45;&gt;Node11 -->
<g id="edge13" class="edge">
<title>Node8&#45;&gt;Node11</title>
<path fill="none" stroke="midnightblue" d="M641.93,-112.44C667.22,-103.4 707.3,-89.06 735.68,-78.92"/>
<polygon fill="midnightblue" stroke="midnightblue" points="736.95,-82.18 745.19,-75.52 734.59,-75.59 736.95,-82.18"/>
</g>
<!-- Node12 -->
<g id="node12" class="node">
<title>Node12</title>
<g id="a_node12"><a xlink:title=" ">
<polygon fill="white" stroke="#bfbfbf" points="815.5,-56.5 815.5,-75.5 898.5,-75.5 898.5,-56.5 815.5,-56.5"/>
<text text-anchor="middle" x="857" y="-63.5" font-family="Helvetica,sans-Serif" font-size="10.00">initializer_list</text>
</a>
</g>
</g>
<!-- Node8&#45;&gt;Node12 -->
<g id="edge14" class="edge">
<title>Node8&#45;&gt;Node12</title>
<path fill="none" stroke="midnightblue" d="M655.87,-112.44C697.48,-103.04 764.37,-87.93 809.47,-77.74"/>
<polygon fill="midnightblue" stroke="midnightblue" points="810.32,-81.13 819.31,-75.52 808.78,-74.31 810.32,-81.13"/>
</g>
<!-- Node13 -->
<g id="node13" class="node">
<title>Node13</title>
<g id="a_node13"><a xlink:title=" ">
<polygon fill="white" stroke="#bfbfbf" points="784,-0.5 784,-19.5 844,-19.5 844,-0.5 784,-0.5"/>
<text text-anchor="middle" x="814" y="-7.5" font-family="Helvetica,sans-Serif" font-size="10.00">iostream</text>
</a>
</g>
</g>
<!-- Node8&#45;&gt;Node13 -->
<g id="edge15" class="edge">
<title>Node8&#45;&gt;Node13</title>
<path fill="none" stroke="midnightblue" d="M692.78,-112.47C780.91,-102.05 916.45,-84.74 924,-76 948.06,-48.14 894.71,-29.09 854.2,-19.13"/>
<polygon fill="midnightblue" stroke="midnightblue" points="854.76,-15.67 844.23,-16.8 853.17,-22.48 854.76,-15.67"/>
</g>
<!-- Node14 -->
<g id="node14" class="node">
<title>Node14</title>
<g id="a_node14"><a xlink:href="algebra_2eigen_8hpp.html" target="_top" xlink:title=" ">
<polygon fill="white" stroke="black" points="115.5,-56.5 115.5,-75.5 244.5,-75.5 244.5,-56.5 115.5,-56.5"/>
<text text-anchor="middle" x="180" y="-63.5" font-family="Helvetica,sans-Serif" font-size="10.00">mini/algebra/eigen.hpp</text>
</a>
</g>
</g>
<!-- Node8&#45;&gt;Node14 -->
<g id="edge17" class="edge">
<title>Node8&#45;&gt;Node14</title>
<path fill="none" stroke="midnightblue" d="M548.6,-112.44C468.48,-102.57 337.19,-86.38 254.84,-76.23"/>
<polygon fill="midnightblue" stroke="midnightblue" points="255.15,-72.74 244.79,-74.99 254.29,-79.69 255.15,-72.74"/>
</g>
<!-- Node17 -->
<g id="node17" class="node">
<title>Node17</title>
<g id="a_node17"><a xlink:href="root_8hpp.html" target="_top" xlink:title=" ">
<polygon fill="white" stroke="black" points="531,-56.5 531,-75.5 653,-75.5 653,-56.5 531,-56.5"/>
<text text-anchor="middle" x="592" y="-63.5" font-family="Helvetica,sans-Serif" font-size="10.00">mini/algebra/root.hpp</text>
</a>
</g>
</g>
<!-- Node8&#45;&gt;Node17 -->
<g id="edge22" class="edge">
<title>Node8&#45;&gt;Node17</title>
<path fill="none" stroke="midnightblue" d="M613.71,-112.08C610.15,-104.69 604.98,-93.95 600.58,-84.81"/>
<polygon fill="midnightblue" stroke="midnightblue" points="603.71,-83.24 596.21,-75.75 597.4,-86.28 603.71,-83.24"/>
</g>
<!-- Node18 -->
<g id="node18" class="node">
<title>Node18</title>
<g id="a_node18"><a xlink:href="index_8hpp.html" target="_top" xlink:title=" ">
<polygon fill="white" stroke="black" points="993,-56.5 993,-75.5 1127,-75.5 1127,-56.5 993,-56.5"/>
<text text-anchor="middle" x="1060" y="-63.5" font-family="Helvetica,sans-Serif" font-size="10.00">mini/constant/index.hpp</text>
</a>
</g>
</g>
<!-- Node8&#45;&gt;Node18 -->
<g id="edge26" class="edge">
<title>Node8&#45;&gt;Node18</title>
<path fill="none" stroke="midnightblue" d="M688.04,-112.44C768.3,-102.64 899.47,-86.61 982.67,-76.45"/>
<polygon fill="midnightblue" stroke="midnightblue" points="983.32,-79.89 992.83,-75.21 982.47,-72.95 983.32,-79.89"/>
</g>
<!-- Node14&#45;&gt;Node5 -->
<g id="edge18" class="edge">
<title>Node14&#45;&gt;Node5</title>
<path fill="none" stroke="midnightblue" d="M156.55,-56.44C131.87,-47.44 92.81,-33.19 65.02,-23.05"/>
<polygon fill="midnightblue" stroke="midnightblue" points="65.94,-19.66 55.34,-19.52 63.54,-26.23 65.94,-19.66"/>
</g>
<!-- Node14&#45;&gt;Node10 -->
<g id="edge19" class="edge">
<title>Node14&#45;&gt;Node10</title>
<path fill="none" stroke="midnightblue" d="M194.94,-56.32C209.59,-47.82 232.13,-34.73 249.24,-24.8"/>
<polygon fill="midnightblue" stroke="midnightblue" points="251.2,-27.7 258.1,-19.65 247.69,-21.65 251.2,-27.7"/>
</g>
<!-- Node15 -->
<g id="node15" class="node">
<title>Node15</title>
<g id="a_node15"><a xlink:title=" ">
<polygon fill="white" stroke="#bfbfbf" points="82.5,-0.5 82.5,-19.5 131.5,-19.5 131.5,-0.5 82.5,-0.5"/>
<text text-anchor="middle" x="107" y="-7.5" font-family="Helvetica,sans-Serif" font-size="10.00">cstdlib</text>
</a>
</g>
</g>
<!-- Node14&#45;&gt;Node15 -->
<g id="edge20" class="edge">
<title>Node14&#45;&gt;Node15</title>
<path fill="none" stroke="midnightblue" d="M168.27,-56.32C157.16,-48.11 140.26,-35.6 127.02,-25.81"/>
<polygon fill="midnightblue" stroke="midnightblue" points="129.06,-22.97 118.94,-19.83 124.9,-28.59 129.06,-22.97"/>
</g>
<!-- Node16 -->
<g id="node16" class="node">
<title>Node16</title>
<g id="a_node16"><a xlink:title=" ">
<polygon fill="white" stroke="#bfbfbf" points="150,-0.5 150,-19.5 224,-19.5 224,-0.5 150,-0.5"/>
<text text-anchor="middle" x="187" y="-7.5" font-family="Helvetica,sans-Serif" font-size="10.00">Eigen/Eigen</text>
</a>
</g>
</g>
<!-- Node14&#45;&gt;Node16 -->
<g id="edge21" class="edge">
<title>Node14&#45;&gt;Node16</title>
<path fill="none" stroke="midnightblue" d="M181.16,-56.08C182.08,-48.93 183.42,-38.64 184.58,-29.69"/>
<polygon fill="midnightblue" stroke="midnightblue" points="188.05,-30.12 185.87,-19.75 181.11,-29.22 188.05,-30.12"/>
</g>
<!-- Node17&#45;&gt;Node6 -->
<g id="edge25" class="edge">
<title>Node17&#45;&gt;Node6</title>
<path fill="none" stroke="midnightblue" d="M565.86,-56.44C537.98,-47.32 493.65,-32.81 462.6,-22.65"/>
<polygon fill="midnightblue" stroke="midnightblue" points="463.62,-19.3 453.02,-19.52 461.44,-25.95 463.62,-19.3"/>
</g>
<!-- Node17&#45;&gt;Node7 -->
<g id="edge23" class="edge">
<title>Node17&#45;&gt;Node7</title>
<path fill="none" stroke="midnightblue" d="M592,-56.08C592,-49.01 592,-38.86 592,-29.99"/>
<polygon fill="midnightblue" stroke="midnightblue" points="595.5,-29.75 592,-19.75 588.5,-29.75 595.5,-29.75"/>
</g>
<!-- Node17&#45;&gt;Node13 -->
<g id="edge24" class="edge">
<title>Node17&#45;&gt;Node13</title>
<path fill="none" stroke="midnightblue" d="M627.18,-56.44C667.16,-46.72 732.29,-30.88 774.13,-20.7"/>
<polygon fill="midnightblue" stroke="midnightblue" points="775.08,-24.07 783.97,-18.3 773.43,-17.27 775.08,-24.07"/>
</g>
<!-- Node19&#45;&gt;Node8 -->
<g id="edge28" class="edge">
<title>Node19&#45;&gt;Node8</title>
<path fill="none" stroke="midnightblue" d="M621.34,-168.08C620.82,-161.01 620.06,-150.86 619.41,-141.99"/>
<polygon fill="midnightblue" stroke="midnightblue" points="622.88,-141.47 618.65,-131.75 615.9,-141.98 622.88,-141.47"/>
</g>
<!-- Node19&#45;&gt;Node18 -->
<g id="edge29" class="edge">
<title>Node19&#45;&gt;Node18</title>
<path fill="none" stroke="midnightblue" d="M638.23,-168.31C671.11,-150.7 742.6,-112.46 744,-112 786.98,-97.97 903.55,-83.54 982.44,-74.93"/>
<polygon fill="midnightblue" stroke="midnightblue" points="983.26,-78.36 992.83,-73.8 982.51,-71.4 983.26,-78.36"/>
</g>
<!-- Node20&#45;&gt;Node2 -->
<g id="edge31" class="edge">
<title>Node20&#45;&gt;Node2</title>
<path fill="none" stroke="midnightblue" d="M277.51,-112.32C295.07,-103.62 322.33,-90.12 342.53,-80.11"/>
<polygon fill="midnightblue" stroke="midnightblue" points="344.12,-83.23 351.53,-75.65 341.02,-76.96 344.12,-83.23"/>
</g>
<!-- Node20&#45;&gt;Node6 -->
<g id="edge33" class="edge">
<title>Node20&#45;&gt;Node6</title>
<path fill="none" stroke="midnightblue" d="M267.88,-112.06C280.13,-98.58 304.94,-72.83 330,-56 349.91,-42.63 374.42,-31.3 393.83,-23.35"/>
<polygon fill="midnightblue" stroke="midnightblue" points="395.19,-26.57 403.18,-19.61 392.59,-20.07 395.19,-26.57"/>
</g>
<!-- Node20&#45;&gt;Node10 -->
<g id="edge32" class="edge">
<title>Node20&#45;&gt;Node10</title>
<path fill="none" stroke="midnightblue" d="M261.02,-112.37C263.12,-94.62 267.96,-53.67 270.8,-29.6"/>
<polygon fill="midnightblue" stroke="midnightblue" points="274.29,-29.93 271.98,-19.59 267.34,-29.11 274.29,-29.93"/>
</g>
<!-- Node20&#45;&gt;Node14 -->
<g id="edge35" class="edge">
<title>Node20&#45;&gt;Node14</title>
<path fill="none" stroke="midnightblue" d="M247.15,-112.32C234.78,-103.98 215.87,-91.21 201.26,-81.35"/>
<polygon fill="midnightblue" stroke="midnightblue" points="203.07,-78.35 192.82,-75.65 199.15,-84.15 203.07,-78.35"/>
</g>
<!-- Node21 -->
<g id="node21" class="node">
<title>Node21</title>
<g id="a_node21"><a xlink:title=" ">
<polygon fill="white" stroke="#bfbfbf" points="52.5,-56.5 52.5,-75.5 97.5,-75.5 97.5,-56.5 52.5,-56.5"/>
<text text-anchor="middle" x="75" y="-63.5" font-family="Helvetica,sans-Serif" font-size="10.00">utility</text>
</a>
</g>
</g>
<!-- Node20&#45;&gt;Node21 -->
<g id="edge34" class="edge">
<title>Node20&#45;&gt;Node21</title>
<path fill="none" stroke="midnightblue" d="M230.69,-112.44C197.12,-102.65 142.28,-86.64 107.45,-76.47"/>
<polygon fill="midnightblue" stroke="midnightblue" points="108.34,-73.09 97.76,-73.64 106.38,-79.81 108.34,-73.09"/>
</g>
</g>
</svg>
