<?xml version="1.0" encoding="UTF-8" standalone="no"?>
<!DOCTYPE svg PUBLIC "-//W3C//DTD SVG 1.1//EN"
 "http://www.w3.org/Graphics/SVG/1.1/DTD/svg11.dtd">
<!-- Generated by graphviz version 2.43.0 (0)
 -->
<!-- Title: include/mini/integrator/element.hpp Pages: 1 -->
<svg width="1106pt" height="374pt"
 viewBox="0.00 0.00 1105.50 374.00" xmlns="http://www.w3.org/2000/svg" xmlns:xlink="http://www.w3.org/1999/xlink">
<g id="graph0" class="graph" transform="scale(1 1) rotate(0) translate(4 370)">
<title>include/mini/integrator/element.hpp</title>
<polygon fill="white" stroke="transparent" points="-4,4 -4,-370 1101.5,-370 1101.5,4 -4,4"/>
<!-- Node1 -->
<g id="node1" class="node">
<title>Node1</title>
<g id="a_node1"><a xlink:title=" ">
<polygon fill="#bfbfbf" stroke="black" points="416,-335.5 416,-365.5 544,-365.5 544,-335.5 416,-335.5"/>
<text text-anchor="start" x="424" y="-353.5" font-family="Helvetica,sans-Serif" font-size="10.00">include/mini/integrator</text>
<text text-anchor="middle" x="480" y="-342.5" font-family="Helvetica,sans-Serif" font-size="10.00">/element.hpp</text>
</a>
</g>
</g>
<!-- Node2 -->
<g id="node2" class="node">
<title>Node2</title>
<g id="a_node2"><a xlink:href="integrator_2cell_8hpp.html" target="_top" xlink:title=" ">
<polygon fill="white" stroke="black" points="549,-268.5 549,-298.5 677,-298.5 677,-268.5 549,-268.5"/>
<text text-anchor="start" x="557" y="-286.5" font-family="Helvetica,sans-Serif" font-size="10.00">include/mini/integrator</text>
<text text-anchor="middle" x="613" y="-275.5" font-family="Helvetica,sans-Serif" font-size="10.00">/cell.hpp</text>
</a>
</g>
</g>
<!-- Node1&#45;&gt;Node2 -->
<g id="edge1" class="edge">
<title>Node1&#45;&gt;Node2</title>
<path fill="none" stroke="midnightblue" d="M517.87,-330.99C538.95,-320.69 564.78,-308.07 584.2,-298.58"/>
<polygon fill="midnightblue" stroke="midnightblue" points="516.31,-327.86 508.86,-335.4 519.38,-334.15 516.31,-327.86"/>
</g>
<!-- Node16 -->
<g id="node16" class="node">
<title>Node16</title>
<g id="a_node16"><a xlink:href="integrator_2face_8hpp.html" target="_top" xlink:title=" ">
<polygon fill="white" stroke="black" points="303,-268.5 303,-298.5 431,-298.5 431,-268.5 303,-268.5"/>
<text text-anchor="start" x="311" y="-286.5" font-family="Helvetica,sans-Serif" font-size="10.00">include/mini/integrator</text>
<text text-anchor="middle" x="367" y="-275.5" font-family="Helvetica,sans-Serif" font-size="10.00">/face.hpp</text>
</a>
</g>
</g>
<!-- Node1&#45;&gt;Node16 -->
<g id="edge17" class="edge">
<title>Node1&#45;&gt;Node16</title>
<path fill="none" stroke="midnightblue" d="M446.61,-330.3C428.93,-320.12 407.6,-307.85 391.47,-298.58"/>
<polygon fill="midnightblue" stroke="midnightblue" points="445.07,-333.44 455.48,-335.4 448.56,-327.38 445.07,-333.44"/>
</g>
<!-- Node3 -->
<g id="node3" class="node">
<title>Node3</title>
<g id="a_node3"><a xlink:href="basis_2linear_8hpp.html" target="_top" xlink:title=" ">
<polygon fill="white" stroke="black" points="460.5,-201.5 460.5,-231.5 565.5,-231.5 565.5,-201.5 460.5,-201.5"/>
<text text-anchor="start" x="468.5" y="-219.5" font-family="Helvetica,sans-Serif" font-size="10.00">include/mini/basis</text>
<text text-anchor="middle" x="513" y="-208.5" font-family="Helvetica,sans-Serif" font-size="10.00">/linear.hpp</text>
</a>
</g>
</g>
<!-- Node2&#45;&gt;Node3 -->
<g id="edge2" class="edge">
<title>Node2&#45;&gt;Node3</title>
<path fill="none" stroke="midnightblue" d="M582.59,-262.73C567.12,-252.68 548.67,-240.68 534.66,-231.58"/>
<polygon fill="midnightblue" stroke="midnightblue" points="581.01,-265.88 591.3,-268.4 584.82,-260.01 581.01,-265.88"/>
</g>
<!-- Node6 -->
<g id="node6" class="node">
<title>Node6</title>
<g id="a_node6"><a xlink:href="integrator_2hexahedron_8hpp.html" target="_top" xlink:title=" ">
<polygon fill="white" stroke="black" points="952,-201.5 952,-231.5 1080,-231.5 1080,-201.5 952,-201.5"/>
<text text-anchor="start" x="960" y="-219.5" font-family="Helvetica,sans-Serif" font-size="10.00">include/mini/integrator</text>
<text text-anchor="middle" x="1016" y="-208.5" font-family="Helvetica,sans-Serif" font-size="10.00">/hexahedron.hpp</text>
</a>
</g>
</g>
<!-- Node2&#45;&gt;Node6 -->
<g id="edge5" class="edge">
<title>Node2&#45;&gt;Node6</title>
<path fill="none" stroke="midnightblue" d="M687.05,-272.12C754.04,-262.51 855.31,-247.41 943,-232 945.93,-231.49 948.92,-230.95 951.94,-230.39"/>
<polygon fill="midnightblue" stroke="midnightblue" points="686.42,-268.68 677.02,-273.56 687.41,-275.61 686.42,-268.68"/>
</g>
<!-- Node8 -->
<g id="node8" class="node">
<title>Node8</title>
<g id="a_node8"><a xlink:href="polynomial_2hexahedron_8hpp.html" target="_top" xlink:title=" ">
<polygon fill="white" stroke="black" points="727,-134.5 727,-164.5 861,-164.5 861,-134.5 727,-134.5"/>
<text text-anchor="start" x="735" y="-152.5" font-family="Helvetica,sans-Serif" font-size="10.00">include/mini/polynomial</text>
<text text-anchor="middle" x="794" y="-141.5" font-family="Helvetica,sans-Serif" font-size="10.00">/hexahedron.hpp</text>
</a>
</g>
</g>
<!-- Node2&#45;&gt;Node8 -->
<g id="edge16" class="edge">
<title>Node2&#45;&gt;Node8</title>
<path fill="none" stroke="midnightblue" d="M618.73,-258.57C624.21,-240.49 634.19,-216.26 651,-201 672.06,-181.89 700.8,-169.92 726.99,-162.46"/>
<polygon fill="midnightblue" stroke="midnightblue" points="615.31,-257.82 616.01,-268.39 622.05,-259.69 615.31,-257.82"/>
</g>
<!-- Node12 -->
<g id="node12" class="node">
<title>Node12</title>
<g id="a_node12"><a xlink:href="integrator_2pyramid_8hpp.html" target="_top" xlink:title=" ">
<polygon fill="white" stroke="black" points="660,-201.5 660,-231.5 788,-231.5 788,-201.5 660,-201.5"/>
<text text-anchor="start" x="668" y="-219.5" font-family="Helvetica,sans-Serif" font-size="10.00">include/mini/integrator</text>
<text text-anchor="middle" x="724" y="-208.5" font-family="Helvetica,sans-Serif" font-size="10.00">/pyramid.hpp</text>
</a>
</g>
</g>
<!-- Node2&#45;&gt;Node12 -->
<g id="edge12" class="edge">
<title>Node2&#45;&gt;Node12</title>
<path fill="none" stroke="midnightblue" d="M645.8,-263.3C663.16,-253.12 684.12,-240.85 699.96,-231.58"/>
<polygon fill="midnightblue" stroke="midnightblue" points="643.95,-260.32 637.09,-268.4 647.48,-266.36 643.95,-260.32"/>
</g>
<!-- Node13 -->
<g id="node13" class="node">
<title>Node13</title>
<g id="a_node13"><a xlink:href="integrator_2tetrahedron_8hpp.html" target="_top" xlink:title=" ">
<polygon fill="white" stroke="black" points="806,-201.5 806,-231.5 934,-231.5 934,-201.5 806,-201.5"/>
<text text-anchor="start" x="814" y="-219.5" font-family="Helvetica,sans-Serif" font-size="10.00">include/mini/integrator</text>
<text text-anchor="middle" x="870" y="-208.5" font-family="Helvetica,sans-Serif" font-size="10.00">/tetrahedron.hpp</text>
</a>
</g>
</g>
<!-- Node2&#45;&gt;Node13 -->
<g id="edge13" class="edge">
<title>Node2&#45;&gt;Node13</title>
<path fill="none" stroke="midnightblue" d="M678.3,-265.98C720.28,-255.37 774.24,-241.72 814.21,-231.61"/>
<polygon fill="midnightblue" stroke="midnightblue" points="677.29,-262.63 668.45,-268.48 679,-269.42 677.29,-262.63"/>
</g>
<!-- Node14 -->
<g id="node14" class="node">
<title>Node14</title>
<g id="a_node14"><a xlink:href="integrator_2wedge_8hpp.html" target="_top" xlink:title=" ">
<polygon fill="white" stroke="black" points="223,-134.5 223,-164.5 351,-164.5 351,-134.5 223,-134.5"/>
<text text-anchor="start" x="231" y="-152.5" font-family="Helvetica,sans-Serif" font-size="10.00">include/mini/integrator</text>
<text text-anchor="middle" x="287" y="-141.5" font-family="Helvetica,sans-Serif" font-size="10.00">/wedge.hpp</text>
</a>
</g>
</g>
<!-- Node2&#45;&gt;Node14 -->
<g id="edge14" class="edge">
<title>Node2&#45;&gt;Node14</title>
<path fill="none" stroke="midnightblue" d="M607.89,-258.65C602.61,-240.02 592.47,-215.02 574,-201 556.47,-187.69 430.18,-169.15 351.08,-158.63"/>
<polygon fill="midnightblue" stroke="midnightblue" points="604.53,-259.66 610.4,-268.49 611.32,-257.93 604.53,-259.66"/>
</g>
<!-- Node15 -->
<g id="node15" class="node">
<title>Node15</title>
<g id="a_node15"><a xlink:href="part_8hpp.html" target="_top" xlink:title=" ">
<polygon fill="white" stroke="black" points="292,-207 292,-226 442,-226 442,-207 292,-207"/>
<text text-anchor="middle" x="367" y="-214" font-family="Helvetica,sans-Serif" font-size="10.00">include/mini/mesh/part.hpp</text>
</a>
</g>
</g>
<!-- Node2&#45;&gt;Node15 -->
<g id="edge15" class="edge">
<title>Node2&#45;&gt;Node15</title>
<path fill="none" stroke="midnightblue" d="M550.21,-265.91C502.04,-253.18 437.5,-236.13 399.28,-226.03"/>
<polygon fill="midnightblue" stroke="midnightblue" points="549.36,-269.31 559.92,-268.48 551.15,-262.54 549.36,-269.31"/>
</g>
<!-- Node4 -->
<g id="node4" class="node">
<title>Node4</title>
<g id="a_node4"><a xlink:href="projection_8hpp.html" target="_top" xlink:title=" ">
<polygon fill="white" stroke="black" points="446,-134.5 446,-164.5 580,-164.5 580,-134.5 446,-134.5"/>
<text text-anchor="start" x="454" y="-152.5" font-family="Helvetica,sans-Serif" font-size="10.00">include/mini/polynomial</text>
<text text-anchor="middle" x="513" y="-141.5" font-family="Helvetica,sans-Serif" font-size="10.00">/projection.hpp</text>
</a>
</g>
</g>
<!-- Node3&#45;&gt;Node4 -->
<g id="edge3" class="edge">
<title>Node3&#45;&gt;Node4</title>
<path fill="none" stroke="midnightblue" d="M513,-191.11C513,-182.15 513,-172.32 513,-164.58"/>
<polygon fill="midnightblue" stroke="midnightblue" points="509.5,-191.4 513,-201.4 516.5,-191.4 509.5,-191.4"/>
</g>
<!-- Node5 -->
<g id="node5" class="node">
<title>Node5</title>
<g id="a_node5"><a xlink:href="extrapolation_8hpp.html" target="_top" xlink:title=" ">
<polygon fill="white" stroke="black" points="446,-67.5 446,-97.5 580,-97.5 580,-67.5 446,-67.5"/>
<text text-anchor="start" x="454" y="-85.5" font-family="Helvetica,sans-Serif" font-size="10.00">include/mini/polynomial</text>
<text text-anchor="middle" x="513" y="-74.5" font-family="Helvetica,sans-Serif" font-size="10.00">/extrapolation.hpp</text>
</a>
</g>
</g>
<!-- Node4&#45;&gt;Node5 -->
<g id="edge4" class="edge">
<title>Node4&#45;&gt;Node5</title>
<path fill="none" stroke="midnightblue" d="M513,-124.11C513,-115.15 513,-105.32 513,-97.58"/>
<polygon fill="midnightblue" stroke="midnightblue" points="509.5,-124.4 513,-134.4 516.5,-124.4 509.5,-124.4"/>
</g>
<!-- Node7 -->
<g id="node7" class="node">
<title>Node7</title>
<g id="a_node7"><a xlink:href="quality_8hpp.html" target="_top" xlink:title=" ">
<polygon fill="white" stroke="black" points="934.5,-140 934.5,-159 1097.5,-159 1097.5,-140 934.5,-140"/>
<text text-anchor="middle" x="1016" y="-147" font-family="Helvetica,sans-Serif" font-size="10.00">include/mini/mesh/quality.hpp</text>
</a>
</g>
</g>
<!-- Node6&#45;&gt;Node7 -->
<g id="edge6" class="edge">
<title>Node6&#45;&gt;Node7</title>
<path fill="none" stroke="midnightblue" d="M1016,-191.25C1016,-180.02 1016,-167.38 1016,-159.19"/>
<polygon fill="midnightblue" stroke="midnightblue" points="1012.5,-191.4 1016,-201.4 1019.5,-191.4 1012.5,-191.4"/>
</g>
<!-- Node6&#45;&gt;Node8 -->
<g id="edge7" class="edge">
<title>Node6&#45;&gt;Node8</title>
<path fill="none" stroke="midnightblue" d="M958.21,-198.58C922.15,-188.02 876.28,-174.59 842.19,-164.61"/>
<polygon fill="midnightblue" stroke="midnightblue" points="957.52,-202.02 968.1,-201.48 959.49,-195.31 957.52,-202.02"/>
</g>
<!-- Node9 -->
<g id="node9" class="node">
<title>Node9</title>
<g id="a_node9"><a xlink:href="spatial_2dg_2lobatto_8hpp.html" target="_top" xlink:title=" ">
<polygon fill="white" stroke="black" points="652.5,-67.5 652.5,-97.5 765.5,-97.5 765.5,-67.5 652.5,-67.5"/>
<text text-anchor="start" x="660.5" y="-85.5" font-family="Helvetica,sans-Serif" font-size="10.00">include/mini/spatial</text>
<text text-anchor="middle" x="709" y="-74.5" font-family="Helvetica,sans-Serif" font-size="10.00">/dg/lobatto.hpp</text>
</a>
</g>
</g>
<!-- Node8&#45;&gt;Node9 -->
<g id="edge8" class="edge">
<title>Node8&#45;&gt;Node9</title>
<path fill="none" stroke="midnightblue" d="M767.41,-128.17C754.41,-118.23 739.1,-106.51 727.41,-97.58"/>
<polygon fill="midnightblue" stroke="midnightblue" points="765.49,-131.1 775.56,-134.4 769.74,-125.54 765.49,-131.1"/>
</g>
<!-- Node10 -->
<g id="node10" class="node">
<title>Node10</title>
<g id="a_node10"><a xlink:href="fr_2general_8hpp.html" target="_top" xlink:title=" ">
<polygon fill="white" stroke="black" points="822.5,-67.5 822.5,-97.5 935.5,-97.5 935.5,-67.5 822.5,-67.5"/>
<text text-anchor="start" x="830.5" y="-85.5" font-family="Helvetica,sans-Serif" font-size="10.00">include/mini/spatial</text>
<text text-anchor="middle" x="879" y="-74.5" font-family="Helvetica,sans-Serif" font-size="10.00">/fr/general.hpp</text>
</a>
</g>
</g>
<!-- Node8&#45;&gt;Node10 -->
<g id="edge9" class="edge">
<title>Node8&#45;&gt;Node10</title>
<path fill="none" stroke="midnightblue" d="M820.59,-128.17C833.59,-118.23 848.9,-106.51 860.59,-97.58"/>
<polygon fill="midnightblue" stroke="midnightblue" points="818.26,-125.54 812.44,-134.4 822.51,-131.1 818.26,-125.54"/>
</g>
<!-- Node11 -->
<g id="node11" class="node">
<title>Node11</title>
<g id="a_node11"><a xlink:href="spatial_2fr_2lobatto_8hpp.html" target="_top" xlink:title=" ">
<polygon fill="white" stroke="black" points="779.5,-0.5 779.5,-30.5 892.5,-30.5 892.5,-0.5 779.5,-0.5"/>
<text text-anchor="start" x="787.5" y="-18.5" font-family="Helvetica,sans-Serif" font-size="10.00">include/mini/spatial</text>
<text text-anchor="middle" x="836" y="-7.5" font-family="Helvetica,sans-Serif" font-size="10.00">/fr/lobatto.hpp</text>
</a>
</g>
</g>
<!-- Node8&#45;&gt;Node11 -->
<g id="edge11" class="edge">
<title>Node8&#45;&gt;Node11</title>
<path fill="none" stroke="midnightblue" d="M798.74,-124.59C802.27,-108.18 807.57,-86.02 814,-67 818.22,-54.5 824.29,-40.8 828.98,-30.83"/>
<polygon fill="midnightblue" stroke="midnightblue" points="795.3,-123.95 796.69,-134.45 802.16,-125.37 795.3,-123.95"/>
</g>
<!-- Node10&#45;&gt;Node11 -->
<g id="edge10" class="edge">
<title>Node10&#45;&gt;Node11</title>
<path fill="none" stroke="midnightblue" d="M864.03,-58.87C857.8,-49.46 850.77,-38.83 845.31,-30.58"/>
<polygon fill="midnightblue" stroke="midnightblue" points="861.23,-60.99 869.67,-67.4 867.07,-57.12 861.23,-60.99"/>
</g>
<!-- Node16&#45;&gt;Node3 -->
<g id="edge18" class="edge">
<title>Node16&#45;&gt;Node3</title>
<path fill="none" stroke="midnightblue" d="M407.95,-264.27C431.2,-253.92 459.87,-241.15 481.38,-231.58"/>
<polygon fill="midnightblue" stroke="midnightblue" points="406.39,-261.13 398.68,-268.4 409.24,-267.53 406.39,-261.13"/>
</g>
<!-- Node16&#45;&gt;Node15 -->
<g id="edge22" class="edge">
<title>Node16&#45;&gt;Node15</title>
<path fill="none" stroke="midnightblue" d="M367,-258.25C367,-247.02 367,-234.38 367,-226.19"/>
<polygon fill="midnightblue" stroke="midnightblue" points="363.5,-258.4 367,-268.4 370.5,-258.4 363.5,-258.4"/>
</g>
<!-- Node17 -->
<g id="node17" class="node">
<title>Node17</title>
<g id="a_node17"><a xlink:href="integrator_2quadrangle_8hpp.html" target="_top" xlink:title=" ">
<polygon fill="white" stroke="black" points="0,-201.5 0,-231.5 128,-231.5 128,-201.5 0,-201.5"/>
<text text-anchor="start" x="8" y="-219.5" font-family="Helvetica,sans-Serif" font-size="10.00">include/mini/integrator</text>
<text text-anchor="middle" x="64" y="-208.5" font-family="Helvetica,sans-Serif" font-size="10.00">/quadrangle.hpp</text>
</a>
</g>
</g>
<!-- Node16&#45;&gt;Node17 -->
<g id="edge19" class="edge">
<title>Node16&#45;&gt;Node17</title>
<path fill="none" stroke="midnightblue" d="M292.87,-266.6C242.43,-255.78 176.35,-241.6 128.17,-231.26"/>
<polygon fill="midnightblue" stroke="midnightblue" points="292.23,-270.04 302.74,-268.72 293.7,-263.2 292.23,-270.04"/>
</g>
<!-- Node18 -->
<g id="node18" class="node">
<title>Node18</title>
<g id="a_node18"><a xlink:href="integrator_2triangle_8hpp.html" target="_top" xlink:title=" ">
<polygon fill="white" stroke="black" points="146,-201.5 146,-231.5 274,-231.5 274,-201.5 146,-201.5"/>
<text text-anchor="start" x="154" y="-219.5" font-family="Helvetica,sans-Serif" font-size="10.00">include/mini/integrator</text>
<text text-anchor="middle" x="210" y="-208.5" font-family="Helvetica,sans-Serif" font-size="10.00">/triangle.hpp</text>
</a>
</g>
</g>
<!-- Node16&#45;&gt;Node18 -->
<g id="edge20" class="edge">
<title>Node16&#45;&gt;Node18</title>
<path fill="none" stroke="midnightblue" d="M323.63,-264.54C298.51,-254.14 267.34,-241.24 244,-231.58"/>
<polygon fill="midnightblue" stroke="midnightblue" points="322.36,-267.8 332.93,-268.4 325.03,-261.34 322.36,-267.8"/>
</g>
<!-- Node18&#45;&gt;Node14 -->
<g id="edge21" class="edge">
<title>Node18&#45;&gt;Node14</title>
<path fill="none" stroke="midnightblue" d="M234.42,-194.88C246.12,-185.01 259.84,-173.43 270.32,-164.58"/>
<polygon fill="midnightblue" stroke="midnightblue" points="232.09,-192.27 226.71,-201.4 236.61,-197.62 232.09,-192.27"/>
</g>
</g>
</svg>
