<?xml version="1.0" encoding="UTF-8" standalone="no"?>
<!DOCTYPE svg PUBLIC "-//W3C//DTD SVG 1.1//EN"
 "http://www.w3.org/Graphics/SVG/1.1/DTD/svg11.dtd">
<!-- Generated by graphviz version 2.43.0 (0)
 -->
<!-- Title: include/mini/integrator/tetrahedron.hpp Pages: 1 -->
<svg width="1206pt" height="319pt"
 viewBox="0.00 0.00 1206.35 319.00" xmlns="http://www.w3.org/2000/svg" xmlns:xlink="http://www.w3.org/1999/xlink">
<g id="graph0" class="graph" transform="scale(1 1) rotate(0) translate(4 315)">
<title>include/mini/integrator/tetrahedron.hpp</title>
<polygon fill="white" stroke="transparent" points="-4,4 -4,-315 1202.35,-315 1202.35,4 -4,4"/>
<!-- Node1 -->
<g id="node1" class="node">
<title>Node1</title>
<g id="a_node1"><a xlink:title=" ">
<polygon fill="#bfbfbf" stroke="black" points="187.35,-280.5 187.35,-310.5 315.35,-310.5 315.35,-280.5 187.35,-280.5"/>
<text text-anchor="start" x="195.35" y="-298.5" font-family="Helvetica,sans-Serif" font-size="10.00">include/mini/integrator</text>
<text text-anchor="middle" x="251.35" y="-287.5" font-family="Helvetica,sans-Serif" font-size="10.00">/tetrahedron.hpp</text>
</a>
</g>
</g>
<!-- Node2 -->
<g id="node2" class="node">
<title>Node2</title>
<g id="a_node2"><a xlink:title=" ">
<polygon fill="white" stroke="#bfbfbf" points="344.35,-56.5 344.35,-75.5 404.35,-75.5 404.35,-56.5 344.35,-56.5"/>
<text text-anchor="middle" x="374.35" y="-63.5" font-family="Helvetica,sans-Serif" font-size="10.00">concepts</text>
</a>
</g>
</g>
<!-- Node1&#45;&gt;Node2 -->
<g id="edge1" class="edge">
<title>Node1&#45;&gt;Node2</title>
<path fill="none" stroke="midnightblue" d="M251.57,-280.14C252.77,-247.14 259.82,-164.67 299.35,-112 309.96,-97.85 326.45,-87.26 341.26,-79.92"/>
<polygon fill="midnightblue" stroke="midnightblue" points="343.07,-82.94 350.67,-75.56 340.13,-76.59 343.07,-82.94"/>
</g>
<!-- Node3 -->
<g id="node3" class="node">
<title>Node3</title>
<g id="a_node3"><a xlink:title=" ">
<polygon fill="white" stroke="#bfbfbf" points="1080.35,-56.5 1080.35,-75.5 1132.35,-75.5 1132.35,-56.5 1080.35,-56.5"/>
<text text-anchor="middle" x="1106.35" y="-63.5" font-family="Helvetica,sans-Serif" font-size="10.00">cassert</text>
</a>
</g>
</g>
<!-- Node1&#45;&gt;Node3 -->
<g id="edge2" class="edge">
<title>Node1&#45;&gt;Node3</title>
<path fill="none" stroke="midnightblue" d="M315.62,-294.87C464.72,-294.94 829.99,-290.21 942.35,-244 1013.19,-214.87 1025.98,-192.2 1073.35,-132 1084.7,-117.57 1093.78,-98.63 1099.52,-84.92"/>
<polygon fill="midnightblue" stroke="midnightblue" points="1102.78,-86.2 1103.24,-75.62 1096.28,-83.6 1102.78,-86.2"/>
</g>
<!-- Node4 -->
<g id="node4" class="node">
<title>Node4</title>
<g id="a_node4"><a xlink:title=" ">
<polygon fill="white" stroke="#bfbfbf" points="133.85,-0.5 133.85,-19.5 180.85,-19.5 180.85,-0.5 133.85,-0.5"/>
<text text-anchor="middle" x="157.35" y="-7.5" font-family="Helvetica,sans-Serif" font-size="10.00">cmath</text>
</a>
</g>
</g>
<!-- Node1&#45;&gt;Node4 -->
<g id="edge3" class="edge">
<title>Node1&#45;&gt;Node4</title>
<path fill="none" stroke="midnightblue" d="M195.35,-280.44C170.5,-272.42 141.86,-260.59 119.35,-244 47.5,-191.05 32.83,-162.1 9.35,-76 7.01,-67.42 4.05,-63.14 9.35,-56 11.11,-53.62 80.68,-33.16 123.8,-20.66"/>
<polygon fill="midnightblue" stroke="midnightblue" points="124.98,-23.97 133.61,-17.83 123.03,-17.24 124.98,-23.97"/>
</g>
<!-- Node5 -->
<g id="node5" class="node">
<title>Node5</title>
<g id="a_node5"><a xlink:title=" ">
<polygon fill="white" stroke="#bfbfbf" points="154.35,-224.5 154.35,-243.5 204.35,-243.5 204.35,-224.5 154.35,-224.5"/>
<text text-anchor="middle" x="179.35" y="-231.5" font-family="Helvetica,sans-Serif" font-size="10.00">cstring</text>
</a>
</g>
</g>
<!-- Node1&#45;&gt;Node5 -->
<g id="edge4" class="edge">
<title>Node1&#45;&gt;Node5</title>
<path fill="none" stroke="midnightblue" d="M234.28,-280.4C223.28,-271.31 208.98,-259.49 197.73,-250.19"/>
<polygon fill="midnightblue" stroke="midnightblue" points="199.76,-247.33 189.82,-243.66 195.3,-252.73 199.76,-247.33"/>
</g>
<!-- Node6 -->
<g id="node6" class="node">
<title>Node6</title>
<g id="a_node6"><a xlink:title=" ">
<polygon fill="white" stroke="#bfbfbf" points="51.35,-0.5 51.35,-19.5 115.35,-19.5 115.35,-0.5 51.35,-0.5"/>
<text text-anchor="middle" x="83.35" y="-7.5" font-family="Helvetica,sans-Serif" font-size="10.00">algorithm</text>
</a>
</g>
</g>
<!-- Node1&#45;&gt;Node6 -->
<g id="edge5" class="edge">
<title>Node1&#45;&gt;Node6</title>
<path fill="none" stroke="midnightblue" d="M195.35,-280.44C170.5,-272.42 141.86,-260.59 119.35,-244 93.87,-225.22 93.2,-214.14 75.35,-188 38.35,-133.84 -22.8,-113.17 9.35,-56 17.57,-41.38 32.68,-30.95 47.11,-23.85"/>
<polygon fill="midnightblue" stroke="midnightblue" points="48.74,-26.95 56.42,-19.64 45.86,-20.57 48.74,-26.95"/>
</g>
<!-- Node7 -->
<g id="node7" class="node">
<title>Node7</title>
<g id="a_node7"><a xlink:title=" ">
<polygon fill="white" stroke="#bfbfbf" points="317.35,-112.5 317.35,-131.5 375.35,-131.5 375.35,-112.5 317.35,-112.5"/>
<text text-anchor="middle" x="346.35" y="-119.5" font-family="Helvetica,sans-Serif" font-size="10.00">memory</text>
</a>
</g>
</g>
<!-- Node1&#45;&gt;Node7 -->
<g id="edge6" class="edge">
<title>Node1&#45;&gt;Node7</title>
<path fill="none" stroke="midnightblue" d="M258.84,-280.41C266.44,-266.15 278.6,-243.48 289.35,-224 305.57,-194.59 324.85,-160.62 336.32,-140.52"/>
<polygon fill="midnightblue" stroke="midnightblue" points="339.49,-142.03 341.41,-131.61 333.41,-138.56 339.49,-142.03"/>
</g>
<!-- Node8 -->
<g id="node8" class="node">
<title>Node8</title>
<g id="a_node8"><a xlink:title=" ">
<polygon fill="white" stroke="#bfbfbf" points="506.85,-0.5 506.85,-19.5 575.85,-19.5 575.85,-0.5 506.85,-0.5"/>
<text text-anchor="middle" x="541.35" y="-7.5" font-family="Helvetica,sans-Serif" font-size="10.00">type_traits</text>
</a>
</g>
</g>
<!-- Node1&#45;&gt;Node8 -->
<g id="edge7" class="edge">
<title>Node1&#45;&gt;Node8</title>
<path fill="none" stroke="midnightblue" d="M315.69,-293.43C528.84,-289.03 1198.35,-268.13 1198.35,-179 1198.35,-179 1198.35,-179 1198.35,-121 1198.35,-82.58 1175.73,-73.16 1141.35,-56 1116.58,-43.64 721.44,-20.9 586.28,-13.44"/>
<polygon fill="midnightblue" stroke="midnightblue" points="586.43,-9.94 576.25,-12.89 586.05,-16.93 586.43,-9.94"/>
</g>
<!-- Node9 -->
<g id="node9" class="node">
<title>Node9</title>
<g id="a_node9"><a xlink:title=" ">
<polygon fill="white" stroke="#bfbfbf" points="18.85,-56.5 18.85,-75.5 63.85,-75.5 63.85,-56.5 18.85,-56.5"/>
<text text-anchor="middle" x="41.35" y="-63.5" font-family="Helvetica,sans-Serif" font-size="10.00">utility</text>
</a>
</g>
</g>
<!-- Node1&#45;&gt;Node9 -->
<g id="edge8" class="edge">
<title>Node1&#45;&gt;Node9</title>
<path fill="none" stroke="midnightblue" d="M210.73,-280.48C189.82,-272 164.72,-259.76 145.35,-244 96.88,-204.56 88.47,-187.8 60.35,-132 52.91,-117.24 47.91,-99.08 44.91,-85.71"/>
<polygon fill="midnightblue" stroke="midnightblue" points="48.31,-84.87 42.86,-75.79 41.46,-86.29 48.31,-84.87"/>
</g>
<!-- Node10 -->
<g id="node10" class="node">
<title>Node10</title>
<g id="a_node10"><a xlink:href="integrator_2cell_8hpp.html" target="_top" xlink:title=" ">
<polygon fill="white" stroke="black" points="298.85,-224.5 298.85,-243.5 429.85,-243.5 429.85,-224.5 298.85,-224.5"/>
<text text-anchor="middle" x="364.35" y="-231.5" font-family="Helvetica,sans-Serif" font-size="10.00">mini/integrator/cell.hpp</text>
</a>
</g>
</g>
<!-- Node1&#45;&gt;Node10 -->
<g id="edge9" class="edge">
<title>Node1&#45;&gt;Node10</title>
<path fill="none" stroke="midnightblue" d="M278.13,-280.4C296.41,-270.77 320.5,-258.09 338.56,-248.58"/>
<polygon fill="midnightblue" stroke="midnightblue" points="340.69,-251.41 347.9,-243.66 337.43,-245.22 340.69,-251.41"/>
</g>
<!-- Node24 -->
<g id="node24" class="node">
<title>Node24</title>
<g id="a_node24"><a xlink:href="coordinate_2tetrahedron_8hpp.html" target="_top" xlink:title=" ">
<polygon fill="white" stroke="black" points="759.35,-224.5 759.35,-243.5 933.35,-243.5 933.35,-224.5 759.35,-224.5"/>
<text text-anchor="middle" x="846.35" y="-231.5" font-family="Helvetica,sans-Serif" font-size="10.00">mini/coordinate/tetrahedron.hpp</text>
</a>
</g>
</g>
<!-- Node1&#45;&gt;Node24 -->
<g id="edge45" class="edge">
<title>Node1&#45;&gt;Node24</title>
<path fill="none" stroke="midnightblue" d="M315.59,-288.08C420.44,-277.59 628.9,-256.74 751.04,-244.53"/>
<polygon fill="midnightblue" stroke="midnightblue" points="751.53,-248 761.13,-243.52 750.84,-241.03 751.53,-248"/>
</g>
<!-- Node10&#45;&gt;Node2 -->
<g id="edge10" class="edge">
<title>Node10&#45;&gt;Node2</title>
<path fill="none" stroke="midnightblue" d="M354.69,-224.34C333.53,-204.27 286.61,-153.14 308.35,-112 315.77,-97.95 329.77,-87.47 342.97,-80.17"/>
<polygon fill="midnightblue" stroke="midnightblue" points="344.57,-83.28 351.89,-75.62 341.39,-77.04 344.57,-83.28"/>
</g>
<!-- Node10&#45;&gt;Node7 -->
<g id="edge11" class="edge">
<title>Node10&#45;&gt;Node7</title>
<path fill="none" stroke="midnightblue" d="M362.93,-224.37C360.03,-206.62 353.33,-165.67 349.39,-141.6"/>
<polygon fill="midnightblue" stroke="midnightblue" points="352.82,-140.89 347.75,-131.59 345.91,-142.03 352.82,-140.89"/>
</g>
<!-- Node11 -->
<g id="node11" class="node">
<title>Node11</title>
<g id="a_node11"><a xlink:href="coordinate_2cell_8hpp.html" target="_top" xlink:title=" ">
<polygon fill="white" stroke="black" points="412.35,-168.5 412.35,-187.5 546.35,-187.5 546.35,-168.5 412.35,-168.5"/>
<text text-anchor="middle" x="479.35" y="-175.5" font-family="Helvetica,sans-Serif" font-size="10.00">mini/coordinate/cell.hpp</text>
</a>
</g>
</g>
<!-- Node10&#45;&gt;Node11 -->
<g id="edge12" class="edge">
<title>Node10&#45;&gt;Node11</title>
<path fill="none" stroke="midnightblue" d="M382.57,-224.44C401.24,-215.68 430.5,-201.94 451.96,-191.86"/>
<polygon fill="midnightblue" stroke="midnightblue" points="453.65,-194.93 461.21,-187.52 450.67,-188.6 453.65,-194.93"/>
</g>
<!-- Node22 -->
<g id="node22" class="node">
<title>Node22</title>
<g id="a_node22"><a xlink:href="integrator_2element_8hpp.html" target="_top" xlink:title=" ">
<polygon fill="white" stroke="black" points="602.35,-168.5 602.35,-187.5 756.35,-187.5 756.35,-168.5 602.35,-168.5"/>
<text text-anchor="middle" x="679.35" y="-175.5" font-family="Helvetica,sans-Serif" font-size="10.00">mini/integrator/element.hpp</text>
</a>
</g>
</g>
<!-- Node10&#45;&gt;Node22 -->
<g id="edge36" class="edge">
<title>Node10&#45;&gt;Node22</title>
<path fill="none" stroke="midnightblue" d="M414.26,-224.44C470.02,-214.89 560.23,-199.42 619.67,-189.23"/>
<polygon fill="midnightblue" stroke="midnightblue" points="620.4,-192.66 629.67,-187.52 619.22,-185.76 620.4,-192.66"/>
</g>
<!-- Node23 -->
<g id="node23" class="node">
<title>Node23</title>
<g id="a_node23"><a xlink:href="function_8hpp.html" target="_top" xlink:title=" ">
<polygon fill="white" stroke="black" points="69.85,-112.5 69.85,-131.5 222.85,-131.5 222.85,-112.5 69.85,-112.5"/>
<text text-anchor="middle" x="146.35" y="-119.5" font-family="Helvetica,sans-Serif" font-size="10.00">mini/integrator/function.hpp</text>
</a>
</g>
</g>
<!-- Node10&#45;&gt;Node23 -->
<g id="edge39" class="edge">
<title>Node10&#45;&gt;Node23</title>
<path fill="none" stroke="midnightblue" d="M347.24,-224.37C309.27,-205.21 217.76,-159.04 172.54,-136.22"/>
<polygon fill="midnightblue" stroke="midnightblue" points="173.88,-132.97 163.37,-131.59 170.72,-139.22 173.88,-132.97"/>
</g>
<!-- Node11&#45;&gt;Node2 -->
<g id="edge13" class="edge">
<title>Node11&#45;&gt;Node2</title>
<path fill="none" stroke="midnightblue" d="M470.93,-168.17C459,-155.66 436.52,-132.08 417.35,-112 408.19,-102.4 397.92,-91.66 389.72,-83.08"/>
<polygon fill="midnightblue" stroke="midnightblue" points="392.03,-80.44 382.59,-75.62 386.97,-85.27 392.03,-80.44"/>
</g>
<!-- Node11&#45;&gt;Node6 -->
<g id="edge14" class="edge">
<title>Node11&#45;&gt;Node6</title>
<path fill="none" stroke="midnightblue" d="M467.28,-168.3C443.79,-151.42 393.41,-115.58 384.35,-112 286.07,-73.2 243.8,-123.37 149.35,-76 127,-64.79 107.45,-43.22 95.54,-28.01"/>
<polygon fill="midnightblue" stroke="midnightblue" points="98.26,-25.8 89.45,-19.91 92.67,-30.01 98.26,-25.8"/>
</g>
<!-- Node11&#45;&gt;Node7 -->
<g id="edge15" class="edge">
<title>Node11&#45;&gt;Node7</title>
<path fill="none" stroke="midnightblue" d="M458.27,-168.44C436.29,-159.52 401.61,-145.44 376.68,-135.32"/>
<polygon fill="midnightblue" stroke="midnightblue" points="377.9,-132.04 367.32,-131.52 375.27,-138.52 377.9,-132.04"/>
</g>
<!-- Node11&#45;&gt;Node8 -->
<g id="edge16" class="edge">
<title>Node11&#45;&gt;Node8</title>
<path fill="none" stroke="midnightblue" d="M473.28,-168.38C459.43,-147.5 428.34,-93.23 451.35,-56 461.5,-39.57 479.66,-28.94 497.03,-22.17"/>
<polygon fill="midnightblue" stroke="midnightblue" points="498.28,-25.43 506.53,-18.79 495.94,-18.84 498.28,-25.43"/>
</g>
<!-- Node12 -->
<g id="node12" class="node">
<title>Node12</title>
<g id="a_node12"><a xlink:title=" ">
<polygon fill="white" stroke="#bfbfbf" points="958.85,-0.5 958.85,-19.5 1005.85,-19.5 1005.85,-0.5 958.85,-0.5"/>
<text text-anchor="middle" x="982.35" y="-7.5" font-family="Helvetica,sans-Serif" font-size="10.00">vector</text>
</a>
</g>
</g>
<!-- Node11&#45;&gt;Node12 -->
<g id="edge17" class="edge">
<title>Node11&#45;&gt;Node12</title>
<path fill="none" stroke="midnightblue" d="M546.38,-169.76C687.23,-153.84 1003.47,-114.19 1033.35,-76 1047.07,-58.46 1025.4,-38.3 1006.21,-25.14"/>
<polygon fill="midnightblue" stroke="midnightblue" points="1008,-22.12 997.71,-19.62 1004.19,-28 1008,-22.12"/>
</g>
<!-- Node13 -->
<g id="node13" class="node">
<title>Node13</title>
<g id="a_node13"><a xlink:href="coordinate_2element_8hpp.html" target="_top" xlink:title=" ">
<polygon fill="white" stroke="black" points="640.35,-112.5 640.35,-131.5 798.35,-131.5 798.35,-112.5 640.35,-112.5"/>
<text text-anchor="middle" x="719.35" y="-119.5" font-family="Helvetica,sans-Serif" font-size="10.00">mini/coordinate/element.hpp</text>
</a>
</g>
</g>
<!-- Node11&#45;&gt;Node13 -->
<g id="edge18" class="edge">
<title>Node11&#45;&gt;Node13</title>
<path fill="none" stroke="midnightblue" d="M517.38,-168.44C559.16,-159.04 626.33,-143.93 671.62,-133.74"/>
<polygon fill="midnightblue" stroke="midnightblue" points="672.51,-137.13 681.5,-131.52 670.97,-130.3 672.51,-137.13"/>
</g>
<!-- Node13&#45;&gt;Node2 -->
<g id="edge19" class="edge">
<title>Node13&#45;&gt;Node2</title>
<path fill="none" stroke="midnightblue" d="M664.68,-112.44C595.17,-101.56 476.77,-83.03 414.83,-73.34"/>
<polygon fill="midnightblue" stroke="midnightblue" points="415.09,-69.83 404.66,-71.75 414,-76.75 415.09,-69.83"/>
</g>
<!-- Node13&#45;&gt;Node3 -->
<g id="edge20" class="edge">
<title>Node13&#45;&gt;Node3</title>
<path fill="none" stroke="midnightblue" d="M780.67,-112.44C862.2,-101.07 1003.7,-81.32 1070.05,-72.07"/>
<polygon fill="midnightblue" stroke="midnightblue" points="1070.61,-75.52 1080.03,-70.67 1069.64,-68.59 1070.61,-75.52"/>
</g>
<!-- Node13&#45;&gt;Node4 -->
<g id="edge21" class="edge">
<title>Node13&#45;&gt;Node4</title>
<path fill="none" stroke="midnightblue" d="M704.11,-112.24C673.88,-94.88 608.75,-57.66 603.35,-56 429.94,-2.6 373.04,-51.37 190.9,-19.95"/>
<polygon fill="midnightblue" stroke="midnightblue" points="191.46,-16.49 181,-18.18 190.23,-23.39 191.46,-16.49"/>
</g>
<!-- Node13&#45;&gt;Node12 -->
<g id="edge25" class="edge">
<title>Node13&#45;&gt;Node12</title>
<path fill="none" stroke="midnightblue" d="M773.31,-112.49C808.62,-105.63 855.13,-94.08 893.35,-76 920.74,-63.04 948.31,-41.23 965.35,-26.49"/>
<polygon fill="midnightblue" stroke="midnightblue" points="968.07,-28.75 973.24,-19.51 963.43,-23.51 968.07,-28.75"/>
</g>
<!-- Node14 -->
<g id="node14" class="node">
<title>Node14</title>
<g id="a_node14"><a xlink:title=" ">
<polygon fill="white" stroke="#bfbfbf" points="650.35,-56.5 650.35,-75.5 706.35,-75.5 706.35,-56.5 650.35,-56.5"/>
<text text-anchor="middle" x="678.35" y="-63.5" font-family="Helvetica,sans-Serif" font-size="10.00">numeric</text>
</a>
</g>
</g>
<!-- Node13&#45;&gt;Node14 -->
<g id="edge22" class="edge">
<title>Node13&#45;&gt;Node14</title>
<path fill="none" stroke="midnightblue" d="M712.58,-112.08C706.79,-104.46 698.29,-93.26 691.21,-83.94"/>
<polygon fill="midnightblue" stroke="midnightblue" points="693.83,-81.6 684.99,-75.75 688.25,-85.83 693.83,-81.6"/>
</g>
<!-- Node15 -->
<g id="node15" class="node">
<title>Node15</title>
<g id="a_node15"><a xlink:title=" ">
<polygon fill="white" stroke="#bfbfbf" points="940.85,-56.5 940.85,-75.5 1023.85,-75.5 1023.85,-56.5 940.85,-56.5"/>
<text text-anchor="middle" x="982.35" y="-63.5" font-family="Helvetica,sans-Serif" font-size="10.00">initializer_list</text>
</a>
</g>
</g>
<!-- Node13&#45;&gt;Node15 -->
<g id="edge23" class="edge">
<title>Node13&#45;&gt;Node15</title>
<path fill="none" stroke="midnightblue" d="M761.02,-112.44C807.09,-102.98 881.34,-87.74 930.98,-77.55"/>
<polygon fill="midnightblue" stroke="midnightblue" points="931.78,-80.96 940.87,-75.52 930.37,-74.1 931.78,-80.96"/>
</g>
<!-- Node16 -->
<g id="node16" class="node">
<title>Node16</title>
<g id="a_node16"><a xlink:title=" ">
<polygon fill="white" stroke="#bfbfbf" points="748.35,-0.5 748.35,-19.5 808.35,-19.5 808.35,-0.5 748.35,-0.5"/>
<text text-anchor="middle" x="778.35" y="-7.5" font-family="Helvetica,sans-Serif" font-size="10.00">iostream</text>
</a>
</g>
</g>
<!-- Node13&#45;&gt;Node16 -->
<g id="edge24" class="edge">
<title>Node13&#45;&gt;Node16</title>
<path fill="none" stroke="midnightblue" d="M723.9,-112.13C730.35,-99.58 742.59,-75.95 753.35,-56 758.29,-46.84 763.9,-36.7 768.56,-28.37"/>
<polygon fill="midnightblue" stroke="midnightblue" points="771.65,-30.03 773.49,-19.59 765.54,-26.6 771.65,-30.03"/>
</g>
<!-- Node17 -->
<g id="node17" class="node">
<title>Node17</title>
<g id="a_node17"><a xlink:href="algebra_2eigen_8hpp.html" target="_top" xlink:title=" ">
<polygon fill="white" stroke="black" points="158.85,-56.5 158.85,-75.5 287.85,-75.5 287.85,-56.5 158.85,-56.5"/>
<text text-anchor="middle" x="223.35" y="-63.5" font-family="Helvetica,sans-Serif" font-size="10.00">mini/algebra/eigen.hpp</text>
</a>
</g>
</g>
<!-- Node13&#45;&gt;Node17 -->
<g id="edge26" class="edge">
<title>Node13&#45;&gt;Node17</title>
<path fill="none" stroke="midnightblue" d="M641.03,-112.47C547.09,-102.25 390.76,-85.23 298.33,-75.16"/>
<polygon fill="midnightblue" stroke="midnightblue" points="298.53,-71.67 288.21,-74.06 297.78,-78.62 298.53,-71.67"/>
</g>
<!-- Node20 -->
<g id="node20" class="node">
<title>Node20</title>
<g id="a_node20"><a xlink:href="root_8hpp.html" target="_top" xlink:title=" ">
<polygon fill="white" stroke="black" points="762.35,-56.5 762.35,-75.5 884.35,-75.5 884.35,-56.5 762.35,-56.5"/>
<text text-anchor="middle" x="823.35" y="-63.5" font-family="Helvetica,sans-Serif" font-size="10.00">mini/algebra/root.hpp</text>
</a>
</g>
</g>
<!-- Node13&#45;&gt;Node20 -->
<g id="edge31" class="edge">
<title>Node13&#45;&gt;Node20</title>
<path fill="none" stroke="midnightblue" d="M736.06,-112.32C752.66,-103.7 778.35,-90.36 797.57,-80.39"/>
<polygon fill="midnightblue" stroke="midnightblue" points="799.42,-83.37 806.68,-75.65 796.19,-77.16 799.42,-83.37"/>
</g>
<!-- Node21 -->
<g id="node21" class="node">
<title>Node21</title>
<g id="a_node21"><a xlink:href="index_8hpp.html" target="_top" xlink:title=" ">
<polygon fill="white" stroke="black" points="460.35,-56.5 460.35,-75.5 594.35,-75.5 594.35,-56.5 460.35,-56.5"/>
<text text-anchor="middle" x="527.35" y="-63.5" font-family="Helvetica,sans-Serif" font-size="10.00">mini/constant/index.hpp</text>
</a>
</g>
</g>
<!-- Node13&#45;&gt;Node21 -->
<g id="edge35" class="edge">
<title>Node13&#45;&gt;Node21</title>
<path fill="none" stroke="midnightblue" d="M688.92,-112.44C656.06,-103.2 603.56,-88.44 567.37,-78.26"/>
<polygon fill="midnightblue" stroke="midnightblue" points="568.2,-74.85 557.63,-75.52 566.31,-81.59 568.2,-74.85"/>
</g>
<!-- Node17&#45;&gt;Node4 -->
<g id="edge28" class="edge">
<title>Node17&#45;&gt;Node4</title>
<path fill="none" stroke="midnightblue" d="M212.74,-56.32C202.89,-48.26 188,-36.08 176.13,-26.37"/>
<polygon fill="midnightblue" stroke="midnightblue" points="178.1,-23.46 168.14,-19.83 173.67,-28.88 178.1,-23.46"/>
</g>
<!-- Node17&#45;&gt;Node6 -->
<g id="edge27" class="edge">
<title>Node17&#45;&gt;Node6</title>
<path fill="none" stroke="midnightblue" d="M201.16,-56.44C177.92,-47.48 141.2,-33.31 114.93,-23.18"/>
<polygon fill="midnightblue" stroke="midnightblue" points="116.02,-19.85 105.43,-19.52 113.5,-26.38 116.02,-19.85"/>
</g>
<!-- Node18 -->
<g id="node18" class="node">
<title>Node18</title>
<g id="a_node18"><a xlink:title=" ">
<polygon fill="white" stroke="#bfbfbf" points="198.85,-0.5 198.85,-19.5 247.85,-19.5 247.85,-0.5 198.85,-0.5"/>
<text text-anchor="middle" x="223.35" y="-7.5" font-family="Helvetica,sans-Serif" font-size="10.00">cstdlib</text>
</a>
</g>
</g>
<!-- Node17&#45;&gt;Node18 -->
<g id="edge29" class="edge">
<title>Node17&#45;&gt;Node18</title>
<path fill="none" stroke="midnightblue" d="M223.35,-56.08C223.35,-49.01 223.35,-38.86 223.35,-29.99"/>
<polygon fill="midnightblue" stroke="midnightblue" points="226.85,-29.75 223.35,-19.75 219.85,-29.75 226.85,-29.75"/>
</g>
<!-- Node19 -->
<g id="node19" class="node">
<title>Node19</title>
<g id="a_node19"><a xlink:title=" ">
<polygon fill="white" stroke="#bfbfbf" points="266.35,-0.5 266.35,-19.5 340.35,-19.5 340.35,-0.5 266.35,-0.5"/>
<text text-anchor="middle" x="303.35" y="-7.5" font-family="Helvetica,sans-Serif" font-size="10.00">Eigen/Eigen</text>
</a>
</g>
</g>
<!-- Node17&#45;&gt;Node19 -->
<g id="edge30" class="edge">
<title>Node17&#45;&gt;Node19</title>
<path fill="none" stroke="midnightblue" d="M236.2,-56.32C248.56,-47.98 267.48,-35.21 282.08,-25.35"/>
<polygon fill="midnightblue" stroke="midnightblue" points="284.2,-28.15 290.53,-19.65 280.28,-22.35 284.2,-28.15"/>
</g>
<!-- Node20&#45;&gt;Node8 -->
<g id="edge34" class="edge">
<title>Node20&#45;&gt;Node8</title>
<path fill="none" stroke="midnightblue" d="M778.66,-56.44C725.96,-46.35 638.86,-29.67 586.11,-19.57"/>
<polygon fill="midnightblue" stroke="midnightblue" points="586.52,-16.09 576.04,-17.64 585.21,-22.96 586.52,-16.09"/>
</g>
<!-- Node20&#45;&gt;Node12 -->
<g id="edge32" class="edge">
<title>Node20&#45;&gt;Node12</title>
<path fill="none" stroke="midnightblue" d="M848.54,-56.44C875.76,-47.2 919.25,-32.43 949.22,-22.25"/>
<polygon fill="midnightblue" stroke="midnightblue" points="950.48,-25.52 958.83,-18.99 948.23,-18.89 950.48,-25.52"/>
</g>
<!-- Node20&#45;&gt;Node16 -->
<g id="edge33" class="edge">
<title>Node20&#45;&gt;Node16</title>
<path fill="none" stroke="midnightblue" d="M815.92,-56.08C809.49,-48.38 800.04,-37.03 792.22,-27.65"/>
<polygon fill="midnightblue" stroke="midnightblue" points="794.73,-25.19 785.64,-19.75 789.35,-29.67 794.73,-25.19"/>
</g>
<!-- Node22&#45;&gt;Node13 -->
<g id="edge37" class="edge">
<title>Node22&#45;&gt;Node13</title>
<path fill="none" stroke="midnightblue" d="M685.95,-168.08C691.6,-160.46 699.89,-149.26 706.8,-139.94"/>
<polygon fill="midnightblue" stroke="midnightblue" points="709.72,-141.87 712.86,-131.75 704.1,-137.7 709.72,-141.87"/>
</g>
<!-- Node22&#45;&gt;Node21 -->
<g id="edge38" class="edge">
<title>Node22&#45;&gt;Node21</title>
<path fill="none" stroke="midnightblue" d="M667.42,-168.37C641.45,-149.57 579.54,-104.77 547.43,-81.53"/>
<polygon fill="midnightblue" stroke="midnightblue" points="549.37,-78.62 539.22,-75.59 545.27,-84.29 549.37,-78.62"/>
</g>
<!-- Node23&#45;&gt;Node2 -->
<g id="edge40" class="edge">
<title>Node23&#45;&gt;Node2</title>
<path fill="none" stroke="midnightblue" d="M182.47,-112.44C223.86,-102.64 291.47,-86.63 334.39,-76.46"/>
<polygon fill="midnightblue" stroke="midnightblue" points="335.29,-79.85 344.21,-74.14 333.68,-73.04 335.29,-79.85"/>
</g>
<!-- Node23&#45;&gt;Node4 -->
<g id="edge41" class="edge">
<title>Node23&#45;&gt;Node4</title>
<path fill="none" stroke="midnightblue" d="M146.39,-112.14C146.54,-99.6 147.12,-75.98 149.35,-56 150.33,-47.22 151.97,-37.56 153.51,-29.45"/>
<polygon fill="midnightblue" stroke="midnightblue" points="156.95,-30.07 155.48,-19.58 150.09,-28.7 156.95,-30.07"/>
</g>
<!-- Node23&#45;&gt;Node8 -->
<g id="edge42" class="edge">
<title>Node23&#45;&gt;Node8</title>
<path fill="none" stroke="midnightblue" d="M181.22,-112.47C212.02,-104.49 257.88,-91.48 296.35,-76 314.42,-68.73 317.01,-62.58 335.35,-56 389.3,-36.64 454.33,-24.13 496.69,-17.33"/>
<polygon fill="midnightblue" stroke="midnightblue" points="497.35,-20.77 506.69,-15.76 496.27,-13.85 497.35,-20.77"/>
</g>
<!-- Node23&#45;&gt;Node9 -->
<g id="edge43" class="edge">
<title>Node23&#45;&gt;Node9</title>
<path fill="none" stroke="midnightblue" d="M129.48,-112.32C112.64,-103.66 86.54,-90.24 67.11,-80.25"/>
<polygon fill="midnightblue" stroke="midnightblue" points="68.67,-77.12 58.18,-75.65 65.47,-83.34 68.67,-77.12"/>
</g>
<!-- Node23&#45;&gt;Node17 -->
<g id="edge44" class="edge">
<title>Node23&#45;&gt;Node17</title>
<path fill="none" stroke="midnightblue" d="M158.72,-112.32C170.51,-104.06 188.48,-91.45 202.48,-81.63"/>
<polygon fill="midnightblue" stroke="midnightblue" points="204.83,-84.26 211.01,-75.65 200.81,-78.53 204.83,-84.26"/>
</g>
<!-- Node24&#45;&gt;Node2 -->
<g id="edge46" class="edge">
<title>Node24&#45;&gt;Node2</title>
<path fill="none" stroke="midnightblue" d="M759.34,-224.68C709.68,-218.18 646.86,-206.95 593.35,-188 588.17,-186.17 454.42,-111.67 398.53,-80.5"/>
<polygon fill="midnightblue" stroke="midnightblue" points="400.09,-77.36 389.65,-75.55 396.68,-83.47 400.09,-77.36"/>
</g>
<!-- Node24&#45;&gt;Node3 -->
<g id="edge48" class="edge">
<title>Node24&#45;&gt;Node3</title>
<path fill="none" stroke="midnightblue" d="M846.21,-224.39C846.49,-210.38 849.21,-182.76 865.35,-168 926.19,-112.35 975.57,-172.58 1047.35,-132 1067.78,-120.45 1084.99,-99.27 1095.45,-84.22"/>
<polygon fill="midnightblue" stroke="midnightblue" points="1098.43,-86.06 1101.06,-75.79 1092.61,-82.18 1098.43,-86.06"/>
</g>
<!-- Node24&#45;&gt;Node7 -->
<g id="edge50" class="edge">
<title>Node24&#45;&gt;Node7</title>
<path fill="none" stroke="midnightblue" d="M758.94,-231.63C647.88,-228.62 463.38,-218.95 403.35,-188 382.58,-177.29 365.99,-155.57 356.18,-140.19"/>
<polygon fill="midnightblue" stroke="midnightblue" points="359.14,-138.32 350.97,-131.58 353.15,-141.95 359.14,-138.32"/>
</g>
<!-- Node24&#45;&gt;Node11 -->
<g id="edge53" class="edge">
<title>Node24&#45;&gt;Node11</title>
<path fill="none" stroke="midnightblue" d="M788.19,-224.44C722.7,-214.81 616.38,-199.16 547.16,-188.98"/>
<polygon fill="midnightblue" stroke="midnightblue" points="547.63,-185.51 537.23,-187.52 546.61,-192.43 547.63,-185.51"/>
</g>
<!-- Node24&#45;&gt;Node12 -->
<g id="edge51" class="edge">
<title>Node24&#45;&gt;Node12</title>
<path fill="none" stroke="midnightblue" d="M898.03,-224.49C970.1,-209.37 1096.96,-170.05 1141.35,-76 1165.15,-25.56 1069.31,-14.13 1015.93,-11.63"/>
<polygon fill="midnightblue" stroke="midnightblue" points="1016,-8.13 1005.87,-11.24 1015.73,-15.12 1016,-8.13"/>
</g>
<!-- Node24&#45;&gt;Node13 -->
<g id="edge52" class="edge">
<title>Node24&#45;&gt;Node13</title>
<path fill="none" stroke="midnightblue" d="M871.95,-224.48C901.76,-213.2 944.62,-191.93 925.35,-168 910.37,-149.39 857.12,-138.06 808.52,-131.43"/>
<polygon fill="midnightblue" stroke="midnightblue" points="808.92,-127.95 798.55,-130.12 808.02,-134.89 808.92,-127.95"/>
</g>
<!-- Node24&#45;&gt;Node15 -->
<g id="edge49" class="edge">
<title>Node24&#45;&gt;Node15</title>
<path fill="none" stroke="midnightblue" d="M879.89,-224.37C900.19,-217.56 925.2,-206.13 941.35,-188 967.56,-158.57 977.14,-111.69 980.54,-85.77"/>
<polygon fill="midnightblue" stroke="midnightblue" points="984.03,-86.1 981.68,-75.77 977.07,-85.31 984.03,-86.1"/>
</g>
<!-- Node25 -->
<g id="node25" class="node">
<title>Node25</title>
<g id="a_node25"><a xlink:title=" ">
<polygon fill="white" stroke="#bfbfbf" points="874.35,-168.5 874.35,-187.5 916.35,-187.5 916.35,-168.5 874.35,-168.5"/>
<text text-anchor="middle" x="895.35" y="-175.5" font-family="Helvetica,sans-Serif" font-size="10.00">array</text>
</a>
</g>
</g>
<!-- Node24&#45;&gt;Node25 -->
<g id="edge47" class="edge">
<title>Node24&#45;&gt;Node25</title>
<path fill="none" stroke="midnightblue" d="M854.44,-224.08C861.5,-216.3 871.93,-204.8 880.5,-195.37"/>
<polygon fill="midnightblue" stroke="midnightblue" points="883.28,-197.51 887.41,-187.75 878.09,-192.8 883.28,-197.51"/>
</g>
</g>
</svg>
