<?xml version="1.0" encoding="UTF-8" standalone="no"?>
<!DOCTYPE svg PUBLIC "-//W3C//DTD SVG 1.1//EN"
 "http://www.w3.org/Graphics/SVG/1.1/DTD/svg11.dtd">
<!-- Generated by graphviz version 2.43.0 (0)
 -->
<!-- Title: include/mini/integrator/element.hpp Pages: 1 -->
<svg width="868pt" height="207pt"
 viewBox="0.00 0.00 868.00 207.00" xmlns="http://www.w3.org/2000/svg" xmlns:xlink="http://www.w3.org/1999/xlink">
<g id="graph0" class="graph" transform="scale(1 1) rotate(0) translate(4 203)">
<title>include/mini/integrator/element.hpp</title>
<polygon fill="white" stroke="transparent" points="-4,4 -4,-203 864,-203 864,4 -4,4"/>
<!-- Node1 -->
<g id="node1" class="node">
<title>Node1</title>
<g id="a_node1"><a xlink:title=" ">
<polygon fill="#bfbfbf" stroke="black" points="423,-168.5 423,-198.5 551,-198.5 551,-168.5 423,-168.5"/>
<text text-anchor="start" x="431" y="-186.5" font-family="Helvetica,sans-Serif" font-size="10.00">include/mini/integrator</text>
<text text-anchor="middle" x="487" y="-175.5" font-family="Helvetica,sans-Serif" font-size="10.00">/element.hpp</text>
</a>
</g>
</g>
<!-- Node2 -->
<g id="node2" class="node">
<title>Node2</title>
<g id="a_node2"><a xlink:href="coordinate_2element_8hpp.html" target="_top" xlink:title=" ">
<polygon fill="white" stroke="black" points="355,-112.5 355,-131.5 513,-131.5 513,-112.5 355,-112.5"/>
<text text-anchor="middle" x="434" y="-119.5" font-family="Helvetica,sans-Serif" font-size="10.00">mini/coordinate/element.hpp</text>
</a>
</g>
</g>
<!-- Node1&#45;&gt;Node2 -->
<g id="edge1" class="edge">
<title>Node1&#45;&gt;Node2</title>
<path fill="none" stroke="midnightblue" d="M474.44,-168.4C466.66,-159.66 456.64,-148.41 448.52,-139.3"/>
<polygon fill="midnightblue" stroke="midnightblue" points="450.98,-136.8 441.71,-131.66 445.75,-141.45 450.98,-136.8"/>
</g>
<!-- Node16 -->
<g id="node16" class="node">
<title>Node16</title>
<g id="a_node16"><a xlink:href="index_8hpp.html" target="_top" xlink:title=" ">
<polygon fill="white" stroke="black" points="726,-56.5 726,-75.5 860,-75.5 860,-56.5 726,-56.5"/>
<text text-anchor="middle" x="793" y="-63.5" font-family="Helvetica,sans-Serif" font-size="10.00">mini/constant/index.hpp</text>
</a>
</g>
</g>
<!-- Node1&#45;&gt;Node16 -->
<g id="edge19" class="edge">
<title>Node1&#45;&gt;Node16</title>
<path fill="none" stroke="midnightblue" d="M524.22,-168.45C584.77,-145.6 703.59,-100.75 760.76,-79.17"/>
<polygon fill="midnightblue" stroke="midnightblue" points="762.25,-82.35 770.37,-75.54 759.78,-75.8 762.25,-82.35"/>
</g>
<!-- Node3 -->
<g id="node3" class="node">
<title>Node3</title>
<g id="a_node3"><a xlink:title=" ">
<polygon fill="white" stroke="#bfbfbf" points="648,-56.5 648,-75.5 708,-75.5 708,-56.5 648,-56.5"/>
<text text-anchor="middle" x="678" y="-63.5" font-family="Helvetica,sans-Serif" font-size="10.00">concepts</text>
</a>
</g>
</g>
<!-- Node2&#45;&gt;Node3 -->
<g id="edge2" class="edge">
<title>Node2&#45;&gt;Node3</title>
<path fill="none" stroke="midnightblue" d="M473.12,-112.42C514.19,-103.4 580.65,-88.78 638,-76 638.1,-75.98 638.2,-75.96 638.3,-75.93"/>
<polygon fill="midnightblue" stroke="midnightblue" points="638.87,-79.39 647.86,-73.8 637.34,-72.56 638.87,-79.39"/>
</g>
<!-- Node4 -->
<g id="node4" class="node">
<title>Node4</title>
<g id="a_node4"><a xlink:title=" ">
<polygon fill="white" stroke="#bfbfbf" points="0,-56.5 0,-75.5 52,-75.5 52,-56.5 0,-56.5"/>
<text text-anchor="middle" x="26" y="-63.5" font-family="Helvetica,sans-Serif" font-size="10.00">cassert</text>
</a>
</g>
</g>
<!-- Node2&#45;&gt;Node4 -->
<g id="edge3" class="edge">
<title>Node2&#45;&gt;Node4</title>
<path fill="none" stroke="midnightblue" d="M354.7,-113.61C279.95,-106.1 164.94,-93.14 66,-76 64.74,-75.78 63.45,-75.55 62.16,-75.31"/>
<polygon fill="midnightblue" stroke="midnightblue" points="62.67,-71.84 52.18,-73.28 61.28,-78.7 62.67,-71.84"/>
</g>
<!-- Node5 -->
<g id="node5" class="node">
<title>Node5</title>
<g id="a_node5"><a xlink:title=" ">
<polygon fill="white" stroke="#bfbfbf" points="455.5,-0.5 455.5,-19.5 502.5,-19.5 502.5,-0.5 455.5,-0.5"/>
<text text-anchor="middle" x="479" y="-7.5" font-family="Helvetica,sans-Serif" font-size="10.00">cmath</text>
</a>
</g>
</g>
<!-- Node2&#45;&gt;Node5 -->
<g id="edge4" class="edge">
<title>Node2&#45;&gt;Node5</title>
<path fill="none" stroke="midnightblue" d="M437.53,-112.37C444.86,-94.46 461.85,-52.92 471.66,-28.95"/>
<polygon fill="midnightblue" stroke="midnightblue" points="474.94,-30.17 475.49,-19.59 468.46,-27.52 474.94,-30.17"/>
</g>
<!-- Node6 -->
<g id="node6" class="node">
<title>Node6</title>
<g id="a_node6"><a xlink:title=" ">
<polygon fill="white" stroke="#bfbfbf" points="108,-56.5 108,-75.5 164,-75.5 164,-56.5 108,-56.5"/>
<text text-anchor="middle" x="136" y="-63.5" font-family="Helvetica,sans-Serif" font-size="10.00">numeric</text>
</a>
</g>
</g>
<!-- Node2&#45;&gt;Node6 -->
<g id="edge5" class="edge">
<title>Node2&#45;&gt;Node6</title>
<path fill="none" stroke="midnightblue" d="M378.04,-112.48C327.33,-104.5 250.31,-91.76 174.45,-76.19"/>
<polygon fill="midnightblue" stroke="midnightblue" points="174.74,-72.68 164.24,-74.08 173.32,-79.53 174.74,-72.68"/>
</g>
<!-- Node7 -->
<g id="node7" class="node">
<title>Node7</title>
<g id="a_node7"><a xlink:title=" ">
<polygon fill="white" stroke="#bfbfbf" points="182.5,-56.5 182.5,-75.5 265.5,-75.5 265.5,-56.5 182.5,-56.5"/>
<text text-anchor="middle" x="224" y="-63.5" font-family="Helvetica,sans-Serif" font-size="10.00">initializer_list</text>
</a>
</g>
</g>
<!-- Node2&#45;&gt;Node7 -->
<g id="edge6" class="edge">
<title>Node2&#45;&gt;Node7</title>
<path fill="none" stroke="midnightblue" d="M400.72,-112.44C364.55,-103.14 306.62,-88.25 267.02,-78.06"/>
<polygon fill="midnightblue" stroke="midnightblue" points="267.68,-74.62 257.12,-75.52 265.93,-81.4 267.68,-74.62"/>
</g>
<!-- Node8 -->
<g id="node8" class="node">
<title>Node8</title>
<g id="a_node8"><a xlink:title=" ">
<polygon fill="white" stroke="#bfbfbf" points="141,-0.5 141,-19.5 201,-19.5 201,-0.5 141,-0.5"/>
<text text-anchor="middle" x="171" y="-7.5" font-family="Helvetica,sans-Serif" font-size="10.00">iostream</text>
</a>
</g>
</g>
<!-- Node2&#45;&gt;Node8 -->
<g id="edge7" class="edge">
<title>Node2&#45;&gt;Node8</title>
<path fill="none" stroke="midnightblue" d="M354.75,-121.86C266.38,-120.93 131.55,-113.21 99,-76 81.55,-56.04 112.79,-36.05 139.44,-23.61"/>
<polygon fill="midnightblue" stroke="midnightblue" points="140.87,-26.8 148.58,-19.54 138.03,-20.41 140.87,-26.8"/>
</g>
<!-- Node9 -->
<g id="node9" class="node">
<title>Node9</title>
<g id="a_node9"><a xlink:title=" ">
<polygon fill="white" stroke="#bfbfbf" points="390.5,-0.5 390.5,-19.5 437.5,-19.5 437.5,-0.5 390.5,-0.5"/>
<text text-anchor="middle" x="414" y="-7.5" font-family="Helvetica,sans-Serif" font-size="10.00">vector</text>
</a>
</g>
</g>
<!-- Node2&#45;&gt;Node9 -->
<g id="edge8" class="edge">
<title>Node2&#45;&gt;Node9</title>
<path fill="none" stroke="midnightblue" d="M432.43,-112.37C429.2,-94.62 421.76,-53.67 417.38,-29.6"/>
<polygon fill="midnightblue" stroke="midnightblue" points="420.79,-28.8 415.56,-19.59 413.91,-30.06 420.79,-28.8"/>
</g>
<!-- Node10 -->
<g id="node10" class="node">
<title>Node10</title>
<g id="a_node10"><a xlink:href="algebra_2eigen_8hpp.html" target="_top" xlink:title=" ">
<polygon fill="white" stroke="black" points="500.5,-56.5 500.5,-75.5 629.5,-75.5 629.5,-56.5 500.5,-56.5"/>
<text text-anchor="middle" x="565" y="-63.5" font-family="Helvetica,sans-Serif" font-size="10.00">mini/algebra/eigen.hpp</text>
</a>
</g>
</g>
<!-- Node2&#45;&gt;Node10 -->
<g id="edge9" class="edge">
<title>Node2&#45;&gt;Node10</title>
<path fill="none" stroke="midnightblue" d="M454.76,-112.44C476.32,-103.56 510.26,-89.56 534.79,-79.45"/>
<polygon fill="midnightblue" stroke="midnightblue" points="536.43,-82.56 544.34,-75.52 533.76,-76.09 536.43,-82.56"/>
</g>
<!-- Node14 -->
<g id="node14" class="node">
<title>Node14</title>
<g id="a_node14"><a xlink:href="root_8hpp.html" target="_top" xlink:title=" ">
<polygon fill="white" stroke="black" points="284,-56.5 284,-75.5 406,-75.5 406,-56.5 284,-56.5"/>
<text text-anchor="middle" x="345" y="-63.5" font-family="Helvetica,sans-Serif" font-size="10.00">mini/algebra/root.hpp</text>
</a>
</g>
</g>
<!-- Node2&#45;&gt;Node14 -->
<g id="edge14" class="edge">
<title>Node2&#45;&gt;Node14</title>
<path fill="none" stroke="midnightblue" d="M419.7,-112.32C405.82,-103.9 384.51,-90.97 368.2,-81.07"/>
<polygon fill="midnightblue" stroke="midnightblue" points="369.63,-77.85 359.26,-75.65 366,-83.83 369.63,-77.85"/>
</g>
<!-- Node2&#45;&gt;Node16 -->
<g id="edge18" class="edge">
<title>Node2&#45;&gt;Node16</title>
<path fill="none" stroke="midnightblue" d="M490.88,-112.44C554.82,-102.83 658.52,-87.23 726.25,-77.04"/>
<polygon fill="midnightblue" stroke="midnightblue" points="727.01,-80.47 736.38,-75.52 725.97,-73.54 727.01,-80.47"/>
</g>
<!-- Node10&#45;&gt;Node5 -->
<g id="edge11" class="edge">
<title>Node10&#45;&gt;Node5</title>
<path fill="none" stroke="midnightblue" d="M551.18,-56.32C537.77,-47.9 517.18,-34.97 501.41,-25.07"/>
<polygon fill="midnightblue" stroke="midnightblue" points="503.11,-22.01 492.78,-19.65 499.39,-27.94 503.11,-22.01"/>
</g>
<!-- Node11 -->
<g id="node11" class="node">
<title>Node11</title>
<g id="a_node11"><a xlink:title=" ">
<polygon fill="white" stroke="#bfbfbf" points="613,-0.5 613,-19.5 677,-19.5 677,-0.5 613,-0.5"/>
<text text-anchor="middle" x="645" y="-7.5" font-family="Helvetica,sans-Serif" font-size="10.00">algorithm</text>
</a>
</g>
</g>
<!-- Node10&#45;&gt;Node11 -->
<g id="edge10" class="edge">
<title>Node10&#45;&gt;Node11</title>
<path fill="none" stroke="midnightblue" d="M577.85,-56.32C590.22,-47.98 609.13,-35.21 623.74,-25.35"/>
<polygon fill="midnightblue" stroke="midnightblue" points="625.85,-28.15 632.18,-19.65 621.93,-22.35 625.85,-28.15"/>
</g>
<!-- Node12 -->
<g id="node12" class="node">
<title>Node12</title>
<g id="a_node12"><a xlink:title=" ">
<polygon fill="white" stroke="#bfbfbf" points="695.5,-0.5 695.5,-19.5 744.5,-19.5 744.5,-0.5 695.5,-0.5"/>
<text text-anchor="middle" x="720" y="-7.5" font-family="Helvetica,sans-Serif" font-size="10.00">cstdlib</text>
</a>
</g>
</g>
<!-- Node10&#45;&gt;Node12 -->
<g id="edge12" class="edge">
<title>Node10&#45;&gt;Node12</title>
<path fill="none" stroke="midnightblue" d="M589.56,-56.44C615.52,-47.4 656.67,-33.06 685.8,-22.92"/>
<polygon fill="midnightblue" stroke="midnightblue" points="687.26,-26.11 695.55,-19.52 684.96,-19.5 687.26,-26.11"/>
</g>
<!-- Node13 -->
<g id="node13" class="node">
<title>Node13</title>
<g id="a_node13"><a xlink:title=" ">
<polygon fill="white" stroke="#bfbfbf" points="521,-0.5 521,-19.5 595,-19.5 595,-0.5 521,-0.5"/>
<text text-anchor="middle" x="558" y="-7.5" font-family="Helvetica,sans-Serif" font-size="10.00">Eigen/Eigen</text>
</a>
</g>
</g>
<!-- Node10&#45;&gt;Node13 -->
<g id="edge13" class="edge">
<title>Node10&#45;&gt;Node13</title>
<path fill="none" stroke="midnightblue" d="M563.84,-56.08C562.92,-48.93 561.58,-38.64 560.42,-29.69"/>
<polygon fill="midnightblue" stroke="midnightblue" points="563.89,-29.22 559.13,-19.75 556.95,-30.12 563.89,-29.22"/>
</g>
<!-- Node14&#45;&gt;Node8 -->
<g id="edge16" class="edge">
<title>Node14&#45;&gt;Node8</title>
<path fill="none" stroke="midnightblue" d="M317.43,-56.44C287.9,-47.28 240.88,-32.69 208.12,-22.52"/>
<polygon fill="midnightblue" stroke="midnightblue" points="209.03,-19.14 198.44,-19.52 206.96,-25.82 209.03,-19.14"/>
</g>
<!-- Node14&#45;&gt;Node9 -->
<g id="edge15" class="edge">
<title>Node14&#45;&gt;Node9</title>
<path fill="none" stroke="midnightblue" d="M356.09,-56.32C366.49,-48.18 382.26,-35.84 394.72,-26.09"/>
<polygon fill="midnightblue" stroke="midnightblue" points="396.99,-28.75 402.71,-19.83 392.68,-23.24 396.99,-28.75"/>
</g>
<!-- Node15 -->
<g id="node15" class="node">
<title>Node15</title>
<g id="a_node15"><a xlink:title=" ">
<polygon fill="white" stroke="#bfbfbf" points="303.5,-0.5 303.5,-19.5 372.5,-19.5 372.5,-0.5 303.5,-0.5"/>
<text text-anchor="middle" x="338" y="-7.5" font-family="Helvetica,sans-Serif" font-size="10.00">type_traits</text>
</a>
</g>
</g>
<!-- Node14&#45;&gt;Node15 -->
<g id="edge17" class="edge">
<title>Node14&#45;&gt;Node15</title>
<path fill="none" stroke="midnightblue" d="M343.84,-56.08C342.92,-48.93 341.58,-38.64 340.42,-29.69"/>
<polygon fill="midnightblue" stroke="midnightblue" points="343.89,-29.22 339.13,-19.75 336.95,-30.12 343.89,-29.22"/>
</g>
</g>
</svg>
