<?xml version="1.0" encoding="UTF-8" standalone="no"?>
<!DOCTYPE svg PUBLIC "-//W3C//DTD SVG 1.1//EN"
 "http://www.w3.org/Graphics/SVG/1.1/DTD/svg11.dtd">
<!-- Generated by graphviz version 2.43.0 (0)
 -->
<!-- Title: include/mini/integrator/pyramid.hpp Pages: 1 -->
<svg width="1224pt" height="319pt"
 viewBox="0.00 0.00 1224.12 319.00" xmlns="http://www.w3.org/2000/svg" xmlns:xlink="http://www.w3.org/1999/xlink">
<g id="graph0" class="graph" transform="scale(1 1) rotate(0) translate(4 315)">
<title>include/mini/integrator/pyramid.hpp</title>
<polygon fill="white" stroke="transparent" points="-4,4 -4,-315 1220.12,-315 1220.12,4 -4,4"/>
<!-- Node1 -->
<g id="node1" class="node">
<title>Node1</title>
<g id="a_node1"><a xlink:title=" ">
<polygon fill="#bfbfbf" stroke="black" points="354,-280.5 354,-310.5 482,-310.5 482,-280.5 354,-280.5"/>
<text text-anchor="start" x="362" y="-298.5" font-family="Helvetica,sans-Serif" font-size="10.00">include/mini/integrator</text>
<text text-anchor="middle" x="418" y="-287.5" font-family="Helvetica,sans-Serif" font-size="10.00">/pyramid.hpp</text>
</a>
</g>
</g>
<!-- Node2 -->
<g id="node2" class="node">
<title>Node2</title>
<g id="a_node2"><a xlink:title=" ">
<polygon fill="white" stroke="#bfbfbf" points="361,-56.5 361,-75.5 421,-75.5 421,-56.5 361,-56.5"/>
<text text-anchor="middle" x="391" y="-63.5" font-family="Helvetica,sans-Serif" font-size="10.00">concepts</text>
</a>
</g>
</g>
<!-- Node1&#45;&gt;Node2 -->
<g id="edge1" class="edge">
<title>Node1&#45;&gt;Node2</title>
<path fill="none" stroke="midnightblue" d="M369.88,-280.38C352.26,-272.63 334.17,-261.01 324,-244 293.77,-193.44 306.62,-163.06 336,-112 343.28,-99.34 355.59,-88.77 366.72,-81.06"/>
<polygon fill="midnightblue" stroke="midnightblue" points="368.79,-83.89 375.27,-75.51 364.98,-78.02 368.79,-83.89"/>
</g>
<!-- Node3 -->
<g id="node3" class="node">
<title>Node3</title>
<g id="a_node3"><a xlink:title=" ">
<polygon fill="white" stroke="#bfbfbf" points="455,-0.5 455,-19.5 519,-19.5 519,-0.5 455,-0.5"/>
<text text-anchor="middle" x="487" y="-7.5" font-family="Helvetica,sans-Serif" font-size="10.00">algorithm</text>
</a>
</g>
</g>
<!-- Node1&#45;&gt;Node3 -->
<g id="edge2" class="edge">
<title>Node1&#45;&gt;Node3</title>
<path fill="none" stroke="midnightblue" d="M482.21,-291.93C671.64,-283.5 1215,-252.88 1215,-179 1215,-179 1215,-179 1215,-121 1215,-90.9 1219.5,-74.81 1196,-56 1169.87,-35.09 678.42,-17.29 529.45,-12.36"/>
<polygon fill="midnightblue" stroke="midnightblue" points="529.43,-8.85 519.32,-12.02 529.2,-15.85 529.43,-8.85"/>
</g>
<!-- Node4 -->
<g id="node4" class="node">
<title>Node4</title>
<g id="a_node4"><a xlink:title=" ">
<polygon fill="white" stroke="#bfbfbf" points="1135,-56.5 1135,-75.5 1187,-75.5 1187,-56.5 1135,-56.5"/>
<text text-anchor="middle" x="1161" y="-63.5" font-family="Helvetica,sans-Serif" font-size="10.00">cassert</text>
</a>
</g>
</g>
<!-- Node1&#45;&gt;Node4 -->
<g id="edge3" class="edge">
<title>Node1&#45;&gt;Node4</title>
<path fill="none" stroke="midnightblue" d="M482.33,-291.36C595.62,-285.23 825.95,-269.97 902,-244 1005.5,-208.66 1105.99,-119.85 1144.51,-83.2"/>
<polygon fill="midnightblue" stroke="midnightblue" points="1147.39,-85.29 1152.16,-75.83 1142.53,-80.25 1147.39,-85.29"/>
</g>
<!-- Node5 -->
<g id="node5" class="node">
<title>Node5</title>
<g id="a_node5"><a xlink:title=" ">
<polygon fill="white" stroke="#bfbfbf" points="66.5,-0.5 66.5,-19.5 113.5,-19.5 113.5,-0.5 66.5,-0.5"/>
<text text-anchor="middle" x="90" y="-7.5" font-family="Helvetica,sans-Serif" font-size="10.00">cmath</text>
</a>
</g>
</g>
<!-- Node1&#45;&gt;Node5 -->
<g id="edge4" class="edge">
<title>Node1&#45;&gt;Node5</title>
<path fill="none" stroke="midnightblue" d="M353.79,-289.45C268.37,-281.98 122.48,-266.43 74,-244 34.27,-225.62 0,-222.77 0,-179 0,-179 0,-179 0,-121 0,-78.66 40.44,-43.66 67.1,-25.18"/>
<polygon fill="midnightblue" stroke="midnightblue" points="69.16,-28.02 75.54,-19.56 65.28,-22.19 69.16,-28.02"/>
</g>
<!-- Node6 -->
<g id="node6" class="node">
<title>Node6</title>
<g id="a_node6"><a xlink:title=" ">
<polygon fill="white" stroke="#bfbfbf" points="425,-112.5 425,-131.5 483,-131.5 483,-112.5 425,-112.5"/>
<text text-anchor="middle" x="454" y="-119.5" font-family="Helvetica,sans-Serif" font-size="10.00">memory</text>
</a>
</g>
</g>
<!-- Node1&#45;&gt;Node6 -->
<g id="edge5" class="edge">
<title>Node1&#45;&gt;Node6</title>
<path fill="none" stroke="midnightblue" d="M379.34,-280.37C363.23,-272.34 346.17,-260.52 337,-244 320.61,-214.47 317.88,-195.84 337,-168 354.37,-142.71 388.1,-131.62 414.89,-126.77"/>
<polygon fill="midnightblue" stroke="midnightblue" points="415.45,-130.23 424.77,-125.2 414.35,-123.31 415.45,-130.23"/>
</g>
<!-- Node7 -->
<g id="node7" class="node">
<title>Node7</title>
<g id="a_node7"><a xlink:title=" ">
<polygon fill="white" stroke="#bfbfbf" points="331.5,-0.5 331.5,-19.5 400.5,-19.5 400.5,-0.5 331.5,-0.5"/>
<text text-anchor="middle" x="366" y="-7.5" font-family="Helvetica,sans-Serif" font-size="10.00">type_traits</text>
</a>
</g>
</g>
<!-- Node1&#45;&gt;Node7 -->
<g id="edge6" class="edge">
<title>Node1&#45;&gt;Node7</title>
<path fill="none" stroke="midnightblue" d="M353.97,-288.35C245.67,-276.15 38,-244.25 38,-179 38,-179 38,-179 38,-121 38,-80.14 66.67,-74.69 103,-56 189.54,-11.47 223.2,-37.15 319,-20 319.75,-19.87 320.51,-19.73 321.27,-19.59"/>
<polygon fill="midnightblue" stroke="midnightblue" points="322.17,-22.99 331.37,-17.73 320.9,-16.1 322.17,-22.99"/>
</g>
<!-- Node8 -->
<g id="node8" class="node">
<title>Node8</title>
<g id="a_node8"><a xlink:href="jacobi_8hpp.html" target="_top" xlink:title=" ">
<polygon fill="white" stroke="black" points="346.5,-224.5 346.5,-243.5 489.5,-243.5 489.5,-224.5 346.5,-224.5"/>
<text text-anchor="middle" x="418" y="-231.5" font-family="Helvetica,sans-Serif" font-size="10.00">mini/integrator/jacobi.hpp</text>
</a>
</g>
</g>
<!-- Node1&#45;&gt;Node8 -->
<g id="edge7" class="edge">
<title>Node1&#45;&gt;Node8</title>
<path fill="none" stroke="midnightblue" d="M418,-280.4C418,-272.47 418,-262.46 418,-253.86"/>
<polygon fill="midnightblue" stroke="midnightblue" points="421.5,-253.66 418,-243.66 414.5,-253.66 421.5,-253.66"/>
</g>
<!-- Node10 -->
<g id="node10" class="node">
<title>Node10</title>
<g id="a_node10"><a xlink:href="integrator_2cell_8hpp.html" target="_top" xlink:title=" ">
<polygon fill="white" stroke="black" points="507.5,-224.5 507.5,-243.5 638.5,-243.5 638.5,-224.5 507.5,-224.5"/>
<text text-anchor="middle" x="573" y="-231.5" font-family="Helvetica,sans-Serif" font-size="10.00">mini/integrator/cell.hpp</text>
</a>
</g>
</g>
<!-- Node1&#45;&gt;Node10 -->
<g id="edge10" class="edge">
<title>Node1&#45;&gt;Node10</title>
<path fill="none" stroke="midnightblue" d="M454.73,-280.4C480.97,-270.33 515.93,-256.91 541.02,-247.28"/>
<polygon fill="midnightblue" stroke="midnightblue" points="542.36,-250.51 550.45,-243.66 539.86,-243.97 542.36,-250.51"/>
</g>
<!-- Node25 -->
<g id="node25" class="node">
<title>Node25</title>
<g id="a_node25"><a xlink:href="coordinate_2pyramid_8hpp.html" target="_top" xlink:title=" ">
<polygon fill="white" stroke="black" points="735,-224.5 735,-243.5 893,-243.5 893,-224.5 735,-224.5"/>
<text text-anchor="middle" x="814" y="-231.5" font-family="Helvetica,sans-Serif" font-size="10.00">mini/coordinate/pyramid.hpp</text>
</a>
</g>
</g>
<!-- Node1&#45;&gt;Node25 -->
<g id="edge46" class="edge">
<title>Node1&#45;&gt;Node25</title>
<path fill="none" stroke="midnightblue" d="M482.06,-284.87C554.92,-273.93 673.33,-256.14 747.28,-245.02"/>
<polygon fill="midnightblue" stroke="midnightblue" points="748.04,-248.45 757.41,-243.5 747,-241.53 748.04,-248.45"/>
</g>
<!-- Node8&#45;&gt;Node2 -->
<g id="edge8" class="edge">
<title>Node8&#45;&gt;Node2</title>
<path fill="none" stroke="midnightblue" d="M386.98,-224.44C368.97,-217.69 347.77,-206.3 337,-188 315.83,-152.02 351.81,-106.24 374.56,-82.64"/>
<polygon fill="midnightblue" stroke="midnightblue" points="377.07,-85.08 381.66,-75.53 372.12,-80.13 377.07,-85.08"/>
</g>
<!-- Node9 -->
<g id="node9" class="node">
<title>Node9</title>
<g id="a_node9"><a xlink:title=" ">
<polygon fill="white" stroke="#bfbfbf" points="346,-168.5 346,-187.5 388,-187.5 388,-168.5 346,-168.5"/>
<text text-anchor="middle" x="367" y="-175.5" font-family="Helvetica,sans-Serif" font-size="10.00">array</text>
</a>
</g>
</g>
<!-- Node8&#45;&gt;Node9 -->
<g id="edge9" class="edge">
<title>Node8&#45;&gt;Node9</title>
<path fill="none" stroke="midnightblue" d="M409.58,-224.08C402.15,-216.22 391.15,-204.57 382.19,-195.08"/>
<polygon fill="midnightblue" stroke="midnightblue" points="384.68,-192.62 375.26,-187.75 379.59,-197.42 384.68,-192.62"/>
</g>
<!-- Node10&#45;&gt;Node2 -->
<g id="edge11" class="edge">
<title>Node10&#45;&gt;Node2</title>
<path fill="none" stroke="midnightblue" d="M540.23,-224.43C516.89,-217.26 485.62,-205.37 462,-188 436.05,-168.92 432.21,-159.83 416,-132 407.44,-117.31 400.74,-99.14 396.44,-85.75"/>
<polygon fill="midnightblue" stroke="midnightblue" points="399.67,-84.35 393.41,-75.81 392.98,-86.4 399.67,-84.35"/>
</g>
<!-- Node10&#45;&gt;Node6 -->
<g id="edge12" class="edge">
<title>Node10&#45;&gt;Node6</title>
<path fill="none" stroke="midnightblue" d="M540.09,-224.37C519.76,-217.53 494.51,-206.04 478,-188 466.21,-175.12 460.07,-155.94 456.97,-141.75"/>
<polygon fill="midnightblue" stroke="midnightblue" points="460.36,-140.84 455.08,-131.66 453.48,-142.13 460.36,-140.84"/>
</g>
<!-- Node11 -->
<g id="node11" class="node">
<title>Node11</title>
<g id="a_node11"><a xlink:href="coordinate_2cell_8hpp.html" target="_top" xlink:title=" ">
<polygon fill="white" stroke="black" points="558,-168.5 558,-187.5 692,-187.5 692,-168.5 558,-168.5"/>
<text text-anchor="middle" x="625" y="-175.5" font-family="Helvetica,sans-Serif" font-size="10.00">mini/coordinate/cell.hpp</text>
</a>
</g>
</g>
<!-- Node10&#45;&gt;Node11 -->
<g id="edge13" class="edge">
<title>Node10&#45;&gt;Node11</title>
<path fill="none" stroke="midnightblue" d="M581.59,-224.08C589.16,-216.22 600.38,-204.57 609.51,-195.08"/>
<polygon fill="midnightblue" stroke="midnightblue" points="612.16,-197.38 616.57,-187.75 607.12,-192.53 612.16,-197.38"/>
</g>
<!-- Node22 -->
<g id="node22" class="node">
<title>Node22</title>
<g id="a_node22"><a xlink:href="integrator_2element_8hpp.html" target="_top" xlink:title=" ">
<polygon fill="white" stroke="black" points="710,-168.5 710,-187.5 864,-187.5 864,-168.5 710,-168.5"/>
<text text-anchor="middle" x="787" y="-175.5" font-family="Helvetica,sans-Serif" font-size="10.00">mini/integrator/element.hpp</text>
</a>
</g>
</g>
<!-- Node10&#45;&gt;Node22 -->
<g id="edge37" class="edge">
<title>Node10&#45;&gt;Node22</title>
<path fill="none" stroke="midnightblue" d="M606.91,-224.44C643.85,-215.12 703.05,-200.18 743.42,-190"/>
<polygon fill="midnightblue" stroke="midnightblue" points="744.41,-193.36 753.25,-187.52 742.7,-186.57 744.41,-193.36"/>
</g>
<!-- Node23 -->
<g id="node23" class="node">
<title>Node23</title>
<g id="a_node23"><a xlink:href="function_8hpp.html" target="_top" xlink:title=" ">
<polygon fill="white" stroke="black" points="66.5,-112.5 66.5,-131.5 219.5,-131.5 219.5,-112.5 66.5,-112.5"/>
<text text-anchor="middle" x="143" y="-119.5" font-family="Helvetica,sans-Serif" font-size="10.00">mini/integrator/function.hpp</text>
</a>
</g>
</g>
<!-- Node10&#45;&gt;Node23 -->
<g id="edge40" class="edge">
<title>Node10&#45;&gt;Node23</title>
<path fill="none" stroke="midnightblue" d="M516.74,-224.47C468.62,-216.65 397.73,-203.89 337,-188 278.96,-172.82 213.05,-149.37 174.93,-135.18"/>
<polygon fill="midnightblue" stroke="midnightblue" points="175.99,-131.84 165.4,-131.61 173.54,-138.39 175.99,-131.84"/>
</g>
<!-- Node11&#45;&gt;Node2 -->
<g id="edge14" class="edge">
<title>Node11&#45;&gt;Node2</title>
<path fill="none" stroke="midnightblue" d="M613.86,-168.4C595.96,-154.9 559.3,-128.58 525,-112 494.63,-97.32 458.25,-85.44 431.06,-77.57"/>
<polygon fill="midnightblue" stroke="midnightblue" points="431.7,-74.11 421.12,-74.76 429.79,-80.85 431.7,-74.11"/>
</g>
<!-- Node11&#45;&gt;Node3 -->
<g id="edge15" class="edge">
<title>Node11&#45;&gt;Node3</title>
<path fill="none" stroke="midnightblue" d="M624.07,-168.2C622.16,-154.42 616.58,-127.72 601,-112 569.21,-79.94 536.66,-109.15 506,-76 494.41,-63.47 489.85,-44.25 488.08,-29.95"/>
<polygon fill="midnightblue" stroke="midnightblue" points="491.55,-29.42 487.18,-19.76 484.58,-30.03 491.55,-29.42"/>
</g>
<!-- Node11&#45;&gt;Node6 -->
<g id="edge16" class="edge">
<title>Node11&#45;&gt;Node6</title>
<path fill="none" stroke="midnightblue" d="M597.9,-168.44C569.01,-159.32 523.08,-144.81 490.89,-134.65"/>
<polygon fill="midnightblue" stroke="midnightblue" points="491.56,-131.19 480.97,-131.52 489.45,-137.87 491.56,-131.19"/>
</g>
<!-- Node11&#45;&gt;Node7 -->
<g id="edge17" class="edge">
<title>Node11&#45;&gt;Node7</title>
<path fill="none" stroke="midnightblue" d="M617.28,-168.2C605.31,-154.9 581.11,-129.38 557,-112 549.55,-106.63 441.68,-50.35 391.42,-24.21"/>
<polygon fill="midnightblue" stroke="midnightblue" points="392.95,-21.06 382.47,-19.55 389.73,-27.27 392.95,-21.06"/>
</g>
<!-- Node12 -->
<g id="node12" class="node">
<title>Node12</title>
<g id="a_node12"><a xlink:title=" ">
<polygon fill="white" stroke="#bfbfbf" points="939.5,-0.5 939.5,-19.5 986.5,-19.5 986.5,-0.5 939.5,-0.5"/>
<text text-anchor="middle" x="963" y="-7.5" font-family="Helvetica,sans-Serif" font-size="10.00">vector</text>
</a>
</g>
</g>
<!-- Node11&#45;&gt;Node12 -->
<g id="edge18" class="edge">
<title>Node11&#45;&gt;Node12</title>
<path fill="none" stroke="midnightblue" d="M692.18,-168.72C743,-161.54 814.19,-149.52 875,-132 939,-113.56 976.73,-131.2 1014,-76 1026.33,-57.73 1005.49,-37.98 986.85,-25.1"/>
<polygon fill="midnightblue" stroke="midnightblue" points="988.59,-22.06 978.3,-19.53 984.77,-27.92 988.59,-22.06"/>
</g>
<!-- Node13 -->
<g id="node13" class="node">
<title>Node13</title>
<g id="a_node13"><a xlink:href="coordinate_2element_8hpp.html" target="_top" xlink:title=" ">
<polygon fill="white" stroke="black" points="708,-112.5 708,-131.5 866,-131.5 866,-112.5 708,-112.5"/>
<text text-anchor="middle" x="787" y="-119.5" font-family="Helvetica,sans-Serif" font-size="10.00">mini/coordinate/element.hpp</text>
</a>
</g>
</g>
<!-- Node11&#45;&gt;Node13 -->
<g id="edge19" class="edge">
<title>Node11&#45;&gt;Node13</title>
<path fill="none" stroke="midnightblue" d="M650.67,-168.44C677.92,-159.36 721.18,-144.94 751.65,-134.78"/>
<polygon fill="midnightblue" stroke="midnightblue" points="753.07,-138 761.45,-131.52 750.86,-131.36 753.07,-138"/>
</g>
<!-- Node13&#45;&gt;Node2 -->
<g id="edge20" class="edge">
<title>Node13&#45;&gt;Node2</title>
<path fill="none" stroke="midnightblue" d="M724.25,-112.44C642.11,-101.24 500.46,-81.93 431.32,-72.5"/>
<polygon fill="midnightblue" stroke="midnightblue" points="431.65,-69.01 421.27,-71.13 430.7,-75.95 431.65,-69.01"/>
</g>
<!-- Node13&#45;&gt;Node4 -->
<g id="edge21" class="edge">
<title>Node13&#45;&gt;Node4</title>
<path fill="none" stroke="midnightblue" d="M866.21,-113.2C932.83,-106.01 1030.74,-94 1124.74,-76.05"/>
<polygon fill="midnightblue" stroke="midnightblue" points="1125.55,-79.46 1134.7,-74.12 1124.22,-72.59 1125.55,-79.46"/>
</g>
<!-- Node13&#45;&gt;Node5 -->
<g id="edge22" class="edge">
<title>Node13&#45;&gt;Node5</title>
<path fill="none" stroke="midnightblue" d="M769.15,-112.34C750.75,-103.37 721.28,-88.9 696,-76 679,-67.32 676.35,-61.24 658,-56 444.63,4.97 380.8,-42.16 160,-20 148.15,-18.81 135.2,-17.23 123.7,-15.72"/>
<polygon fill="midnightblue" stroke="midnightblue" points="123.99,-12.23 113.62,-14.37 123.06,-19.16 123.99,-12.23"/>
</g>
<!-- Node13&#45;&gt;Node12 -->
<g id="edge26" class="edge">
<title>Node13&#45;&gt;Node12</title>
<path fill="none" stroke="midnightblue" d="M800.81,-112.37C831.14,-93.41 903.8,-48 940.69,-24.94"/>
<polygon fill="midnightblue" stroke="midnightblue" points="942.63,-27.86 949.25,-19.59 938.92,-21.92 942.63,-27.86"/>
</g>
<!-- Node14 -->
<g id="node14" class="node">
<title>Node14</title>
<g id="a_node14"><a xlink:title=" ">
<polygon fill="white" stroke="#bfbfbf" points="1061,-56.5 1061,-75.5 1117,-75.5 1117,-56.5 1061,-56.5"/>
<text text-anchor="middle" x="1089" y="-63.5" font-family="Helvetica,sans-Serif" font-size="10.00">numeric</text>
</a>
</g>
</g>
<!-- Node13&#45;&gt;Node14 -->
<g id="edge23" class="edge">
<title>Node13&#45;&gt;Node14</title>
<path fill="none" stroke="midnightblue" d="M834.85,-112.44C894.7,-101.74 995.94,-83.64 1050.85,-73.82"/>
<polygon fill="midnightblue" stroke="midnightblue" points="1051.63,-77.24 1060.86,-72.03 1050.4,-70.35 1051.63,-77.24"/>
</g>
<!-- Node15 -->
<g id="node15" class="node">
<title>Node15</title>
<g id="a_node15"><a xlink:title=" ">
<polygon fill="white" stroke="#bfbfbf" points="921.5,-56.5 921.5,-75.5 1004.5,-75.5 1004.5,-56.5 921.5,-56.5"/>
<text text-anchor="middle" x="963" y="-63.5" font-family="Helvetica,sans-Serif" font-size="10.00">initializer_list</text>
</a>
</g>
</g>
<!-- Node13&#45;&gt;Node15 -->
<g id="edge24" class="edge">
<title>Node13&#45;&gt;Node15</title>
<path fill="none" stroke="midnightblue" d="M814.89,-112.44C844.75,-103.28 892.31,-88.69 925.46,-78.52"/>
<polygon fill="midnightblue" stroke="midnightblue" points="926.71,-81.8 935.24,-75.52 924.66,-75.1 926.71,-81.8"/>
</g>
<!-- Node16 -->
<g id="node16" class="node">
<title>Node16</title>
<g id="a_node16"><a xlink:title=" ">
<polygon fill="white" stroke="#bfbfbf" points="763,-0.5 763,-19.5 823,-19.5 823,-0.5 763,-0.5"/>
<text text-anchor="middle" x="793" y="-7.5" font-family="Helvetica,sans-Serif" font-size="10.00">iostream</text>
</a>
</g>
</g>
<!-- Node13&#45;&gt;Node16 -->
<g id="edge25" class="edge">
<title>Node13&#45;&gt;Node16</title>
<path fill="none" stroke="midnightblue" d="M801.66,-112.4C813.41,-104.58 829.03,-91.86 836,-76 844.08,-57.6 828.32,-38.68 813.65,-26.03"/>
<polygon fill="midnightblue" stroke="midnightblue" points="815.76,-23.23 805.78,-19.69 811.37,-28.69 815.76,-23.23"/>
</g>
<!-- Node17 -->
<g id="node17" class="node">
<title>Node17</title>
<g id="a_node17"><a xlink:href="algebra_2eigen_8hpp.html" target="_top" xlink:title=" ">
<polygon fill="white" stroke="black" points="175.5,-56.5 175.5,-75.5 304.5,-75.5 304.5,-56.5 175.5,-56.5"/>
<text text-anchor="middle" x="240" y="-63.5" font-family="Helvetica,sans-Serif" font-size="10.00">mini/algebra/eigen.hpp</text>
</a>
</g>
</g>
<!-- Node13&#45;&gt;Node17 -->
<g id="edge27" class="edge">
<title>Node13&#45;&gt;Node17</title>
<path fill="none" stroke="midnightblue" d="M707.75,-113.18C602.45,-102.78 417.74,-84.55 314.75,-74.38"/>
<polygon fill="midnightblue" stroke="midnightblue" points="315.04,-70.89 304.74,-73.39 314.35,-77.86 315.04,-70.89"/>
</g>
<!-- Node20 -->
<g id="node20" class="node">
<title>Node20</title>
<g id="a_node20"><a xlink:href="root_8hpp.html" target="_top" xlink:title=" ">
<polygon fill="white" stroke="black" points="705,-56.5 705,-75.5 827,-75.5 827,-56.5 705,-56.5"/>
<text text-anchor="middle" x="766" y="-63.5" font-family="Helvetica,sans-Serif" font-size="10.00">mini/algebra/root.hpp</text>
</a>
</g>
</g>
<!-- Node13&#45;&gt;Node20 -->
<g id="edge32" class="edge">
<title>Node13&#45;&gt;Node20</title>
<path fill="none" stroke="midnightblue" d="M783.53,-112.08C780.69,-104.77 776.57,-94.18 773.04,-85.1"/>
<polygon fill="midnightblue" stroke="midnightblue" points="776.29,-83.8 769.4,-75.75 769.77,-86.34 776.29,-83.8"/>
</g>
<!-- Node21 -->
<g id="node21" class="node">
<title>Node21</title>
<g id="a_node21"><a xlink:href="index_8hpp.html" target="_top" xlink:title=" ">
<polygon fill="white" stroke="black" points="515,-56.5 515,-75.5 649,-75.5 649,-56.5 515,-56.5"/>
<text text-anchor="middle" x="582" y="-63.5" font-family="Helvetica,sans-Serif" font-size="10.00">mini/constant/index.hpp</text>
</a>
</g>
</g>
<!-- Node13&#45;&gt;Node21 -->
<g id="edge36" class="edge">
<title>Node13&#45;&gt;Node21</title>
<path fill="none" stroke="midnightblue" d="M754.52,-112.44C719.28,-103.16 662.9,-88.31 624.24,-78.13"/>
<polygon fill="midnightblue" stroke="midnightblue" points="624.89,-74.68 614.33,-75.52 623.11,-81.45 624.89,-74.68"/>
</g>
<!-- Node17&#45;&gt;Node3 -->
<g id="edge28" class="edge">
<title>Node17&#45;&gt;Node3</title>
<path fill="none" stroke="midnightblue" d="M279.14,-56.44C324.29,-46.57 398.25,-30.4 444.69,-20.25"/>
<polygon fill="midnightblue" stroke="midnightblue" points="445.71,-23.61 454.74,-18.05 444.22,-16.77 445.71,-23.61"/>
</g>
<!-- Node17&#45;&gt;Node5 -->
<g id="edge29" class="edge">
<title>Node17&#45;&gt;Node5</title>
<path fill="none" stroke="midnightblue" d="M216.23,-56.44C191.11,-47.4 151.29,-33.06 123.1,-22.92"/>
<polygon fill="midnightblue" stroke="midnightblue" points="124.25,-19.61 113.66,-19.52 121.88,-26.2 124.25,-19.61"/>
</g>
<!-- Node18 -->
<g id="node18" class="node">
<title>Node18</title>
<g id="a_node18"><a xlink:title=" ">
<polygon fill="white" stroke="#bfbfbf" points="261.5,-0.5 261.5,-19.5 310.5,-19.5 310.5,-0.5 261.5,-0.5"/>
<text text-anchor="middle" x="286" y="-7.5" font-family="Helvetica,sans-Serif" font-size="10.00">cstdlib</text>
</a>
</g>
</g>
<!-- Node17&#45;&gt;Node18 -->
<g id="edge30" class="edge">
<title>Node17&#45;&gt;Node18</title>
<path fill="none" stroke="midnightblue" d="M247.6,-56.08C254.23,-48.3 264.02,-36.8 272.06,-27.37"/>
<polygon fill="midnightblue" stroke="midnightblue" points="274.73,-29.63 278.55,-19.75 269.4,-25.09 274.73,-29.63"/>
</g>
<!-- Node19 -->
<g id="node19" class="node">
<title>Node19</title>
<g id="a_node19"><a xlink:title=" ">
<polygon fill="white" stroke="#bfbfbf" points="169,-0.5 169,-19.5 243,-19.5 243,-0.5 169,-0.5"/>
<text text-anchor="middle" x="206" y="-7.5" font-family="Helvetica,sans-Serif" font-size="10.00">Eigen/Eigen</text>
</a>
</g>
</g>
<!-- Node17&#45;&gt;Node19 -->
<g id="edge31" class="edge">
<title>Node17&#45;&gt;Node19</title>
<path fill="none" stroke="midnightblue" d="M234.39,-56.08C229.63,-48.53 222.68,-37.49 216.85,-28.23"/>
<polygon fill="midnightblue" stroke="midnightblue" points="219.8,-26.35 211.51,-19.75 213.88,-30.08 219.8,-26.35"/>
</g>
<!-- Node20&#45;&gt;Node7 -->
<g id="edge35" class="edge">
<title>Node20&#45;&gt;Node7</title>
<path fill="none" stroke="midnightblue" d="M704.81,-56.74C623.67,-45.79 482.37,-26.71 410.6,-17.02"/>
<polygon fill="midnightblue" stroke="midnightblue" points="410.9,-13.53 400.53,-15.66 409.97,-20.47 410.9,-13.53"/>
</g>
<!-- Node20&#45;&gt;Node12 -->
<g id="edge33" class="edge">
<title>Node20&#45;&gt;Node12</title>
<path fill="none" stroke="midnightblue" d="M797.22,-56.44C833.31,-46.55 892.51,-30.32 929.53,-20.17"/>
<polygon fill="midnightblue" stroke="midnightblue" points="930.63,-23.5 939.35,-17.48 928.78,-16.75 930.63,-23.5"/>
</g>
<!-- Node20&#45;&gt;Node16 -->
<g id="edge34" class="edge">
<title>Node20&#45;&gt;Node16</title>
<path fill="none" stroke="midnightblue" d="M770.46,-56.08C774.15,-48.69 779.52,-37.95 784.09,-28.81"/>
<polygon fill="midnightblue" stroke="midnightblue" points="787.28,-30.26 788.62,-19.75 781.02,-27.13 787.28,-30.26"/>
</g>
<!-- Node22&#45;&gt;Node13 -->
<g id="edge38" class="edge">
<title>Node22&#45;&gt;Node13</title>
<path fill="none" stroke="midnightblue" d="M787,-168.08C787,-161.01 787,-150.86 787,-141.99"/>
<polygon fill="midnightblue" stroke="midnightblue" points="790.5,-141.75 787,-131.75 783.5,-141.75 790.5,-141.75"/>
</g>
<!-- Node22&#45;&gt;Node21 -->
<g id="edge39" class="edge">
<title>Node22&#45;&gt;Node21</title>
<path fill="none" stroke="midnightblue" d="M769.71,-168.38C751.9,-159.45 723.38,-145 699,-132 666.56,-114.7 629.53,-93.96 605.98,-80.64"/>
<polygon fill="midnightblue" stroke="midnightblue" points="607.48,-77.47 597.05,-75.58 604.03,-83.56 607.48,-77.47"/>
</g>
<!-- Node23&#45;&gt;Node2 -->
<g id="edge41" class="edge">
<title>Node23&#45;&gt;Node2</title>
<path fill="none" stroke="midnightblue" d="M182.3,-112.44C228.39,-102.41 304.39,-85.86 350.85,-75.74"/>
<polygon fill="midnightblue" stroke="midnightblue" points="351.83,-79.11 360.86,-73.56 350.34,-72.27 351.83,-79.11"/>
</g>
<!-- Node23&#45;&gt;Node5 -->
<g id="edge42" class="edge">
<title>Node23&#45;&gt;Node5</title>
<path fill="none" stroke="midnightblue" d="M132.79,-112.45C123.53,-104.11 110.27,-90.6 103,-76 95.79,-61.51 92.57,-43.33 91.15,-29.88"/>
<polygon fill="midnightblue" stroke="midnightblue" points="94.63,-29.56 90.32,-19.88 87.66,-30.14 94.63,-29.56"/>
</g>
<!-- Node23&#45;&gt;Node7 -->
<g id="edge43" class="edge">
<title>Node23&#45;&gt;Node7</title>
<path fill="none" stroke="midnightblue" d="M213.63,-112.48C245.87,-106.14 283.36,-95.11 313,-76 331.67,-63.96 346.91,-43.18 356.18,-28.36"/>
<polygon fill="midnightblue" stroke="midnightblue" points="359.27,-30.01 361.38,-19.63 353.26,-26.43 359.27,-30.01"/>
</g>
<!-- Node23&#45;&gt;Node17 -->
<g id="edge45" class="edge">
<title>Node23&#45;&gt;Node17</title>
<path fill="none" stroke="midnightblue" d="M158.58,-112.32C174,-103.74 197.81,-90.49 215.71,-80.52"/>
<polygon fill="midnightblue" stroke="midnightblue" points="217.42,-83.58 224.45,-75.65 214.01,-77.46 217.42,-83.58"/>
</g>
<!-- Node24 -->
<g id="node24" class="node">
<title>Node24</title>
<g id="a_node24"><a xlink:title=" ">
<polygon fill="white" stroke="#bfbfbf" points="112.5,-56.5 112.5,-75.5 157.5,-75.5 157.5,-56.5 112.5,-56.5"/>
<text text-anchor="middle" x="135" y="-63.5" font-family="Helvetica,sans-Serif" font-size="10.00">utility</text>
</a>
</g>
</g>
<!-- Node23&#45;&gt;Node24 -->
<g id="edge44" class="edge">
<title>Node23&#45;&gt;Node24</title>
<path fill="none" stroke="midnightblue" d="M141.68,-112.08C140.62,-104.93 139.09,-94.64 137.77,-85.69"/>
<polygon fill="midnightblue" stroke="midnightblue" points="141.22,-85.13 136.3,-75.75 134.3,-86.16 141.22,-85.13"/>
</g>
<!-- Node25&#45;&gt;Node2 -->
<g id="edge47" class="edge">
<title>Node25&#45;&gt;Node2</title>
<path fill="none" stroke="midnightblue" d="M734.95,-226.07C668.47,-219.07 579.53,-206.62 549,-188 512.95,-166.01 525.01,-138.33 492,-112 473.56,-97.29 449.55,-86.33 429.56,-78.92"/>
<polygon fill="midnightblue" stroke="midnightblue" points="430.71,-75.61 420.12,-75.56 428.37,-82.21 430.71,-75.61"/>
</g>
<!-- Node25&#45;&gt;Node4 -->
<g id="edge49" class="edge">
<title>Node25&#45;&gt;Node4</title>
<path fill="none" stroke="midnightblue" d="M842.26,-224.44C868.34,-216.21 907.92,-202.84 941,-188 1015.61,-154.53 1099.02,-105.13 1138.26,-81.13"/>
<polygon fill="midnightblue" stroke="midnightblue" points="1140.56,-83.82 1147.25,-75.6 1136.9,-77.86 1140.56,-83.82"/>
</g>
<!-- Node25&#45;&gt;Node6 -->
<g id="edge51" class="edge">
<title>Node25&#45;&gt;Node6</title>
<path fill="none" stroke="midnightblue" d="M734.67,-226.84C659.59,-219.98 553.02,-207.25 516,-188 494.69,-176.92 476.58,-155.64 465.53,-140.45"/>
<polygon fill="midnightblue" stroke="midnightblue" points="468.18,-138.13 459.6,-131.92 462.44,-142.13 468.18,-138.13"/>
</g>
<!-- Node25&#45;&gt;Node9 -->
<g id="edge48" class="edge">
<title>Node25&#45;&gt;Node9</title>
<path fill="none" stroke="midnightblue" d="M743.17,-224.44C644.36,-212.51 469.28,-191.36 398.25,-182.77"/>
<polygon fill="midnightblue" stroke="midnightblue" points="398.5,-179.28 388.15,-181.56 397.66,-186.23 398.5,-179.28"/>
</g>
<!-- Node25&#45;&gt;Node11 -->
<g id="edge55" class="edge">
<title>Node25&#45;&gt;Node11</title>
<path fill="none" stroke="midnightblue" d="M784.05,-224.44C751.84,-215.24 700.47,-200.56 664.86,-190.39"/>
<polygon fill="midnightblue" stroke="midnightblue" points="665.38,-186.9 654.81,-187.52 663.46,-193.63 665.38,-186.9"/>
</g>
<!-- Node25&#45;&gt;Node12 -->
<g id="edge53" class="edge">
<title>Node25&#45;&gt;Node12</title>
<path fill="none" stroke="midnightblue" d="M893.14,-226.84C985.05,-214.87 1132.2,-179.65 1196,-76 1200.66,-68.43 1201.66,-62.86 1196,-56 1171.13,-25.86 1055.18,-15.68 996.79,-12.43"/>
<polygon fill="midnightblue" stroke="midnightblue" points="996.76,-8.92 986.59,-11.9 996.4,-15.91 996.76,-8.92"/>
</g>
<!-- Node25&#45;&gt;Node13 -->
<g id="edge54" class="edge">
<title>Node25&#45;&gt;Node13</title>
<path fill="none" stroke="midnightblue" d="M832.13,-224.45C854.17,-212.81 886.81,-190.82 873,-168 863.59,-152.46 846.85,-142.02 830.62,-135.15"/>
<polygon fill="midnightblue" stroke="midnightblue" points="831.77,-131.85 821.18,-131.51 829.25,-138.37 831.77,-131.85"/>
</g>
<!-- Node25&#45;&gt;Node14 -->
<g id="edge52" class="edge">
<title>Node25&#45;&gt;Node14</title>
<path fill="none" stroke="midnightblue" d="M834.92,-224.46C854.91,-216.04 885.64,-202.37 911,-188 971.32,-153.81 1037.71,-105.61 1069.68,-81.68"/>
<polygon fill="midnightblue" stroke="midnightblue" points="1071.87,-84.41 1077.76,-75.6 1067.66,-78.82 1071.87,-84.41"/>
</g>
<!-- Node25&#45;&gt;Node15 -->
<g id="edge50" class="edge">
<title>Node25&#45;&gt;Node15</title>
<path fill="none" stroke="midnightblue" d="M833.61,-224.49C849.86,-216.73 872.83,-204.04 889,-188 920.21,-157.05 943.87,-110.43 955.34,-85.04"/>
<polygon fill="midnightblue" stroke="midnightblue" points="958.69,-86.13 959.5,-75.57 952.27,-83.32 958.69,-86.13"/>
</g>
</g>
</svg>
