<?xml version="1.0" encoding="UTF-8" standalone="no"?>
<!DOCTYPE svg PUBLIC "-//W3C//DTD SVG 1.1//EN"
 "http://www.w3.org/Graphics/SVG/1.1/DTD/svg11.dtd">
<!-- Generated by graphviz version 2.43.0 (0)
 -->
<!-- Title: include/mini/integrator/hexahedron.hpp Pages: 1 -->
<svg width="355pt" height="240pt"
 viewBox="0.00 0.00 355.00 240.00" xmlns="http://www.w3.org/2000/svg" xmlns:xlink="http://www.w3.org/1999/xlink">
<g id="graph0" class="graph" transform="scale(1 1) rotate(0) translate(4 236)">
<title>include/mini/integrator/hexahedron.hpp</title>
<polygon fill="white" stroke="transparent" points="-4,4 -4,-236 351,-236 351,4 -4,4"/>
<!-- Node1 -->
<g id="node1" class="node">
<title>Node1</title>
<g id="a_node1"><a xlink:title=" ">
<polygon fill="#bfbfbf" stroke="black" points="100.5,-201.5 100.5,-231.5 228.5,-231.5 228.5,-201.5 100.5,-201.5"/>
<text text-anchor="start" x="108.5" y="-219.5" font-family="Helvetica,sans-Serif" font-size="10.00">include/mini/integrator</text>
<text text-anchor="middle" x="164.5" y="-208.5" font-family="Helvetica,sans-Serif" font-size="10.00">/hexahedron.hpp</text>
</a>
</g>
</g>
<!-- Node2 -->
<g id="node2" class="node">
<title>Node2</title>
<g id="a_node2"><a xlink:href="quality_8hpp.html" target="_top" xlink:title=" ">
<polygon fill="white" stroke="black" points="0,-140 0,-159 163,-159 163,-140 0,-140"/>
<text text-anchor="middle" x="81.5" y="-147" font-family="Helvetica,sans-Serif" font-size="10.00">include/mini/mesh/quality.hpp</text>
</a>
</g>
</g>
<!-- Node1&#45;&gt;Node2 -->
<g id="edge1" class="edge">
<title>Node1&#45;&gt;Node2</title>
<path fill="none" stroke="midnightblue" d="M138.33,-195.01C122.92,-182.94 104.24,-168.3 92.6,-159.19"/>
<polygon fill="midnightblue" stroke="midnightblue" points="136.46,-197.99 146.49,-201.4 140.78,-192.47 136.46,-197.99"/>
</g>
<!-- Node3 -->
<g id="node3" class="node">
<title>Node3</title>
<g id="a_node3"><a xlink:href="polynomial_2hexahedron_8hpp.html" target="_top" xlink:title=" ">
<polygon fill="white" stroke="black" points="181.5,-134.5 181.5,-164.5 315.5,-164.5 315.5,-134.5 181.5,-134.5"/>
<text text-anchor="start" x="189.5" y="-152.5" font-family="Helvetica,sans-Serif" font-size="10.00">include/mini/polynomial</text>
<text text-anchor="middle" x="248.5" y="-141.5" font-family="Helvetica,sans-Serif" font-size="10.00">/hexahedron.hpp</text>
</a>
</g>
</g>
<!-- Node1&#45;&gt;Node3 -->
<g id="edge2" class="edge">
<title>Node1&#45;&gt;Node3</title>
<path fill="none" stroke="midnightblue" d="M190.78,-195.17C203.62,-185.23 218.76,-173.51 230.31,-164.58"/>
<polygon fill="midnightblue" stroke="midnightblue" points="188.49,-192.51 182.73,-201.4 192.78,-198.04 188.49,-192.51"/>
</g>
<!-- Node4 -->
<g id="node4" class="node">
<title>Node4</title>
<g id="a_node4"><a xlink:href="spatial_2dg_2lobatto_8hpp.html" target="_top" xlink:title=" ">
<polygon fill="white" stroke="black" points="61,-67.5 61,-97.5 174,-97.5 174,-67.5 61,-67.5"/>
<text text-anchor="start" x="69" y="-85.5" font-family="Helvetica,sans-Serif" font-size="10.00">include/mini/spatial</text>
<text text-anchor="middle" x="117.5" y="-74.5" font-family="Helvetica,sans-Serif" font-size="10.00">/dg/lobatto.hpp</text>
</a>
</g>
</g>
<!-- Node3&#45;&gt;Node4 -->
<g id="edge3" class="edge">
<title>Node3&#45;&gt;Node4</title>
<path fill="none" stroke="midnightblue" d="M210.92,-129.85C190.21,-119.58 164.91,-107.03 145.87,-97.58"/>
<polygon fill="midnightblue" stroke="midnightblue" points="209.56,-133.09 220.07,-134.4 212.67,-126.82 209.56,-133.09"/>
</g>
<!-- Node5 -->
<g id="node5" class="node">
<title>Node5</title>
<g id="a_node5"><a xlink:href="fr_2general_8hpp.html" target="_top" xlink:title=" ">
<polygon fill="white" stroke="black" points="192,-67.5 192,-97.5 305,-97.5 305,-67.5 192,-67.5"/>
<text text-anchor="start" x="200" y="-85.5" font-family="Helvetica,sans-Serif" font-size="10.00">include/mini/spatial</text>
<text text-anchor="middle" x="248.5" y="-74.5" font-family="Helvetica,sans-Serif" font-size="10.00">/fr/general.hpp</text>
</a>
</g>
</g>
<!-- Node3&#45;&gt;Node5 -->
<g id="edge4" class="edge">
<title>Node3&#45;&gt;Node5</title>
<path fill="none" stroke="midnightblue" d="M248.5,-124.11C248.5,-115.15 248.5,-105.32 248.5,-97.58"/>
<polygon fill="midnightblue" stroke="midnightblue" points="245,-124.4 248.5,-134.4 252,-124.4 245,-124.4"/>
</g>
<!-- Node6 -->
<g id="node6" class="node">
<title>Node6</title>
<g id="a_node6"><a xlink:href="spatial_2fr_2lobatto_8hpp.html" target="_top" xlink:title=" ">
<polygon fill="white" stroke="black" points="234,-0.5 234,-30.5 347,-30.5 347,-0.5 234,-0.5"/>
<text text-anchor="start" x="242" y="-18.5" font-family="Helvetica,sans-Serif" font-size="10.00">include/mini/spatial</text>
<text text-anchor="middle" x="290.5" y="-7.5" font-family="Helvetica,sans-Serif" font-size="10.00">/fr/lobatto.hpp</text>
</a>
</g>
</g>
<!-- Node3&#45;&gt;Node6 -->
<g id="edge6" class="edge">
<title>Node3&#45;&gt;Node6</title>
<path fill="none" stroke="midnightblue" d="M286,-128.83C297.28,-120.88 308.29,-110.58 314.5,-98 325.54,-75.65 311.54,-47.29 300.76,-30.6"/>
<polygon fill="midnightblue" stroke="midnightblue" points="283.87,-126.05 277.41,-134.45 287.7,-131.91 283.87,-126.05"/>
</g>
<!-- Node5&#45;&gt;Node6 -->
<g id="edge5" class="edge">
<title>Node5&#45;&gt;Node6</title>
<path fill="none" stroke="midnightblue" d="M263.12,-58.87C269.2,-49.46 276.07,-38.83 281.4,-30.58"/>
<polygon fill="midnightblue" stroke="midnightblue" points="260.1,-57.1 257.61,-67.4 265.98,-60.9 260.1,-57.1"/>
</g>
</g>
</svg>
