<?xml version="1.0" encoding="UTF-8" standalone="no"?>
<!DOCTYPE svg PUBLIC "-//W3C//DTD SVG 1.1//EN"
 "http://www.w3.org/Graphics/SVG/1.1/DTD/svg11.dtd">
<!-- Generated by graphviz version 2.43.0 (0)
 -->
<!-- Title: include/mini/integrator/hexahedron.hpp Pages: 1 -->
<svg width="1254pt" height="319pt"
 viewBox="0.00 0.00 1254.00 319.00" xmlns="http://www.w3.org/2000/svg" xmlns:xlink="http://www.w3.org/1999/xlink">
<g id="graph0" class="graph" transform="scale(1 1) rotate(0) translate(4 315)">
<title>include/mini/integrator/hexahedron.hpp</title>
<polygon fill="white" stroke="transparent" points="-4,4 -4,-315 1250,-315 1250,4 -4,4"/>
<!-- Node1 -->
<g id="node1" class="node">
<title>Node1</title>
<g id="a_node1"><a xlink:title=" ">
<polygon fill="#bfbfbf" stroke="black" points="267,-280.5 267,-310.5 395,-310.5 395,-280.5 267,-280.5"/>
<text text-anchor="start" x="275" y="-298.5" font-family="Helvetica,sans-Serif" font-size="10.00">include/mini/integrator</text>
<text text-anchor="middle" x="331" y="-287.5" font-family="Helvetica,sans-Serif" font-size="10.00">/hexahedron.hpp</text>
</a>
</g>
</g>
<!-- Node2 -->
<g id="node2" class="node">
<title>Node2</title>
<g id="a_node2"><a xlink:title=" ">
<polygon fill="white" stroke="#bfbfbf" points="206,-56.5 206,-75.5 266,-75.5 266,-56.5 206,-56.5"/>
<text text-anchor="middle" x="236" y="-63.5" font-family="Helvetica,sans-Serif" font-size="10.00">concepts</text>
</a>
</g>
</g>
<!-- Node1&#45;&gt;Node2 -->
<g id="edge1" class="edge">
<title>Node1&#45;&gt;Node2</title>
<path fill="none" stroke="midnightblue" d="M317.93,-280.41C309.55,-270.77 298.98,-257.35 292,-244 263.67,-189.84 246.58,-118.79 239.63,-85.6"/>
<polygon fill="midnightblue" stroke="midnightblue" points="243,-84.63 237.59,-75.52 236.14,-86.02 243,-84.63"/>
</g>
<!-- Node3 -->
<g id="node3" class="node">
<title>Node3</title>
<g id="a_node3"><a xlink:title=" ">
<polygon fill="white" stroke="#bfbfbf" points="966,-0.5 966,-19.5 1030,-19.5 1030,-0.5 966,-0.5"/>
<text text-anchor="middle" x="998" y="-7.5" font-family="Helvetica,sans-Serif" font-size="10.00">algorithm</text>
</a>
</g>
</g>
<!-- Node1&#45;&gt;Node3 -->
<g id="edge2" class="edge">
<title>Node1&#45;&gt;Node3</title>
<path fill="none" stroke="midnightblue" d="M395.34,-293.15C603.61,-287.93 1246,-264.86 1246,-179 1246,-179 1246,-179 1246,-121 1246,-32.18 1111.44,-14.53 1040.55,-11.39"/>
<polygon fill="midnightblue" stroke="midnightblue" points="1040.29,-7.88 1030.17,-11.01 1040.03,-14.87 1040.29,-7.88"/>
</g>
<!-- Node4 -->
<g id="node4" class="node">
<title>Node4</title>
<g id="a_node4"><a xlink:title=" ">
<polygon fill="white" stroke="#bfbfbf" points="1128,-56.5 1128,-75.5 1180,-75.5 1180,-56.5 1128,-56.5"/>
<text text-anchor="middle" x="1154" y="-63.5" font-family="Helvetica,sans-Serif" font-size="10.00">cassert</text>
</a>
</g>
</g>
<!-- Node1&#45;&gt;Node4 -->
<g id="edge3" class="edge">
<title>Node1&#45;&gt;Node4</title>
<path fill="none" stroke="midnightblue" d="M395.06,-292.15C521.43,-286.94 798.44,-272.59 889,-244 984.31,-213.91 1003.53,-191.27 1084,-132 1104.32,-117.04 1125.21,-96.9 1138.82,-83.03"/>
<polygon fill="midnightblue" stroke="midnightblue" points="1141.49,-85.29 1145.93,-75.67 1136.46,-80.43 1141.49,-85.29"/>
</g>
<!-- Node5 -->
<g id="node5" class="node">
<title>Node5</title>
<g id="a_node5"><a xlink:title=" ">
<polygon fill="white" stroke="#bfbfbf" points="65.5,-0.5 65.5,-19.5 112.5,-19.5 112.5,-0.5 65.5,-0.5"/>
<text text-anchor="middle" x="89" y="-7.5" font-family="Helvetica,sans-Serif" font-size="10.00">cmath</text>
</a>
</g>
</g>
<!-- Node1&#45;&gt;Node5 -->
<g id="edge4" class="edge">
<title>Node1&#45;&gt;Node5</title>
<path fill="none" stroke="midnightblue" d="M266.88,-290.66C213.76,-285.44 137.46,-273.11 77,-244 36.65,-224.57 0,-223.79 0,-179 0,-179 0,-179 0,-121 0,-78.85 39.99,-43.78 66.36,-25.24"/>
<polygon fill="midnightblue" stroke="midnightblue" points="68.38,-28.1 74.7,-19.6 64.46,-22.3 68.38,-28.1"/>
</g>
<!-- Node6 -->
<g id="node6" class="node">
<title>Node6</title>
<g id="a_node6"><a xlink:title=" ">
<polygon fill="white" stroke="#bfbfbf" points="306,-224.5 306,-243.5 356,-243.5 356,-224.5 306,-224.5"/>
<text text-anchor="middle" x="331" y="-231.5" font-family="Helvetica,sans-Serif" font-size="10.00">cstring</text>
</a>
</g>
</g>
<!-- Node1&#45;&gt;Node6 -->
<g id="edge5" class="edge">
<title>Node1&#45;&gt;Node6</title>
<path fill="none" stroke="midnightblue" d="M331,-280.4C331,-272.47 331,-262.46 331,-253.86"/>
<polygon fill="midnightblue" stroke="midnightblue" points="334.5,-253.66 331,-243.66 327.5,-253.66 334.5,-253.66"/>
</g>
<!-- Node7 -->
<g id="node7" class="node">
<title>Node7</title>
<g id="a_node7"><a xlink:title=" ">
<polygon fill="white" stroke="#bfbfbf" points="344,-112.5 344,-131.5 402,-131.5 402,-112.5 344,-112.5"/>
<text text-anchor="middle" x="373" y="-119.5" font-family="Helvetica,sans-Serif" font-size="10.00">memory</text>
</a>
</g>
</g>
<!-- Node1&#45;&gt;Node7 -->
<g id="edge6" class="edge">
<title>Node1&#45;&gt;Node7</title>
<path fill="none" stroke="midnightblue" d="M316.88,-280.37C304.74,-266.45 290.19,-244.36 297,-224 308.63,-189.22 337.46,-156.8 356.08,-138.49"/>
<polygon fill="midnightblue" stroke="midnightblue" points="358.55,-140.98 363.36,-131.54 353.71,-135.92 358.55,-140.98"/>
</g>
<!-- Node8 -->
<g id="node8" class="node">
<title>Node8</title>
<g id="a_node8"><a xlink:title=" ">
<polygon fill="white" stroke="#bfbfbf" points="201.5,-0.5 201.5,-19.5 270.5,-19.5 270.5,-0.5 201.5,-0.5"/>
<text text-anchor="middle" x="236" y="-7.5" font-family="Helvetica,sans-Serif" font-size="10.00">type_traits</text>
</a>
</g>
</g>
<!-- Node1&#45;&gt;Node8 -->
<g id="edge7" class="edge">
<title>Node1&#45;&gt;Node8</title>
<path fill="none" stroke="midnightblue" d="M266.7,-282.57C180.45,-264.7 38,-227.8 38,-179 38,-179 38,-179 38,-121 38,-51.44 132.52,-25.49 190.95,-16.09"/>
<polygon fill="midnightblue" stroke="midnightblue" points="191.69,-19.52 201.06,-14.58 190.65,-12.6 191.69,-19.52"/>
</g>
<!-- Node9 -->
<g id="node9" class="node">
<title>Node9</title>
<g id="a_node9"><a xlink:href="integrator_2cell_8hpp.html" target="_top" xlink:title=" ">
<polygon fill="white" stroke="black" points="374.5,-224.5 374.5,-243.5 505.5,-243.5 505.5,-224.5 374.5,-224.5"/>
<text text-anchor="middle" x="440" y="-231.5" font-family="Helvetica,sans-Serif" font-size="10.00">mini/integrator/cell.hpp</text>
</a>
</g>
</g>
<!-- Node1&#45;&gt;Node9 -->
<g id="edge8" class="edge">
<title>Node1&#45;&gt;Node9</title>
<path fill="none" stroke="midnightblue" d="M356.83,-280.4C374.47,-270.77 397.7,-258.09 415.13,-248.58"/>
<polygon fill="midnightblue" stroke="midnightblue" points="417.04,-251.52 424.14,-243.66 413.69,-245.38 417.04,-251.52"/>
</g>
<!-- Node24 -->
<g id="node24" class="node">
<title>Node24</title>
<g id="a_node24"><a xlink:href="coordinate_2hexahedron_8hpp.html" target="_top" xlink:title=" ">
<polygon fill="white" stroke="black" points="704.5,-224.5 704.5,-243.5 879.5,-243.5 879.5,-224.5 704.5,-224.5"/>
<text text-anchor="middle" x="792" y="-231.5" font-family="Helvetica,sans-Serif" font-size="10.00">mini/coordinate/hexahedron.hpp</text>
</a>
</g>
</g>
<!-- Node1&#45;&gt;Node24 -->
<g id="edge44" class="edge">
<title>Node1&#45;&gt;Node24</title>
<path fill="none" stroke="midnightblue" d="M395.1,-286.23C479.07,-275.39 626.14,-256.41 715.74,-244.84"/>
<polygon fill="midnightblue" stroke="midnightblue" points="716.37,-248.29 725.83,-243.54 715.47,-241.35 716.37,-248.29"/>
</g>
<!-- Node9&#45;&gt;Node2 -->
<g id="edge9" class="edge">
<title>Node9&#45;&gt;Node2</title>
<path fill="none" stroke="midnightblue" d="M424.57,-224.46C409.62,-215.94 386.54,-202.1 368,-188 323.09,-153.84 275.52,-107.3 251.63,-83.11"/>
<polygon fill="midnightblue" stroke="midnightblue" points="253.97,-80.5 244.47,-75.81 248.97,-85.4 253.97,-80.5"/>
</g>
<!-- Node9&#45;&gt;Node7 -->
<g id="edge10" class="edge">
<title>Node9&#45;&gt;Node7</title>
<path fill="none" stroke="midnightblue" d="M420.45,-224.45C406.05,-217.03 387.41,-204.83 378,-188 370.15,-173.95 369.47,-155.46 370.43,-141.79"/>
<polygon fill="midnightblue" stroke="midnightblue" points="373.93,-141.96 371.49,-131.65 366.97,-141.23 373.93,-141.96"/>
</g>
<!-- Node10 -->
<g id="node10" class="node">
<title>Node10</title>
<g id="a_node10"><a xlink:href="coordinate_2cell_8hpp.html" target="_top" xlink:title=" ">
<polygon fill="white" stroke="black" points="630,-168.5 630,-187.5 764,-187.5 764,-168.5 630,-168.5"/>
<text text-anchor="middle" x="697" y="-175.5" font-family="Helvetica,sans-Serif" font-size="10.00">mini/coordinate/cell.hpp</text>
</a>
</g>
</g>
<!-- Node9&#45;&gt;Node10 -->
<g id="edge11" class="edge">
<title>Node9&#45;&gt;Node10</title>
<path fill="none" stroke="midnightblue" d="M480.72,-224.44C525.65,-215 598,-199.8 646.5,-189.61"/>
<polygon fill="midnightblue" stroke="midnightblue" points="647.4,-193 656.47,-187.52 645.96,-186.15 647.4,-193"/>
</g>
<!-- Node21 -->
<g id="node21" class="node">
<title>Node21</title>
<g id="a_node21"><a xlink:href="integrator_2element_8hpp.html" target="_top" xlink:title=" ">
<polygon fill="white" stroke="black" points="458,-168.5 458,-187.5 612,-187.5 612,-168.5 458,-168.5"/>
<text text-anchor="middle" x="535" y="-175.5" font-family="Helvetica,sans-Serif" font-size="10.00">mini/integrator/element.hpp</text>
</a>
</g>
</g>
<!-- Node9&#45;&gt;Node21 -->
<g id="edge35" class="edge">
<title>Node9&#45;&gt;Node21</title>
<path fill="none" stroke="midnightblue" d="M455.26,-224.32C470.22,-215.82 493.25,-202.73 510.73,-192.8"/>
<polygon fill="midnightblue" stroke="midnightblue" points="512.81,-195.64 519.77,-187.65 509.35,-189.55 512.81,-195.64"/>
</g>
<!-- Node22 -->
<g id="node22" class="node">
<title>Node22</title>
<g id="a_node22"><a xlink:href="function_8hpp.html" target="_top" xlink:title=" ">
<polygon fill="white" stroke="black" points="66.5,-112.5 66.5,-131.5 219.5,-131.5 219.5,-112.5 66.5,-112.5"/>
<text text-anchor="middle" x="143" y="-119.5" font-family="Helvetica,sans-Serif" font-size="10.00">mini/integrator/function.hpp</text>
</a>
</g>
</g>
<!-- Node9&#45;&gt;Node22 -->
<g id="edge38" class="edge">
<title>Node9&#45;&gt;Node22</title>
<path fill="none" stroke="midnightblue" d="M411.78,-224.46C383.74,-215.82 339.62,-201.8 302,-188 256.27,-171.22 204.18,-149.4 172.45,-135.79"/>
<polygon fill="midnightblue" stroke="midnightblue" points="173.47,-132.42 162.9,-131.68 170.7,-138.85 173.47,-132.42"/>
</g>
<!-- Node10&#45;&gt;Node2 -->
<g id="edge12" class="edge">
<title>Node10&#45;&gt;Node2</title>
<path fill="none" stroke="midnightblue" d="M665.15,-168.4C617.28,-155.56 523.88,-130.89 444,-112 385.71,-98.21 317.82,-83.84 275.88,-75.15"/>
<polygon fill="midnightblue" stroke="midnightblue" points="276.55,-71.72 266.05,-73.12 275.13,-78.57 276.55,-71.72"/>
</g>
<!-- Node10&#45;&gt;Node3 -->
<g id="edge13" class="edge">
<title>Node10&#45;&gt;Node3</title>
<path fill="none" stroke="midnightblue" d="M751.78,-168.45C784.83,-161.75 826.98,-150.39 861,-132 912.41,-104.2 960.76,-53.77 983.84,-27.66"/>
<polygon fill="midnightblue" stroke="midnightblue" points="986.75,-29.65 990.67,-19.81 981.47,-25.06 986.75,-29.65"/>
</g>
<!-- Node10&#45;&gt;Node7 -->
<g id="edge14" class="edge">
<title>Node10&#45;&gt;Node7</title>
<path fill="none" stroke="midnightblue" d="M645.66,-168.44C580.85,-157.64 470.79,-139.3 412.28,-129.55"/>
<polygon fill="midnightblue" stroke="midnightblue" points="412.76,-126.08 402.33,-127.89 411.61,-132.98 412.76,-126.08"/>
</g>
<!-- Node10&#45;&gt;Node8 -->
<g id="edge15" class="edge">
<title>Node10&#45;&gt;Node8</title>
<path fill="none" stroke="midnightblue" d="M673.75,-168.48C636.58,-155.1 561.33,-128.92 496,-112 415.76,-91.21 387.72,-111.88 313,-76 288.25,-64.12 264.91,-42.37 250.55,-27.33"/>
<polygon fill="midnightblue" stroke="midnightblue" points="252.91,-24.72 243.54,-19.76 247.77,-29.48 252.91,-24.72"/>
</g>
<!-- Node11 -->
<g id="node11" class="node">
<title>Node11</title>
<g id="a_node11"><a xlink:title=" ">
<polygon fill="white" stroke="#bfbfbf" points="899.5,-0.5 899.5,-19.5 946.5,-19.5 946.5,-0.5 899.5,-0.5"/>
<text text-anchor="middle" x="923" y="-7.5" font-family="Helvetica,sans-Serif" font-size="10.00">vector</text>
</a>
</g>
</g>
<!-- Node10&#45;&gt;Node11 -->
<g id="edge16" class="edge">
<title>Node10&#45;&gt;Node11</title>
<path fill="none" stroke="midnightblue" d="M734.91,-168.5C781.46,-156.1 859.66,-128.58 904,-76 915,-62.95 919.64,-43.8 921.59,-29.66"/>
<polygon fill="midnightblue" stroke="midnightblue" points="925.08,-29.92 922.65,-19.61 918.12,-29.19 925.08,-29.92"/>
</g>
<!-- Node12 -->
<g id="node12" class="node">
<title>Node12</title>
<g id="a_node12"><a xlink:href="coordinate_2element_8hpp.html" target="_top" xlink:title=" ">
<polygon fill="white" stroke="black" points="618,-112.5 618,-131.5 776,-131.5 776,-112.5 618,-112.5"/>
<text text-anchor="middle" x="697" y="-119.5" font-family="Helvetica,sans-Serif" font-size="10.00">mini/coordinate/element.hpp</text>
</a>
</g>
</g>
<!-- Node10&#45;&gt;Node12 -->
<g id="edge17" class="edge">
<title>Node10&#45;&gt;Node12</title>
<path fill="none" stroke="midnightblue" d="M697,-168.08C697,-161.01 697,-150.86 697,-141.99"/>
<polygon fill="midnightblue" stroke="midnightblue" points="700.5,-141.75 697,-131.75 693.5,-141.75 700.5,-141.75"/>
</g>
<!-- Node12&#45;&gt;Node2 -->
<g id="edge18" class="edge">
<title>Node12&#45;&gt;Node2</title>
<path fill="none" stroke="midnightblue" d="M624.21,-112.47C525.94,-100.96 354.22,-80.85 276.39,-71.73"/>
<polygon fill="midnightblue" stroke="midnightblue" points="276.39,-68.21 266.05,-70.52 275.57,-75.16 276.39,-68.21"/>
</g>
<!-- Node12&#45;&gt;Node4 -->
<g id="edge19" class="edge">
<title>Node12&#45;&gt;Node4</title>
<path fill="none" stroke="midnightblue" d="M776.04,-116.02C858.96,-110.01 993.15,-98.09 1117.63,-76.01"/>
<polygon fill="midnightblue" stroke="midnightblue" points="1118.5,-79.41 1127.72,-74.2 1117.26,-72.52 1118.5,-79.41"/>
</g>
<!-- Node12&#45;&gt;Node5 -->
<g id="edge20" class="edge">
<title>Node12&#45;&gt;Node5</title>
<path fill="none" stroke="midnightblue" d="M645.21,-112.49C605.77,-105.16 550.52,-93.06 504,-76 485.71,-69.29 483.63,-61.69 465,-56 432.6,-46.1 208.55,-22.96 122.53,-14.33"/>
<polygon fill="midnightblue" stroke="midnightblue" points="122.81,-10.84 112.51,-13.33 122.11,-17.8 122.81,-10.84"/>
</g>
<!-- Node12&#45;&gt;Node11 -->
<g id="edge24" class="edge">
<title>Node12&#45;&gt;Node11</title>
<path fill="none" stroke="midnightblue" d="M776.3,-114.81C810.98,-108.94 850.59,-97.64 881,-76 897.38,-64.34 908.97,-44.1 915.76,-29.29"/>
<polygon fill="midnightblue" stroke="midnightblue" points="919.16,-30.24 919.86,-19.67 912.72,-27.5 919.16,-30.24"/>
</g>
<!-- Node13 -->
<g id="node13" class="node">
<title>Node13</title>
<g id="a_node13"><a xlink:title=" ">
<polygon fill="white" stroke="#bfbfbf" points="660,-56.5 660,-75.5 716,-75.5 716,-56.5 660,-56.5"/>
<text text-anchor="middle" x="688" y="-63.5" font-family="Helvetica,sans-Serif" font-size="10.00">numeric</text>
</a>
</g>
</g>
<!-- Node12&#45;&gt;Node13 -->
<g id="edge21" class="edge">
<title>Node12&#45;&gt;Node13</title>
<path fill="none" stroke="midnightblue" d="M695.51,-112.08C694.32,-104.93 692.61,-94.64 691.12,-85.69"/>
<polygon fill="midnightblue" stroke="midnightblue" points="694.55,-85.04 689.46,-75.75 687.65,-86.19 694.55,-85.04"/>
</g>
<!-- Node14 -->
<g id="node14" class="node">
<title>Node14</title>
<g id="a_node14"><a xlink:title=" ">
<polygon fill="white" stroke="#bfbfbf" points="1026.5,-56.5 1026.5,-75.5 1109.5,-75.5 1109.5,-56.5 1026.5,-56.5"/>
<text text-anchor="middle" x="1068" y="-63.5" font-family="Helvetica,sans-Serif" font-size="10.00">initializer_list</text>
</a>
</g>
</g>
<!-- Node12&#45;&gt;Node14 -->
<g id="edge22" class="edge">
<title>Node12&#45;&gt;Node14</title>
<path fill="none" stroke="midnightblue" d="M755.79,-112.44C827.6,-101.99 947.94,-84.48 1016.34,-74.52"/>
<polygon fill="midnightblue" stroke="midnightblue" points="1017.06,-77.95 1026.45,-73.05 1016.05,-71.02 1017.06,-77.95"/>
</g>
<!-- Node15 -->
<g id="node15" class="node">
<title>Node15</title>
<g id="a_node15"><a xlink:title=" ">
<polygon fill="white" stroke="#bfbfbf" points="793,-0.5 793,-19.5 853,-19.5 853,-0.5 793,-0.5"/>
<text text-anchor="middle" x="823" y="-7.5" font-family="Helvetica,sans-Serif" font-size="10.00">iostream</text>
</a>
</g>
</g>
<!-- Node12&#45;&gt;Node15 -->
<g id="edge23" class="edge">
<title>Node12&#45;&gt;Node15</title>
<path fill="none" stroke="midnightblue" d="M758.62,-112.45C800.98,-105.16 851.86,-93.13 865,-76 877.61,-59.57 859.81,-39.36 843.65,-25.88"/>
<polygon fill="midnightblue" stroke="midnightblue" points="845.54,-22.92 835.51,-19.5 841.22,-28.43 845.54,-22.92"/>
</g>
<!-- Node16 -->
<g id="node16" class="node">
<title>Node16</title>
<g id="a_node16"><a xlink:href="algebra_2eigen_8hpp.html" target="_top" xlink:title=" ">
<polygon fill="white" stroke="black" points="512.5,-56.5 512.5,-75.5 641.5,-75.5 641.5,-56.5 512.5,-56.5"/>
<text text-anchor="middle" x="577" y="-63.5" font-family="Helvetica,sans-Serif" font-size="10.00">mini/algebra/eigen.hpp</text>
</a>
</g>
</g>
<!-- Node12&#45;&gt;Node16 -->
<g id="edge25" class="edge">
<title>Node12&#45;&gt;Node16</title>
<path fill="none" stroke="midnightblue" d="M677.99,-112.44C658.41,-103.64 627.69,-89.81 605.27,-79.72"/>
<polygon fill="midnightblue" stroke="midnightblue" points="606.48,-76.43 595.93,-75.52 603.61,-82.81 606.48,-76.43"/>
</g>
<!-- Node19 -->
<g id="node19" class="node">
<title>Node19</title>
<g id="a_node19"><a xlink:href="root_8hpp.html" target="_top" xlink:title=" ">
<polygon fill="white" stroke="black" points="734,-56.5 734,-75.5 856,-75.5 856,-56.5 734,-56.5"/>
<text text-anchor="middle" x="795" y="-63.5" font-family="Helvetica,sans-Serif" font-size="10.00">mini/algebra/root.hpp</text>
</a>
</g>
</g>
<!-- Node12&#45;&gt;Node19 -->
<g id="edge30" class="edge">
<title>Node12&#45;&gt;Node19</title>
<path fill="none" stroke="midnightblue" d="M712.75,-112.32C728.32,-103.74 752.38,-90.49 770.46,-80.52"/>
<polygon fill="midnightblue" stroke="midnightblue" points="772.22,-83.55 779.29,-75.65 768.85,-77.42 772.22,-83.55"/>
</g>
<!-- Node20 -->
<g id="node20" class="node">
<title>Node20</title>
<g id="a_node20"><a xlink:href="index_8hpp.html" target="_top" xlink:title=" ">
<polygon fill="white" stroke="black" points="322,-56.5 322,-75.5 456,-75.5 456,-56.5 322,-56.5"/>
<text text-anchor="middle" x="389" y="-63.5" font-family="Helvetica,sans-Serif" font-size="10.00">mini/constant/index.hpp</text>
</a>
</g>
</g>
<!-- Node12&#45;&gt;Node20 -->
<g id="edge34" class="edge">
<title>Node12&#45;&gt;Node20</title>
<path fill="none" stroke="midnightblue" d="M648.2,-112.44C593.79,-102.9 505.83,-87.48 447.71,-77.29"/>
<polygon fill="midnightblue" stroke="midnightblue" points="448.03,-73.8 437.58,-75.52 446.82,-80.69 448.03,-73.8"/>
</g>
<!-- Node16&#45;&gt;Node3 -->
<g id="edge26" class="edge">
<title>Node16&#45;&gt;Node3</title>
<path fill="none" stroke="midnightblue" d="M641.57,-57.13C644.76,-56.75 647.92,-56.37 651,-56 786.53,-39.76 821.34,-42.32 956,-20 956.1,-19.98 956.2,-19.97 956.3,-19.95"/>
<polygon fill="midnightblue" stroke="midnightblue" points="956.75,-23.43 965.96,-18.19 955.49,-16.54 956.75,-23.43"/>
</g>
<!-- Node16&#45;&gt;Node5 -->
<g id="edge27" class="edge">
<title>Node16&#45;&gt;Node5</title>
<path fill="none" stroke="midnightblue" d="M512.33,-57.61C507.48,-57.06 502.66,-56.52 498,-56 358.56,-40.39 192.32,-22.24 122.49,-14.64"/>
<polygon fill="midnightblue" stroke="midnightblue" points="122.84,-11.16 112.52,-13.56 122.08,-18.12 122.84,-11.16"/>
</g>
<!-- Node17 -->
<g id="node17" class="node">
<title>Node17</title>
<g id="a_node17"><a xlink:title=" ">
<polygon fill="white" stroke="#bfbfbf" points="592.5,-0.5 592.5,-19.5 641.5,-19.5 641.5,-0.5 592.5,-0.5"/>
<text text-anchor="middle" x="617" y="-7.5" font-family="Helvetica,sans-Serif" font-size="10.00">cstdlib</text>
</a>
</g>
</g>
<!-- Node16&#45;&gt;Node17 -->
<g id="edge28" class="edge">
<title>Node16&#45;&gt;Node17</title>
<path fill="none" stroke="midnightblue" d="M583.61,-56.08C589.26,-48.46 597.54,-37.26 604.45,-27.94"/>
<polygon fill="midnightblue" stroke="midnightblue" points="607.38,-29.87 610.52,-19.75 601.75,-25.7 607.38,-29.87"/>
</g>
<!-- Node18 -->
<g id="node18" class="node">
<title>Node18</title>
<g id="a_node18"><a xlink:title=" ">
<polygon fill="white" stroke="#bfbfbf" points="500,-0.5 500,-19.5 574,-19.5 574,-0.5 500,-0.5"/>
<text text-anchor="middle" x="537" y="-7.5" font-family="Helvetica,sans-Serif" font-size="10.00">Eigen/Eigen</text>
</a>
</g>
</g>
<!-- Node16&#45;&gt;Node18 -->
<g id="edge29" class="edge">
<title>Node16&#45;&gt;Node18</title>
<path fill="none" stroke="midnightblue" d="M570.39,-56.08C564.74,-48.46 556.46,-37.26 549.55,-27.94"/>
<polygon fill="midnightblue" stroke="midnightblue" points="552.25,-25.7 543.48,-19.75 546.62,-29.87 552.25,-25.7"/>
</g>
<!-- Node19&#45;&gt;Node8 -->
<g id="edge33" class="edge">
<title>Node19&#45;&gt;Node8</title>
<path fill="none" stroke="midnightblue" d="M733.93,-57.02C730.91,-56.66 727.92,-56.32 725,-56 561.69,-37.99 367.15,-21.6 280.94,-14.59"/>
<polygon fill="midnightblue" stroke="midnightblue" points="280.98,-11.08 270.73,-13.76 280.41,-18.06 280.98,-11.08"/>
</g>
<!-- Node19&#45;&gt;Node11 -->
<g id="edge31" class="edge">
<title>Node19&#45;&gt;Node11</title>
<path fill="none" stroke="midnightblue" d="M815.28,-56.44C836.35,-47.56 869.52,-33.56 893.49,-23.45"/>
<polygon fill="midnightblue" stroke="midnightblue" points="894.96,-26.63 902.81,-19.52 892.24,-20.18 894.96,-26.63"/>
</g>
<!-- Node19&#45;&gt;Node15 -->
<g id="edge32" class="edge">
<title>Node19&#45;&gt;Node15</title>
<path fill="none" stroke="midnightblue" d="M799.62,-56.08C803.46,-48.69 809.02,-37.95 813.76,-28.81"/>
<polygon fill="midnightblue" stroke="midnightblue" points="816.97,-30.24 818.46,-19.75 810.75,-27.02 816.97,-30.24"/>
</g>
<!-- Node21&#45;&gt;Node12 -->
<g id="edge36" class="edge">
<title>Node21&#45;&gt;Node12</title>
<path fill="none" stroke="midnightblue" d="M560.67,-168.44C587.92,-159.36 631.18,-144.94 661.65,-134.78"/>
<polygon fill="midnightblue" stroke="midnightblue" points="663.07,-138 671.45,-131.52 660.86,-131.36 663.07,-138"/>
</g>
<!-- Node21&#45;&gt;Node20 -->
<g id="edge37" class="edge">
<title>Node21&#45;&gt;Node20</title>
<path fill="none" stroke="midnightblue" d="M523.54,-168.37C498.7,-149.65 439.64,-105.15 408.69,-81.83"/>
<polygon fill="midnightblue" stroke="midnightblue" points="410.5,-78.81 400.4,-75.59 406.28,-84.4 410.5,-78.81"/>
</g>
<!-- Node22&#45;&gt;Node2 -->
<g id="edge39" class="edge">
<title>Node22&#45;&gt;Node2</title>
<path fill="none" stroke="midnightblue" d="M157.94,-112.32C172.59,-103.82 195.13,-90.73 212.24,-80.8"/>
<polygon fill="midnightblue" stroke="midnightblue" points="214.2,-83.7 221.1,-75.65 210.69,-77.65 214.2,-83.7"/>
</g>
<!-- Node22&#45;&gt;Node5 -->
<g id="edge40" class="edge">
<title>Node22&#45;&gt;Node5</title>
<path fill="none" stroke="midnightblue" d="M129.45,-112.48C118.12,-104.54 102.63,-91.6 95,-76 87.92,-61.52 86.85,-43.08 87.31,-29.54"/>
<polygon fill="midnightblue" stroke="midnightblue" points="90.8,-29.71 87.94,-19.51 83.82,-29.27 90.8,-29.71"/>
</g>
<!-- Node22&#45;&gt;Node8 -->
<g id="edge41" class="edge">
<title>Node22&#45;&gt;Node8</title>
<path fill="none" stroke="midnightblue" d="M150.28,-112.12C160.6,-99.56 180.1,-75.91 197,-56 205.13,-46.42 214.32,-35.8 221.75,-27.28"/>
<polygon fill="midnightblue" stroke="midnightblue" points="224.53,-29.42 228.47,-19.58 219.26,-24.81 224.53,-29.42"/>
</g>
<!-- Node22&#45;&gt;Node16 -->
<g id="edge43" class="edge">
<title>Node22&#45;&gt;Node16</title>
<path fill="none" stroke="midnightblue" d="M211.77,-112.44C290.96,-102.59 420.61,-86.46 502.24,-76.3"/>
<polygon fill="midnightblue" stroke="midnightblue" points="502.96,-79.74 512.45,-75.03 502.09,-72.79 502.96,-79.74"/>
</g>
<!-- Node23 -->
<g id="node23" class="node">
<title>Node23</title>
<g id="a_node23"><a xlink:title=" ">
<polygon fill="white" stroke="#bfbfbf" points="104.5,-56.5 104.5,-75.5 149.5,-75.5 149.5,-56.5 104.5,-56.5"/>
<text text-anchor="middle" x="127" y="-63.5" font-family="Helvetica,sans-Serif" font-size="10.00">utility</text>
</a>
</g>
</g>
<!-- Node22&#45;&gt;Node23 -->
<g id="edge42" class="edge">
<title>Node22&#45;&gt;Node23</title>
<path fill="none" stroke="midnightblue" d="M140.36,-112.08C138.21,-104.85 135.12,-94.41 132.45,-85.4"/>
<polygon fill="midnightblue" stroke="midnightblue" points="135.79,-84.34 129.59,-75.75 129.08,-86.33 135.79,-84.34"/>
</g>
<!-- Node24&#45;&gt;Node2 -->
<g id="edge45" class="edge">
<title>Node24&#45;&gt;Node2</title>
<path fill="none" stroke="midnightblue" d="M704.47,-230.72C616.63,-226.84 488.81,-216.35 449,-188 418.24,-166.09 440.38,-135.73 411,-112 400.46,-103.49 324.49,-85.98 276.17,-75.49"/>
<polygon fill="midnightblue" stroke="midnightblue" points="276.82,-72.05 266.31,-73.36 275.35,-78.89 276.82,-72.05"/>
</g>
<!-- Node24&#45;&gt;Node4 -->
<g id="edge46" class="edge">
<title>Node24&#45;&gt;Node4</title>
<path fill="none" stroke="midnightblue" d="M832.33,-224.43C864.63,-216.86 910.71,-204.47 949,-188 1020.44,-157.27 1097.63,-106.34 1133.5,-81.51"/>
<polygon fill="midnightblue" stroke="midnightblue" points="1135.9,-84.1 1142.1,-75.51 1131.9,-78.36 1135.9,-84.1"/>
</g>
<!-- Node24&#45;&gt;Node7 -->
<g id="edge49" class="edge">
<title>Node24&#45;&gt;Node7</title>
<path fill="none" stroke="midnightblue" d="M704.2,-230.92C608.49,-227.19 462.72,-216.82 416,-188 398.6,-177.26 386.76,-156.55 379.97,-141.38"/>
<polygon fill="midnightblue" stroke="midnightblue" points="383.13,-139.87 376.08,-131.96 376.66,-142.54 383.13,-139.87"/>
</g>
<!-- Node24&#45;&gt;Node10 -->
<g id="edge52" class="edge">
<title>Node24&#45;&gt;Node10</title>
<path fill="none" stroke="midnightblue" d="M776.74,-224.32C761.78,-215.82 738.75,-202.73 721.27,-192.8"/>
<polygon fill="midnightblue" stroke="midnightblue" points="722.65,-189.55 712.23,-187.65 719.19,-195.64 722.65,-189.55"/>
</g>
<!-- Node24&#45;&gt;Node11 -->
<g id="edge50" class="edge">
<title>Node24&#45;&gt;Node11</title>
<path fill="none" stroke="midnightblue" d="M879.65,-227.84C976.07,-216.79 1125.74,-182.39 1189,-76 1224.02,-17.09 1209.08,-72.77 957,-20 956.9,-19.98 956.79,-19.96 956.69,-19.93"/>
<polygon fill="midnightblue" stroke="midnightblue" points="957.24,-16.47 946.7,-17.61 955.65,-23.29 957.24,-16.47"/>
</g>
<!-- Node24&#45;&gt;Node12 -->
<g id="edge51" class="edge">
<title>Node24&#45;&gt;Node12</title>
<path fill="none" stroke="midnightblue" d="M791.44,-224.08C790.19,-210.62 786.12,-184.9 773,-168 762.04,-153.89 745.32,-143.31 730.35,-135.96"/>
<polygon fill="midnightblue" stroke="midnightblue" points="731.39,-132.58 720.85,-131.59 728.47,-138.95 731.39,-132.58"/>
</g>
<!-- Node24&#45;&gt;Node14 -->
<g id="edge48" class="edge">
<title>Node24&#45;&gt;Node14</title>
<path fill="none" stroke="midnightblue" d="M820.11,-224.44C864.06,-210.16 950.37,-178.37 1012,-132 1029.97,-118.48 1046.21,-98.31 1056.52,-84.03"/>
<polygon fill="midnightblue" stroke="midnightblue" points="1059.54,-85.82 1062.4,-75.62 1053.8,-81.81 1059.54,-85.82"/>
</g>
<!-- Node25 -->
<g id="node25" class="node">
<title>Node25</title>
<g id="a_node25"><a xlink:title=" ">
<polygon fill="white" stroke="#bfbfbf" points="820,-168.5 820,-187.5 862,-187.5 862,-168.5 820,-168.5"/>
<text text-anchor="middle" x="841" y="-175.5" font-family="Helvetica,sans-Serif" font-size="10.00">array</text>
</a>
</g>
</g>
<!-- Node24&#45;&gt;Node25 -->
<g id="edge47" class="edge">
<title>Node24&#45;&gt;Node25</title>
<path fill="none" stroke="midnightblue" d="M800.09,-224.08C807.16,-216.3 817.59,-204.8 826.15,-195.37"/>
<polygon fill="midnightblue" stroke="midnightblue" points="828.93,-197.51 833.06,-187.75 823.75,-192.8 828.93,-197.51"/>
</g>
</g>
</svg>
