<?xml version="1.0" encoding="UTF-8" standalone="no"?>
<!DOCTYPE svg PUBLIC "-//W3C//DTD SVG 1.1//EN"
 "http://www.w3.org/Graphics/SVG/1.1/DTD/svg11.dtd">
<!-- Generated by graphviz version 2.43.0 (0)
 -->
<!-- Title: include/mini/integrator/face.hpp Pages: 1 -->
<svg width="1148pt" height="263pt"
 viewBox="0.00 0.00 1147.75 263.00" xmlns="http://www.w3.org/2000/svg" xmlns:xlink="http://www.w3.org/1999/xlink">
<g id="graph0" class="graph" transform="scale(1 1) rotate(0) translate(4 259)">
<title>include/mini/integrator/face.hpp</title>
<polygon fill="white" stroke="transparent" points="-4,4 -4,-259 1143.75,-259 1143.75,4 -4,4"/>
<!-- Node1 -->
<g id="node1" class="node">
<title>Node1</title>
<g id="a_node1"><a xlink:title=" ">
<polygon fill="#bfbfbf" stroke="black" points="436,-224.5 436,-254.5 564,-254.5 564,-224.5 436,-224.5"/>
<text text-anchor="start" x="444" y="-242.5" font-family="Helvetica,sans-Serif" font-size="10.00">include/mini/integrator</text>
<text text-anchor="middle" x="500" y="-231.5" font-family="Helvetica,sans-Serif" font-size="10.00">/face.hpp</text>
</a>
</g>
</g>
<!-- Node2 -->
<g id="node2" class="node">
<title>Node2</title>
<g id="a_node2"><a xlink:title=" ">
<polygon fill="white" stroke="#bfbfbf" points="339,-56.5 339,-75.5 399,-75.5 399,-56.5 339,-56.5"/>
<text text-anchor="middle" x="369" y="-63.5" font-family="Helvetica,sans-Serif" font-size="10.00">concepts</text>
</a>
</g>
</g>
<!-- Node1&#45;&gt;Node2 -->
<g id="edge1" class="edge">
<title>Node1&#45;&gt;Node2</title>
<path fill="none" stroke="midnightblue" d="M469.89,-224.43C453.96,-215.76 435.06,-203.36 422,-188 395.6,-156.95 380.32,-110.7 373.43,-85.32"/>
<polygon fill="midnightblue" stroke="midnightblue" points="376.8,-84.35 370.92,-75.54 370.02,-86.09 376.8,-84.35"/>
</g>
<!-- Node3 -->
<g id="node3" class="node">
<title>Node3</title>
<g id="a_node3"><a xlink:title=" ">
<polygon fill="white" stroke="#bfbfbf" points="974,-112.5 974,-131.5 1032,-131.5 1032,-112.5 974,-112.5"/>
<text text-anchor="middle" x="1003" y="-119.5" font-family="Helvetica,sans-Serif" font-size="10.00">memory</text>
</a>
</g>
</g>
<!-- Node1&#45;&gt;Node3 -->
<g id="edge2" class="edge">
<title>Node1&#45;&gt;Node3</title>
<path fill="none" stroke="midnightblue" d="M521.94,-224.44C552.68,-204.87 605.95,-171.39 616,-168 761.67,-118.89 808.13,-155.78 960,-132 961.27,-131.8 962.56,-131.59 963.86,-131.37"/>
<polygon fill="midnightblue" stroke="midnightblue" points="964.73,-134.77 973.93,-129.5 963.46,-127.88 964.73,-134.77"/>
</g>
<!-- Node4 -->
<g id="node4" class="node">
<title>Node4</title>
<g id="a_node4"><a xlink:title=" ">
<polygon fill="white" stroke="#bfbfbf" points="52.5,-56.5 52.5,-75.5 97.5,-75.5 97.5,-56.5 52.5,-56.5"/>
<text text-anchor="middle" x="75" y="-63.5" font-family="Helvetica,sans-Serif" font-size="10.00">utility</text>
</a>
</g>
</g>
<!-- Node1&#45;&gt;Node4 -->
<g id="edge3" class="edge">
<title>Node1&#45;&gt;Node4</title>
<path fill="none" stroke="midnightblue" d="M446.93,-224.44C383.66,-206.76 275.47,-173.62 188,-132 155.28,-116.43 119.28,-94.91 96.91,-80.97"/>
<polygon fill="midnightblue" stroke="midnightblue" points="98.53,-77.86 88.2,-75.5 94.81,-83.78 98.53,-77.86"/>
</g>
<!-- Node5 -->
<g id="node5" class="node">
<title>Node5</title>
<g id="a_node5"><a xlink:title=" ">
<polygon fill="white" stroke="#bfbfbf" points="922.5,-0.5 922.5,-19.5 969.5,-19.5 969.5,-0.5 922.5,-0.5"/>
<text text-anchor="middle" x="946" y="-7.5" font-family="Helvetica,sans-Serif" font-size="10.00">vector</text>
</a>
</g>
</g>
<!-- Node1&#45;&gt;Node5 -->
<g id="edge4" class="edge">
<title>Node1&#45;&gt;Node5</title>
<path fill="none" stroke="midnightblue" d="M564.11,-233.76C715.07,-220.95 1084.19,-179.34 1136,-76 1139.98,-68.05 1141.51,-62.97 1136,-56 1116.9,-31.85 1029.22,-19.31 979.92,-14.07"/>
<polygon fill="midnightblue" stroke="midnightblue" points="980.03,-10.56 969.73,-13.03 979.32,-17.53 980.03,-10.56"/>
</g>
<!-- Node6 -->
<g id="node6" class="node">
<title>Node6</title>
<g id="a_node6"><a xlink:href="coordinate_2face_8hpp.html" target="_top" xlink:title=" ">
<polygon fill="white" stroke="black" points="431,-168.5 431,-187.5 569,-187.5 569,-168.5 431,-168.5"/>
<text text-anchor="middle" x="500" y="-175.5" font-family="Helvetica,sans-Serif" font-size="10.00">mini/coordinate/face.hpp</text>
</a>
</g>
</g>
<!-- Node1&#45;&gt;Node6 -->
<g id="edge5" class="edge">
<title>Node1&#45;&gt;Node6</title>
<path fill="none" stroke="midnightblue" d="M500,-224.4C500,-216.47 500,-206.46 500,-197.86"/>
<polygon fill="midnightblue" stroke="midnightblue" points="503.5,-197.66 500,-187.66 496.5,-197.66 503.5,-197.66"/>
</g>
<!-- Node21 -->
<g id="node21" class="node">
<title>Node21</title>
<g id="a_node21"><a xlink:href="integrator_2element_8hpp.html" target="_top" xlink:title=" ">
<polygon fill="white" stroke="black" points="625,-168.5 625,-187.5 779,-187.5 779,-168.5 625,-168.5"/>
<text text-anchor="middle" x="702" y="-175.5" font-family="Helvetica,sans-Serif" font-size="10.00">mini/integrator/element.hpp</text>
</a>
</g>
</g>
<!-- Node1&#45;&gt;Node21 -->
<g id="edge30" class="edge">
<title>Node1&#45;&gt;Node21</title>
<path fill="none" stroke="midnightblue" d="M547.62,-224.47C582.92,-214.08 630.44,-200.08 663.39,-190.37"/>
<polygon fill="midnightblue" stroke="midnightblue" points="664.52,-193.69 673.12,-187.51 662.54,-186.97 664.52,-193.69"/>
</g>
<!-- Node22 -->
<g id="node22" class="node">
<title>Node22</title>
<g id="a_node22"><a xlink:href="function_8hpp.html" target="_top" xlink:title=" ">
<polygon fill="white" stroke="black" points="197.5,-112.5 197.5,-131.5 350.5,-131.5 350.5,-112.5 197.5,-112.5"/>
<text text-anchor="middle" x="274" y="-119.5" font-family="Helvetica,sans-Serif" font-size="10.00">mini/integrator/function.hpp</text>
</a>
</g>
</g>
<!-- Node1&#45;&gt;Node22 -->
<g id="edge33" class="edge">
<title>Node1&#45;&gt;Node22</title>
<path fill="none" stroke="midnightblue" d="M456.78,-224.46C430.97,-215.41 397.88,-202.61 370,-188 341.84,-173.24 311.87,-151.94 293.06,-137.8"/>
<polygon fill="midnightblue" stroke="midnightblue" points="295.09,-134.94 285.01,-131.67 290.85,-140.51 295.09,-134.94"/>
</g>
<!-- Node6&#45;&gt;Node2 -->
<g id="edge6" class="edge">
<title>Node6&#45;&gt;Node2</title>
<path fill="none" stroke="midnightblue" d="M489.72,-168.37C467.53,-149.73 414.89,-105.53 387.02,-82.13"/>
<polygon fill="midnightblue" stroke="midnightblue" points="389.14,-79.34 379.23,-75.59 384.64,-84.7 389.14,-79.34"/>
</g>
<!-- Node6&#45;&gt;Node3 -->
<g id="edge9" class="edge">
<title>Node6&#45;&gt;Node3</title>
<path fill="none" stroke="midnightblue" d="M569.28,-169.42C573.93,-168.93 578.53,-168.46 583,-168 750.45,-150.93 793.59,-157.28 960,-132 961.27,-131.81 962.56,-131.6 963.87,-131.38"/>
<polygon fill="midnightblue" stroke="midnightblue" points="964.73,-134.78 973.94,-129.54 963.47,-127.9 964.73,-134.78"/>
</g>
<!-- Node6&#45;&gt;Node5 -->
<g id="edge11" class="edge">
<title>Node6&#45;&gt;Node5</title>
<path fill="none" stroke="midnightblue" d="M560.51,-168.49C629.05,-158.6 736.36,-142.34 776,-132 846.47,-113.62 881.34,-130.19 930,-76 941.27,-63.45 944.91,-44.22 945.94,-29.94"/>
<polygon fill="midnightblue" stroke="midnightblue" points="949.44,-29.88 946.31,-19.76 942.45,-29.62 949.44,-29.88"/>
</g>
<!-- Node7 -->
<g id="node7" class="node">
<title>Node7</title>
<g id="a_node7"><a xlink:title=" ">
<polygon fill="white" stroke="#bfbfbf" points="0,-0.5 0,-19.5 64,-19.5 64,-0.5 0,-0.5"/>
<text text-anchor="middle" x="32" y="-7.5" font-family="Helvetica,sans-Serif" font-size="10.00">algorithm</text>
</a>
</g>
</g>
<!-- Node6&#45;&gt;Node7 -->
<g id="edge7" class="edge">
<title>Node6&#45;&gt;Node7</title>
<path fill="none" stroke="midnightblue" d="M430.95,-171.54C367.13,-165.44 270.06,-153.47 188,-132 121.17,-114.51 86.7,-129.5 43,-76 32.49,-63.13 30.36,-43.95 30.49,-29.76"/>
<polygon fill="midnightblue" stroke="midnightblue" points="33.99,-29.81 30.96,-19.66 27,-29.49 33.99,-29.81"/>
</g>
<!-- Node8 -->
<g id="node8" class="node">
<title>Node8</title>
<g id="a_node8"><a xlink:title=" ">
<polygon fill="white" stroke="#bfbfbf" points="493,-112.5 493,-131.5 535,-131.5 535,-112.5 493,-112.5"/>
<text text-anchor="middle" x="514" y="-119.5" font-family="Helvetica,sans-Serif" font-size="10.00">array</text>
</a>
</g>
</g>
<!-- Node6&#45;&gt;Node8 -->
<g id="edge8" class="edge">
<title>Node6&#45;&gt;Node8</title>
<path fill="none" stroke="midnightblue" d="M502.31,-168.08C504.17,-160.93 506.84,-150.64 509.15,-141.69"/>
<polygon fill="midnightblue" stroke="midnightblue" points="512.61,-142.31 511.73,-131.75 505.83,-140.55 512.61,-142.31"/>
</g>
<!-- Node9 -->
<g id="node9" class="node">
<title>Node9</title>
<g id="a_node9"><a xlink:title=" ">
<polygon fill="white" stroke="#bfbfbf" points="430.5,-0.5 430.5,-19.5 499.5,-19.5 499.5,-0.5 430.5,-0.5"/>
<text text-anchor="middle" x="465" y="-7.5" font-family="Helvetica,sans-Serif" font-size="10.00">type_traits</text>
</a>
</g>
</g>
<!-- Node6&#45;&gt;Node9 -->
<g id="edge10" class="edge">
<title>Node6&#45;&gt;Node9</title>
<path fill="none" stroke="midnightblue" d="M496.32,-168.19C492.7,-159.22 487.27,-144.86 484,-132 474.96,-96.4 469.47,-53.75 466.85,-29.78"/>
<polygon fill="midnightblue" stroke="midnightblue" points="470.31,-29.2 465.8,-19.62 463.35,-29.93 470.31,-29.2"/>
</g>
<!-- Node10 -->
<g id="node10" class="node">
<title>Node10</title>
<g id="a_node10"><a xlink:href="coordinate_2element_8hpp.html" target="_top" xlink:title=" ">
<polygon fill="white" stroke="black" points="609,-112.5 609,-131.5 767,-131.5 767,-112.5 609,-112.5"/>
<text text-anchor="middle" x="688" y="-119.5" font-family="Helvetica,sans-Serif" font-size="10.00">mini/coordinate/element.hpp</text>
</a>
</g>
</g>
<!-- Node6&#45;&gt;Node10 -->
<g id="edge12" class="edge">
<title>Node6&#45;&gt;Node10</title>
<path fill="none" stroke="midnightblue" d="M529.79,-168.44C561.83,-159.24 612.93,-144.56 648.35,-134.39"/>
<polygon fill="midnightblue" stroke="midnightblue" points="649.71,-137.64 658.35,-131.52 647.77,-130.91 649.71,-137.64"/>
</g>
<!-- Node10&#45;&gt;Node2 -->
<g id="edge13" class="edge">
<title>Node10&#45;&gt;Node2</title>
<path fill="none" stroke="midnightblue" d="M631.8,-112.47C576.14,-103.86 488.53,-89.9 413,-76 411.75,-75.77 410.48,-75.53 409.2,-75.29"/>
<polygon fill="midnightblue" stroke="midnightblue" points="409.75,-71.83 399.27,-73.35 408.41,-78.7 409.75,-71.83"/>
</g>
<!-- Node10&#45;&gt;Node5 -->
<g id="edge19" class="edge">
<title>Node10&#45;&gt;Node5</title>
<path fill="none" stroke="midnightblue" d="M761.58,-112.47C816.1,-104.97 884.79,-92.63 908,-76 923.9,-64.6 934.2,-44.32 940.01,-29.43"/>
<polygon fill="midnightblue" stroke="midnightblue" points="943.4,-30.34 943.46,-19.75 936.81,-27.99 943.4,-30.34"/>
</g>
<!-- Node11 -->
<g id="node11" class="node">
<title>Node11</title>
<g id="a_node11"><a xlink:title=" ">
<polygon fill="white" stroke="#bfbfbf" points="847,-56.5 847,-75.5 899,-75.5 899,-56.5 847,-56.5"/>
<text text-anchor="middle" x="873" y="-63.5" font-family="Helvetica,sans-Serif" font-size="10.00">cassert</text>
</a>
</g>
</g>
<!-- Node10&#45;&gt;Node11 -->
<g id="edge14" class="edge">
<title>Node10&#45;&gt;Node11</title>
<path fill="none" stroke="midnightblue" d="M717.31,-112.44C749.77,-102.97 802.11,-87.69 837.02,-77.5"/>
<polygon fill="midnightblue" stroke="midnightblue" points="838.2,-80.81 846.81,-74.64 836.23,-74.09 838.2,-80.81"/>
</g>
<!-- Node12 -->
<g id="node12" class="node">
<title>Node12</title>
<g id="a_node12"><a xlink:title=" ">
<polygon fill="white" stroke="#bfbfbf" points="249.5,-0.5 249.5,-19.5 296.5,-19.5 296.5,-0.5 249.5,-0.5"/>
<text text-anchor="middle" x="273" y="-7.5" font-family="Helvetica,sans-Serif" font-size="10.00">cmath</text>
</a>
</g>
</g>
<!-- Node10&#45;&gt;Node12 -->
<g id="edge15" class="edge">
<title>Node10&#45;&gt;Node12</title>
<path fill="none" stroke="midnightblue" d="M654.62,-112.48C619.57,-103.5 562.87,-88.91 514,-76 439.8,-56.4 352.92,-32.81 306.42,-20.13"/>
<polygon fill="midnightblue" stroke="midnightblue" points="307.15,-16.7 296.58,-17.45 305.31,-23.46 307.15,-16.7"/>
</g>
<!-- Node13 -->
<g id="node13" class="node">
<title>Node13</title>
<g id="a_node13"><a xlink:title=" ">
<polygon fill="white" stroke="#bfbfbf" points="671,-56.5 671,-75.5 727,-75.5 727,-56.5 671,-56.5"/>
<text text-anchor="middle" x="699" y="-63.5" font-family="Helvetica,sans-Serif" font-size="10.00">numeric</text>
</a>
</g>
</g>
<!-- Node10&#45;&gt;Node13 -->
<g id="edge16" class="edge">
<title>Node10&#45;&gt;Node13</title>
<path fill="none" stroke="midnightblue" d="M689.82,-112.08C691.27,-104.93 693.37,-94.64 695.19,-85.69"/>
<polygon fill="midnightblue" stroke="midnightblue" points="698.65,-86.25 697.22,-75.75 691.79,-84.85 698.65,-86.25"/>
</g>
<!-- Node14 -->
<g id="node14" class="node">
<title>Node14</title>
<g id="a_node14"><a xlink:title=" ">
<polygon fill="white" stroke="#bfbfbf" points="745.5,-56.5 745.5,-75.5 828.5,-75.5 828.5,-56.5 745.5,-56.5"/>
<text text-anchor="middle" x="787" y="-63.5" font-family="Helvetica,sans-Serif" font-size="10.00">initializer_list</text>
</a>
</g>
</g>
<!-- Node10&#45;&gt;Node14 -->
<g id="edge17" class="edge">
<title>Node10&#45;&gt;Node14</title>
<path fill="none" stroke="midnightblue" d="M703.91,-112.32C719.64,-103.74 743.94,-90.49 762.21,-80.52"/>
<polygon fill="midnightblue" stroke="midnightblue" points="764.03,-83.52 771.13,-75.65 760.68,-77.37 764.03,-83.52"/>
</g>
<!-- Node15 -->
<g id="node15" class="node">
<title>Node15</title>
<g id="a_node15"><a xlink:title=" ">
<polygon fill="white" stroke="#bfbfbf" points="540,-0.5 540,-19.5 600,-19.5 600,-0.5 540,-0.5"/>
<text text-anchor="middle" x="570" y="-7.5" font-family="Helvetica,sans-Serif" font-size="10.00">iostream</text>
</a>
</g>
</g>
<!-- Node10&#45;&gt;Node15 -->
<g id="edge18" class="edge">
<title>Node10&#45;&gt;Node15</title>
<path fill="none" stroke="midnightblue" d="M627.54,-112.43C585.6,-105.1 535.02,-93.02 522,-76 508.89,-58.86 528.87,-38.85 546.9,-25.61"/>
<polygon fill="midnightblue" stroke="midnightblue" points="549.21,-28.26 555.44,-19.69 545.23,-22.51 549.21,-28.26"/>
</g>
<!-- Node16 -->
<g id="node16" class="node">
<title>Node16</title>
<g id="a_node16"><a xlink:href="algebra_2eigen_8hpp.html" target="_top" xlink:title=" ">
<polygon fill="white" stroke="black" points="115.5,-56.5 115.5,-75.5 244.5,-75.5 244.5,-56.5 115.5,-56.5"/>
<text text-anchor="middle" x="180" y="-63.5" font-family="Helvetica,sans-Serif" font-size="10.00">mini/algebra/eigen.hpp</text>
</a>
</g>
</g>
<!-- Node10&#45;&gt;Node16 -->
<g id="edge20" class="edge">
<title>Node10&#45;&gt;Node16</title>
<path fill="none" stroke="midnightblue" d="M608.9,-112.59C512.17,-102.31 349.66,-85.03 254.89,-74.96"/>
<polygon fill="midnightblue" stroke="midnightblue" points="255.12,-71.47 244.8,-73.89 254.38,-78.43 255.12,-71.47"/>
</g>
<!-- Node19 -->
<g id="node19" class="node">
<title>Node19</title>
<g id="a_node19"><a xlink:href="root_8hpp.html" target="_top" xlink:title=" ">
<polygon fill="white" stroke="black" points="531,-56.5 531,-75.5 653,-75.5 653,-56.5 531,-56.5"/>
<text text-anchor="middle" x="592" y="-63.5" font-family="Helvetica,sans-Serif" font-size="10.00">mini/algebra/root.hpp</text>
</a>
</g>
</g>
<!-- Node10&#45;&gt;Node19 -->
<g id="edge25" class="edge">
<title>Node10&#45;&gt;Node19</title>
<path fill="none" stroke="midnightblue" d="M672.58,-112.32C657.46,-103.82 634.18,-90.73 616.53,-80.8"/>
<polygon fill="midnightblue" stroke="midnightblue" points="617.82,-77.51 607.39,-75.65 614.39,-83.61 617.82,-77.51"/>
</g>
<!-- Node20 -->
<g id="node20" class="node">
<title>Node20</title>
<g id="a_node20"><a xlink:href="index_8hpp.html" target="_top" xlink:title=" ">
<polygon fill="white" stroke="black" points="993,-56.5 993,-75.5 1127,-75.5 1127,-56.5 993,-56.5"/>
<text text-anchor="middle" x="1060" y="-63.5" font-family="Helvetica,sans-Serif" font-size="10.00">mini/constant/index.hpp</text>
</a>
</g>
</g>
<!-- Node10&#45;&gt;Node20 -->
<g id="edge29" class="edge">
<title>Node10&#45;&gt;Node20</title>
<path fill="none" stroke="midnightblue" d="M746.94,-112.44C813.34,-102.81 921.1,-87.16 991.26,-76.98"/>
<polygon fill="midnightblue" stroke="midnightblue" points="991.94,-80.42 1001.33,-75.52 990.93,-73.49 991.94,-80.42"/>
</g>
<!-- Node16&#45;&gt;Node7 -->
<g id="edge21" class="edge">
<title>Node16&#45;&gt;Node7</title>
<path fill="none" stroke="midnightblue" d="M156.55,-56.44C131.87,-47.44 92.81,-33.19 65.02,-23.05"/>
<polygon fill="midnightblue" stroke="midnightblue" points="65.94,-19.66 55.34,-19.52 63.54,-26.23 65.94,-19.66"/>
</g>
<!-- Node16&#45;&gt;Node12 -->
<g id="edge22" class="edge">
<title>Node16&#45;&gt;Node12</title>
<path fill="none" stroke="midnightblue" d="M194.94,-56.32C209.59,-47.82 232.13,-34.73 249.24,-24.8"/>
<polygon fill="midnightblue" stroke="midnightblue" points="251.2,-27.7 258.1,-19.65 247.69,-21.65 251.2,-27.7"/>
</g>
<!-- Node17 -->
<g id="node17" class="node">
<title>Node17</title>
<g id="a_node17"><a xlink:title=" ">
<polygon fill="white" stroke="#bfbfbf" points="82.5,-0.5 82.5,-19.5 131.5,-19.5 131.5,-0.5 82.5,-0.5"/>
<text text-anchor="middle" x="107" y="-7.5" font-family="Helvetica,sans-Serif" font-size="10.00">cstdlib</text>
</a>
</g>
</g>
<!-- Node16&#45;&gt;Node17 -->
<g id="edge23" class="edge">
<title>Node16&#45;&gt;Node17</title>
<path fill="none" stroke="midnightblue" d="M168.27,-56.32C157.16,-48.11 140.26,-35.6 127.02,-25.81"/>
<polygon fill="midnightblue" stroke="midnightblue" points="129.06,-22.97 118.94,-19.83 124.9,-28.59 129.06,-22.97"/>
</g>
<!-- Node18 -->
<g id="node18" class="node">
<title>Node18</title>
<g id="a_node18"><a xlink:title=" ">
<polygon fill="white" stroke="#bfbfbf" points="150,-0.5 150,-19.5 224,-19.5 224,-0.5 150,-0.5"/>
<text text-anchor="middle" x="187" y="-7.5" font-family="Helvetica,sans-Serif" font-size="10.00">Eigen/Eigen</text>
</a>
</g>
</g>
<!-- Node16&#45;&gt;Node18 -->
<g id="edge24" class="edge">
<title>Node16&#45;&gt;Node18</title>
<path fill="none" stroke="midnightblue" d="M181.16,-56.08C182.08,-48.93 183.42,-38.64 184.58,-29.69"/>
<polygon fill="midnightblue" stroke="midnightblue" points="188.05,-30.12 185.87,-19.75 181.11,-29.22 188.05,-30.12"/>
</g>
<!-- Node19&#45;&gt;Node5 -->
<g id="edge26" class="edge">
<title>Node19&#45;&gt;Node5</title>
<path fill="none" stroke="midnightblue" d="M648.09,-56.44C722.39,-45.11 851.15,-25.47 912.12,-16.17"/>
<polygon fill="midnightblue" stroke="midnightblue" points="912.98,-19.58 922.34,-14.61 911.93,-12.66 912.98,-19.58"/>
</g>
<!-- Node19&#45;&gt;Node9 -->
<g id="edge28" class="edge">
<title>Node19&#45;&gt;Node9</title>
<path fill="none" stroke="midnightblue" d="M571.88,-56.44C550.98,-47.56 518.07,-33.56 494.28,-23.45"/>
<polygon fill="midnightblue" stroke="midnightblue" points="495.6,-20.21 485.03,-19.52 492.86,-26.65 495.6,-20.21"/>
</g>
<!-- Node19&#45;&gt;Node15 -->
<g id="edge27" class="edge">
<title>Node19&#45;&gt;Node15</title>
<path fill="none" stroke="midnightblue" d="M588.37,-56.08C585.39,-48.77 581.07,-38.18 577.38,-29.1"/>
<polygon fill="midnightblue" stroke="midnightblue" points="580.58,-27.69 573.57,-19.75 574.1,-30.33 580.58,-27.69"/>
</g>
<!-- Node21&#45;&gt;Node10 -->
<g id="edge31" class="edge">
<title>Node21&#45;&gt;Node10</title>
<path fill="none" stroke="midnightblue" d="M699.69,-168.08C697.83,-160.93 695.16,-150.64 692.85,-141.69"/>
<polygon fill="midnightblue" stroke="midnightblue" points="696.17,-140.55 690.27,-131.75 689.39,-142.31 696.17,-140.55"/>
</g>
<!-- Node21&#45;&gt;Node20 -->
<g id="edge32" class="edge">
<title>Node21&#45;&gt;Node20</title>
<path fill="none" stroke="midnightblue" d="M779.27,-176.27C866.98,-173.84 1002.87,-164.72 1041,-132 1054.22,-120.65 1058.5,-100.66 1059.76,-85.83"/>
<polygon fill="midnightblue" stroke="midnightblue" points="1063.27,-85.88 1060.24,-75.73 1056.27,-85.55 1063.27,-85.88"/>
</g>
<!-- Node22&#45;&gt;Node2 -->
<g id="edge34" class="edge">
<title>Node22&#45;&gt;Node2</title>
<path fill="none" stroke="midnightblue" d="M289.26,-112.32C304.22,-103.82 327.25,-90.73 344.73,-80.8"/>
<polygon fill="midnightblue" stroke="midnightblue" points="346.81,-83.64 353.77,-75.65 343.35,-77.55 346.81,-83.64"/>
</g>
<!-- Node22&#45;&gt;Node4 -->
<g id="edge37" class="edge">
<title>Node22&#45;&gt;Node4</title>
<path fill="none" stroke="midnightblue" d="M241.42,-112.49C209.52,-104.11 159.29,-90.78 107.38,-76.35"/>
<polygon fill="midnightblue" stroke="midnightblue" points="108.24,-72.96 97.67,-73.64 106.36,-79.7 108.24,-72.96"/>
</g>
<!-- Node22&#45;&gt;Node9 -->
<g id="edge36" class="edge">
<title>Node22&#45;&gt;Node9</title>
<path fill="none" stroke="midnightblue" d="M279.4,-112.09C288.27,-98.17 307.24,-71.26 330,-56 357.32,-37.68 392.74,-26.24 420.45,-19.49"/>
<polygon fill="midnightblue" stroke="midnightblue" points="421.32,-22.88 430.27,-17.2 419.74,-16.06 421.32,-22.88"/>
</g>
<!-- Node22&#45;&gt;Node12 -->
<g id="edge35" class="edge">
<title>Node22&#45;&gt;Node12</title>
<path fill="none" stroke="midnightblue" d="M273.92,-112.37C273.76,-94.62 273.39,-53.67 273.17,-29.6"/>
<polygon fill="midnightblue" stroke="midnightblue" points="276.67,-29.56 273.08,-19.59 269.67,-29.62 276.67,-29.56"/>
</g>
<!-- Node22&#45;&gt;Node16 -->
<g id="edge38" class="edge">
<title>Node22&#45;&gt;Node16</title>
<path fill="none" stroke="midnightblue" d="M258.9,-112.32C244.1,-103.82 221.31,-90.73 204.02,-80.8"/>
<polygon fill="midnightblue" stroke="midnightblue" points="205.48,-77.6 195.07,-75.65 201.99,-83.67 205.48,-77.6"/>
</g>
</g>
</svg>
