<?xml version="1.0" encoding="UTF-8" standalone="no"?>
<!DOCTYPE svg PUBLIC "-//W3C//DTD SVG 1.1//EN"
 "http://www.w3.org/Graphics/SVG/1.1/DTD/svg11.dtd">
<!-- Generated by graphviz version 2.43.0 (0)
 -->
<!-- Title: include/mini/integrator/wedge.hpp Pages: 1 -->
<svg width="1914pt" height="375pt"
 viewBox="0.00 0.00 1914.00 375.00" xmlns="http://www.w3.org/2000/svg" xmlns:xlink="http://www.w3.org/1999/xlink">
<g id="graph0" class="graph" transform="scale(1 1) rotate(0) translate(4 371)">
<title>include/mini/integrator/wedge.hpp</title>
<polygon fill="white" stroke="transparent" points="-4,4 -4,-371 1910,-371 1910,4 -4,4"/>
<!-- Node1 -->
<g id="node1" class="node">
<title>Node1</title>
<g id="a_node1"><a xlink:title=" ">
<polygon fill="#bfbfbf" stroke="black" points="364,-336.5 364,-366.5 492,-366.5 492,-336.5 364,-336.5"/>
<text text-anchor="start" x="372" y="-354.5" font-family="Helvetica,sans-Serif" font-size="10.00">include/mini/integrator</text>
<text text-anchor="middle" x="428" y="-343.5" font-family="Helvetica,sans-Serif" font-size="10.00">/wedge.hpp</text>
</a>
</g>
</g>
<!-- Node2 -->
<g id="node2" class="node">
<title>Node2</title>
<g id="a_node2"><a xlink:title=" ">
<polygon fill="white" stroke="#bfbfbf" points="617,-56.5 617,-75.5 677,-75.5 677,-56.5 617,-56.5"/>
<text text-anchor="middle" x="647" y="-63.5" font-family="Helvetica,sans-Serif" font-size="10.00">concepts</text>
</a>
</g>
</g>
<!-- Node1&#45;&gt;Node2 -->
<g id="edge1" class="edge">
<title>Node1&#45;&gt;Node2</title>
<path fill="none" stroke="midnightblue" d="M387.69,-336.34C334.87,-315.45 252.54,-273.46 285,-224 304.41,-194.42 528.2,-110.35 613.9,-78.99"/>
<polygon fill="midnightblue" stroke="midnightblue" points="615.21,-82.24 623.4,-75.52 612.81,-75.66 615.21,-82.24"/>
</g>
<!-- Node3 -->
<g id="node3" class="node">
<title>Node3</title>
<g id="a_node3"><a xlink:title=" ">
<polygon fill="white" stroke="#bfbfbf" points="82,-0.5 82,-19.5 146,-19.5 146,-0.5 82,-0.5"/>
<text text-anchor="middle" x="114" y="-7.5" font-family="Helvetica,sans-Serif" font-size="10.00">algorithm</text>
</a>
</g>
</g>
<!-- Node1&#45;&gt;Node3 -->
<g id="edge2" class="edge">
<title>Node1&#45;&gt;Node3</title>
<path fill="none" stroke="midnightblue" d="M363.99,-345.69C276.63,-338.4 125.2,-322.91 75,-300 34.87,-281.69 0,-279.11 0,-235 0,-235 0,-235 0,-121 0,-74.11 50.55,-40.89 84.33,-23.93"/>
<polygon fill="midnightblue" stroke="midnightblue" points="85.87,-27.07 93.36,-19.58 82.83,-20.77 85.87,-27.07"/>
</g>
<!-- Node4 -->
<g id="node4" class="node">
<title>Node4</title>
<g id="a_node4"><a xlink:title=" ">
<polygon fill="white" stroke="#bfbfbf" points="1820,-56.5 1820,-75.5 1872,-75.5 1872,-56.5 1820,-56.5"/>
<text text-anchor="middle" x="1846" y="-63.5" font-family="Helvetica,sans-Serif" font-size="10.00">cassert</text>
</a>
</g>
</g>
<!-- Node1&#45;&gt;Node4 -->
<g id="edge3" class="edge">
<title>Node1&#45;&gt;Node4</title>
<path fill="none" stroke="midnightblue" d="M492.46,-348.89C776.93,-341.37 1906,-306.99 1906,-235 1906,-235 1906,-235 1906,-177 1906,-139.88 1879.35,-103.38 1861.57,-83.16"/>
<polygon fill="midnightblue" stroke="midnightblue" points="1863.93,-80.55 1854.6,-75.53 1858.76,-85.28 1863.93,-80.55"/>
</g>
<!-- Node5 -->
<g id="node5" class="node">
<title>Node5</title>
<g id="a_node5"><a xlink:title=" ">
<polygon fill="white" stroke="#bfbfbf" points="268.5,-0.5 268.5,-19.5 315.5,-19.5 315.5,-0.5 268.5,-0.5"/>
<text text-anchor="middle" x="292" y="-7.5" font-family="Helvetica,sans-Serif" font-size="10.00">cmath</text>
</a>
</g>
</g>
<!-- Node1&#45;&gt;Node5 -->
<g id="edge4" class="edge">
<title>Node1&#45;&gt;Node5</title>
<path fill="none" stroke="midnightblue" d="M363.6,-344.8C252.83,-333.21 38,-302.08 38,-235 38,-235 38,-235 38,-121 38,-26.35 188.36,-12.23 257.71,-10.75"/>
<polygon fill="midnightblue" stroke="midnightblue" points="258.15,-14.25 268.1,-10.61 258.06,-7.25 258.15,-14.25"/>
</g>
<!-- Node6 -->
<g id="node6" class="node">
<title>Node6</title>
<g id="a_node6"><a xlink:title=" ">
<polygon fill="white" stroke="#bfbfbf" points="294,-224.5 294,-243.5 344,-243.5 344,-224.5 294,-224.5"/>
<text text-anchor="middle" x="319" y="-231.5" font-family="Helvetica,sans-Serif" font-size="10.00">cstring</text>
</a>
</g>
</g>
<!-- Node1&#45;&gt;Node6 -->
<g id="edge5" class="edge">
<title>Node1&#45;&gt;Node6</title>
<path fill="none" stroke="midnightblue" d="M414.63,-336.34C394.28,-314.77 355.63,-273.81 334.22,-251.13"/>
<polygon fill="midnightblue" stroke="midnightblue" points="336.59,-248.54 327.18,-243.67 331.5,-253.34 336.59,-248.54"/>
</g>
<!-- Node7 -->
<g id="node7" class="node">
<title>Node7</title>
<g id="a_node7"><a xlink:title=" ">
<polygon fill="white" stroke="#bfbfbf" points="1345,-112.5 1345,-131.5 1403,-131.5 1403,-112.5 1345,-112.5"/>
<text text-anchor="middle" x="1374" y="-119.5" font-family="Helvetica,sans-Serif" font-size="10.00">memory</text>
</a>
</g>
</g>
<!-- Node1&#45;&gt;Node7 -->
<g id="edge6" class="edge">
<title>Node1&#45;&gt;Node7</title>
<path fill="none" stroke="midnightblue" d="M492.04,-343.87C617.65,-330.23 904.78,-295.86 1142,-244 1229.25,-224.92 1264.24,-242.51 1335,-188 1350.6,-175.98 1361.29,-155.8 1367.48,-141.1"/>
<polygon fill="midnightblue" stroke="midnightblue" points="1370.83,-142.16 1371.2,-131.57 1364.3,-139.62 1370.83,-142.16"/>
</g>
<!-- Node8 -->
<g id="node8" class="node">
<title>Node8</title>
<g id="a_node8"><a xlink:title=" ">
<polygon fill="white" stroke="#bfbfbf" points="651.5,-0.5 651.5,-19.5 720.5,-19.5 720.5,-0.5 651.5,-0.5"/>
<text text-anchor="middle" x="686" y="-7.5" font-family="Helvetica,sans-Serif" font-size="10.00">type_traits</text>
</a>
</g>
</g>
<!-- Node1&#45;&gt;Node8 -->
<g id="edge7" class="edge">
<title>Node1&#45;&gt;Node8</title>
<path fill="none" stroke="midnightblue" d="M363.89,-340.84C305.39,-327.96 228,-298.85 228,-235 228,-235 228,-235 228,-177 228,-138.58 251.81,-131.36 285,-112 352.84,-72.43 384.73,-104.29 458,-76 474.36,-69.69 475.72,-62.5 492,-56 541.33,-36.31 601.32,-24.04 641.41,-17.39"/>
<polygon fill="midnightblue" stroke="midnightblue" points="642.09,-20.82 651.4,-15.77 640.97,-13.91 642.09,-20.82"/>
</g>
<!-- Node9 -->
<g id="node9" class="node">
<title>Node9</title>
<g id="a_node9"><a xlink:href="integrator_2cell_8hpp.html" target="_top" xlink:title=" ">
<polygon fill="white" stroke="black" points="616.5,-224.5 616.5,-243.5 747.5,-243.5 747.5,-224.5 616.5,-224.5"/>
<text text-anchor="middle" x="682" y="-231.5" font-family="Helvetica,sans-Serif" font-size="10.00">mini/integrator/cell.hpp</text>
</a>
</g>
</g>
<!-- Node1&#45;&gt;Node9 -->
<g id="edge8" class="edge">
<title>Node1&#45;&gt;Node9</title>
<path fill="none" stroke="midnightblue" d="M474.26,-336.44C502.44,-327.29 538.9,-314.41 570,-300 602.67,-284.87 638.29,-263.24 660.38,-249.16"/>
<polygon fill="midnightblue" stroke="midnightblue" points="662.46,-251.98 668.98,-243.62 658.68,-246.09 662.46,-251.98"/>
</g>
<!-- Node24 -->
<g id="node24" class="node">
<title>Node24</title>
<g id="a_node24"><a xlink:href="integrator_2triangle_8hpp.html" target="_top" xlink:title=" ">
<polygon fill="white" stroke="black" points="410.5,-280.5 410.5,-299.5 561.5,-299.5 561.5,-280.5 410.5,-280.5"/>
<text text-anchor="middle" x="486" y="-287.5" font-family="Helvetica,sans-Serif" font-size="10.00">mini/integrator/triangle.hpp</text>
</a>
</g>
</g>
<!-- Node1&#45;&gt;Node24 -->
<g id="edge44" class="edge">
<title>Node1&#45;&gt;Node24</title>
<path fill="none" stroke="midnightblue" d="M441.75,-336.4C450.35,-327.58 461.45,-316.18 470.39,-307.02"/>
<polygon fill="midnightblue" stroke="midnightblue" points="473.09,-309.26 477.56,-299.66 468.07,-304.38 473.09,-309.26"/>
</g>
<!-- Node29 -->
<g id="node29" class="node">
<title>Node29</title>
<g id="a_node29"><a xlink:href="coordinate_2wedge_8hpp.html" target="_top" xlink:title=" ">
<polygon fill="white" stroke="black" points="1613.5,-224.5 1613.5,-243.5 1762.5,-243.5 1762.5,-224.5 1613.5,-224.5"/>
<text text-anchor="middle" x="1688" y="-231.5" font-family="Helvetica,sans-Serif" font-size="10.00">mini/coordinate/wedge.hpp</text>
</a>
</g>
</g>
<!-- Node1&#45;&gt;Node29 -->
<g id="edge76" class="edge">
<title>Node1&#45;&gt;Node29</title>
<path fill="none" stroke="midnightblue" d="M492.21,-348.87C683.04,-343.76 1244.73,-326.82 1426,-300 1507.54,-287.94 1600.71,-261.77 1651.04,-246.57"/>
<polygon fill="midnightblue" stroke="midnightblue" points="1652.27,-249.85 1660.81,-243.59 1650.23,-243.16 1652.27,-249.85"/>
</g>
<!-- Node9&#45;&gt;Node2 -->
<g id="edge9" class="edge">
<title>Node9&#45;&gt;Node2</title>
<path fill="none" stroke="midnightblue" d="M658.55,-224.41C642.84,-217.28 623.38,-205.46 614,-188 598.01,-158.25 603.49,-144.1 614,-112 617.49,-101.34 624.57,-91.12 631.29,-83.12"/>
<polygon fill="midnightblue" stroke="midnightblue" points="633.9,-85.44 637.98,-75.66 628.7,-80.76 633.9,-85.44"/>
</g>
<!-- Node9&#45;&gt;Node7 -->
<g id="edge10" class="edge">
<title>Node9&#45;&gt;Node7</title>
<path fill="none" stroke="midnightblue" d="M747.66,-226.63C757.49,-225.72 767.51,-224.82 777,-224 983.08,-206.25 1044.09,-251.32 1241,-188 1257.33,-182.75 1258.82,-175.98 1274,-168 1296.88,-155.97 1323.62,-144.05 1343.69,-135.5"/>
<polygon fill="midnightblue" stroke="midnightblue" points="1345.11,-138.7 1352.96,-131.58 1342.39,-132.25 1345.11,-138.7"/>
</g>
<!-- Node10 -->
<g id="node10" class="node">
<title>Node10</title>
<g id="a_node10"><a xlink:href="coordinate_2cell_8hpp.html" target="_top" xlink:title=" ">
<polygon fill="white" stroke="black" points="732,-168.5 732,-187.5 866,-187.5 866,-168.5 732,-168.5"/>
<text text-anchor="middle" x="799" y="-175.5" font-family="Helvetica,sans-Serif" font-size="10.00">mini/coordinate/cell.hpp</text>
</a>
</g>
</g>
<!-- Node9&#45;&gt;Node10 -->
<g id="edge11" class="edge">
<title>Node9&#45;&gt;Node10</title>
<path fill="none" stroke="midnightblue" d="M700.54,-224.44C719.62,-215.64 749.57,-201.81 771.44,-191.72"/>
<polygon fill="midnightblue" stroke="midnightblue" points="772.93,-194.88 780.55,-187.52 770,-188.53 772.93,-194.88"/>
</g>
<!-- Node21 -->
<g id="node21" class="node">
<title>Node21</title>
<g id="a_node21"><a xlink:href="integrator_2element_8hpp.html" target="_top" xlink:title=" ">
<polygon fill="white" stroke="black" points="922,-168.5 922,-187.5 1076,-187.5 1076,-168.5 922,-168.5"/>
<text text-anchor="middle" x="999" y="-175.5" font-family="Helvetica,sans-Serif" font-size="10.00">mini/integrator/element.hpp</text>
</a>
</g>
</g>
<!-- Node9&#45;&gt;Node21 -->
<g id="edge35" class="edge">
<title>Node9&#45;&gt;Node21</title>
<path fill="none" stroke="midnightblue" d="M732.23,-224.44C788.34,-214.89 879.13,-199.42 938.95,-189.23"/>
<polygon fill="midnightblue" stroke="midnightblue" points="939.74,-192.65 949.01,-187.52 938.56,-185.75 939.74,-192.65"/>
</g>
<!-- Node22 -->
<g id="node22" class="node">
<title>Node22</title>
<g id="a_node22"><a xlink:href="function_8hpp.html" target="_top" xlink:title=" ">
<polygon fill="white" stroke="black" points="294.5,-112.5 294.5,-131.5 447.5,-131.5 447.5,-112.5 294.5,-112.5"/>
<text text-anchor="middle" x="371" y="-119.5" font-family="Helvetica,sans-Serif" font-size="10.00">mini/integrator/function.hpp</text>
</a>
</g>
</g>
<!-- Node9&#45;&gt;Node22 -->
<g id="edge38" class="edge">
<title>Node9&#45;&gt;Node22</title>
<path fill="none" stroke="midnightblue" d="M635.14,-224.43C597.86,-216.9 544.72,-204.56 500,-188 461.42,-173.72 419.31,-151.05 394.04,-136.61"/>
<polygon fill="midnightblue" stroke="midnightblue" points="395.63,-133.48 385.22,-131.51 392.13,-139.54 395.63,-133.48"/>
</g>
<!-- Node10&#45;&gt;Node2 -->
<g id="edge12" class="edge">
<title>Node10&#45;&gt;Node2</title>
<path fill="none" stroke="midnightblue" d="M788.8,-168.21C773.72,-155.34 744.4,-130.87 718,-112 702.42,-100.86 684.15,-89.32 670.05,-80.71"/>
<polygon fill="midnightblue" stroke="midnightblue" points="671.82,-77.69 661.45,-75.51 668.2,-83.68 671.82,-77.69"/>
</g>
<!-- Node10&#45;&gt;Node3 -->
<g id="edge13" class="edge">
<title>Node10&#45;&gt;Node3</title>
<path fill="none" stroke="midnightblue" d="M731.9,-175.44C580.79,-171.46 223.23,-159.25 176,-132 138.62,-110.43 123.01,-57.96 117.14,-29.73"/>
<polygon fill="midnightblue" stroke="midnightblue" points="120.52,-28.76 115.24,-19.58 113.64,-30.05 120.52,-28.76"/>
</g>
<!-- Node10&#45;&gt;Node7 -->
<g id="edge14" class="edge">
<title>Node10&#45;&gt;Node7</title>
<path fill="none" stroke="midnightblue" d="M866.21,-171.64C995.68,-161.27 1271.85,-138.98 1334.44,-131.75"/>
<polygon fill="midnightblue" stroke="midnightblue" points="1335.17,-135.18 1344.63,-130.41 1334.26,-128.24 1335.17,-135.18"/>
</g>
<!-- Node10&#45;&gt;Node8 -->
<g id="edge15" class="edge">
<title>Node10&#45;&gt;Node8</title>
<path fill="none" stroke="midnightblue" d="M792.92,-168.08C774.91,-141.61 721.54,-63.21 697.72,-28.21"/>
<polygon fill="midnightblue" stroke="midnightblue" points="700.35,-25.87 691.83,-19.57 694.57,-29.8 700.35,-25.87"/>
</g>
<!-- Node11 -->
<g id="node11" class="node">
<title>Node11</title>
<g id="a_node11"><a xlink:title=" ">
<polygon fill="white" stroke="#bfbfbf" points="1305.5,-0.5 1305.5,-19.5 1352.5,-19.5 1352.5,-0.5 1305.5,-0.5"/>
<text text-anchor="middle" x="1329" y="-7.5" font-family="Helvetica,sans-Serif" font-size="10.00">vector</text>
</a>
</g>
</g>
<!-- Node10&#45;&gt;Node11 -->
<g id="edge16" class="edge">
<title>Node10&#45;&gt;Node11</title>
<path fill="none" stroke="midnightblue" d="M803.72,-168.32C816.78,-145.3 855.87,-82.61 908,-56 975.56,-21.51 1207.83,-13.38 1295.31,-11.53"/>
<polygon fill="midnightblue" stroke="midnightblue" points="1295.55,-15.03 1305.48,-11.33 1295.41,-8.03 1295.55,-15.03"/>
</g>
<!-- Node12 -->
<g id="node12" class="node">
<title>Node12</title>
<g id="a_node12"><a xlink:href="coordinate_2element_8hpp.html" target="_top" xlink:title=" ">
<polygon fill="white" stroke="black" points="1169,-112.5 1169,-131.5 1327,-131.5 1327,-112.5 1169,-112.5"/>
<text text-anchor="middle" x="1248" y="-119.5" font-family="Helvetica,sans-Serif" font-size="10.00">mini/coordinate/element.hpp</text>
</a>
</g>
</g>
<!-- Node10&#45;&gt;Node12 -->
<g id="edge17" class="edge">
<title>Node10&#45;&gt;Node12</title>
<path fill="none" stroke="midnightblue" d="M866.22,-168.92C946.58,-159.25 1080.98,-143.09 1167,-132.74"/>
<polygon fill="midnightblue" stroke="midnightblue" points="1167.47,-136.21 1176.98,-131.54 1166.63,-129.26 1167.47,-136.21"/>
</g>
<!-- Node12&#45;&gt;Node2 -->
<g id="edge18" class="edge">
<title>Node12&#45;&gt;Node2</title>
<path fill="none" stroke="midnightblue" d="M1168.81,-113.88C1039.03,-102.22 785.67,-79.46 687.35,-70.63"/>
<polygon fill="midnightblue" stroke="midnightblue" points="687.51,-67.13 677.23,-69.72 686.88,-74.1 687.51,-67.13"/>
</g>
<!-- Node12&#45;&gt;Node4 -->
<g id="edge19" class="edge">
<title>Node12&#45;&gt;Node4</title>
<path fill="none" stroke="midnightblue" d="M1327.15,-112.85C1330.14,-112.56 1333.1,-112.28 1336,-112 1513.77,-95.07 1726.63,-77 1810.01,-70"/>
<polygon fill="midnightblue" stroke="midnightblue" points="1810.31,-73.49 1819.98,-69.17 1809.72,-66.51 1810.31,-73.49"/>
</g>
<!-- Node12&#45;&gt;Node5 -->
<g id="edge20" class="edge">
<title>Node12&#45;&gt;Node5</title>
<path fill="none" stroke="midnightblue" d="M1244.32,-112.29C1237.59,-97.6 1221.76,-68.32 1198,-56 1112.5,-11.67 427.47,-32.62 332,-20 329.91,-19.72 327.76,-19.39 325.6,-19.02"/>
<polygon fill="midnightblue" stroke="midnightblue" points="326.05,-15.54 315.56,-17.04 324.7,-22.41 326.05,-15.54"/>
</g>
<!-- Node12&#45;&gt;Node11 -->
<g id="edge24" class="edge">
<title>Node12&#45;&gt;Node11</title>
<path fill="none" stroke="midnightblue" d="M1265.46,-112.48C1279.46,-104.79 1298.59,-92.2 1310,-76 1319.63,-62.33 1324.42,-43.8 1326.78,-30.01"/>
<polygon fill="midnightblue" stroke="midnightblue" points="1330.3,-30.16 1328.24,-19.77 1323.37,-29.17 1330.3,-30.16"/>
</g>
<!-- Node13 -->
<g id="node13" class="node">
<title>Node13</title>
<g id="a_node13"><a xlink:title=" ">
<polygon fill="white" stroke="#bfbfbf" points="1245,-56.5 1245,-75.5 1301,-75.5 1301,-56.5 1245,-56.5"/>
<text text-anchor="middle" x="1273" y="-63.5" font-family="Helvetica,sans-Serif" font-size="10.00">numeric</text>
</a>
</g>
</g>
<!-- Node12&#45;&gt;Node13 -->
<g id="edge21" class="edge">
<title>Node12&#45;&gt;Node13</title>
<path fill="none" stroke="midnightblue" d="M1252.13,-112.08C1255.51,-104.77 1260.42,-94.18 1264.62,-85.1"/>
<polygon fill="midnightblue" stroke="midnightblue" points="1267.92,-86.3 1268.95,-75.75 1261.57,-83.36 1267.92,-86.3"/>
</g>
<!-- Node14 -->
<g id="node14" class="node">
<title>Node14</title>
<g id="a_node14"><a xlink:title=" ">
<polygon fill="white" stroke="#bfbfbf" points="1627.5,-56.5 1627.5,-75.5 1710.5,-75.5 1710.5,-56.5 1627.5,-56.5"/>
<text text-anchor="middle" x="1669" y="-63.5" font-family="Helvetica,sans-Serif" font-size="10.00">initializer_list</text>
</a>
</g>
</g>
<!-- Node12&#45;&gt;Node14 -->
<g id="edge22" class="edge">
<title>Node12&#45;&gt;Node14</title>
<path fill="none" stroke="midnightblue" d="M1323.6,-112.5C1397.49,-104 1513.12,-90.18 1613,-76 1614.46,-75.79 1615.95,-75.58 1617.44,-75.36"/>
<polygon fill="midnightblue" stroke="midnightblue" points="1618.07,-78.8 1627.44,-73.85 1617.03,-71.88 1618.07,-78.8"/>
</g>
<!-- Node15 -->
<g id="node15" class="node">
<title>Node15</title>
<g id="a_node15"><a xlink:title=" ">
<polygon fill="white" stroke="#bfbfbf" points="1492,-0.5 1492,-19.5 1552,-19.5 1552,-0.5 1492,-0.5"/>
<text text-anchor="middle" x="1522" y="-7.5" font-family="Helvetica,sans-Serif" font-size="10.00">iostream</text>
</a>
</g>
</g>
<!-- Node12&#45;&gt;Node15 -->
<g id="edge23" class="edge">
<title>Node12&#45;&gt;Node15</title>
<path fill="none" stroke="midnightblue" d="M1308.51,-112.46C1374.8,-102.66 1473.69,-86.59 1488,-76 1503.32,-64.66 1512.35,-44.36 1517.21,-29.46"/>
<polygon fill="midnightblue" stroke="midnightblue" points="1520.59,-30.34 1520.03,-19.76 1513.87,-28.38 1520.59,-30.34"/>
</g>
<!-- Node16 -->
<g id="node16" class="node">
<title>Node16</title>
<g id="a_node16"><a xlink:href="algebra_2eigen_8hpp.html" target="_top" xlink:title=" ">
<polygon fill="white" stroke="black" points="320.5,-56.5 320.5,-75.5 449.5,-75.5 449.5,-56.5 320.5,-56.5"/>
<text text-anchor="middle" x="385" y="-63.5" font-family="Helvetica,sans-Serif" font-size="10.00">mini/algebra/eigen.hpp</text>
</a>
</g>
</g>
<!-- Node12&#45;&gt;Node16 -->
<g id="edge25" class="edge">
<title>Node12&#45;&gt;Node16</title>
<path fill="none" stroke="midnightblue" d="M1168.74,-116.04C1003,-105.67 621.75,-81.81 459.88,-71.69"/>
<polygon fill="midnightblue" stroke="midnightblue" points="459.74,-68.17 449.54,-71.04 459.3,-75.16 459.74,-68.17"/>
</g>
<!-- Node19 -->
<g id="node19" class="node">
<title>Node19</title>
<g id="a_node19"><a xlink:href="root_8hpp.html" target="_top" xlink:title=" ">
<polygon fill="white" stroke="black" points="1357,-56.5 1357,-75.5 1479,-75.5 1479,-56.5 1357,-56.5"/>
<text text-anchor="middle" x="1418" y="-63.5" font-family="Helvetica,sans-Serif" font-size="10.00">mini/algebra/root.hpp</text>
</a>
</g>
</g>
<!-- Node12&#45;&gt;Node19 -->
<g id="edge30" class="edge">
<title>Node12&#45;&gt;Node19</title>
<path fill="none" stroke="midnightblue" d="M1274.94,-112.44C1303.66,-103.32 1349.33,-88.81 1381.32,-78.65"/>
<polygon fill="midnightblue" stroke="midnightblue" points="1382.72,-81.88 1391.19,-75.52 1380.6,-75.21 1382.72,-81.88"/>
</g>
<!-- Node20 -->
<g id="node20" class="node">
<title>Node20</title>
<g id="a_node20"><a xlink:href="index_8hpp.html" target="_top" xlink:title=" ">
<polygon fill="white" stroke="black" points="1055,-56.5 1055,-75.5 1189,-75.5 1189,-56.5 1055,-56.5"/>
<text text-anchor="middle" x="1122" y="-63.5" font-family="Helvetica,sans-Serif" font-size="10.00">mini/constant/index.hpp</text>
</a>
</g>
</g>
<!-- Node12&#45;&gt;Node20 -->
<g id="edge34" class="edge">
<title>Node12&#45;&gt;Node20</title>
<path fill="none" stroke="midnightblue" d="M1228.03,-112.44C1207.39,-103.6 1174.94,-89.69 1151.37,-79.59"/>
<polygon fill="midnightblue" stroke="midnightblue" points="1152.44,-76.24 1141.87,-75.52 1149.68,-82.67 1152.44,-76.24"/>
</g>
<!-- Node16&#45;&gt;Node3 -->
<g id="edge26" class="edge">
<title>Node16&#45;&gt;Node3</title>
<path fill="none" stroke="midnightblue" d="M342.06,-56.44C291.1,-46.29 206.67,-29.47 156.08,-19.39"/>
<polygon fill="midnightblue" stroke="midnightblue" points="156.62,-15.92 146.13,-17.4 155.25,-22.79 156.62,-15.92"/>
</g>
<!-- Node16&#45;&gt;Node5 -->
<g id="edge27" class="edge">
<title>Node16&#45;&gt;Node5</title>
<path fill="none" stroke="midnightblue" d="M370.06,-56.32C355.41,-47.82 332.87,-34.73 315.76,-24.8"/>
<polygon fill="midnightblue" stroke="midnightblue" points="317.31,-21.65 306.9,-19.65 313.8,-27.7 317.31,-21.65"/>
</g>
<!-- Node17 -->
<g id="node17" class="node">
<title>Node17</title>
<g id="a_node17"><a xlink:title=" ">
<polygon fill="white" stroke="#bfbfbf" points="433.5,-0.5 433.5,-19.5 482.5,-19.5 482.5,-0.5 433.5,-0.5"/>
<text text-anchor="middle" x="458" y="-7.5" font-family="Helvetica,sans-Serif" font-size="10.00">cstdlib</text>
</a>
</g>
</g>
<!-- Node16&#45;&gt;Node17 -->
<g id="edge28" class="edge">
<title>Node16&#45;&gt;Node17</title>
<path fill="none" stroke="midnightblue" d="M396.73,-56.32C407.84,-48.11 424.74,-35.6 437.98,-25.81"/>
<polygon fill="midnightblue" stroke="midnightblue" points="440.1,-28.59 446.06,-19.83 435.94,-22.97 440.1,-28.59"/>
</g>
<!-- Node18 -->
<g id="node18" class="node">
<title>Node18</title>
<g id="a_node18"><a xlink:title=" ">
<polygon fill="white" stroke="#bfbfbf" points="341,-0.5 341,-19.5 415,-19.5 415,-0.5 341,-0.5"/>
<text text-anchor="middle" x="378" y="-7.5" font-family="Helvetica,sans-Serif" font-size="10.00">Eigen/Eigen</text>
</a>
</g>
</g>
<!-- Node16&#45;&gt;Node18 -->
<g id="edge29" class="edge">
<title>Node16&#45;&gt;Node18</title>
<path fill="none" stroke="midnightblue" d="M383.84,-56.08C382.92,-48.93 381.58,-38.64 380.42,-29.69"/>
<polygon fill="midnightblue" stroke="midnightblue" points="383.89,-29.22 379.13,-19.75 376.95,-30.12 383.89,-29.22"/>
</g>
<!-- Node19&#45;&gt;Node8 -->
<g id="edge33" class="edge">
<title>Node19&#45;&gt;Node8</title>
<path fill="none" stroke="midnightblue" d="M1356.9,-59.79C1341.59,-58.52 1325.19,-57.18 1310,-56 1092.98,-39.13 833.33,-21.1 730.8,-14.06"/>
<polygon fill="midnightblue" stroke="midnightblue" points="730.73,-10.55 720.51,-13.35 730.25,-17.53 730.73,-10.55"/>
</g>
<!-- Node19&#45;&gt;Node11 -->
<g id="edge31" class="edge">
<title>Node19&#45;&gt;Node11</title>
<path fill="none" stroke="midnightblue" d="M1403.7,-56.32C1389.82,-47.9 1368.51,-34.97 1352.2,-25.07"/>
<polygon fill="midnightblue" stroke="midnightblue" points="1353.63,-21.85 1343.26,-19.65 1350,-27.83 1353.63,-21.85"/>
</g>
<!-- Node19&#45;&gt;Node15 -->
<g id="edge32" class="edge">
<title>Node19&#45;&gt;Node15</title>
<path fill="none" stroke="midnightblue" d="M1434.71,-56.32C1451.31,-47.7 1477,-34.36 1496.22,-24.39"/>
<polygon fill="midnightblue" stroke="midnightblue" points="1498.07,-27.37 1505.33,-19.65 1494.84,-21.16 1498.07,-27.37"/>
</g>
<!-- Node21&#45;&gt;Node12 -->
<g id="edge36" class="edge">
<title>Node21&#45;&gt;Node12</title>
<path fill="none" stroke="midnightblue" d="M1038.45,-168.44C1081.89,-159.02 1151.79,-143.87 1198.78,-133.68"/>
<polygon fill="midnightblue" stroke="midnightblue" points="1199.7,-137.06 1208.73,-131.52 1198.22,-130.22 1199.7,-137.06"/>
</g>
<!-- Node21&#45;&gt;Node20 -->
<g id="edge37" class="edge">
<title>Node21&#45;&gt;Node20</title>
<path fill="none" stroke="midnightblue" d="M1008.65,-168.37C1029.4,-149.81 1078.49,-105.91 1104.74,-82.44"/>
<polygon fill="midnightblue" stroke="midnightblue" points="1107.27,-84.87 1112.39,-75.59 1102.61,-79.65 1107.27,-84.87"/>
</g>
<!-- Node22&#45;&gt;Node2 -->
<g id="edge39" class="edge">
<title>Node22&#45;&gt;Node2</title>
<path fill="none" stroke="midnightblue" d="M414.73,-112.44C467.49,-102.12 555.46,-84.91 606.65,-74.89"/>
<polygon fill="midnightblue" stroke="midnightblue" points="607.55,-78.29 616.69,-72.93 606.2,-71.42 607.55,-78.29"/>
</g>
<!-- Node22&#45;&gt;Node5 -->
<g id="edge40" class="edge">
<title>Node22&#45;&gt;Node5</title>
<path fill="none" stroke="midnightblue" d="M354.11,-112.35C340.56,-104.58 322.05,-91.95 311,-76 301.48,-62.26 296.67,-43.73 294.28,-29.97"/>
<polygon fill="midnightblue" stroke="midnightblue" points="297.7,-29.13 292.79,-19.74 290.77,-30.15 297.7,-29.13"/>
</g>
<!-- Node22&#45;&gt;Node8 -->
<g id="edge41" class="edge">
<title>Node22&#45;&gt;Node8</title>
<path fill="none" stroke="midnightblue" d="M394.75,-112.47C419.23,-103.62 458.43,-89.23 492,-76 513.5,-67.53 518.27,-63.86 540,-56 575.14,-43.3 615.83,-30.95 645.31,-22.41"/>
<polygon fill="midnightblue" stroke="midnightblue" points="646.59,-25.68 655.24,-19.55 644.66,-18.95 646.59,-25.68"/>
</g>
<!-- Node22&#45;&gt;Node16 -->
<g id="edge43" class="edge">
<title>Node22&#45;&gt;Node16</title>
<path fill="none" stroke="midnightblue" d="M373.31,-112.08C375.17,-104.93 377.84,-94.64 380.15,-85.69"/>
<polygon fill="midnightblue" stroke="midnightblue" points="383.61,-86.31 382.73,-75.75 376.83,-84.55 383.61,-86.31"/>
</g>
<!-- Node23 -->
<g id="node23" class="node">
<title>Node23</title>
<g id="a_node23"><a xlink:title=" ">
<polygon fill="white" stroke="#bfbfbf" points="218.5,-56.5 218.5,-75.5 263.5,-75.5 263.5,-56.5 218.5,-56.5"/>
<text text-anchor="middle" x="241" y="-63.5" font-family="Helvetica,sans-Serif" font-size="10.00">utility</text>
</a>
</g>
</g>
<!-- Node22&#45;&gt;Node23 -->
<g id="edge42" class="edge">
<title>Node22&#45;&gt;Node23</title>
<path fill="none" stroke="midnightblue" d="M350.4,-112.44C329.01,-103.56 295.32,-89.56 270.98,-79.45"/>
<polygon fill="midnightblue" stroke="midnightblue" points="272.08,-76.12 261.5,-75.52 269.39,-82.58 272.08,-76.12"/>
</g>
<!-- Node24&#45;&gt;Node2 -->
<g id="edge45" class="edge">
<title>Node24&#45;&gt;Node2</title>
<path fill="none" stroke="midnightblue" d="M491.14,-280.15C506.71,-253.62 555.28,-172.82 604,-112 612.19,-101.77 622.27,-91.14 630.61,-82.78"/>
<polygon fill="midnightblue" stroke="midnightblue" points="633.28,-85.06 637.95,-75.55 628.37,-80.07 633.28,-85.06"/>
</g>
<!-- Node24&#45;&gt;Node3 -->
<g id="edge46" class="edge">
<title>Node24&#45;&gt;Node3</title>
<path fill="none" stroke="midnightblue" d="M467.27,-280.35C448.69,-271.63 419.53,-257.55 395,-244 269.96,-174.94 197.36,-196.72 121,-76 112.37,-62.36 111.17,-43.82 111.8,-30.03"/>
<polygon fill="midnightblue" stroke="midnightblue" points="115.32,-30.03 112.65,-19.78 108.34,-29.46 115.32,-30.03"/>
</g>
<!-- Node24&#45;&gt;Node4 -->
<g id="edge47" class="edge">
<title>Node24&#45;&gt;Node4</title>
<path fill="none" stroke="midnightblue" d="M561.66,-287.9C829.04,-283.81 1716.47,-268.44 1772,-244 1827.99,-219.35 1839.25,-191.83 1852,-132 1855.29,-116.57 1853.23,-98.7 1850.66,-85.6"/>
<polygon fill="midnightblue" stroke="midnightblue" points="1854,-84.5 1848.4,-75.51 1847.17,-86.03 1854,-84.5"/>
</g>
<!-- Node24&#45;&gt;Node5 -->
<g id="edge48" class="edge">
<title>Node24&#45;&gt;Node5</title>
<path fill="none" stroke="midnightblue" d="M474.34,-280.27C447.23,-260.06 377.72,-208.66 318,-168 293.54,-151.35 284.78,-150.88 262,-132 235.62,-110.13 221.68,-107.84 209,-76 205.71,-67.74 204.45,-63.64 209,-56 219.75,-37.94 240.56,-26.68 258.66,-19.94"/>
<polygon fill="midnightblue" stroke="midnightblue" points="260,-23.18 268.35,-16.65 257.75,-16.55 260,-23.18"/>
</g>
<!-- Node24&#45;&gt;Node6 -->
<g id="edge49" class="edge">
<title>Node24&#45;&gt;Node6</title>
<path fill="none" stroke="midnightblue" d="M459.54,-280.44C430.99,-271.21 385.4,-256.47 353.93,-246.29"/>
<polygon fill="midnightblue" stroke="midnightblue" points="354.84,-242.91 344.24,-243.16 352.68,-249.57 354.84,-242.91"/>
</g>
<!-- Node24&#45;&gt;Node7 -->
<g id="edge51" class="edge">
<title>Node24&#45;&gt;Node7</title>
<path fill="none" stroke="midnightblue" d="M561.5,-286.05C738.8,-278.1 1176.62,-252.38 1307,-188 1329.59,-176.84 1349.46,-155.26 1361.57,-140.03"/>
<polygon fill="midnightblue" stroke="midnightblue" points="1364.48,-142 1367.77,-131.93 1358.92,-137.74 1364.48,-142"/>
</g>
<!-- Node24&#45;&gt;Node8 -->
<g id="edge50" class="edge">
<title>Node24&#45;&gt;Node8</title>
<path fill="none" stroke="midnightblue" d="M488.47,-280.23C498.23,-246.91 537.12,-126.54 608,-56 621.58,-42.48 640.04,-31.59 655.59,-23.92"/>
<polygon fill="midnightblue" stroke="midnightblue" points="657.27,-26.99 664.82,-19.55 654.29,-20.66 657.27,-26.99"/>
</g>
<!-- Node25 -->
<g id="node25" class="node">
<title>Node25</title>
<g id="a_node25"><a xlink:href="integrator_2face_8hpp.html" target="_top" xlink:title=" ">
<polygon fill="white" stroke="black" points="786,-224.5 786,-243.5 920,-243.5 920,-224.5 786,-224.5"/>
<text text-anchor="middle" x="853" y="-231.5" font-family="Helvetica,sans-Serif" font-size="10.00">mini/integrator/face.hpp</text>
</a>
</g>
</g>
<!-- Node24&#45;&gt;Node25 -->
<g id="edge52" class="edge">
<title>Node24&#45;&gt;Node25</title>
<path fill="none" stroke="midnightblue" d="M544.15,-280.44C609.65,-270.81 715.96,-255.16 785.19,-244.98"/>
<polygon fill="midnightblue" stroke="midnightblue" points="785.74,-248.43 795.12,-243.52 784.72,-241.51 785.74,-248.43"/>
</g>
<!-- Node28 -->
<g id="node28" class="node">
<title>Node28</title>
<g id="a_node28"><a xlink:href="coordinate_2triangle_8hpp.html" target="_top" xlink:title=" ">
<polygon fill="white" stroke="black" points="1440.5,-224.5 1440.5,-243.5 1595.5,-243.5 1595.5,-224.5 1440.5,-224.5"/>
<text text-anchor="middle" x="1518" y="-231.5" font-family="Helvetica,sans-Serif" font-size="10.00">mini/coordinate/triangle.hpp</text>
</a>
</g>
</g>
<!-- Node24&#45;&gt;Node28 -->
<g id="edge67" class="edge">
<title>Node24&#45;&gt;Node28</title>
<path fill="none" stroke="midnightblue" d="M561.75,-285.71C716.87,-278.88 1081.82,-262.23 1388,-244 1401.63,-243.19 1416.06,-242.26 1430.15,-241.31"/>
<polygon fill="midnightblue" stroke="midnightblue" points="1430.6,-244.79 1440.34,-240.62 1430.12,-237.81 1430.6,-244.79"/>
</g>
<!-- Node25&#45;&gt;Node2 -->
<g id="edge53" class="edge">
<title>Node25&#45;&gt;Node2</title>
<path fill="none" stroke="midnightblue" d="M785.96,-226.7C734.37,-220.34 669.08,-208.45 652,-188 627.82,-159.06 635.07,-111.27 641.58,-85.25"/>
<polygon fill="midnightblue" stroke="midnightblue" points="644.97,-86.12 644.23,-75.55 638.21,-84.28 644.97,-86.12"/>
</g>
<!-- Node25&#45;&gt;Node7 -->
<g id="edge54" class="edge">
<title>Node25&#45;&gt;Node7</title>
<path fill="none" stroke="midnightblue" d="M920.3,-229.63C1022.21,-223.88 1210.54,-210.55 1274,-188 1305.81,-176.7 1337.66,-153.43 1356.6,-138.02"/>
<polygon fill="midnightblue" stroke="midnightblue" points="1358.9,-140.65 1364.35,-131.56 1354.42,-135.28 1358.9,-140.65"/>
</g>
<!-- Node25&#45;&gt;Node11 -->
<g id="edge56" class="edge">
<title>Node25&#45;&gt;Node11</title>
<path fill="none" stroke="midnightblue" d="M858.57,-224.41C878.23,-194.9 947.79,-97.25 1033,-56 1078.85,-33.8 1228.02,-19.21 1295.41,-13.6"/>
<polygon fill="midnightblue" stroke="midnightblue" points="1295.82,-17.08 1305.5,-12.77 1295.25,-10.1 1295.82,-17.08"/>
</g>
<!-- Node25&#45;&gt;Node21 -->
<g id="edge65" class="edge">
<title>Node25&#45;&gt;Node21</title>
<path fill="none" stroke="midnightblue" d="M876.13,-224.44C900.48,-215.44 939.01,-201.19 966.42,-191.05"/>
<polygon fill="midnightblue" stroke="midnightblue" points="967.81,-194.27 975.97,-187.52 965.38,-187.7 967.81,-194.27"/>
</g>
<!-- Node25&#45;&gt;Node22 -->
<g id="edge66" class="edge">
<title>Node25&#45;&gt;Node22</title>
<path fill="none" stroke="midnightblue" d="M801.49,-224.45C752.93,-216.13 678.22,-202.61 614,-188 541.25,-171.45 457.37,-148.04 409.62,-134.3"/>
<polygon fill="midnightblue" stroke="midnightblue" points="410.58,-130.93 400,-131.52 408.64,-137.65 410.58,-130.93"/>
</g>
<!-- Node25&#45;&gt;Node23 -->
<g id="edge55" class="edge">
<title>Node25&#45;&gt;Node23</title>
<path fill="none" stroke="midnightblue" d="M785.92,-225.37C720.4,-217.51 617.99,-204.15 530,-188 420.14,-167.83 377.17,-195.09 285,-132 268.01,-120.37 255.74,-99.82 248.55,-84.93"/>
<polygon fill="midnightblue" stroke="midnightblue" points="251.69,-83.38 244.38,-75.71 245.31,-86.26 251.69,-83.38"/>
</g>
<!-- Node26 -->
<g id="node26" class="node">
<title>Node26</title>
<g id="a_node26"><a xlink:href="coordinate_2face_8hpp.html" target="_top" xlink:title=" ">
<polygon fill="white" stroke="black" points="1094,-168.5 1094,-187.5 1232,-187.5 1232,-168.5 1094,-168.5"/>
<text text-anchor="middle" x="1163" y="-175.5" font-family="Helvetica,sans-Serif" font-size="10.00">mini/coordinate/face.hpp</text>
</a>
</g>
</g>
<!-- Node25&#45;&gt;Node26 -->
<g id="edge57" class="edge">
<title>Node25&#45;&gt;Node26</title>
<path fill="none" stroke="midnightblue" d="M902.12,-224.44C956.88,-214.9 1045.41,-199.48 1103.91,-189.29"/>
<polygon fill="midnightblue" stroke="midnightblue" points="1104.86,-192.68 1114.11,-187.52 1103.66,-185.78 1104.86,-192.68"/>
</g>
<!-- Node26&#45;&gt;Node2 -->
<g id="edge58" class="edge">
<title>Node26&#45;&gt;Node2</title>
<path fill="none" stroke="midnightblue" d="M1122.94,-168.46C1026.76,-147.96 783.62,-96.13 687.25,-75.58"/>
<polygon fill="midnightblue" stroke="midnightblue" points="687.82,-72.12 677.31,-73.46 686.36,-78.97 687.82,-72.12"/>
</g>
<!-- Node26&#45;&gt;Node3 -->
<g id="edge59" class="edge">
<title>Node26&#45;&gt;Node3</title>
<path fill="none" stroke="midnightblue" d="M1093.7,-168.75C1090.76,-168.48 1087.85,-168.23 1085,-168 907.61,-153.79 453.33,-189.73 285,-132 219.87,-109.66 157.56,-54.19 129.51,-26.81"/>
<polygon fill="midnightblue" stroke="midnightblue" points="131.79,-24.15 122.23,-19.58 126.86,-29.11 131.79,-24.15"/>
</g>
<!-- Node26&#45;&gt;Node7 -->
<g id="edge61" class="edge">
<title>Node26&#45;&gt;Node7</title>
<path fill="none" stroke="midnightblue" d="M1196.43,-168.44C1234.06,-158.81 1295.12,-143.19 1334.92,-133"/>
<polygon fill="midnightblue" stroke="midnightblue" points="1335.98,-136.34 1344.8,-130.47 1334.24,-129.56 1335.98,-136.34"/>
</g>
<!-- Node26&#45;&gt;Node8 -->
<g id="edge62" class="edge">
<title>Node26&#45;&gt;Node8</title>
<path fill="none" stroke="midnightblue" d="M1138.36,-168.42C1059.2,-140.88 811.23,-54.58 720.07,-22.86"/>
<polygon fill="midnightblue" stroke="midnightblue" points="721.09,-19.51 710.49,-19.52 718.79,-26.12 721.09,-19.51"/>
</g>
<!-- Node26&#45;&gt;Node11 -->
<g id="edge63" class="edge">
<title>Node26&#45;&gt;Node11</title>
<path fill="none" stroke="midnightblue" d="M1142.89,-168.4C1100.35,-149.06 1008.15,-100.34 1046,-56 1077.65,-18.91 1226.75,-12.24 1294.88,-11.15"/>
<polygon fill="midnightblue" stroke="midnightblue" points="1295.14,-14.64 1305.09,-11.01 1295.05,-7.64 1295.14,-14.64"/>
</g>
<!-- Node26&#45;&gt;Node12 -->
<g id="edge64" class="edge">
<title>Node26&#45;&gt;Node12</title>
<path fill="none" stroke="midnightblue" d="M1176.66,-168.32C1189.92,-159.9 1210.27,-146.97 1225.85,-137.07"/>
<polygon fill="midnightblue" stroke="midnightblue" points="1227.81,-139.97 1234.38,-131.65 1224.06,-134.06 1227.81,-139.97"/>
</g>
<!-- Node27 -->
<g id="node27" class="node">
<title>Node27</title>
<g id="a_node27"><a xlink:title=" ">
<polygon fill="white" stroke="#bfbfbf" points="1505,-112.5 1505,-131.5 1547,-131.5 1547,-112.5 1505,-112.5"/>
<text text-anchor="middle" x="1526" y="-119.5" font-family="Helvetica,sans-Serif" font-size="10.00">array</text>
</a>
</g>
</g>
<!-- Node26&#45;&gt;Node27 -->
<g id="edge60" class="edge">
<title>Node26&#45;&gt;Node27</title>
<path fill="none" stroke="midnightblue" d="M1220.52,-168.44C1298.03,-156.91 1433.33,-136.79 1494.44,-127.69"/>
<polygon fill="midnightblue" stroke="midnightblue" points="1495.24,-131.11 1504.62,-126.18 1494.21,-124.19 1495.24,-131.11"/>
</g>
<!-- Node28&#45;&gt;Node2 -->
<g id="edge68" class="edge">
<title>Node28&#45;&gt;Node2</title>
<path fill="none" stroke="midnightblue" d="M1440.26,-233.61C1245.71,-234.46 749.17,-232.22 690,-188 657.66,-163.83 649.55,-113.29 647.58,-85.79"/>
<polygon fill="midnightblue" stroke="midnightblue" points="651.07,-85.37 647.06,-75.57 644.08,-85.73 651.07,-85.37"/>
</g>
<!-- Node28&#45;&gt;Node4 -->
<g id="edge70" class="edge">
<title>Node28&#45;&gt;Node4</title>
<path fill="none" stroke="midnightblue" d="M1544.51,-224.37C1568.97,-216.08 1606.07,-202.68 1637,-188 1707.88,-154.36 1786.82,-105.24 1824.16,-81.25"/>
<polygon fill="midnightblue" stroke="midnightblue" points="1826.22,-84.08 1832.72,-75.72 1822.42,-78.2 1826.22,-84.08"/>
</g>
<!-- Node28&#45;&gt;Node7 -->
<g id="edge72" class="edge">
<title>Node28&#45;&gt;Node7</title>
<path fill="none" stroke="midnightblue" d="M1512.61,-224.45C1503.79,-211.02 1485.15,-184.78 1464,-168 1446.79,-154.35 1424.78,-143.26 1406.83,-135.5"/>
<polygon fill="midnightblue" stroke="midnightblue" points="1407.91,-132.16 1397.34,-131.53 1405.22,-138.62 1407.91,-132.16"/>
</g>
<!-- Node28&#45;&gt;Node11 -->
<g id="edge73" class="edge">
<title>Node28&#45;&gt;Node11</title>
<path fill="none" stroke="midnightblue" d="M1524.89,-224.49C1540.35,-204.31 1574.98,-152.22 1556,-112 1521.74,-39.41 1417.34,-18.98 1362.87,-13.24"/>
<polygon fill="midnightblue" stroke="midnightblue" points="1362.97,-9.73 1352.68,-12.28 1362.31,-16.7 1362.97,-9.73"/>
</g>
<!-- Node28&#45;&gt;Node12 -->
<g id="edge74" class="edge">
<title>Node28&#45;&gt;Node12</title>
<path fill="none" stroke="midnightblue" d="M1493.96,-224.39C1469.63,-215.58 1431.01,-201.33 1398,-188 1355.21,-170.72 1306.25,-149.16 1276.23,-135.74"/>
<polygon fill="midnightblue" stroke="midnightblue" points="1277.37,-132.41 1266.82,-131.51 1274.51,-138.8 1277.37,-132.41"/>
</g>
<!-- Node28&#45;&gt;Node14 -->
<g id="edge71" class="edge">
<title>Node28&#45;&gt;Node14</title>
<path fill="none" stroke="midnightblue" d="M1551.11,-224.43C1572,-217.56 1598.29,-206.03 1616,-188 1644.7,-158.79 1659.15,-111.45 1665.26,-85.49"/>
<polygon fill="midnightblue" stroke="midnightblue" points="1668.73,-86.02 1667.45,-75.5 1661.89,-84.52 1668.73,-86.02"/>
</g>
<!-- Node28&#45;&gt;Node26 -->
<g id="edge75" class="edge">
<title>Node28&#45;&gt;Node26</title>
<path fill="none" stroke="midnightblue" d="M1461.75,-224.44C1398.52,-214.83 1295.98,-199.23 1229.01,-189.04"/>
<polygon fill="midnightblue" stroke="midnightblue" points="1229.4,-185.56 1218.99,-187.52 1228.35,-192.48 1229.4,-185.56"/>
</g>
<!-- Node28&#45;&gt;Node27 -->
<g id="edge69" class="edge">
<title>Node28&#45;&gt;Node27</title>
<path fill="none" stroke="midnightblue" d="M1518.63,-224.37C1519.92,-206.62 1522.9,-165.67 1524.65,-141.6"/>
<polygon fill="midnightblue" stroke="midnightblue" points="1528.14,-141.82 1525.38,-131.59 1521.16,-141.31 1528.14,-141.82"/>
</g>
<!-- Node29&#45;&gt;Node2 -->
<g id="edge77" class="edge">
<title>Node29&#45;&gt;Node2</title>
<path fill="none" stroke="midnightblue" d="M1613.36,-224.67C1610.54,-224.43 1607.75,-224.2 1605,-224 1507.19,-216.71 807.85,-237.19 723,-188 702.66,-176.21 670.77,-115.53 655.59,-84.83"/>
<polygon fill="midnightblue" stroke="midnightblue" points="658.65,-83.14 651.12,-75.69 652.36,-86.21 658.65,-83.14"/>
</g>
<!-- Node29&#45;&gt;Node4 -->
<g id="edge79" class="edge">
<title>Node29&#45;&gt;Node4</title>
<path fill="none" stroke="midnightblue" d="M1737.13,-224.5C1760.76,-218.09 1787.82,-207.02 1806,-188 1833.3,-159.44 1841.98,-111.85 1844.73,-85.67"/>
<polygon fill="midnightblue" stroke="midnightblue" points="1848.23,-85.85 1845.6,-75.59 1841.25,-85.25 1848.23,-85.85"/>
</g>
<!-- Node29&#45;&gt;Node7 -->
<g id="edge81" class="edge">
<title>Node29&#45;&gt;Node7</title>
<path fill="none" stroke="midnightblue" d="M1663.62,-224.46C1608.09,-205.01 1472.07,-157.36 1408.19,-134.98"/>
<polygon fill="midnightblue" stroke="midnightblue" points="1409.17,-131.61 1398.58,-131.61 1406.86,-138.22 1409.17,-131.61"/>
</g>
<!-- Node29&#45;&gt;Node10 -->
<g id="edge84" class="edge">
<title>Node29&#45;&gt;Node10</title>
<path fill="none" stroke="midnightblue" d="M1613.36,-224.71C1610.54,-224.46 1607.75,-224.22 1605,-224 1298.01,-199.39 1220.31,-208.12 913,-188 901.16,-187.22 888.63,-186.32 876.39,-185.39"/>
<polygon fill="midnightblue" stroke="midnightblue" points="876.43,-181.88 866.19,-184.61 875.89,-188.86 876.43,-181.88"/>
</g>
<!-- Node29&#45;&gt;Node11 -->
<g id="edge82" class="edge">
<title>Node29&#45;&gt;Node11</title>
<path fill="none" stroke="midnightblue" d="M1693.89,-224.3C1712.23,-196.05 1764.47,-105.88 1720,-56 1708.14,-42.69 1455.67,-21.17 1362.85,-13.67"/>
<polygon fill="midnightblue" stroke="midnightblue" points="1362.85,-10.16 1352.6,-12.85 1362.29,-17.14 1362.85,-10.16"/>
</g>
<!-- Node29&#45;&gt;Node12 -->
<g id="edge83" class="edge">
<title>Node29&#45;&gt;Node12</title>
<path fill="none" stroke="midnightblue" d="M1650.81,-224.44C1612.46,-215.56 1550.97,-201.16 1498,-188 1424.5,-169.74 1339.19,-147.29 1289.63,-134.12"/>
<polygon fill="midnightblue" stroke="midnightblue" points="1290.47,-130.72 1279.91,-131.53 1288.67,-137.49 1290.47,-130.72"/>
</g>
<!-- Node29&#45;&gt;Node14 -->
<g id="edge80" class="edge">
<title>Node29&#45;&gt;Node14</title>
<path fill="none" stroke="midnightblue" d="M1686.98,-224.08C1683.99,-197.95 1675.2,-121.21 1671.13,-85.58"/>
<polygon fill="midnightblue" stroke="midnightblue" points="1674.6,-85.11 1669.98,-75.57 1667.64,-85.9 1674.6,-85.11"/>
</g>
<!-- Node29&#45;&gt;Node27 -->
<g id="edge78" class="edge">
<title>Node29&#45;&gt;Node27</title>
<path fill="none" stroke="midnightblue" d="M1675.29,-224.37C1647.49,-205.49 1581.06,-160.38 1546.97,-137.24"/>
<polygon fill="midnightblue" stroke="midnightblue" points="1548.89,-134.31 1538.65,-131.59 1544.96,-140.1 1548.89,-134.31"/>
</g>
</g>
</svg>
