<?xml version="1.0" encoding="UTF-8" standalone="no"?>
<!DOCTYPE svg PUBLIC "-//W3C//DTD SVG 1.1//EN"
 "http://www.w3.org/Graphics/SVG/1.1/DTD/svg11.dtd">
<!-- Generated by graphviz version 2.43.0 (0)
 -->
<!-- Title: include/mini/integrator/cell.hpp Pages: 1 -->
<svg width="958pt" height="307pt"
 viewBox="0.00 0.00 958.00 307.00" xmlns="http://www.w3.org/2000/svg" xmlns:xlink="http://www.w3.org/1999/xlink">
<g id="graph0" class="graph" transform="scale(1 1) rotate(0) translate(4 303)">
<title>include/mini/integrator/cell.hpp</title>
<polygon fill="white" stroke="transparent" points="-4,4 -4,-303 954,-303 954,4 -4,4"/>
<!-- Node1 -->
<g id="node1" class="node">
<title>Node1</title>
<g id="a_node1"><a xlink:title=" ">
<polygon fill="#bfbfbf" stroke="black" points="362,-268.5 362,-298.5 490,-298.5 490,-268.5 362,-268.5"/>
<text text-anchor="start" x="370" y="-286.5" font-family="Helvetica,sans-Serif" font-size="10.00">include/mini/integrator</text>
<text text-anchor="middle" x="426" y="-275.5" font-family="Helvetica,sans-Serif" font-size="10.00">/cell.hpp</text>
</a>
</g>
</g>
<!-- Node2 -->
<g id="node2" class="node">
<title>Node2</title>
<g id="a_node2"><a xlink:href="basis_2linear_8hpp.html" target="_top" xlink:title=" ">
<polygon fill="white" stroke="black" points="48.5,-201.5 48.5,-231.5 153.5,-231.5 153.5,-201.5 48.5,-201.5"/>
<text text-anchor="start" x="56.5" y="-219.5" font-family="Helvetica,sans-Serif" font-size="10.00">include/mini/basis</text>
<text text-anchor="middle" x="101" y="-208.5" font-family="Helvetica,sans-Serif" font-size="10.00">/linear.hpp</text>
</a>
</g>
</g>
<!-- Node1&#45;&gt;Node2 -->
<g id="edge1" class="edge">
<title>Node1&#45;&gt;Node2</title>
<path fill="none" stroke="midnightblue" d="M351.76,-268.24C300.4,-258.29 230.49,-244.6 169,-232 164.03,-230.98 158.87,-229.91 153.7,-228.82"/>
<polygon fill="midnightblue" stroke="midnightblue" points="351.3,-271.71 361.78,-270.18 352.63,-264.84 351.3,-271.71"/>
</g>
<!-- Node5 -->
<g id="node5" class="node">
<title>Node5</title>
<g id="a_node5"><a xlink:href="integrator_2hexahedron_8hpp.html" target="_top" xlink:title=" ">
<polygon fill="white" stroke="black" points="178,-201.5 178,-231.5 306,-231.5 306,-201.5 178,-201.5"/>
<text text-anchor="start" x="186" y="-219.5" font-family="Helvetica,sans-Serif" font-size="10.00">include/mini/integrator</text>
<text text-anchor="middle" x="242" y="-208.5" font-family="Helvetica,sans-Serif" font-size="10.00">/hexahedron.hpp</text>
</a>
</g>
</g>
<!-- Node1&#45;&gt;Node5 -->
<g id="edge4" class="edge">
<title>Node1&#45;&gt;Node5</title>
<path fill="none" stroke="midnightblue" d="M376.33,-264.96C346.7,-254.48 309.56,-241.37 281.85,-231.58"/>
<polygon fill="midnightblue" stroke="midnightblue" points="375.48,-268.37 386.07,-268.4 377.81,-261.76 375.48,-268.37"/>
</g>
<!-- Node6 -->
<g id="node6" class="node">
<title>Node6</title>
<g id="a_node6"><a xlink:href="polynomial_2hexahedron_8hpp.html" target="_top" xlink:title=" ">
<polygon fill="white" stroke="black" points="267,-134.5 267,-164.5 401,-164.5 401,-134.5 267,-134.5"/>
<text text-anchor="start" x="275" y="-152.5" font-family="Helvetica,sans-Serif" font-size="10.00">include/mini/polynomial</text>
<text text-anchor="middle" x="334" y="-141.5" font-family="Helvetica,sans-Serif" font-size="10.00">/hexahedron.hpp</text>
</a>
</g>
</g>
<!-- Node1&#45;&gt;Node6 -->
<g id="edge14" class="edge">
<title>Node1&#45;&gt;Node6</title>
<path fill="none" stroke="midnightblue" d="M387.35,-263.28C374.69,-255.22 361.66,-244.73 353,-232 339.03,-211.46 335.24,-181.99 334.27,-164.69"/>
<polygon fill="midnightblue" stroke="midnightblue" points="385.62,-266.32 395.99,-268.46 389.22,-260.32 385.62,-266.32"/>
</g>
<!-- Node10 -->
<g id="node10" class="node">
<title>Node10</title>
<g id="a_node10"><a xlink:href="integrator_2pyramid_8hpp.html" target="_top" xlink:title=" ">
<polygon fill="white" stroke="black" points="362,-201.5 362,-231.5 490,-231.5 490,-201.5 362,-201.5"/>
<text text-anchor="start" x="370" y="-219.5" font-family="Helvetica,sans-Serif" font-size="10.00">include/mini/integrator</text>
<text text-anchor="middle" x="426" y="-208.5" font-family="Helvetica,sans-Serif" font-size="10.00">/pyramid.hpp</text>
</a>
</g>
</g>
<!-- Node1&#45;&gt;Node10 -->
<g id="edge10" class="edge">
<title>Node1&#45;&gt;Node10</title>
<path fill="none" stroke="midnightblue" d="M426,-258.11C426,-249.15 426,-239.32 426,-231.58"/>
<polygon fill="midnightblue" stroke="midnightblue" points="422.5,-258.4 426,-268.4 429.5,-258.4 422.5,-258.4"/>
</g>
<!-- Node11 -->
<g id="node11" class="node">
<title>Node11</title>
<g id="a_node11"><a xlink:href="integrator_2tetrahedron_8hpp.html" target="_top" xlink:title=" ">
<polygon fill="white" stroke="black" points="508,-201.5 508,-231.5 636,-231.5 636,-201.5 508,-201.5"/>
<text text-anchor="start" x="516" y="-219.5" font-family="Helvetica,sans-Serif" font-size="10.00">include/mini/integrator</text>
<text text-anchor="middle" x="572" y="-208.5" font-family="Helvetica,sans-Serif" font-size="10.00">/tetrahedron.hpp</text>
</a>
</g>
</g>
<!-- Node1&#45;&gt;Node11 -->
<g id="edge11" class="edge">
<title>Node1&#45;&gt;Node11</title>
<path fill="none" stroke="midnightblue" d="M466.95,-264.27C490.2,-253.92 518.87,-241.15 540.38,-231.58"/>
<polygon fill="midnightblue" stroke="midnightblue" points="465.39,-261.13 457.68,-268.4 468.24,-267.53 465.39,-261.13"/>
</g>
<!-- Node12 -->
<g id="node12" class="node">
<title>Node12</title>
<g id="a_node12"><a xlink:href="integrator_2wedge_8hpp.html" target="_top" xlink:title=" ">
<polygon fill="white" stroke="black" points="654,-201.5 654,-231.5 782,-231.5 782,-201.5 654,-201.5"/>
<text text-anchor="start" x="662" y="-219.5" font-family="Helvetica,sans-Serif" font-size="10.00">include/mini/integrator</text>
<text text-anchor="middle" x="718" y="-208.5" font-family="Helvetica,sans-Serif" font-size="10.00">/wedge.hpp</text>
</a>
</g>
</g>
<!-- Node1&#45;&gt;Node12 -->
<g id="edge12" class="edge">
<title>Node1&#45;&gt;Node12</title>
<path fill="none" stroke="midnightblue" d="M499.01,-266.25C546.95,-255.58 609.05,-241.75 654.86,-231.55"/>
<polygon fill="midnightblue" stroke="midnightblue" points="498,-262.89 489,-268.48 499.52,-269.72 498,-262.89"/>
</g>
<!-- Node13 -->
<g id="node13" class="node">
<title>Node13</title>
<g id="a_node13"><a xlink:href="part_8hpp.html" target="_top" xlink:title=" ">
<polygon fill="white" stroke="black" points="800,-207 800,-226 950,-226 950,-207 800,-207"/>
<text text-anchor="middle" x="875" y="-214" font-family="Helvetica,sans-Serif" font-size="10.00">include/mini/mesh/part.hpp</text>
</a>
</g>
</g>
<!-- Node1&#45;&gt;Node13 -->
<g id="edge13" class="edge">
<title>Node1&#45;&gt;Node13</title>
<path fill="none" stroke="midnightblue" d="M500.18,-272.98C574,-263.32 690.48,-247.63 791,-232 802.7,-230.18 815.29,-228.08 827.07,-226.06"/>
<polygon fill="midnightblue" stroke="midnightblue" points="499.51,-269.53 490.05,-274.3 500.42,-276.47 499.51,-269.53"/>
</g>
<!-- Node3 -->
<g id="node3" class="node">
<title>Node3</title>
<g id="a_node3"><a xlink:href="projection_8hpp.html" target="_top" xlink:title=" ">
<polygon fill="white" stroke="black" points="23,-134.5 23,-164.5 157,-164.5 157,-134.5 23,-134.5"/>
<text text-anchor="start" x="31" y="-152.5" font-family="Helvetica,sans-Serif" font-size="10.00">include/mini/polynomial</text>
<text text-anchor="middle" x="90" y="-141.5" font-family="Helvetica,sans-Serif" font-size="10.00">/projection.hpp</text>
</a>
</g>
</g>
<!-- Node2&#45;&gt;Node3 -->
<g id="edge2" class="edge">
<title>Node2&#45;&gt;Node3</title>
<path fill="none" stroke="midnightblue" d="M96.92,-191.4C95.39,-182.37 93.71,-172.41 92.38,-164.58"/>
<polygon fill="midnightblue" stroke="midnightblue" points="93.49,-192.12 98.61,-201.4 100.4,-190.95 93.49,-192.12"/>
</g>
<!-- Node4 -->
<g id="node4" class="node">
<title>Node4</title>
<g id="a_node4"><a xlink:href="extrapolation_8hpp.html" target="_top" xlink:title=" ">
<polygon fill="white" stroke="black" points="0,-67.5 0,-97.5 134,-97.5 134,-67.5 0,-67.5"/>
<text text-anchor="start" x="8" y="-85.5" font-family="Helvetica,sans-Serif" font-size="10.00">include/mini/polynomial</text>
<text text-anchor="middle" x="67" y="-74.5" font-family="Helvetica,sans-Serif" font-size="10.00">/extrapolation.hpp</text>
</a>
</g>
</g>
<!-- Node3&#45;&gt;Node4 -->
<g id="edge3" class="edge">
<title>Node3&#45;&gt;Node4</title>
<path fill="none" stroke="midnightblue" d="M81.58,-124.7C78.35,-115.59 74.78,-105.49 71.98,-97.58"/>
<polygon fill="midnightblue" stroke="midnightblue" points="78.37,-126.14 85.01,-134.4 84.97,-123.8 78.37,-126.14"/>
</g>
<!-- Node5&#45;&gt;Node6 -->
<g id="edge5" class="edge">
<title>Node5&#45;&gt;Node6</title>
<path fill="none" stroke="midnightblue" d="M270.38,-195.45C284.53,-185.45 301.31,-173.6 314.08,-164.58"/>
<polygon fill="midnightblue" stroke="midnightblue" points="268.11,-192.77 261.96,-201.4 272.15,-198.48 268.11,-192.77"/>
</g>
<!-- Node7 -->
<g id="node7" class="node">
<title>Node7</title>
<g id="a_node7"><a xlink:href="spatial_2dg_2lobatto_8hpp.html" target="_top" xlink:title=" ">
<polygon fill="white" stroke="black" points="152.5,-67.5 152.5,-97.5 265.5,-97.5 265.5,-67.5 152.5,-67.5"/>
<text text-anchor="start" x="160.5" y="-85.5" font-family="Helvetica,sans-Serif" font-size="10.00">include/mini/spatial</text>
<text text-anchor="middle" x="209" y="-74.5" font-family="Helvetica,sans-Serif" font-size="10.00">/dg/lobatto.hpp</text>
</a>
</g>
</g>
<!-- Node6&#45;&gt;Node7 -->
<g id="edge6" class="edge">
<title>Node6&#45;&gt;Node7</title>
<path fill="none" stroke="midnightblue" d="M297.87,-129.71C278.16,-119.46 254.16,-106.98 236.07,-97.58"/>
<polygon fill="midnightblue" stroke="midnightblue" points="296.39,-132.89 306.88,-134.4 299.62,-126.68 296.39,-132.89"/>
</g>
<!-- Node8 -->
<g id="node8" class="node">
<title>Node8</title>
<g id="a_node8"><a xlink:href="fr_2general_8hpp.html" target="_top" xlink:title=" ">
<polygon fill="white" stroke="black" points="283.5,-67.5 283.5,-97.5 396.5,-97.5 396.5,-67.5 283.5,-67.5"/>
<text text-anchor="start" x="291.5" y="-85.5" font-family="Helvetica,sans-Serif" font-size="10.00">include/mini/spatial</text>
<text text-anchor="middle" x="340" y="-74.5" font-family="Helvetica,sans-Serif" font-size="10.00">/fr/general.hpp</text>
</a>
</g>
</g>
<!-- Node6&#45;&gt;Node8 -->
<g id="edge7" class="edge">
<title>Node6&#45;&gt;Node8</title>
<path fill="none" stroke="midnightblue" d="M336.22,-124.4C337.06,-115.37 337.98,-105.41 338.7,-97.58"/>
<polygon fill="midnightblue" stroke="midnightblue" points="332.74,-124.12 335.3,-134.4 339.71,-124.76 332.74,-124.12"/>
</g>
<!-- Node9 -->
<g id="node9" class="node">
<title>Node9</title>
<g id="a_node9"><a xlink:href="spatial_2fr_2lobatto_8hpp.html" target="_top" xlink:title=" ">
<polygon fill="white" stroke="black" points="325.5,-0.5 325.5,-30.5 438.5,-30.5 438.5,-0.5 325.5,-0.5"/>
<text text-anchor="start" x="333.5" y="-18.5" font-family="Helvetica,sans-Serif" font-size="10.00">include/mini/spatial</text>
<text text-anchor="middle" x="382" y="-7.5" font-family="Helvetica,sans-Serif" font-size="10.00">/fr/lobatto.hpp</text>
</a>
</g>
</g>
<!-- Node6&#45;&gt;Node9 -->
<g id="edge9" class="edge">
<title>Node6&#45;&gt;Node9</title>
<path fill="none" stroke="midnightblue" d="M374.82,-129.04C386.75,-121.18 398.36,-110.87 405,-98 416.39,-75.92 402.72,-47.47 392.11,-30.69"/>
<polygon fill="midnightblue" stroke="midnightblue" points="372.86,-126.14 366.15,-134.34 376.51,-132.12 372.86,-126.14"/>
</g>
<!-- Node8&#45;&gt;Node9 -->
<g id="edge8" class="edge">
<title>Node8&#45;&gt;Node9</title>
<path fill="none" stroke="midnightblue" d="M354.62,-58.87C360.7,-49.46 367.57,-38.83 372.9,-30.58"/>
<polygon fill="midnightblue" stroke="midnightblue" points="351.6,-57.1 349.11,-67.4 357.48,-60.9 351.6,-57.1"/>
</g>
</g>
</svg>
