<?xml version="1.0" encoding="UTF-8" standalone="no"?>
<!DOCTYPE svg PUBLIC "-//W3C//DTD SVG 1.1//EN"
 "http://www.w3.org/Graphics/SVG/1.1/DTD/svg11.dtd">
<!-- Generated by graphviz version 2.43.0 (0)
 -->
<!-- Title: include/mini/integrator/cell.hpp Pages: 1 -->
<svg width="987pt" height="307pt"
 viewBox="0.00 0.00 987.00 307.00" xmlns="http://www.w3.org/2000/svg" xmlns:xlink="http://www.w3.org/1999/xlink">
<g id="graph0" class="graph" transform="scale(1 1) rotate(0) translate(4 303)">
<title>include/mini/integrator/cell.hpp</title>
<polygon fill="white" stroke="transparent" points="-4,4 -4,-303 983,-303 983,4 -4,4"/>
<!-- Node1 -->
<g id="node1" class="node">
<title>Node1</title>
<g id="a_node1"><a xlink:title=" ">
<polygon fill="#bfbfbf" stroke="black" points="391,-268.5 391,-298.5 519,-298.5 519,-268.5 391,-268.5"/>
<text text-anchor="start" x="399" y="-286.5" font-family="Helvetica,sans-Serif" font-size="10.00">include/mini/integrator</text>
<text text-anchor="middle" x="455" y="-275.5" font-family="Helvetica,sans-Serif" font-size="10.00">/cell.hpp</text>
</a>
</g>
</g>
<!-- Node2 -->
<g id="node2" class="node">
<title>Node2</title>
<g id="a_node2"><a xlink:href="basis_2linear_8hpp.html" target="_top" xlink:title=" ">
<polygon fill="white" stroke="black" points="67.5,-201.5 67.5,-231.5 172.5,-231.5 172.5,-201.5 67.5,-201.5"/>
<text text-anchor="start" x="75.5" y="-219.5" font-family="Helvetica,sans-Serif" font-size="10.00">include/mini/basis</text>
<text text-anchor="middle" x="120" y="-208.5" font-family="Helvetica,sans-Serif" font-size="10.00">/linear.hpp</text>
</a>
</g>
</g>
<!-- Node1&#45;&gt;Node2 -->
<g id="edge1" class="edge">
<title>Node1&#45;&gt;Node2</title>
<path fill="none" stroke="midnightblue" d="M380.91,-268.12C317.82,-255.88 228.73,-238.6 172.69,-227.72"/>
<polygon fill="midnightblue" stroke="midnightblue" points="380.32,-271.58 390.81,-270.04 381.65,-264.7 380.32,-271.58"/>
</g>
<!-- Node5 -->
<g id="node5" class="node">
<title>Node5</title>
<g id="a_node5"><a xlink:href="integrator_2hexahedron_8hpp.html" target="_top" xlink:title=" ">
<polygon fill="white" stroke="black" points="207,-201.5 207,-231.5 335,-231.5 335,-201.5 207,-201.5"/>
<text text-anchor="start" x="215" y="-219.5" font-family="Helvetica,sans-Serif" font-size="10.00">include/mini/integrator</text>
<text text-anchor="middle" x="271" y="-208.5" font-family="Helvetica,sans-Serif" font-size="10.00">/hexahedron.hpp</text>
</a>
</g>
</g>
<!-- Node1&#45;&gt;Node5 -->
<g id="edge4" class="edge">
<title>Node1&#45;&gt;Node5</title>
<path fill="none" stroke="midnightblue" d="M405.33,-264.96C375.7,-254.48 338.56,-241.37 310.85,-231.58"/>
<polygon fill="midnightblue" stroke="midnightblue" points="404.48,-268.37 415.07,-268.4 406.81,-261.76 404.48,-268.37"/>
</g>
<!-- Node7 -->
<g id="node7" class="node">
<title>Node7</title>
<g id="a_node7"><a xlink:href="polynomial_2hexahedron_8hpp.html" target="_top" xlink:title=" ">
<polygon fill="white" stroke="black" points="334,-134.5 334,-164.5 468,-164.5 468,-134.5 334,-134.5"/>
<text text-anchor="start" x="342" y="-152.5" font-family="Helvetica,sans-Serif" font-size="10.00">include/mini/polynomial</text>
<text text-anchor="middle" x="401" y="-141.5" font-family="Helvetica,sans-Serif" font-size="10.00">/hexahedron.hpp</text>
</a>
</g>
</g>
<!-- Node1&#45;&gt;Node7 -->
<g id="edge15" class="edge">
<title>Node1&#45;&gt;Node7</title>
<path fill="none" stroke="midnightblue" d="M412.74,-263.08C400.59,-255.25 388.79,-244.96 382,-232 370.53,-210.12 382.67,-181.36 392.13,-164.51"/>
<polygon fill="midnightblue" stroke="midnightblue" points="411.21,-266.23 421.59,-268.34 414.79,-260.22 411.21,-266.23"/>
</g>
<!-- Node11 -->
<g id="node11" class="node">
<title>Node11</title>
<g id="a_node11"><a xlink:href="integrator_2pyramid_8hpp.html" target="_top" xlink:title=" ">
<polygon fill="white" stroke="black" points="391,-201.5 391,-231.5 519,-231.5 519,-201.5 391,-201.5"/>
<text text-anchor="start" x="399" y="-219.5" font-family="Helvetica,sans-Serif" font-size="10.00">include/mini/integrator</text>
<text text-anchor="middle" x="455" y="-208.5" font-family="Helvetica,sans-Serif" font-size="10.00">/pyramid.hpp</text>
</a>
</g>
</g>
<!-- Node1&#45;&gt;Node11 -->
<g id="edge11" class="edge">
<title>Node1&#45;&gt;Node11</title>
<path fill="none" stroke="midnightblue" d="M455,-258.11C455,-249.15 455,-239.32 455,-231.58"/>
<polygon fill="midnightblue" stroke="midnightblue" points="451.5,-258.4 455,-268.4 458.5,-258.4 451.5,-258.4"/>
</g>
<!-- Node12 -->
<g id="node12" class="node">
<title>Node12</title>
<g id="a_node12"><a xlink:href="integrator_2tetrahedron_8hpp.html" target="_top" xlink:title=" ">
<polygon fill="white" stroke="black" points="537,-201.5 537,-231.5 665,-231.5 665,-201.5 537,-201.5"/>
<text text-anchor="start" x="545" y="-219.5" font-family="Helvetica,sans-Serif" font-size="10.00">include/mini/integrator</text>
<text text-anchor="middle" x="601" y="-208.5" font-family="Helvetica,sans-Serif" font-size="10.00">/tetrahedron.hpp</text>
</a>
</g>
</g>
<!-- Node1&#45;&gt;Node12 -->
<g id="edge12" class="edge">
<title>Node1&#45;&gt;Node12</title>
<path fill="none" stroke="midnightblue" d="M495.95,-264.27C519.2,-253.92 547.87,-241.15 569.38,-231.58"/>
<polygon fill="midnightblue" stroke="midnightblue" points="494.39,-261.13 486.68,-268.4 497.24,-267.53 494.39,-261.13"/>
</g>
<!-- Node13 -->
<g id="node13" class="node">
<title>Node13</title>
<g id="a_node13"><a xlink:href="integrator_2wedge_8hpp.html" target="_top" xlink:title=" ">
<polygon fill="white" stroke="black" points="683,-201.5 683,-231.5 811,-231.5 811,-201.5 683,-201.5"/>
<text text-anchor="start" x="691" y="-219.5" font-family="Helvetica,sans-Serif" font-size="10.00">include/mini/integrator</text>
<text text-anchor="middle" x="747" y="-208.5" font-family="Helvetica,sans-Serif" font-size="10.00">/wedge.hpp</text>
</a>
</g>
</g>
<!-- Node1&#45;&gt;Node13 -->
<g id="edge13" class="edge">
<title>Node1&#45;&gt;Node13</title>
<path fill="none" stroke="midnightblue" d="M528.01,-266.25C575.95,-255.58 638.05,-241.75 683.86,-231.55"/>
<polygon fill="midnightblue" stroke="midnightblue" points="527,-262.89 518,-268.48 528.52,-269.72 527,-262.89"/>
</g>
<!-- Node14 -->
<g id="node14" class="node">
<title>Node14</title>
<g id="a_node14"><a xlink:href="part_8hpp.html" target="_top" xlink:title=" ">
<polygon fill="white" stroke="black" points="829,-207 829,-226 979,-226 979,-207 829,-207"/>
<text text-anchor="middle" x="904" y="-214" font-family="Helvetica,sans-Serif" font-size="10.00">include/mini/mesh/part.hpp</text>
</a>
</g>
</g>
<!-- Node1&#45;&gt;Node14 -->
<g id="edge14" class="edge">
<title>Node1&#45;&gt;Node14</title>
<path fill="none" stroke="midnightblue" d="M529.18,-272.98C603,-263.32 719.48,-247.63 820,-232 831.7,-230.18 844.29,-228.08 856.07,-226.06"/>
<polygon fill="midnightblue" stroke="midnightblue" points="528.51,-269.53 519.05,-274.3 529.42,-276.47 528.51,-269.53"/>
</g>
<!-- Node3 -->
<g id="node3" class="node">
<title>Node3</title>
<g id="a_node3"><a xlink:href="projection_8hpp.html" target="_top" xlink:title=" ">
<polygon fill="white" stroke="black" points="0,-134.5 0,-164.5 134,-164.5 134,-134.5 0,-134.5"/>
<text text-anchor="start" x="8" y="-152.5" font-family="Helvetica,sans-Serif" font-size="10.00">include/mini/polynomial</text>
<text text-anchor="middle" x="67" y="-141.5" font-family="Helvetica,sans-Serif" font-size="10.00">/projection.hpp</text>
</a>
</g>
</g>
<!-- Node2&#45;&gt;Node3 -->
<g id="edge2" class="edge">
<title>Node2&#45;&gt;Node3</title>
<path fill="none" stroke="midnightblue" d="M102.02,-193.45C94.23,-183.9 85.35,-173 78.48,-164.58"/>
<polygon fill="midnightblue" stroke="midnightblue" points="99.47,-195.86 108.5,-201.4 104.89,-191.43 99.47,-195.86"/>
</g>
<!-- Node4 -->
<g id="node4" class="node">
<title>Node4</title>
<g id="a_node4"><a xlink:href="extrapolation_8hpp.html" target="_top" xlink:title=" ">
<polygon fill="white" stroke="black" points="0,-67.5 0,-97.5 134,-97.5 134,-67.5 0,-67.5"/>
<text text-anchor="start" x="8" y="-85.5" font-family="Helvetica,sans-Serif" font-size="10.00">include/mini/polynomial</text>
<text text-anchor="middle" x="67" y="-74.5" font-family="Helvetica,sans-Serif" font-size="10.00">/extrapolation.hpp</text>
</a>
</g>
</g>
<!-- Node3&#45;&gt;Node4 -->
<g id="edge3" class="edge">
<title>Node3&#45;&gt;Node4</title>
<path fill="none" stroke="midnightblue" d="M67,-124.11C67,-115.15 67,-105.32 67,-97.58"/>
<polygon fill="midnightblue" stroke="midnightblue" points="63.5,-124.4 67,-134.4 70.5,-124.4 63.5,-124.4"/>
</g>
<!-- Node6 -->
<g id="node6" class="node">
<title>Node6</title>
<g id="a_node6"><a xlink:href="quality_8hpp.html" target="_top" xlink:title=" ">
<polygon fill="white" stroke="black" points="152.5,-140 152.5,-159 315.5,-159 315.5,-140 152.5,-140"/>
<text text-anchor="middle" x="234" y="-147" font-family="Helvetica,sans-Serif" font-size="10.00">include/mini/mesh/quality.hpp</text>
</a>
</g>
</g>
<!-- Node5&#45;&gt;Node6 -->
<g id="edge5" class="edge">
<title>Node5&#45;&gt;Node6</title>
<path fill="none" stroke="midnightblue" d="M257.98,-192.63C251.4,-181.07 243.8,-167.71 238.95,-159.19"/>
<polygon fill="midnightblue" stroke="midnightblue" points="254.98,-194.44 262.97,-201.4 261.07,-190.97 254.98,-194.44"/>
</g>
<!-- Node5&#45;&gt;Node7 -->
<g id="edge6" class="edge">
<title>Node5&#45;&gt;Node7</title>
<path fill="none" stroke="midnightblue" d="M308.29,-196.85C328.85,-186.58 353.95,-174.03 372.85,-164.58"/>
<polygon fill="midnightblue" stroke="midnightblue" points="306.59,-193.79 299.21,-201.4 309.72,-200.05 306.59,-193.79"/>
</g>
<!-- Node8 -->
<g id="node8" class="node">
<title>Node8</title>
<g id="a_node8"><a xlink:href="spatial_2dg_2lobatto_8hpp.html" target="_top" xlink:title=" ">
<polygon fill="white" stroke="black" points="213.5,-67.5 213.5,-97.5 326.5,-97.5 326.5,-67.5 213.5,-67.5"/>
<text text-anchor="start" x="221.5" y="-85.5" font-family="Helvetica,sans-Serif" font-size="10.00">include/mini/spatial</text>
<text text-anchor="middle" x="270" y="-74.5" font-family="Helvetica,sans-Serif" font-size="10.00">/dg/lobatto.hpp</text>
</a>
</g>
</g>
<!-- Node7&#45;&gt;Node8 -->
<g id="edge7" class="edge">
<title>Node7&#45;&gt;Node8</title>
<path fill="none" stroke="midnightblue" d="M363.42,-129.85C342.71,-119.58 317.41,-107.03 298.37,-97.58"/>
<polygon fill="midnightblue" stroke="midnightblue" points="362.06,-133.09 372.57,-134.4 365.17,-126.82 362.06,-133.09"/>
</g>
<!-- Node9 -->
<g id="node9" class="node">
<title>Node9</title>
<g id="a_node9"><a xlink:href="fr_2general_8hpp.html" target="_top" xlink:title=" ">
<polygon fill="white" stroke="black" points="344.5,-67.5 344.5,-97.5 457.5,-97.5 457.5,-67.5 344.5,-67.5"/>
<text text-anchor="start" x="352.5" y="-85.5" font-family="Helvetica,sans-Serif" font-size="10.00">include/mini/spatial</text>
<text text-anchor="middle" x="401" y="-74.5" font-family="Helvetica,sans-Serif" font-size="10.00">/fr/general.hpp</text>
</a>
</g>
</g>
<!-- Node7&#45;&gt;Node9 -->
<g id="edge8" class="edge">
<title>Node7&#45;&gt;Node9</title>
<path fill="none" stroke="midnightblue" d="M401,-124.11C401,-115.15 401,-105.32 401,-97.58"/>
<polygon fill="midnightblue" stroke="midnightblue" points="397.5,-124.4 401,-134.4 404.5,-124.4 397.5,-124.4"/>
</g>
<!-- Node10 -->
<g id="node10" class="node">
<title>Node10</title>
<g id="a_node10"><a xlink:href="spatial_2fr_2lobatto_8hpp.html" target="_top" xlink:title=" ">
<polygon fill="white" stroke="black" points="386.5,-0.5 386.5,-30.5 499.5,-30.5 499.5,-0.5 386.5,-0.5"/>
<text text-anchor="start" x="394.5" y="-18.5" font-family="Helvetica,sans-Serif" font-size="10.00">include/mini/spatial</text>
<text text-anchor="middle" x="443" y="-7.5" font-family="Helvetica,sans-Serif" font-size="10.00">/fr/lobatto.hpp</text>
</a>
</g>
</g>
<!-- Node7&#45;&gt;Node10 -->
<g id="edge10" class="edge">
<title>Node7&#45;&gt;Node10</title>
<path fill="none" stroke="midnightblue" d="M438.5,-128.83C449.78,-120.88 460.79,-110.58 467,-98 478.04,-75.65 464.04,-47.29 453.26,-30.6"/>
<polygon fill="midnightblue" stroke="midnightblue" points="436.37,-126.05 429.91,-134.45 440.2,-131.91 436.37,-126.05"/>
</g>
<!-- Node9&#45;&gt;Node10 -->
<g id="edge9" class="edge">
<title>Node9&#45;&gt;Node10</title>
<path fill="none" stroke="midnightblue" d="M415.62,-58.87C421.7,-49.46 428.57,-38.83 433.9,-30.58"/>
<polygon fill="midnightblue" stroke="midnightblue" points="412.6,-57.1 410.11,-67.4 418.48,-60.9 412.6,-57.1"/>
</g>
</g>
</svg>
