<?xml version="1.0" encoding="UTF-8" standalone="no"?>
<!DOCTYPE svg PUBLIC "-//W3C//DTD SVG 1.1//EN"
 "http://www.w3.org/Graphics/SVG/1.1/DTD/svg11.dtd">
<!-- Generated by graphviz version 2.43.0 (0)
 -->
<!-- Title: include/mini/basis/lagrange.hpp Pages: 1 -->
<svg width="655pt" height="207pt"
 viewBox="0.00 0.00 655.28 207.00" xmlns="http://www.w3.org/2000/svg" xmlns:xlink="http://www.w3.org/1999/xlink">
<g id="graph0" class="graph" transform="scale(1 1) rotate(0) translate(4 203)">
<title>include/mini/basis/lagrange.hpp</title>
<polygon fill="white" stroke="transparent" points="-4,4 -4,-203 651.28,-203 651.28,4 -4,4"/>
<!-- Node1 -->
<g id="node1" class="node">
<title>Node1</title>
<g id="a_node1"><a xlink:title=" ">
<polygon fill="#bfbfbf" stroke="black" points="262.78,-168.5 262.78,-198.5 367.78,-198.5 367.78,-168.5 262.78,-168.5"/>
<text text-anchor="start" x="270.78" y="-186.5" font-family="Helvetica,sans-Serif" font-size="10.00">include/mini/basis</text>
<text text-anchor="middle" x="315.28" y="-175.5" font-family="Helvetica,sans-Serif" font-size="10.00">/lagrange.hpp</text>
</a>
</g>
</g>
<!-- Node2 -->
<g id="node2" class="node">
<title>Node2</title>
<g id="a_node2"><a xlink:title=" ">
<polygon fill="white" stroke="#bfbfbf" points="33.28,-56.5 33.28,-75.5 93.28,-75.5 93.28,-56.5 33.28,-56.5"/>
<text text-anchor="middle" x="63.28" y="-63.5" font-family="Helvetica,sans-Serif" font-size="10.00">concepts</text>
</a>
</g>
</g>
<!-- Node1&#45;&gt;Node2 -->
<g id="edge1" class="edge">
<title>Node1&#45;&gt;Node2</title>
<path fill="none" stroke="midnightblue" d="M262.47,-174.52C224.96,-167.28 174.35,-154.24 134.28,-132 111.56,-119.39 90.25,-98.12 77.01,-83.36"/>
<polygon fill="midnightblue" stroke="midnightblue" points="79.41,-80.78 70.2,-75.54 74.13,-85.38 79.41,-80.78"/>
</g>
<!-- Node3 -->
<g id="node3" class="node">
<title>Node3</title>
<g id="a_node3"><a xlink:title=" ">
<polygon fill="white" stroke="#bfbfbf" points="12.28,-112.5 12.28,-131.5 62.28,-131.5 62.28,-112.5 12.28,-112.5"/>
<text text-anchor="middle" x="37.28" y="-119.5" font-family="Helvetica,sans-Serif" font-size="10.00">ranges</text>
</a>
</g>
</g>
<!-- Node1&#45;&gt;Node3 -->
<g id="edge2" class="edge">
<title>Node1&#45;&gt;Node3</title>
<path fill="none" stroke="midnightblue" d="M262.53,-171.65C214.06,-161.61 140.26,-146.14 76.28,-132 75.02,-131.72 73.74,-131.44 72.44,-131.15"/>
<polygon fill="midnightblue" stroke="midnightblue" points="72.96,-127.68 62.44,-128.88 71.42,-134.5 72.96,-127.68"/>
</g>
<!-- Node4 -->
<g id="node4" class="node">
<title>Node4</title>
<g id="a_node4"><a xlink:title=" ">
<polygon fill="white" stroke="#bfbfbf" points="111.28,-56.5 111.28,-75.5 163.28,-75.5 163.28,-56.5 111.28,-56.5"/>
<text text-anchor="middle" x="137.28" y="-63.5" font-family="Helvetica,sans-Serif" font-size="10.00">cassert</text>
</a>
</g>
</g>
<!-- Node1&#45;&gt;Node4 -->
<g id="edge3" class="edge">
<title>Node1&#45;&gt;Node4</title>
<path fill="none" stroke="midnightblue" d="M262.68,-180.88C224.93,-176.77 175.85,-164.87 147.28,-132 136.4,-119.49 134.64,-100.26 135.16,-85.96"/>
<polygon fill="midnightblue" stroke="midnightblue" points="138.67,-86.01 135.93,-75.77 131.69,-85.48 138.67,-86.01"/>
</g>
<!-- Node5 -->
<g id="node5" class="node">
<title>Node5</title>
<g id="a_node5"><a xlink:title=" ">
<polygon fill="white" stroke="#bfbfbf" points="333.78,-0.5 333.78,-19.5 380.78,-19.5 380.78,-0.5 333.78,-0.5"/>
<text text-anchor="middle" x="357.28" y="-7.5" font-family="Helvetica,sans-Serif" font-size="10.00">cmath</text>
</a>
</g>
</g>
<!-- Node1&#45;&gt;Node5 -->
<g id="edge4" class="edge">
<title>Node1&#45;&gt;Node5</title>
<path fill="none" stroke="midnightblue" d="M262.56,-181.88C182.46,-179.69 35.95,-170.39 3.28,-132 -2.48,-125.23 1.69,-120.75 3.28,-112 8.02,-85.85 3.49,-72.57 24.28,-56 69.92,-19.6 247.76,-12.61 323.17,-11.29"/>
<polygon fill="midnightblue" stroke="midnightblue" points="323.58,-14.79 333.52,-11.14 323.47,-7.79 323.58,-14.79"/>
</g>
<!-- Node6 -->
<g id="node6" class="node">
<title>Node6</title>
<g id="a_node6"><a xlink:title=" ">
<polygon fill="white" stroke="#bfbfbf" points="583.28,-0.5 583.28,-19.5 647.28,-19.5 647.28,-0.5 583.28,-0.5"/>
<text text-anchor="middle" x="615.28" y="-7.5" font-family="Helvetica,sans-Serif" font-size="10.00">algorithm</text>
</a>
</g>
</g>
<!-- Node1&#45;&gt;Node6 -->
<g id="edge5" class="edge">
<title>Node1&#45;&gt;Node6</title>
<path fill="none" stroke="midnightblue" d="M368.07,-179.29C437.59,-173.98 554.62,-160.92 585.28,-132 613.53,-105.35 616.91,-56.61 616.41,-29.84"/>
<polygon fill="midnightblue" stroke="midnightblue" points="619.9,-29.4 616,-19.54 612.9,-29.67 619.9,-29.4"/>
</g>
<!-- Node7 -->
<g id="node7" class="node">
<title>Node7</title>
<g id="a_node7"><a xlink:title=" ">
<polygon fill="white" stroke="#bfbfbf" points="294.28,-112.5 294.28,-131.5 336.28,-131.5 336.28,-112.5 294.28,-112.5"/>
<text text-anchor="middle" x="315.28" y="-119.5" font-family="Helvetica,sans-Serif" font-size="10.00">array</text>
</a>
</g>
</g>
<!-- Node1&#45;&gt;Node7 -->
<g id="edge6" class="edge">
<title>Node1&#45;&gt;Node7</title>
<path fill="none" stroke="midnightblue" d="M315.28,-168.4C315.28,-160.47 315.28,-150.46 315.28,-141.86"/>
<polygon fill="midnightblue" stroke="midnightblue" points="318.78,-141.66 315.28,-131.66 311.78,-141.66 318.78,-141.66"/>
</g>
<!-- Node8 -->
<g id="node8" class="node">
<title>Node8</title>
<g id="a_node8"><a xlink:title=" ">
<polygon fill="white" stroke="#bfbfbf" points="354.78,-112.5 354.78,-131.5 437.78,-131.5 437.78,-112.5 354.78,-112.5"/>
<text text-anchor="middle" x="396.28" y="-119.5" font-family="Helvetica,sans-Serif" font-size="10.00">initializer_list</text>
</a>
</g>
</g>
<!-- Node1&#45;&gt;Node8 -->
<g id="edge7" class="edge">
<title>Node1&#45;&gt;Node8</title>
<path fill="none" stroke="midnightblue" d="M334.47,-168.4C347.09,-159.13 363.57,-147.03 376.34,-137.65"/>
<polygon fill="midnightblue" stroke="midnightblue" points="378.5,-140.4 384.49,-131.66 374.36,-134.76 378.5,-140.4"/>
</g>
<!-- Node9 -->
<g id="node9" class="node">
<title>Node9</title>
<g id="a_node9"><a xlink:title=" ">
<polygon fill="white" stroke="#bfbfbf" points="455.78,-112.5 455.78,-131.5 496.78,-131.5 496.78,-112.5 455.78,-112.5"/>
<text text-anchor="middle" x="476.28" y="-119.5" font-family="Helvetica,sans-Serif" font-size="10.00">tuple</text>
</a>
</g>
</g>
<!-- Node1&#45;&gt;Node9 -->
<g id="edge8" class="edge">
<title>Node1&#45;&gt;Node9</title>
<path fill="none" stroke="midnightblue" d="M353.43,-168.4C381.8,-157.92 419.97,-143.81 446.19,-134.12"/>
<polygon fill="midnightblue" stroke="midnightblue" points="447.44,-137.39 455.61,-130.64 445.02,-130.82 447.44,-137.39"/>
</g>
<!-- Node10 -->
<g id="node10" class="node">
<title>Node10</title>
<g id="a_node10"><a xlink:title=" ">
<polygon fill="white" stroke="#bfbfbf" points="514.78,-112.5 514.78,-131.5 559.78,-131.5 559.78,-112.5 514.78,-112.5"/>
<text text-anchor="middle" x="537.28" y="-119.5" font-family="Helvetica,sans-Serif" font-size="10.00">utility</text>
</a>
</g>
</g>
<!-- Node1&#45;&gt;Node10 -->
<g id="edge9" class="edge">
<title>Node1&#45;&gt;Node10</title>
<path fill="none" stroke="midnightblue" d="M368.16,-168.66C404.07,-159.21 452.89,-146.28 504.83,-132.09"/>
<polygon fill="midnightblue" stroke="midnightblue" points="505.84,-135.45 514.56,-129.43 503.99,-128.69 505.84,-135.45"/>
</g>
<!-- Node11 -->
<g id="node11" class="node">
<title>Node11</title>
<g id="a_node11"><a xlink:href="algebra_2eigen_8hpp.html" target="_top" xlink:title=" ">
<polygon fill="white" stroke="black" points="419.78,-56.5 419.78,-75.5 548.78,-75.5 548.78,-56.5 419.78,-56.5"/>
<text text-anchor="middle" x="484.28" y="-63.5" font-family="Helvetica,sans-Serif" font-size="10.00">mini/algebra/eigen.hpp</text>
</a>
</g>
</g>
<!-- Node1&#45;&gt;Node11 -->
<g id="edge10" class="edge">
<title>Node1&#45;&gt;Node11</title>
<path fill="none" stroke="midnightblue" d="M368.06,-179.61C434.63,-174.74 543.46,-162.26 568.28,-132 586.37,-109.94 551.9,-90.79 521.79,-79.11"/>
<polygon fill="midnightblue" stroke="midnightblue" points="522.84,-75.76 512.25,-75.58 520.41,-82.33 522.84,-75.76"/>
</g>
<!-- Node14 -->
<g id="node14" class="node">
<title>Node14</title>
<g id="a_node14"><a xlink:href="taylor_8hpp.html" target="_top" xlink:title=" ">
<polygon fill="white" stroke="black" points="156.78,-112.5 156.78,-131.5 275.78,-131.5 275.78,-112.5 156.78,-112.5"/>
<text text-anchor="middle" x="216.28" y="-119.5" font-family="Helvetica,sans-Serif" font-size="10.00">mini/basis/taylor.hpp</text>
</a>
</g>
</g>
<!-- Node1&#45;&gt;Node14 -->
<g id="edge15" class="edge">
<title>Node1&#45;&gt;Node14</title>
<path fill="none" stroke="midnightblue" d="M291.82,-168.4C275.95,-158.86 255.09,-146.32 239.31,-136.84"/>
<polygon fill="midnightblue" stroke="midnightblue" points="241.06,-133.81 230.68,-131.66 237.45,-139.81 241.06,-133.81"/>
</g>
<!-- Node11&#45;&gt;Node5 -->
<g id="edge12" class="edge">
<title>Node11&#45;&gt;Node5</title>
<path fill="none" stroke="midnightblue" d="M464.15,-56.44C443.25,-47.56 410.34,-33.56 386.56,-23.45"/>
<polygon fill="midnightblue" stroke="midnightblue" points="387.88,-20.21 377.31,-19.52 385.14,-26.65 387.88,-20.21"/>
</g>
<!-- Node11&#45;&gt;Node6 -->
<g id="edge11" class="edge">
<title>Node11&#45;&gt;Node6</title>
<path fill="none" stroke="midnightblue" d="M505.03,-56.44C526.59,-47.56 560.54,-33.56 585.07,-23.45"/>
<polygon fill="midnightblue" stroke="midnightblue" points="586.71,-26.56 594.62,-19.52 584.04,-20.09 586.71,-26.56"/>
</g>
<!-- Node12 -->
<g id="node12" class="node">
<title>Node12</title>
<g id="a_node12"><a xlink:title=" ">
<polygon fill="white" stroke="#bfbfbf" points="413.78,-0.5 413.78,-19.5 462.78,-19.5 462.78,-0.5 413.78,-0.5"/>
<text text-anchor="middle" x="438.28" y="-7.5" font-family="Helvetica,sans-Serif" font-size="10.00">cstdlib</text>
</a>
</g>
</g>
<!-- Node11&#45;&gt;Node12 -->
<g id="edge13" class="edge">
<title>Node11&#45;&gt;Node12</title>
<path fill="none" stroke="midnightblue" d="M476.68,-56.08C470.05,-48.3 460.26,-36.8 452.22,-27.37"/>
<polygon fill="midnightblue" stroke="midnightblue" points="454.88,-25.09 445.73,-19.75 449.55,-29.63 454.88,-25.09"/>
</g>
<!-- Node13 -->
<g id="node13" class="node">
<title>Node13</title>
<g id="a_node13"><a xlink:title=" ">
<polygon fill="white" stroke="#bfbfbf" points="481.28,-0.5 481.28,-19.5 555.28,-19.5 555.28,-0.5 481.28,-0.5"/>
<text text-anchor="middle" x="518.28" y="-7.5" font-family="Helvetica,sans-Serif" font-size="10.00">Eigen/Eigen</text>
</a>
</g>
</g>
<!-- Node11&#45;&gt;Node13 -->
<g id="edge14" class="edge">
<title>Node11&#45;&gt;Node13</title>
<path fill="none" stroke="midnightblue" d="M489.89,-56.08C494.64,-48.53 501.6,-37.49 507.43,-28.23"/>
<polygon fill="midnightblue" stroke="midnightblue" points="510.4,-30.08 512.77,-19.75 504.48,-26.35 510.4,-30.08"/>
</g>
<!-- Node14&#45;&gt;Node2 -->
<g id="edge16" class="edge">
<title>Node14&#45;&gt;Node2</title>
<path fill="none" stroke="midnightblue" d="M192.03,-112.44C166.41,-103.4 125.79,-89.06 97.04,-78.92"/>
<polygon fill="midnightblue" stroke="midnightblue" points="98,-75.54 87.41,-75.52 95.67,-82.15 98,-75.54"/>
</g>
<!-- Node14&#45;&gt;Node4 -->
<g id="edge17" class="edge">
<title>Node14&#45;&gt;Node4</title>
<path fill="none" stroke="midnightblue" d="M203.58,-112.32C191.38,-103.98 172.7,-91.21 158.27,-81.35"/>
<polygon fill="midnightblue" stroke="midnightblue" points="160.17,-78.41 149.94,-75.65 156.22,-84.19 160.17,-78.41"/>
</g>
<!-- Node14&#45;&gt;Node5 -->
<g id="edge18" class="edge">
<title>Node14&#45;&gt;Node5</title>
<path fill="none" stroke="midnightblue" d="M270.11,-112.44C293.92,-106.08 320.49,-95.06 338.28,-76 349.92,-63.52 354.47,-44.29 356.23,-29.98"/>
<polygon fill="midnightblue" stroke="midnightblue" points="359.73,-30.05 357.12,-19.78 352.76,-29.44 359.73,-30.05"/>
</g>
<!-- Node14&#45;&gt;Node11 -->
<g id="edge21" class="edge">
<title>Node14&#45;&gt;Node11</title>
<path fill="none" stroke="midnightblue" d="M258.74,-112.44C305.69,-102.98 381.35,-87.74 431.93,-77.55"/>
<polygon fill="midnightblue" stroke="midnightblue" points="432.9,-80.92 442.01,-75.52 431.52,-74.06 432.9,-80.92"/>
</g>
<!-- Node15 -->
<g id="node15" class="node">
<title>Node15</title>
<g id="a_node15"><a xlink:title=" ">
<polygon fill="white" stroke="#bfbfbf" points="269.28,-56.5 269.28,-75.5 329.28,-75.5 329.28,-56.5 269.28,-56.5"/>
<text text-anchor="middle" x="299.28" y="-63.5" font-family="Helvetica,sans-Serif" font-size="10.00">iostream</text>
</a>
</g>
</g>
<!-- Node14&#45;&gt;Node15 -->
<g id="edge19" class="edge">
<title>Node14&#45;&gt;Node15</title>
<path fill="none" stroke="midnightblue" d="M229.61,-112.32C242.44,-103.98 262.06,-91.21 277.22,-81.35"/>
<polygon fill="midnightblue" stroke="midnightblue" points="279.5,-84.04 285.97,-75.65 275.68,-78.17 279.5,-84.04"/>
</g>
<!-- Node16 -->
<g id="node16" class="node">
<title>Node16</title>
<g id="a_node16"><a xlink:title=" ">
<polygon fill="white" stroke="#bfbfbf" points="181.78,-56.5 181.78,-75.5 250.78,-75.5 250.78,-56.5 181.78,-56.5"/>
<text text-anchor="middle" x="216.28" y="-63.5" font-family="Helvetica,sans-Serif" font-size="10.00">type_traits</text>
</a>
</g>
</g>
<!-- Node14&#45;&gt;Node16 -->
<g id="edge20" class="edge">
<title>Node14&#45;&gt;Node16</title>
<path fill="none" stroke="midnightblue" d="M216.28,-112.08C216.28,-105.01 216.28,-94.86 216.28,-85.99"/>
<polygon fill="midnightblue" stroke="midnightblue" points="219.78,-85.75 216.28,-75.75 212.78,-85.75 219.78,-85.75"/>
</g>
</g>
</svg>
