<?xml version="1.0" encoding="UTF-8" standalone="no"?>
<!DOCTYPE svg PUBLIC "-//W3C//DTD SVG 1.1//EN"
 "http://www.w3.org/Graphics/SVG/1.1/DTD/svg11.dtd">
<!-- Generated by graphviz version 2.43.0 (0)
 -->
<!-- Title: include/mini/integrator/line.hpp Pages: 1 -->
<svg width="477pt" height="151pt"
 viewBox="0.00 0.00 476.50 151.00" xmlns="http://www.w3.org/2000/svg" xmlns:xlink="http://www.w3.org/1999/xlink">
<g id="graph0" class="graph" transform="scale(1 1) rotate(0) translate(4 147)">
<title>include/mini/integrator/line.hpp</title>
<polygon fill="white" stroke="transparent" points="-4,4 -4,-147 472.5,-147 472.5,4 -4,4"/>
<!-- Node1 -->
<g id="node1" class="node">
<title>Node1</title>
<g id="a_node1"><a xlink:title=" ">
<polygon fill="#bfbfbf" stroke="black" points="188.5,-112.5 188.5,-142.5 316.5,-142.5 316.5,-112.5 188.5,-112.5"/>
<text text-anchor="start" x="196.5" y="-130.5" font-family="Helvetica,sans-Serif" font-size="10.00">include/mini/integrator</text>
<text text-anchor="middle" x="252.5" y="-119.5" font-family="Helvetica,sans-Serif" font-size="10.00">/line.hpp</text>
</a>
</g>
</g>
<!-- Node2 -->
<g id="node2" class="node">
<title>Node2</title>
<g id="a_node2"><a xlink:title=" ">
<polygon fill="white" stroke="#bfbfbf" points="261,-0.5 261,-19.5 308,-19.5 308,-0.5 261,-0.5"/>
<text text-anchor="middle" x="284.5" y="-7.5" font-family="Helvetica,sans-Serif" font-size="10.00">cmath</text>
</a>
</g>
</g>
<!-- Node1&#45;&gt;Node2 -->
<g id="edge1" class="edge">
<title>Node1&#45;&gt;Node2</title>
<path fill="none" stroke="midnightblue" d="M256.42,-112.34C262.19,-91.53 272.96,-52.66 279.35,-29.58"/>
<polygon fill="midnightblue" stroke="midnightblue" points="282.8,-30.24 282.1,-19.67 276.06,-28.37 282.8,-30.24"/>
</g>
<!-- Node3 -->
<g id="node3" class="node">
<title>Node3</title>
<g id="a_node3"><a xlink:title=" ">
<polygon fill="white" stroke="#bfbfbf" points="187,-56.5 187,-75.5 256,-75.5 256,-56.5 187,-56.5"/>
<text text-anchor="middle" x="221.5" y="-63.5" font-family="Helvetica,sans-Serif" font-size="10.00">type_traits</text>
</a>
</g>
</g>
<!-- Node1&#45;&gt;Node3 -->
<g id="edge2" class="edge">
<title>Node1&#45;&gt;Node3</title>
<path fill="none" stroke="midnightblue" d="M245.15,-112.4C240.83,-104.11 235.33,-93.55 230.73,-84.71"/>
<polygon fill="midnightblue" stroke="midnightblue" points="233.74,-82.91 226.01,-75.66 227.53,-86.14 233.74,-82.91"/>
</g>
<!-- Node4 -->
<g id="node4" class="node">
<title>Node4</title>
<g id="a_node4"><a xlink:href="algebra_2eigen_8hpp.html" target="_top" xlink:title=" ">
<polygon fill="white" stroke="black" points="40,-56.5 40,-75.5 169,-75.5 169,-56.5 40,-56.5"/>
<text text-anchor="middle" x="104.5" y="-63.5" font-family="Helvetica,sans-Serif" font-size="10.00">mini/algebra/eigen.hpp</text>
</a>
</g>
</g>
<!-- Node1&#45;&gt;Node4 -->
<g id="edge3" class="edge">
<title>Node1&#45;&gt;Node4</title>
<path fill="none" stroke="midnightblue" d="M217.43,-112.4C192.48,-102.37 159.29,-89.03 135.36,-79.4"/>
<polygon fill="midnightblue" stroke="midnightblue" points="136.62,-76.14 126.04,-75.66 134.01,-82.64 136.62,-76.14"/>
</g>
<!-- Node8 -->
<g id="node8" class="node">
<title>Node8</title>
<g id="a_node8"><a xlink:href="legendre_8hpp.html" target="_top" xlink:title=" ">
<polygon fill="white" stroke="black" points="312.5,-56.5 312.5,-75.5 468.5,-75.5 468.5,-56.5 312.5,-56.5"/>
<text text-anchor="middle" x="390.5" y="-63.5" font-family="Helvetica,sans-Serif" font-size="10.00">mini/integrator/legendre.hpp</text>
</a>
</g>
</g>
<!-- Node1&#45;&gt;Node8 -->
<g id="edge8" class="edge">
<title>Node1&#45;&gt;Node8</title>
<path fill="none" stroke="midnightblue" d="M285.2,-112.4C308.25,-102.46 338.86,-89.26 361.13,-79.66"/>
<polygon fill="midnightblue" stroke="midnightblue" points="362.62,-82.83 370.42,-75.66 359.85,-76.4 362.62,-82.83"/>
</g>
<!-- Node4&#45;&gt;Node2 -->
<g id="edge5" class="edge">
<title>Node4&#45;&gt;Node2</title>
<path fill="none" stroke="midnightblue" d="M133.02,-56.44C165.09,-46.82 217.12,-31.21 251.07,-21.03"/>
<polygon fill="midnightblue" stroke="midnightblue" points="252.42,-24.28 260.99,-18.05 250.4,-17.57 252.42,-24.28"/>
</g>
<!-- Node5 -->
<g id="node5" class="node">
<title>Node5</title>
<g id="a_node5"><a xlink:title=" ">
<polygon fill="white" stroke="#bfbfbf" points="159.5,-0.5 159.5,-19.5 223.5,-19.5 223.5,-0.5 159.5,-0.5"/>
<text text-anchor="middle" x="191.5" y="-7.5" font-family="Helvetica,sans-Serif" font-size="10.00">algorithm</text>
</a>
</g>
</g>
<!-- Node4&#45;&gt;Node5 -->
<g id="edge4" class="edge">
<title>Node4&#45;&gt;Node5</title>
<path fill="none" stroke="midnightblue" d="M118.48,-56.32C132.05,-47.9 152.88,-34.97 168.82,-25.07"/>
<polygon fill="midnightblue" stroke="midnightblue" points="170.91,-27.9 177.56,-19.65 167.21,-21.95 170.91,-27.9"/>
</g>
<!-- Node6 -->
<g id="node6" class="node">
<title>Node6</title>
<g id="a_node6"><a xlink:title=" ">
<polygon fill="white" stroke="#bfbfbf" points="0,-0.5 0,-19.5 49,-19.5 49,-0.5 0,-0.5"/>
<text text-anchor="middle" x="24.5" y="-7.5" font-family="Helvetica,sans-Serif" font-size="10.00">cstdlib</text>
</a>
</g>
</g>
<!-- Node4&#45;&gt;Node6 -->
<g id="edge6" class="edge">
<title>Node4&#45;&gt;Node6</title>
<path fill="none" stroke="midnightblue" d="M91.65,-56.32C79.28,-47.98 60.37,-35.21 45.76,-25.35"/>
<polygon fill="midnightblue" stroke="midnightblue" points="47.57,-22.35 37.32,-19.65 43.65,-28.15 47.57,-22.35"/>
</g>
<!-- Node7 -->
<g id="node7" class="node">
<title>Node7</title>
<g id="a_node7"><a xlink:title=" ">
<polygon fill="white" stroke="#bfbfbf" points="67.5,-0.5 67.5,-19.5 141.5,-19.5 141.5,-0.5 67.5,-0.5"/>
<text text-anchor="middle" x="104.5" y="-7.5" font-family="Helvetica,sans-Serif" font-size="10.00">Eigen/Eigen</text>
</a>
</g>
</g>
<!-- Node4&#45;&gt;Node7 -->
<g id="edge7" class="edge">
<title>Node4&#45;&gt;Node7</title>
<path fill="none" stroke="midnightblue" d="M104.5,-56.08C104.5,-49.01 104.5,-38.86 104.5,-29.99"/>
<polygon fill="midnightblue" stroke="midnightblue" points="108,-29.75 104.5,-19.75 101,-29.75 108,-29.75"/>
</g>
<!-- Node8&#45;&gt;Node2 -->
<g id="edge10" class="edge">
<title>Node8&#45;&gt;Node2</title>
<path fill="none" stroke="midnightblue" d="M373.47,-56.32C356.47,-47.66 330.12,-34.24 310.51,-24.25"/>
<polygon fill="midnightblue" stroke="midnightblue" points="311.99,-21.08 301.49,-19.65 308.81,-27.31 311.99,-21.08"/>
</g>
<!-- Node9 -->
<g id="node9" class="node">
<title>Node9</title>
<g id="a_node9"><a xlink:title=" ">
<polygon fill="white" stroke="#bfbfbf" points="343.5,-0.5 343.5,-19.5 403.5,-19.5 403.5,-0.5 343.5,-0.5"/>
<text text-anchor="middle" x="373.5" y="-7.5" font-family="Helvetica,sans-Serif" font-size="10.00">concepts</text>
</a>
</g>
</g>
<!-- Node8&#45;&gt;Node9 -->
<g id="edge9" class="edge">
<title>Node8&#45;&gt;Node9</title>
<path fill="none" stroke="midnightblue" d="M387.69,-56.08C385.42,-48.85 382.13,-38.41 379.29,-29.4"/>
<polygon fill="midnightblue" stroke="midnightblue" points="382.6,-28.24 376.25,-19.75 375.92,-30.34 382.6,-28.24"/>
</g>
<!-- Node10 -->
<g id="node10" class="node">
<title>Node10</title>
<g id="a_node10"><a xlink:title=" ">
<polygon fill="white" stroke="#bfbfbf" points="421.5,-0.5 421.5,-19.5 463.5,-19.5 463.5,-0.5 421.5,-0.5"/>
<text text-anchor="middle" x="442.5" y="-7.5" font-family="Helvetica,sans-Serif" font-size="10.00">array</text>
</a>
</g>
</g>
<!-- Node8&#45;&gt;Node10 -->
<g id="edge11" class="edge">
<title>Node8&#45;&gt;Node10</title>
<path fill="none" stroke="midnightblue" d="M399.09,-56.08C406.66,-48.22 417.88,-36.57 427.01,-27.08"/>
<polygon fill="midnightblue" stroke="midnightblue" points="429.66,-29.38 434.07,-19.75 424.62,-24.53 429.66,-29.38"/>
</g>
</g>
</svg>
