<?xml version="1.0" encoding="UTF-8" standalone="no"?>
<!DOCTYPE svg PUBLIC "-//W3C//DTD SVG 1.1//EN"
 "http://www.w3.org/Graphics/SVG/1.1/DTD/svg11.dtd">
<!-- Generated by graphviz version 2.43.0 (0)
 -->
<!-- Title: include/mini/limiter/majority.hpp Pages: 1 -->
<svg width="348pt" height="151pt"
 viewBox="0.00 0.00 348.00 151.00" xmlns="http://www.w3.org/2000/svg" xmlns:xlink="http://www.w3.org/1999/xlink">
<g id="graph0" class="graph" transform="scale(1 1) rotate(0) translate(4 147)">
<title>include/mini/limiter/majority.hpp</title>
<polygon fill="white" stroke="transparent" points="-4,4 -4,-147 344,-147 344,4 -4,4"/>
<!-- Node1 -->
<g id="node1" class="node">
<title>Node1</title>
<g id="a_node1"><a xlink:title=" ">
<polygon fill="#bfbfbf" stroke="black" points="61,-112.5 61,-142.5 173,-142.5 173,-112.5 61,-112.5"/>
<text text-anchor="start" x="69" y="-130.5" font-family="Helvetica,sans-Serif" font-size="10.00">include/mini/limiter</text>
<text text-anchor="middle" x="117" y="-119.5" font-family="Helvetica,sans-Serif" font-size="10.00">/majority.hpp</text>
</a>
</g>
</g>
<!-- Node2 -->
<g id="node2" class="node">
<title>Node2</title>
<g id="a_node2"><a xlink:title=" ">
<polygon fill="white" stroke="#bfbfbf" points="0,-56.5 0,-75.5 52,-75.5 52,-56.5 0,-56.5"/>
<text text-anchor="middle" x="26" y="-63.5" font-family="Helvetica,sans-Serif" font-size="10.00">cassert</text>
</a>
</g>
</g>
<!-- Node1&#45;&gt;Node2 -->
<g id="edge1" class="edge">
<title>Node1&#45;&gt;Node2</title>
<path fill="none" stroke="midnightblue" d="M95.43,-112.4C81.12,-103.04 62.39,-90.79 47.99,-81.38"/>
<polygon fill="midnightblue" stroke="midnightblue" points="49.53,-78.2 39.24,-75.66 45.7,-84.06 49.53,-78.2"/>
</g>
<!-- Node3 -->
<g id="node3" class="node">
<title>Node3</title>
<g id="a_node3"><a xlink:title=" ">
<polygon fill="white" stroke="#bfbfbf" points="70.5,-56.5 70.5,-75.5 163.5,-75.5 163.5,-56.5 70.5,-56.5"/>
<text text-anchor="middle" x="117" y="-63.5" font-family="Helvetica,sans-Serif" font-size="10.00">unordered_map</text>
</a>
</g>
</g>
<!-- Node1&#45;&gt;Node3 -->
<g id="edge2" class="edge">
<title>Node1&#45;&gt;Node3</title>
<path fill="none" stroke="midnightblue" d="M117,-112.4C117,-104.47 117,-94.46 117,-85.86"/>
<polygon fill="midnightblue" stroke="midnightblue" points="120.5,-85.66 117,-75.66 113.5,-85.66 120.5,-85.66"/>
</g>
<!-- Node4 -->
<g id="node4" class="node">
<title>Node4</title>
<g id="a_node4"><a xlink:href="polynomial_2concept_8hpp.html" target="_top" xlink:title=" ">
<polygon fill="white" stroke="black" points="182,-56.5 182,-75.5 340,-75.5 340,-56.5 182,-56.5"/>
<text text-anchor="middle" x="261" y="-63.5" font-family="Helvetica,sans-Serif" font-size="10.00">mini/polynomial/concept.hpp</text>
</a>
</g>
</g>
<!-- Node1&#45;&gt;Node4 -->
<g id="edge3" class="edge">
<title>Node1&#45;&gt;Node4</title>
<path fill="none" stroke="midnightblue" d="M151.13,-112.4C175.29,-102.42 207.4,-89.15 230.67,-79.53"/>
<polygon fill="midnightblue" stroke="midnightblue" points="232.14,-82.71 240.05,-75.66 229.47,-76.24 232.14,-82.71"/>
</g>
<!-- Node5 -->
<g id="node5" class="node">
<title>Node5</title>
<g id="a_node5"><a xlink:title=" ">
<polygon fill="white" stroke="#bfbfbf" points="189,-0.5 189,-19.5 249,-19.5 249,-0.5 189,-0.5"/>
<text text-anchor="middle" x="219" y="-7.5" font-family="Helvetica,sans-Serif" font-size="10.00">concepts</text>
</a>
</g>
</g>
<!-- Node4&#45;&gt;Node5 -->
<g id="edge4" class="edge">
<title>Node4&#45;&gt;Node5</title>
<path fill="none" stroke="midnightblue" d="M254.06,-56.08C248.07,-48.38 239.25,-37.03 231.95,-27.65"/>
<polygon fill="midnightblue" stroke="midnightblue" points="234.71,-25.5 225.81,-19.75 229.18,-29.79 234.71,-25.5"/>
</g>
<!-- Node6 -->
<g id="node6" class="node">
<title>Node6</title>
<g id="a_node6"><a xlink:title=" ">
<polygon fill="white" stroke="#bfbfbf" points="267.5,-0.5 267.5,-19.5 336.5,-19.5 336.5,-0.5 267.5,-0.5"/>
<text text-anchor="middle" x="302" y="-7.5" font-family="Helvetica,sans-Serif" font-size="10.00">type_traits</text>
</a>
</g>
</g>
<!-- Node4&#45;&gt;Node6 -->
<g id="edge5" class="edge">
<title>Node4&#45;&gt;Node6</title>
<path fill="none" stroke="midnightblue" d="M267.77,-56.08C273.56,-48.46 282.06,-37.26 289.14,-27.94"/>
<polygon fill="midnightblue" stroke="midnightblue" points="292.1,-29.83 295.36,-19.75 286.52,-25.6 292.1,-29.83"/>
</g>
</g>
</svg>
