<?xml version="1.0" encoding="UTF-8" standalone="no"?>
<!DOCTYPE svg PUBLIC "-//W3C//DTD SVG 1.1//EN"
 "http://www.w3.org/Graphics/SVG/1.1/DTD/svg11.dtd">
<!-- Generated by graphviz version 2.43.0 (0)
 -->
<!-- Title: include/mini/mesh/mapper.hpp Pages: 1 -->
<svg width="1526pt" height="252pt"
 viewBox="0.00 0.00 1525.93 252.00" xmlns="http://www.w3.org/2000/svg" xmlns:xlink="http://www.w3.org/1999/xlink">
<g id="graph0" class="graph" transform="scale(1 1) rotate(0) translate(4 248)">
<title>include/mini/mesh/mapper.hpp</title>
<polygon fill="white" stroke="transparent" points="-4,4 -4,-248 1521.93,-248 1521.93,4 -4,4"/>
<!-- Node1 -->
<g id="node1" class="node">
<title>Node1</title>
<g id="a_node1"><a xlink:title=" ">
<polygon fill="#bfbfbf" stroke="black" points="503.43,-224.5 503.43,-243.5 670.43,-243.5 670.43,-224.5 503.43,-224.5"/>
<text text-anchor="middle" x="586.93" y="-231.5" font-family="Helvetica,sans-Serif" font-size="10.00">include/mini/mesh/mapper.hpp</text>
</a>
</g>
</g>
<!-- Node2 -->
<g id="node2" class="node">
<title>Node2</title>
<g id="a_node2"><a xlink:title=" ">
<polygon fill="white" stroke="#bfbfbf" points="253.93,-112.5 253.93,-131.5 313.93,-131.5 313.93,-112.5 253.93,-112.5"/>
<text text-anchor="middle" x="283.93" y="-119.5" font-family="Helvetica,sans-Serif" font-size="10.00">concepts</text>
</a>
</g>
</g>
<!-- Node1&#45;&gt;Node2 -->
<g id="edge1" class="edge">
<title>Node1&#45;&gt;Node2</title>
<path fill="none" stroke="midnightblue" d="M559.01,-224.44C531.02,-215.72 486.75,-201.6 448.93,-188 401.28,-170.86 346.74,-148.91 313.84,-135.41"/>
<polygon fill="midnightblue" stroke="midnightblue" points="314.94,-132.08 304.36,-131.51 312.27,-138.55 314.94,-132.08"/>
</g>
<!-- Node3 -->
<g id="node3" class="node">
<title>Node3</title>
<g id="a_node3"><a xlink:title=" ">
<polygon fill="white" stroke="#bfbfbf" points="541.93,-112.5 541.93,-131.5 593.93,-131.5 593.93,-112.5 541.93,-112.5"/>
<text text-anchor="middle" x="567.93" y="-119.5" font-family="Helvetica,sans-Serif" font-size="10.00">cassert</text>
</a>
</g>
</g>
<!-- Node1&#45;&gt;Node3 -->
<g id="edge2" class="edge">
<title>Node1&#45;&gt;Node3</title>
<path fill="none" stroke="midnightblue" d="M585.44,-224.37C582.37,-206.62 575.3,-165.67 571.14,-141.6"/>
<polygon fill="midnightblue" stroke="midnightblue" points="574.57,-140.85 569.41,-131.59 567.67,-142.04 574.57,-140.85"/>
</g>
<!-- Node4 -->
<g id="node4" class="node">
<title>Node4</title>
<g id="a_node4"><a xlink:title=" ">
<polygon fill="white" stroke="#bfbfbf" points="843.93,-168.5 843.93,-187.5 889.93,-187.5 889.93,-168.5 843.93,-168.5"/>
<text text-anchor="middle" x="866.93" y="-175.5" font-family="Helvetica,sans-Serif" font-size="10.00">cstdio</text>
</a>
</g>
</g>
<!-- Node1&#45;&gt;Node4 -->
<g id="edge3" class="edge">
<title>Node1&#45;&gt;Node4</title>
<path fill="none" stroke="midnightblue" d="M637.82,-224.42C687.1,-215.92 763.85,-202.14 829.93,-188 831.2,-187.73 832.5,-187.44 833.81,-187.15"/>
<polygon fill="midnightblue" stroke="midnightblue" points="834.93,-190.48 843.88,-184.82 833.35,-183.66 834.93,-190.48"/>
</g>
<!-- Node5 -->
<g id="node5" class="node">
<title>Node5</title>
<g id="a_node5"><a xlink:title=" ">
<polygon fill="white" stroke="#bfbfbf" points="908.43,-168.5 908.43,-187.5 963.43,-187.5 963.43,-168.5 908.43,-168.5"/>
<text text-anchor="middle" x="935.93" y="-175.5" font-family="Helvetica,sans-Serif" font-size="10.00">fstream</text>
</a>
</g>
</g>
<!-- Node1&#45;&gt;Node5 -->
<g id="edge4" class="edge">
<title>Node1&#45;&gt;Node5</title>
<path fill="none" stroke="midnightblue" d="M659.76,-224.49C720.91,-216.89 810.75,-204.66 898.28,-187.96"/>
<polygon fill="midnightblue" stroke="midnightblue" points="898.96,-191.4 908.11,-186.07 897.63,-184.52 898.96,-191.4"/>
</g>
<!-- Node6 -->
<g id="node6" class="node">
<title>Node6</title>
<g id="a_node6"><a xlink:title=" ">
<polygon fill="white" stroke="#bfbfbf" points="611.93,-112.5 611.93,-131.5 649.93,-131.5 649.93,-112.5 611.93,-112.5"/>
<text text-anchor="middle" x="630.93" y="-119.5" font-family="Helvetica,sans-Serif" font-size="10.00">map</text>
</a>
</g>
</g>
<!-- Node1&#45;&gt;Node6 -->
<g id="edge5" class="edge">
<title>Node1&#45;&gt;Node6</title>
<path fill="none" stroke="midnightblue" d="M590.38,-224.37C597.55,-206.46 614.16,-164.92 623.75,-140.95"/>
<polygon fill="midnightblue" stroke="midnightblue" points="627.03,-142.18 627.49,-131.59 620.53,-139.58 627.03,-142.18"/>
</g>
<!-- Node7 -->
<g id="node7" class="node">
<title>Node7</title>
<g id="a_node7"><a xlink:title=" ">
<polygon fill="white" stroke="#bfbfbf" points="331.93,-112.5 331.93,-131.5 389.93,-131.5 389.93,-112.5 331.93,-112.5"/>
<text text-anchor="middle" x="360.93" y="-119.5" font-family="Helvetica,sans-Serif" font-size="10.00">memory</text>
</a>
</g>
</g>
<!-- Node1&#45;&gt;Node7 -->
<g id="edge6" class="edge">
<title>Node1&#45;&gt;Node7</title>
<path fill="none" stroke="midnightblue" d="M568.67,-224.47C549.51,-215.49 518.53,-200.9 491.93,-188 455.31,-170.24 413.18,-149.23 386.81,-136.01"/>
<polygon fill="midnightblue" stroke="midnightblue" points="388.35,-132.87 377.84,-131.51 385.21,-139.13 388.35,-132.87"/>
</g>
<!-- Node8 -->
<g id="node8" class="node">
<title>Node8</title>
<g id="a_node8"><a xlink:title=" ">
<polygon fill="white" stroke="#bfbfbf" points="981.93,-168.5 981.93,-187.5 1013.93,-187.5 1013.93,-168.5 981.93,-168.5"/>
<text text-anchor="middle" x="997.93" y="-175.5" font-family="Helvetica,sans-Serif" font-size="10.00">set</text>
</a>
</g>
</g>
<!-- Node1&#45;&gt;Node8 -->
<g id="edge7" class="edge">
<title>Node1&#45;&gt;Node8</title>
<path fill="none" stroke="midnightblue" d="M670.71,-228.79C747.24,-223.67 863.42,-212.74 971.89,-187.76"/>
<polygon fill="midnightblue" stroke="midnightblue" points="972.75,-191.15 981.69,-185.45 971.15,-184.33 972.75,-191.15"/>
</g>
<!-- Node9 -->
<g id="node9" class="node">
<title>Node9</title>
<g id="a_node9"><a xlink:title=" ">
<polygon fill="white" stroke="#bfbfbf" points="1395.93,-112.5 1395.93,-131.5 1439.93,-131.5 1439.93,-112.5 1395.93,-112.5"/>
<text text-anchor="middle" x="1417.93" y="-119.5" font-family="Helvetica,sans-Serif" font-size="10.00">string</text>
</a>
</g>
</g>
<!-- Node1&#45;&gt;Node9 -->
<g id="edge8" class="edge">
<title>Node1&#45;&gt;Node9</title>
<path fill="none" stroke="midnightblue" d="M627.25,-224.42C662.27,-216.49 714.12,-203.6 757.93,-188 778.17,-180.8 781.09,-173.19 801.93,-168 1051.5,-105.86 1128.34,-174.79 1385.7,-131.8"/>
<polygon fill="midnightblue" stroke="midnightblue" points="1386.45,-135.22 1395.72,-130.09 1385.27,-128.32 1386.45,-135.22"/>
</g>
<!-- Node10 -->
<g id="node10" class="node">
<title>Node10</title>
<g id="a_node10"><a xlink:title=" ">
<polygon fill="white" stroke="#bfbfbf" points="18.43,-112.5 18.43,-131.5 87.43,-131.5 87.43,-112.5 18.43,-112.5"/>
<text text-anchor="middle" x="52.93" y="-119.5" font-family="Helvetica,sans-Serif" font-size="10.00">type_traits</text>
</a>
</g>
</g>
<!-- Node1&#45;&gt;Node10 -->
<g id="edge9" class="edge">
<title>Node1&#45;&gt;Node10</title>
<path fill="none" stroke="midnightblue" d="M503.41,-229.14C427.25,-224.15 312.13,-212.92 214.93,-188 165.4,-175.3 110.78,-151.1 79.3,-136.08"/>
<polygon fill="midnightblue" stroke="midnightblue" points="80.46,-132.75 69.93,-131.55 77.41,-139.06 80.46,-132.75"/>
</g>
<!-- Node11 -->
<g id="node11" class="node">
<title>Node11</title>
<g id="a_node11"><a xlink:title=" ">
<polygon fill="white" stroke="#bfbfbf" points="850.43,-56.5 850.43,-75.5 895.43,-75.5 895.43,-56.5 850.43,-56.5"/>
<text text-anchor="middle" x="872.93" y="-63.5" font-family="Helvetica,sans-Serif" font-size="10.00">utility</text>
</a>
</g>
</g>
<!-- Node1&#45;&gt;Node11 -->
<g id="edge10" class="edge">
<title>Node1&#45;&gt;Node11</title>
<path fill="none" stroke="midnightblue" d="M503.28,-228.68C326.92,-218.06 -61.3,-185.98 8.93,-112 38.06,-81.31 685.36,-69.78 839.98,-67.46"/>
<polygon fill="midnightblue" stroke="midnightblue" points="840.3,-70.96 850.24,-67.31 840.19,-63.96 840.3,-70.96"/>
</g>
<!-- Node12 -->
<g id="node12" class="node">
<title>Node12</title>
<g id="a_node12"><a xlink:title=" ">
<polygon fill="white" stroke="#bfbfbf" points="408.43,-112.5 408.43,-131.5 455.43,-131.5 455.43,-112.5 408.43,-112.5"/>
<text text-anchor="middle" x="431.93" y="-119.5" font-family="Helvetica,sans-Serif" font-size="10.00">vector</text>
</a>
</g>
</g>
<!-- Node1&#45;&gt;Node12 -->
<g id="edge11" class="edge">
<title>Node1&#45;&gt;Node12</title>
<path fill="none" stroke="midnightblue" d="M574.77,-224.37C548.28,-205.57 485.15,-160.77 452.41,-137.53"/>
<polygon fill="midnightblue" stroke="midnightblue" points="454.22,-134.52 444.04,-131.59 450.17,-140.23 454.22,-134.52"/>
</g>
<!-- Node13 -->
<g id="node13" class="node">
<title>Node13</title>
<g id="a_node13"><a xlink:title=" ">
<polygon fill="white" stroke="#bfbfbf" points="1457.93,-112.5 1457.93,-131.5 1517.93,-131.5 1517.93,-112.5 1457.93,-112.5"/>
<text text-anchor="middle" x="1487.93" y="-119.5" font-family="Helvetica,sans-Serif" font-size="10.00">cgnslib.h</text>
</a>
</g>
</g>
<!-- Node1&#45;&gt;Node13 -->
<g id="edge12" class="edge">
<title>Node1&#45;&gt;Node13</title>
<path fill="none" stroke="midnightblue" d="M643.72,-224.44C685.89,-217.18 744.42,-205.18 793.93,-188 813.09,-181.35 815.32,-173.14 834.93,-168 1096.14,-99.57 1176.4,-169.13 1447.65,-131.91"/>
<polygon fill="midnightblue" stroke="midnightblue" points="1448.38,-135.34 1457.79,-130.48 1447.4,-128.41 1448.38,-135.34"/>
</g>
<!-- Node14 -->
<g id="node14" class="node">
<title>Node14</title>
<g id="a_node14"><a xlink:href="cgns_8hpp.html" target="_top" xlink:title=" ">
<polygon fill="white" stroke="black" points="634.43,-168.5 634.43,-187.5 749.43,-187.5 749.43,-168.5 634.43,-168.5"/>
<text text-anchor="middle" x="691.93" y="-175.5" font-family="Helvetica,sans-Serif" font-size="10.00">mini/mesh/cgns.hpp</text>
</a>
</g>
</g>
<!-- Node1&#45;&gt;Node14 -->
<g id="edge13" class="edge">
<title>Node1&#45;&gt;Node14</title>
<path fill="none" stroke="midnightblue" d="M603.8,-224.32C620.64,-215.66 646.74,-202.24 666.17,-192.25"/>
<polygon fill="midnightblue" stroke="midnightblue" points="667.81,-195.34 675.1,-187.65 664.61,-189.12 667.81,-195.34"/>
</g>
<!-- Node29 -->
<g id="node29" class="node">
<title>Node29</title>
<g id="a_node29"><a xlink:href="metis_8hpp.html" target="_top" xlink:title=" ">
<polygon fill="white" stroke="black" points="223.93,-168.5 223.93,-187.5 343.93,-187.5 343.93,-168.5 223.93,-168.5"/>
<text text-anchor="middle" x="283.93" y="-175.5" font-family="Helvetica,sans-Serif" font-size="10.00">mini/mesh/metis.hpp</text>
</a>
</g>
</g>
<!-- Node1&#45;&gt;Node29 -->
<g id="edge39" class="edge">
<title>Node1&#45;&gt;Node29</title>
<path fill="none" stroke="midnightblue" d="M538.92,-224.44C485.4,-214.9 398.87,-199.48 341.69,-189.29"/>
<polygon fill="midnightblue" stroke="midnightblue" points="342.18,-185.83 331.72,-187.52 340.95,-192.72 342.18,-185.83"/>
</g>
<!-- Node14&#45;&gt;Node2 -->
<g id="edge14" class="edge">
<title>Node14&#45;&gt;Node2</title>
<path fill="none" stroke="midnightblue" d="M634.13,-171.85C563.31,-165.13 439.52,-152 324.16,-132.05"/>
<polygon fill="midnightblue" stroke="midnightblue" points="324.55,-128.57 314.1,-130.29 323.35,-135.46 324.55,-128.57"/>
</g>
<!-- Node14&#45;&gt;Node3 -->
<g id="edge18" class="edge">
<title>Node14&#45;&gt;Node3</title>
<path fill="none" stroke="midnightblue" d="M672.28,-168.44C651.97,-159.6 620.03,-145.69 596.83,-135.59"/>
<polygon fill="midnightblue" stroke="midnightblue" points="598.05,-132.3 587.49,-131.52 595.26,-138.72 598.05,-132.3"/>
</g>
<!-- Node14&#45;&gt;Node6 -->
<g id="edge20" class="edge">
<title>Node14&#45;&gt;Node6</title>
<path fill="none" stroke="midnightblue" d="M682.13,-168.32C673.11,-160.34 659.52,-148.31 648.61,-138.65"/>
<polygon fill="midnightblue" stroke="midnightblue" points="650.72,-135.84 640.91,-131.83 646.08,-141.08 650.72,-135.84"/>
</g>
<!-- Node14&#45;&gt;Node7 -->
<g id="edge21" class="edge">
<title>Node14&#45;&gt;Node7</title>
<path fill="none" stroke="midnightblue" d="M634.43,-169.56C577.38,-161.86 487.25,-148.86 400.37,-132.16"/>
<polygon fill="midnightblue" stroke="midnightblue" points="400.82,-128.68 390.34,-130.21 399.49,-135.55 400.82,-128.68"/>
</g>
<!-- Node14&#45;&gt;Node9 -->
<g id="edge24" class="edge">
<title>Node14&#45;&gt;Node9</title>
<path fill="none" stroke="midnightblue" d="M749.66,-169.44C754.49,-168.91 759.29,-168.42 763.93,-168 1036.76,-143.09 1111.76,-178.09 1385.48,-131.85"/>
<polygon fill="midnightblue" stroke="midnightblue" points="1386.45,-135.23 1395.72,-130.1 1385.27,-128.33 1386.45,-135.23"/>
</g>
<!-- Node14&#45;&gt;Node11 -->
<g id="edge27" class="edge">
<title>Node14&#45;&gt;Node11</title>
<path fill="none" stroke="midnightblue" d="M749.73,-169.32C836.04,-157.72 988.98,-136.59 992.93,-132 1020.78,-99.68 950.08,-80.67 905.69,-72.23"/>
<polygon fill="midnightblue" stroke="midnightblue" points="906.05,-68.74 895.59,-70.41 904.81,-75.63 906.05,-68.74"/>
</g>
<!-- Node14&#45;&gt;Node12 -->
<g id="edge28" class="edge">
<title>Node14&#45;&gt;Node12</title>
<path fill="none" stroke="midnightblue" d="M643.89,-168.49C599.96,-160.49 532.98,-147.71 465.61,-132.02"/>
<polygon fill="midnightblue" stroke="midnightblue" points="466.21,-128.57 455.67,-129.69 464.61,-135.38 466.21,-128.57"/>
</g>
<!-- Node14&#45;&gt;Node13 -->
<g id="edge29" class="edge">
<title>Node14&#45;&gt;Node13</title>
<path fill="none" stroke="midnightblue" d="M749.57,-172C766.44,-170.61 784.92,-169.17 801.93,-168 1085.89,-148.49 1162.02,-171.97 1447.55,-131.94"/>
<polygon fill="midnightblue" stroke="midnightblue" points="1448.38,-135.36 1457.79,-130.49 1447.4,-128.43 1448.38,-135.36"/>
</g>
<!-- Node15 -->
<g id="node15" class="node">
<title>Node15</title>
<g id="a_node15"><a xlink:title=" ">
<polygon fill="white" stroke="#bfbfbf" points="473.93,-112.5 473.93,-131.5 523.93,-131.5 523.93,-112.5 473.93,-112.5"/>
<text text-anchor="middle" x="498.93" y="-119.5" font-family="Helvetica,sans-Serif" font-size="10.00">ranges</text>
</a>
</g>
</g>
<!-- Node14&#45;&gt;Node15 -->
<g id="edge15" class="edge">
<title>Node14&#45;&gt;Node15</title>
<path fill="none" stroke="midnightblue" d="M661.35,-168.44C626.66,-158.74 570.22,-142.95 533.84,-132.77"/>
<polygon fill="midnightblue" stroke="midnightblue" points="534.71,-129.38 524.14,-130.05 532.83,-136.12 534.71,-129.38"/>
</g>
<!-- Node16 -->
<g id="node16" class="node">
<title>Node16</title>
<g id="a_node16"><a xlink:title=" ">
<polygon fill="white" stroke="#bfbfbf" points="705.93,-0.5 705.93,-19.5 769.93,-19.5 769.93,-0.5 705.93,-0.5"/>
<text text-anchor="middle" x="737.93" y="-7.5" font-family="Helvetica,sans-Serif" font-size="10.00">algorithm</text>
</a>
</g>
</g>
<!-- Node14&#45;&gt;Node16 -->
<g id="edge16" class="edge">
<title>Node14&#45;&gt;Node16</title>
<path fill="none" stroke="midnightblue" d="M698.61,-168.21C704.89,-159.5 714.02,-145.53 718.93,-132 731.52,-97.32 735.77,-54.06 737.2,-29.79"/>
<polygon fill="midnightblue" stroke="midnightblue" points="740.7,-29.95 737.7,-19.79 733.71,-29.61 740.7,-29.95"/>
</g>
<!-- Node17 -->
<g id="node17" class="node">
<title>Node17</title>
<g id="a_node17"><a xlink:title=" ">
<polygon fill="white" stroke="#bfbfbf" points="667.93,-112.5 667.93,-131.5 709.93,-131.5 709.93,-112.5 667.93,-112.5"/>
<text text-anchor="middle" x="688.93" y="-119.5" font-family="Helvetica,sans-Serif" font-size="10.00">array</text>
</a>
</g>
</g>
<!-- Node14&#45;&gt;Node17 -->
<g id="edge17" class="edge">
<title>Node14&#45;&gt;Node17</title>
<path fill="none" stroke="midnightblue" d="M691.44,-168.08C691.04,-161.01 690.48,-150.86 689.99,-141.99"/>
<polygon fill="midnightblue" stroke="midnightblue" points="693.47,-141.54 689.42,-131.75 686.48,-141.93 693.47,-141.54"/>
</g>
<!-- Node18 -->
<g id="node18" class="node">
<title>Node18</title>
<g id="a_node18"><a xlink:title=" ">
<polygon fill="white" stroke="#bfbfbf" points="765.93,-112.5 765.93,-131.5 825.93,-131.5 825.93,-112.5 765.93,-112.5"/>
<text text-anchor="middle" x="795.93" y="-119.5" font-family="Helvetica,sans-Serif" font-size="10.00">iostream</text>
</a>
</g>
</g>
<!-- Node14&#45;&gt;Node18 -->
<g id="edge19" class="edge">
<title>Node14&#45;&gt;Node18</title>
<path fill="none" stroke="midnightblue" d="M708.64,-168.32C725.24,-159.7 750.93,-146.36 770.15,-136.39"/>
<polygon fill="midnightblue" stroke="midnightblue" points="772,-139.37 779.26,-131.65 768.78,-133.16 772,-139.37"/>
</g>
<!-- Node19 -->
<g id="node19" class="node">
<title>Node19</title>
<g id="a_node19"><a xlink:title=" ">
<polygon fill="white" stroke="#bfbfbf" points="843.93,-112.5 843.93,-131.5 899.93,-131.5 899.93,-112.5 843.93,-112.5"/>
<text text-anchor="middle" x="871.93" y="-119.5" font-family="Helvetica,sans-Serif" font-size="10.00">numeric</text>
</a>
</g>
</g>
<!-- Node14&#45;&gt;Node19 -->
<g id="edge22" class="edge">
<title>Node14&#45;&gt;Node19</title>
<path fill="none" stroke="midnightblue" d="M720.45,-168.44C751.09,-159.25 799.93,-144.6 833.83,-134.43"/>
<polygon fill="midnightblue" stroke="midnightblue" points="835.27,-137.65 843.84,-131.43 833.26,-130.95 835.27,-137.65"/>
</g>
<!-- Node20 -->
<g id="node20" class="node">
<title>Node20</title>
<g id="a_node20"><a xlink:title=" ">
<polygon fill="white" stroke="#bfbfbf" points="918.43,-112.5 918.43,-131.5 983.43,-131.5 983.43,-112.5 918.43,-112.5"/>
<text text-anchor="middle" x="950.93" y="-119.5" font-family="Helvetica,sans-Serif" font-size="10.00">stdexcept</text>
</a>
</g>
</g>
<!-- Node14&#45;&gt;Node20 -->
<g id="edge23" class="edge">
<title>Node14&#45;&gt;Node20</title>
<path fill="none" stroke="midnightblue" d="M733.55,-168.45C775.2,-159.88 841.37,-146.22 908.47,-132.09"/>
<polygon fill="midnightblue" stroke="midnightblue" points="909.31,-135.49 918.38,-130 907.87,-128.64 909.31,-135.49"/>
</g>
<!-- Node21 -->
<g id="node21" class="node">
<title>Node21</title>
<g id="a_node21"><a xlink:title=" ">
<polygon fill="white" stroke="#bfbfbf" points="1180.43,-112.5 1180.43,-131.5 1273.43,-131.5 1273.43,-112.5 1180.43,-112.5"/>
<text text-anchor="middle" x="1226.93" y="-119.5" font-family="Helvetica,sans-Serif" font-size="10.00">unordered_map</text>
</a>
</g>
</g>
<!-- Node14&#45;&gt;Node21 -->
<g id="edge25" class="edge">
<title>Node14&#45;&gt;Node21</title>
<path fill="none" stroke="midnightblue" d="M749.68,-169.6C754.5,-169.03 759.3,-168.49 763.93,-168 941.24,-149.08 989.01,-154.22 1170.08,-132.02"/>
<polygon fill="midnightblue" stroke="midnightblue" points="1170.72,-135.46 1180.22,-130.76 1169.86,-128.52 1170.72,-135.46"/>
</g>
<!-- Node22 -->
<g id="node22" class="node">
<title>Node22</title>
<g id="a_node22"><a xlink:title=" ">
<polygon fill="white" stroke="#bfbfbf" points="1291.93,-112.5 1291.93,-131.5 1377.93,-131.5 1377.93,-112.5 1291.93,-112.5"/>
<text text-anchor="middle" x="1334.93" y="-119.5" font-family="Helvetica,sans-Serif" font-size="10.00">unordered_set</text>
</a>
</g>
</g>
<!-- Node14&#45;&gt;Node22 -->
<g id="edge26" class="edge">
<title>Node14&#45;&gt;Node22</title>
<path fill="none" stroke="midnightblue" d="M749.67,-169.5C754.49,-168.96 759.29,-168.45 763.93,-168 990.81,-145.97 1051.67,-159.36 1281.83,-132.01"/>
<polygon fill="midnightblue" stroke="midnightblue" points="1282.34,-135.47 1291.85,-130.81 1281.5,-128.52 1282.34,-135.47"/>
</g>
<!-- Node23 -->
<g id="node23" class="node">
<title>Node23</title>
<g id="a_node23"><a xlink:href="pi_8hpp.html" target="_top" xlink:title=" ">
<polygon fill="white" stroke="black" points="1039.93,-112.5 1039.93,-131.5 1161.93,-131.5 1161.93,-112.5 1039.93,-112.5"/>
<text text-anchor="middle" x="1100.93" y="-119.5" font-family="Helvetica,sans-Serif" font-size="10.00">mini/geometry/pi.hpp</text>
</a>
</g>
</g>
<!-- Node14&#45;&gt;Node23 -->
<g id="edge30" class="edge">
<title>Node14&#45;&gt;Node23</title>
<path fill="none" stroke="midnightblue" d="M749.66,-169.38C823.25,-159.66 950.44,-142.87 1029.9,-132.38"/>
<polygon fill="midnightblue" stroke="midnightblue" points="1030.37,-135.85 1039.82,-131.07 1029.45,-128.91 1030.37,-135.85"/>
</g>
<!-- Node23&#45;&gt;Node11 -->
<g id="edge33" class="edge">
<title>Node23&#45;&gt;Node11</title>
<path fill="none" stroke="midnightblue" d="M1064.8,-112.44C1020.96,-102.06 947.66,-84.7 905.49,-74.71"/>
<polygon fill="midnightblue" stroke="midnightblue" points="906.26,-71.3 895.73,-72.4 904.65,-78.11 906.26,-71.3"/>
</g>
<!-- Node24 -->
<g id="node24" class="node">
<title>Node24</title>
<g id="a_node24"><a xlink:title=" ">
<polygon fill="white" stroke="#bfbfbf" points="935.43,-0.5 935.43,-19.5 982.43,-19.5 982.43,-0.5 935.43,-0.5"/>
<text text-anchor="middle" x="958.93" y="-7.5" font-family="Helvetica,sans-Serif" font-size="10.00">cmath</text>
</a>
</g>
</g>
<!-- Node23&#45;&gt;Node24 -->
<g id="edge31" class="edge">
<title>Node23&#45;&gt;Node24</title>
<path fill="none" stroke="midnightblue" d="M1039.63,-112.99C1015.29,-106.76 989.06,-95.68 971.93,-76 960.96,-63.4 958.25,-44.18 957.96,-29.91"/>
<polygon fill="midnightblue" stroke="midnightblue" points="961.47,-29.8 958.14,-19.74 954.47,-29.68 961.47,-29.8"/>
</g>
<!-- Node25 -->
<g id="node25" class="node">
<title>Node25</title>
<g id="a_node25"><a xlink:title=" ">
<polygon fill="white" stroke="#bfbfbf" points="1127.43,-56.5 1127.43,-75.5 1186.43,-75.5 1186.43,-56.5 1127.43,-56.5"/>
<text text-anchor="middle" x="1156.93" y="-63.5" font-family="Helvetica,sans-Serif" font-size="10.00">numbers</text>
</a>
</g>
</g>
<!-- Node23&#45;&gt;Node25 -->
<g id="edge32" class="edge">
<title>Node23&#45;&gt;Node25</title>
<path fill="none" stroke="midnightblue" d="M1109.93,-112.32C1118.13,-104.42 1130.44,-92.55 1140.4,-82.94"/>
<polygon fill="midnightblue" stroke="midnightblue" points="1143,-85.29 1147.77,-75.83 1138.14,-80.26 1143,-85.29"/>
</g>
<!-- Node26 -->
<g id="node26" class="node">
<title>Node26</title>
<g id="a_node26"><a xlink:href="algebra_2eigen_8hpp.html" target="_top" xlink:title=" ">
<polygon fill="white" stroke="black" points="980.43,-56.5 980.43,-75.5 1109.43,-75.5 1109.43,-56.5 980.43,-56.5"/>
<text text-anchor="middle" x="1044.93" y="-63.5" font-family="Helvetica,sans-Serif" font-size="10.00">mini/algebra/eigen.hpp</text>
</a>
</g>
</g>
<!-- Node23&#45;&gt;Node26 -->
<g id="edge34" class="edge">
<title>Node23&#45;&gt;Node26</title>
<path fill="none" stroke="midnightblue" d="M1091.93,-112.32C1083.74,-104.42 1071.43,-92.55 1061.46,-82.94"/>
<polygon fill="midnightblue" stroke="midnightblue" points="1063.72,-80.26 1054.09,-75.83 1058.86,-85.29 1063.72,-80.26"/>
</g>
<!-- Node26&#45;&gt;Node16 -->
<g id="edge35" class="edge">
<title>Node26&#45;&gt;Node16</title>
<path fill="none" stroke="midnightblue" d="M996.29,-56.44C936.76,-45.97 836.93,-28.41 780.37,-18.47"/>
<polygon fill="midnightblue" stroke="midnightblue" points="780.79,-14.99 770.34,-16.7 779.58,-21.88 780.79,-14.99"/>
</g>
<!-- Node26&#45;&gt;Node24 -->
<g id="edge36" class="edge">
<title>Node26&#45;&gt;Node24</title>
<path fill="none" stroke="midnightblue" d="M1031.11,-56.32C1017.7,-47.9 997.11,-34.97 981.35,-25.07"/>
<polygon fill="midnightblue" stroke="midnightblue" points="983.04,-22.01 972.71,-19.65 979.32,-27.94 983.04,-22.01"/>
</g>
<!-- Node27 -->
<g id="node27" class="node">
<title>Node27</title>
<g id="a_node27"><a xlink:title=" ">
<polygon fill="white" stroke="#bfbfbf" points="1013.43,-0.5 1013.43,-19.5 1062.43,-19.5 1062.43,-0.5 1013.43,-0.5"/>
<text text-anchor="middle" x="1037.93" y="-7.5" font-family="Helvetica,sans-Serif" font-size="10.00">cstdlib</text>
</a>
</g>
</g>
<!-- Node26&#45;&gt;Node27 -->
<g id="edge37" class="edge">
<title>Node26&#45;&gt;Node27</title>
<path fill="none" stroke="midnightblue" d="M1043.77,-56.08C1042.85,-48.93 1041.51,-38.64 1040.35,-29.69"/>
<polygon fill="midnightblue" stroke="midnightblue" points="1043.82,-29.22 1039.07,-19.75 1036.88,-30.12 1043.82,-29.22"/>
</g>
<!-- Node28 -->
<g id="node28" class="node">
<title>Node28</title>
<g id="a_node28"><a xlink:title=" ">
<polygon fill="white" stroke="#bfbfbf" points="1080.93,-0.5 1080.93,-19.5 1154.93,-19.5 1154.93,-0.5 1080.93,-0.5"/>
<text text-anchor="middle" x="1117.93" y="-7.5" font-family="Helvetica,sans-Serif" font-size="10.00">Eigen/Eigen</text>
</a>
</g>
</g>
<!-- Node26&#45;&gt;Node28 -->
<g id="edge38" class="edge">
<title>Node26&#45;&gt;Node28</title>
<path fill="none" stroke="midnightblue" d="M1056.66,-56.32C1067.77,-48.11 1084.67,-35.6 1097.91,-25.81"/>
<polygon fill="midnightblue" stroke="midnightblue" points="1100.03,-28.59 1105.99,-19.83 1095.87,-22.97 1100.03,-28.59"/>
</g>
<!-- Node29&#45;&gt;Node2 -->
<g id="edge40" class="edge">
<title>Node29&#45;&gt;Node2</title>
<path fill="none" stroke="midnightblue" d="M283.93,-168.08C283.93,-161.01 283.93,-150.86 283.93,-141.99"/>
<polygon fill="midnightblue" stroke="midnightblue" points="287.43,-141.75 283.93,-131.75 280.43,-141.75 287.43,-141.75"/>
</g>
<!-- Node29&#45;&gt;Node7 -->
<g id="edge43" class="edge">
<title>Node29&#45;&gt;Node7</title>
<path fill="none" stroke="midnightblue" d="M296.3,-168.32C308.09,-160.06 326.06,-147.45 340.07,-137.63"/>
<polygon fill="midnightblue" stroke="midnightblue" points="342.41,-140.26 348.59,-131.65 338.39,-134.53 342.41,-140.26"/>
</g>
<!-- Node29&#45;&gt;Node10 -->
<g id="edge44" class="edge">
<title>Node29&#45;&gt;Node10</title>
<path fill="none" stroke="midnightblue" d="M247.33,-168.44C206.61,-158.92 140.83,-143.55 97.24,-133.36"/>
<polygon fill="midnightblue" stroke="midnightblue" points="98.01,-129.94 87.48,-131.08 96.42,-136.76 98.01,-129.94"/>
</g>
<!-- Node29&#45;&gt;Node11 -->
<g id="edge45" class="edge">
<title>Node29&#45;&gt;Node11</title>
<path fill="none" stroke="midnightblue" d="M242.64,-168.48C201.45,-158.23 147.65,-138.96 172.93,-112 196.02,-87.38 704.31,-71.65 839.93,-67.88"/>
<polygon fill="midnightblue" stroke="midnightblue" points="840.21,-71.37 850.11,-67.6 840.01,-64.38 840.21,-71.37"/>
</g>
<!-- Node29&#45;&gt;Node12 -->
<g id="edge46" class="edge">
<title>Node29&#45;&gt;Node12</title>
<path fill="none" stroke="midnightblue" d="M307.38,-168.44C332.06,-159.44 371.12,-145.19 398.91,-135.05"/>
<polygon fill="midnightblue" stroke="midnightblue" points="400.4,-138.23 408.59,-131.52 398,-131.66 400.4,-138.23"/>
</g>
<!-- Node29&#45;&gt;Node15 -->
<g id="edge41" class="edge">
<title>Node29&#45;&gt;Node15</title>
<path fill="none" stroke="midnightblue" d="M318.46,-168.44C354.7,-159.44 413.35,-144.83 463.93,-132 464.03,-131.97 464.13,-131.95 464.23,-131.92"/>
<polygon fill="midnightblue" stroke="midnightblue" points="464.88,-135.37 473.7,-129.51 463.15,-128.59 464.88,-135.37"/>
</g>
<!-- Node29&#45;&gt;Node16 -->
<g id="edge42" class="edge">
<title>Node29&#45;&gt;Node16</title>
<path fill="none" stroke="midnightblue" d="M234.07,-168.49C190.8,-158.97 138.63,-140.95 162.93,-112 231.34,-30.53 574.17,-14.76 695.39,-11.72"/>
<polygon fill="midnightblue" stroke="midnightblue" points="695.83,-15.21 705.74,-11.48 695.66,-8.21 695.83,-15.21"/>
</g>
<!-- Node30 -->
<g id="node30" class="node">
<title>Node30</title>
<g id="a_node30"><a xlink:title=" ">
<polygon fill="white" stroke="#bfbfbf" points="182.43,-112.5 182.43,-131.5 235.43,-131.5 235.43,-112.5 182.43,-112.5"/>
<text text-anchor="middle" x="208.93" y="-119.5" font-family="Helvetica,sans-Serif" font-size="10.00">metis.h</text>
</a>
</g>
</g>
<!-- Node29&#45;&gt;Node30 -->
<g id="edge47" class="edge">
<title>Node29&#45;&gt;Node30</title>
<path fill="none" stroke="midnightblue" d="M271.88,-168.32C260.47,-160.11 243.1,-147.6 229.5,-137.81"/>
<polygon fill="midnightblue" stroke="midnightblue" points="231.36,-134.84 221.2,-131.83 227.27,-140.52 231.36,-134.84"/>
</g>
</g>
</svg>
