<?xml version="1.0" encoding="UTF-8" standalone="no"?>
<!DOCTYPE svg PUBLIC "-//W3C//DTD SVG 1.1//EN"
 "http://www.w3.org/Graphics/SVG/1.1/DTD/svg11.dtd">
<!-- Generated by graphviz version 2.43.0 (0)
 -->
<!-- Title: include/mini/mesh/metis.hpp Pages: 1 -->
<svg width="369pt" height="140pt"
 viewBox="0.00 0.00 369.00 140.00" xmlns="http://www.w3.org/2000/svg" xmlns:xlink="http://www.w3.org/1999/xlink">
<g id="graph0" class="graph" transform="scale(1 1) rotate(0) translate(4 136)">
<title>include/mini/mesh/metis.hpp</title>
<polygon fill="white" stroke="transparent" points="-4,4 -4,-136 365,-136 365,4 -4,4"/>
<!-- Node1 -->
<g id="node1" class="node">
<title>Node1</title>
<g id="a_node1"><a xlink:title=" ">
<polygon fill="#bfbfbf" stroke="black" points="97.5,-112.5 97.5,-131.5 255.5,-131.5 255.5,-112.5 97.5,-112.5"/>
<text text-anchor="middle" x="176.5" y="-119.5" font-family="Helvetica,sans-Serif" font-size="10.00">include/mini/mesh/metis.hpp</text>
</a>
</g>
</g>
<!-- Node2 -->
<g id="node2" class="node">
<title>Node2</title>
<g id="a_node2"><a xlink:href="mapper_8hpp.html" target="_top" xlink:title=" ">
<polygon fill="white" stroke="black" points="93,-56.5 93,-75.5 260,-75.5 260,-56.5 93,-56.5"/>
<text text-anchor="middle" x="176.5" y="-63.5" font-family="Helvetica,sans-Serif" font-size="10.00">include/mini/mesh/mapper.hpp</text>
</a>
</g>
</g>
<!-- Node1&#45;&gt;Node2 -->
<g id="edge1" class="edge">
<title>Node1&#45;&gt;Node2</title>
<path fill="none" stroke="midnightblue" d="M176.5,-101.8C176.5,-92.91 176.5,-82.78 176.5,-75.75"/>
<polygon fill="midnightblue" stroke="midnightblue" points="173,-102.08 176.5,-112.08 180,-102.08 173,-102.08"/>
</g>
<!-- Node3 -->
<g id="node3" class="node">
<title>Node3</title>
<g id="a_node3"><a xlink:href="overset_8hpp.html" target="_top" xlink:title=" ">
<polygon fill="white" stroke="black" points="0,-0.5 0,-19.5 167,-19.5 167,-0.5 0,-0.5"/>
<text text-anchor="middle" x="83.5" y="-7.5" font-family="Helvetica,sans-Serif" font-size="10.00">include/mini/mesh/overset.hpp</text>
</a>
</g>
</g>
<!-- Node1&#45;&gt;Node3 -->
<g id="edge4" class="edge">
<title>Node1&#45;&gt;Node3</title>
<path fill="none" stroke="midnightblue" d="M128.43,-108.85C111.61,-102.06 94.46,-91.69 84.5,-76 73.49,-58.66 77.63,-33.12 80.94,-19.81"/>
<polygon fill="midnightblue" stroke="midnightblue" points="127.65,-112.29 138.24,-112.45 130.06,-105.72 127.65,-112.29"/>
</g>
<!-- Node4 -->
<g id="node4" class="node">
<title>Node4</title>
<g id="a_node4"><a xlink:href="shuffler_8hpp.html" target="_top" xlink:title=" ">
<polygon fill="white" stroke="black" points="194,-0.5 194,-19.5 361,-19.5 361,-0.5 194,-0.5"/>
<text text-anchor="middle" x="277.5" y="-7.5" font-family="Helvetica,sans-Serif" font-size="10.00">include/mini/mesh/shuffler.hpp</text>
</a>
</g>
</g>
<!-- Node1&#45;&gt;Node4 -->
<g id="edge5" class="edge">
<title>Node1&#45;&gt;Node4</title>
<path fill="none" stroke="midnightblue" d="M222.91,-108.9C240.2,-102.06 258.31,-91.63 269.5,-76 281.55,-59.17 280.51,-33.42 278.9,-19.94"/>
<polygon fill="midnightblue" stroke="midnightblue" points="221.65,-105.64 213.44,-112.35 224.04,-112.22 221.65,-105.64"/>
</g>
<!-- Node2&#45;&gt;Node3 -->
<g id="edge2" class="edge">
<title>Node2&#45;&gt;Node3</title>
<path fill="none" stroke="midnightblue" d="M152.69,-51.18C135.58,-41.24 113.03,-28.15 98.4,-19.65"/>
<polygon fill="midnightblue" stroke="midnightblue" points="151.15,-54.33 161.56,-56.32 154.67,-48.28 151.15,-54.33"/>
</g>
<!-- Node2&#45;&gt;Node4 -->
<g id="edge3" class="edge">
<title>Node2&#45;&gt;Node4</title>
<path fill="none" stroke="midnightblue" d="M201.58,-51.59C220.26,-41.61 245.2,-28.27 261.31,-19.65"/>
<polygon fill="midnightblue" stroke="midnightblue" points="199.9,-48.52 192.73,-56.32 203.2,-54.7 199.9,-48.52"/>
</g>
</g>
</svg>
