<?xml version="1.0" encoding="UTF-8" standalone="no"?>
<!DOCTYPE svg PUBLIC "-//W3C//DTD SVG 1.1//EN"
 "http://www.w3.org/Graphics/SVG/1.1/DTD/svg11.dtd">
<!-- Generated by graphviz version 2.43.0 (0)
 -->
<!-- Title: include/mini/mesh/metis.hpp Pages: 1 -->
<svg width="581pt" height="84pt"
 viewBox="0.00 0.00 580.50 84.00" xmlns="http://www.w3.org/2000/svg" xmlns:xlink="http://www.w3.org/1999/xlink">
<g id="graph0" class="graph" transform="scale(1 1) rotate(0) translate(4 80)">
<title>include/mini/mesh/metis.hpp</title>
<polygon fill="white" stroke="transparent" points="-4,4 -4,-80 576.5,-80 576.5,4 -4,4"/>
<!-- Node1 -->
<g id="node1" class="node">
<title>Node1</title>
<g id="a_node1"><a xlink:title=" ">
<polygon fill="#bfbfbf" stroke="black" points="219,-56.5 219,-75.5 377,-75.5 377,-56.5 219,-56.5"/>
<text text-anchor="middle" x="298" y="-63.5" font-family="Helvetica,sans-Serif" font-size="10.00">include/mini/mesh/metis.hpp</text>
</a>
</g>
</g>
<!-- Node2 -->
<g id="node2" class="node">
<title>Node2</title>
<g id="a_node2"><a xlink:title=" ">
<polygon fill="white" stroke="#bfbfbf" points="0,-0.5 0,-19.5 60,-19.5 60,-0.5 0,-0.5"/>
<text text-anchor="middle" x="30" y="-7.5" font-family="Helvetica,sans-Serif" font-size="10.00">concepts</text>
</a>
</g>
</g>
<!-- Node1&#45;&gt;Node2 -->
<g id="edge1" class="edge">
<title>Node1&#45;&gt;Node2</title>
<path fill="none" stroke="midnightblue" d="M252.29,-56.47C208.17,-48.14 139.24,-34.86 70.37,-20.24"/>
<polygon fill="midnightblue" stroke="midnightblue" points="70.72,-16.74 60.21,-18.07 69.26,-23.58 70.72,-16.74"/>
</g>
<!-- Node3 -->
<g id="node3" class="node">
<title>Node3</title>
<g id="a_node3"><a xlink:title=" ">
<polygon fill="white" stroke="#bfbfbf" points="78,-0.5 78,-19.5 128,-19.5 128,-0.5 78,-0.5"/>
<text text-anchor="middle" x="103" y="-7.5" font-family="Helvetica,sans-Serif" font-size="10.00">ranges</text>
</a>
</g>
</g>
<!-- Node1&#45;&gt;Node3 -->
<g id="edge2" class="edge">
<title>Node1&#45;&gt;Node3</title>
<path fill="none" stroke="midnightblue" d="M267.1,-56.44C231.96,-46.71 174.7,-30.86 137.96,-20.68"/>
<polygon fill="midnightblue" stroke="midnightblue" points="138.74,-17.27 128.17,-17.97 136.88,-24.01 138.74,-17.27"/>
</g>
<!-- Node4 -->
<g id="node4" class="node">
<title>Node4</title>
<g id="a_node4"><a xlink:title=" ">
<polygon fill="white" stroke="#bfbfbf" points="146,-0.5 146,-19.5 210,-19.5 210,-0.5 146,-0.5"/>
<text text-anchor="middle" x="178" y="-7.5" font-family="Helvetica,sans-Serif" font-size="10.00">algorithm</text>
</a>
</g>
</g>
<!-- Node1&#45;&gt;Node4 -->
<g id="edge3" class="edge">
<title>Node1&#45;&gt;Node4</title>
<path fill="none" stroke="midnightblue" d="M278.99,-56.44C259.41,-47.64 228.69,-33.81 206.27,-23.72"/>
<polygon fill="midnightblue" stroke="midnightblue" points="207.48,-20.43 196.93,-19.52 204.61,-26.81 207.48,-20.43"/>
</g>
<!-- Node5 -->
<g id="node5" class="node">
<title>Node5</title>
<g id="a_node5"><a xlink:title=" ">
<polygon fill="white" stroke="#bfbfbf" points="228,-0.5 228,-19.5 286,-19.5 286,-0.5 228,-0.5"/>
<text text-anchor="middle" x="257" y="-7.5" font-family="Helvetica,sans-Serif" font-size="10.00">memory</text>
</a>
</g>
</g>
<!-- Node1&#45;&gt;Node5 -->
<g id="edge4" class="edge">
<title>Node1&#45;&gt;Node5</title>
<path fill="none" stroke="midnightblue" d="M291.23,-56.08C285.44,-48.46 276.94,-37.26 269.86,-27.94"/>
<polygon fill="midnightblue" stroke="midnightblue" points="272.48,-25.6 263.64,-19.75 266.9,-29.83 272.48,-25.6"/>
</g>
<!-- Node6 -->
<g id="node6" class="node">
<title>Node6</title>
<g id="a_node6"><a xlink:title=" ">
<polygon fill="white" stroke="#bfbfbf" points="304.5,-0.5 304.5,-19.5 373.5,-19.5 373.5,-0.5 304.5,-0.5"/>
<text text-anchor="middle" x="339" y="-7.5" font-family="Helvetica,sans-Serif" font-size="10.00">type_traits</text>
</a>
</g>
</g>
<!-- Node1&#45;&gt;Node6 -->
<g id="edge5" class="edge">
<title>Node1&#45;&gt;Node6</title>
<path fill="none" stroke="midnightblue" d="M304.77,-56.08C310.56,-48.46 319.06,-37.26 326.14,-27.94"/>
<polygon fill="midnightblue" stroke="midnightblue" points="329.1,-29.83 332.36,-19.75 323.52,-25.6 329.1,-29.83"/>
</g>
<!-- Node7 -->
<g id="node7" class="node">
<title>Node7</title>
<g id="a_node7"><a xlink:title=" ">
<polygon fill="white" stroke="#bfbfbf" points="391.5,-0.5 391.5,-19.5 436.5,-19.5 436.5,-0.5 391.5,-0.5"/>
<text text-anchor="middle" x="414" y="-7.5" font-family="Helvetica,sans-Serif" font-size="10.00">utility</text>
</a>
</g>
</g>
<!-- Node1&#45;&gt;Node7 -->
<g id="edge6" class="edge">
<title>Node1&#45;&gt;Node7</title>
<path fill="none" stroke="midnightblue" d="M316.38,-56.44C335.22,-47.68 364.73,-33.94 386.38,-23.86"/>
<polygon fill="midnightblue" stroke="midnightblue" points="388.12,-26.91 395.71,-19.52 385.16,-20.56 388.12,-26.91"/>
</g>
<!-- Node8 -->
<g id="node8" class="node">
<title>Node8</title>
<g id="a_node8"><a xlink:title=" ">
<polygon fill="white" stroke="#bfbfbf" points="454.5,-0.5 454.5,-19.5 501.5,-19.5 501.5,-0.5 454.5,-0.5"/>
<text text-anchor="middle" x="478" y="-7.5" font-family="Helvetica,sans-Serif" font-size="10.00">vector</text>
</a>
</g>
</g>
<!-- Node1&#45;&gt;Node8 -->
<g id="edge7" class="edge">
<title>Node1&#45;&gt;Node8</title>
<path fill="none" stroke="midnightblue" d="M326.52,-56.44C358.59,-46.82 410.62,-31.21 444.57,-21.03"/>
<polygon fill="midnightblue" stroke="midnightblue" points="445.92,-24.28 454.49,-18.05 443.9,-17.57 445.92,-24.28"/>
</g>
<!-- Node9 -->
<g id="node9" class="node">
<title>Node9</title>
<g id="a_node9"><a xlink:title=" ">
<polygon fill="white" stroke="#bfbfbf" points="519.5,-0.5 519.5,-19.5 572.5,-19.5 572.5,-0.5 519.5,-0.5"/>
<text text-anchor="middle" x="546" y="-7.5" font-family="Helvetica,sans-Serif" font-size="10.00">metis.h</text>
</a>
</g>
</g>
<!-- Node1&#45;&gt;Node9 -->
<g id="edge8" class="edge">
<title>Node1&#45;&gt;Node9</title>
<path fill="none" stroke="midnightblue" d="M340.96,-56.5C381.96,-48.25 445.7,-35.1 509.46,-20.29"/>
<polygon fill="midnightblue" stroke="midnightblue" points="510.34,-23.68 519.28,-18 508.74,-16.87 510.34,-23.68"/>
</g>
</g>
</svg>
