<?xml version="1.0" encoding="UTF-8" standalone="no"?>
<!DOCTYPE svg PUBLIC "-//W3C//DTD SVG 1.1//EN"
 "http://www.w3.org/Graphics/SVG/1.1/DTD/svg11.dtd">
<!-- Generated by graphviz version 2.43.0 (0)
 -->
<!-- Title: include/mini/mesh/overset.hpp Pages: 1 -->
<svg width="2618pt" height="319pt"
 viewBox="0.00 0.00 2618.42 319.00" xmlns="http://www.w3.org/2000/svg" xmlns:xlink="http://www.w3.org/1999/xlink">
<g id="graph0" class="graph" transform="scale(1 1) rotate(0) translate(4 315)">
<title>include/mini/mesh/overset.hpp</title>
<polygon fill="white" stroke="transparent" points="-4,4 -4,-315 2614.42,-315 2614.42,4 -4,4"/>
<!-- Node1 -->
<g id="node1" class="node">
<title>Node1</title>
<g id="a_node1"><a xlink:title=" ">
<polygon fill="#bfbfbf" stroke="black" points="1182.42,-291.5 1182.42,-310.5 1349.42,-310.5 1349.42,-291.5 1182.42,-291.5"/>
<text text-anchor="middle" x="1265.92" y="-298.5" font-family="Helvetica,sans-Serif" font-size="10.00">include/mini/mesh/overset.hpp</text>
</a>
</g>
</g>
<!-- Node2 -->
<g id="node2" class="node">
<title>Node2</title>
<g id="a_node2"><a xlink:title=" ">
<polygon fill="white" stroke="#bfbfbf" points="583.92,-118 583.92,-137 643.92,-137 643.92,-118 583.92,-118"/>
<text text-anchor="middle" x="613.92" y="-125" font-family="Helvetica,sans-Serif" font-size="10.00">concepts</text>
</a>
</g>
</g>
<!-- Node1&#45;&gt;Node2 -->
<g id="edge1" class="edge">
<title>Node1&#45;&gt;Node2</title>
<path fill="none" stroke="midnightblue" d="M1196.28,-291.46C1098.97,-278.27 917.65,-249.08 769.92,-199 722.43,-182.9 669.77,-157.39 639.39,-141.88"/>
<polygon fill="midnightblue" stroke="midnightblue" points="640.84,-138.69 630.34,-137.22 637.63,-144.91 640.84,-138.69"/>
</g>
<!-- Node3 -->
<g id="node3" class="node">
<title>Node3</title>
<g id="a_node3"><a xlink:title=" ">
<polygon fill="white" stroke="#bfbfbf" points="1065.92,-0.5 1065.92,-19.5 1129.92,-19.5 1129.92,-0.5 1065.92,-0.5"/>
<text text-anchor="middle" x="1097.92" y="-7.5" font-family="Helvetica,sans-Serif" font-size="10.00">algorithm</text>
</a>
</g>
</g>
<!-- Node1&#45;&gt;Node3 -->
<g id="edge2" class="edge">
<title>Node1&#45;&gt;Node3</title>
<path fill="none" stroke="midnightblue" d="M1315.79,-291.45C1368.75,-279.16 1444.92,-250.91 1444.92,-190 1444.92,-190 1444.92,-190 1444.92,-126.5 1444.92,-62.92 1232.54,-28.13 1140.08,-16"/>
<polygon fill="midnightblue" stroke="midnightblue" points="1140.31,-12.5 1129.95,-14.69 1139.42,-19.44 1140.31,-12.5"/>
</g>
<!-- Node4 -->
<g id="node4" class="node">
<title>Node4</title>
<g id="a_node4"><a xlink:title=" ">
<polygon fill="white" stroke="#bfbfbf" points="1326.92,-118 1326.92,-137 1378.92,-137 1378.92,-118 1326.92,-118"/>
<text text-anchor="middle" x="1352.92" y="-125" font-family="Helvetica,sans-Serif" font-size="10.00">cassert</text>
</a>
</g>
</g>
<!-- Node1&#45;&gt;Node4 -->
<g id="edge3" class="edge">
<title>Node1&#45;&gt;Node4</title>
<path fill="none" stroke="midnightblue" d="M1270.36,-291.26C1283.97,-264.42 1325.37,-182.82 1343.85,-146.39"/>
<polygon fill="midnightblue" stroke="midnightblue" points="1347.2,-147.52 1348.6,-137.02 1340.96,-144.35 1347.2,-147.52"/>
</g>
<!-- Node5 -->
<g id="node5" class="node">
<title>Node5</title>
<g id="a_node5"><a xlink:title=" ">
<polygon fill="white" stroke="#bfbfbf" points="400.42,-118 400.42,-137 447.42,-137 447.42,-118 400.42,-118"/>
<text text-anchor="middle" x="423.92" y="-125" font-family="Helvetica,sans-Serif" font-size="10.00">vector</text>
</a>
</g>
</g>
<!-- Node1&#45;&gt;Node5 -->
<g id="edge4" class="edge">
<title>Node1&#45;&gt;Node5</title>
<path fill="none" stroke="midnightblue" d="M1182.25,-300.07C1007.68,-299.43 610.16,-293.63 480.92,-255 433.23,-240.75 408.82,-242.11 383.92,-199 373.02,-180.11 389.98,-158.25 405.06,-143.95"/>
<polygon fill="midnightblue" stroke="midnightblue" points="407.48,-146.47 412.62,-137.21 402.83,-141.25 407.48,-146.47"/>
</g>
<!-- Node6 -->
<g id="node6" class="node">
<title>Node6</title>
<g id="a_node6"><a xlink:title=" ">
<polygon fill="white" stroke="#bfbfbf" points="1075.42,-56.5 1075.42,-75.5 1120.42,-75.5 1120.42,-56.5 1075.42,-56.5"/>
<text text-anchor="middle" x="1097.92" y="-63.5" font-family="Helvetica,sans-Serif" font-size="10.00">utility</text>
</a>
</g>
</g>
<!-- Node1&#45;&gt;Node6 -->
<g id="edge5" class="edge">
<title>Node1&#45;&gt;Node6</title>
<path fill="none" stroke="midnightblue" d="M1279.36,-291.39C1321.02,-263.71 1441.97,-175.08 1387.92,-112 1355.12,-73.71 1199.71,-67.73 1130.88,-66.99"/>
<polygon fill="midnightblue" stroke="midnightblue" points="1130.63,-63.48 1120.6,-66.91 1130.58,-70.48 1130.63,-63.48"/>
</g>
<!-- Node7 -->
<g id="node7" class="node">
<title>Node7</title>
<g id="a_node7"><a xlink:title=" ">
<polygon fill="white" stroke="#bfbfbf" points="2569.42,-118 2569.42,-137 2610.42,-137 2610.42,-118 2569.42,-118"/>
<text text-anchor="middle" x="2589.92" y="-125" font-family="Helvetica,sans-Serif" font-size="10.00">tuple</text>
</a>
</g>
</g>
<!-- Node1&#45;&gt;Node7 -->
<g id="edge6" class="edge">
<title>Node1&#45;&gt;Node7</title>
<path fill="none" stroke="midnightblue" d="M1349.75,-299.67C1558.85,-296.75 2118.5,-276.06 2560.92,-143 2562.59,-142.5 2564.28,-141.91 2565.96,-141.25"/>
<polygon fill="midnightblue" stroke="midnightblue" points="2567.61,-144.35 2575.28,-137.04 2564.72,-137.97 2567.61,-144.35"/>
</g>
<!-- Node8 -->
<g id="node8" class="node">
<title>Node8</title>
<g id="a_node8"><a xlink:title=" ">
<polygon fill="white" stroke="#bfbfbf" points="1222.92,-118 1222.92,-137 1308.92,-137 1308.92,-118 1222.92,-118"/>
<text text-anchor="middle" x="1265.92" y="-125" font-family="Helvetica,sans-Serif" font-size="10.00">unordered_set</text>
</a>
</g>
</g>
<!-- Node1&#45;&gt;Node8 -->
<g id="edge7" class="edge">
<title>Node1&#45;&gt;Node8</title>
<path fill="none" stroke="midnightblue" d="M1265.92,-291.26C1265.92,-264.65 1265.92,-184.21 1265.92,-147.34"/>
<polygon fill="midnightblue" stroke="midnightblue" points="1269.42,-147.02 1265.92,-137.02 1262.42,-147.02 1269.42,-147.02"/>
</g>
<!-- Node9 -->
<g id="node9" class="node">
<title>Node9</title>
<g id="a_node9"><a xlink:href="cgal_8hpp.html" target="_top" xlink:title=" ">
<polygon fill="white" stroke="black" points="1728.42,-179.5 1728.42,-198.5 1841.42,-198.5 1841.42,-179.5 1728.42,-179.5"/>
<text text-anchor="middle" x="1784.92" y="-186.5" font-family="Helvetica,sans-Serif" font-size="10.00">mini/mesh/cgal.hpp</text>
</a>
</g>
</g>
<!-- Node1&#45;&gt;Node9 -->
<g id="edge8" class="edge">
<title>Node1&#45;&gt;Node9</title>
<path fill="none" stroke="midnightblue" d="M1306.22,-291.46C1399.91,-271.6 1632.24,-222.36 1734.85,-200.61"/>
<polygon fill="midnightblue" stroke="midnightblue" points="1735.6,-204.03 1744.66,-198.53 1734.15,-197.18 1735.6,-204.03"/>
</g>
<!-- Node16 -->
<g id="node16" class="node">
<title>Node16</title>
<g id="a_node16"><a xlink:href="cgns_8hpp.html" target="_top" xlink:title=" ">
<polygon fill="white" stroke="black" points="779.42,-179.5 779.42,-198.5 894.42,-198.5 894.42,-179.5 779.42,-179.5"/>
<text text-anchor="middle" x="836.92" y="-186.5" font-family="Helvetica,sans-Serif" font-size="10.00">mini/mesh/cgns.hpp</text>
</a>
</g>
</g>
<!-- Node1&#45;&gt;Node16 -->
<g id="edge20" class="edge">
<title>Node1&#45;&gt;Node16</title>
<path fill="none" stroke="midnightblue" d="M1232.62,-291.46C1155.72,-271.74 965.84,-223.05 880.13,-201.08"/>
<polygon fill="midnightblue" stroke="midnightblue" points="880.77,-197.63 870.21,-198.53 879.03,-204.41 880.77,-197.63"/>
</g>
<!-- Node33 -->
<g id="node33" class="node">
<title>Node33</title>
<g id="a_node33"><a xlink:href="metis_8hpp.html" target="_top" xlink:title=" ">
<polygon fill="white" stroke="black" points="148.92,-179.5 148.92,-198.5 268.92,-198.5 268.92,-179.5 148.92,-179.5"/>
<text text-anchor="middle" x="208.92" y="-186.5" font-family="Helvetica,sans-Serif" font-size="10.00">mini/mesh/metis.hpp</text>
</a>
</g>
</g>
<!-- Node1&#45;&gt;Node33 -->
<g id="edge46" class="edge">
<title>Node1&#45;&gt;Node33</title>
<path fill="none" stroke="midnightblue" d="M1182.3,-299.33C959.89,-297.12 365.12,-288.14 282.92,-255 257.77,-244.86 235.38,-222.33 221.98,-206.66"/>
<polygon fill="midnightblue" stroke="midnightblue" points="224.56,-204.28 215.5,-198.78 219.15,-208.73 224.56,-204.28"/>
</g>
<!-- Node36 -->
<g id="node36" class="node">
<title>Node36</title>
<g id="a_node36"><a xlink:href="mapper_8hpp.html" target="_top" xlink:title=" ">
<polygon fill="white" stroke="black" points="490.42,-235.5 490.42,-254.5 619.42,-254.5 619.42,-235.5 490.42,-235.5"/>
<text text-anchor="middle" x="554.92" y="-242.5" font-family="Helvetica,sans-Serif" font-size="10.00">mini/mesh/mapper.hpp</text>
</a>
</g>
</g>
<!-- Node1&#45;&gt;Node36 -->
<g id="edge55" class="edge">
<title>Node1&#45;&gt;Node36</title>
<path fill="none" stroke="midnightblue" d="M1182.27,-293.65C1042.39,-283.02 763.21,-261.82 629.57,-251.67"/>
<polygon fill="midnightblue" stroke="midnightblue" points="629.67,-248.17 619.43,-250.9 629.14,-255.15 629.67,-248.17"/>
</g>
<!-- Node9&#45;&gt;Node2 -->
<g id="edge9" class="edge">
<title>Node9&#45;&gt;Node2</title>
<path fill="none" stroke="midnightblue" d="M1728.34,-188.11C1529.27,-188.11 862.04,-184.92 652.92,-143 649.67,-142.35 646.32,-141.46 643.02,-140.45"/>
<polygon fill="midnightblue" stroke="midnightblue" points="644.01,-137.08 633.41,-137.12 641.72,-143.7 644.01,-137.08"/>
</g>
<!-- Node9&#45;&gt;Node4 -->
<g id="edge10" class="edge">
<title>Node9&#45;&gt;Node4</title>
<path fill="none" stroke="midnightblue" d="M1728,-180.16C1637.63,-167.71 1463.89,-143.78 1388.87,-133.45"/>
<polygon fill="midnightblue" stroke="midnightblue" points="1389.34,-129.98 1378.96,-132.09 1388.39,-136.92 1389.34,-129.98"/>
</g>
<!-- Node9&#45;&gt;Node5 -->
<g id="edge11" class="edge">
<title>Node9&#45;&gt;Node5</title>
<path fill="none" stroke="midnightblue" d="M1728.28,-187.34C1490.8,-184.42 581.9,-171.46 456.92,-143 454.42,-142.43 451.86,-141.67 449.34,-140.79"/>
<polygon fill="midnightblue" stroke="midnightblue" points="450.54,-137.5 439.95,-137 447.92,-143.99 450.54,-137.5"/>
</g>
<!-- Node9&#45;&gt;Node6 -->
<g id="edge12" class="edge">
<title>Node9&#45;&gt;Node6</title>
<path fill="none" stroke="midnightblue" d="M1728.36,-182.51C1670.71,-176.1 1579.06,-163.65 1501.92,-143 1464.69,-133.03 1458.25,-121.61 1420.92,-112 1316.92,-85.22 1189.7,-73.42 1130.77,-69.1"/>
<polygon fill="midnightblue" stroke="midnightblue" points="1130.81,-65.6 1120.59,-68.38 1130.31,-72.58 1130.81,-65.6"/>
</g>
<!-- Node9&#45;&gt;Node7 -->
<g id="edge13" class="edge">
<title>Node9&#45;&gt;Node7</title>
<path fill="none" stroke="midnightblue" d="M1841.68,-187.67C1996.76,-186.29 2425.16,-179.23 2560.92,-143 2562.64,-142.54 2564.38,-141.97 2566.11,-141.33"/>
<polygon fill="midnightblue" stroke="midnightblue" points="2567.92,-144.36 2575.63,-137.08 2565.07,-137.96 2567.92,-144.36"/>
</g>
<!-- Node10 -->
<g id="node10" class="node">
<title>Node10</title>
<g id="a_node10"><a xlink:title=" ">
<polygon fill="white" stroke="#bfbfbf" points="2068.42,-118 2068.42,-137 2207.42,-137 2207.42,-118 2068.42,-118"/>
<text text-anchor="middle" x="2137.92" y="-125" font-family="Helvetica,sans-Serif" font-size="10.00">CGAL/Simple_cartesian.h</text>
</a>
</g>
</g>
<!-- Node9&#45;&gt;Node10 -->
<g id="edge14" class="edge">
<title>Node9&#45;&gt;Node10</title>
<path fill="none" stroke="midnightblue" d="M1839.25,-179.47C1894.76,-170.66 1983.44,-156.37 2059.92,-143 2067.38,-141.7 2075.22,-140.29 2082.95,-138.87"/>
<polygon fill="midnightblue" stroke="midnightblue" points="2083.8,-142.28 2093,-137.02 2082.53,-135.39 2083.8,-142.28"/>
</g>
<!-- Node11 -->
<g id="node11" class="node">
<title>Node11</title>
<g id="a_node11"><a xlink:title=" ">
<polygon fill="white" stroke="#bfbfbf" points="2225.42,-118 2225.42,-137 2374.42,-137 2374.42,-118 2225.42,-118"/>
<text text-anchor="middle" x="2299.92" y="-125" font-family="Helvetica,sans-Serif" font-size="10.00">CGAL/point_generators_3.h</text>
</a>
</g>
</g>
<!-- Node9&#45;&gt;Node11 -->
<g id="edge15" class="edge">
<title>Node9&#45;&gt;Node11</title>
<path fill="none" stroke="midnightblue" d="M1841.69,-183.35C1924.41,-176.28 2082.87,-161.67 2216.92,-143 2225.77,-141.77 2235.11,-140.3 2244.21,-138.78"/>
<polygon fill="midnightblue" stroke="midnightblue" points="2245.08,-142.18 2254.35,-137.05 2243.9,-135.28 2245.08,-142.18"/>
</g>
<!-- Node12 -->
<g id="node12" class="node">
<title>Node12</title>
<g id="a_node12"><a xlink:title=" ">
<polygon fill="white" stroke="#bfbfbf" points="2392.42,-112.5 2392.42,-142.5 2551.42,-142.5 2551.42,-112.5 2392.42,-112.5"/>
<text text-anchor="start" x="2400.42" y="-130.5" font-family="Helvetica,sans-Serif" font-size="10.00">CGAL/Orthogonal_k_neighbor</text>
<text text-anchor="middle" x="2471.92" y="-119.5" font-family="Helvetica,sans-Serif" font-size="10.00">_search.h</text>
</a>
</g>
</g>
<!-- Node9&#45;&gt;Node12 -->
<g id="edge16" class="edge">
<title>Node9&#45;&gt;Node12</title>
<path fill="none" stroke="midnightblue" d="M1841.66,-185.41C1946.48,-180.26 2177.76,-167.2 2382.32,-143.13"/>
<polygon fill="midnightblue" stroke="midnightblue" points="2382.83,-146.59 2392.34,-141.94 2382,-139.64 2382.83,-146.59"/>
</g>
<!-- Node13 -->
<g id="node13" class="node">
<title>Node13</title>
<g id="a_node13"><a xlink:title=" ">
<polygon fill="white" stroke="#bfbfbf" points="1650.92,-118 1650.92,-137 1780.92,-137 1780.92,-118 1650.92,-118"/>
<text text-anchor="middle" x="1715.92" y="-125" font-family="Helvetica,sans-Serif" font-size="10.00">CGAL/Search_traits_3.h</text>
</a>
</g>
</g>
<!-- Node9&#45;&gt;Node13 -->
<g id="edge17" class="edge">
<title>Node9&#45;&gt;Node13</title>
<path fill="none" stroke="midnightblue" d="M1775.04,-179.48C1764.28,-170.2 1746.85,-155.17 1733.7,-143.83"/>
<polygon fill="midnightblue" stroke="midnightblue" points="1735.65,-140.89 1725.79,-137.01 1731.08,-146.19 1735.65,-140.89"/>
</g>
<!-- Node14 -->
<g id="node14" class="node">
<title>Node14</title>
<g id="a_node14"><a xlink:title=" ">
<polygon fill="white" stroke="#bfbfbf" points="1798.92,-112.5 1798.92,-142.5 1908.92,-142.5 1908.92,-112.5 1798.92,-112.5"/>
<text text-anchor="start" x="1806.92" y="-130.5" font-family="Helvetica,sans-Serif" font-size="10.00">CGAL/Search_traits</text>
<text text-anchor="middle" x="1853.92" y="-119.5" font-family="Helvetica,sans-Serif" font-size="10.00">_adapter.h</text>
</a>
</g>
</g>
<!-- Node9&#45;&gt;Node14 -->
<g id="edge18" class="edge">
<title>Node9&#45;&gt;Node14</title>
<path fill="none" stroke="midnightblue" d="M1794.81,-179.48C1803.98,-171.57 1817.99,-159.48 1830.07,-149.07"/>
<polygon fill="midnightblue" stroke="midnightblue" points="1832.38,-151.7 1837.66,-142.52 1827.8,-146.4 1832.38,-151.7"/>
</g>
<!-- Node15 -->
<g id="node15" class="node">
<title>Node15</title>
<g id="a_node15"><a xlink:title=" ">
<polygon fill="white" stroke="#bfbfbf" points="1927.42,-118 1927.42,-137 2050.42,-137 2050.42,-118 1927.42,-118"/>
<text text-anchor="middle" x="1988.92" y="-125" font-family="Helvetica,sans-Serif" font-size="10.00">CGAL/property_map.h</text>
</a>
</g>
</g>
<!-- Node9&#45;&gt;Node15 -->
<g id="edge19" class="edge">
<title>Node9&#45;&gt;Node15</title>
<path fill="none" stroke="midnightblue" d="M1814.15,-179.48C1849.83,-169.07 1910.28,-151.44 1949.91,-139.88"/>
<polygon fill="midnightblue" stroke="midnightblue" points="1951.13,-143.17 1959.75,-137.01 1949.17,-136.45 1951.13,-143.17"/>
</g>
<!-- Node16&#45;&gt;Node2 -->
<g id="edge21" class="edge">
<title>Node16&#45;&gt;Node2</title>
<path fill="none" stroke="midnightblue" d="M795.99,-179.42C758.46,-171.22 701.5,-157.91 652.92,-143 650.36,-142.21 647.72,-141.35 645.07,-140.45"/>
<polygon fill="midnightblue" stroke="midnightblue" points="646.23,-137.14 635.64,-137.08 643.88,-143.74 646.23,-137.14"/>
</g>
<!-- Node16&#45;&gt;Node3 -->
<g id="edge23" class="edge">
<title>Node16&#45;&gt;Node3</title>
<path fill="none" stroke="midnightblue" d="M826.23,-179.35C809.49,-164.75 780.64,-134.64 796.92,-112 856.5,-29.17 987.28,-13.32 1055.16,-10.89"/>
<polygon fill="midnightblue" stroke="midnightblue" points="1055.59,-14.38 1065.49,-10.61 1055.4,-7.38 1055.59,-14.38"/>
</g>
<!-- Node16&#45;&gt;Node4 -->
<g id="edge25" class="edge">
<title>Node16&#45;&gt;Node4</title>
<path fill="none" stroke="midnightblue" d="M894.49,-188.13C985.68,-187.12 1168.34,-180.09 1317.92,-143 1320.44,-142.38 1323.01,-141.6 1325.55,-140.74"/>
<polygon fill="midnightblue" stroke="midnightblue" points="1327.02,-143.93 1335.11,-137.09 1324.52,-137.39 1327.02,-143.93"/>
</g>
<!-- Node16&#45;&gt;Node5 -->
<g id="edge35" class="edge">
<title>Node16&#45;&gt;Node5</title>
<path fill="none" stroke="midnightblue" d="M779.27,-186.46C703.92,-183.25 568.46,-173.38 456.92,-143 454.63,-142.38 452.29,-141.62 449.97,-140.78"/>
<polygon fill="midnightblue" stroke="midnightblue" points="451.28,-137.53 440.7,-137.02 448.65,-144.02 451.28,-137.53"/>
</g>
<!-- Node16&#45;&gt;Node6 -->
<g id="edge34" class="edge">
<title>Node16&#45;&gt;Node6</title>
<path fill="none" stroke="midnightblue" d="M828.03,-179.05C813.88,-163.74 789.57,-132.25 806.92,-112 839.85,-73.59 995.79,-67.68 1064.86,-66.97"/>
<polygon fill="midnightblue" stroke="midnightblue" points="1065.19,-70.46 1075.17,-66.89 1065.14,-63.46 1065.19,-70.46"/>
</g>
<!-- Node16&#45;&gt;Node8 -->
<g id="edge33" class="edge">
<title>Node16&#45;&gt;Node8</title>
<path fill="none" stroke="midnightblue" d="M894.67,-183.76C968.83,-177.7 1101.3,-164.82 1212.92,-143 1217.76,-142.05 1222.8,-140.9 1227.77,-139.66"/>
<polygon fill="midnightblue" stroke="midnightblue" points="1228.99,-142.96 1237.78,-137.03 1227.22,-136.19 1228.99,-142.96"/>
</g>
<!-- Node17 -->
<g id="node17" class="node">
<title>Node17</title>
<g id="a_node17"><a xlink:title=" ">
<polygon fill="white" stroke="#bfbfbf" points="331.92,-118 331.92,-137 381.92,-137 381.92,-118 331.92,-118"/>
<text text-anchor="middle" x="356.92" y="-125" font-family="Helvetica,sans-Serif" font-size="10.00">ranges</text>
</a>
</g>
</g>
<!-- Node16&#45;&gt;Node17 -->
<g id="edge22" class="edge">
<title>Node16&#45;&gt;Node17</title>
<path fill="none" stroke="midnightblue" d="M779.28,-187.71C693.35,-186.04 527.15,-178.05 390.92,-143 388.57,-142.39 386.16,-141.65 383.77,-140.82"/>
<polygon fill="midnightblue" stroke="midnightblue" points="384.8,-137.46 374.22,-137.07 382.25,-143.98 384.8,-137.46"/>
</g>
<!-- Node18 -->
<g id="node18" class="node">
<title>Node18</title>
<g id="a_node18"><a xlink:title=" ">
<polygon fill="white" stroke="#bfbfbf" points="815.92,-118 815.92,-137 857.92,-137 857.92,-118 815.92,-118"/>
<text text-anchor="middle" x="836.92" y="-125" font-family="Helvetica,sans-Serif" font-size="10.00">array</text>
</a>
</g>
</g>
<!-- Node16&#45;&gt;Node18 -->
<g id="edge24" class="edge">
<title>Node16&#45;&gt;Node18</title>
<path fill="none" stroke="midnightblue" d="M836.92,-179.48C836.92,-171.08 836.92,-157.98 836.92,-147.16"/>
<polygon fill="midnightblue" stroke="midnightblue" points="840.42,-147.01 836.92,-137.01 833.42,-147.01 840.42,-147.01"/>
</g>
<!-- Node19 -->
<g id="node19" class="node">
<title>Node19</title>
<g id="a_node19"><a xlink:title=" ">
<polygon fill="white" stroke="#bfbfbf" points="875.92,-118 875.92,-137 935.92,-137 935.92,-118 875.92,-118"/>
<text text-anchor="middle" x="905.92" y="-125" font-family="Helvetica,sans-Serif" font-size="10.00">iostream</text>
</a>
</g>
</g>
<!-- Node16&#45;&gt;Node19 -->
<g id="edge26" class="edge">
<title>Node16&#45;&gt;Node19</title>
<path fill="none" stroke="midnightblue" d="M846.81,-179.48C857.57,-170.2 875,-155.17 888.15,-143.83"/>
<polygon fill="midnightblue" stroke="midnightblue" points="890.77,-146.19 896.06,-137.01 886.2,-140.89 890.77,-146.19"/>
</g>
<!-- Node20 -->
<g id="node20" class="node">
<title>Node20</title>
<g id="a_node20"><a xlink:title=" ">
<polygon fill="white" stroke="#bfbfbf" points="465.92,-118 465.92,-137 503.92,-137 503.92,-118 465.92,-118"/>
<text text-anchor="middle" x="484.92" y="-125" font-family="Helvetica,sans-Serif" font-size="10.00">map</text>
</a>
</g>
</g>
<!-- Node16&#45;&gt;Node20 -->
<g id="edge27" class="edge">
<title>Node16&#45;&gt;Node20</title>
<path fill="none" stroke="midnightblue" d="M779.15,-185.87C713.31,-182.1 603.17,-171.7 512.92,-143 511.46,-142.53 509.97,-141.99 508.5,-141.4"/>
<polygon fill="midnightblue" stroke="midnightblue" points="509.6,-138.05 499.05,-137 506.64,-144.4 509.6,-138.05"/>
</g>
<!-- Node21 -->
<g id="node21" class="node">
<title>Node21</title>
<g id="a_node21"><a xlink:title=" ">
<polygon fill="white" stroke="#bfbfbf" points="255.92,-118 255.92,-137 313.92,-137 313.92,-118 255.92,-118"/>
<text text-anchor="middle" x="284.92" y="-125" font-family="Helvetica,sans-Serif" font-size="10.00">memory</text>
</a>
</g>
</g>
<!-- Node16&#45;&gt;Node21 -->
<g id="edge28" class="edge">
<title>Node16&#45;&gt;Node21</title>
<path fill="none" stroke="midnightblue" d="M779.11,-184.96C663.67,-178.56 408.37,-162.64 322.92,-143 319.92,-142.31 316.84,-141.44 313.8,-140.46"/>
<polygon fill="midnightblue" stroke="midnightblue" points="314.92,-137.14 304.32,-137.09 312.57,-143.74 314.92,-137.14"/>
</g>
<!-- Node22 -->
<g id="node22" class="node">
<title>Node22</title>
<g id="a_node22"><a xlink:title=" ">
<polygon fill="white" stroke="#bfbfbf" points="953.92,-118 953.92,-137 1009.92,-137 1009.92,-118 953.92,-118"/>
<text text-anchor="middle" x="981.92" y="-125" font-family="Helvetica,sans-Serif" font-size="10.00">numeric</text>
</a>
</g>
</g>
<!-- Node16&#45;&gt;Node22 -->
<g id="edge29" class="edge">
<title>Node16&#45;&gt;Node22</title>
<path fill="none" stroke="midnightblue" d="M857.7,-179.48C882.36,-169.36 923.67,-152.4 951.83,-140.85"/>
<polygon fill="midnightblue" stroke="midnightblue" points="953.27,-144.04 961.19,-137.01 950.61,-137.57 953.27,-144.04"/>
</g>
<!-- Node23 -->
<g id="node23" class="node">
<title>Node23</title>
<g id="a_node23"><a xlink:title=" ">
<polygon fill="white" stroke="#bfbfbf" points="1028.42,-118 1028.42,-137 1093.42,-137 1093.42,-118 1028.42,-118"/>
<text text-anchor="middle" x="1060.92" y="-125" font-family="Helvetica,sans-Serif" font-size="10.00">stdexcept</text>
</a>
</g>
</g>
<!-- Node16&#45;&gt;Node23 -->
<g id="edge30" class="edge">
<title>Node16&#45;&gt;Node23</title>
<path fill="none" stroke="midnightblue" d="M875.9,-179.43C912.93,-171.04 970.08,-157.44 1018.92,-143 1021.86,-142.13 1024.9,-141.18 1027.94,-140.2"/>
<polygon fill="midnightblue" stroke="midnightblue" points="1029.12,-143.49 1037.5,-137 1026.9,-136.86 1029.12,-143.49"/>
</g>
<!-- Node24 -->
<g id="node24" class="node">
<title>Node24</title>
<g id="a_node24"><a xlink:title=" ">
<polygon fill="white" stroke="#bfbfbf" points="521.92,-118 521.92,-137 565.92,-137 565.92,-118 521.92,-118"/>
<text text-anchor="middle" x="543.92" y="-125" font-family="Helvetica,sans-Serif" font-size="10.00">string</text>
</a>
</g>
</g>
<!-- Node16&#45;&gt;Node24 -->
<g id="edge31" class="edge">
<title>Node16&#45;&gt;Node24</title>
<path fill="none" stroke="midnightblue" d="M779.41,-182.6C725.62,-176.5 643.51,-164.5 574.92,-143 573.05,-142.41 571.15,-141.74 569.25,-141"/>
<polygon fill="midnightblue" stroke="midnightblue" points="570.58,-137.76 560.01,-137.02 567.8,-144.19 570.58,-137.76"/>
</g>
<!-- Node25 -->
<g id="node25" class="node">
<title>Node25</title>
<g id="a_node25"><a xlink:title=" ">
<polygon fill="white" stroke="#bfbfbf" points="1111.42,-118 1111.42,-137 1204.42,-137 1204.42,-118 1111.42,-118"/>
<text text-anchor="middle" x="1157.92" y="-125" font-family="Helvetica,sans-Serif" font-size="10.00">unordered_map</text>
</a>
</g>
</g>
<!-- Node16&#45;&gt;Node25 -->
<g id="edge32" class="edge">
<title>Node16&#45;&gt;Node25</title>
<path fill="none" stroke="midnightblue" d="M894.57,-179.66C948.44,-171.52 1030.97,-158.18 1101.92,-143 1106.89,-141.94 1112.08,-140.73 1117.21,-139.47"/>
<polygon fill="midnightblue" stroke="midnightblue" points="1118.09,-142.86 1126.93,-137.03 1116.38,-136.07 1118.09,-142.86"/>
</g>
<!-- Node26 -->
<g id="node26" class="node">
<title>Node26</title>
<g id="a_node26"><a xlink:title=" ">
<polygon fill="white" stroke="#bfbfbf" points="661.92,-118 661.92,-137 721.92,-137 721.92,-118 661.92,-118"/>
<text text-anchor="middle" x="691.92" y="-125" font-family="Helvetica,sans-Serif" font-size="10.00">cgnslib.h</text>
</a>
</g>
</g>
<!-- Node16&#45;&gt;Node26 -->
<g id="edge36" class="edge">
<title>Node16&#45;&gt;Node26</title>
<path fill="none" stroke="midnightblue" d="M816.15,-179.48C791.49,-169.36 750.18,-152.4 722.02,-140.85"/>
<polygon fill="midnightblue" stroke="midnightblue" points="723.24,-137.57 712.66,-137.01 720.58,-144.04 723.24,-137.57"/>
</g>
<!-- Node27 -->
<g id="node27" class="node">
<title>Node27</title>
<g id="a_node27"><a xlink:href="pi_8hpp.html" target="_top" xlink:title=" ">
<polygon fill="white" stroke="black" points="1510.92,-118 1510.92,-137 1632.92,-137 1632.92,-118 1510.92,-118"/>
<text text-anchor="middle" x="1571.92" y="-125" font-family="Helvetica,sans-Serif" font-size="10.00">mini/geometry/pi.hpp</text>
</a>
</g>
</g>
<!-- Node16&#45;&gt;Node27 -->
<g id="edge37" class="edge">
<title>Node16&#45;&gt;Node27</title>
<path fill="none" stroke="midnightblue" d="M894.6,-183.33C1027.54,-172.57 1355.19,-146.05 1500.52,-134.28"/>
<polygon fill="midnightblue" stroke="midnightblue" points="1500.98,-137.75 1510.67,-133.46 1500.42,-130.78 1500.98,-137.75"/>
</g>
<!-- Node27&#45;&gt;Node6 -->
<g id="edge40" class="edge">
<title>Node27&#45;&gt;Node6</title>
<path fill="none" stroke="midnightblue" d="M1530.76,-117.94C1519.8,-115.82 1507.94,-113.68 1496.92,-112 1361.52,-91.31 1198.92,-75.87 1130.64,-69.81"/>
<polygon fill="midnightblue" stroke="midnightblue" points="1130.77,-66.31 1120.5,-68.92 1130.16,-73.28 1130.77,-66.31"/>
</g>
<!-- Node28 -->
<g id="node28" class="node">
<title>Node28</title>
<g id="a_node28"><a xlink:title=" ">
<polygon fill="white" stroke="#bfbfbf" points="1677.42,-0.5 1677.42,-19.5 1724.42,-19.5 1724.42,-0.5 1677.42,-0.5"/>
<text text-anchor="middle" x="1700.92" y="-7.5" font-family="Helvetica,sans-Serif" font-size="10.00">cmath</text>
</a>
</g>
</g>
<!-- Node27&#45;&gt;Node28 -->
<g id="edge38" class="edge">
<title>Node27&#45;&gt;Node28</title>
<path fill="none" stroke="midnightblue" d="M1615.54,-117.99C1640.36,-110.9 1670,-98.22 1687.92,-76 1698.42,-63 1701.19,-43.83 1701.62,-29.68"/>
<polygon fill="midnightblue" stroke="midnightblue" points="1705.12,-29.6 1701.57,-19.62 1698.12,-29.64 1705.12,-29.6"/>
</g>
<!-- Node29 -->
<g id="node29" class="node">
<title>Node29</title>
<g id="a_node29"><a xlink:title=" ">
<polygon fill="white" stroke="#bfbfbf" points="1473.42,-56.5 1473.42,-75.5 1532.42,-75.5 1532.42,-56.5 1473.42,-56.5"/>
<text text-anchor="middle" x="1502.92" y="-63.5" font-family="Helvetica,sans-Serif" font-size="10.00">numbers</text>
</a>
</g>
</g>
<!-- Node27&#45;&gt;Node29 -->
<g id="edge39" class="edge">
<title>Node27&#45;&gt;Node29</title>
<path fill="none" stroke="midnightblue" d="M1562.04,-117.98C1551.28,-108.7 1533.85,-93.67 1520.7,-82.33"/>
<polygon fill="midnightblue" stroke="midnightblue" points="1522.65,-79.39 1512.79,-75.51 1518.08,-84.69 1522.65,-79.39"/>
</g>
<!-- Node30 -->
<g id="node30" class="node">
<title>Node30</title>
<g id="a_node30"><a xlink:href="algebra_2eigen_8hpp.html" target="_top" xlink:title=" ">
<polygon fill="white" stroke="black" points="1550.42,-56.5 1550.42,-75.5 1679.42,-75.5 1679.42,-56.5 1550.42,-56.5"/>
<text text-anchor="middle" x="1614.92" y="-63.5" font-family="Helvetica,sans-Serif" font-size="10.00">mini/algebra/eigen.hpp</text>
</a>
</g>
</g>
<!-- Node27&#45;&gt;Node30 -->
<g id="edge41" class="edge">
<title>Node27&#45;&gt;Node30</title>
<path fill="none" stroke="midnightblue" d="M1578.09,-117.98C1584.54,-109.05 1594.83,-94.81 1602.9,-83.64"/>
<polygon fill="midnightblue" stroke="midnightblue" points="1605.75,-85.66 1608.78,-75.51 1600.08,-81.56 1605.75,-85.66"/>
</g>
<!-- Node30&#45;&gt;Node3 -->
<g id="edge42" class="edge">
<title>Node30&#45;&gt;Node3</title>
<path fill="none" stroke="midnightblue" d="M1550.36,-57.07C1547.17,-56.7 1544.01,-56.34 1540.92,-56 1393.87,-39.59 1219.07,-22.56 1140.22,-15.01"/>
<polygon fill="midnightblue" stroke="midnightblue" points="1140.47,-11.52 1130.19,-14.06 1139.81,-18.49 1140.47,-11.52"/>
</g>
<!-- Node30&#45;&gt;Node28 -->
<g id="edge43" class="edge">
<title>Node30&#45;&gt;Node28</title>
<path fill="none" stroke="midnightblue" d="M1628.74,-56.32C1642.16,-47.9 1662.75,-34.97 1678.51,-25.07"/>
<polygon fill="midnightblue" stroke="midnightblue" points="1680.53,-27.94 1687.14,-19.65 1676.81,-22.01 1680.53,-27.94"/>
</g>
<!-- Node31 -->
<g id="node31" class="node">
<title>Node31</title>
<g id="a_node31"><a xlink:title=" ">
<polygon fill="white" stroke="#bfbfbf" points="1597.42,-0.5 1597.42,-19.5 1646.42,-19.5 1646.42,-0.5 1597.42,-0.5"/>
<text text-anchor="middle" x="1621.92" y="-7.5" font-family="Helvetica,sans-Serif" font-size="10.00">cstdlib</text>
</a>
</g>
</g>
<!-- Node30&#45;&gt;Node31 -->
<g id="edge44" class="edge">
<title>Node30&#45;&gt;Node31</title>
<path fill="none" stroke="midnightblue" d="M1616.08,-56.08C1617.01,-48.93 1618.34,-38.64 1619.5,-29.69"/>
<polygon fill="midnightblue" stroke="midnightblue" points="1622.98,-30.12 1620.79,-19.75 1616.03,-29.22 1622.98,-30.12"/>
</g>
<!-- Node32 -->
<g id="node32" class="node">
<title>Node32</title>
<g id="a_node32"><a xlink:title=" ">
<polygon fill="white" stroke="#bfbfbf" points="1504.92,-0.5 1504.92,-19.5 1578.92,-19.5 1578.92,-0.5 1504.92,-0.5"/>
<text text-anchor="middle" x="1541.92" y="-7.5" font-family="Helvetica,sans-Serif" font-size="10.00">Eigen/Eigen</text>
</a>
</g>
</g>
<!-- Node30&#45;&gt;Node32 -->
<g id="edge45" class="edge">
<title>Node30&#45;&gt;Node32</title>
<path fill="none" stroke="midnightblue" d="M1603.2,-56.32C1592.09,-48.11 1575.18,-35.6 1561.94,-25.81"/>
<polygon fill="midnightblue" stroke="midnightblue" points="1563.99,-22.97 1553.87,-19.83 1559.82,-28.59 1563.99,-22.97"/>
</g>
<!-- Node33&#45;&gt;Node2 -->
<g id="edge47" class="edge">
<title>Node33&#45;&gt;Node2</title>
<path fill="none" stroke="midnightblue" d="M268.97,-184.93C342.11,-180.2 469.03,-168.82 574.92,-143 577.92,-142.27 580.99,-141.38 584.04,-140.41"/>
<polygon fill="midnightblue" stroke="midnightblue" points="585.27,-143.69 593.56,-137.09 582.97,-137.08 585.27,-143.69"/>
</g>
<!-- Node33&#45;&gt;Node3 -->
<g id="edge49" class="edge">
<title>Node33&#45;&gt;Node3</title>
<path fill="none" stroke="midnightblue" d="M183.42,-179.47C166.94,-172.48 146.79,-160.79 136.92,-143 130.25,-130.95 127.71,-122.24 136.92,-112 199.32,-42.7 878.19,-17.59 1055.67,-12.19"/>
<polygon fill="midnightblue" stroke="midnightblue" points="1056.02,-15.68 1065.91,-11.88 1055.81,-8.68 1056.02,-15.68"/>
</g>
<!-- Node33&#45;&gt;Node5 -->
<g id="edge53" class="edge">
<title>Node33&#45;&gt;Node5</title>
<path fill="none" stroke="midnightblue" d="M252.18,-179.49C289.44,-171.65 344.4,-158.84 390.92,-143 392.79,-142.36 394.7,-141.67 396.61,-140.93"/>
<polygon fill="midnightblue" stroke="midnightblue" points="398.09,-144.1 405.99,-137.05 395.41,-137.64 398.09,-144.1"/>
</g>
<!-- Node33&#45;&gt;Node6 -->
<g id="edge52" class="edge">
<title>Node33&#45;&gt;Node6</title>
<path fill="none" stroke="midnightblue" d="M210.42,-179.04C213.7,-162.51 223.23,-127.52 246.92,-112 316.27,-66.57 916.55,-66.2 1064.89,-66.81"/>
<polygon fill="midnightblue" stroke="midnightblue" points="1065.14,-70.31 1075.16,-66.85 1065.18,-63.31 1065.14,-70.31"/>
</g>
<!-- Node33&#45;&gt;Node17 -->
<g id="edge48" class="edge">
<title>Node33&#45;&gt;Node17</title>
<path fill="none" stroke="midnightblue" d="M231.28,-179.38C254.31,-170.45 291.23,-156.01 322.92,-143 324.52,-142.35 326.15,-141.67 327.79,-140.99"/>
<polygon fill="midnightblue" stroke="midnightblue" points="329.33,-144.13 337.19,-137.03 326.61,-137.68 329.33,-144.13"/>
</g>
<!-- Node33&#45;&gt;Node21 -->
<g id="edge50" class="edge">
<title>Node33&#45;&gt;Node21</title>
<path fill="none" stroke="midnightblue" d="M219.81,-179.48C231.89,-170.02 251.59,-154.6 266.16,-143.19"/>
<polygon fill="midnightblue" stroke="midnightblue" points="268.34,-145.93 274.06,-137.01 264.02,-140.42 268.34,-145.93"/>
</g>
<!-- Node34 -->
<g id="node34" class="node">
<title>Node34</title>
<g id="a_node34"><a xlink:title=" ">
<polygon fill="white" stroke="#bfbfbf" points="20.42,-118 20.42,-137 89.42,-137 89.42,-118 20.42,-118"/>
<text text-anchor="middle" x="54.92" y="-125" font-family="Helvetica,sans-Serif" font-size="10.00">type_traits</text>
</a>
</g>
</g>
<!-- Node33&#45;&gt;Node34 -->
<g id="edge51" class="edge">
<title>Node33&#45;&gt;Node34</title>
<path fill="none" stroke="midnightblue" d="M186.86,-179.48C160.56,-169.31 116.41,-152.26 86.5,-140.7"/>
<polygon fill="midnightblue" stroke="midnightblue" points="87.54,-137.35 76.95,-137.01 85.01,-143.88 87.54,-137.35"/>
</g>
<!-- Node35 -->
<g id="node35" class="node">
<title>Node35</title>
<g id="a_node35"><a xlink:title=" ">
<polygon fill="white" stroke="#bfbfbf" points="146.42,-118 146.42,-137 199.42,-137 199.42,-118 146.42,-118"/>
<text text-anchor="middle" x="172.92" y="-125" font-family="Helvetica,sans-Serif" font-size="10.00">metis.h</text>
</a>
</g>
</g>
<!-- Node33&#45;&gt;Node35 -->
<g id="edge54" class="edge">
<title>Node33&#45;&gt;Node35</title>
<path fill="none" stroke="midnightblue" d="M203.77,-179.48C198.47,-170.73 190.09,-156.87 183.4,-145.81"/>
<polygon fill="midnightblue" stroke="midnightblue" points="186.24,-143.75 178.07,-137.01 180.26,-147.38 186.24,-143.75"/>
</g>
<!-- Node36&#45;&gt;Node2 -->
<g id="edge56" class="edge">
<title>Node36&#45;&gt;Node2</title>
<path fill="none" stroke="midnightblue" d="M581.85,-235.36C598.64,-228.41 618.9,-216.82 628.92,-199 638.09,-182.69 631.44,-161.39 624.31,-146.49"/>
<polygon fill="midnightblue" stroke="midnightblue" points="627.25,-144.55 619.49,-137.33 621.06,-147.81 627.25,-144.55"/>
</g>
<!-- Node36&#45;&gt;Node4 -->
<g id="edge57" class="edge">
<title>Node36&#45;&gt;Node4</title>
<path fill="none" stroke="midnightblue" d="M619.6,-241.18C752.54,-234.14 1065.23,-211.16 1317.92,-143 1320.37,-142.34 1322.87,-141.55 1325.36,-140.69"/>
<polygon fill="midnightblue" stroke="midnightblue" points="1326.63,-143.95 1334.71,-137.09 1324.12,-137.41 1326.63,-143.95"/>
</g>
<!-- Node36&#45;&gt;Node5 -->
<g id="edge66" class="edge">
<title>Node36&#45;&gt;Node5</title>
<path fill="none" stroke="midnightblue" d="M496.41,-235.43C455.05,-228.04 404.77,-215.88 391.92,-199 379.28,-182.4 393.74,-160 407.08,-144.95"/>
<polygon fill="midnightblue" stroke="midnightblue" points="409.87,-147.09 414.2,-137.42 404.79,-142.28 409.87,-147.09"/>
</g>
<!-- Node36&#45;&gt;Node6 -->
<g id="edge65" class="edge">
<title>Node36&#45;&gt;Node6</title>
<path fill="none" stroke="midnightblue" d="M490.22,-241.1C382.92,-235.7 173.03,-222.47 102.92,-199 49.56,-181.14 -28.04,-152.61 10.92,-112 48.33,-73.02 887.34,-67.77 1065.04,-67.1"/>
<polygon fill="midnightblue" stroke="midnightblue" points="1065.11,-70.6 1075.09,-67.06 1065.08,-63.6 1065.11,-70.6"/>
</g>
<!-- Node36&#45;&gt;Node16 -->
<g id="edge68" class="edge">
<title>Node36&#45;&gt;Node16</title>
<path fill="none" stroke="midnightblue" d="M599.61,-235.44C649.22,-225.94 729.29,-210.61 782.51,-200.42"/>
<polygon fill="midnightblue" stroke="midnightblue" points="783.29,-203.83 792.45,-198.52 781.97,-196.96 783.29,-203.83"/>
</g>
<!-- Node36&#45;&gt;Node20 -->
<g id="edge60" class="edge">
<title>Node36&#45;&gt;Node20</title>
<path fill="none" stroke="midnightblue" d="M563.19,-235.15C574.22,-222.21 591.13,-197.65 579.92,-179 579.42,-178.15 538.22,-156.44 510.25,-141.76"/>
<polygon fill="midnightblue" stroke="midnightblue" points="511.83,-138.64 501.35,-137.1 508.58,-144.84 511.83,-138.64"/>
</g>
<!-- Node36&#45;&gt;Node21 -->
<g id="edge61" class="edge">
<title>Node36&#45;&gt;Node21</title>
<path fill="none" stroke="midnightblue" d="M503.12,-235.43C468.31,-228.47 422.01,-216.84 383.92,-199 352.77,-184.41 321.15,-159.81 302.29,-143.87"/>
<polygon fill="midnightblue" stroke="midnightblue" points="304.43,-141.09 294.57,-137.22 299.86,-146.4 304.43,-141.09"/>
</g>
<!-- Node36&#45;&gt;Node24 -->
<g id="edge63" class="edge">
<title>Node36&#45;&gt;Node24</title>
<path fill="none" stroke="midnightblue" d="M572.63,-235.49C593.76,-224.06 624.83,-202.47 612.92,-179 607.95,-169.19 585.62,-153.82 567.69,-142.61"/>
<polygon fill="midnightblue" stroke="midnightblue" points="569.18,-139.42 558.83,-137.18 565.53,-145.39 569.18,-139.42"/>
</g>
<!-- Node36&#45;&gt;Node26 -->
<g id="edge67" class="edge">
<title>Node36&#45;&gt;Node26</title>
<path fill="none" stroke="midnightblue" d="M581.04,-235.37C600.52,-227.98 626.94,-215.85 645.92,-199 662.6,-184.2 675.74,-162 683.63,-146.47"/>
<polygon fill="midnightblue" stroke="midnightblue" points="686.83,-147.91 688.05,-137.38 680.53,-144.85 686.83,-147.91"/>
</g>
<!-- Node36&#45;&gt;Node33 -->
<g id="edge69" class="edge">
<title>Node36&#45;&gt;Node33</title>
<path fill="none" stroke="midnightblue" d="M500.1,-235.44C438.6,-225.85 338.94,-210.29 273.66,-200.1"/>
<polygon fill="midnightblue" stroke="midnightblue" points="273.91,-196.6 263.49,-198.52 272.83,-203.52 273.91,-196.6"/>
</g>
<!-- Node36&#45;&gt;Node34 -->
<g id="edge64" class="edge">
<title>Node36&#45;&gt;Node34</title>
<path fill="none" stroke="midnightblue" d="M490.3,-241.53C389.87,-236.92 201.5,-225.05 139.92,-199 111.36,-186.91 84.95,-161.94 69.38,-145.2"/>
<polygon fill="midnightblue" stroke="midnightblue" points="71.56,-142.4 62.27,-137.31 66.36,-147.08 71.56,-142.4"/>
</g>
<!-- Node37 -->
<g id="node37" class="node">
<title>Node37</title>
<g id="a_node37"><a xlink:title=" ">
<polygon fill="white" stroke="#bfbfbf" points="400.92,-179.5 400.92,-198.5 446.92,-198.5 446.92,-179.5 400.92,-179.5"/>
<text text-anchor="middle" x="423.92" y="-186.5" font-family="Helvetica,sans-Serif" font-size="10.00">cstdio</text>
</a>
</g>
</g>
<!-- Node36&#45;&gt;Node37 -->
<g id="edge58" class="edge">
<title>Node36&#45;&gt;Node37</title>
<path fill="none" stroke="midnightblue" d="M534.17,-235.44C512.61,-226.56 478.66,-212.56 454.13,-202.45"/>
<polygon fill="midnightblue" stroke="midnightblue" points="455.16,-199.09 444.58,-198.52 452.5,-205.56 455.16,-199.09"/>
</g>
<!-- Node38 -->
<g id="node38" class="node">
<title>Node38</title>
<g id="a_node38"><a xlink:title=" ">
<polygon fill="white" stroke="#bfbfbf" points="465.42,-179.5 465.42,-198.5 520.42,-198.5 520.42,-179.5 465.42,-179.5"/>
<text text-anchor="middle" x="492.92" y="-186.5" font-family="Helvetica,sans-Serif" font-size="10.00">fstream</text>
</a>
</g>
</g>
<!-- Node36&#45;&gt;Node38 -->
<g id="edge59" class="edge">
<title>Node36&#45;&gt;Node38</title>
<path fill="none" stroke="midnightblue" d="M544.96,-235.32C535.8,-227.34 521.99,-215.31 510.9,-205.65"/>
<polygon fill="midnightblue" stroke="midnightblue" points="512.91,-202.76 503.07,-198.83 508.31,-208.04 512.91,-202.76"/>
</g>
<!-- Node39 -->
<g id="node39" class="node">
<title>Node39</title>
<g id="a_node39"><a xlink:title=" ">
<polygon fill="white" stroke="#bfbfbf" points="538.92,-179.5 538.92,-198.5 570.92,-198.5 570.92,-179.5 538.92,-179.5"/>
<text text-anchor="middle" x="554.92" y="-186.5" font-family="Helvetica,sans-Serif" font-size="10.00">set</text>
</a>
</g>
</g>
<!-- Node36&#45;&gt;Node39 -->
<g id="edge62" class="edge">
<title>Node36&#45;&gt;Node39</title>
<path fill="none" stroke="midnightblue" d="M554.92,-235.08C554.92,-228.01 554.92,-217.86 554.92,-208.99"/>
<polygon fill="midnightblue" stroke="midnightblue" points="558.42,-208.75 554.92,-198.75 551.42,-208.75 558.42,-208.75"/>
</g>
</g>
</svg>
