<?xml version="1.0" encoding="UTF-8" standalone="no"?>
<!DOCTYPE svg PUBLIC "-//W3C//DTD SVG 1.1//EN"
 "http://www.w3.org/Graphics/SVG/1.1/DTD/svg11.dtd">
<!-- Generated by graphviz version 2.43.0 (0)
 -->
<!-- Title: include/mini/geometry/pi.hpp Pages: 1 -->
<svg width="342pt" height="151pt"
 viewBox="0.00 0.00 342.43 151.00" xmlns="http://www.w3.org/2000/svg" xmlns:xlink="http://www.w3.org/1999/xlink">
<g id="graph0" class="graph" transform="scale(1 1) rotate(0) translate(4 147)">
<title>include/mini/geometry/pi.hpp</title>
<polygon fill="white" stroke="transparent" points="-4,4 -4,-147 338.43,-147 338.43,4 -4,4"/>
<!-- Node1 -->
<g id="node1" class="node">
<title>Node1</title>
<g id="a_node1"><a xlink:title=" ">
<polygon fill="#bfbfbf" stroke="black" points="13.93,-112.5 13.93,-142.5 140.93,-142.5 140.93,-112.5 13.93,-112.5"/>
<text text-anchor="start" x="21.93" y="-130.5" font-family="Helvetica,sans-Serif" font-size="10.00">include/mini/geometry</text>
<text text-anchor="middle" x="77.43" y="-119.5" font-family="Helvetica,sans-Serif" font-size="10.00">/pi.hpp</text>
</a>
</g>
</g>
<!-- Node2 -->
<g id="node2" class="node">
<title>Node2</title>
<g id="a_node2"><a xlink:title=" ">
<polygon fill="white" stroke="#bfbfbf" points="2.93,-0.5 2.93,-19.5 49.93,-19.5 49.93,-0.5 2.93,-0.5"/>
<text text-anchor="middle" x="26.43" y="-7.5" font-family="Helvetica,sans-Serif" font-size="10.00">cmath</text>
</a>
</g>
</g>
<!-- Node1&#45;&gt;Node2 -->
<g id="edge1" class="edge">
<title>Node1&#45;&gt;Node2</title>
<path fill="none" stroke="midnightblue" d="M43.58,-112.44C28.39,-104.23 12,-92.23 3.43,-76 -4.75,-60.52 3.93,-41.51 12.86,-28.06"/>
<polygon fill="midnightblue" stroke="midnightblue" points="15.86,-29.9 18.89,-19.75 10.19,-25.79 15.86,-29.9"/>
</g>
<!-- Node3 -->
<g id="node3" class="node">
<title>Node3</title>
<g id="a_node3"><a xlink:title=" ">
<polygon fill="white" stroke="#bfbfbf" points="12.93,-56.5 12.93,-75.5 71.93,-75.5 71.93,-56.5 12.93,-56.5"/>
<text text-anchor="middle" x="42.43" y="-63.5" font-family="Helvetica,sans-Serif" font-size="10.00">numbers</text>
</a>
</g>
</g>
<!-- Node1&#45;&gt;Node3 -->
<g id="edge2" class="edge">
<title>Node1&#45;&gt;Node3</title>
<path fill="none" stroke="midnightblue" d="M69.14,-112.4C64.21,-104.02 57.92,-93.33 52.68,-84.42"/>
<polygon fill="midnightblue" stroke="midnightblue" points="55.61,-82.5 47.52,-75.66 49.58,-86.05 55.61,-82.5"/>
</g>
<!-- Node4 -->
<g id="node4" class="node">
<title>Node4</title>
<g id="a_node4"><a xlink:title=" ">
<polygon fill="white" stroke="#bfbfbf" points="89.93,-56.5 89.93,-75.5 134.93,-75.5 134.93,-56.5 89.93,-56.5"/>
<text text-anchor="middle" x="112.43" y="-63.5" font-family="Helvetica,sans-Serif" font-size="10.00">utility</text>
</a>
</g>
</g>
<!-- Node1&#45;&gt;Node4 -->
<g id="edge3" class="edge">
<title>Node1&#45;&gt;Node4</title>
<path fill="none" stroke="midnightblue" d="M85.72,-112.4C90.65,-104.02 96.94,-93.33 102.18,-84.42"/>
<polygon fill="midnightblue" stroke="midnightblue" points="105.28,-86.05 107.34,-75.66 99.25,-82.5 105.28,-86.05"/>
</g>
<!-- Node5 -->
<g id="node5" class="node">
<title>Node5</title>
<g id="a_node5"><a xlink:href="algebra_2eigen_8hpp.html" target="_top" xlink:title=" ">
<polygon fill="white" stroke="black" points="152.93,-56.5 152.93,-75.5 281.93,-75.5 281.93,-56.5 152.93,-56.5"/>
<text text-anchor="middle" x="217.43" y="-63.5" font-family="Helvetica,sans-Serif" font-size="10.00">mini/algebra/eigen.hpp</text>
</a>
</g>
</g>
<!-- Node1&#45;&gt;Node5 -->
<g id="edge4" class="edge">
<title>Node1&#45;&gt;Node5</title>
<path fill="none" stroke="midnightblue" d="M110.61,-112.4C133.99,-102.46 165.04,-89.26 187.64,-79.66"/>
<polygon fill="midnightblue" stroke="midnightblue" points="189.22,-82.79 197.06,-75.66 186.49,-76.35 189.22,-82.79"/>
</g>
<!-- Node5&#45;&gt;Node2 -->
<g id="edge6" class="edge">
<title>Node5&#45;&gt;Node2</title>
<path fill="none" stroke="midnightblue" d="M187.17,-56.44C152.6,-46.67 96.21,-30.73 60.23,-20.56"/>
<polygon fill="midnightblue" stroke="midnightblue" points="60.79,-17.08 50.22,-17.73 58.89,-23.81 60.79,-17.08"/>
</g>
<!-- Node6 -->
<g id="node6" class="node">
<title>Node6</title>
<g id="a_node6"><a xlink:title=" ">
<polygon fill="white" stroke="#bfbfbf" points="110.43,-0.5 110.43,-19.5 174.43,-19.5 174.43,-0.5 110.43,-0.5"/>
<text text-anchor="middle" x="142.43" y="-7.5" font-family="Helvetica,sans-Serif" font-size="10.00">algorithm</text>
</a>
</g>
</g>
<!-- Node5&#45;&gt;Node6 -->
<g id="edge5" class="edge">
<title>Node5&#45;&gt;Node6</title>
<path fill="none" stroke="midnightblue" d="M205.38,-56.32C193.97,-48.11 176.6,-35.6 162.99,-25.81"/>
<polygon fill="midnightblue" stroke="midnightblue" points="164.86,-22.84 154.7,-19.83 160.77,-28.52 164.86,-22.84"/>
</g>
<!-- Node7 -->
<g id="node7" class="node">
<title>Node7</title>
<g id="a_node7"><a xlink:title=" ">
<polygon fill="white" stroke="#bfbfbf" points="192.93,-0.5 192.93,-19.5 241.93,-19.5 241.93,-0.5 192.93,-0.5"/>
<text text-anchor="middle" x="217.43" y="-7.5" font-family="Helvetica,sans-Serif" font-size="10.00">cstdlib</text>
</a>
</g>
</g>
<!-- Node5&#45;&gt;Node7 -->
<g id="edge7" class="edge">
<title>Node5&#45;&gt;Node7</title>
<path fill="none" stroke="midnightblue" d="M217.43,-56.08C217.43,-49.01 217.43,-38.86 217.43,-29.99"/>
<polygon fill="midnightblue" stroke="midnightblue" points="220.93,-29.75 217.43,-19.75 213.93,-29.75 220.93,-29.75"/>
</g>
<!-- Node8 -->
<g id="node8" class="node">
<title>Node8</title>
<g id="a_node8"><a xlink:title=" ">
<polygon fill="white" stroke="#bfbfbf" points="260.43,-0.5 260.43,-19.5 334.43,-19.5 334.43,-0.5 260.43,-0.5"/>
<text text-anchor="middle" x="297.43" y="-7.5" font-family="Helvetica,sans-Serif" font-size="10.00">Eigen/Eigen</text>
</a>
</g>
</g>
<!-- Node5&#45;&gt;Node8 -->
<g id="edge8" class="edge">
<title>Node5&#45;&gt;Node8</title>
<path fill="none" stroke="midnightblue" d="M230.28,-56.32C242.65,-47.98 261.56,-35.21 276.17,-25.35"/>
<polygon fill="midnightblue" stroke="midnightblue" points="278.28,-28.15 284.61,-19.65 274.36,-22.35 278.28,-28.15"/>
</g>
</g>
</svg>
