<?xml version="1.0" encoding="UTF-8" standalone="no"?>
<!DOCTYPE svg PUBLIC "-//W3C//DTD SVG 1.1//EN"
 "http://www.w3.org/Graphics/SVG/1.1/DTD/svg11.dtd">
<!-- Generated by graphviz version 2.43.0 (0)
 -->
<!-- Title: include/mini/geometry/pi.hpp Pages: 1 -->
<svg width="857pt" height="374pt"
 viewBox="0.00 0.00 856.62 374.00" xmlns="http://www.w3.org/2000/svg" xmlns:xlink="http://www.w3.org/1999/xlink">
<g id="graph0" class="graph" transform="scale(1 1) rotate(0) translate(4 370)">
<title>include/mini/geometry/pi.hpp</title>
<polygon fill="white" stroke="transparent" points="-4,4 -4,-370 852.62,-370 852.62,4 -4,4"/>
<!-- Node1 -->
<g id="node1" class="node">
<title>Node1</title>
<g id="a_node1"><a xlink:title=" ">
<polygon fill="#bfbfbf" stroke="black" points="240.62,-335.5 240.62,-365.5 367.62,-365.5 367.62,-335.5 240.62,-335.5"/>
<text text-anchor="start" x="248.62" y="-353.5" font-family="Helvetica,sans-Serif" font-size="10.00">include/mini/geometry</text>
<text text-anchor="middle" x="304.12" y="-342.5" font-family="Helvetica,sans-Serif" font-size="10.00">/pi.hpp</text>
</a>
</g>
</g>
<!-- Node2 -->
<g id="node2" class="node">
<title>Node2</title>
<g id="a_node2"><a xlink:href="rotor_8hpp.html" target="_top" xlink:title=" ">
<polygon fill="white" stroke="black" points="23.12,-67.5 23.12,-97.5 137.12,-97.5 137.12,-67.5 23.12,-67.5"/>
<text text-anchor="start" x="31.12" y="-85.5" font-family="Helvetica,sans-Serif" font-size="10.00">include/mini/aircraft</text>
<text text-anchor="middle" x="80.12" y="-74.5" font-family="Helvetica,sans-Serif" font-size="10.00">/rotor.hpp</text>
</a>
</g>
</g>
<!-- Node1&#45;&gt;Node2 -->
<g id="edge1" class="edge">
<title>Node1&#45;&gt;Node2</title>
<path fill="none" stroke="midnightblue" d="M230.24,-345.94C157.08,-337.75 50.83,-311.91 14.12,-232 -4.06,-192.42 -5.17,-173.05 14.12,-134 21.92,-118.22 37.27,-106.01 51.21,-97.55"/>
<polygon fill="midnightblue" stroke="midnightblue" points="230.02,-349.43 240.33,-346.98 230.74,-342.47 230.02,-349.43"/>
</g>
<!-- Node4 -->
<g id="node4" class="node">
<title>Node4</title>
<g id="a_node4"><a xlink:href="frame_8hpp.html" target="_top" xlink:title=" ">
<polygon fill="white" stroke="black" points="101.62,-268.5 101.62,-298.5 228.62,-298.5 228.62,-268.5 101.62,-268.5"/>
<text text-anchor="start" x="109.62" y="-286.5" font-family="Helvetica,sans-Serif" font-size="10.00">include/mini/geometry</text>
<text text-anchor="middle" x="165.12" y="-275.5" font-family="Helvetica,sans-Serif" font-size="10.00">/frame.hpp</text>
</a>
</g>
</g>
<!-- Node1&#45;&gt;Node4 -->
<g id="edge3" class="edge">
<title>Node1&#45;&gt;Node4</title>
<path fill="none" stroke="midnightblue" d="M264.84,-331.13C242.75,-320.8 215.61,-308.11 195.22,-298.58"/>
<polygon fill="midnightblue" stroke="midnightblue" points="263.42,-334.33 273.96,-335.4 266.38,-327.99 263.42,-334.33"/>
</g>
<!-- Node7 -->
<g id="node7" class="node">
<title>Node7</title>
<g id="a_node7"><a xlink:href="cgns_8hpp.html" target="_top" xlink:title=" ">
<polygon fill="white" stroke="black" points="366.62,-274 366.62,-293 519.62,-293 519.62,-274 366.62,-274"/>
<text text-anchor="middle" x="443.12" y="-281" font-family="Helvetica,sans-Serif" font-size="10.00">include/mini/mesh/cgns.hpp</text>
</a>
</g>
</g>
<!-- Node1&#45;&gt;Node7 -->
<g id="edge8" class="edge">
<title>Node1&#45;&gt;Node7</title>
<path fill="none" stroke="midnightblue" d="M343.4,-331.13C370.16,-318.62 404.33,-302.64 424.93,-293.01"/>
<polygon fill="midnightblue" stroke="midnightblue" points="341.86,-327.99 334.28,-335.4 344.82,-334.33 341.86,-327.99"/>
</g>
<!-- Node13 -->
<g id="node13" class="node">
<title>Node13</title>
<g id="a_node13"><a xlink:href="rotated_2double_8hpp.html" target="_top" xlink:title=" ">
<polygon fill="white" stroke="black" points="538.12,-268.5 538.12,-298.5 658.12,-298.5 658.12,-268.5 538.12,-268.5"/>
<text text-anchor="start" x="546.12" y="-286.5" font-family="Helvetica,sans-Serif" font-size="10.00">include/mini/riemann</text>
<text text-anchor="middle" x="598.12" y="-275.5" font-family="Helvetica,sans-Serif" font-size="10.00">/rotated/double.hpp</text>
</a>
</g>
</g>
<!-- Node1&#45;&gt;Node13 -->
<g id="edge16" class="edge">
<title>Node1&#45;&gt;Node13</title>
<path fill="none" stroke="midnightblue" d="M377.55,-333.27C426.98,-322.34 491.38,-308.1 537.82,-297.83"/>
<polygon fill="midnightblue" stroke="midnightblue" points="376.56,-329.9 367.55,-335.48 378.07,-336.73 376.56,-329.9"/>
</g>
<!-- Node3 -->
<g id="node3" class="node">
<title>Node3</title>
<g id="a_node3"><a xlink:href="source_8hpp.html" target="_top" xlink:title=" ">
<polygon fill="white" stroke="black" points="65.12,-0.5 65.12,-30.5 179.12,-30.5 179.12,-0.5 65.12,-0.5"/>
<text text-anchor="start" x="73.12" y="-18.5" font-family="Helvetica,sans-Serif" font-size="10.00">include/mini/aircraft</text>
<text text-anchor="middle" x="122.12" y="-7.5" font-family="Helvetica,sans-Serif" font-size="10.00">/source.hpp</text>
</a>
</g>
</g>
<!-- Node2&#45;&gt;Node3 -->
<g id="edge2" class="edge">
<title>Node2&#45;&gt;Node3</title>
<path fill="none" stroke="midnightblue" d="M94.75,-58.87C100.82,-49.46 107.69,-38.83 113.03,-30.58"/>
<polygon fill="midnightblue" stroke="midnightblue" points="91.72,-57.1 89.23,-67.4 97.6,-60.9 91.72,-57.1"/>
</g>
<!-- Node4&#45;&gt;Node3 -->
<g id="edge7" class="edge">
<title>Node4&#45;&gt;Node3</title>
<path fill="none" stroke="midnightblue" d="M165.75,-258.1C166.19,-217.63 164.47,-134.41 146.12,-67 142.6,-54.07 135.9,-40.41 130.47,-30.56"/>
<polygon fill="midnightblue" stroke="midnightblue" points="162.25,-258.28 165.58,-268.33 169.25,-258.39 162.25,-258.28"/>
</g>
<!-- Node5 -->
<g id="node5" class="node">
<title>Node5</title>
<g id="a_node5"><a xlink:href="section_8hpp.html" target="_top" xlink:title=" ">
<polygon fill="white" stroke="black" points="23.12,-201.5 23.12,-231.5 137.12,-231.5 137.12,-201.5 23.12,-201.5"/>
<text text-anchor="start" x="31.12" y="-219.5" font-family="Helvetica,sans-Serif" font-size="10.00">include/mini/aircraft</text>
<text text-anchor="middle" x="80.12" y="-208.5" font-family="Helvetica,sans-Serif" font-size="10.00">/section.hpp</text>
</a>
</g>
</g>
<!-- Node4&#45;&gt;Node5 -->
<g id="edge4" class="edge">
<title>Node4&#45;&gt;Node5</title>
<path fill="none" stroke="midnightblue" d="M138.53,-262.17C125.53,-252.23 110.22,-240.51 98.53,-231.58"/>
<polygon fill="midnightblue" stroke="midnightblue" points="136.61,-265.1 146.68,-268.4 140.86,-259.54 136.61,-265.1"/>
</g>
<!-- Node6 -->
<g id="node6" class="node">
<title>Node6</title>
<g id="a_node6"><a xlink:href="blade_8hpp.html" target="_top" xlink:title=" ">
<polygon fill="white" stroke="black" points="23.12,-134.5 23.12,-164.5 137.12,-164.5 137.12,-134.5 23.12,-134.5"/>
<text text-anchor="start" x="31.12" y="-152.5" font-family="Helvetica,sans-Serif" font-size="10.00">include/mini/aircraft</text>
<text text-anchor="middle" x="80.12" y="-141.5" font-family="Helvetica,sans-Serif" font-size="10.00">/blade.hpp</text>
</a>
</g>
</g>
<!-- Node5&#45;&gt;Node6 -->
<g id="edge5" class="edge">
<title>Node5&#45;&gt;Node6</title>
<path fill="none" stroke="midnightblue" d="M80.12,-191.11C80.12,-182.15 80.12,-172.32 80.12,-164.58"/>
<polygon fill="midnightblue" stroke="midnightblue" points="76.62,-191.4 80.12,-201.4 83.62,-191.4 76.62,-191.4"/>
</g>
<!-- Node6&#45;&gt;Node2 -->
<g id="edge6" class="edge">
<title>Node6&#45;&gt;Node2</title>
<path fill="none" stroke="midnightblue" d="M80.12,-124.11C80.12,-115.15 80.12,-105.32 80.12,-97.58"/>
<polygon fill="midnightblue" stroke="midnightblue" points="76.62,-124.4 80.12,-134.4 83.62,-124.4 76.62,-124.4"/>
</g>
<!-- Node8 -->
<g id="node8" class="node">
<title>Node8</title>
<g id="a_node8"><a xlink:href="mapper_8hpp.html" target="_top" xlink:title=" ">
<polygon fill="white" stroke="black" points="580.62,-207 580.62,-226 747.62,-226 747.62,-207 580.62,-207"/>
<text text-anchor="middle" x="664.12" y="-214" font-family="Helvetica,sans-Serif" font-size="10.00">include/mini/mesh/mapper.hpp</text>
</a>
</g>
</g>
<!-- Node7&#45;&gt;Node8 -->
<g id="edge9" class="edge">
<title>Node7&#45;&gt;Node8</title>
<path fill="none" stroke="midnightblue" d="M482.19,-271.01C525.93,-258.15 595.8,-237.59 635,-226.06"/>
<polygon fill="midnightblue" stroke="midnightblue" points="481.07,-267.69 472.47,-273.87 483.05,-274.4 481.07,-267.69"/>
</g>
<!-- Node9 -->
<g id="node9" class="node">
<title>Node9</title>
<g id="a_node9"><a xlink:href="overset_8hpp.html" target="_top" xlink:title=" ">
<polygon fill="white" stroke="black" points="478.62,-140 478.62,-159 645.62,-159 645.62,-140 478.62,-140"/>
<text text-anchor="middle" x="562.12" y="-147" font-family="Helvetica,sans-Serif" font-size="10.00">include/mini/mesh/overset.hpp</text>
</a>
</g>
</g>
<!-- Node7&#45;&gt;Node9 -->
<g id="edge12" class="edge">
<title>Node7&#45;&gt;Node9</title>
<path fill="none" stroke="midnightblue" d="M477.9,-270.01C496.53,-261.77 518.56,-249.26 533.12,-232 551.71,-209.96 558.73,-175.14 561.08,-159.1"/>
<polygon fill="midnightblue" stroke="midnightblue" points="476.4,-266.85 468.53,-273.94 479.11,-273.3 476.4,-266.85"/>
</g>
<!-- Node10 -->
<g id="node10" class="node">
<title>Node10</title>
<g id="a_node10"><a xlink:href="shuffler_8hpp.html" target="_top" xlink:title=" ">
<polygon fill="white" stroke="black" points="681.62,-140 681.62,-159 848.62,-159 848.62,-140 681.62,-140"/>
<text text-anchor="middle" x="765.12" y="-147" font-family="Helvetica,sans-Serif" font-size="10.00">include/mini/mesh/shuffler.hpp</text>
</a>
</g>
</g>
<!-- Node7&#45;&gt;Node10 -->
<g id="edge15" class="edge">
<title>Node7&#45;&gt;Node10</title>
<path fill="none" stroke="midnightblue" d="M503.22,-272.28C511.91,-270.83 520.74,-269.37 529.12,-268 579.74,-259.74 721.93,-269.32 757.12,-232 775.95,-212.04 770.93,-175.85 767.33,-159.25"/>
<polygon fill="midnightblue" stroke="midnightblue" points="502.41,-268.87 493.13,-273.98 503.57,-275.77 502.41,-268.87"/>
</g>
<!-- Node11 -->
<g id="node11" class="node">
<title>Node11</title>
<g id="a_node11"><a xlink:href="part_8hpp.html" target="_top" xlink:title=" ">
<polygon fill="white" stroke="black" points="193.12,-207 193.12,-226 343.12,-226 343.12,-207 193.12,-207"/>
<text text-anchor="middle" x="268.12" y="-214" font-family="Helvetica,sans-Serif" font-size="10.00">include/mini/mesh/part.hpp</text>
</a>
</g>
</g>
<!-- Node7&#45;&gt;Node11 -->
<g id="edge13" class="edge">
<title>Node7&#45;&gt;Node11</title>
<path fill="none" stroke="midnightblue" d="M410.2,-270.27C375.46,-257.37 321.63,-237.38 291.18,-226.06"/>
<polygon fill="midnightblue" stroke="midnightblue" points="409.29,-273.67 419.88,-273.87 411.73,-267.11 409.29,-273.67"/>
</g>
<!-- Node12 -->
<g id="node12" class="node">
<title>Node12</title>
<g id="a_node12"><a xlink:href="quality_8hpp.html" target="_top" xlink:title=" ">
<polygon fill="white" stroke="black" points="361.62,-207 361.62,-226 524.62,-226 524.62,-207 361.62,-207"/>
<text text-anchor="middle" x="443.12" y="-214" font-family="Helvetica,sans-Serif" font-size="10.00">include/mini/mesh/quality.hpp</text>
</a>
</g>
</g>
<!-- Node7&#45;&gt;Node12 -->
<g id="edge14" class="edge">
<title>Node7&#45;&gt;Node12</title>
<path fill="none" stroke="midnightblue" d="M443.12,-263.54C443.12,-251.17 443.12,-235.62 443.12,-226.13"/>
<polygon fill="midnightblue" stroke="midnightblue" points="439.62,-263.73 443.12,-273.73 446.62,-263.73 439.62,-263.73"/>
</g>
<!-- Node8&#45;&gt;Node9 -->
<g id="edge10" class="edge">
<title>Node8&#45;&gt;Node9</title>
<path fill="none" stroke="midnightblue" d="M641.79,-201.27C621.6,-188.4 592.53,-169.88 575.66,-159.13"/>
<polygon fill="midnightblue" stroke="midnightblue" points="640.05,-204.31 650.36,-206.73 643.81,-198.41 640.05,-204.31"/>
</g>
<!-- Node8&#45;&gt;Node10 -->
<g id="edge11" class="edge">
<title>Node8&#45;&gt;Node10</title>
<path fill="none" stroke="midnightblue" d="M686.23,-201.27C706.23,-188.4 735.01,-169.88 751.72,-159.13"/>
<polygon fill="midnightblue" stroke="midnightblue" points="684.26,-198.38 677.74,-206.73 688.05,-204.27 684.26,-198.38"/>
</g>
</g>
</svg>
