<?xml version="1.0" encoding="UTF-8" standalone="no"?>
<!DOCTYPE svg PUBLIC "-//W3C//DTD SVG 1.1//EN"
 "http://www.w3.org/Graphics/SVG/1.1/DTD/svg11.dtd">
<!-- Generated by graphviz version 2.43.0 (0)
 -->
<!-- Title: include/mini/geometry/pi.hpp Pages: 1 -->
<svg width="675pt" height="374pt"
 viewBox="0.00 0.00 674.62 374.00" xmlns="http://www.w3.org/2000/svg" xmlns:xlink="http://www.w3.org/1999/xlink">
<g id="graph0" class="graph" transform="scale(1 1) rotate(0) translate(4 370)">
<title>include/mini/geometry/pi.hpp</title>
<polygon fill="white" stroke="transparent" points="-4,4 -4,-370 670.62,-370 670.62,4 -4,4"/>
<!-- Node1 -->
<g id="node1" class="node">
<title>Node1</title>
<g id="a_node1"><a xlink:title=" ">
<polygon fill="#bfbfbf" stroke="black" points="180.62,-335.5 180.62,-365.5 307.62,-365.5 307.62,-335.5 180.62,-335.5"/>
<text text-anchor="start" x="188.62" y="-353.5" font-family="Helvetica,sans-Serif" font-size="10.00">include/mini/geometry</text>
<text text-anchor="middle" x="244.12" y="-342.5" font-family="Helvetica,sans-Serif" font-size="10.00">/pi.hpp</text>
</a>
</g>
</g>
<!-- Node2 -->
<g id="node2" class="node">
<title>Node2</title>
<g id="a_node2"><a xlink:href="rotor_8hpp.html" target="_top" xlink:title=" ">
<polygon fill="white" stroke="black" points="23.12,-67.5 23.12,-97.5 137.12,-97.5 137.12,-67.5 23.12,-67.5"/>
<text text-anchor="start" x="31.12" y="-85.5" font-family="Helvetica,sans-Serif" font-size="10.00">include/mini/aircraft</text>
<text text-anchor="middle" x="80.12" y="-74.5" font-family="Helvetica,sans-Serif" font-size="10.00">/rotor.hpp</text>
</a>
</g>
</g>
<!-- Node1&#45;&gt;Node2 -->
<g id="edge1" class="edge">
<title>Node1&#45;&gt;Node2</title>
<path fill="none" stroke="midnightblue" d="M170.5,-336.57C114.24,-322.1 41.79,-292.25 14.12,-232 -4.06,-192.42 -5.17,-173.05 14.12,-134 21.92,-118.22 37.27,-106.01 51.21,-97.55"/>
<polygon fill="midnightblue" stroke="midnightblue" points="169.9,-340.03 180.44,-339.01 171.57,-333.23 169.9,-340.03"/>
</g>
<!-- Node4 -->
<g id="node4" class="node">
<title>Node4</title>
<g id="a_node4"><a xlink:href="frame_8hpp.html" target="_top" xlink:title=" ">
<polygon fill="white" stroke="black" points="101.62,-268.5 101.62,-298.5 228.62,-298.5 228.62,-268.5 101.62,-268.5"/>
<text text-anchor="start" x="109.62" y="-286.5" font-family="Helvetica,sans-Serif" font-size="10.00">include/mini/geometry</text>
<text text-anchor="middle" x="165.12" y="-275.5" font-family="Helvetica,sans-Serif" font-size="10.00">/frame.hpp</text>
</a>
</g>
</g>
<!-- Node1&#45;&gt;Node4 -->
<g id="edge3" class="edge">
<title>Node1&#45;&gt;Node4</title>
<path fill="none" stroke="midnightblue" d="M219.06,-328.88C207.06,-319.01 192.99,-307.43 182.23,-298.58"/>
<polygon fill="midnightblue" stroke="midnightblue" points="217.03,-331.75 226.98,-335.4 221.48,-326.34 217.03,-331.75"/>
</g>
<!-- Node7 -->
<g id="node7" class="node">
<title>Node7</title>
<g id="a_node7"><a xlink:href="cgns_8hpp.html" target="_top" xlink:title=" ">
<polygon fill="white" stroke="black" points="270.62,-274 270.62,-293 423.62,-293 423.62,-274 270.62,-274"/>
<text text-anchor="middle" x="347.12" y="-281" font-family="Helvetica,sans-Serif" font-size="10.00">include/mini/mesh/cgns.hpp</text>
</a>
</g>
</g>
<!-- Node1&#45;&gt;Node7 -->
<g id="edge8" class="edge">
<title>Node1&#45;&gt;Node7</title>
<path fill="none" stroke="midnightblue" d="M275.06,-329.97C294.59,-317.65 318.84,-302.35 333.64,-293.01"/>
<polygon fill="midnightblue" stroke="midnightblue" points="273.06,-327.1 266.47,-335.4 276.79,-333.02 273.06,-327.1"/>
</g>
<!-- Node12 -->
<g id="node12" class="node">
<title>Node12</title>
<g id="a_node12"><a xlink:href="rotated_2double_8hpp.html" target="_top" xlink:title=" ">
<polygon fill="white" stroke="black" points="442.12,-268.5 442.12,-298.5 562.12,-298.5 562.12,-268.5 442.12,-268.5"/>
<text text-anchor="start" x="450.12" y="-286.5" font-family="Helvetica,sans-Serif" font-size="10.00">include/mini/riemann</text>
<text text-anchor="middle" x="502.12" y="-275.5" font-family="Helvetica,sans-Serif" font-size="10.00">/rotated/double.hpp</text>
</a>
</g>
</g>
<!-- Node1&#45;&gt;Node12 -->
<g id="edge15" class="edge">
<title>Node1&#45;&gt;Node12</title>
<path fill="none" stroke="midnightblue" d="M309.68,-332.98C351.82,-322.37 405.99,-308.72 446.11,-298.61"/>
<polygon fill="midnightblue" stroke="midnightblue" points="308.63,-329.64 299.79,-335.48 310.34,-336.43 308.63,-329.64"/>
</g>
<!-- Node3 -->
<g id="node3" class="node">
<title>Node3</title>
<g id="a_node3"><a xlink:href="source_8hpp.html" target="_top" xlink:title=" ">
<polygon fill="white" stroke="black" points="65.12,-0.5 65.12,-30.5 179.12,-30.5 179.12,-0.5 65.12,-0.5"/>
<text text-anchor="start" x="73.12" y="-18.5" font-family="Helvetica,sans-Serif" font-size="10.00">include/mini/aircraft</text>
<text text-anchor="middle" x="122.12" y="-7.5" font-family="Helvetica,sans-Serif" font-size="10.00">/source.hpp</text>
</a>
</g>
</g>
<!-- Node2&#45;&gt;Node3 -->
<g id="edge2" class="edge">
<title>Node2&#45;&gt;Node3</title>
<path fill="none" stroke="midnightblue" d="M94.75,-58.87C100.82,-49.46 107.69,-38.83 113.03,-30.58"/>
<polygon fill="midnightblue" stroke="midnightblue" points="91.72,-57.1 89.23,-67.4 97.6,-60.9 91.72,-57.1"/>
</g>
<!-- Node4&#45;&gt;Node3 -->
<g id="edge7" class="edge">
<title>Node4&#45;&gt;Node3</title>
<path fill="none" stroke="midnightblue" d="M165.75,-258.1C166.19,-217.63 164.47,-134.41 146.12,-67 142.6,-54.07 135.9,-40.41 130.47,-30.56"/>
<polygon fill="midnightblue" stroke="midnightblue" points="162.25,-258.28 165.58,-268.33 169.25,-258.39 162.25,-258.28"/>
</g>
<!-- Node5 -->
<g id="node5" class="node">
<title>Node5</title>
<g id="a_node5"><a xlink:href="section_8hpp.html" target="_top" xlink:title=" ">
<polygon fill="white" stroke="black" points="23.12,-201.5 23.12,-231.5 137.12,-231.5 137.12,-201.5 23.12,-201.5"/>
<text text-anchor="start" x="31.12" y="-219.5" font-family="Helvetica,sans-Serif" font-size="10.00">include/mini/aircraft</text>
<text text-anchor="middle" x="80.12" y="-208.5" font-family="Helvetica,sans-Serif" font-size="10.00">/section.hpp</text>
</a>
</g>
</g>
<!-- Node4&#45;&gt;Node5 -->
<g id="edge4" class="edge">
<title>Node4&#45;&gt;Node5</title>
<path fill="none" stroke="midnightblue" d="M138.53,-262.17C125.53,-252.23 110.22,-240.51 98.53,-231.58"/>
<polygon fill="midnightblue" stroke="midnightblue" points="136.61,-265.1 146.68,-268.4 140.86,-259.54 136.61,-265.1"/>
</g>
<!-- Node6 -->
<g id="node6" class="node">
<title>Node6</title>
<g id="a_node6"><a xlink:href="blade_8hpp.html" target="_top" xlink:title=" ">
<polygon fill="white" stroke="black" points="23.12,-134.5 23.12,-164.5 137.12,-164.5 137.12,-134.5 23.12,-134.5"/>
<text text-anchor="start" x="31.12" y="-152.5" font-family="Helvetica,sans-Serif" font-size="10.00">include/mini/aircraft</text>
<text text-anchor="middle" x="80.12" y="-141.5" font-family="Helvetica,sans-Serif" font-size="10.00">/blade.hpp</text>
</a>
</g>
</g>
<!-- Node5&#45;&gt;Node6 -->
<g id="edge5" class="edge">
<title>Node5&#45;&gt;Node6</title>
<path fill="none" stroke="midnightblue" d="M80.12,-191.11C80.12,-182.15 80.12,-172.32 80.12,-164.58"/>
<polygon fill="midnightblue" stroke="midnightblue" points="76.62,-191.4 80.12,-201.4 83.62,-191.4 76.62,-191.4"/>
</g>
<!-- Node6&#45;&gt;Node2 -->
<g id="edge6" class="edge">
<title>Node6&#45;&gt;Node2</title>
<path fill="none" stroke="midnightblue" d="M80.12,-124.11C80.12,-115.15 80.12,-105.32 80.12,-97.58"/>
<polygon fill="midnightblue" stroke="midnightblue" points="76.62,-124.4 80.12,-134.4 83.62,-124.4 76.62,-124.4"/>
</g>
<!-- Node8 -->
<g id="node8" class="node">
<title>Node8</title>
<g id="a_node8"><a xlink:href="mapper_8hpp.html" target="_top" xlink:title=" ">
<polygon fill="white" stroke="black" points="398.62,-207 398.62,-226 565.62,-226 565.62,-207 398.62,-207"/>
<text text-anchor="middle" x="482.12" y="-214" font-family="Helvetica,sans-Serif" font-size="10.00">include/mini/mesh/mapper.hpp</text>
</a>
</g>
</g>
<!-- Node7&#45;&gt;Node8 -->
<g id="edge9" class="edge">
<title>Node7&#45;&gt;Node8</title>
<path fill="none" stroke="midnightblue" d="M374.24,-269.44C400.98,-256.57 441.09,-237.26 464.12,-226.17"/>
<polygon fill="midnightblue" stroke="midnightblue" points="372.54,-266.38 365.05,-273.87 375.58,-272.68 372.54,-266.38"/>
</g>
<!-- Node9 -->
<g id="node9" class="node">
<title>Node9</title>
<g id="a_node9"><a xlink:href="overset_8hpp.html" target="_top" xlink:title=" ">
<polygon fill="white" stroke="black" points="296.62,-140 296.62,-159 463.62,-159 463.62,-140 296.62,-140"/>
<text text-anchor="middle" x="380.12" y="-147" font-family="Helvetica,sans-Serif" font-size="10.00">include/mini/mesh/overset.hpp</text>
</a>
</g>
</g>
<!-- Node7&#45;&gt;Node9 -->
<g id="edge12" class="edge">
<title>Node7&#45;&gt;Node9</title>
<path fill="none" stroke="midnightblue" d="M351.8,-263.78C359.06,-234.75 372.74,-180.04 377.99,-159.02"/>
<polygon fill="midnightblue" stroke="midnightblue" points="348.32,-263.29 349.29,-273.84 355.11,-264.99 348.32,-263.29"/>
</g>
<!-- Node10 -->
<g id="node10" class="node">
<title>Node10</title>
<g id="a_node10"><a xlink:href="shuffler_8hpp.html" target="_top" xlink:title=" ">
<polygon fill="white" stroke="black" points="499.62,-140 499.62,-159 666.62,-159 666.62,-140 499.62,-140"/>
<text text-anchor="middle" x="583.12" y="-147" font-family="Helvetica,sans-Serif" font-size="10.00">include/mini/mesh/shuffler.hpp</text>
</a>
</g>
</g>
<!-- Node7&#45;&gt;Node10 -->
<g id="edge14" class="edge">
<title>Node7&#45;&gt;Node10</title>
<path fill="none" stroke="midnightblue" d="M402.19,-271.98C467.79,-259.2 569.32,-238.54 575.12,-232 593.23,-211.57 588.68,-175.94 585.27,-159.4"/>
<polygon fill="midnightblue" stroke="midnightblue" points="401.14,-268.62 391.99,-273.96 402.48,-275.49 401.14,-268.62"/>
</g>
<!-- Node11 -->
<g id="node11" class="node">
<title>Node11</title>
<g id="a_node11"><a xlink:href="part_8hpp.html" target="_top" xlink:title=" ">
<polygon fill="white" stroke="black" points="193.12,-207 193.12,-226 343.12,-226 343.12,-207 193.12,-207"/>
<text text-anchor="middle" x="268.12" y="-214" font-family="Helvetica,sans-Serif" font-size="10.00">include/mini/mesh/part.hpp</text>
</a>
</g>
</g>
<!-- Node7&#45;&gt;Node11 -->
<g id="edge13" class="edge">
<title>Node7&#45;&gt;Node11</title>
<path fill="none" stroke="midnightblue" d="M328.54,-267.21C312.98,-254.41 291.32,-236.59 278.61,-226.13"/>
<polygon fill="midnightblue" stroke="midnightblue" points="326.52,-270.08 336.47,-273.73 330.97,-264.68 326.52,-270.08"/>
</g>
<!-- Node8&#45;&gt;Node9 -->
<g id="edge10" class="edge">
<title>Node8&#45;&gt;Node9</title>
<path fill="none" stroke="midnightblue" d="M459.79,-201.27C439.6,-188.4 410.53,-169.88 393.66,-159.13"/>
<polygon fill="midnightblue" stroke="midnightblue" points="458.05,-204.31 468.36,-206.73 461.81,-198.41 458.05,-204.31"/>
</g>
<!-- Node8&#45;&gt;Node10 -->
<g id="edge11" class="edge">
<title>Node8&#45;&gt;Node10</title>
<path fill="none" stroke="midnightblue" d="M504.23,-201.27C524.23,-188.4 553.01,-169.88 569.72,-159.13"/>
<polygon fill="midnightblue" stroke="midnightblue" points="502.26,-198.38 495.74,-206.73 506.05,-204.27 502.26,-198.38"/>
</g>
</g>
</svg>
