<?xml version="1.0" encoding="UTF-8" standalone="no"?>
<!DOCTYPE svg PUBLIC "-//W3C//DTD SVG 1.1//EN"
 "http://www.w3.org/Graphics/SVG/1.1/DTD/svg11.dtd">
<!-- Generated by graphviz version 2.43.0 (0)
 -->
<!-- Title: include/mini/polynomial/hexahedron.hpp Pages: 1 -->
<svg width="294pt" height="173pt"
 viewBox="0.00 0.00 294.00 173.00" xmlns="http://www.w3.org/2000/svg" xmlns:xlink="http://www.w3.org/1999/xlink">
<g id="graph0" class="graph" transform="scale(1 1) rotate(0) translate(4 169)">
<title>include/mini/polynomial/hexahedron.hpp</title>
<polygon fill="white" stroke="transparent" points="-4,4 -4,-169 290,-169 290,4 -4,4"/>
<!-- Node1 -->
<g id="node1" class="node">
<title>Node1</title>
<g id="a_node1"><a xlink:title=" ">
<polygon fill="#bfbfbf" stroke="black" points="120.5,-134.5 120.5,-164.5 254.5,-164.5 254.5,-134.5 120.5,-134.5"/>
<text text-anchor="start" x="128.5" y="-152.5" font-family="Helvetica,sans-Serif" font-size="10.00">include/mini/polynomial</text>
<text text-anchor="middle" x="187.5" y="-141.5" font-family="Helvetica,sans-Serif" font-size="10.00">/hexahedron.hpp</text>
</a>
</g>
</g>
<!-- Node2 -->
<g id="node2" class="node">
<title>Node2</title>
<g id="a_node2"><a xlink:href="spatial_2dg_2lobatto_8hpp.html" target="_top" xlink:title=" ">
<polygon fill="white" stroke="black" points="0,-67.5 0,-97.5 113,-97.5 113,-67.5 0,-67.5"/>
<text text-anchor="start" x="8" y="-85.5" font-family="Helvetica,sans-Serif" font-size="10.00">include/mini/spatial</text>
<text text-anchor="middle" x="56.5" y="-74.5" font-family="Helvetica,sans-Serif" font-size="10.00">/dg/lobatto.hpp</text>
</a>
</g>
</g>
<!-- Node1&#45;&gt;Node2 -->
<g id="edge1" class="edge">
<title>Node1&#45;&gt;Node2</title>
<path fill="none" stroke="midnightblue" d="M149.92,-129.85C129.21,-119.58 103.91,-107.03 84.87,-97.58"/>
<polygon fill="midnightblue" stroke="midnightblue" points="148.56,-133.09 159.07,-134.4 151.67,-126.82 148.56,-133.09"/>
</g>
<!-- Node3 -->
<g id="node3" class="node">
<title>Node3</title>
<g id="a_node3"><a xlink:href="fr_2general_8hpp.html" target="_top" xlink:title=" ">
<polygon fill="white" stroke="black" points="131,-67.5 131,-97.5 244,-97.5 244,-67.5 131,-67.5"/>
<text text-anchor="start" x="139" y="-85.5" font-family="Helvetica,sans-Serif" font-size="10.00">include/mini/spatial</text>
<text text-anchor="middle" x="187.5" y="-74.5" font-family="Helvetica,sans-Serif" font-size="10.00">/fr/general.hpp</text>
</a>
</g>
</g>
<!-- Node1&#45;&gt;Node3 -->
<g id="edge2" class="edge">
<title>Node1&#45;&gt;Node3</title>
<path fill="none" stroke="midnightblue" d="M187.5,-124.11C187.5,-115.15 187.5,-105.32 187.5,-97.58"/>
<polygon fill="midnightblue" stroke="midnightblue" points="184,-124.4 187.5,-134.4 191,-124.4 184,-124.4"/>
</g>
<!-- Node4 -->
<g id="node4" class="node">
<title>Node4</title>
<g id="a_node4"><a xlink:href="spatial_2fr_2lobatto_8hpp.html" target="_top" xlink:title=" ">
<polygon fill="white" stroke="black" points="173,-0.5 173,-30.5 286,-30.5 286,-0.5 173,-0.5"/>
<text text-anchor="start" x="181" y="-18.5" font-family="Helvetica,sans-Serif" font-size="10.00">include/mini/spatial</text>
<text text-anchor="middle" x="229.5" y="-7.5" font-family="Helvetica,sans-Serif" font-size="10.00">/fr/lobatto.hpp</text>
</a>
</g>
</g>
<!-- Node1&#45;&gt;Node4 -->
<g id="edge4" class="edge">
<title>Node1&#45;&gt;Node4</title>
<path fill="none" stroke="midnightblue" d="M225,-128.83C236.28,-120.88 247.29,-110.58 253.5,-98 264.54,-75.65 250.54,-47.29 239.76,-30.6"/>
<polygon fill="midnightblue" stroke="midnightblue" points="222.87,-126.05 216.41,-134.45 226.7,-131.91 222.87,-126.05"/>
</g>
<!-- Node3&#45;&gt;Node4 -->
<g id="edge3" class="edge">
<title>Node3&#45;&gt;Node4</title>
<path fill="none" stroke="midnightblue" d="M202.12,-58.87C208.2,-49.46 215.07,-38.83 220.4,-30.58"/>
<polygon fill="midnightblue" stroke="midnightblue" points="199.1,-57.1 196.61,-67.4 204.98,-60.9 199.1,-57.1"/>
</g>
</g>
</svg>
