<?xml version="1.0" encoding="UTF-8" standalone="no"?>
<!DOCTYPE svg PUBLIC "-//W3C//DTD SVG 1.1//EN"
 "http://www.w3.org/Graphics/SVG/1.1/DTD/svg11.dtd">
<!-- Generated by graphviz version 2.43.0 (0)
 -->
<!-- Title: include/mini/polynomial/hexahedron.hpp Pages: 1 -->
<svg width="2295pt" height="375pt"
 viewBox="0.00 0.00 2294.86 375.00" xmlns="http://www.w3.org/2000/svg" xmlns:xlink="http://www.w3.org/1999/xlink">
<g id="graph0" class="graph" transform="scale(1 1) rotate(0) translate(4 371)">
<title>include/mini/polynomial/hexahedron.hpp</title>
<polygon fill="white" stroke="transparent" points="-4,4 -4,-371 2290.86,-371 2290.86,4 -4,4"/>
<!-- Node1 -->
<g id="node1" class="node">
<title>Node1</title>
<g id="a_node1"><a xlink:title=" ">
<polygon fill="#bfbfbf" stroke="black" points="1538.86,-336.5 1538.86,-366.5 1672.86,-366.5 1672.86,-336.5 1538.86,-336.5"/>
<text text-anchor="start" x="1546.86" y="-354.5" font-family="Helvetica,sans-Serif" font-size="10.00">include/mini/polynomial</text>
<text text-anchor="middle" x="1605.86" y="-343.5" font-family="Helvetica,sans-Serif" font-size="10.00">/hexahedron.hpp</text>
</a>
</g>
</g>
<!-- Node2 -->
<g id="node2" class="node">
<title>Node2</title>
<g id="a_node2"><a xlink:title=" ">
<polygon fill="white" stroke="#bfbfbf" points="978.86,-56.5 978.86,-75.5 1038.86,-75.5 1038.86,-56.5 978.86,-56.5"/>
<text text-anchor="middle" x="1008.86" y="-63.5" font-family="Helvetica,sans-Serif" font-size="10.00">concepts</text>
</a>
</g>
</g>
<!-- Node1&#45;&gt;Node2 -->
<g id="edge1" class="edge">
<title>Node1&#45;&gt;Node2</title>
<path fill="none" stroke="midnightblue" d="M1575.21,-336.42C1500.52,-302.03 1303.23,-210.82 1139.86,-132 1103.2,-114.31 1061.08,-93.29 1034.72,-80.04"/>
<polygon fill="midnightblue" stroke="midnightblue" points="1036.26,-76.9 1025.75,-75.53 1033.12,-83.15 1036.26,-76.9"/>
</g>
<!-- Node3 -->
<g id="node3" class="node">
<title>Node3</title>
<g id="a_node3"><a xlink:title=" ">
<polygon fill="white" stroke="#bfbfbf" points="1497.36,-0.5 1497.36,-19.5 1544.36,-19.5 1544.36,-0.5 1497.36,-0.5"/>
<text text-anchor="middle" x="1520.86" y="-7.5" font-family="Helvetica,sans-Serif" font-size="10.00">cmath</text>
</a>
</g>
</g>
<!-- Node1&#45;&gt;Node3 -->
<g id="edge2" class="edge">
<title>Node1&#45;&gt;Node3</title>
<path fill="none" stroke="midnightblue" d="M1673.15,-347.92C1797.09,-342.55 2056.57,-328.26 2141.86,-300 2194.68,-282.5 2248.86,-290.64 2248.86,-235 2248.86,-235 2248.86,-235 2248.86,-177 2248.86,-89.26 2174.72,-87.57 2092.86,-56 1995.12,-18.31 1727.25,-28.6 1622.86,-20 1600.18,-18.13 1574.68,-15.88 1554.85,-14.1"/>
<polygon fill="midnightblue" stroke="midnightblue" points="1555.03,-10.6 1544.76,-13.19 1554.4,-17.57 1555.03,-10.6"/>
</g>
<!-- Node4 -->
<g id="node4" class="node">
<title>Node4</title>
<g id="a_node4"><a xlink:title=" ">
<polygon fill="white" stroke="#bfbfbf" points="2033.86,-56.5 2033.86,-75.5 2083.86,-75.5 2083.86,-56.5 2033.86,-56.5"/>
<text text-anchor="middle" x="2058.86" y="-63.5" font-family="Helvetica,sans-Serif" font-size="10.00">cstring</text>
</a>
</g>
</g>
<!-- Node1&#45;&gt;Node4 -->
<g id="edge3" class="edge">
<title>Node1&#45;&gt;Node4</title>
<path fill="none" stroke="midnightblue" d="M1673.12,-350.78C1823.32,-349.58 2172.86,-335.96 2172.86,-235 2172.86,-235 2172.86,-235 2172.86,-177 2172.86,-130.11 2122.3,-96.89 2088.53,-79.93"/>
<polygon fill="midnightblue" stroke="midnightblue" points="2090.03,-76.77 2079.5,-75.58 2086.99,-83.07 2090.03,-76.77"/>
</g>
<!-- Node5 -->
<g id="node5" class="node">
<title>Node5</title>
<g id="a_node5"><a xlink:title=" ">
<polygon fill="white" stroke="#bfbfbf" points="1941.86,-0.5 1941.86,-19.5 2005.86,-19.5 2005.86,-0.5 1941.86,-0.5"/>
<text text-anchor="middle" x="1973.86" y="-7.5" font-family="Helvetica,sans-Serif" font-size="10.00">algorithm</text>
</a>
</g>
</g>
<!-- Node1&#45;&gt;Node5 -->
<g id="edge4" class="edge">
<title>Node1&#45;&gt;Node5</title>
<path fill="none" stroke="midnightblue" d="M1672.95,-349.15C1806.44,-345.74 2100.57,-334.45 2194.86,-300 2241.88,-282.82 2286.86,-285.06 2286.86,-235 2286.86,-235 2286.86,-235 2286.86,-121 2286.86,-64.26 2101.44,-29.7 2016.03,-16.79"/>
<polygon fill="midnightblue" stroke="midnightblue" points="2016.29,-13.29 2005.88,-15.29 2015.26,-20.21 2016.29,-13.29"/>
</g>
<!-- Node6 -->
<g id="node6" class="node">
<title>Node6</title>
<g id="a_node6"><a xlink:title=" ">
<polygon fill="white" stroke="#bfbfbf" points="484.86,-0.5 484.86,-19.5 544.86,-19.5 544.86,-0.5 484.86,-0.5"/>
<text text-anchor="middle" x="514.86" y="-7.5" font-family="Helvetica,sans-Serif" font-size="10.00">iostream</text>
</a>
</g>
</g>
<!-- Node1&#45;&gt;Node6 -->
<g id="edge5" class="edge">
<title>Node1&#45;&gt;Node6</title>
<path fill="none" stroke="midnightblue" d="M1538.73,-349.95C1293.19,-347.65 452.19,-337.12 337.86,-300 266.28,-276.76 235.06,-259.26 210.86,-188 199.23,-153.77 215.12,-138.37 239.86,-112 303.04,-44.63 414.96,-22.02 474.68,-14.56"/>
<polygon fill="midnightblue" stroke="midnightblue" points="475.32,-18.01 484.85,-13.38 474.51,-11.06 475.32,-18.01"/>
</g>
<!-- Node7 -->
<g id="node7" class="node">
<title>Node7</title>
<g id="a_node7"><a xlink:title=" ">
<polygon fill="white" stroke="#bfbfbf" points="1989.36,-112.5 1989.36,-131.5 2030.36,-131.5 2030.36,-112.5 1989.36,-112.5"/>
<text text-anchor="middle" x="2009.86" y="-119.5" font-family="Helvetica,sans-Serif" font-size="10.00">tuple</text>
</a>
</g>
</g>
<!-- Node1&#45;&gt;Node7 -->
<g id="edge6" class="edge">
<title>Node1&#45;&gt;Node7</title>
<path fill="none" stroke="midnightblue" d="M1630.82,-336.44C1703.43,-295.55 1913.89,-177.04 1985.59,-136.66"/>
<polygon fill="midnightblue" stroke="midnightblue" points="1987.39,-139.67 1994.39,-131.71 1983.96,-133.57 1987.39,-139.67"/>
</g>
<!-- Node8 -->
<g id="node8" class="node">
<title>Node8</title>
<g id="a_node8"><a xlink:title=" ">
<polygon fill="white" stroke="#bfbfbf" points="645.36,-0.5 645.36,-19.5 714.36,-19.5 714.36,-0.5 645.36,-0.5"/>
<text text-anchor="middle" x="679.86" y="-7.5" font-family="Helvetica,sans-Serif" font-size="10.00">type_traits</text>
</a>
</g>
</g>
<!-- Node1&#45;&gt;Node8 -->
<g id="edge7" class="edge">
<title>Node1&#45;&gt;Node8</title>
<path fill="none" stroke="midnightblue" d="M1538.81,-350.8C1387.83,-350.61 1009.97,-345.19 697.86,-300 483.62,-268.98 358.17,-357.76 223.86,-188 191.59,-147.22 242.67,-132.17 287.86,-112 409.28,-57.81 460.43,-122.88 584.86,-76 593.01,-72.93 634.16,-43.86 659.55,-25.66"/>
<polygon fill="midnightblue" stroke="midnightblue" points="661.72,-28.41 667.8,-19.73 657.64,-22.72 661.72,-28.41"/>
</g>
<!-- Node9 -->
<g id="node9" class="node">
<title>Node9</title>
<g id="a_node9"><a xlink:title=" ">
<polygon fill="white" stroke="#bfbfbf" points="1900.36,-56.5 1900.36,-75.5 1945.36,-75.5 1945.36,-56.5 1900.36,-56.5"/>
<text text-anchor="middle" x="1922.86" y="-63.5" font-family="Helvetica,sans-Serif" font-size="10.00">utility</text>
</a>
</g>
</g>
<!-- Node1&#45;&gt;Node9 -->
<g id="edge8" class="edge">
<title>Node1&#45;&gt;Node9</title>
<path fill="none" stroke="midnightblue" d="M1673.12,-349.78C1815.6,-346.42 2134.86,-328.48 2134.86,-235 2134.86,-235 2134.86,-235 2134.86,-177 2134.86,-97.2 2015.05,-75.22 1955.57,-69.22"/>
<polygon fill="midnightblue" stroke="midnightblue" points="1955.82,-65.73 1945.54,-68.3 1955.18,-72.7 1955.82,-65.73"/>
</g>
<!-- Node10 -->
<g id="node10" class="node">
<title>Node10</title>
<g id="a_node10"><a xlink:title=" ">
<polygon fill="white" stroke="#bfbfbf" points="252.36,-0.5 252.36,-19.5 299.36,-19.5 299.36,-0.5 252.36,-0.5"/>
<text text-anchor="middle" x="275.86" y="-7.5" font-family="Helvetica,sans-Serif" font-size="10.00">vector</text>
</a>
</g>
</g>
<!-- Node1&#45;&gt;Node10 -->
<g id="edge9" class="edge">
<title>Node1&#45;&gt;Node10</title>
<path fill="none" stroke="midnightblue" d="M1538.5,-350.46C1263.49,-350 233.88,-345.24 95.86,-300 47.24,-284.07 0.86,-286.16 0.86,-235 0.86,-235 0.86,-235 0.86,-121 0.86,-90.9 -2.57,-76.08 19.86,-56 52.19,-27.05 180.49,-16.2 242.27,-12.59"/>
<polygon fill="midnightblue" stroke="midnightblue" points="242.5,-16.08 252.29,-12.04 242.11,-9.1 242.5,-16.08"/>
</g>
<!-- Node11 -->
<g id="node11" class="node">
<title>Node11</title>
<g id="a_node11"><a xlink:href="algebra_2eigen_8hpp.html" target="_top" xlink:title=" ">
<polygon fill="white" stroke="black" points="1644.36,-56.5 1644.36,-75.5 1773.36,-75.5 1773.36,-56.5 1644.36,-56.5"/>
<text text-anchor="middle" x="1708.86" y="-63.5" font-family="Helvetica,sans-Serif" font-size="10.00">mini/algebra/eigen.hpp</text>
</a>
</g>
</g>
<!-- Node1&#45;&gt;Node11 -->
<g id="edge10" class="edge">
<title>Node1&#45;&gt;Node11</title>
<path fill="none" stroke="midnightblue" d="M1673.12,-339.49C1773.96,-318.94 1960.91,-264.17 2039.86,-132 2044.41,-124.37 2045.7,-118.7 2039.86,-112 2023.24,-92.97 1875.94,-79 1783.53,-72.02"/>
<polygon fill="midnightblue" stroke="midnightblue" points="1783.61,-68.51 1773.37,-71.26 1783.09,-75.5 1783.61,-68.51"/>
</g>
<!-- Node14 -->
<g id="node14" class="node">
<title>Node14</title>
<g id="a_node14"><a xlink:href="integrator_2cell_8hpp.html" target="_top" xlink:title=" ">
<polygon fill="white" stroke="black" points="602.36,-224.5 602.36,-243.5 733.36,-243.5 733.36,-224.5 602.36,-224.5"/>
<text text-anchor="middle" x="667.86" y="-231.5" font-family="Helvetica,sans-Serif" font-size="10.00">mini/integrator/cell.hpp</text>
</a>
</g>
</g>
<!-- Node1&#45;&gt;Node14 -->
<g id="edge15" class="edge">
<title>Node1&#45;&gt;Node14</title>
<path fill="none" stroke="midnightblue" d="M1538.48,-349.59C1414.73,-347.03 1143.25,-337.26 917.86,-300 840.4,-287.2 751.98,-261.51 703.81,-246.55"/>
<polygon fill="midnightblue" stroke="midnightblue" points="704.75,-243.17 694.16,-243.53 702.65,-249.85 704.75,-243.17"/>
</g>
<!-- Node17 -->
<g id="node17" class="node">
<title>Node17</title>
<g id="a_node17"><a xlink:href="coordinate_2element_8hpp.html" target="_top" xlink:title=" ">
<polygon fill="white" stroke="black" points="423.86,-112.5 423.86,-131.5 581.86,-131.5 581.86,-112.5 423.86,-112.5"/>
<text text-anchor="middle" x="502.86" y="-119.5" font-family="Helvetica,sans-Serif" font-size="10.00">mini/coordinate/element.hpp</text>
</a>
</g>
</g>
<!-- Node1&#45;&gt;Node17 -->
<g id="edge65" class="edge">
<title>Node1&#45;&gt;Node17</title>
<path fill="none" stroke="midnightblue" d="M1538.75,-350.07C1402.98,-348.35 1086.29,-339.98 823.86,-300 719.42,-284.09 690.27,-284.87 592.86,-244 549.41,-225.77 525.74,-229.18 502.86,-188 495.06,-173.97 495.93,-155.48 498.24,-141.8"/>
<polygon fill="midnightblue" stroke="midnightblue" points="501.74,-142.16 500.36,-131.65 494.88,-140.73 501.74,-142.16"/>
</g>
<!-- Node22 -->
<g id="node22" class="node">
<title>Node22</title>
<g id="a_node22"><a xlink:href="index_8hpp.html" target="_top" xlink:title=" ">
<polygon fill="white" stroke="black" points="28.86,-56.5 28.86,-75.5 162.86,-75.5 162.86,-56.5 28.86,-56.5"/>
<text text-anchor="middle" x="95.86" y="-63.5" font-family="Helvetica,sans-Serif" font-size="10.00">mini/constant/index.hpp</text>
</a>
</g>
</g>
<!-- Node1&#45;&gt;Node22 -->
<g id="edge84" class="edge">
<title>Node1&#45;&gt;Node22</title>
<path fill="none" stroke="midnightblue" d="M1538.58,-350.01C1257.05,-347.72 185.28,-336.64 123.86,-300 95.12,-282.86 85.86,-268.46 85.86,-235 85.86,-235 85.86,-235 85.86,-177 85.86,-144.82 90.15,-107.55 93.11,-85.7"/>
<polygon fill="midnightblue" stroke="midnightblue" points="96.62,-85.92 94.55,-75.53 89.69,-84.95 96.62,-85.92"/>
</g>
<!-- Node25 -->
<g id="node25" class="node">
<title>Node25</title>
<g id="a_node25"><a xlink:href="integrator_2hexahedron_8hpp.html" target="_top" xlink:title=" ">
<polygon fill="white" stroke="black" points="927.36,-280.5 927.36,-299.5 1098.36,-299.5 1098.36,-280.5 927.36,-280.5"/>
<text text-anchor="middle" x="1012.86" y="-287.5" font-family="Helvetica,sans-Serif" font-size="10.00">mini/integrator/hexahedron.hpp</text>
</a>
</g>
</g>
<!-- Node1&#45;&gt;Node25 -->
<g id="edge47" class="edge">
<title>Node1&#45;&gt;Node25</title>
<path fill="none" stroke="midnightblue" d="M1538.7,-343.76C1433.26,-333.18 1228.49,-312.64 1107.95,-300.54"/>
<polygon fill="midnightblue" stroke="midnightblue" points="1108.29,-297.06 1097.99,-299.54 1107.59,-304.02 1108.29,-297.06"/>
</g>
<!-- Node28 -->
<g id="node28" class="node">
<title>Node28</title>
<g id="a_node28"><a xlink:href="lagrange_8hpp.html" target="_top" xlink:title=" ">
<polygon fill="white" stroke="black" points="1538.86,-168.5 1538.86,-187.5 1672.86,-187.5 1672.86,-168.5 1538.86,-168.5"/>
<text text-anchor="middle" x="1605.86" y="-175.5" font-family="Helvetica,sans-Serif" font-size="10.00">mini/basis/lagrange.hpp</text>
</a>
</g>
</g>
<!-- Node1&#45;&gt;Node28 -->
<g id="edge66" class="edge">
<title>Node1&#45;&gt;Node28</title>
<path fill="none" stroke="midnightblue" d="M1605.86,-336.47C1605.86,-305.7 1605.86,-232.33 1605.86,-197.7"/>
<polygon fill="midnightblue" stroke="midnightblue" points="1609.36,-197.56 1605.86,-187.56 1602.36,-197.56 1609.36,-197.56"/>
</g>
<!-- Node31 -->
<g id="node31" class="node">
<title>Node31</title>
<g id="a_node31"><a xlink:href="expansion_8hpp.html" target="_top" xlink:title=" ">
<polygon fill="white" stroke="black" points="1648.86,-112.5 1648.86,-131.5 1818.86,-131.5 1818.86,-112.5 1648.86,-112.5"/>
<text text-anchor="middle" x="1733.86" y="-119.5" font-family="Helvetica,sans-Serif" font-size="10.00">mini/polynomial/expansion.hpp</text>
</a>
</g>
</g>
<!-- Node1&#45;&gt;Node31 -->
<g id="edge85" class="edge">
<title>Node1&#45;&gt;Node31</title>
<path fill="none" stroke="midnightblue" d="M1613.86,-336.27C1636.2,-296.56 1699.19,-184.61 1723.82,-140.85"/>
<polygon fill="midnightblue" stroke="midnightblue" points="1726.98,-142.36 1728.83,-131.93 1720.88,-138.93 1726.98,-142.36"/>
</g>
<!-- Node11&#45;&gt;Node3 -->
<g id="edge12" class="edge">
<title>Node11&#45;&gt;Node3</title>
<path fill="none" stroke="midnightblue" d="M1679.07,-56.44C1645.14,-46.7 1589.84,-30.82 1554.42,-20.64"/>
<polygon fill="midnightblue" stroke="midnightblue" points="1555.13,-17.2 1544.55,-17.81 1553.2,-23.93 1555.13,-17.2"/>
</g>
<!-- Node11&#45;&gt;Node5 -->
<g id="edge11" class="edge">
<title>Node11&#45;&gt;Node5</title>
<path fill="none" stroke="midnightblue" d="M1750.85,-56.44C1800.31,-46.37 1881.99,-29.72 1931.58,-19.62"/>
<polygon fill="midnightblue" stroke="midnightblue" points="1932.55,-22.99 1941.65,-17.56 1931.15,-16.13 1932.55,-22.99"/>
</g>
<!-- Node12 -->
<g id="node12" class="node">
<title>Node12</title>
<g id="a_node12"><a xlink:title=" ">
<polygon fill="white" stroke="#bfbfbf" points="1724.36,-0.5 1724.36,-19.5 1773.36,-19.5 1773.36,-0.5 1724.36,-0.5"/>
<text text-anchor="middle" x="1748.86" y="-7.5" font-family="Helvetica,sans-Serif" font-size="10.00">cstdlib</text>
</a>
</g>
</g>
<!-- Node11&#45;&gt;Node12 -->
<g id="edge13" class="edge">
<title>Node11&#45;&gt;Node12</title>
<path fill="none" stroke="midnightblue" d="M1715.46,-56.08C1721.11,-48.46 1729.4,-37.26 1736.31,-27.94"/>
<polygon fill="midnightblue" stroke="midnightblue" points="1739.23,-29.87 1742.37,-19.75 1733.61,-25.7 1739.23,-29.87"/>
</g>
<!-- Node13 -->
<g id="node13" class="node">
<title>Node13</title>
<g id="a_node13"><a xlink:title=" ">
<polygon fill="white" stroke="#bfbfbf" points="1631.86,-0.5 1631.86,-19.5 1705.86,-19.5 1705.86,-0.5 1631.86,-0.5"/>
<text text-anchor="middle" x="1668.86" y="-7.5" font-family="Helvetica,sans-Serif" font-size="10.00">Eigen/Eigen</text>
</a>
</g>
</g>
<!-- Node11&#45;&gt;Node13 -->
<g id="edge14" class="edge">
<title>Node11&#45;&gt;Node13</title>
<path fill="none" stroke="midnightblue" d="M1702.25,-56.08C1696.6,-48.46 1688.31,-37.26 1681.4,-27.94"/>
<polygon fill="midnightblue" stroke="midnightblue" points="1684.1,-25.7 1675.34,-19.75 1678.48,-29.87 1684.1,-25.7"/>
</g>
<!-- Node14&#45;&gt;Node2 -->
<g id="edge16" class="edge">
<title>Node14&#45;&gt;Node2</title>
<path fill="none" stroke="midnightblue" d="M667.93,-224.31C668.62,-201.8 673.81,-141.31 708.86,-112 718.75,-103.72 889.27,-81.75 968.72,-71.9"/>
<polygon fill="midnightblue" stroke="midnightblue" points="969.35,-75.35 978.84,-70.65 968.49,-68.4 969.35,-75.35"/>
</g>
<!-- Node15 -->
<g id="node15" class="node">
<title>Node15</title>
<g id="a_node15"><a xlink:title=" ">
<polygon fill="white" stroke="#bfbfbf" points="717.86,-112.5 717.86,-131.5 775.86,-131.5 775.86,-112.5 717.86,-112.5"/>
<text text-anchor="middle" x="746.86" y="-119.5" font-family="Helvetica,sans-Serif" font-size="10.00">memory</text>
</a>
</g>
</g>
<!-- Node14&#45;&gt;Node15 -->
<g id="edge17" class="edge">
<title>Node14&#45;&gt;Node15</title>
<path fill="none" stroke="midnightblue" d="M675.27,-224.22C682.72,-215.28 694.43,-200.94 703.86,-188 715.4,-172.16 727.64,-153.44 736.1,-140.16"/>
<polygon fill="midnightblue" stroke="midnightblue" points="739.14,-141.9 741.53,-131.58 733.23,-138.16 739.14,-141.9"/>
</g>
<!-- Node16 -->
<g id="node16" class="node">
<title>Node16</title>
<g id="a_node16"><a xlink:href="coordinate_2cell_8hpp.html" target="_top" xlink:title=" ">
<polygon fill="white" stroke="black" points="527.86,-168.5 527.86,-187.5 661.86,-187.5 661.86,-168.5 527.86,-168.5"/>
<text text-anchor="middle" x="594.86" y="-175.5" font-family="Helvetica,sans-Serif" font-size="10.00">mini/coordinate/cell.hpp</text>
</a>
</g>
</g>
<!-- Node14&#45;&gt;Node16 -->
<g id="edge18" class="edge">
<title>Node14&#45;&gt;Node16</title>
<path fill="none" stroke="midnightblue" d="M656.13,-224.32C645.02,-216.11 628.11,-203.6 614.87,-193.81"/>
<polygon fill="midnightblue" stroke="midnightblue" points="616.92,-190.97 606.8,-187.83 612.76,-196.59 616.92,-190.97"/>
</g>
<!-- Node23 -->
<g id="node23" class="node">
<title>Node23</title>
<g id="a_node23"><a xlink:href="integrator_2element_8hpp.html" target="_top" xlink:title=" ">
<polygon fill="white" stroke="black" points="241.86,-168.5 241.86,-187.5 395.86,-187.5 395.86,-168.5 241.86,-168.5"/>
<text text-anchor="middle" x="318.86" y="-175.5" font-family="Helvetica,sans-Serif" font-size="10.00">mini/integrator/element.hpp</text>
</a>
</g>
</g>
<!-- Node14&#45;&gt;Node23 -->
<g id="edge38" class="edge">
<title>Node14&#45;&gt;Node23</title>
<path fill="none" stroke="midnightblue" d="M612.56,-224.44C550.52,-214.85 450,-199.29 384.16,-189.1"/>
<polygon fill="midnightblue" stroke="midnightblue" points="384.31,-185.59 373.9,-187.52 383.24,-192.5 384.31,-185.59"/>
</g>
<!-- Node24 -->
<g id="node24" class="node">
<title>Node24</title>
<g id="a_node24"><a xlink:href="function_8hpp.html" target="_top" xlink:title=" ">
<polygon fill="white" stroke="black" points="1333.36,-112.5 1333.36,-131.5 1486.36,-131.5 1486.36,-112.5 1333.36,-112.5"/>
<text text-anchor="middle" x="1409.86" y="-119.5" font-family="Helvetica,sans-Serif" font-size="10.00">mini/integrator/function.hpp</text>
</a>
</g>
</g>
<!-- Node14&#45;&gt;Node24 -->
<g id="edge41" class="edge">
<title>Node14&#45;&gt;Node24</title>
<path fill="none" stroke="midnightblue" d="M725.46,-224.46C860.63,-204.42 1197.62,-154.46 1342.21,-133.03"/>
<polygon fill="midnightblue" stroke="midnightblue" points="1342.91,-136.46 1352.29,-131.53 1341.88,-129.54 1342.91,-136.46"/>
</g>
<!-- Node16&#45;&gt;Node2 -->
<g id="edge19" class="edge">
<title>Node16&#45;&gt;Node2</title>
<path fill="none" stroke="midnightblue" d="M602.8,-168.04C616.24,-153.54 645.04,-125.22 675.86,-112 702.3,-100.65 885.8,-80.07 968.55,-71.22"/>
<polygon fill="midnightblue" stroke="midnightblue" points="969.02,-74.69 978.59,-70.15 968.28,-67.73 969.02,-74.69"/>
</g>
<!-- Node16&#45;&gt;Node5 -->
<g id="edge20" class="edge">
<title>Node16&#45;&gt;Node5</title>
<path fill="none" stroke="midnightblue" d="M662.23,-176.05C912.25,-172.33 1775.21,-157.67 1827.86,-132 1867.55,-112.65 1857.7,-83.99 1891.86,-56 1907.82,-42.92 1928.13,-31.74 1944.55,-23.8"/>
<polygon fill="midnightblue" stroke="midnightblue" points="1946.14,-26.92 1953.71,-19.5 1943.17,-20.58 1946.14,-26.92"/>
</g>
<!-- Node16&#45;&gt;Node8 -->
<g id="edge22" class="edge">
<title>Node16&#45;&gt;Node8</title>
<path fill="none" stroke="midnightblue" d="M600.82,-168.4C612.48,-151.35 638.62,-111.81 655.86,-76 663.19,-60.76 669.71,-42.65 674.1,-29.42"/>
<polygon fill="midnightblue" stroke="midnightblue" points="677.52,-30.22 677.25,-19.63 670.85,-28.07 677.52,-30.22"/>
</g>
<!-- Node16&#45;&gt;Node10 -->
<g id="edge23" class="edge">
<title>Node16&#45;&gt;Node10</title>
<path fill="none" stroke="midnightblue" d="M527.63,-170.85C462.27,-161.34 364.52,-137.19 305.86,-76 293.24,-62.85 285.24,-43.44 280.7,-29.25"/>
<polygon fill="midnightblue" stroke="midnightblue" points="284.05,-28.23 277.88,-19.62 277.33,-30.2 284.05,-28.23"/>
</g>
<!-- Node16&#45;&gt;Node15 -->
<g id="edge21" class="edge">
<title>Node16&#45;&gt;Node15</title>
<path fill="none" stroke="midnightblue" d="M618.94,-168.44C644.4,-159.4 684.75,-145.06 713.32,-134.92"/>
<polygon fill="midnightblue" stroke="midnightblue" points="714.63,-138.16 722.88,-131.52 712.29,-131.57 714.63,-138.16"/>
</g>
<!-- Node16&#45;&gt;Node17 -->
<g id="edge24" class="edge">
<title>Node16&#45;&gt;Node17</title>
<path fill="none" stroke="midnightblue" d="M580.07,-168.32C565.59,-159.82 543.28,-146.73 526.36,-136.8"/>
<polygon fill="midnightblue" stroke="midnightblue" points="528,-133.7 517.6,-131.65 524.45,-139.74 528,-133.7"/>
</g>
<!-- Node17&#45;&gt;Node2 -->
<g id="edge25" class="edge">
<title>Node17&#45;&gt;Node2</title>
<path fill="none" stroke="midnightblue" d="M581.92,-112.56C691.34,-100.89 884.89,-80.23 968.51,-71.31"/>
<polygon fill="midnightblue" stroke="midnightblue" points="969.05,-74.77 978.62,-70.23 968.31,-67.81 969.05,-74.77"/>
</g>
<!-- Node17&#45;&gt;Node3 -->
<g id="edge27" class="edge">
<title>Node17&#45;&gt;Node3</title>
<path fill="none" stroke="midnightblue" d="M532.14,-112.47C587.7,-96.43 706.65,-62.74 748.86,-56 1031.48,-10.89 1378.74,-9.7 1487,-10.57"/>
<polygon fill="midnightblue" stroke="midnightblue" points="1487.27,-14.07 1497.3,-10.66 1487.33,-7.07 1487.27,-14.07"/>
</g>
<!-- Node17&#45;&gt;Node6 -->
<g id="edge30" class="edge">
<title>Node17&#45;&gt;Node6</title>
<path fill="none" stroke="midnightblue" d="M484.93,-112.37C463.57,-100.83 432.25,-79.1 444.86,-56 452.67,-41.68 467.22,-31.24 481.03,-24.04"/>
<polygon fill="midnightblue" stroke="midnightblue" points="482.88,-27.03 490.39,-19.56 479.86,-20.72 482.88,-27.03"/>
</g>
<!-- Node17&#45;&gt;Node10 -->
<g id="edge31" class="edge">
<title>Node17&#45;&gt;Node10</title>
<path fill="none" stroke="midnightblue" d="M435.02,-112.49C402.32,-106.12 363.61,-95.06 332.86,-76 313.39,-63.94 296.88,-43.16 286.72,-28.35"/>
<polygon fill="midnightblue" stroke="midnightblue" points="289.4,-26.06 280.99,-19.62 283.55,-29.9 289.4,-26.06"/>
</g>
<!-- Node17&#45;&gt;Node11 -->
<g id="edge32" class="edge">
<title>Node17&#45;&gt;Node11</title>
<path fill="none" stroke="midnightblue" d="M581.99,-117.46C802.01,-107.61 1418.99,-79.98 1633.9,-70.36"/>
<polygon fill="midnightblue" stroke="midnightblue" points="1634.3,-73.84 1644.14,-69.9 1633.99,-66.85 1634.3,-73.84"/>
</g>
<!-- Node18 -->
<g id="node18" class="node">
<title>Node18</title>
<g id="a_node18"><a xlink:title=" ">
<polygon fill="white" stroke="#bfbfbf" points="859.86,-56.5 859.86,-75.5 911.86,-75.5 911.86,-56.5 859.86,-56.5"/>
<text text-anchor="middle" x="885.86" y="-63.5" font-family="Helvetica,sans-Serif" font-size="10.00">cassert</text>
</a>
</g>
</g>
<!-- Node17&#45;&gt;Node18 -->
<g id="edge26" class="edge">
<title>Node17&#45;&gt;Node18</title>
<path fill="none" stroke="midnightblue" d="M582.17,-113.36C650.43,-106.18 751.69,-94.09 849.52,-75.84"/>
<polygon fill="midnightblue" stroke="midnightblue" points="850.41,-79.24 859.59,-73.94 849.11,-72.36 850.41,-79.24"/>
</g>
<!-- Node19 -->
<g id="node19" class="node">
<title>Node19</title>
<g id="a_node19"><a xlink:title=" ">
<polygon fill="white" stroke="#bfbfbf" points="341.86,-56.5 341.86,-75.5 397.86,-75.5 397.86,-56.5 341.86,-56.5"/>
<text text-anchor="middle" x="369.86" y="-63.5" font-family="Helvetica,sans-Serif" font-size="10.00">numeric</text>
</a>
</g>
</g>
<!-- Node17&#45;&gt;Node19 -->
<g id="edge28" class="edge">
<title>Node17&#45;&gt;Node19</title>
<path fill="none" stroke="midnightblue" d="M481.78,-112.44C459.8,-103.52 425.12,-89.44 400.19,-79.32"/>
<polygon fill="midnightblue" stroke="midnightblue" points="401.41,-76.04 390.83,-75.52 398.78,-82.52 401.41,-76.04"/>
</g>
<!-- Node20 -->
<g id="node20" class="node">
<title>Node20</title>
<g id="a_node20"><a xlink:title=" ">
<polygon fill="white" stroke="#bfbfbf" points="758.36,-56.5 758.36,-75.5 841.36,-75.5 841.36,-56.5 758.36,-56.5"/>
<text text-anchor="middle" x="799.86" y="-63.5" font-family="Helvetica,sans-Serif" font-size="10.00">initializer_list</text>
</a>
</g>
</g>
<!-- Node17&#45;&gt;Node20 -->
<g id="edge29" class="edge">
<title>Node17&#45;&gt;Node20</title>
<path fill="none" stroke="midnightblue" d="M549.92,-112.44C603.96,-102.62 692.35,-86.55 748.24,-76.38"/>
<polygon fill="midnightblue" stroke="midnightblue" points="749.07,-79.79 758.29,-74.56 747.82,-72.9 749.07,-79.79"/>
</g>
<!-- Node21 -->
<g id="node21" class="node">
<title>Node21</title>
<g id="a_node21"><a xlink:href="root_8hpp.html" target="_top" xlink:title=" ">
<polygon fill="white" stroke="black" points="453.86,-56.5 453.86,-75.5 575.86,-75.5 575.86,-56.5 453.86,-56.5"/>
<text text-anchor="middle" x="514.86" y="-63.5" font-family="Helvetica,sans-Serif" font-size="10.00">mini/algebra/root.hpp</text>
</a>
</g>
</g>
<!-- Node17&#45;&gt;Node21 -->
<g id="edge33" class="edge">
<title>Node17&#45;&gt;Node21</title>
<path fill="none" stroke="midnightblue" d="M504.84,-112.08C506.43,-104.93 508.71,-94.64 510.7,-85.69"/>
<polygon fill="midnightblue" stroke="midnightblue" points="514.16,-86.27 512.91,-75.75 507.33,-84.75 514.16,-86.27"/>
</g>
<!-- Node17&#45;&gt;Node22 -->
<g id="edge37" class="edge">
<title>Node17&#45;&gt;Node22</title>
<path fill="none" stroke="midnightblue" d="M438.37,-112.44C365.43,-102.77 246.86,-87.04 170.12,-76.85"/>
<polygon fill="midnightblue" stroke="midnightblue" points="170.42,-73.36 160.04,-75.52 169.5,-80.3 170.42,-73.36"/>
</g>
<!-- Node21&#45;&gt;Node6 -->
<g id="edge35" class="edge">
<title>Node21&#45;&gt;Node6</title>
<path fill="none" stroke="midnightblue" d="M514.86,-56.08C514.86,-49.01 514.86,-38.86 514.86,-29.99"/>
<polygon fill="midnightblue" stroke="midnightblue" points="518.36,-29.75 514.86,-19.75 511.36,-29.75 518.36,-29.75"/>
</g>
<!-- Node21&#45;&gt;Node8 -->
<g id="edge36" class="edge">
<title>Node21&#45;&gt;Node8</title>
<path fill="none" stroke="midnightblue" d="M541,-56.44C568.88,-47.32 613.2,-32.81 644.26,-22.65"/>
<polygon fill="midnightblue" stroke="midnightblue" points="645.42,-25.95 653.83,-19.52 643.24,-19.3 645.42,-25.95"/>
</g>
<!-- Node21&#45;&gt;Node10 -->
<g id="edge34" class="edge">
<title>Node21&#45;&gt;Node10</title>
<path fill="none" stroke="midnightblue" d="M476.99,-56.44C430.8,-46.01 353.46,-28.53 309.36,-18.57"/>
<polygon fill="midnightblue" stroke="midnightblue" points="309.95,-15.11 299.42,-16.32 308.4,-21.94 309.95,-15.11"/>
</g>
<!-- Node23&#45;&gt;Node17 -->
<g id="edge39" class="edge">
<title>Node23&#45;&gt;Node17</title>
<path fill="none" stroke="midnightblue" d="M348.01,-168.44C379.37,-159.24 429.39,-144.56 464.05,-134.39"/>
<polygon fill="midnightblue" stroke="midnightblue" points="465.23,-137.69 473.84,-131.52 463.26,-130.97 465.23,-137.69"/>
</g>
<!-- Node23&#45;&gt;Node22 -->
<g id="edge40" class="edge">
<title>Node23&#45;&gt;Node22</title>
<path fill="none" stroke="midnightblue" d="M300.22,-168.36C281.01,-159.4 250.23,-144.94 223.86,-132 188.14,-114.48 147.21,-93.54 121.44,-80.25"/>
<polygon fill="midnightblue" stroke="midnightblue" points="122.84,-77.04 112.35,-75.56 119.63,-83.26 122.84,-77.04"/>
</g>
<!-- Node24&#45;&gt;Node2 -->
<g id="edge42" class="edge">
<title>Node24&#45;&gt;Node2</title>
<path fill="none" stroke="midnightblue" d="M1346.32,-112.44C1262.92,-101.21 1118.98,-81.83 1049.16,-72.43"/>
<polygon fill="midnightblue" stroke="midnightblue" points="1049.39,-68.93 1039.01,-71.06 1048.46,-75.86 1049.39,-68.93"/>
</g>
<!-- Node24&#45;&gt;Node3 -->
<g id="edge43" class="edge">
<title>Node24&#45;&gt;Node3</title>
<path fill="none" stroke="midnightblue" d="M1417.18,-112.28C1428.03,-99.52 1449.23,-75.17 1468.86,-56 1479.53,-45.57 1492.18,-34.6 1502.33,-26.1"/>
<polygon fill="midnightblue" stroke="midnightblue" points="1504.7,-28.68 1510.17,-19.61 1500.23,-23.29 1504.7,-28.68"/>
</g>
<!-- Node24&#45;&gt;Node8 -->
<g id="edge44" class="edge">
<title>Node24&#45;&gt;Node8</title>
<path fill="none" stroke="midnightblue" d="M1383.58,-112.4C1339.36,-98.27 1247.03,-70.32 1166.86,-56 1005.58,-27.19 810.75,-16.25 724.58,-12.6"/>
<polygon fill="midnightblue" stroke="midnightblue" points="724.5,-9.1 714.37,-12.18 724.22,-16.09 724.5,-9.1"/>
</g>
<!-- Node24&#45;&gt;Node9 -->
<g id="edge45" class="edge">
<title>Node24&#45;&gt;Node9</title>
<path fill="none" stroke="midnightblue" d="M1486.38,-112.94C1600.25,-100.96 1809.53,-78.93 1890.07,-70.45"/>
<polygon fill="midnightblue" stroke="midnightblue" points="1890.54,-73.92 1900.12,-69.39 1889.81,-66.96 1890.54,-73.92"/>
</g>
<!-- Node24&#45;&gt;Node11 -->
<g id="edge46" class="edge">
<title>Node24&#45;&gt;Node11</title>
<path fill="none" stroke="midnightblue" d="M1457.23,-112.44C1509.94,-102.92 1595.09,-87.55 1651.51,-77.36"/>
<polygon fill="midnightblue" stroke="midnightblue" points="1652.48,-80.74 1661.7,-75.52 1651.24,-73.85 1652.48,-80.74"/>
</g>
<!-- Node25&#45;&gt;Node2 -->
<g id="edge48" class="edge">
<title>Node25&#45;&gt;Node2</title>
<path fill="none" stroke="midnightblue" d="M1012.92,-280.48C1012.86,-267.96 1012.11,-243.92 1007.86,-224 997.01,-173.25 958.36,-161.2 974.86,-112 978.46,-101.25 985.76,-91.02 992.67,-83.04"/>
<polygon fill="midnightblue" stroke="midnightblue" points="995.33,-85.32 999.57,-75.61 990.2,-80.56 995.33,-85.32"/>
</g>
<!-- Node25&#45;&gt;Node3 -->
<g id="edge51" class="edge">
<title>Node25&#45;&gt;Node3</title>
<path fill="none" stroke="midnightblue" d="M1098.75,-286.14C1207.7,-277.67 1393.68,-246.15 1495.86,-132 1521.4,-103.46 1523.47,-55.86 1522.39,-29.68"/>
<polygon fill="midnightblue" stroke="midnightblue" points="1525.88,-29.36 1521.77,-19.59 1518.89,-29.79 1525.88,-29.36"/>
</g>
<!-- Node25&#45;&gt;Node4 -->
<g id="edge52" class="edge">
<title>Node25&#45;&gt;Node4</title>
<path fill="none" stroke="midnightblue" d="M1098.41,-284.8C1200.39,-279.02 1375.77,-266.67 1524.86,-244 1756.43,-208.79 1868.51,-291.71 2039.86,-132 2052.48,-120.23 2056.87,-100.6 2058.32,-85.98"/>
<polygon fill="midnightblue" stroke="midnightblue" points="2061.84,-85.77 2058.96,-75.58 2054.86,-85.35 2061.84,-85.77"/>
</g>
<!-- Node25&#45;&gt;Node5 -->
<g id="edge49" class="edge">
<title>Node25&#45;&gt;Node5</title>
<path fill="none" stroke="midnightblue" d="M1098.44,-288.17C1307.89,-284.9 1840.44,-268.65 1995.86,-188 2060.48,-154.46 2134.24,-115.9 2092.86,-56 2075.65,-31.11 2042.78,-19.97 2015.94,-14.99"/>
<polygon fill="midnightblue" stroke="midnightblue" points="2016.43,-11.53 2005.99,-13.37 2015.3,-18.43 2016.43,-11.53"/>
</g>
<!-- Node25&#45;&gt;Node8 -->
<g id="edge54" class="edge">
<title>Node25&#45;&gt;Node8</title>
<path fill="none" stroke="midnightblue" d="M927.22,-284.28C734.01,-272.74 277.55,-240.18 232.86,-188 171.16,-115.96 608.53,-81 617.86,-76 639.03,-64.65 657.17,-43.42 668.26,-28.32"/>
<polygon fill="midnightblue" stroke="midnightblue" points="671.33,-30.04 674.22,-19.85 665.6,-26.01 671.33,-30.04"/>
</g>
<!-- Node25&#45;&gt;Node14 -->
<g id="edge55" class="edge">
<title>Node25&#45;&gt;Node14</title>
<path fill="none" stroke="midnightblue" d="M958.19,-280.44C896.87,-270.85 797.5,-255.29 732.41,-245.1"/>
<polygon fill="midnightblue" stroke="midnightblue" points="732.69,-241.61 722.27,-243.52 731.6,-248.52 732.69,-241.61"/>
</g>
<!-- Node25&#45;&gt;Node15 -->
<g id="edge53" class="edge">
<title>Node25&#45;&gt;Node15</title>
<path fill="none" stroke="midnightblue" d="M927.35,-281.78C870.35,-275.26 802.13,-263.59 780.86,-244 752.05,-217.48 746.92,-168.68 746.43,-141.87"/>
<polygon fill="midnightblue" stroke="midnightblue" points="749.93,-141.57 746.46,-131.56 742.93,-141.55 749.93,-141.57"/>
</g>
<!-- Node25&#45;&gt;Node18 -->
<g id="edge50" class="edge">
<title>Node25&#45;&gt;Node18</title>
<path fill="none" stroke="midnightblue" d="M1007.88,-280.3C989.03,-247.36 921.84,-129.9 896.04,-84.81"/>
<polygon fill="midnightblue" stroke="midnightblue" points="898.94,-82.83 890.94,-75.88 892.87,-86.3 898.94,-82.83"/>
</g>
<!-- Node26 -->
<g id="node26" class="node">
<title>Node26</title>
<g id="a_node26"><a xlink:href="coordinate_2hexahedron_8hpp.html" target="_top" xlink:title=" ">
<polygon fill="white" stroke="black" points="790.36,-224.5 790.36,-243.5 965.36,-243.5 965.36,-224.5 790.36,-224.5"/>
<text text-anchor="middle" x="877.86" y="-231.5" font-family="Helvetica,sans-Serif" font-size="10.00">mini/coordinate/hexahedron.hpp</text>
</a>
</g>
</g>
<!-- Node25&#45;&gt;Node26 -->
<g id="edge56" class="edge">
<title>Node25&#45;&gt;Node26</title>
<path fill="none" stroke="midnightblue" d="M991.46,-280.44C969.15,-271.52 933.95,-257.44 908.65,-247.32"/>
<polygon fill="midnightblue" stroke="midnightblue" points="909.73,-243.98 899.15,-243.52 907.13,-250.48 909.73,-243.98"/>
</g>
<!-- Node26&#45;&gt;Node2 -->
<g id="edge57" class="edge">
<title>Node26&#45;&gt;Node2</title>
<path fill="none" stroke="midnightblue" d="M880.8,-224.2C888.25,-202.93 909.58,-147.85 941.86,-112 953.36,-99.22 969.22,-88.36 982.63,-80.51"/>
<polygon fill="midnightblue" stroke="midnightblue" points="984.42,-83.51 991.43,-75.56 981,-77.41 984.42,-83.51"/>
</g>
<!-- Node26&#45;&gt;Node10 -->
<g id="edge62" class="edge">
<title>Node26&#45;&gt;Node10</title>
<path fill="none" stroke="midnightblue" d="M790.19,-224.8C696.91,-215.67 555.65,-200.53 502.86,-188 431.59,-171.08 410.19,-170.47 347.86,-132 317.09,-113.01 306.33,-107.65 288.86,-76 280.95,-61.67 277.81,-43.21 276.59,-29.62"/>
<polygon fill="midnightblue" stroke="midnightblue" points="280.08,-29.31 275.95,-19.56 273.09,-29.76 280.08,-29.31"/>
</g>
<!-- Node26&#45;&gt;Node15 -->
<g id="edge61" class="edge">
<title>Node26&#45;&gt;Node15</title>
<path fill="none" stroke="midnightblue" d="M867.58,-224.37C845.38,-205.73 792.74,-161.53 764.88,-138.13"/>
<polygon fill="midnightblue" stroke="midnightblue" points="767,-135.34 757.09,-131.59 762.5,-140.7 767,-135.34"/>
</g>
<!-- Node26&#45;&gt;Node16 -->
<g id="edge64" class="edge">
<title>Node26&#45;&gt;Node16</title>
<path fill="none" stroke="midnightblue" d="M833.01,-224.44C783.23,-214.94 702.87,-199.61 649.46,-189.42"/>
<polygon fill="midnightblue" stroke="midnightblue" points="649.97,-185.95 639.49,-187.52 648.66,-192.83 649.97,-185.95"/>
</g>
<!-- Node26&#45;&gt;Node17 -->
<g id="edge63" class="edge">
<title>Node26&#45;&gt;Node17</title>
<path fill="none" stroke="midnightblue" d="M790.29,-227.18C690.57,-219.77 538.8,-205.74 518.86,-188 505.99,-176.55 502.66,-156.57 502.13,-141.78"/>
<polygon fill="midnightblue" stroke="midnightblue" points="505.63,-141.71 502.17,-131.7 498.63,-141.69 505.63,-141.71"/>
</g>
<!-- Node26&#45;&gt;Node18 -->
<g id="edge58" class="edge">
<title>Node26&#45;&gt;Node18</title>
<path fill="none" stroke="midnightblue" d="M875.21,-224.39C869.47,-204.43 857.05,-153.51 865.86,-112 867.85,-102.59 871.96,-92.76 875.93,-84.7"/>
<polygon fill="midnightblue" stroke="midnightblue" points="879.16,-86.07 880.73,-75.59 872.97,-82.81 879.16,-86.07"/>
</g>
<!-- Node26&#45;&gt;Node20 -->
<g id="edge60" class="edge">
<title>Node26&#45;&gt;Node20</title>
<path fill="none" stroke="midnightblue" d="M873.66,-224.08C861.28,-197.72 824.7,-119.88 808.15,-84.66"/>
<polygon fill="midnightblue" stroke="midnightblue" points="811.3,-83.13 803.88,-75.57 804.97,-86.11 811.3,-83.13"/>
</g>
<!-- Node27 -->
<g id="node27" class="node">
<title>Node27</title>
<g id="a_node27"><a xlink:title=" ">
<polygon fill="white" stroke="#bfbfbf" points="983.86,-112.5 983.86,-131.5 1025.86,-131.5 1025.86,-112.5 983.86,-112.5"/>
<text text-anchor="middle" x="1004.86" y="-119.5" font-family="Helvetica,sans-Serif" font-size="10.00">array</text>
</a>
</g>
</g>
<!-- Node26&#45;&gt;Node27 -->
<g id="edge59" class="edge">
<title>Node26&#45;&gt;Node27</title>
<path fill="none" stroke="midnightblue" d="M888.29,-224.47C899.23,-215.5 916.88,-200.9 931.86,-188 951.2,-171.33 973.02,-151.8 987.73,-138.53"/>
<polygon fill="midnightblue" stroke="midnightblue" points="990.42,-140.82 995.49,-131.51 985.73,-135.63 990.42,-140.82"/>
</g>
<!-- Node28&#45;&gt;Node2 -->
<g id="edge67" class="edge">
<title>Node28&#45;&gt;Node2</title>
<path fill="none" stroke="midnightblue" d="M1538.76,-176.32C1455.16,-173.99 1308.6,-165.02 1187.86,-132 1167.14,-126.33 1163.85,-119.85 1143.86,-112 1111.6,-99.33 1074.16,-87.04 1046.9,-78.51"/>
<polygon fill="midnightblue" stroke="midnightblue" points="1047.94,-75.16 1037.35,-75.54 1045.86,-81.85 1047.94,-75.16"/>
</g>
<!-- Node28&#45;&gt;Node3 -->
<g id="edge70" class="edge">
<title>Node28&#45;&gt;Node3</title>
<path fill="none" stroke="midnightblue" d="M1598.4,-168.49C1591.01,-159.76 1579.68,-145.57 1571.86,-132 1551.91,-97.4 1535.38,-53.5 1526.93,-29.22"/>
<polygon fill="midnightblue" stroke="midnightblue" points="1530.18,-27.89 1523.64,-19.55 1523.55,-30.15 1530.18,-27.89"/>
</g>
<!-- Node28&#45;&gt;Node5 -->
<g id="edge71" class="edge">
<title>Node28&#45;&gt;Node5</title>
<path fill="none" stroke="midnightblue" d="M1672.97,-173.95C1752.81,-169.21 1880.28,-157.77 1919.86,-132 1954.93,-109.16 1967.42,-57.67 1971.72,-29.79"/>
<polygon fill="midnightblue" stroke="midnightblue" points="1975.2,-30.12 1973.06,-19.75 1968.27,-29.19 1975.2,-30.12"/>
</g>
<!-- Node28&#45;&gt;Node7 -->
<g id="edge74" class="edge">
<title>Node28&#45;&gt;Node7</title>
<path fill="none" stroke="midnightblue" d="M1672.92,-171.47C1747.17,-164.73 1870.22,-151.75 1974.86,-132 1976.32,-131.72 1977.81,-131.42 1979.32,-131.1"/>
<polygon fill="midnightblue" stroke="midnightblue" points="1980.29,-134.47 1989.23,-128.78 1978.69,-127.65 1980.29,-134.47"/>
</g>
<!-- Node28&#45;&gt;Node9 -->
<g id="edge75" class="edge">
<title>Node28&#45;&gt;Node9</title>
<path fill="none" stroke="midnightblue" d="M1673.04,-174.45C1748.62,-170.27 1865.22,-159.46 1898.86,-132 1912.67,-120.72 1918.53,-100.72 1921.02,-85.87"/>
<polygon fill="midnightblue" stroke="midnightblue" points="1924.52,-86.12 1922.34,-75.75 1917.58,-85.21 1924.52,-86.12"/>
</g>
<!-- Node28&#45;&gt;Node11 -->
<g id="edge76" class="edge">
<title>Node28&#45;&gt;Node11</title>
<path fill="none" stroke="midnightblue" d="M1672.97,-172.56C1731,-167.15 1808.53,-155.63 1827.86,-132 1849.67,-105.31 1807.6,-87.89 1767.59,-77.86"/>
<polygon fill="midnightblue" stroke="midnightblue" points="1768.31,-74.44 1757.77,-75.53 1766.69,-81.25 1768.31,-74.44"/>
</g>
<!-- Node28&#45;&gt;Node18 -->
<g id="edge69" class="edge">
<title>Node28&#45;&gt;Node18</title>
<path fill="none" stroke="midnightblue" d="M1538.55,-173.64C1428.72,-167.62 1215.95,-153.57 1143.86,-132 1125.57,-126.53 1123.83,-118.42 1105.86,-112 1043.15,-89.6 966.18,-77.06 921.9,-71.19"/>
<polygon fill="midnightblue" stroke="midnightblue" points="922.27,-67.71 911.9,-69.91 921.38,-74.65 922.27,-67.71"/>
</g>
<!-- Node28&#45;&gt;Node20 -->
<g id="edge73" class="edge">
<title>Node28&#45;&gt;Node20</title>
<path fill="none" stroke="midnightblue" d="M1538.6,-174.89C1442.09,-170.97 1259.07,-160.22 1105.86,-132 1073.61,-126.06 1066.76,-119.53 1034.86,-112 1000.82,-103.96 909.88,-87.03 851.63,-76.38"/>
<polygon fill="midnightblue" stroke="midnightblue" points="851.97,-72.89 841.51,-74.53 850.72,-79.77 851.97,-72.89"/>
</g>
<!-- Node28&#45;&gt;Node27 -->
<g id="edge72" class="edge">
<title>Node28&#45;&gt;Node27</title>
<path fill="none" stroke="midnightblue" d="M1538.68,-172.09C1438.3,-164.57 1243.25,-149.24 1077.86,-132 1064.16,-130.57 1049.06,-128.75 1036.15,-127.12"/>
<polygon fill="midnightblue" stroke="midnightblue" points="1036.28,-123.61 1025.92,-125.81 1035.39,-130.55 1036.28,-123.61"/>
</g>
<!-- Node29 -->
<g id="node29" class="node">
<title>Node29</title>
<g id="a_node29"><a xlink:title=" ">
<polygon fill="white" stroke="#bfbfbf" points="1580.86,-112.5 1580.86,-131.5 1630.86,-131.5 1630.86,-112.5 1580.86,-112.5"/>
<text text-anchor="middle" x="1605.86" y="-119.5" font-family="Helvetica,sans-Serif" font-size="10.00">ranges</text>
</a>
</g>
</g>
<!-- Node28&#45;&gt;Node29 -->
<g id="edge68" class="edge">
<title>Node28&#45;&gt;Node29</title>
<path fill="none" stroke="midnightblue" d="M1605.86,-168.08C1605.86,-161.01 1605.86,-150.86 1605.86,-141.99"/>
<polygon fill="midnightblue" stroke="midnightblue" points="1609.36,-141.75 1605.86,-131.75 1602.36,-141.75 1609.36,-141.75"/>
</g>
<!-- Node30 -->
<g id="node30" class="node">
<title>Node30</title>
<g id="a_node30"><a xlink:href="taylor_8hpp.html" target="_top" xlink:title=" ">
<polygon fill="white" stroke="black" points="1196.36,-112.5 1196.36,-131.5 1315.36,-131.5 1315.36,-112.5 1196.36,-112.5"/>
<text text-anchor="middle" x="1255.86" y="-119.5" font-family="Helvetica,sans-Serif" font-size="10.00">mini/basis/taylor.hpp</text>
</a>
</g>
</g>
<!-- Node28&#45;&gt;Node30 -->
<g id="edge77" class="edge">
<title>Node28&#45;&gt;Node30</title>
<path fill="none" stroke="midnightblue" d="M1550.4,-168.44C1488.19,-158.85 1387.38,-143.29 1321.34,-133.1"/>
<polygon fill="midnightblue" stroke="midnightblue" points="1321.47,-129.58 1311.06,-131.52 1320.4,-136.5 1321.47,-129.58"/>
</g>
<!-- Node30&#45;&gt;Node2 -->
<g id="edge78" class="edge">
<title>Node30&#45;&gt;Node2</title>
<path fill="none" stroke="midnightblue" d="M1216.72,-112.44C1170.81,-102.41 1095.11,-85.86 1048.84,-75.74"/>
<polygon fill="midnightblue" stroke="midnightblue" points="1049.39,-72.28 1038.88,-73.56 1047.9,-79.12 1049.39,-72.28"/>
</g>
<!-- Node30&#45;&gt;Node3 -->
<g id="edge80" class="edge">
<title>Node30&#45;&gt;Node3</title>
<path fill="none" stroke="midnightblue" d="M1276.65,-112.37C1323.29,-93.01 1436.38,-46.06 1490.72,-23.51"/>
<polygon fill="midnightblue" stroke="midnightblue" points="1492.26,-26.66 1500.16,-19.59 1489.58,-20.19 1492.26,-26.66"/>
</g>
<!-- Node30&#45;&gt;Node6 -->
<g id="edge81" class="edge">
<title>Node30&#45;&gt;Node6</title>
<path fill="none" stroke="midnightblue" d="M1234.1,-112.46C1196.69,-98.17 1117.47,-69.64 1047.86,-56 1023.75,-51.28 675.3,-23.61 555.2,-14.16"/>
<polygon fill="midnightblue" stroke="midnightblue" points="555.2,-10.65 544.96,-13.36 554.65,-17.63 555.2,-10.65"/>
</g>
<!-- Node30&#45;&gt;Node8 -->
<g id="edge82" class="edge">
<title>Node30&#45;&gt;Node8</title>
<path fill="none" stroke="midnightblue" d="M1243.3,-112.46C1221.38,-98.04 1174.23,-69.14 1129.86,-56 1054.68,-33.73 822.91,-18.82 724.64,-13.34"/>
<polygon fill="midnightblue" stroke="midnightblue" points="724.62,-9.83 714.44,-12.78 724.23,-16.82 724.62,-9.83"/>
</g>
<!-- Node30&#45;&gt;Node11 -->
<g id="edge83" class="edge">
<title>Node30&#45;&gt;Node11</title>
<path fill="none" stroke="midnightblue" d="M1315.69,-113.15C1318.79,-112.76 1321.86,-112.37 1324.86,-112 1432.28,-98.7 1556.74,-84.3 1634.14,-75.46"/>
<polygon fill="midnightblue" stroke="midnightblue" points="1634.74,-78.92 1644.28,-74.31 1633.95,-71.96 1634.74,-78.92"/>
</g>
<!-- Node30&#45;&gt;Node18 -->
<g id="edge79" class="edge">
<title>Node30&#45;&gt;Node18</title>
<path fill="none" stroke="midnightblue" d="M1197.23,-112.44C1119.83,-101.15 985.89,-81.6 921.91,-72.26"/>
<polygon fill="midnightblue" stroke="midnightblue" points="922.29,-68.78 911.89,-70.8 921.28,-75.71 922.29,-68.78"/>
</g>
<!-- Node31&#45;&gt;Node2 -->
<g id="edge86" class="edge">
<title>Node31&#45;&gt;Node2</title>
<path fill="none" stroke="midnightblue" d="M1648.81,-112.76C1645.79,-112.5 1642.8,-112.25 1639.86,-112 1417.04,-93.39 1149.56,-75.92 1049.36,-69.55"/>
<polygon fill="midnightblue" stroke="midnightblue" points="1049.29,-66.04 1039.09,-68.89 1048.84,-73.02 1049.29,-66.04"/>
</g>
<!-- Node31&#45;&gt;Node3 -->
<g id="edge87" class="edge">
<title>Node31&#45;&gt;Node3</title>
<path fill="none" stroke="midnightblue" d="M1713.73,-112.35C1693.75,-103.62 1662.36,-89.55 1635.86,-76 1603.37,-59.4 1566.85,-38.33 1543.85,-24.76"/>
<polygon fill="midnightblue" stroke="midnightblue" points="1545.55,-21.69 1535.17,-19.6 1541.98,-27.71 1545.55,-21.69"/>
</g>
<!-- Node31&#45;&gt;Node4 -->
<g id="edge88" class="edge">
<title>Node31&#45;&gt;Node4</title>
<path fill="none" stroke="midnightblue" d="M1785.35,-112.44C1851.91,-101.38 1966.06,-82.42 2023.56,-72.86"/>
<polygon fill="midnightblue" stroke="midnightblue" points="2024.32,-76.29 2033.61,-71.19 2023.17,-69.38 2024.32,-76.29"/>
</g>
<!-- Node31&#45;&gt;Node6 -->
<g id="edge89" class="edge">
<title>Node31&#45;&gt;Node6</title>
<path fill="none" stroke="midnightblue" d="M1656.69,-112.47C1537.24,-99.41 1300.29,-74.07 1098.86,-56 1045.1,-51.18 678.83,-23.4 555.38,-14.06"/>
<polygon fill="midnightblue" stroke="midnightblue" points="555.45,-10.56 545.22,-13.29 554.92,-17.54 555.45,-10.56"/>
</g>
<!-- Node31&#45;&gt;Node8 -->
<g id="edge90" class="edge">
<title>Node31&#45;&gt;Node8</title>
<path fill="none" stroke="midnightblue" d="M1673.9,-112.48C1578.68,-99.16 1386.97,-73.13 1223.86,-56 1038.95,-36.58 817.96,-20.5 724.79,-14.04"/>
<polygon fill="midnightblue" stroke="midnightblue" points="724.81,-10.53 714.59,-13.34 724.33,-17.52 724.81,-10.53"/>
</g>
<!-- Node31&#45;&gt;Node9 -->
<g id="edge91" class="edge">
<title>Node31&#45;&gt;Node9</title>
<path fill="none" stroke="midnightblue" d="M1763.8,-112.44C1798.29,-102.59 1854.74,-86.46 1890.29,-76.3"/>
<polygon fill="midnightblue" stroke="midnightblue" points="1891.51,-79.6 1900.17,-73.48 1889.59,-72.86 1891.51,-79.6"/>
</g>
<!-- Node31&#45;&gt;Node11 -->
<g id="edge92" class="edge">
<title>Node31&#45;&gt;Node11</title>
<path fill="none" stroke="midnightblue" d="M1729.73,-112.08C1726.34,-104.77 1721.44,-94.18 1717.24,-85.1"/>
<polygon fill="midnightblue" stroke="midnightblue" points="1720.28,-83.36 1712.91,-75.75 1713.93,-86.3 1720.28,-83.36"/>
</g>
</g>
</svg>
