<?xml version="1.0" encoding="UTF-8" standalone="no"?>
<!DOCTYPE svg PUBLIC "-//W3C//DTD SVG 1.1//EN"
 "http://www.w3.org/Graphics/SVG/1.1/DTD/svg11.dtd">
<!-- Generated by graphviz version 2.43.0 (0)
 -->
<!-- Title: include/mini/polynomial/projection.hpp Pages: 1 -->
<svg width="1820pt" height="375pt"
 viewBox="0.00 0.00 1820.00 375.00" xmlns="http://www.w3.org/2000/svg" xmlns:xlink="http://www.w3.org/1999/xlink">
<g id="graph0" class="graph" transform="scale(1 1) rotate(0) translate(4 371)">
<title>include/mini/polynomial/projection.hpp</title>
<polygon fill="white" stroke="transparent" points="-4,4 -4,-371 1816,-371 1816,4 -4,4"/>
<!-- Node1 -->
<g id="node1" class="node">
<title>Node1</title>
<g id="a_node1"><a xlink:title=" ">
<polygon fill="#bfbfbf" stroke="black" points="274,-336.5 274,-366.5 408,-366.5 408,-336.5 274,-336.5"/>
<text text-anchor="start" x="282" y="-354.5" font-family="Helvetica,sans-Serif" font-size="10.00">include/mini/polynomial</text>
<text text-anchor="middle" x="341" y="-343.5" font-family="Helvetica,sans-Serif" font-size="10.00">/projection.hpp</text>
</a>
</g>
</g>
<!-- Node2 -->
<g id="node2" class="node">
<title>Node2</title>
<g id="a_node2"><a xlink:title=" ">
<polygon fill="white" stroke="#bfbfbf" points="730,-56.5 730,-75.5 790,-75.5 790,-56.5 730,-56.5"/>
<text text-anchor="middle" x="760" y="-63.5" font-family="Helvetica,sans-Serif" font-size="10.00">concepts</text>
</a>
</g>
</g>
<!-- Node1&#45;&gt;Node2 -->
<g id="edge1" class="edge">
<title>Node1&#45;&gt;Node2</title>
<path fill="none" stroke="midnightblue" d="M408.3,-342.55C517.03,-325.66 728.37,-275.21 820,-132 832.67,-112.19 808.72,-92.82 787.42,-80.46"/>
<polygon fill="midnightblue" stroke="midnightblue" points="789.02,-77.34 778.57,-75.6 785.66,-83.48 789.02,-77.34"/>
</g>
<!-- Node3 -->
<g id="node3" class="node">
<title>Node3</title>
<g id="a_node3"><a xlink:title=" ">
<polygon fill="white" stroke="#bfbfbf" points="416.5,-0.5 416.5,-19.5 463.5,-19.5 463.5,-0.5 416.5,-0.5"/>
<text text-anchor="middle" x="440" y="-7.5" font-family="Helvetica,sans-Serif" font-size="10.00">cmath</text>
</a>
</g>
</g>
<!-- Node1&#45;&gt;Node3 -->
<g id="edge2" class="edge">
<title>Node1&#45;&gt;Node3</title>
<path fill="none" stroke="midnightblue" d="M273.95,-336.59C250.02,-328.97 224.25,-317.39 205,-300 116.75,-220.24 16.51,-145.39 95,-56 96.29,-54.54 319.74,-26.18 406.3,-15.25"/>
<polygon fill="midnightblue" stroke="midnightblue" points="406.91,-18.7 416.39,-13.98 406.03,-11.76 406.91,-18.7"/>
</g>
<!-- Node4 -->
<g id="node4" class="node">
<title>Node4</title>
<g id="a_node4"><a xlink:title=" ">
<polygon fill="white" stroke="#bfbfbf" points="104,-56.5 104,-75.5 154,-75.5 154,-56.5 104,-56.5"/>
<text text-anchor="middle" x="129" y="-63.5" font-family="Helvetica,sans-Serif" font-size="10.00">cstring</text>
</a>
</g>
</g>
<!-- Node1&#45;&gt;Node4 -->
<g id="edge3" class="edge">
<title>Node1&#45;&gt;Node4</title>
<path fill="none" stroke="midnightblue" d="M273.81,-344.52C206.88,-334.44 114,-307.41 114,-235 114,-235 114,-235 114,-177 114,-144.5 120.51,-107.1 124.95,-85.34"/>
<polygon fill="midnightblue" stroke="midnightblue" points="128.39,-86.01 127.04,-75.5 121.54,-84.56 128.39,-86.01"/>
</g>
<!-- Node5 -->
<g id="node5" class="node">
<title>Node5</title>
<g id="a_node5"><a xlink:title=" ">
<polygon fill="white" stroke="#bfbfbf" points="298,-0.5 298,-19.5 358,-19.5 358,-0.5 298,-0.5"/>
<text text-anchor="middle" x="328" y="-7.5" font-family="Helvetica,sans-Serif" font-size="10.00">iostream</text>
</a>
</g>
</g>
<!-- Node1&#45;&gt;Node5 -->
<g id="edge4" class="edge">
<title>Node1&#45;&gt;Node5</title>
<path fill="none" stroke="midnightblue" d="M273.63,-341.63C174.25,-326.64 0,-292.19 0,-235 0,-235 0,-235 0,-121 0,-72.38 43.42,-75.42 88,-56 154.26,-27.14 238.71,-16.76 287.74,-13.05"/>
<polygon fill="midnightblue" stroke="midnightblue" points="288.2,-16.52 297.93,-12.33 287.71,-9.54 288.2,-16.52"/>
</g>
<!-- Node6 -->
<g id="node6" class="node">
<title>Node6</title>
<g id="a_node6"><a xlink:title=" ">
<polygon fill="white" stroke="#bfbfbf" points="900.5,-0.5 900.5,-19.5 969.5,-19.5 969.5,-0.5 900.5,-0.5"/>
<text text-anchor="middle" x="935" y="-7.5" font-family="Helvetica,sans-Serif" font-size="10.00">type_traits</text>
</a>
</g>
</g>
<!-- Node1&#45;&gt;Node6 -->
<g id="edge5" class="edge">
<title>Node1&#45;&gt;Node6</title>
<path fill="none" stroke="midnightblue" d="M408.03,-348.8C695.8,-341.05 1812,-306.41 1812,-235 1812,-235 1812,-235 1812,-121 1812,-49.16 1733.82,-72.92 1664,-56 1533.08,-24.28 1117.34,-14.21 979.72,-11.71"/>
<polygon fill="midnightblue" stroke="midnightblue" points="979.6,-8.21 969.54,-11.53 979.48,-15.21 979.6,-8.21"/>
</g>
<!-- Node7 -->
<g id="node7" class="node">
<title>Node7</title>
<g id="a_node7"><a xlink:title=" ">
<polygon fill="white" stroke="#bfbfbf" points="213.5,-56.5 213.5,-75.5 258.5,-75.5 258.5,-56.5 213.5,-56.5"/>
<text text-anchor="middle" x="236" y="-63.5" font-family="Helvetica,sans-Serif" font-size="10.00">utility</text>
</a>
</g>
</g>
<!-- Node1&#45;&gt;Node7 -->
<g id="edge6" class="edge">
<title>Node1&#45;&gt;Node7</title>
<path fill="none" stroke="midnightblue" d="M293.64,-336.39C249.35,-319.92 190,-287.97 190,-235 190,-235 190,-235 190,-177 190,-141.82 210.28,-104.86 223.91,-84"/>
<polygon fill="midnightblue" stroke="midnightblue" points="226.88,-85.85 229.6,-75.61 221.09,-81.92 226.88,-85.85"/>
</g>
<!-- Node8 -->
<g id="node8" class="node">
<title>Node8</title>
<g id="a_node8"><a xlink:href="algebra_2eigen_8hpp.html" target="_top" xlink:title=" ">
<polygon fill="white" stroke="black" points="506.5,-56.5 506.5,-75.5 635.5,-75.5 635.5,-56.5 506.5,-56.5"/>
<text text-anchor="middle" x="571" y="-63.5" font-family="Helvetica,sans-Serif" font-size="10.00">mini/algebra/eigen.hpp</text>
</a>
</g>
</g>
<!-- Node1&#45;&gt;Node8 -->
<g id="edge7" class="edge">
<title>Node1&#45;&gt;Node8</title>
<path fill="none" stroke="midnightblue" d="M348.23,-336.24C368.62,-297 429.94,-185.46 504,-112 516.45,-99.65 532.73,-88.63 546.13,-80.58"/>
<polygon fill="midnightblue" stroke="midnightblue" points="547.98,-83.55 554.86,-75.5 544.46,-77.5 547.98,-83.55"/>
</g>
<!-- Node12 -->
<g id="node12" class="node">
<title>Node12</title>
<g id="a_node12"><a xlink:href="function_8hpp.html" target="_top" xlink:title=" ">
<polygon fill="white" stroke="black" points="520.5,-112.5 520.5,-131.5 673.5,-131.5 673.5,-112.5 520.5,-112.5"/>
<text text-anchor="middle" x="597" y="-119.5" font-family="Helvetica,sans-Serif" font-size="10.00">mini/integrator/function.hpp</text>
</a>
</g>
</g>
<!-- Node1&#45;&gt;Node12 -->
<g id="edge12" class="edge">
<title>Node1&#45;&gt;Node12</title>
<path fill="none" stroke="midnightblue" d="M370.84,-336.41C388.81,-327.25 411.69,-314.37 430,-300 494.71,-249.23 557.59,-173.3 583.99,-139.85"/>
<polygon fill="midnightblue" stroke="midnightblue" points="587.04,-141.64 590.44,-131.6 581.52,-137.33 587.04,-141.64"/>
</g>
<!-- Node13 -->
<g id="node13" class="node">
<title>Node13</title>
<g id="a_node13"><a xlink:href="basis_2linear_8hpp.html" target="_top" xlink:title=" ">
<polygon fill="white" stroke="black" points="801,-280.5 801,-299.5 919,-299.5 919,-280.5 801,-280.5"/>
<text text-anchor="middle" x="860" y="-287.5" font-family="Helvetica,sans-Serif" font-size="10.00">mini/basis/linear.hpp</text>
</a>
</g>
</g>
<!-- Node1&#45;&gt;Node13 -->
<g id="edge18" class="edge">
<title>Node1&#45;&gt;Node13</title>
<path fill="none" stroke="midnightblue" d="M408.27,-343.09C495.6,-333.43 652.74,-315.88 787,-300 788.11,-299.87 789.23,-299.74 790.36,-299.6"/>
<polygon fill="midnightblue" stroke="midnightblue" points="791.13,-303.03 800.64,-298.37 790.3,-296.08 791.13,-303.03"/>
</g>
<!-- Node29 -->
<g id="node29" class="node">
<title>Node29</title>
<g id="a_node29"><a xlink:href="expansion_8hpp.html" target="_top" xlink:title=" ">
<polygon fill="white" stroke="black" points="256,-112.5 256,-131.5 426,-131.5 426,-112.5 256,-112.5"/>
<text text-anchor="middle" x="341" y="-119.5" font-family="Helvetica,sans-Serif" font-size="10.00">mini/polynomial/expansion.hpp</text>
</a>
</g>
</g>
<!-- Node1&#45;&gt;Node29 -->
<g id="edge75" class="edge">
<title>Node1&#45;&gt;Node29</title>
<path fill="none" stroke="midnightblue" d="M341,-336.27C341,-296.89 341,-186.49 341,-141.97"/>
<polygon fill="midnightblue" stroke="midnightblue" points="344.5,-141.93 341,-131.93 337.5,-141.93 344.5,-141.93"/>
</g>
<!-- Node8&#45;&gt;Node3 -->
<g id="edge9" class="edge">
<title>Node8&#45;&gt;Node3</title>
<path fill="none" stroke="midnightblue" d="M550.24,-56.44C528.68,-47.56 494.74,-33.56 470.21,-23.45"/>
<polygon fill="midnightblue" stroke="midnightblue" points="471.24,-20.09 460.66,-19.52 468.57,-26.56 471.24,-20.09"/>
</g>
<!-- Node9 -->
<g id="node9" class="node">
<title>Node9</title>
<g id="a_node9"><a xlink:title=" ">
<polygon fill="white" stroke="#bfbfbf" points="1476,-0.5 1476,-19.5 1540,-19.5 1540,-0.5 1476,-0.5"/>
<text text-anchor="middle" x="1508" y="-7.5" font-family="Helvetica,sans-Serif" font-size="10.00">algorithm</text>
</a>
</g>
</g>
<!-- Node8&#45;&gt;Node9 -->
<g id="edge8" class="edge">
<title>Node8&#45;&gt;Node9</title>
<path fill="none" stroke="midnightblue" d="M635.6,-61.08C662.07,-59.49 693,-57.64 721,-56 1005.47,-39.33 1347.82,-20.01 1465.71,-13.38"/>
<polygon fill="midnightblue" stroke="midnightblue" points="1465.98,-16.87 1475.76,-12.81 1465.58,-9.88 1465.98,-16.87"/>
</g>
<!-- Node10 -->
<g id="node10" class="node">
<title>Node10</title>
<g id="a_node10"><a xlink:title=" ">
<polygon fill="white" stroke="#bfbfbf" points="600.5,-0.5 600.5,-19.5 649.5,-19.5 649.5,-0.5 600.5,-0.5"/>
<text text-anchor="middle" x="625" y="-7.5" font-family="Helvetica,sans-Serif" font-size="10.00">cstdlib</text>
</a>
</g>
</g>
<!-- Node8&#45;&gt;Node10 -->
<g id="edge10" class="edge">
<title>Node8&#45;&gt;Node10</title>
<path fill="none" stroke="midnightblue" d="M579.92,-56.08C587.78,-48.22 599.43,-36.57 608.92,-27.08"/>
<polygon fill="midnightblue" stroke="midnightblue" points="611.65,-29.3 616.25,-19.75 606.7,-24.35 611.65,-29.3"/>
</g>
<!-- Node11 -->
<g id="node11" class="node">
<title>Node11</title>
<g id="a_node11"><a xlink:title=" ">
<polygon fill="white" stroke="#bfbfbf" points="508,-0.5 508,-19.5 582,-19.5 582,-0.5 508,-0.5"/>
<text text-anchor="middle" x="545" y="-7.5" font-family="Helvetica,sans-Serif" font-size="10.00">Eigen/Eigen</text>
</a>
</g>
</g>
<!-- Node8&#45;&gt;Node11 -->
<g id="edge11" class="edge">
<title>Node8&#45;&gt;Node11</title>
<path fill="none" stroke="midnightblue" d="M566.71,-56.08C563.15,-48.69 557.98,-37.95 553.58,-28.81"/>
<polygon fill="midnightblue" stroke="midnightblue" points="556.71,-27.24 549.21,-19.75 550.4,-30.28 556.71,-27.24"/>
</g>
<!-- Node12&#45;&gt;Node2 -->
<g id="edge13" class="edge">
<title>Node12&#45;&gt;Node2</title>
<path fill="none" stroke="midnightblue" d="M622.83,-112.44C650.25,-103.36 693.78,-88.94 724.43,-78.78"/>
<polygon fill="midnightblue" stroke="midnightblue" points="725.9,-81.98 734.29,-75.52 723.7,-75.34 725.9,-81.98"/>
</g>
<!-- Node12&#45;&gt;Node3 -->
<g id="edge14" class="edge">
<title>Node12&#45;&gt;Node3</title>
<path fill="none" stroke="midnightblue" d="M537.01,-112.46C511.72,-106.13 483.66,-95.12 464,-76 451.48,-63.82 445.44,-44.55 442.56,-30.15"/>
<polygon fill="midnightblue" stroke="midnightblue" points="445.95,-29.17 440.86,-19.87 439.04,-30.31 445.95,-29.17"/>
</g>
<!-- Node12&#45;&gt;Node6 -->
<g id="edge15" class="edge">
<title>Node12&#45;&gt;Node6</title>
<path fill="none" stroke="midnightblue" d="M609.13,-112.42C629.43,-98.46 672.03,-70.9 712,-56 771.57,-33.8 844.39,-21.72 890.25,-15.82"/>
<polygon fill="midnightblue" stroke="midnightblue" points="890.96,-19.26 900.45,-14.55 890.1,-12.31 890.96,-19.26"/>
</g>
<!-- Node12&#45;&gt;Node7 -->
<g id="edge16" class="edge">
<title>Node12&#45;&gt;Node7</title>
<path fill="none" stroke="midnightblue" d="M539.8,-112.44C463.31,-101 330.23,-81.09 268.8,-71.91"/>
<polygon fill="midnightblue" stroke="midnightblue" points="269.29,-68.44 258.88,-70.42 268.25,-75.36 269.29,-68.44"/>
</g>
<!-- Node12&#45;&gt;Node8 -->
<g id="edge17" class="edge">
<title>Node12&#45;&gt;Node8</title>
<path fill="none" stroke="midnightblue" d="M592.71,-112.08C589.15,-104.69 583.98,-93.95 579.58,-84.81"/>
<polygon fill="midnightblue" stroke="midnightblue" points="582.71,-83.24 575.21,-75.75 576.4,-86.28 582.71,-83.24"/>
</g>
<!-- Node13&#45;&gt;Node2 -->
<g id="edge19" class="edge">
<title>Node13&#45;&gt;Node2</title>
<path fill="none" stroke="midnightblue" d="M859.6,-280.37C859.18,-271.32 858.52,-256.66 858,-244 857.7,-236.67 857.02,-118.14 853,-112 840.99,-93.63 819.23,-82.55 799.77,-75.97"/>
<polygon fill="midnightblue" stroke="midnightblue" points="800.75,-72.61 790.16,-73.01 798.69,-79.3 800.75,-72.61"/>
</g>
<!-- Node13&#45;&gt;Node3 -->
<g id="edge21" class="edge">
<title>Node13&#45;&gt;Node3</title>
<path fill="none" stroke="midnightblue" d="M800.79,-280.75C661.99,-260.4 320.74,-204.18 233,-132 205.08,-109.03 180.95,-83.86 204,-56 216.82,-40.51 344.24,-22.82 406.34,-15.04"/>
<polygon fill="midnightblue" stroke="midnightblue" points="406.93,-18.49 416.42,-13.79 406.07,-11.54 406.93,-18.49"/>
</g>
<!-- Node13&#45;&gt;Node5 -->
<g id="edge22" class="edge">
<title>Node13&#45;&gt;Node5</title>
<path fill="none" stroke="midnightblue" d="M800.87,-284.87C727.41,-279.04 598.5,-266.51 490,-244 303.2,-205.25 192.5,-239.98 95,-76 90.46,-68.36 89.34,-62.86 95,-56 118.94,-27 227.2,-16.48 287.37,-12.83"/>
<polygon fill="midnightblue" stroke="midnightblue" points="287.87,-16.3 297.65,-12.24 287.47,-9.31 287.87,-16.3"/>
</g>
<!-- Node13&#45;&gt;Node6 -->
<g id="edge23" class="edge">
<title>Node13&#45;&gt;Node6</title>
<path fill="none" stroke="midnightblue" d="M919.27,-288.12C1121.8,-284.32 1774,-265.41 1774,-179 1774,-179 1774,-179 1774,-121 1774,-40.15 1153.66,-17.01 979.8,-12.11"/>
<polygon fill="midnightblue" stroke="midnightblue" points="979.81,-8.61 969.72,-11.83 979.62,-15.61 979.81,-8.61"/>
</g>
<!-- Node13&#45;&gt;Node8 -->
<g id="edge24" class="edge">
<title>Node13&#45;&gt;Node8</title>
<path fill="none" stroke="midnightblue" d="M800.71,-281.91C719.13,-268.61 575.08,-231.59 511,-132 498.27,-112.22 522.24,-92.85 543.55,-80.47"/>
<polygon fill="midnightblue" stroke="midnightblue" points="545.33,-83.49 552.41,-75.62 541.96,-77.36 545.33,-83.49"/>
</g>
<!-- Node13&#45;&gt;Node12 -->
<g id="edge25" class="edge">
<title>Node13&#45;&gt;Node12</title>
<path fill="none" stroke="midnightblue" d="M846.23,-280.31C803.36,-253.25 671.98,-170.32 619.24,-137.04"/>
<polygon fill="midnightblue" stroke="midnightblue" points="620.96,-133.98 610.63,-131.61 617.22,-139.9 620.96,-133.98"/>
</g>
<!-- Node14 -->
<g id="node14" class="node">
<title>Node14</title>
<g id="a_node14"><a xlink:title=" ">
<polygon fill="white" stroke="#bfbfbf" points="884,-56.5 884,-75.5 936,-75.5 936,-56.5 884,-56.5"/>
<text text-anchor="middle" x="910" y="-63.5" font-family="Helvetica,sans-Serif" font-size="10.00">cassert</text>
</a>
</g>
</g>
<!-- Node13&#45;&gt;Node14 -->
<g id="edge20" class="edge">
<title>Node13&#45;&gt;Node14</title>
<path fill="none" stroke="midnightblue" d="M919.17,-288.71C1073.99,-286.76 1485.99,-273.46 1586,-188 1605.77,-171.1 1599.18,-157.73 1603,-132 1604.31,-123.21 1609.1,-118.46 1603,-112 1555.64,-61.81 1051.72,-82.23 983,-76 971.12,-74.92 958.19,-73.44 946.56,-71.98"/>
<polygon fill="midnightblue" stroke="midnightblue" points="946.68,-68.46 936.31,-70.66 945.78,-75.41 946.68,-68.46"/>
</g>
<!-- Node15 -->
<g id="node15" class="node">
<title>Node15</title>
<g id="a_node15"><a xlink:href="integrator_2face_8hpp.html" target="_top" xlink:title=" ">
<polygon fill="white" stroke="black" points="1016,-224.5 1016,-243.5 1150,-243.5 1150,-224.5 1016,-224.5"/>
<text text-anchor="middle" x="1083" y="-231.5" font-family="Helvetica,sans-Serif" font-size="10.00">mini/integrator/face.hpp</text>
</a>
</g>
</g>
<!-- Node13&#45;&gt;Node15 -->
<g id="edge26" class="edge">
<title>Node13&#45;&gt;Node15</title>
<path fill="none" stroke="midnightblue" d="M895.34,-280.44C933.91,-271.1 995.78,-256.12 1037.85,-245.93"/>
<polygon fill="midnightblue" stroke="midnightblue" points="1038.93,-249.27 1047.83,-243.52 1037.29,-242.47 1038.93,-249.27"/>
</g>
<!-- Node26 -->
<g id="node26" class="node">
<title>Node26</title>
<g id="a_node26"><a xlink:href="integrator_2cell_8hpp.html" target="_top" xlink:title=" ">
<polygon fill="white" stroke="black" points="866.5,-224.5 866.5,-243.5 997.5,-243.5 997.5,-224.5 866.5,-224.5"/>
<text text-anchor="middle" x="932" y="-231.5" font-family="Helvetica,sans-Serif" font-size="10.00">mini/integrator/cell.hpp</text>
</a>
</g>
</g>
<!-- Node13&#45;&gt;Node26 -->
<g id="edge56" class="edge">
<title>Node13&#45;&gt;Node26</title>
<path fill="none" stroke="midnightblue" d="M871.57,-280.32C882.42,-272.18 898.88,-259.84 911.88,-250.09"/>
<polygon fill="midnightblue" stroke="midnightblue" points="914.32,-252.63 920.22,-243.83 910.12,-247.03 914.32,-252.63"/>
</g>
<!-- Node28 -->
<g id="node28" class="node">
<title>Node28</title>
<g id="a_node28"><a xlink:href="taylor_8hpp.html" target="_top" xlink:title=" ">
<polygon fill="white" stroke="black" points="691.5,-112.5 691.5,-131.5 810.5,-131.5 810.5,-112.5 691.5,-112.5"/>
<text text-anchor="middle" x="751" y="-119.5" font-family="Helvetica,sans-Serif" font-size="10.00">mini/basis/taylor.hpp</text>
</a>
</g>
</g>
<!-- Node13&#45;&gt;Node28 -->
<g id="edge68" class="edge">
<title>Node13&#45;&gt;Node28</title>
<path fill="none" stroke="midnightblue" d="M852.47,-280.3C844.93,-271.43 833.15,-257.13 824,-244 799.32,-208.6 774.1,-164.73 760.73,-140.74"/>
<polygon fill="midnightblue" stroke="midnightblue" points="763.66,-138.81 755.76,-131.75 757.53,-142.2 763.66,-138.81"/>
</g>
<!-- Node15&#45;&gt;Node2 -->
<g id="edge27" class="edge">
<title>Node15&#45;&gt;Node2</title>
<path fill="none" stroke="midnightblue" d="M1073.33,-224.38C1048.38,-202.56 979.07,-144.55 912,-112 875.96,-94.51 831.77,-82.36 800.34,-75.14"/>
<polygon fill="midnightblue" stroke="midnightblue" points="800.73,-71.64 790.21,-72.87 799.2,-78.47 800.73,-71.64"/>
</g>
<!-- Node15&#45;&gt;Node7 -->
<g id="edge29" class="edge">
<title>Node15&#45;&gt;Node7</title>
<path fill="none" stroke="midnightblue" d="M1015.81,-225.01C817.55,-201.44 248.75,-133.67 247,-132 234.72,-120.29 232.98,-100.35 233.68,-85.64"/>
<polygon fill="midnightblue" stroke="midnightblue" points="237.17,-85.9 234.56,-75.63 230.2,-85.28 237.17,-85.9"/>
</g>
<!-- Node15&#45;&gt;Node12 -->
<g id="edge55" class="edge">
<title>Node15&#45;&gt;Node12</title>
<path fill="none" stroke="midnightblue" d="M1045.27,-224.46C957.71,-204.64 740.85,-155.56 644.48,-133.75"/>
<polygon fill="midnightblue" stroke="midnightblue" points="645.23,-130.33 634.71,-131.53 643.69,-137.16 645.23,-130.33"/>
</g>
<!-- Node16 -->
<g id="node16" class="node">
<title>Node16</title>
<g id="a_node16"><a xlink:title=" ">
<polygon fill="white" stroke="#bfbfbf" points="981,-112.5 981,-131.5 1039,-131.5 1039,-112.5 981,-112.5"/>
<text text-anchor="middle" x="1010" y="-119.5" font-family="Helvetica,sans-Serif" font-size="10.00">memory</text>
</a>
</g>
</g>
<!-- Node15&#45;&gt;Node16 -->
<g id="edge28" class="edge">
<title>Node15&#45;&gt;Node16</title>
<path fill="none" stroke="midnightblue" d="M1077.84,-224.49C1070.21,-211.98 1055.37,-187.95 1042,-168 1035.65,-158.53 1028.29,-148.14 1022.23,-139.73"/>
<polygon fill="midnightblue" stroke="midnightblue" points="1024.98,-137.57 1016.28,-131.53 1019.32,-141.68 1024.98,-137.57"/>
</g>
<!-- Node17 -->
<g id="node17" class="node">
<title>Node17</title>
<g id="a_node17"><a xlink:title=" ">
<polygon fill="white" stroke="#bfbfbf" points="1560.5,-0.5 1560.5,-19.5 1607.5,-19.5 1607.5,-0.5 1560.5,-0.5"/>
<text text-anchor="middle" x="1584" y="-7.5" font-family="Helvetica,sans-Serif" font-size="10.00">vector</text>
</a>
</g>
</g>
<!-- Node15&#45;&gt;Node17 -->
<g id="edge30" class="edge">
<title>Node15&#45;&gt;Node17</title>
<path fill="none" stroke="midnightblue" d="M1150.24,-232.96C1269.19,-231.92 1511.19,-225.12 1586,-188 1641.65,-160.38 1659.21,-111.85 1632,-56 1626.12,-43.93 1615.52,-33.45 1605.77,-25.65"/>
<polygon fill="midnightblue" stroke="midnightblue" points="1607.67,-22.7 1597.56,-19.52 1603.48,-28.31 1607.67,-22.7"/>
</g>
<!-- Node18 -->
<g id="node18" class="node">
<title>Node18</title>
<g id="a_node18"><a xlink:href="coordinate_2face_8hpp.html" target="_top" xlink:title=" ">
<polygon fill="white" stroke="black" points="1439,-168.5 1439,-187.5 1577,-187.5 1577,-168.5 1439,-168.5"/>
<text text-anchor="middle" x="1508" y="-175.5" font-family="Helvetica,sans-Serif" font-size="10.00">mini/coordinate/face.hpp</text>
</a>
</g>
</g>
<!-- Node15&#45;&gt;Node18 -->
<g id="edge31" class="edge">
<title>Node15&#45;&gt;Node18</title>
<path fill="none" stroke="midnightblue" d="M1150.34,-224.44C1226.66,-214.75 1350.82,-198.97 1430.94,-188.79"/>
<polygon fill="midnightblue" stroke="midnightblue" points="1431.49,-192.25 1440.97,-187.52 1430.61,-185.3 1431.49,-192.25"/>
</g>
<!-- Node25 -->
<g id="node25" class="node">
<title>Node25</title>
<g id="a_node25"><a xlink:href="integrator_2element_8hpp.html" target="_top" xlink:title=" ">
<polygon fill="white" stroke="black" points="1246,-168.5 1246,-187.5 1400,-187.5 1400,-168.5 1246,-168.5"/>
<text text-anchor="middle" x="1323" y="-175.5" font-family="Helvetica,sans-Serif" font-size="10.00">mini/integrator/element.hpp</text>
</a>
</g>
</g>
<!-- Node15&#45;&gt;Node25 -->
<g id="edge52" class="edge">
<title>Node15&#45;&gt;Node25</title>
<path fill="none" stroke="midnightblue" d="M1121.03,-224.44C1162.81,-215.04 1229.98,-199.93 1275.27,-189.74"/>
<polygon fill="midnightblue" stroke="midnightblue" points="1276.16,-193.13 1285.15,-187.52 1274.62,-186.3 1276.16,-193.13"/>
</g>
<!-- Node18&#45;&gt;Node2 -->
<g id="edge32" class="edge">
<title>Node18&#45;&gt;Node2</title>
<path fill="none" stroke="midnightblue" d="M1438.71,-170.31C1368.6,-163 1257.25,-149.9 1162,-132 1125.56,-125.15 1117.41,-119.03 1081,-112 980.71,-92.64 861.28,-78.11 800.25,-71.3"/>
<polygon fill="midnightblue" stroke="midnightblue" points="800.59,-67.81 790.26,-70.19 799.82,-74.77 800.59,-67.81"/>
</g>
<!-- Node18&#45;&gt;Node6 -->
<g id="edge36" class="edge">
<title>Node18&#45;&gt;Node6</title>
<path fill="none" stroke="midnightblue" d="M1509.78,-168.37C1513.85,-145.99 1521.11,-85.8 1489,-56 1451.98,-21.64 1104.97,-13.38 979.77,-11.52"/>
<polygon fill="midnightblue" stroke="midnightblue" points="979.8,-8.02 969.75,-11.37 979.7,-15.02 979.8,-8.02"/>
</g>
<!-- Node18&#45;&gt;Node9 -->
<g id="edge33" class="edge">
<title>Node18&#45;&gt;Node9</title>
<path fill="none" stroke="midnightblue" d="M1549.05,-168.38C1568.96,-161.92 1591.09,-150.81 1603,-132 1629.16,-90.67 1569.27,-46.55 1533.06,-24.78"/>
<polygon fill="midnightblue" stroke="midnightblue" points="1534.41,-21.51 1524,-19.5 1530.88,-27.56 1534.41,-21.51"/>
</g>
<!-- Node18&#45;&gt;Node16 -->
<g id="edge35" class="edge">
<title>Node18&#45;&gt;Node16</title>
<path fill="none" stroke="midnightblue" d="M1438.76,-169.49C1332.78,-158 1133.77,-136.42 1049.41,-127.27"/>
<polygon fill="midnightblue" stroke="midnightblue" points="1049.55,-123.77 1039.23,-126.17 1048.79,-130.73 1049.55,-123.77"/>
</g>
<!-- Node18&#45;&gt;Node17 -->
<g id="edge37" class="edge">
<title>Node18&#45;&gt;Node17</title>
<path fill="none" stroke="midnightblue" d="M1563.14,-168.42C1584.6,-162.09 1607.09,-151.1 1620,-132 1642.19,-99.17 1615.08,-52.36 1597.24,-27.69"/>
<polygon fill="midnightblue" stroke="midnightblue" points="1600.01,-25.55 1591.19,-19.67 1594.42,-29.76 1600.01,-25.55"/>
</g>
<!-- Node19 -->
<g id="node19" class="node">
<title>Node19</title>
<g id="a_node19"><a xlink:title=" ">
<polygon fill="white" stroke="#bfbfbf" points="1552,-112.5 1552,-131.5 1594,-131.5 1594,-112.5 1552,-112.5"/>
<text text-anchor="middle" x="1573" y="-119.5" font-family="Helvetica,sans-Serif" font-size="10.00">array</text>
</a>
</g>
</g>
<!-- Node18&#45;&gt;Node19 -->
<g id="edge34" class="edge">
<title>Node18&#45;&gt;Node19</title>
<path fill="none" stroke="midnightblue" d="M1518.44,-168.32C1528.15,-160.26 1542.82,-148.08 1554.5,-138.37"/>
<polygon fill="midnightblue" stroke="midnightblue" points="1556.91,-140.92 1562.37,-131.83 1552.44,-135.53 1556.91,-140.92"/>
</g>
<!-- Node20 -->
<g id="node20" class="node">
<title>Node20</title>
<g id="a_node20"><a xlink:href="coordinate_2element_8hpp.html" target="_top" xlink:title=" ">
<polygon fill="white" stroke="black" points="1171,-112.5 1171,-131.5 1329,-131.5 1329,-112.5 1171,-112.5"/>
<text text-anchor="middle" x="1250" y="-119.5" font-family="Helvetica,sans-Serif" font-size="10.00">mini/coordinate/element.hpp</text>
</a>
</g>
</g>
<!-- Node18&#45;&gt;Node20 -->
<g id="edge38" class="edge">
<title>Node18&#45;&gt;Node20</title>
<path fill="none" stroke="midnightblue" d="M1467.12,-168.44C1422.02,-159 1349.39,-143.8 1300.7,-133.61"/>
<polygon fill="midnightblue" stroke="midnightblue" points="1301.19,-130.14 1290.69,-131.52 1299.76,-136.99 1301.19,-130.14"/>
</g>
<!-- Node20&#45;&gt;Node2 -->
<g id="edge39" class="edge">
<title>Node20&#45;&gt;Node2</title>
<path fill="none" stroke="midnightblue" d="M1172.63,-112.47C1067.2,-100.85 882.2,-80.47 800.61,-71.48"/>
<polygon fill="midnightblue" stroke="midnightblue" points="800.59,-67.95 790.26,-70.34 799.82,-74.91 800.59,-67.95"/>
</g>
<!-- Node20&#45;&gt;Node3 -->
<g id="edge41" class="edge">
<title>Node20&#45;&gt;Node3</title>
<path fill="none" stroke="midnightblue" d="M1170.99,-114.33C1116.98,-108.17 1044.35,-96.72 983,-76 964.92,-69.89 963.33,-61.32 945,-56 754.02,-0.56 696.53,-43.01 499,-20 490.82,-19.05 482.04,-17.82 473.81,-16.58"/>
<polygon fill="midnightblue" stroke="midnightblue" points="474.19,-13.1 463.78,-15.02 473.12,-20.01 474.19,-13.1"/>
</g>
<!-- Node20&#45;&gt;Node5 -->
<g id="edge44" class="edge">
<title>Node20&#45;&gt;Node5</title>
<path fill="none" stroke="midnightblue" d="M1170.86,-114.7C1094.63,-107.88 976.29,-95.31 875,-76 840.69,-69.46 833.4,-62.06 799,-56 626.7,-25.63 581.04,-37.9 407,-20 394.45,-18.71 380.79,-17.19 368.41,-15.78"/>
<polygon fill="midnightblue" stroke="midnightblue" points="368.71,-12.29 358.37,-14.62 367.9,-19.24 368.71,-12.29"/>
</g>
<!-- Node20&#45;&gt;Node8 -->
<g id="edge46" class="edge">
<title>Node20&#45;&gt;Node8</title>
<path fill="none" stroke="midnightblue" d="M1170.78,-114.7C1038.63,-104.19 774.97,-83.22 645.81,-72.95"/>
<polygon fill="midnightblue" stroke="midnightblue" points="645.86,-69.44 635.62,-72.14 645.31,-76.42 645.86,-69.44"/>
</g>
<!-- Node20&#45;&gt;Node14 -->
<g id="edge40" class="edge">
<title>Node20&#45;&gt;Node14</title>
<path fill="none" stroke="midnightblue" d="M1183.93,-112.49C1122.99,-104.31 1030.11,-91 950,-76 948.74,-75.76 947.46,-75.52 946.17,-75.26"/>
<polygon fill="midnightblue" stroke="midnightblue" points="946.7,-71.8 936.19,-73.18 945.27,-78.65 946.7,-71.8"/>
</g>
<!-- Node20&#45;&gt;Node17 -->
<g id="edge45" class="edge">
<title>Node20&#45;&gt;Node17</title>
<path fill="none" stroke="midnightblue" d="M1258.73,-112.18C1273.45,-97.87 1304.77,-69.82 1337,-56 1424.84,-18.35 1455.53,-39.92 1549,-20 1549.46,-19.9 1549.92,-19.8 1550.39,-19.7"/>
<polygon fill="midnightblue" stroke="midnightblue" points="1551.4,-23.06 1560.34,-17.37 1549.81,-16.24 1551.4,-23.06"/>
</g>
<!-- Node21 -->
<g id="node21" class="node">
<title>Node21</title>
<g id="a_node21"><a xlink:title=" ">
<polygon fill="white" stroke="#bfbfbf" points="1132,-56.5 1132,-75.5 1188,-75.5 1188,-56.5 1132,-56.5"/>
<text text-anchor="middle" x="1160" y="-63.5" font-family="Helvetica,sans-Serif" font-size="10.00">numeric</text>
</a>
</g>
</g>
<!-- Node20&#45;&gt;Node21 -->
<g id="edge42" class="edge">
<title>Node20&#45;&gt;Node21</title>
<path fill="none" stroke="midnightblue" d="M1235.54,-112.32C1221.5,-103.9 1199.95,-90.97 1183.46,-81.07"/>
<polygon fill="midnightblue" stroke="midnightblue" points="1184.8,-77.8 1174.42,-75.65 1181.2,-83.8 1184.8,-77.8"/>
</g>
<!-- Node22 -->
<g id="node22" class="node">
<title>Node22</title>
<g id="a_node22"><a xlink:title=" ">
<polygon fill="white" stroke="#bfbfbf" points="1206.5,-56.5 1206.5,-75.5 1289.5,-75.5 1289.5,-56.5 1206.5,-56.5"/>
<text text-anchor="middle" x="1248" y="-63.5" font-family="Helvetica,sans-Serif" font-size="10.00">initializer_list</text>
</a>
</g>
</g>
<!-- Node20&#45;&gt;Node22 -->
<g id="edge43" class="edge">
<title>Node20&#45;&gt;Node22</title>
<path fill="none" stroke="midnightblue" d="M1249.67,-112.08C1249.41,-105.01 1249.03,-94.86 1248.7,-85.99"/>
<polygon fill="midnightblue" stroke="midnightblue" points="1252.19,-85.61 1248.32,-75.75 1245.2,-85.87 1252.19,-85.61"/>
</g>
<!-- Node23 -->
<g id="node23" class="node">
<title>Node23</title>
<g id="a_node23"><a xlink:href="root_8hpp.html" target="_top" xlink:title=" ">
<polygon fill="white" stroke="black" points="992,-56.5 992,-75.5 1114,-75.5 1114,-56.5 992,-56.5"/>
<text text-anchor="middle" x="1053" y="-63.5" font-family="Helvetica,sans-Serif" font-size="10.00">mini/algebra/root.hpp</text>
</a>
</g>
</g>
<!-- Node20&#45;&gt;Node23 -->
<g id="edge47" class="edge">
<title>Node20&#45;&gt;Node23</title>
<path fill="none" stroke="midnightblue" d="M1218.78,-112.44C1185.07,-103.2 1131.2,-88.44 1094.07,-78.26"/>
<polygon fill="midnightblue" stroke="midnightblue" points="1094.64,-74.78 1084.07,-75.52 1092.79,-81.54 1094.64,-74.78"/>
</g>
<!-- Node24 -->
<g id="node24" class="node">
<title>Node24</title>
<g id="a_node24"><a xlink:href="index_8hpp.html" target="_top" xlink:title=" ">
<polygon fill="white" stroke="black" points="1346,-56.5 1346,-75.5 1480,-75.5 1480,-56.5 1346,-56.5"/>
<text text-anchor="middle" x="1413" y="-63.5" font-family="Helvetica,sans-Serif" font-size="10.00">mini/constant/index.hpp</text>
</a>
</g>
</g>
<!-- Node20&#45;&gt;Node24 -->
<g id="edge51" class="edge">
<title>Node20&#45;&gt;Node24</title>
<path fill="none" stroke="midnightblue" d="M1275.83,-112.44C1303.25,-103.36 1346.78,-88.94 1377.43,-78.78"/>
<polygon fill="midnightblue" stroke="midnightblue" points="1378.9,-81.98 1387.29,-75.52 1376.7,-75.34 1378.9,-81.98"/>
</g>
<!-- Node23&#45;&gt;Node5 -->
<g id="edge49" class="edge">
<title>Node23&#45;&gt;Node5</title>
<path fill="none" stroke="midnightblue" d="M991.9,-59.73C976.59,-58.46 960.2,-57.14 945,-56 706.03,-38.05 645.67,-41.57 407,-20 394.43,-18.86 380.77,-17.39 368.39,-15.97"/>
<polygon fill="midnightblue" stroke="midnightblue" points="368.69,-12.48 358.35,-14.79 367.88,-19.43 368.69,-12.48"/>
</g>
<!-- Node23&#45;&gt;Node6 -->
<g id="edge50" class="edge">
<title>Node23&#45;&gt;Node6</title>
<path fill="none" stroke="midnightblue" d="M1034.3,-56.44C1015.06,-47.64 984.85,-33.81 962.8,-23.72"/>
<polygon fill="midnightblue" stroke="midnightblue" points="964.16,-20.5 953.61,-19.52 961.25,-26.86 964.16,-20.5"/>
</g>
<!-- Node23&#45;&gt;Node17 -->
<g id="edge48" class="edge">
<title>Node23&#45;&gt;Node17</title>
<path fill="none" stroke="midnightblue" d="M1114.06,-56.99C1117.08,-56.64 1120.08,-56.31 1123,-56 1311.94,-35.88 1361.67,-51.77 1549,-20 1549.46,-19.92 1549.93,-19.84 1550.4,-19.75"/>
<polygon fill="midnightblue" stroke="midnightblue" points="1551.33,-23.13 1560.39,-17.64 1549.89,-16.29 1551.33,-23.13"/>
</g>
<!-- Node25&#45;&gt;Node20 -->
<g id="edge53" class="edge">
<title>Node25&#45;&gt;Node20</title>
<path fill="none" stroke="midnightblue" d="M1311.27,-168.32C1300.16,-160.11 1283.26,-147.6 1270.02,-137.81"/>
<polygon fill="midnightblue" stroke="midnightblue" points="1272.06,-134.97 1261.94,-131.83 1267.9,-140.59 1272.06,-134.97"/>
</g>
<!-- Node25&#45;&gt;Node24 -->
<g id="edge54" class="edge">
<title>Node25&#45;&gt;Node24</title>
<path fill="none" stroke="midnightblue" d="M1330.06,-168.37C1345.05,-150.05 1380.23,-107.05 1399.61,-83.36"/>
<polygon fill="midnightblue" stroke="midnightblue" points="1402.35,-85.55 1405.97,-75.59 1396.93,-81.11 1402.35,-85.55"/>
</g>
<!-- Node26&#45;&gt;Node2 -->
<g id="edge57" class="edge">
<title>Node26&#45;&gt;Node2</title>
<path fill="none" stroke="midnightblue" d="M931.59,-224.34C930.07,-202.43 923.08,-144.22 891,-112 878.01,-98.95 833.67,-85.41 800.15,-76.63"/>
<polygon fill="midnightblue" stroke="midnightblue" points="800.69,-73.16 790.14,-74.07 798.96,-79.94 800.69,-73.16"/>
</g>
<!-- Node26&#45;&gt;Node12 -->
<g id="edge67" class="edge">
<title>Node26&#45;&gt;Node12</title>
<path fill="none" stroke="midnightblue" d="M905.99,-224.46C846.63,-204.97 701.03,-157.16 633.06,-134.84"/>
<polygon fill="midnightblue" stroke="midnightblue" points="633.82,-131.4 623.22,-131.61 631.63,-138.06 633.82,-131.4"/>
</g>
<!-- Node26&#45;&gt;Node16 -->
<g id="edge58" class="edge">
<title>Node26&#45;&gt;Node16</title>
<path fill="none" stroke="midnightblue" d="M938.12,-224.37C950.99,-206.22 981.07,-163.8 997.95,-139.99"/>
<polygon fill="midnightblue" stroke="midnightblue" points="1000.98,-141.77 1003.91,-131.59 995.27,-137.72 1000.98,-141.77"/>
</g>
<!-- Node26&#45;&gt;Node25 -->
<g id="edge66" class="edge">
<title>Node26&#45;&gt;Node25</title>
<path fill="none" stroke="midnightblue" d="M993.96,-224.44C1063.88,-214.79 1177.47,-199.1 1251.2,-188.92"/>
<polygon fill="midnightblue" stroke="midnightblue" points="1251.91,-192.35 1261.33,-187.52 1250.95,-185.42 1251.91,-192.35"/>
</g>
<!-- Node27 -->
<g id="node27" class="node">
<title>Node27</title>
<g id="a_node27"><a xlink:href="coordinate_2cell_8hpp.html" target="_top" xlink:title=" ">
<polygon fill="white" stroke="black" points="1094,-168.5 1094,-187.5 1228,-187.5 1228,-168.5 1094,-168.5"/>
<text text-anchor="middle" x="1161" y="-175.5" font-family="Helvetica,sans-Serif" font-size="10.00">mini/coordinate/cell.hpp</text>
</a>
</g>
</g>
<!-- Node26&#45;&gt;Node27 -->
<g id="edge59" class="edge">
<title>Node26&#45;&gt;Node27</title>
<path fill="none" stroke="midnightblue" d="M968.29,-224.44C1007.98,-215.08 1071.71,-200.06 1114.91,-189.87"/>
<polygon fill="midnightblue" stroke="midnightblue" points="1115.95,-193.22 1124.88,-187.52 1114.35,-186.41 1115.95,-193.22"/>
</g>
<!-- Node27&#45;&gt;Node2 -->
<g id="edge60" class="edge">
<title>Node27&#45;&gt;Node2</title>
<path fill="none" stroke="midnightblue" d="M1147.59,-168.43C1122.38,-152.47 1068.63,-119.16 1048,-112 944.45,-76.04 911.96,-94.99 804,-76 802.75,-75.78 801.48,-75.55 800.19,-75.32"/>
<polygon fill="midnightblue" stroke="midnightblue" points="800.73,-71.86 790.25,-73.42 799.42,-78.73 800.73,-71.86"/>
</g>
<!-- Node27&#45;&gt;Node6 -->
<g id="edge63" class="edge">
<title>Node27&#45;&gt;Node6</title>
<path fill="none" stroke="midnightblue" d="M1153.12,-168.17C1139.8,-153.86 1111.29,-125.81 1081,-112 996.43,-73.45 934.8,-147.15 875,-76 859.54,-57.61 885.39,-37.42 907.82,-24.5"/>
<polygon fill="midnightblue" stroke="midnightblue" points="909.69,-27.47 916.79,-19.6 906.33,-21.33 909.69,-27.47"/>
</g>
<!-- Node27&#45;&gt;Node9 -->
<g id="edge61" class="edge">
<title>Node27&#45;&gt;Node9</title>
<path fill="none" stroke="midnightblue" d="M1208.11,-168.46C1289.28,-152.8 1450.52,-117.31 1489,-76 1500.64,-63.51 1505.18,-44.28 1506.94,-29.97"/>
<polygon fill="midnightblue" stroke="midnightblue" points="1510.45,-30.04 1507.84,-19.78 1503.48,-29.43 1510.45,-30.04"/>
</g>
<!-- Node27&#45;&gt;Node16 -->
<g id="edge62" class="edge">
<title>Node27&#45;&gt;Node16</title>
<path fill="none" stroke="midnightblue" d="M1137.07,-168.44C1111.78,-159.4 1071.7,-145.06 1043.32,-134.92"/>
<polygon fill="midnightblue" stroke="midnightblue" points="1044.41,-131.59 1033.81,-131.52 1042.05,-138.18 1044.41,-131.59"/>
</g>
<!-- Node27&#45;&gt;Node17 -->
<g id="edge64" class="edge">
<title>Node27&#45;&gt;Node17</title>
<path fill="none" stroke="midnightblue" d="M1222.07,-168.47C1284.56,-159.31 1377.14,-144.39 1411,-132 1457.75,-114.89 1467.36,-104.74 1508,-76 1529.77,-60.61 1552.77,-40.29 1567.69,-26.5"/>
<polygon fill="midnightblue" stroke="midnightblue" points="1570.17,-28.97 1575.09,-19.58 1565.39,-23.85 1570.17,-28.97"/>
</g>
<!-- Node27&#45;&gt;Node20 -->
<g id="edge65" class="edge">
<title>Node27&#45;&gt;Node20</title>
<path fill="none" stroke="midnightblue" d="M1175.3,-168.32C1189.18,-159.9 1210.49,-146.97 1226.8,-137.07"/>
<polygon fill="midnightblue" stroke="midnightblue" points="1229,-139.83 1235.74,-131.65 1225.37,-133.85 1229,-139.83"/>
</g>
<!-- Node28&#45;&gt;Node2 -->
<g id="edge69" class="edge">
<title>Node28&#45;&gt;Node2</title>
<path fill="none" stroke="midnightblue" d="M752.49,-112.08C753.68,-104.93 755.39,-94.64 756.88,-85.69"/>
<polygon fill="midnightblue" stroke="midnightblue" points="760.35,-86.19 758.54,-75.75 753.45,-85.04 760.35,-86.19"/>
</g>
<!-- Node28&#45;&gt;Node3 -->
<g id="edge71" class="edge">
<title>Node28&#45;&gt;Node3</title>
<path fill="none" stroke="midnightblue" d="M691.41,-112.56C621.72,-102.37 513.7,-85.41 497,-76 476.86,-64.65 460.32,-43.43 450.34,-28.32"/>
<polygon fill="midnightblue" stroke="midnightblue" points="453.29,-26.44 445,-19.85 447.37,-30.17 453.29,-26.44"/>
</g>
<!-- Node28&#45;&gt;Node5 -->
<g id="edge72" class="edge">
<title>Node28&#45;&gt;Node5</title>
<path fill="none" stroke="midnightblue" d="M692.25,-112.46C616.18,-101.26 490.84,-82.31 470,-76 426.83,-62.93 379.79,-39.39 352.15,-24.51"/>
<polygon fill="midnightblue" stroke="midnightblue" points="353.67,-21.36 343.22,-19.64 350.32,-27.5 353.67,-21.36"/>
</g>
<!-- Node28&#45;&gt;Node6 -->
<g id="edge73" class="edge">
<title>Node28&#45;&gt;Node6</title>
<path fill="none" stroke="midnightblue" d="M741.36,-112.25C727.92,-99.01 706.75,-73.56 721,-56 741.89,-30.26 833.86,-18.7 890.22,-13.95"/>
<polygon fill="midnightblue" stroke="midnightblue" points="890.61,-17.43 900.3,-13.14 890.05,-10.45 890.61,-17.43"/>
</g>
<!-- Node28&#45;&gt;Node8 -->
<g id="edge74" class="edge">
<title>Node28&#45;&gt;Node8</title>
<path fill="none" stroke="midnightblue" d="M722.48,-112.44C691.93,-103.28 643.29,-88.69 609.4,-78.52"/>
<polygon fill="midnightblue" stroke="midnightblue" points="609.97,-75.04 599.39,-75.52 607.96,-81.74 609.97,-75.04"/>
</g>
<!-- Node28&#45;&gt;Node14 -->
<g id="edge70" class="edge">
<title>Node28&#45;&gt;Node14</title>
<path fill="none" stroke="midnightblue" d="M776.19,-112.44C802.94,-103.36 845.4,-88.94 875.31,-78.78"/>
<polygon fill="midnightblue" stroke="midnightblue" points="876.58,-82.05 884.92,-75.52 874.33,-75.42 876.58,-82.05"/>
</g>
<!-- Node29&#45;&gt;Node2 -->
<g id="edge76" class="edge">
<title>Node29&#45;&gt;Node2</title>
<path fill="none" stroke="midnightblue" d="M407.39,-112.44C495.26,-101.12 647.45,-81.5 719.7,-72.19"/>
<polygon fill="midnightblue" stroke="midnightblue" points="720.29,-75.65 729.76,-70.9 719.4,-68.7 720.29,-75.65"/>
</g>
<!-- Node29&#45;&gt;Node3 -->
<g id="edge77" class="edge">
<title>Node29&#45;&gt;Node3</title>
<path fill="none" stroke="midnightblue" d="M339.79,-112.07C338.46,-98.59 337.91,-72.85 350,-56 363.5,-37.18 387.16,-25.78 406.84,-19.17"/>
<polygon fill="midnightblue" stroke="midnightblue" points="407.88,-22.51 416.4,-16.21 405.81,-15.82 407.88,-22.51"/>
</g>
<!-- Node29&#45;&gt;Node4 -->
<g id="edge78" class="edge">
<title>Node29&#45;&gt;Node4</title>
<path fill="none" stroke="midnightblue" d="M307.41,-112.44C268.21,-102.46 203.69,-86.03 163.93,-75.9"/>
<polygon fill="midnightblue" stroke="midnightblue" points="164.69,-72.48 154.14,-73.4 162.96,-79.26 164.69,-72.48"/>
</g>
<!-- Node29&#45;&gt;Node5 -->
<g id="edge79" class="edge">
<title>Node29&#45;&gt;Node5</title>
<path fill="none" stroke="midnightblue" d="M333.33,-112.46C326.22,-103.93 316.15,-90.09 312,-76 307.39,-60.34 312.66,-42.3 318.35,-29.2"/>
<polygon fill="midnightblue" stroke="midnightblue" points="321.64,-30.43 322.82,-19.9 315.33,-27.39 321.64,-30.43"/>
</g>
<!-- Node29&#45;&gt;Node6 -->
<g id="edge80" class="edge">
<title>Node29&#45;&gt;Node6</title>
<path fill="none" stroke="midnightblue" d="M357.3,-112.32C385.09,-97.96 443.82,-69.5 497,-56 637.4,-20.36 809.93,-12.83 890.1,-11.32"/>
<polygon fill="midnightblue" stroke="midnightblue" points="890.39,-14.81 900.33,-11.15 890.27,-7.81 890.39,-14.81"/>
</g>
<!-- Node29&#45;&gt;Node7 -->
<g id="edge81" class="edge">
<title>Node29&#45;&gt;Node7</title>
<path fill="none" stroke="midnightblue" d="M324.13,-112.32C307.29,-103.66 281.19,-90.24 261.76,-80.25"/>
<polygon fill="midnightblue" stroke="midnightblue" points="263.32,-77.12 252.83,-75.65 260.12,-83.34 263.32,-77.12"/>
</g>
<!-- Node29&#45;&gt;Node8 -->
<g id="edge82" class="edge">
<title>Node29&#45;&gt;Node8</title>
<path fill="none" stroke="midnightblue" d="M377.44,-112.44C417.4,-103.06 481.59,-87.99 524.98,-77.8"/>
<polygon fill="midnightblue" stroke="midnightblue" points="525.79,-81.21 534.73,-75.52 524.19,-74.39 525.79,-81.21"/>
</g>
</g>
</svg>
