<?xml version="1.0" encoding="UTF-8" standalone="no"?>
<!DOCTYPE svg PUBLIC "-//W3C//DTD SVG 1.1//EN"
 "http://www.w3.org/Graphics/SVG/1.1/DTD/svg11.dtd">
<!-- Generated by graphviz version 2.43.0 (0)
 -->
<!-- Title: include/mini/mesh/quality.hpp Pages: 1 -->
<svg width="2142pt" height="364pt"
 viewBox="0.00 0.00 2142.00 364.00" xmlns="http://www.w3.org/2000/svg" xmlns:xlink="http://www.w3.org/1999/xlink">
<g id="graph0" class="graph" transform="scale(1 1) rotate(0) translate(4 360)">
<title>include/mini/mesh/quality.hpp</title>
<polygon fill="white" stroke="transparent" points="-4,4 -4,-360 2138,-360 2138,4 -4,4"/>
<!-- Node1 -->
<g id="node1" class="node">
<title>Node1</title>
<g id="a_node1"><a xlink:title=" ">
<polygon fill="#bfbfbf" stroke="black" points="994.5,-336.5 994.5,-355.5 1157.5,-355.5 1157.5,-336.5 994.5,-336.5"/>
<text text-anchor="middle" x="1076" y="-343.5" font-family="Helvetica,sans-Serif" font-size="10.00">include/mini/mesh/quality.hpp</text>
</a>
</g>
</g>
<!-- Node2 -->
<g id="node2" class="node">
<title>Node2</title>
<g id="a_node2"><a xlink:title=" ">
<polygon fill="white" stroke="#bfbfbf" points="1296,-56.5 1296,-75.5 1356,-75.5 1356,-56.5 1296,-56.5"/>
<text text-anchor="middle" x="1326" y="-63.5" font-family="Helvetica,sans-Serif" font-size="10.00">concepts</text>
</a>
</g>
</g>
<!-- Node1&#45;&gt;Node2 -->
<g id="edge1" class="edge">
<title>Node1&#45;&gt;Node2</title>
<path fill="none" stroke="midnightblue" d="M1091.07,-336.5C1133.95,-311.45 1257.12,-233.29 1314,-132 1321.99,-117.77 1324.81,-99.3 1325.73,-85.68"/>
<polygon fill="midnightblue" stroke="midnightblue" points="1329.23,-85.72 1326.14,-75.59 1322.24,-85.44 1329.23,-85.72"/>
</g>
<!-- Node3 -->
<g id="node3" class="node">
<title>Node3</title>
<g id="a_node3"><a xlink:title=" ">
<polygon fill="white" stroke="#bfbfbf" points="806,-112.5 806,-131.5 866,-131.5 866,-112.5 806,-112.5"/>
<text text-anchor="middle" x="836" y="-119.5" font-family="Helvetica,sans-Serif" font-size="10.00">cgnslib.h</text>
</a>
</g>
</g>
<!-- Node1&#45;&gt;Node3 -->
<g id="edge2" class="edge">
<title>Node1&#45;&gt;Node3</title>
<path fill="none" stroke="midnightblue" d="M1063.31,-336.45C1030.99,-314.32 943.81,-252.37 883,-188 868.99,-173.17 855.63,-154.04 846.76,-140.38"/>
<polygon fill="midnightblue" stroke="midnightblue" points="849.46,-138.1 841.15,-131.54 843.55,-141.85 849.46,-138.1"/>
</g>
<!-- Node4 -->
<g id="node4" class="node">
<title>Node4</title>
<g id="a_node4"><a xlink:href="cgns_8hpp.html" target="_top" xlink:title=" ">
<polygon fill="white" stroke="black" points="647.5,-168.5 647.5,-187.5 762.5,-187.5 762.5,-168.5 647.5,-168.5"/>
<text text-anchor="middle" x="705" y="-175.5" font-family="Helvetica,sans-Serif" font-size="10.00">mini/mesh/cgns.hpp</text>
</a>
</g>
</g>
<!-- Node1&#45;&gt;Node4 -->
<g id="edge3" class="edge">
<title>Node1&#45;&gt;Node4</title>
<path fill="none" stroke="midnightblue" d="M994.31,-343.3C942.34,-339.23 875.08,-328.23 822,-300 774.46,-274.72 734.74,-223.14 716.21,-196.22"/>
<polygon fill="midnightblue" stroke="midnightblue" points="719.04,-194.16 710.56,-187.81 713.23,-198.06 719.04,-194.16"/>
</g>
<!-- Node25 -->
<g id="node25" class="node">
<title>Node25</title>
<g id="a_node25"><a xlink:href="coordinate_2hexahedron_8hpp.html" target="_top" xlink:title=" ">
<polygon fill="white" stroke="black" points="1571.5,-224.5 1571.5,-243.5 1746.5,-243.5 1746.5,-224.5 1571.5,-224.5"/>
<text text-anchor="middle" x="1659" y="-231.5" font-family="Helvetica,sans-Serif" font-size="10.00">mini/coordinate/hexahedron.hpp</text>
</a>
</g>
</g>
<!-- Node1&#45;&gt;Node25 -->
<g id="edge29" class="edge">
<title>Node1&#45;&gt;Node25</title>
<path fill="none" stroke="midnightblue" d="M1157.7,-341.15C1238.8,-336.07 1366.23,-324.69 1474,-300 1530.72,-287 1594.17,-262.38 1630.08,-247.46"/>
<polygon fill="midnightblue" stroke="midnightblue" points="1631.59,-250.62 1639.45,-243.52 1628.87,-244.17 1631.59,-250.62"/>
</g>
<!-- Node32 -->
<g id="node32" class="node">
<title>Node32</title>
<g id="a_node32"><a xlink:href="integrator_2hexahedron_8hpp.html" target="_top" xlink:title=" ">
<polygon fill="white" stroke="black" points="1293.5,-280.5 1293.5,-299.5 1464.5,-299.5 1464.5,-280.5 1293.5,-280.5"/>
<text text-anchor="middle" x="1379" y="-287.5" font-family="Helvetica,sans-Serif" font-size="10.00">mini/integrator/hexahedron.hpp</text>
</a>
</g>
</g>
<!-- Node1&#45;&gt;Node32 -->
<g id="edge57" class="edge">
<title>Node1&#45;&gt;Node32</title>
<path fill="none" stroke="midnightblue" d="M1124.01,-336.44C1177.53,-326.9 1264.07,-311.48 1321.24,-301.29"/>
<polygon fill="midnightblue" stroke="midnightblue" points="1321.98,-304.72 1331.21,-299.52 1320.75,-297.83 1321.98,-304.72"/>
</g>
<!-- Node37 -->
<g id="node37" class="node">
<title>Node37</title>
<g id="a_node37"><a xlink:href="integrator_2lobatto_8hpp.html" target="_top" xlink:title=" ">
<polygon fill="white" stroke="black" points="966,-168.5 966,-187.5 1114,-187.5 1114,-168.5 966,-168.5"/>
<text text-anchor="middle" x="1040" y="-175.5" font-family="Helvetica,sans-Serif" font-size="10.00">mini/integrator/lobatto.hpp</text>
</a>
</g>
</g>
<!-- Node1&#45;&gt;Node37 -->
<g id="edge79" class="edge">
<title>Node1&#45;&gt;Node37</title>
<path fill="none" stroke="midnightblue" d="M1074.06,-336.08C1068.4,-309.95 1051.76,-233.21 1044.03,-197.58"/>
<polygon fill="midnightblue" stroke="midnightblue" points="1047.4,-196.6 1041.86,-187.57 1040.56,-198.08 1047.4,-196.6"/>
</g>
<!-- Node4&#45;&gt;Node2 -->
<g id="edge4" class="edge">
<title>Node4&#45;&gt;Node2</title>
<path fill="none" stroke="midnightblue" d="M762.63,-174.52C895.34,-168.51 1214.62,-152.12 1259,-132 1282.2,-121.48 1302.16,-99.38 1314.12,-83.88"/>
<polygon fill="midnightblue" stroke="midnightblue" points="1317.07,-85.78 1320.2,-75.66 1311.44,-81.62 1317.07,-85.78"/>
</g>
<!-- Node4&#45;&gt;Node3 -->
<g id="edge19" class="edge">
<title>Node4&#45;&gt;Node3</title>
<path fill="none" stroke="midnightblue" d="M725.76,-168.44C747.32,-159.56 781.26,-145.56 805.79,-135.45"/>
<polygon fill="midnightblue" stroke="midnightblue" points="807.43,-138.56 815.34,-131.52 804.76,-132.09 807.43,-138.56"/>
</g>
<!-- Node5 -->
<g id="node5" class="node">
<title>Node5</title>
<g id="a_node5"><a xlink:title=" ">
<polygon fill="white" stroke="#bfbfbf" points="66,-112.5 66,-131.5 116,-131.5 116,-112.5 66,-112.5"/>
<text text-anchor="middle" x="91" y="-119.5" font-family="Helvetica,sans-Serif" font-size="10.00">ranges</text>
</a>
</g>
</g>
<!-- Node4&#45;&gt;Node5 -->
<g id="edge5" class="edge">
<title>Node4&#45;&gt;Node5</title>
<path fill="none" stroke="midnightblue" d="M647.36,-175.98C544.38,-173.41 321.98,-164.45 126.04,-131.87"/>
<polygon fill="midnightblue" stroke="midnightblue" points="126.58,-128.41 116.14,-130.2 125.42,-135.31 126.58,-128.41"/>
</g>
<!-- Node6 -->
<g id="node6" class="node">
<title>Node6</title>
<g id="a_node6"><a xlink:title=" ">
<polygon fill="white" stroke="#bfbfbf" points="415,-0.5 415,-19.5 479,-19.5 479,-0.5 415,-0.5"/>
<text text-anchor="middle" x="447" y="-7.5" font-family="Helvetica,sans-Serif" font-size="10.00">algorithm</text>
</a>
</g>
</g>
<!-- Node4&#45;&gt;Node6 -->
<g id="edge6" class="edge">
<title>Node4&#45;&gt;Node6</title>
<path fill="none" stroke="midnightblue" d="M647.24,-177.38C495.92,-177.76 96.81,-174.67 57,-132 -44.75,-22.94 284.19,-11.41 404.6,-10.77"/>
<polygon fill="midnightblue" stroke="midnightblue" points="404.93,-14.27 414.92,-10.74 404.91,-7.27 404.93,-14.27"/>
</g>
<!-- Node7 -->
<g id="node7" class="node">
<title>Node7</title>
<g id="a_node7"><a xlink:title=" ">
<polygon fill="white" stroke="#bfbfbf" points="922,-112.5 922,-131.5 964,-131.5 964,-112.5 922,-112.5"/>
<text text-anchor="middle" x="943" y="-119.5" font-family="Helvetica,sans-Serif" font-size="10.00">array</text>
</a>
</g>
</g>
<!-- Node4&#45;&gt;Node7 -->
<g id="edge7" class="edge">
<title>Node4&#45;&gt;Node7</title>
<path fill="none" stroke="midnightblue" d="M742.71,-168.44C789.45,-157.84 868.24,-139.96 911.76,-130.09"/>
<polygon fill="midnightblue" stroke="midnightblue" points="912.8,-133.44 921.77,-127.82 911.25,-126.62 912.8,-133.44"/>
</g>
<!-- Node8 -->
<g id="node8" class="node">
<title>Node8</title>
<g id="a_node8"><a xlink:title=" ">
<polygon fill="white" stroke="#bfbfbf" points="1958,-56.5 1958,-75.5 2010,-75.5 2010,-56.5 1958,-56.5"/>
<text text-anchor="middle" x="1984" y="-63.5" font-family="Helvetica,sans-Serif" font-size="10.00">cassert</text>
</a>
</g>
</g>
<!-- Node4&#45;&gt;Node8 -->
<g id="edge8" class="edge">
<title>Node4&#45;&gt;Node8</title>
<path fill="none" stroke="midnightblue" d="M762.63,-174.78C981.72,-166.34 1751.83,-136.4 1777,-132 1841.65,-120.7 1914.18,-94.67 1953.92,-79.2"/>
<polygon fill="midnightblue" stroke="midnightblue" points="1955.27,-82.43 1963.3,-75.51 1952.71,-75.91 1955.27,-82.43"/>
</g>
<!-- Node9 -->
<g id="node9" class="node">
<title>Node9</title>
<g id="a_node9"><a xlink:title=" ">
<polygon fill="white" stroke="#bfbfbf" points="1392,-0.5 1392,-19.5 1452,-19.5 1452,-0.5 1392,-0.5"/>
<text text-anchor="middle" x="1422" y="-7.5" font-family="Helvetica,sans-Serif" font-size="10.00">iostream</text>
</a>
</g>
</g>
<!-- Node4&#45;&gt;Node9 -->
<g id="edge9" class="edge">
<title>Node4&#45;&gt;Node9</title>
<path fill="none" stroke="midnightblue" d="M709.12,-168.41C716.59,-153.91 733.86,-124.9 758,-112 907.24,-32.26 974.84,-124.32 1137,-76 1155.29,-70.55 1156.96,-62.23 1175,-56 1245.59,-31.64 1332.31,-19.73 1381.97,-14.52"/>
<polygon fill="midnightblue" stroke="midnightblue" points="1382.38,-17.99 1391.98,-13.5 1381.68,-11.03 1382.38,-17.99"/>
</g>
<!-- Node10 -->
<g id="node10" class="node">
<title>Node10</title>
<g id="a_node10"><a xlink:title=" ">
<polygon fill="white" stroke="#bfbfbf" points="312,-112.5 312,-131.5 350,-131.5 350,-112.5 312,-112.5"/>
<text text-anchor="middle" x="331" y="-119.5" font-family="Helvetica,sans-Serif" font-size="10.00">map</text>
</a>
</g>
</g>
<!-- Node4&#45;&gt;Node10 -->
<g id="edge10" class="edge">
<title>Node4&#45;&gt;Node10</title>
<path fill="none" stroke="midnightblue" d="M647.2,-172.71C580.14,-167.02 466.21,-155.14 360.07,-131.87"/>
<polygon fill="midnightblue" stroke="midnightblue" points="360.68,-128.42 350.15,-129.66 359.15,-135.26 360.68,-128.42"/>
</g>
<!-- Node11 -->
<g id="node11" class="node">
<title>Node11</title>
<g id="a_node11"><a xlink:title=" ">
<polygon fill="white" stroke="#bfbfbf" points="1458,-112.5 1458,-131.5 1516,-131.5 1516,-112.5 1458,-112.5"/>
<text text-anchor="middle" x="1487" y="-119.5" font-family="Helvetica,sans-Serif" font-size="10.00">memory</text>
</a>
</g>
</g>
<!-- Node4&#45;&gt;Node11 -->
<g id="edge11" class="edge">
<title>Node4&#45;&gt;Node11</title>
<path fill="none" stroke="midnightblue" d="M762.5,-173.03C913.63,-162.59 1319.17,-134.59 1447.5,-125.73"/>
<polygon fill="midnightblue" stroke="midnightblue" points="1447.91,-129.21 1457.65,-125.03 1447.43,-122.22 1447.91,-129.21"/>
</g>
<!-- Node12 -->
<g id="node12" class="node">
<title>Node12</title>
<g id="a_node12"><a xlink:title=" ">
<polygon fill="white" stroke="#bfbfbf" points="1184,-56.5 1184,-75.5 1240,-75.5 1240,-56.5 1184,-56.5"/>
<text text-anchor="middle" x="1212" y="-63.5" font-family="Helvetica,sans-Serif" font-size="10.00">numeric</text>
</a>
</g>
</g>
<!-- Node4&#45;&gt;Node12 -->
<g id="edge12" class="edge">
<title>Node4&#45;&gt;Node12</title>
<path fill="none" stroke="midnightblue" d="M713.73,-168.39C729.07,-153.86 762.53,-124.8 797,-112 953.13,-54.01 1005.41,-101.49 1170,-76 1171.24,-75.81 1172.51,-75.6 1173.78,-75.38"/>
<polygon fill="midnightblue" stroke="midnightblue" points="1174.43,-78.82 1183.62,-73.54 1173.14,-71.94 1174.43,-78.82"/>
</g>
<!-- Node13 -->
<g id="node13" class="node">
<title>Node13</title>
<g id="a_node13"><a xlink:title=" ">
<polygon fill="white" stroke="#bfbfbf" points="368.5,-112.5 368.5,-131.5 433.5,-131.5 433.5,-112.5 368.5,-112.5"/>
<text text-anchor="middle" x="401" y="-119.5" font-family="Helvetica,sans-Serif" font-size="10.00">stdexcept</text>
</a>
</g>
</g>
<!-- Node4&#45;&gt;Node13 -->
<g id="edge13" class="edge">
<title>Node4&#45;&gt;Node13</title>
<path fill="none" stroke="midnightblue" d="M651.44,-168.46C600.58,-160.2 521.74,-147.02 443.56,-132.04"/>
<polygon fill="midnightblue" stroke="midnightblue" points="444.01,-128.56 433.53,-130.11 442.69,-135.44 444.01,-128.56"/>
</g>
<!-- Node14 -->
<g id="node14" class="node">
<title>Node14</title>
<g id="a_node14"><a xlink:title=" ">
<polygon fill="white" stroke="#bfbfbf" points="452,-112.5 452,-131.5 496,-131.5 496,-112.5 452,-112.5"/>
<text text-anchor="middle" x="474" y="-119.5" font-family="Helvetica,sans-Serif" font-size="10.00">string</text>
</a>
</g>
</g>
<!-- Node4&#45;&gt;Node14 -->
<g id="edge14" class="edge">
<title>Node4&#45;&gt;Node14</title>
<path fill="none" stroke="midnightblue" d="M663.45,-168.43C625.02,-160.32 566.08,-147.46 506.3,-132.22"/>
<polygon fill="midnightblue" stroke="midnightblue" points="506.86,-128.75 496.31,-129.65 505.12,-135.53 506.86,-128.75"/>
</g>
<!-- Node15 -->
<g id="node15" class="node">
<title>Node15</title>
<g id="a_node15"><a xlink:title=" ">
<polygon fill="white" stroke="#bfbfbf" points="514.5,-112.5 514.5,-131.5 607.5,-131.5 607.5,-112.5 514.5,-112.5"/>
<text text-anchor="middle" x="561" y="-119.5" font-family="Helvetica,sans-Serif" font-size="10.00">unordered_map</text>
</a>
</g>
</g>
<!-- Node4&#45;&gt;Node15 -->
<g id="edge15" class="edge">
<title>Node4&#45;&gt;Node15</title>
<path fill="none" stroke="midnightblue" d="M682.18,-168.44C658.17,-159.44 620.17,-145.19 593.13,-135.05"/>
<polygon fill="midnightblue" stroke="midnightblue" points="594.3,-131.75 583.71,-131.52 591.84,-138.3 594.3,-131.75"/>
</g>
<!-- Node16 -->
<g id="node16" class="node">
<title>Node16</title>
<g id="a_node16"><a xlink:title=" ">
<polygon fill="white" stroke="#bfbfbf" points="626,-112.5 626,-131.5 712,-131.5 712,-112.5 626,-112.5"/>
<text text-anchor="middle" x="669" y="-119.5" font-family="Helvetica,sans-Serif" font-size="10.00">unordered_set</text>
</a>
</g>
</g>
<!-- Node4&#45;&gt;Node16 -->
<g id="edge16" class="edge">
<title>Node4&#45;&gt;Node16</title>
<path fill="none" stroke="midnightblue" d="M699.06,-168.08C694.02,-160.53 686.66,-149.49 680.49,-140.23"/>
<polygon fill="midnightblue" stroke="midnightblue" points="683.29,-138.13 674.83,-131.75 677.47,-142.01 683.29,-138.13"/>
</g>
<!-- Node17 -->
<g id="node17" class="node">
<title>Node17</title>
<g id="a_node17"><a xlink:title=" ">
<polygon fill="white" stroke="#bfbfbf" points="271.5,-56.5 271.5,-75.5 316.5,-75.5 316.5,-56.5 271.5,-56.5"/>
<text text-anchor="middle" x="294" y="-63.5" font-family="Helvetica,sans-Serif" font-size="10.00">utility</text>
</a>
</g>
</g>
<!-- Node4&#45;&gt;Node17 -->
<g id="edge17" class="edge">
<title>Node4&#45;&gt;Node17</title>
<path fill="none" stroke="midnightblue" d="M647.13,-174.4C541.76,-169.11 327.18,-155.55 303,-132 290.91,-120.22 289.8,-100.29 291.01,-85.6"/>
<polygon fill="midnightblue" stroke="midnightblue" points="294.49,-85.96 292.25,-75.61 287.55,-85.1 294.49,-85.96"/>
</g>
<!-- Node18 -->
<g id="node18" class="node">
<title>Node18</title>
<g id="a_node18"><a xlink:title=" ">
<polygon fill="white" stroke="#bfbfbf" points="1576.5,-0.5 1576.5,-19.5 1623.5,-19.5 1623.5,-0.5 1576.5,-0.5"/>
<text text-anchor="middle" x="1600" y="-7.5" font-family="Helvetica,sans-Serif" font-size="10.00">vector</text>
</a>
</g>
</g>
<!-- Node4&#45;&gt;Node18 -->
<g id="edge18" class="edge">
<title>Node4&#45;&gt;Node18</title>
<path fill="none" stroke="midnightblue" d="M758.99,-168.48C813.18,-159.81 899.01,-145.71 973,-132 1034.54,-120.59 1190.05,-97.01 1249,-76 1266.98,-69.59 1268.85,-61.89 1287,-56 1385.08,-24.19 1507.71,-14.83 1566.08,-12.11"/>
<polygon fill="midnightblue" stroke="midnightblue" points="1566.37,-15.6 1576.22,-11.67 1566.07,-8.6 1566.37,-15.6"/>
</g>
<!-- Node19 -->
<g id="node19" class="node">
<title>Node19</title>
<g id="a_node19"><a xlink:href="pi_8hpp.html" target="_top" xlink:title=" ">
<polygon fill="white" stroke="black" points="134,-112.5 134,-131.5 256,-131.5 256,-112.5 134,-112.5"/>
<text text-anchor="middle" x="195" y="-119.5" font-family="Helvetica,sans-Serif" font-size="10.00">mini/geometry/pi.hpp</text>
</a>
</g>
</g>
<!-- Node4&#45;&gt;Node19 -->
<g id="edge20" class="edge">
<title>Node4&#45;&gt;Node19</title>
<path fill="none" stroke="midnightblue" d="M647.27,-171.33C563.92,-163.08 405.06,-147.09 270,-132 268.89,-131.88 267.78,-131.75 266.65,-131.62"/>
<polygon fill="midnightblue" stroke="midnightblue" points="266.72,-128.11 256.39,-130.45 265.92,-135.06 266.72,-128.11"/>
</g>
<!-- Node19&#45;&gt;Node17 -->
<g id="edge23" class="edge">
<title>Node19&#45;&gt;Node17</title>
<path fill="none" stroke="midnightblue" d="M210.91,-112.32C226.64,-103.74 250.94,-90.49 269.21,-80.52"/>
<polygon fill="midnightblue" stroke="midnightblue" points="271.03,-83.52 278.13,-75.65 267.68,-77.37 271.03,-83.52"/>
</g>
<!-- Node20 -->
<g id="node20" class="node">
<title>Node20</title>
<g id="a_node20"><a xlink:title=" ">
<polygon fill="white" stroke="#bfbfbf" points="927.5,-0.5 927.5,-19.5 974.5,-19.5 974.5,-0.5 927.5,-0.5"/>
<text text-anchor="middle" x="951" y="-7.5" font-family="Helvetica,sans-Serif" font-size="10.00">cmath</text>
</a>
</g>
</g>
<!-- Node19&#45;&gt;Node20 -->
<g id="edge21" class="edge">
<title>Node19&#45;&gt;Node20</title>
<path fill="none" stroke="midnightblue" d="M200.78,-112.29C211.07,-97.62 234.15,-68.36 262,-56 322.21,-29.27 787.03,-15.27 917.21,-11.84"/>
<polygon fill="midnightblue" stroke="midnightblue" points="917.48,-15.34 927.38,-11.58 917.29,-8.34 917.48,-15.34"/>
</g>
<!-- Node21 -->
<g id="node21" class="node">
<title>Node21</title>
<g id="a_node21"><a xlink:title=" ">
<polygon fill="white" stroke="#bfbfbf" points="155.5,-56.5 155.5,-75.5 214.5,-75.5 214.5,-56.5 155.5,-56.5"/>
<text text-anchor="middle" x="185" y="-63.5" font-family="Helvetica,sans-Serif" font-size="10.00">numbers</text>
</a>
</g>
</g>
<!-- Node19&#45;&gt;Node21 -->
<g id="edge22" class="edge">
<title>Node19&#45;&gt;Node21</title>
<path fill="none" stroke="midnightblue" d="M193.35,-112.08C192.02,-104.93 190.12,-94.64 188.46,-85.69"/>
<polygon fill="midnightblue" stroke="midnightblue" points="191.88,-84.95 186.62,-75.75 185,-86.22 191.88,-84.95"/>
</g>
<!-- Node22 -->
<g id="node22" class="node">
<title>Node22</title>
<g id="a_node22"><a xlink:href="algebra_2eigen_8hpp.html" target="_top" xlink:title=" ">
<polygon fill="white" stroke="black" points="998.5,-56.5 998.5,-75.5 1127.5,-75.5 1127.5,-56.5 998.5,-56.5"/>
<text text-anchor="middle" x="1063" y="-63.5" font-family="Helvetica,sans-Serif" font-size="10.00">mini/algebra/eigen.hpp</text>
</a>
</g>
</g>
<!-- Node19&#45;&gt;Node22 -->
<g id="edge24" class="edge">
<title>Node19&#45;&gt;Node22</title>
<path fill="none" stroke="midnightblue" d="M256.09,-115.65C271.4,-114.38 287.8,-113.08 303,-112 553.88,-94.12 851.72,-77.96 988.08,-70.84"/>
<polygon fill="midnightblue" stroke="midnightblue" points="988.6,-74.32 998.41,-70.3 988.24,-67.33 988.6,-74.32"/>
</g>
<!-- Node22&#45;&gt;Node6 -->
<g id="edge25" class="edge">
<title>Node22&#45;&gt;Node6</title>
<path fill="none" stroke="midnightblue" d="M998.24,-59.32C871.79,-48.24 595.15,-23.99 489.33,-14.71"/>
<polygon fill="midnightblue" stroke="midnightblue" points="489.6,-11.22 479.33,-13.83 488.99,-18.19 489.6,-11.22"/>
</g>
<!-- Node22&#45;&gt;Node20 -->
<g id="edge26" class="edge">
<title>Node22&#45;&gt;Node20</title>
<path fill="none" stroke="midnightblue" d="M1045.01,-56.32C1026.96,-47.62 998.95,-34.12 978.2,-24.11"/>
<polygon fill="midnightblue" stroke="midnightblue" points="979.48,-20.84 968.95,-19.65 976.44,-27.15 979.48,-20.84"/>
</g>
<!-- Node23 -->
<g id="node23" class="node">
<title>Node23</title>
<g id="a_node23"><a xlink:title=" ">
<polygon fill="white" stroke="#bfbfbf" points="1015.5,-0.5 1015.5,-19.5 1064.5,-19.5 1064.5,-0.5 1015.5,-0.5"/>
<text text-anchor="middle" x="1040" y="-7.5" font-family="Helvetica,sans-Serif" font-size="10.00">cstdlib</text>
</a>
</g>
</g>
<!-- Node22&#45;&gt;Node23 -->
<g id="edge27" class="edge">
<title>Node22&#45;&gt;Node23</title>
<path fill="none" stroke="midnightblue" d="M1059.2,-56.08C1056.09,-48.77 1051.58,-38.18 1047.71,-29.1"/>
<polygon fill="midnightblue" stroke="midnightblue" points="1050.87,-27.58 1043.73,-19.75 1044.43,-30.32 1050.87,-27.58"/>
</g>
<!-- Node24 -->
<g id="node24" class="node">
<title>Node24</title>
<g id="a_node24"><a xlink:title=" ">
<polygon fill="white" stroke="#bfbfbf" points="1083,-0.5 1083,-19.5 1157,-19.5 1157,-0.5 1083,-0.5"/>
<text text-anchor="middle" x="1120" y="-7.5" font-family="Helvetica,sans-Serif" font-size="10.00">Eigen/Eigen</text>
</a>
</g>
</g>
<!-- Node22&#45;&gt;Node24 -->
<g id="edge28" class="edge">
<title>Node22&#45;&gt;Node24</title>
<path fill="none" stroke="midnightblue" d="M1072.16,-56.32C1080.5,-48.42 1093.03,-36.55 1103.18,-26.94"/>
<polygon fill="midnightblue" stroke="midnightblue" points="1105.82,-29.25 1110.68,-19.83 1101.01,-24.17 1105.82,-29.25"/>
</g>
<!-- Node25&#45;&gt;Node2 -->
<g id="edge30" class="edge">
<title>Node25&#45;&gt;Node2</title>
<path fill="none" stroke="midnightblue" d="M1628.21,-224.43C1607.66,-217.42 1581.19,-205.73 1563,-188 1535.96,-161.64 1554.8,-135.2 1525,-112 1468.77,-68.21 1436.57,-91 1366.32,-77.05"/>
<polygon fill="midnightblue" stroke="midnightblue" points="1366.66,-73.54 1356.15,-74.82 1365.17,-80.38 1366.66,-73.54"/>
</g>
<!-- Node25&#45;&gt;Node7 -->
<g id="edge32" class="edge">
<title>Node25&#45;&gt;Node7</title>
<path fill="none" stroke="midnightblue" d="M1571.38,-224.66C1568.55,-224.43 1565.75,-224.21 1563,-224 1495.74,-218.85 1008.2,-231.92 957,-188 944.01,-176.86 941.37,-156.83 941.45,-141.94"/>
<polygon fill="midnightblue" stroke="midnightblue" points="944.95,-141.94 941.91,-131.79 937.96,-141.62 944.95,-141.94"/>
</g>
<!-- Node25&#45;&gt;Node8 -->
<g id="edge31" class="edge">
<title>Node25&#45;&gt;Node8</title>
<path fill="none" stroke="midnightblue" d="M1746.54,-226.55C1812.26,-220.17 1895.47,-208.34 1923,-188 1957.26,-162.69 1973.57,-112.66 1980.19,-85.53"/>
<polygon fill="midnightblue" stroke="midnightblue" points="1983.61,-86.27 1982.39,-75.75 1976.78,-84.73 1983.61,-86.27"/>
</g>
<!-- Node25&#45;&gt;Node11 -->
<g id="edge34" class="edge">
<title>Node25&#45;&gt;Node11</title>
<path fill="none" stroke="midnightblue" d="M1612.47,-224.48C1586.22,-217.89 1553.97,-206.64 1530,-188 1514.19,-175.7 1502.28,-155.89 1495.05,-141.36"/>
<polygon fill="midnightblue" stroke="midnightblue" points="1498.04,-139.48 1490.63,-131.91 1491.7,-142.45 1498.04,-139.48"/>
</g>
<!-- Node25&#45;&gt;Node18 -->
<g id="edge35" class="edge">
<title>Node25&#45;&gt;Node18</title>
<path fill="none" stroke="midnightblue" d="M1746.68,-227.06C1818.67,-220.78 1913.82,-208.82 1946,-188 2002.28,-151.58 2063.8,-105.87 2019,-56 1993.4,-27.5 1729.27,-15.52 1634.01,-12.1"/>
<polygon fill="midnightblue" stroke="midnightblue" points="1633.89,-8.59 1623.78,-11.74 1633.65,-15.59 1633.89,-8.59"/>
</g>
<!-- Node26 -->
<g id="node26" class="node">
<title>Node26</title>
<g id="a_node26"><a xlink:title=" ">
<polygon fill="white" stroke="#bfbfbf" points="1818.5,-56.5 1818.5,-75.5 1901.5,-75.5 1901.5,-56.5 1818.5,-56.5"/>
<text text-anchor="middle" x="1860" y="-63.5" font-family="Helvetica,sans-Serif" font-size="10.00">initializer_list</text>
</a>
</g>
</g>
<!-- Node25&#45;&gt;Node26 -->
<g id="edge33" class="edge">
<title>Node25&#45;&gt;Node26</title>
<path fill="none" stroke="midnightblue" d="M1746.59,-228.57C1808.86,-223.36 1884.88,-212.14 1905,-188 1931.3,-156.45 1896.88,-108.05 1875.2,-83.11"/>
<polygon fill="midnightblue" stroke="midnightblue" points="1877.73,-80.69 1868.44,-75.6 1872.53,-85.38 1877.73,-80.69"/>
</g>
<!-- Node27 -->
<g id="node27" class="node">
<title>Node27</title>
<g id="a_node27"><a xlink:href="coordinate_2element_8hpp.html" target="_top" xlink:title=" ">
<polygon fill="white" stroke="black" points="1610,-112.5 1610,-131.5 1768,-131.5 1768,-112.5 1610,-112.5"/>
<text text-anchor="middle" x="1689" y="-119.5" font-family="Helvetica,sans-Serif" font-size="10.00">mini/coordinate/element.hpp</text>
</a>
</g>
</g>
<!-- Node25&#45;&gt;Node27 -->
<g id="edge36" class="edge">
<title>Node25&#45;&gt;Node27</title>
<path fill="none" stroke="midnightblue" d="M1746.58,-227.03C1803.03,-221.15 1869.13,-209.74 1887,-188 1921.8,-145.66 1846.1,-130.67 1778.48,-125.49"/>
<polygon fill="midnightblue" stroke="midnightblue" points="1778.36,-121.97 1768.14,-124.76 1777.87,-128.95 1778.36,-121.97"/>
</g>
<!-- Node31 -->
<g id="node31" class="node">
<title>Node31</title>
<g id="a_node31"><a xlink:href="coordinate_2cell_8hpp.html" target="_top" xlink:title=" ">
<polygon fill="white" stroke="black" points="1572,-168.5 1572,-187.5 1706,-187.5 1706,-168.5 1572,-168.5"/>
<text text-anchor="middle" x="1639" y="-175.5" font-family="Helvetica,sans-Serif" font-size="10.00">mini/coordinate/cell.hpp</text>
</a>
</g>
</g>
<!-- Node25&#45;&gt;Node31 -->
<g id="edge50" class="edge">
<title>Node25&#45;&gt;Node31</title>
<path fill="none" stroke="midnightblue" d="M1655.7,-224.08C1653.02,-216.85 1649.15,-206.41 1645.81,-197.4"/>
<polygon fill="midnightblue" stroke="midnightblue" points="1649,-195.91 1642.24,-187.75 1642.43,-198.34 1649,-195.91"/>
</g>
<!-- Node27&#45;&gt;Node2 -->
<g id="edge37" class="edge">
<title>Node27&#45;&gt;Node2</title>
<path fill="none" stroke="midnightblue" d="M1619.74,-112.48C1554.99,-104.22 1455.7,-90.8 1370,-76 1368.75,-75.78 1367.47,-75.56 1366.19,-75.33"/>
<polygon fill="midnightblue" stroke="midnightblue" points="1366.73,-71.87 1356.25,-73.44 1365.42,-78.74 1366.73,-71.87"/>
</g>
<!-- Node27&#45;&gt;Node8 -->
<g id="edge38" class="edge">
<title>Node27&#45;&gt;Node8</title>
<path fill="none" stroke="midnightblue" d="M1735.74,-112.44C1794.54,-101.68 1894.24,-83.43 1947.65,-73.65"/>
<polygon fill="midnightblue" stroke="midnightblue" points="1948.48,-77.06 1957.69,-71.82 1947.22,-70.17 1948.48,-77.06"/>
</g>
<!-- Node27&#45;&gt;Node9 -->
<g id="edge42" class="edge">
<title>Node27&#45;&gt;Node9</title>
<path fill="none" stroke="midnightblue" d="M1621.73,-112.48C1552.96,-103.19 1454.37,-88.04 1441,-76 1428.05,-64.34 1423.73,-44.39 1422.38,-29.66"/>
<polygon fill="midnightblue" stroke="midnightblue" points="1425.87,-29.44 1421.84,-19.64 1418.88,-29.81 1425.87,-29.44"/>
</g>
<!-- Node27&#45;&gt;Node12 -->
<g id="edge40" class="edge">
<title>Node27&#45;&gt;Node12</title>
<path fill="none" stroke="midnightblue" d="M1611.16,-112.47C1530.17,-103.56 1399.66,-89.07 1287,-76 1275.01,-74.61 1261.95,-73.06 1250.13,-71.64"/>
<polygon fill="midnightblue" stroke="midnightblue" points="1250.48,-68.15 1240.13,-70.43 1249.64,-75.1 1250.48,-68.15"/>
</g>
<!-- Node27&#45;&gt;Node18 -->
<g id="edge43" class="edge">
<title>Node27&#45;&gt;Node18</title>
<path fill="none" stroke="midnightblue" d="M1682.02,-112.37C1667.26,-94.14 1632.71,-51.43 1613.49,-27.68"/>
<polygon fill="midnightblue" stroke="midnightblue" points="1615.96,-25.16 1606.95,-19.59 1610.52,-29.57 1615.96,-25.16"/>
</g>
<!-- Node27&#45;&gt;Node20 -->
<g id="edge39" class="edge">
<title>Node27&#45;&gt;Node20</title>
<path fill="none" stroke="midnightblue" d="M1621.13,-112.5C1567.22,-105.02 1490.17,-92.72 1424,-76 1397.16,-69.22 1392.06,-61.87 1365,-56 1208.72,-22.11 1165.57,-40.7 1007,-20 999.77,-19.06 992.03,-17.9 984.69,-16.74"/>
<polygon fill="midnightblue" stroke="midnightblue" points="985.09,-13.26 974.66,-15.12 983.97,-20.17 985.09,-13.26"/>
</g>
<!-- Node27&#45;&gt;Node22 -->
<g id="edge44" class="edge">
<title>Node27&#45;&gt;Node22</title>
<path fill="none" stroke="midnightblue" d="M1609.72,-114.16C1488.08,-103.67 1257.03,-83.74 1138.01,-73.47"/>
<polygon fill="midnightblue" stroke="midnightblue" points="1138.16,-69.97 1127.89,-72.6 1137.56,-76.94 1138.16,-69.97"/>
</g>
<!-- Node27&#45;&gt;Node26 -->
<g id="edge41" class="edge">
<title>Node27&#45;&gt;Node26</title>
<path fill="none" stroke="midnightblue" d="M1716.1,-112.44C1744.99,-103.32 1790.92,-88.81 1823.11,-78.65"/>
<polygon fill="midnightblue" stroke="midnightblue" points="1824.55,-81.87 1833.03,-75.52 1822.44,-75.19 1824.55,-81.87"/>
</g>
<!-- Node28 -->
<g id="node28" class="node">
<title>Node28</title>
<g id="a_node28"><a xlink:href="root_8hpp.html" target="_top" xlink:title=" ">
<polygon fill="white" stroke="black" points="1450,-56.5 1450,-75.5 1572,-75.5 1572,-56.5 1450,-56.5"/>
<text text-anchor="middle" x="1511" y="-63.5" font-family="Helvetica,sans-Serif" font-size="10.00">mini/algebra/root.hpp</text>
</a>
</g>
</g>
<!-- Node27&#45;&gt;Node28 -->
<g id="edge45" class="edge">
<title>Node27&#45;&gt;Node28</title>
<path fill="none" stroke="midnightblue" d="M1660.8,-112.44C1630.59,-103.28 1582.49,-88.69 1548.97,-78.52"/>
<polygon fill="midnightblue" stroke="midnightblue" points="1549.66,-75.07 1539.07,-75.52 1547.63,-81.77 1549.66,-75.07"/>
</g>
<!-- Node30 -->
<g id="node30" class="node">
<title>Node30</title>
<g id="a_node30"><a xlink:href="index_8hpp.html" target="_top" xlink:title=" ">
<polygon fill="white" stroke="black" points="1666,-56.5 1666,-75.5 1800,-75.5 1800,-56.5 1666,-56.5"/>
<text text-anchor="middle" x="1733" y="-63.5" font-family="Helvetica,sans-Serif" font-size="10.00">mini/constant/index.hpp</text>
</a>
</g>
</g>
<!-- Node27&#45;&gt;Node30 -->
<g id="edge49" class="edge">
<title>Node27&#45;&gt;Node30</title>
<path fill="none" stroke="midnightblue" d="M1696.27,-112.08C1702.54,-104.38 1711.79,-93.03 1719.43,-83.65"/>
<polygon fill="midnightblue" stroke="midnightblue" points="1722.27,-85.71 1725.87,-75.75 1716.84,-81.29 1722.27,-85.71"/>
</g>
<!-- Node28&#45;&gt;Node9 -->
<g id="edge47" class="edge">
<title>Node28&#45;&gt;Node9</title>
<path fill="none" stroke="midnightblue" d="M1496.7,-56.32C1482.82,-47.9 1461.51,-34.97 1445.2,-25.07"/>
<polygon fill="midnightblue" stroke="midnightblue" points="1446.63,-21.85 1436.26,-19.65 1443,-27.83 1446.63,-21.85"/>
</g>
<!-- Node28&#45;&gt;Node18 -->
<g id="edge46" class="edge">
<title>Node28&#45;&gt;Node18</title>
<path fill="none" stroke="midnightblue" d="M1525.3,-56.32C1539.18,-47.9 1560.49,-34.97 1576.8,-25.07"/>
<polygon fill="midnightblue" stroke="midnightblue" points="1579,-27.83 1585.74,-19.65 1575.37,-21.85 1579,-27.83"/>
</g>
<!-- Node29 -->
<g id="node29" class="node">
<title>Node29</title>
<g id="a_node29"><a xlink:title=" ">
<polygon fill="white" stroke="#bfbfbf" points="1822.5,-0.5 1822.5,-19.5 1891.5,-19.5 1891.5,-0.5 1822.5,-0.5"/>
<text text-anchor="middle" x="1857" y="-7.5" font-family="Helvetica,sans-Serif" font-size="10.00">type_traits</text>
</a>
</g>
</g>
<!-- Node28&#45;&gt;Node29 -->
<g id="edge48" class="edge">
<title>Node28&#45;&gt;Node29</title>
<path fill="none" stroke="midnightblue" d="M1565.82,-56.44C1634.05,-45.79 1749.26,-27.81 1812.37,-17.97"/>
<polygon fill="midnightblue" stroke="midnightblue" points="1813.07,-21.4 1822.41,-16.4 1811.99,-14.48 1813.07,-21.4"/>
</g>
<!-- Node31&#45;&gt;Node2 -->
<g id="edge51" class="edge">
<title>Node31&#45;&gt;Node2</title>
<path fill="none" stroke="midnightblue" d="M1630.97,-168.23C1617.41,-154 1588.45,-126.06 1558,-112 1480.77,-76.32 1453.45,-92.52 1370,-76 1368.75,-75.75 1367.49,-75.5 1366.21,-75.25"/>
<polygon fill="midnightblue" stroke="midnightblue" points="1366.78,-71.79 1356.29,-73.25 1365.4,-78.65 1366.78,-71.79"/>
</g>
<!-- Node31&#45;&gt;Node6 -->
<g id="edge52" class="edge">
<title>Node31&#45;&gt;Node6</title>
<path fill="none" stroke="midnightblue" d="M1571.75,-173.79C1467.7,-168.31 1261.59,-155.41 1088,-132 1028.1,-123.92 622.39,-45.18 489.24,-19.24"/>
<polygon fill="midnightblue" stroke="midnightblue" points="489.52,-15.73 479.03,-17.25 488.18,-22.6 489.52,-15.73"/>
</g>
<!-- Node31&#45;&gt;Node11 -->
<g id="edge53" class="edge">
<title>Node31&#45;&gt;Node11</title>
<path fill="none" stroke="midnightblue" d="M1614.92,-168.44C1589.46,-159.4 1549.11,-145.06 1520.54,-134.92"/>
<polygon fill="midnightblue" stroke="midnightblue" points="1521.57,-131.57 1510.97,-131.52 1519.22,-138.16 1521.57,-131.57"/>
</g>
<!-- Node31&#45;&gt;Node18 -->
<g id="edge55" class="edge">
<title>Node31&#45;&gt;Node18</title>
<path fill="none" stroke="midnightblue" d="M1674.46,-168.46C1755.59,-148.12 1945.21,-95.51 1911,-56 1875.43,-14.92 1706.91,-10.52 1633.88,-10.6"/>
<polygon fill="midnightblue" stroke="midnightblue" points="1633.81,-7.1 1623.83,-10.63 1633.84,-14.1 1633.81,-7.1"/>
</g>
<!-- Node31&#45;&gt;Node27 -->
<g id="edge56" class="edge">
<title>Node31&#45;&gt;Node27</title>
<path fill="none" stroke="midnightblue" d="M1647.26,-168.08C1654.46,-160.3 1665.11,-148.8 1673.85,-139.37"/>
<polygon fill="midnightblue" stroke="midnightblue" points="1676.67,-141.47 1680.9,-131.75 1671.53,-136.71 1676.67,-141.47"/>
</g>
<!-- Node31&#45;&gt;Node29 -->
<g id="edge54" class="edge">
<title>Node31&#45;&gt;Node29</title>
<path fill="none" stroke="midnightblue" d="M1706.28,-169.17C1805.21,-156.09 1982.2,-126.15 2019,-76 2050.88,-32.55 1960.3,-18.1 1902.01,-13.33"/>
<polygon fill="midnightblue" stroke="midnightblue" points="1902.13,-9.83 1891.9,-12.57 1901.61,-16.81 1902.13,-9.83"/>
</g>
<!-- Node32&#45;&gt;Node2 -->
<g id="edge58" class="edge">
<title>Node32&#45;&gt;Node2</title>
<path fill="none" stroke="midnightblue" d="M1353.5,-280.47C1337.01,-273.48 1316.86,-261.79 1307,-244 1286.69,-207.36 1342.18,-217.68 1368,-132 1370.57,-123.49 1371.26,-120.27 1368,-112 1363.49,-100.55 1354.53,-90.29 1346.05,-82.47"/>
<polygon fill="midnightblue" stroke="midnightblue" points="1348.09,-79.61 1338.21,-75.76 1343.53,-84.93 1348.09,-79.61"/>
</g>
<!-- Node32&#45;&gt;Node6 -->
<g id="edge59" class="edge">
<title>Node32&#45;&gt;Node6</title>
<path fill="none" stroke="midnightblue" d="M1293.26,-286.67C991.98,-277.93 0,-244.18 0,-179 0,-179 0,-179 0,-121 0,-87.08 11.34,-74.15 40,-56 99.85,-18.09 313.23,-11.93 404.78,-11.07"/>
<polygon fill="midnightblue" stroke="midnightblue" points="404.83,-14.57 414.81,-10.99 404.78,-7.57 404.83,-14.57"/>
</g>
<!-- Node32&#45;&gt;Node8 -->
<g id="edge60" class="edge">
<title>Node32&#45;&gt;Node8</title>
<path fill="none" stroke="midnightblue" d="M1464.62,-283.12C1603.84,-272.04 1871.28,-243.98 1946,-188 1969.68,-170.26 1973.23,-160.26 1982,-132 1986.66,-116.99 1986.84,-99.08 1986.04,-85.87"/>
<polygon fill="midnightblue" stroke="midnightblue" points="1989.51,-85.32 1985.17,-75.65 1982.53,-85.91 1989.51,-85.32"/>
</g>
<!-- Node32&#45;&gt;Node11 -->
<g id="edge63" class="edge">
<title>Node32&#45;&gt;Node11</title>
<path fill="none" stroke="midnightblue" d="M1383.18,-280.38C1389.42,-267.74 1401.75,-243.55 1414,-224 1433.33,-193.16 1458.78,-159.24 1473.96,-139.6"/>
<polygon fill="midnightblue" stroke="midnightblue" points="1476.77,-141.69 1480.15,-131.64 1471.25,-137.39 1476.77,-141.69"/>
</g>
<!-- Node32&#45;&gt;Node20 -->
<g id="edge61" class="edge">
<title>Node32&#45;&gt;Node20</title>
<path fill="none" stroke="midnightblue" d="M1311.02,-280.48C1202.85,-265.78 997.95,-232.83 941,-188 912.72,-165.73 906.56,-147.42 913,-112 918.54,-81.55 932.75,-48.34 942.14,-28.61"/>
<polygon fill="midnightblue" stroke="midnightblue" points="945.29,-30.13 946.54,-19.61 939,-27.06 945.29,-30.13"/>
</g>
<!-- Node32&#45;&gt;Node25 -->
<g id="edge78" class="edge">
<title>Node32&#45;&gt;Node25</title>
<path fill="none" stroke="midnightblue" d="M1423.37,-280.44C1472.62,-270.94 1552.13,-255.61 1604.97,-245.42"/>
<polygon fill="midnightblue" stroke="midnightblue" points="1605.68,-248.85 1614.84,-243.52 1604.36,-241.97 1605.68,-248.85"/>
</g>
<!-- Node32&#45;&gt;Node29 -->
<g id="edge64" class="edge">
<title>Node32&#45;&gt;Node29</title>
<path fill="none" stroke="midnightblue" d="M1464.51,-285.36C1662.18,-275.82 2134,-246.02 2134,-179 2134,-179 2134,-179 2134,-121 2134,-71.6 1979.92,-34.7 1901.59,-19.13"/>
<polygon fill="midnightblue" stroke="midnightblue" points="1902.01,-15.65 1891.52,-17.17 1900.67,-22.52 1902.01,-15.65"/>
</g>
<!-- Node33 -->
<g id="node33" class="node">
<title>Node33</title>
<g id="a_node33"><a xlink:title=" ">
<polygon fill="white" stroke="#bfbfbf" points="1316,-224.5 1316,-243.5 1366,-243.5 1366,-224.5 1316,-224.5"/>
<text text-anchor="middle" x="1341" y="-231.5" font-family="Helvetica,sans-Serif" font-size="10.00">cstring</text>
</a>
</g>
</g>
<!-- Node32&#45;&gt;Node33 -->
<g id="edge62" class="edge">
<title>Node32&#45;&gt;Node33</title>
<path fill="none" stroke="midnightblue" d="M1372.73,-280.08C1367.36,-272.46 1359.48,-261.26 1352.92,-251.94"/>
<polygon fill="midnightblue" stroke="midnightblue" points="1355.78,-249.91 1347.16,-243.75 1350.05,-253.94 1355.78,-249.91"/>
</g>
<!-- Node34 -->
<g id="node34" class="node">
<title>Node34</title>
<g id="a_node34"><a xlink:href="integrator_2cell_8hpp.html" target="_top" xlink:title=" ">
<polygon fill="white" stroke="black" points="1422.5,-224.5 1422.5,-243.5 1553.5,-243.5 1553.5,-224.5 1422.5,-224.5"/>
<text text-anchor="middle" x="1488" y="-231.5" font-family="Helvetica,sans-Serif" font-size="10.00">mini/integrator/cell.hpp</text>
</a>
</g>
</g>
<!-- Node32&#45;&gt;Node34 -->
<g id="edge65" class="edge">
<title>Node32&#45;&gt;Node34</title>
<path fill="none" stroke="midnightblue" d="M1396.51,-280.32C1414.07,-271.62 1441.33,-258.12 1461.53,-248.11"/>
<polygon fill="midnightblue" stroke="midnightblue" points="1463.12,-251.23 1470.53,-243.65 1460.02,-244.96 1463.12,-251.23"/>
</g>
<!-- Node34&#45;&gt;Node2 -->
<g id="edge66" class="edge">
<title>Node34&#45;&gt;Node2</title>
<path fill="none" stroke="midnightblue" d="M1483.94,-224.39C1473.55,-203.08 1444.1,-147.05 1406,-112 1391.53,-98.69 1372.42,-87.75 1356.51,-80"/>
<polygon fill="midnightblue" stroke="midnightblue" points="1357.63,-76.66 1347.09,-75.59 1354.66,-83 1357.63,-76.66"/>
</g>
<!-- Node34&#45;&gt;Node11 -->
<g id="edge67" class="edge">
<title>Node34&#45;&gt;Node11</title>
<path fill="none" stroke="midnightblue" d="M1487.92,-224.37C1487.76,-206.62 1487.39,-165.67 1487.17,-141.6"/>
<polygon fill="midnightblue" stroke="midnightblue" points="1490.67,-141.56 1487.08,-131.59 1483.67,-141.62 1490.67,-141.56"/>
</g>
<!-- Node34&#45;&gt;Node31 -->
<g id="edge68" class="edge">
<title>Node34&#45;&gt;Node31</title>
<path fill="none" stroke="midnightblue" d="M1511.93,-224.44C1537.22,-215.4 1577.3,-201.06 1605.68,-190.92"/>
<polygon fill="midnightblue" stroke="midnightblue" points="1606.95,-194.18 1615.19,-187.52 1604.59,-187.59 1606.95,-194.18"/>
</g>
<!-- Node35 -->
<g id="node35" class="node">
<title>Node35</title>
<g id="a_node35"><a xlink:href="integrator_2element_8hpp.html" target="_top" xlink:title=" ">
<polygon fill="white" stroke="black" points="1724,-168.5 1724,-187.5 1878,-187.5 1878,-168.5 1724,-168.5"/>
<text text-anchor="middle" x="1801" y="-175.5" font-family="Helvetica,sans-Serif" font-size="10.00">mini/integrator/element.hpp</text>
</a>
</g>
</g>
<!-- Node34&#45;&gt;Node35 -->
<g id="edge69" class="edge">
<title>Node34&#45;&gt;Node35</title>
<path fill="none" stroke="midnightblue" d="M1537.6,-224.44C1593,-214.89 1682.64,-199.42 1741.71,-189.23"/>
<polygon fill="midnightblue" stroke="midnightblue" points="1742.38,-192.67 1751.64,-187.52 1741.19,-185.77 1742.38,-192.67"/>
</g>
<!-- Node36 -->
<g id="node36" class="node">
<title>Node36</title>
<g id="a_node36"><a xlink:href="function_8hpp.html" target="_top" xlink:title=" ">
<polygon fill="white" stroke="black" points="1096.5,-112.5 1096.5,-131.5 1249.5,-131.5 1249.5,-112.5 1096.5,-112.5"/>
<text text-anchor="middle" x="1173" y="-119.5" font-family="Helvetica,sans-Serif" font-size="10.00">mini/integrator/function.hpp</text>
</a>
</g>
</g>
<!-- Node34&#45;&gt;Node36 -->
<g id="edge72" class="edge">
<title>Node34&#45;&gt;Node36</title>
<path fill="none" stroke="midnightblue" d="M1463.54,-224.46C1407.84,-205.01 1271.38,-157.36 1207.3,-134.98"/>
<polygon fill="midnightblue" stroke="midnightblue" points="1208.25,-131.6 1197.66,-131.61 1205.94,-138.21 1208.25,-131.6"/>
</g>
<!-- Node35&#45;&gt;Node27 -->
<g id="edge70" class="edge">
<title>Node35&#45;&gt;Node27</title>
<path fill="none" stroke="midnightblue" d="M1783.01,-168.32C1764.96,-159.62 1736.95,-146.12 1716.2,-136.11"/>
<polygon fill="midnightblue" stroke="midnightblue" points="1717.48,-132.84 1706.95,-131.65 1714.44,-139.15 1717.48,-132.84"/>
</g>
<!-- Node35&#45;&gt;Node30 -->
<g id="edge71" class="edge">
<title>Node35&#45;&gt;Node30</title>
<path fill="none" stroke="midnightblue" d="M1799.08,-168.48C1795.9,-155.55 1788.7,-130.5 1777,-112 1770.02,-100.97 1759.98,-90.44 1751.25,-82.34"/>
<polygon fill="midnightblue" stroke="midnightblue" points="1753.52,-79.68 1743.73,-75.64 1748.87,-84.9 1753.52,-79.68"/>
</g>
<!-- Node36&#45;&gt;Node2 -->
<g id="edge73" class="edge">
<title>Node36&#45;&gt;Node2</title>
<path fill="none" stroke="midnightblue" d="M1197.24,-112.44C1222.87,-103.4 1263.49,-89.06 1292.24,-78.92"/>
<polygon fill="midnightblue" stroke="midnightblue" points="1293.61,-82.15 1301.87,-75.52 1291.28,-75.54 1293.61,-82.15"/>
</g>
<!-- Node36&#45;&gt;Node17 -->
<g id="edge76" class="edge">
<title>Node36&#45;&gt;Node17</title>
<path fill="none" stroke="midnightblue" d="M1096.15,-116.28C912.43,-104.99 453.65,-76.81 326.9,-69.02"/>
<polygon fill="midnightblue" stroke="midnightblue" points="326.87,-65.51 316.68,-68.39 326.44,-72.5 326.87,-65.51"/>
</g>
<!-- Node36&#45;&gt;Node20 -->
<g id="edge74" class="edge">
<title>Node36&#45;&gt;Node20</title>
<path fill="none" stroke="midnightblue" d="M1096.07,-115.56C1060.97,-109.89 1020.54,-98.54 990,-76 974.15,-64.3 963.5,-44.07 957.39,-29.27"/>
<polygon fill="midnightblue" stroke="midnightblue" points="960.56,-27.76 953.74,-19.66 954.02,-30.25 960.56,-27.76"/>
</g>
<!-- Node36&#45;&gt;Node22 -->
<g id="edge77" class="edge">
<title>Node36&#45;&gt;Node22</title>
<path fill="none" stroke="midnightblue" d="M1155.33,-112.32C1137.61,-103.62 1110.1,-90.12 1089.71,-80.11"/>
<polygon fill="midnightblue" stroke="midnightblue" points="1091.15,-76.92 1080.63,-75.65 1088.06,-83.2 1091.15,-76.92"/>
</g>
<!-- Node36&#45;&gt;Node29 -->
<g id="edge75" class="edge">
<title>Node36&#45;&gt;Node29</title>
<path fill="none" stroke="midnightblue" d="M1249.82,-115.92C1332.2,-109.69 1466.62,-97.24 1581,-76 1615.34,-69.62 1623.07,-64.28 1657,-56 1710.23,-43.01 1771.77,-29.37 1812.37,-20.56"/>
<polygon fill="midnightblue" stroke="midnightblue" points="1813.19,-23.96 1822.23,-18.43 1811.71,-17.12 1813.19,-23.96"/>
</g>
<!-- Node37&#45;&gt;Node2 -->
<g id="edge80" class="edge">
<title>Node37&#45;&gt;Node2</title>
<path fill="none" stroke="midnightblue" d="M1114.06,-170.99C1177.98,-164.53 1264.27,-152.34 1292,-132 1307.37,-120.73 1316.39,-100.42 1321.23,-85.49"/>
<polygon fill="midnightblue" stroke="midnightblue" points="1324.62,-86.36 1324.05,-75.78 1317.9,-84.41 1324.62,-86.36"/>
</g>
<!-- Node37&#45;&gt;Node7 -->
<g id="edge82" class="edge">
<title>Node37&#45;&gt;Node7</title>
<path fill="none" stroke="midnightblue" d="M1024.42,-168.32C1009,-159.74 985.19,-146.49 967.29,-136.52"/>
<polygon fill="midnightblue" stroke="midnightblue" points="968.99,-133.46 958.55,-131.65 965.58,-139.58 968.99,-133.46"/>
</g>
<!-- Node37&#45;&gt;Node20 -->
<g id="edge81" class="edge">
<title>Node37&#45;&gt;Node20</title>
<path fill="none" stroke="midnightblue" d="M1031.87,-168.29C1016.79,-151.66 984.45,-113.7 967,-76 960.13,-61.17 955.98,-43.02 953.64,-29.67"/>
<polygon fill="midnightblue" stroke="midnightblue" points="957.09,-29.1 952.07,-19.77 950.18,-30.19 957.09,-29.1"/>
</g>
</g>
</svg>
