<?xml version="1.0" encoding="UTF-8" standalone="no"?>
<!DOCTYPE svg PUBLIC "-//W3C//DTD SVG 1.1//EN"
 "http://www.w3.org/Graphics/SVG/1.1/DTD/svg11.dtd">
<!-- Generated by graphviz version 2.43.0 (0)
 -->
<!-- Title: include/mini/limiter/reconstruct.hpp Pages: 1 -->
<svg width="793pt" height="207pt"
 viewBox="0.00 0.00 793.17 207.00" xmlns="http://www.w3.org/2000/svg" xmlns:xlink="http://www.w3.org/1999/xlink">
<g id="graph0" class="graph" transform="scale(1 1) rotate(0) translate(4 203)">
<title>include/mini/limiter/reconstruct.hpp</title>
<polygon fill="white" stroke="transparent" points="-4,4 -4,-203 789.17,-203 789.17,4 -4,4"/>
<!-- Node1 -->
<g id="node1" class="node">
<title>Node1</title>
<g id="a_node1"><a xlink:title=" ">
<polygon fill="#bfbfbf" stroke="black" points="423.67,-168.5 423.67,-198.5 535.67,-198.5 535.67,-168.5 423.67,-168.5"/>
<text text-anchor="start" x="431.67" y="-186.5" font-family="Helvetica,sans-Serif" font-size="10.00">include/mini/limiter</text>
<text text-anchor="middle" x="479.67" y="-175.5" font-family="Helvetica,sans-Serif" font-size="10.00">/reconstruct.hpp</text>
</a>
</g>
</g>
<!-- Node2 -->
<g id="node2" class="node">
<title>Node2</title>
<g id="a_node2"><a xlink:title=" ">
<polygon fill="white" stroke="#bfbfbf" points="13.67,-56.5 13.67,-75.5 65.67,-75.5 65.67,-56.5 13.67,-56.5"/>
<text text-anchor="middle" x="39.67" y="-63.5" font-family="Helvetica,sans-Serif" font-size="10.00">cassert</text>
</a>
</g>
</g>
<!-- Node1&#45;&gt;Node2 -->
<g id="edge1" class="edge">
<title>Node1&#45;&gt;Node2</title>
<path fill="none" stroke="midnightblue" d="M423.31,-173.19C372.53,-164.31 296.03,-149.67 230.67,-132 173.55,-116.56 108.66,-93.2 71.12,-79.09"/>
<polygon fill="midnightblue" stroke="midnightblue" points="72.32,-75.8 61.73,-75.54 69.85,-82.35 72.32,-75.8"/>
</g>
<!-- Node3 -->
<g id="node3" class="node">
<title>Node3</title>
<g id="a_node3"><a xlink:title=" ">
<polygon fill="white" stroke="#bfbfbf" points="70.17,-0.5 70.17,-19.5 117.17,-19.5 117.17,-0.5 70.17,-0.5"/>
<text text-anchor="middle" x="93.67" y="-7.5" font-family="Helvetica,sans-Serif" font-size="10.00">cmath</text>
</a>
</g>
</g>
<!-- Node1&#45;&gt;Node3 -->
<g id="edge2" class="edge">
<title>Node1&#45;&gt;Node3</title>
<path fill="none" stroke="midnightblue" d="M423.27,-178.96C308.12,-170.38 52.77,-143.94 4.67,-76 -13.47,-50.39 28.18,-30.91 60.44,-20.22"/>
<polygon fill="midnightblue" stroke="midnightblue" points="61.59,-23.53 70.07,-17.19 59.48,-16.85 61.59,-23.53"/>
</g>
<!-- Node4 -->
<g id="node4" class="node">
<title>Node4</title>
<g id="a_node4"><a xlink:title=" ">
<polygon fill="white" stroke="#bfbfbf" points="399.67,-0.5 399.67,-19.5 463.67,-19.5 463.67,-0.5 399.67,-0.5"/>
<text text-anchor="middle" x="431.67" y="-7.5" font-family="Helvetica,sans-Serif" font-size="10.00">algorithm</text>
</a>
</g>
</g>
<!-- Node1&#45;&gt;Node4 -->
<g id="edge3" class="edge">
<title>Node1&#45;&gt;Node4</title>
<path fill="none" stroke="midnightblue" d="M488.36,-168.24C502.08,-143.74 525.18,-92.75 504.67,-56 496.51,-41.39 481.45,-30.94 467.11,-23.8"/>
<polygon fill="midnightblue" stroke="midnightblue" points="468.43,-20.56 457.88,-19.59 465.52,-26.92 468.43,-20.56"/>
</g>
<!-- Node5 -->
<g id="node5" class="node">
<title>Node5</title>
<g id="a_node5"><a xlink:title=" ">
<polygon fill="white" stroke="#bfbfbf" points="526.67,-112.5 526.67,-131.5 582.67,-131.5 582.67,-112.5 526.67,-112.5"/>
<text text-anchor="middle" x="554.67" y="-119.5" font-family="Helvetica,sans-Serif" font-size="10.00">iomanip</text>
</a>
</g>
</g>
<!-- Node1&#45;&gt;Node5 -->
<g id="edge4" class="edge">
<title>Node1&#45;&gt;Node5</title>
<path fill="none" stroke="midnightblue" d="M497.44,-168.4C509.01,-159.22 524.09,-147.26 535.86,-137.92"/>
<polygon fill="midnightblue" stroke="midnightblue" points="538.1,-140.61 543.75,-131.66 533.75,-135.13 538.1,-140.61"/>
</g>
<!-- Node6 -->
<g id="node6" class="node">
<title>Node6</title>
<g id="a_node6"><a xlink:title=" ">
<polygon fill="white" stroke="#bfbfbf" points="347.67,-56.5 347.67,-75.5 407.67,-75.5 407.67,-56.5 347.67,-56.5"/>
<text text-anchor="middle" x="377.67" y="-63.5" font-family="Helvetica,sans-Serif" font-size="10.00">iostream</text>
</a>
</g>
</g>
<!-- Node1&#45;&gt;Node6 -->
<g id="edge5" class="edge">
<title>Node1&#45;&gt;Node6</title>
<path fill="none" stroke="midnightblue" d="M467.16,-168.34C448.2,-146.86 412.26,-106.17 392.18,-83.43"/>
<polygon fill="midnightblue" stroke="midnightblue" points="394.57,-80.85 385.32,-75.67 389.32,-85.48 394.57,-80.85"/>
</g>
<!-- Node7 -->
<g id="node7" class="node">
<title>Node7</title>
<g id="a_node7"><a xlink:title=" ">
<polygon fill="white" stroke="#bfbfbf" points="600.67,-112.5 600.67,-131.5 656.67,-131.5 656.67,-112.5 600.67,-112.5"/>
<text text-anchor="middle" x="628.67" y="-119.5" font-family="Helvetica,sans-Serif" font-size="10.00">numeric</text>
</a>
</g>
</g>
<!-- Node1&#45;&gt;Node7 -->
<g id="edge6" class="edge">
<title>Node1&#45;&gt;Node7</title>
<path fill="none" stroke="midnightblue" d="M514.98,-168.4C540.09,-158.37 573.51,-145.03 597.6,-135.4"/>
<polygon fill="midnightblue" stroke="midnightblue" points="599,-138.62 606.99,-131.66 596.4,-132.12 599,-138.62"/>
</g>
<!-- Node8 -->
<g id="node8" class="node">
<title>Node8</title>
<g id="a_node8"><a xlink:title=" ">
<polygon fill="white" stroke="#bfbfbf" points="426.17,-56.5 426.17,-75.5 495.17,-75.5 495.17,-56.5 426.17,-56.5"/>
<text text-anchor="middle" x="460.67" y="-63.5" font-family="Helvetica,sans-Serif" font-size="10.00">type_traits</text>
</a>
</g>
</g>
<!-- Node1&#45;&gt;Node8 -->
<g id="edge7" class="edge">
<title>Node1&#45;&gt;Node8</title>
<path fill="none" stroke="midnightblue" d="M477.34,-168.34C473.91,-147.53 467.52,-108.66 463.72,-85.58"/>
<polygon fill="midnightblue" stroke="midnightblue" points="467.17,-84.97 462.09,-75.67 460.26,-86.1 467.17,-84.97"/>
</g>
<!-- Node9 -->
<g id="node9" class="node">
<title>Node9</title>
<g id="a_node9"><a xlink:title=" ">
<polygon fill="white" stroke="#bfbfbf" points="675.17,-112.5 675.17,-131.5 720.17,-131.5 720.17,-112.5 675.17,-112.5"/>
<text text-anchor="middle" x="697.67" y="-119.5" font-family="Helvetica,sans-Serif" font-size="10.00">utility</text>
</a>
</g>
</g>
<!-- Node1&#45;&gt;Node9 -->
<g id="edge8" class="edge">
<title>Node1&#45;&gt;Node9</title>
<path fill="none" stroke="midnightblue" d="M531.82,-168.48C566.86,-159.02 614.34,-146.15 665.1,-132.14"/>
<polygon fill="midnightblue" stroke="midnightblue" points="666.24,-135.45 674.95,-129.42 664.38,-128.71 666.24,-135.45"/>
</g>
<!-- Node10 -->
<g id="node10" class="node">
<title>Node10</title>
<g id="a_node10"><a xlink:title=" ">
<polygon fill="white" stroke="#bfbfbf" points="738.17,-112.5 738.17,-131.5 785.17,-131.5 785.17,-112.5 738.17,-112.5"/>
<text text-anchor="middle" x="761.67" y="-119.5" font-family="Helvetica,sans-Serif" font-size="10.00">vector</text>
</a>
</g>
</g>
<!-- Node1&#45;&gt;Node10 -->
<g id="edge9" class="edge">
<title>Node1&#45;&gt;Node10</title>
<path fill="none" stroke="midnightblue" d="M536.03,-172.36C584.59,-163.35 656.75,-149.28 727.92,-132.3"/>
<polygon fill="midnightblue" stroke="midnightblue" points="729.05,-135.63 737.95,-129.88 727.41,-128.82 729.05,-135.63"/>
</g>
<!-- Node11 -->
<g id="node11" class="node">
<title>Node11</title>
<g id="a_node11"><a xlink:href="taylor_8hpp.html" target="_top" xlink:title=" ">
<polygon fill="white" stroke="black" points="240.17,-112.5 240.17,-131.5 359.17,-131.5 359.17,-112.5 240.17,-112.5"/>
<text text-anchor="middle" x="299.67" y="-119.5" font-family="Helvetica,sans-Serif" font-size="10.00">mini/basis/taylor.hpp</text>
</a>
</g>
</g>
<!-- Node1&#45;&gt;Node11 -->
<g id="edge10" class="edge">
<title>Node1&#45;&gt;Node11</title>
<path fill="none" stroke="midnightblue" d="M437.01,-168.4C406.04,-158.16 364.62,-144.47 335.39,-134.81"/>
<polygon fill="midnightblue" stroke="midnightblue" points="336.19,-131.39 325.6,-131.57 333.99,-138.03 336.19,-131.39"/>
</g>
<!-- Node11&#45;&gt;Node2 -->
<g id="edge12" class="edge">
<title>Node11&#45;&gt;Node2</title>
<path fill="none" stroke="midnightblue" d="M256.62,-112.45C212.23,-103.58 141.03,-89.18 79.67,-76 78.41,-75.73 77.14,-75.46 75.85,-75.18"/>
<polygon fill="midnightblue" stroke="midnightblue" points="76.42,-71.72 65.9,-72.98 74.91,-78.55 76.42,-71.72"/>
</g>
<!-- Node11&#45;&gt;Node3 -->
<g id="edge13" class="edge">
<title>Node11&#45;&gt;Node3</title>
<path fill="none" stroke="midnightblue" d="M239.84,-113.2C192.29,-105.84 130.86,-93.33 112.67,-76 100.18,-64.1 95.76,-44.48 94.27,-29.9"/>
<polygon fill="midnightblue" stroke="midnightblue" points="97.74,-29.29 93.6,-19.54 90.75,-29.74 97.74,-29.29"/>
</g>
<!-- Node11&#45;&gt;Node6 -->
<g id="edge14" class="edge">
<title>Node11&#45;&gt;Node6</title>
<path fill="none" stroke="midnightblue" d="M312.2,-112.32C324.25,-103.98 342.69,-91.21 356.94,-81.35"/>
<polygon fill="midnightblue" stroke="midnightblue" points="358.94,-84.22 365.17,-75.65 354.95,-78.47 358.94,-84.22"/>
</g>
<!-- Node11&#45;&gt;Node8 -->
<g id="edge15" class="edge">
<title>Node11&#45;&gt;Node8</title>
<path fill="none" stroke="midnightblue" d="M325.18,-112.44C352.26,-103.36 395.26,-88.94 425.54,-78.78"/>
<polygon fill="midnightblue" stroke="midnightblue" points="426.91,-82.01 435.28,-75.52 424.68,-75.38 426.91,-82.01"/>
</g>
<!-- Node12 -->
<g id="node12" class="node">
<title>Node12</title>
<g id="a_node12"><a xlink:title=" ">
<polygon fill="white" stroke="#bfbfbf" points="269.67,-56.5 269.67,-75.5 329.67,-75.5 329.67,-56.5 269.67,-56.5"/>
<text text-anchor="middle" x="299.67" y="-63.5" font-family="Helvetica,sans-Serif" font-size="10.00">concepts</text>
</a>
</g>
</g>
<!-- Node11&#45;&gt;Node12 -->
<g id="edge11" class="edge">
<title>Node11&#45;&gt;Node12</title>
<path fill="none" stroke="midnightblue" d="M299.67,-112.08C299.67,-105.01 299.67,-94.86 299.67,-85.99"/>
<polygon fill="midnightblue" stroke="midnightblue" points="303.17,-85.75 299.67,-75.75 296.17,-85.75 303.17,-85.75"/>
</g>
<!-- Node13 -->
<g id="node13" class="node">
<title>Node13</title>
<g id="a_node13"><a xlink:href="algebra_2eigen_8hpp.html" target="_top" xlink:title=" ">
<polygon fill="white" stroke="black" points="122.17,-56.5 122.17,-75.5 251.17,-75.5 251.17,-56.5 122.17,-56.5"/>
<text text-anchor="middle" x="186.67" y="-63.5" font-family="Helvetica,sans-Serif" font-size="10.00">mini/algebra/eigen.hpp</text>
</a>
</g>
</g>
<!-- Node11&#45;&gt;Node13 -->
<g id="edge16" class="edge">
<title>Node11&#45;&gt;Node13</title>
<path fill="none" stroke="midnightblue" d="M281.76,-112.44C263.41,-103.68 234.66,-89.94 213.57,-79.86"/>
<polygon fill="midnightblue" stroke="midnightblue" points="215.02,-76.67 204.49,-75.52 212,-82.99 215.02,-76.67"/>
</g>
<!-- Node13&#45;&gt;Node3 -->
<g id="edge18" class="edge">
<title>Node13&#45;&gt;Node3</title>
<path fill="none" stroke="midnightblue" d="M171.73,-56.32C157.08,-47.82 134.53,-34.73 117.43,-24.8"/>
<polygon fill="midnightblue" stroke="midnightblue" points="118.98,-21.65 108.57,-19.65 115.46,-27.7 118.98,-21.65"/>
</g>
<!-- Node13&#45;&gt;Node4 -->
<g id="edge17" class="edge">
<title>Node13&#45;&gt;Node4</title>
<path fill="none" stroke="midnightblue" d="M225.49,-56.44C270.27,-46.57 343.63,-30.4 389.7,-20.25"/>
<polygon fill="midnightblue" stroke="midnightblue" points="390.65,-23.62 399.66,-18.05 389.15,-16.79 390.65,-23.62"/>
</g>
<!-- Node14 -->
<g id="node14" class="node">
<title>Node14</title>
<g id="a_node14"><a xlink:title=" ">
<polygon fill="white" stroke="#bfbfbf" points="148.17,-0.5 148.17,-19.5 197.17,-19.5 197.17,-0.5 148.17,-0.5"/>
<text text-anchor="middle" x="172.67" y="-7.5" font-family="Helvetica,sans-Serif" font-size="10.00">cstdlib</text>
</a>
</g>
</g>
<!-- Node13&#45;&gt;Node14 -->
<g id="edge19" class="edge">
<title>Node13&#45;&gt;Node14</title>
<path fill="none" stroke="midnightblue" d="M184.36,-56.08C182.5,-48.93 179.83,-38.64 177.51,-29.69"/>
<polygon fill="midnightblue" stroke="midnightblue" points="180.83,-28.55 174.94,-19.75 174.06,-30.31 180.83,-28.55"/>
</g>
<!-- Node15 -->
<g id="node15" class="node">
<title>Node15</title>
<g id="a_node15"><a xlink:title=" ">
<polygon fill="white" stroke="#bfbfbf" points="215.67,-0.5 215.67,-19.5 289.67,-19.5 289.67,-0.5 215.67,-0.5"/>
<text text-anchor="middle" x="252.67" y="-7.5" font-family="Helvetica,sans-Serif" font-size="10.00">Eigen/Eigen</text>
</a>
</g>
</g>
<!-- Node13&#45;&gt;Node15 -->
<g id="edge20" class="edge">
<title>Node13&#45;&gt;Node15</title>
<path fill="none" stroke="midnightblue" d="M197.27,-56.32C207.12,-48.26 222.02,-36.08 233.88,-26.37"/>
<polygon fill="midnightblue" stroke="midnightblue" points="236.35,-28.88 241.87,-19.83 231.91,-23.46 236.35,-28.88"/>
</g>
</g>
</svg>
