<?xml version="1.0" encoding="UTF-8" standalone="no"?>
<!DOCTYPE svg PUBLIC "-//W3C//DTD SVG 1.1//EN"
 "http://www.w3.org/Graphics/SVG/1.1/DTD/svg11.dtd">
<!-- Generated by graphviz version 2.43.0 (0)
 -->
<!-- Title: include/mini/riemann/euler/eigen.hpp Pages: 1 -->
<svg width="500pt" height="218pt"
 viewBox="0.00 0.00 500.00 218.00" xmlns="http://www.w3.org/2000/svg" xmlns:xlink="http://www.w3.org/1999/xlink">
<g id="graph0" class="graph" transform="scale(1 1) rotate(0) translate(4 214)">
<title>include/mini/riemann/euler/eigen.hpp</title>
<polygon fill="white" stroke="transparent" points="-4,4 -4,-214 496,-214 496,4 -4,4"/>
<!-- Node1 -->
<g id="node1" class="node">
<title>Node1</title>
<g id="a_node1"><a xlink:title=" ">
<polygon fill="#bfbfbf" stroke="black" points="188,-179.5 188,-209.5 308,-209.5 308,-179.5 188,-179.5"/>
<text text-anchor="start" x="196" y="-197.5" font-family="Helvetica,sans-Serif" font-size="10.00">include/mini/riemann</text>
<text text-anchor="middle" x="248" y="-186.5" font-family="Helvetica,sans-Serif" font-size="10.00">/euler/eigen.hpp</text>
</a>
</g>
</g>
<!-- Node2 -->
<g id="node2" class="node">
<title>Node2</title>
<g id="a_node2"><a xlink:href="algebra_2eigen_8hpp.html" target="_top" xlink:title=" ">
<polygon fill="white" stroke="black" points="108.5,-56.5 108.5,-75.5 237.5,-75.5 237.5,-56.5 108.5,-56.5"/>
<text text-anchor="middle" x="173" y="-63.5" font-family="Helvetica,sans-Serif" font-size="10.00">mini/algebra/eigen.hpp</text>
</a>
</g>
</g>
<!-- Node1&#45;&gt;Node2 -->
<g id="edge1" class="edge">
<title>Node1&#45;&gt;Node2</title>
<path fill="none" stroke="midnightblue" d="M239.69,-179.48C225.95,-156.31 198.54,-110.07 183.49,-84.69"/>
<polygon fill="midnightblue" stroke="midnightblue" points="186.32,-82.61 178.21,-75.79 180.3,-86.18 186.32,-82.61"/>
</g>
<!-- Node7 -->
<g id="node7" class="node">
<title>Node7</title>
<g id="a_node7"><a xlink:href="types_8hpp.html" target="_top" xlink:title=" ">
<polygon fill="white" stroke="black" points="240,-112.5 240,-142.5 350,-142.5 350,-112.5 240,-112.5"/>
<text text-anchor="start" x="248" y="-130.5" font-family="Helvetica,sans-Serif" font-size="10.00">mini/riemann/euler</text>
<text text-anchor="middle" x="295" y="-119.5" font-family="Helvetica,sans-Serif" font-size="10.00">/types.hpp</text>
</a>
</g>
</g>
<!-- Node1&#45;&gt;Node7 -->
<g id="edge6" class="edge">
<title>Node1&#45;&gt;Node7</title>
<path fill="none" stroke="midnightblue" d="M258.2,-179.4C264.23,-171.05 272.02,-160.29 278.87,-150.81"/>
<polygon fill="midnightblue" stroke="midnightblue" points="281.8,-152.73 284.82,-142.58 276.13,-148.63 281.8,-152.73"/>
</g>
<!-- Node3 -->
<g id="node3" class="node">
<title>Node3</title>
<g id="a_node3"><a xlink:title=" ">
<polygon fill="white" stroke="#bfbfbf" points="0,-0.5 0,-19.5 64,-19.5 64,-0.5 0,-0.5"/>
<text text-anchor="middle" x="32" y="-7.5" font-family="Helvetica,sans-Serif" font-size="10.00">algorithm</text>
</a>
</g>
</g>
<!-- Node2&#45;&gt;Node3 -->
<g id="edge2" class="edge">
<title>Node2&#45;&gt;Node3</title>
<path fill="none" stroke="midnightblue" d="M150.66,-56.44C127.25,-47.48 90.26,-33.31 63.81,-23.18"/>
<polygon fill="midnightblue" stroke="midnightblue" points="64.83,-19.82 54.24,-19.52 62.32,-26.36 64.83,-19.82"/>
</g>
<!-- Node4 -->
<g id="node4" class="node">
<title>Node4</title>
<g id="a_node4"><a xlink:title=" ">
<polygon fill="white" stroke="#bfbfbf" points="242.5,-0.5 242.5,-19.5 289.5,-19.5 289.5,-0.5 242.5,-0.5"/>
<text text-anchor="middle" x="266" y="-7.5" font-family="Helvetica,sans-Serif" font-size="10.00">cmath</text>
</a>
</g>
</g>
<!-- Node2&#45;&gt;Node4 -->
<g id="edge3" class="edge">
<title>Node2&#45;&gt;Node4</title>
<path fill="none" stroke="midnightblue" d="M187.94,-56.32C202.59,-47.82 225.13,-34.73 242.24,-24.8"/>
<polygon fill="midnightblue" stroke="midnightblue" points="244.2,-27.7 251.1,-19.65 240.69,-21.65 244.2,-27.7"/>
</g>
<!-- Node5 -->
<g id="node5" class="node">
<title>Node5</title>
<g id="a_node5"><a xlink:title=" ">
<polygon fill="white" stroke="#bfbfbf" points="82.5,-0.5 82.5,-19.5 131.5,-19.5 131.5,-0.5 82.5,-0.5"/>
<text text-anchor="middle" x="107" y="-7.5" font-family="Helvetica,sans-Serif" font-size="10.00">cstdlib</text>
</a>
</g>
</g>
<!-- Node2&#45;&gt;Node5 -->
<g id="edge4" class="edge">
<title>Node2&#45;&gt;Node5</title>
<path fill="none" stroke="midnightblue" d="M162.4,-56.32C152.54,-48.26 137.65,-36.08 125.78,-26.37"/>
<polygon fill="midnightblue" stroke="midnightblue" points="127.75,-23.46 117.8,-19.83 123.32,-28.88 127.75,-23.46"/>
</g>
<!-- Node6 -->
<g id="node6" class="node">
<title>Node6</title>
<g id="a_node6"><a xlink:title=" ">
<polygon fill="white" stroke="#bfbfbf" points="150,-0.5 150,-19.5 224,-19.5 224,-0.5 150,-0.5"/>
<text text-anchor="middle" x="187" y="-7.5" font-family="Helvetica,sans-Serif" font-size="10.00">Eigen/Eigen</text>
</a>
</g>
</g>
<!-- Node2&#45;&gt;Node6 -->
<g id="edge5" class="edge">
<title>Node2&#45;&gt;Node6</title>
<path fill="none" stroke="midnightblue" d="M175.31,-56.08C177.17,-48.93 179.84,-38.64 182.15,-29.69"/>
<polygon fill="midnightblue" stroke="midnightblue" points="185.61,-30.31 184.73,-19.75 178.83,-28.55 185.61,-30.31"/>
</g>
<!-- Node7&#45;&gt;Node2 -->
<g id="edge11" class="edge">
<title>Node7&#45;&gt;Node2</title>
<path fill="none" stroke="midnightblue" d="M266.09,-112.4C245.98,-102.59 219.38,-89.62 199.76,-80.05"/>
<polygon fill="midnightblue" stroke="midnightblue" points="201.27,-76.9 190.75,-75.66 198.21,-83.19 201.27,-76.9"/>
</g>
<!-- Node7&#45;&gt;Node4 -->
<g id="edge9" class="edge">
<title>Node7&#45;&gt;Node4</title>
<path fill="none" stroke="midnightblue" d="M291.44,-112.34C286.22,-91.53 276.46,-52.66 270.67,-29.58"/>
<polygon fill="midnightblue" stroke="midnightblue" points="274.01,-28.52 268.18,-19.67 267.22,-30.22 274.01,-28.52"/>
</g>
<!-- Node8 -->
<g id="node8" class="node">
<title>Node8</title>
<g id="a_node8"><a xlink:title=" ">
<polygon fill="white" stroke="#bfbfbf" points="294,-56.5 294,-75.5 354,-75.5 354,-56.5 294,-56.5"/>
<text text-anchor="middle" x="324" y="-63.5" font-family="Helvetica,sans-Serif" font-size="10.00">concepts</text>
</a>
</g>
</g>
<!-- Node7&#45;&gt;Node8 -->
<g id="edge7" class="edge">
<title>Node7&#45;&gt;Node8</title>
<path fill="none" stroke="midnightblue" d="M301.87,-112.4C305.91,-104.11 311.06,-93.55 315.37,-84.71"/>
<polygon fill="midnightblue" stroke="midnightblue" points="318.55,-86.18 319.78,-75.66 312.25,-83.11 318.55,-86.18"/>
</g>
<!-- Node9 -->
<g id="node9" class="node">
<title>Node9</title>
<g id="a_node9"><a xlink:title=" ">
<polygon fill="white" stroke="#bfbfbf" points="372,-56.5 372,-75.5 424,-75.5 424,-56.5 372,-56.5"/>
<text text-anchor="middle" x="398" y="-63.5" font-family="Helvetica,sans-Serif" font-size="10.00">cassert</text>
</a>
</g>
</g>
<!-- Node7&#45;&gt;Node9 -->
<g id="edge8" class="edge">
<title>Node7&#45;&gt;Node9</title>
<path fill="none" stroke="midnightblue" d="M319.41,-112.4C335.92,-102.86 357.62,-90.32 374.04,-80.84"/>
<polygon fill="midnightblue" stroke="midnightblue" points="376.1,-83.69 383.01,-75.66 372.6,-77.63 376.1,-83.69"/>
</g>
<!-- Node10 -->
<g id="node10" class="node">
<title>Node10</title>
<g id="a_node10"><a xlink:title=" ">
<polygon fill="white" stroke="#bfbfbf" points="442,-56.5 442,-75.5 492,-75.5 492,-56.5 442,-56.5"/>
<text text-anchor="middle" x="467" y="-63.5" font-family="Helvetica,sans-Serif" font-size="10.00">cstring</text>
</a>
</g>
</g>
<!-- Node7&#45;&gt;Node10 -->
<g id="edge10" class="edge">
<title>Node7&#45;&gt;Node10</title>
<path fill="none" stroke="midnightblue" d="M335.76,-112.4C365.22,-102.21 404.59,-88.59 432.5,-78.93"/>
<polygon fill="midnightblue" stroke="midnightblue" points="433.92,-82.15 442.22,-75.57 431.63,-75.53 433.92,-82.15"/>
</g>
</g>
</svg>
