<?xml version="1.0" encoding="UTF-8" standalone="no"?>
<!DOCTYPE svg PUBLIC "-//W3C//DTD SVG 1.1//EN"
 "http://www.w3.org/Graphics/SVG/1.1/DTD/svg11.dtd">
<!-- Generated by graphviz version 2.43.0 (0)
 -->
<!-- Title: include/mini/temporal/rk.hpp Pages: 1 -->
<svg width="297pt" height="207pt"
 viewBox="0.00 0.00 297.00 207.00" xmlns="http://www.w3.org/2000/svg" xmlns:xlink="http://www.w3.org/1999/xlink">
<g id="graph0" class="graph" transform="scale(1 1) rotate(0) translate(4 203)">
<title>include/mini/temporal/rk.hpp</title>
<polygon fill="white" stroke="transparent" points="-4,4 -4,-203 293,-203 293,4 -4,4"/>
<!-- Node1 -->
<g id="node1" class="node">
<title>Node1</title>
<g id="a_node1"><a xlink:title=" ">
<polygon fill="#bfbfbf" stroke="black" points="22,-168.5 22,-198.5 146,-198.5 146,-168.5 22,-168.5"/>
<text text-anchor="start" x="30" y="-186.5" font-family="Helvetica,sans-Serif" font-size="10.00">include/mini/temporal</text>
<text text-anchor="middle" x="84" y="-175.5" font-family="Helvetica,sans-Serif" font-size="10.00">/rk.hpp</text>
</a>
</g>
</g>
<!-- Node2 -->
<g id="node2" class="node">
<title>Node2</title>
<g id="a_node2"><a xlink:href="ode_8hpp.html" target="_top" xlink:title=" ">
<polygon fill="white" stroke="black" points="20,-112.5 20,-131.5 148,-131.5 148,-112.5 20,-112.5"/>
<text text-anchor="middle" x="84" y="-119.5" font-family="Helvetica,sans-Serif" font-size="10.00">mini/temporal/ode.hpp</text>
</a>
</g>
</g>
<!-- Node1&#45;&gt;Node2 -->
<g id="edge1" class="edge">
<title>Node1&#45;&gt;Node2</title>
<path fill="none" stroke="midnightblue" d="M84,-168.4C84,-160.47 84,-150.46 84,-141.86"/>
<polygon fill="midnightblue" stroke="midnightblue" points="87.5,-141.66 84,-131.66 80.5,-141.66 87.5,-141.66"/>
</g>
<!-- Node3 -->
<g id="node3" class="node">
<title>Node3</title>
<g id="a_node3"><a xlink:title=" ">
<polygon fill="white" stroke="#bfbfbf" points="4,-56.5 4,-75.5 56,-75.5 56,-56.5 4,-56.5"/>
<text text-anchor="middle" x="30" y="-63.5" font-family="Helvetica,sans-Serif" font-size="10.00">cassert</text>
</a>
</g>
</g>
<!-- Node2&#45;&gt;Node3 -->
<g id="edge2" class="edge">
<title>Node2&#45;&gt;Node3</title>
<path fill="none" stroke="midnightblue" d="M75.08,-112.08C67.22,-104.22 55.57,-92.57 46.08,-83.08"/>
<polygon fill="midnightblue" stroke="midnightblue" points="48.3,-80.35 38.75,-75.75 43.35,-85.3 48.3,-80.35"/>
</g>
<!-- Node4 -->
<g id="node4" class="node">
<title>Node4</title>
<g id="a_node4"><a xlink:href="algebra_2eigen_8hpp.html" target="_top" xlink:title=" ">
<polygon fill="white" stroke="black" points="74.5,-56.5 74.5,-75.5 203.5,-75.5 203.5,-56.5 74.5,-56.5"/>
<text text-anchor="middle" x="139" y="-63.5" font-family="Helvetica,sans-Serif" font-size="10.00">mini/algebra/eigen.hpp</text>
</a>
</g>
</g>
<!-- Node2&#45;&gt;Node4 -->
<g id="edge3" class="edge">
<title>Node2&#45;&gt;Node4</title>
<path fill="none" stroke="midnightblue" d="M93.08,-112.08C101.17,-104.14 113.2,-92.34 122.91,-82.8"/>
<polygon fill="midnightblue" stroke="midnightblue" points="125.4,-85.25 130.09,-75.75 120.5,-80.26 125.4,-85.25"/>
</g>
<!-- Node5 -->
<g id="node5" class="node">
<title>Node5</title>
<g id="a_node5"><a xlink:title=" ">
<polygon fill="white" stroke="#bfbfbf" points="0,-0.5 0,-19.5 64,-19.5 64,-0.5 0,-0.5"/>
<text text-anchor="middle" x="32" y="-7.5" font-family="Helvetica,sans-Serif" font-size="10.00">algorithm</text>
</a>
</g>
</g>
<!-- Node4&#45;&gt;Node5 -->
<g id="edge4" class="edge">
<title>Node4&#45;&gt;Node5</title>
<path fill="none" stroke="midnightblue" d="M121.81,-56.32C104.65,-47.66 78.05,-34.24 58.25,-24.25"/>
<polygon fill="midnightblue" stroke="midnightblue" points="59.65,-21.04 49.15,-19.65 56.5,-27.28 59.65,-21.04"/>
</g>
<!-- Node6 -->
<g id="node6" class="node">
<title>Node6</title>
<g id="a_node6"><a xlink:title=" ">
<polygon fill="white" stroke="#bfbfbf" points="82.5,-0.5 82.5,-19.5 129.5,-19.5 129.5,-0.5 82.5,-0.5"/>
<text text-anchor="middle" x="106" y="-7.5" font-family="Helvetica,sans-Serif" font-size="10.00">cmath</text>
</a>
</g>
</g>
<!-- Node4&#45;&gt;Node6 -->
<g id="edge5" class="edge">
<title>Node4&#45;&gt;Node6</title>
<path fill="none" stroke="midnightblue" d="M133.55,-56.08C128.99,-48.61 122.33,-37.72 116.71,-28.52"/>
<polygon fill="midnightblue" stroke="midnightblue" points="119.55,-26.46 111.35,-19.75 113.58,-30.11 119.55,-26.46"/>
</g>
<!-- Node7 -->
<g id="node7" class="node">
<title>Node7</title>
<g id="a_node7"><a xlink:title=" ">
<polygon fill="white" stroke="#bfbfbf" points="147.5,-0.5 147.5,-19.5 196.5,-19.5 196.5,-0.5 147.5,-0.5"/>
<text text-anchor="middle" x="172" y="-7.5" font-family="Helvetica,sans-Serif" font-size="10.00">cstdlib</text>
</a>
</g>
</g>
<!-- Node4&#45;&gt;Node7 -->
<g id="edge6" class="edge">
<title>Node4&#45;&gt;Node7</title>
<path fill="none" stroke="midnightblue" d="M144.45,-56.08C149.01,-48.61 155.67,-37.72 161.29,-28.52"/>
<polygon fill="midnightblue" stroke="midnightblue" points="164.42,-30.11 166.65,-19.75 158.45,-26.46 164.42,-30.11"/>
</g>
<!-- Node8 -->
<g id="node8" class="node">
<title>Node8</title>
<g id="a_node8"><a xlink:title=" ">
<polygon fill="white" stroke="#bfbfbf" points="215,-0.5 215,-19.5 289,-19.5 289,-0.5 215,-0.5"/>
<text text-anchor="middle" x="252" y="-7.5" font-family="Helvetica,sans-Serif" font-size="10.00">Eigen/Eigen</text>
</a>
</g>
</g>
<!-- Node4&#45;&gt;Node8 -->
<g id="edge7" class="edge">
<title>Node4&#45;&gt;Node8</title>
<path fill="none" stroke="midnightblue" d="M156.91,-56.44C175.25,-47.68 204.01,-33.94 225.09,-23.86"/>
<polygon fill="midnightblue" stroke="midnightblue" points="226.67,-26.99 234.18,-19.52 223.65,-20.67 226.67,-26.99"/>
</g>
</g>
</svg>
