<?xml version="1.0" encoding="UTF-8" standalone="no"?>
<!DOCTYPE svg PUBLIC "-//W3C//DTD SVG 1.1//EN"
 "http://www.w3.org/Graphics/SVG/1.1/DTD/svg11.dtd">
<!-- Generated by graphviz version 2.43.0 (0)
 -->
<!-- Title: include/mini/algebra/root.hpp Pages: 1 -->
<svg width="1429pt" height="508pt"
 viewBox="0.00 0.00 1429.00 508.00" xmlns="http://www.w3.org/2000/svg" xmlns:xlink="http://www.w3.org/1999/xlink">
<g id="graph0" class="graph" transform="scale(1 1) rotate(0) translate(4 504)">
<title>include/mini/algebra/root.hpp</title>
<polygon fill="white" stroke="transparent" points="-4,4 -4,-504 1425,-504 1425,4 -4,4"/>
<!-- Node1 -->
<g id="node1" class="node">
<title>Node1</title>
<g id="a_node1"><a xlink:title=" ">
<polygon fill="#bfbfbf" stroke="black" points="609.5,-469.5 609.5,-499.5 725.5,-499.5 725.5,-469.5 609.5,-469.5"/>
<text text-anchor="start" x="617.5" y="-487.5" font-family="Helvetica,sans-Serif" font-size="10.00">include/mini/algebra</text>
<text text-anchor="middle" x="667.5" y="-476.5" font-family="Helvetica,sans-Serif" font-size="10.00">/root.hpp</text>
</a>
</g>
</g>
<!-- Node2 -->
<g id="node2" class="node">
<title>Node2</title>
<g id="a_node2"><a xlink:href="coordinate_2element_8hpp.html" target="_top" xlink:title=" ">
<polygon fill="white" stroke="black" points="602,-402.5 602,-432.5 733,-432.5 733,-402.5 602,-402.5"/>
<text text-anchor="start" x="610" y="-420.5" font-family="Helvetica,sans-Serif" font-size="10.00">include/mini/coordinate</text>
<text text-anchor="middle" x="667.5" y="-409.5" font-family="Helvetica,sans-Serif" font-size="10.00">/element.hpp</text>
</a>
</g>
</g>
<!-- Node1&#45;&gt;Node2 -->
<g id="edge1" class="edge">
<title>Node1&#45;&gt;Node2</title>
<path fill="none" stroke="midnightblue" d="M667.5,-459.11C667.5,-450.15 667.5,-440.32 667.5,-432.58"/>
<polygon fill="midnightblue" stroke="midnightblue" points="664,-459.4 667.5,-469.4 671,-459.4 664,-459.4"/>
</g>
<!-- Node3 -->
<g id="node3" class="node">
<title>Node3</title>
<g id="a_node3"><a xlink:href="coordinate_2cell_8hpp.html" target="_top" xlink:title=" ">
<polygon fill="white" stroke="black" points="528,-335.5 528,-365.5 659,-365.5 659,-335.5 528,-335.5"/>
<text text-anchor="start" x="536" y="-353.5" font-family="Helvetica,sans-Serif" font-size="10.00">include/mini/coordinate</text>
<text text-anchor="middle" x="593.5" y="-342.5" font-family="Helvetica,sans-Serif" font-size="10.00">/cell.hpp</text>
</a>
</g>
</g>
<!-- Node2&#45;&gt;Node3 -->
<g id="edge2" class="edge">
<title>Node2&#45;&gt;Node3</title>
<path fill="none" stroke="midnightblue" d="M643.7,-395.6C632.53,-385.78 619.51,-374.34 609.53,-365.58"/>
<polygon fill="midnightblue" stroke="midnightblue" points="641.62,-398.43 651.44,-402.4 646.24,-393.17 641.62,-398.43"/>
</g>
<!-- Node4 -->
<g id="node4" class="node">
<title>Node4</title>
<g id="a_node4"><a xlink:href="coordinate_2hexahedron_8hpp.html" target="_top" xlink:title=" ">
<polygon fill="white" stroke="black" points="97,-268.5 97,-298.5 228,-298.5 228,-268.5 97,-268.5"/>
<text text-anchor="start" x="105" y="-286.5" font-family="Helvetica,sans-Serif" font-size="10.00">include/mini/coordinate</text>
<text text-anchor="middle" x="162.5" y="-275.5" font-family="Helvetica,sans-Serif" font-size="10.00">/hexahedron.hpp</text>
</a>
</g>
</g>
<!-- Node2&#45;&gt;Node4 -->
<g id="edge42" class="edge">
<title>Node2&#45;&gt;Node4</title>
<path fill="none" stroke="midnightblue" d="M591.55,-413.5C486.27,-408.33 302.21,-395.32 242.5,-366 211,-350.53 184.81,-317.49 171.65,-298.57"/>
<polygon fill="midnightblue" stroke="midnightblue" points="591.64,-417.01 601.8,-413.99 591.98,-410.02 591.64,-417.01"/>
</g>
<!-- Node7 -->
<g id="node7" class="node">
<title>Node7</title>
<g id="a_node7"><a xlink:href="polynomial_2hexahedron_8hpp.html" target="_top" xlink:title=" ">
<polygon fill="white" stroke="black" points="189.5,-134.5 189.5,-164.5 323.5,-164.5 323.5,-134.5 189.5,-134.5"/>
<text text-anchor="start" x="197.5" y="-152.5" font-family="Helvetica,sans-Serif" font-size="10.00">include/mini/polynomial</text>
<text text-anchor="middle" x="256.5" y="-141.5" font-family="Helvetica,sans-Serif" font-size="10.00">/hexahedron.hpp</text>
</a>
</g>
</g>
<!-- Node2&#45;&gt;Node7 -->
<g id="edge51" class="edge">
<title>Node2&#45;&gt;Node7</title>
<path fill="none" stroke="midnightblue" d="M591.68,-404.55C488.9,-386.65 313.76,-349.48 275.5,-299 244.89,-258.61 249.89,-193.59 254.01,-164.9"/>
<polygon fill="midnightblue" stroke="midnightblue" points="591.25,-408.03 601.7,-406.28 592.44,-401.13 591.25,-408.03"/>
</g>
<!-- Node11 -->
<g id="node11" class="node">
<title>Node11</title>
<g id="a_node11"><a xlink:href="coordinate_2pyramid_8hpp.html" target="_top" xlink:title=" ">
<polygon fill="white" stroke="black" points="285,-268.5 285,-298.5 416,-298.5 416,-268.5 285,-268.5"/>
<text text-anchor="start" x="293" y="-286.5" font-family="Helvetica,sans-Serif" font-size="10.00">include/mini/coordinate</text>
<text text-anchor="middle" x="350.5" y="-275.5" font-family="Helvetica,sans-Serif" font-size="10.00">/pyramid.hpp</text>
</a>
</g>
</g>
<!-- Node2&#45;&gt;Node11 -->
<g id="edge43" class="edge">
<title>Node2&#45;&gt;Node11</title>
<path fill="none" stroke="midnightblue" d="M600.98,-399.75C569.93,-391.08 532.78,-379.48 500.5,-366 453.46,-346.35 401.92,-316.32 373.16,-298.72"/>
<polygon fill="midnightblue" stroke="midnightblue" points="600.26,-403.18 610.83,-402.46 602.12,-396.43 600.26,-403.18"/>
</g>
<!-- Node13 -->
<g id="node13" class="node">
<title>Node13</title>
<g id="a_node13"><a xlink:href="coordinate_2tetrahedron_8hpp.html" target="_top" xlink:title=" ">
<polygon fill="white" stroke="black" points="434,-268.5 434,-298.5 565,-298.5 565,-268.5 434,-268.5"/>
<text text-anchor="start" x="442" y="-286.5" font-family="Helvetica,sans-Serif" font-size="10.00">include/mini/coordinate</text>
<text text-anchor="middle" x="499.5" y="-275.5" font-family="Helvetica,sans-Serif" font-size="10.00">/tetrahedron.hpp</text>
</a>
</g>
</g>
<!-- Node2&#45;&gt;Node13 -->
<g id="edge45" class="edge">
<title>Node2&#45;&gt;Node13</title>
<path fill="none" stroke="midnightblue" d="M591.88,-405.93C565.72,-398.69 538.28,-386.51 519.5,-366 502.48,-347.41 499.33,-316.73 499.08,-298.78"/>
<polygon fill="midnightblue" stroke="midnightblue" points="591.27,-409.38 601.83,-408.46 593,-402.6 591.27,-409.38"/>
</g>
<!-- Node15 -->
<g id="node15" class="node">
<title>Node15</title>
<g id="a_node15"><a xlink:href="coordinate_2wedge_8hpp.html" target="_top" xlink:title=" ">
<polygon fill="white" stroke="black" points="768,-268.5 768,-298.5 899,-298.5 899,-268.5 768,-268.5"/>
<text text-anchor="start" x="776" y="-286.5" font-family="Helvetica,sans-Serif" font-size="10.00">include/mini/coordinate</text>
<text text-anchor="middle" x="833.5" y="-275.5" font-family="Helvetica,sans-Serif" font-size="10.00">/wedge.hpp</text>
</a>
</g>
</g>
<!-- Node2&#45;&gt;Node15 -->
<g id="edge47" class="edge">
<title>Node2&#45;&gt;Node15</title>
<path fill="none" stroke="midnightblue" d="M743.08,-405.83C768.98,-398.59 796.06,-386.42 814.5,-366 831.35,-347.35 834.1,-316.68 834.12,-298.76"/>
<polygon fill="midnightblue" stroke="midnightblue" points="742.04,-402.49 733.23,-408.38 743.79,-409.27 742.04,-402.49"/>
</g>
<!-- Node22 -->
<g id="node22" class="node">
<title>Node22</title>
<g id="a_node22"><a xlink:href="coordinate_2face_8hpp.html" target="_top" xlink:title=" ">
<polygon fill="white" stroke="black" points="1097,-335.5 1097,-365.5 1228,-365.5 1228,-335.5 1097,-335.5"/>
<text text-anchor="start" x="1105" y="-353.5" font-family="Helvetica,sans-Serif" font-size="10.00">include/mini/coordinate</text>
<text text-anchor="middle" x="1162.5" y="-342.5" font-family="Helvetica,sans-Serif" font-size="10.00">/face.hpp</text>
</a>
</g>
</g>
<!-- Node2&#45;&gt;Node22 -->
<g id="edge29" class="edge">
<title>Node2&#45;&gt;Node22</title>
<path fill="none" stroke="midnightblue" d="M743.23,-406.56C839.85,-393.87 1005.39,-372.13 1096.89,-360.12"/>
<polygon fill="midnightblue" stroke="midnightblue" points="742.69,-403.1 733.23,-407.87 743.6,-410.04 742.69,-403.1"/>
</g>
<!-- Node23 -->
<g id="node23" class="node">
<title>Node23</title>
<g id="a_node23"><a xlink:href="coordinate_2quadrangle_8hpp.html" target="_top" xlink:title=" ">
<polygon fill="white" stroke="black" points="1290,-268.5 1290,-298.5 1421,-298.5 1421,-268.5 1290,-268.5"/>
<text text-anchor="start" x="1298" y="-286.5" font-family="Helvetica,sans-Serif" font-size="10.00">include/mini/coordinate</text>
<text text-anchor="middle" x="1355.5" y="-275.5" font-family="Helvetica,sans-Serif" font-size="10.00">/quadrangle.hpp</text>
</a>
</g>
</g>
<!-- Node2&#45;&gt;Node23 -->
<g id="edge44" class="edge">
<title>Node2&#45;&gt;Node23</title>
<path fill="none" stroke="midnightblue" d="M743.31,-414.57C876.91,-410.38 1148.59,-398.09 1237.5,-366 1278.95,-351.04 1319.49,-317.81 1340.57,-298.72"/>
<polygon fill="midnightblue" stroke="midnightblue" points="743.04,-411.08 733.15,-414.88 743.25,-418.07 743.04,-411.08"/>
</g>
<!-- Node25 -->
<g id="node25" class="node">
<title>Node25</title>
<g id="a_node25"><a xlink:href="coordinate_2triangle_8hpp.html" target="_top" xlink:title=" ">
<polygon fill="white" stroke="black" points="1064,-268.5 1064,-298.5 1195,-298.5 1195,-268.5 1064,-268.5"/>
<text text-anchor="start" x="1072" y="-286.5" font-family="Helvetica,sans-Serif" font-size="10.00">include/mini/coordinate</text>
<text text-anchor="middle" x="1129.5" y="-275.5" font-family="Helvetica,sans-Serif" font-size="10.00">/triangle.hpp</text>
</a>
</g>
</g>
<!-- Node2&#45;&gt;Node25 -->
<g id="edge46" class="edge">
<title>Node2&#45;&gt;Node25</title>
<path fill="none" stroke="midnightblue" d="M726.21,-399.72C818.19,-373.45 994.57,-323.05 1080.3,-298.56"/>
<polygon fill="midnightblue" stroke="midnightblue" points="725.16,-396.39 716.5,-402.5 727.08,-403.12 725.16,-396.39"/>
</g>
<!-- Node28 -->
<g id="node28" class="node">
<title>Node28</title>
<g id="a_node28"><a xlink:href="integrator_2element_8hpp.html" target="_top" xlink:title=" ">
<polygon fill="white" stroke="black" points="677.5,-335.5 677.5,-365.5 805.5,-365.5 805.5,-335.5 677.5,-335.5"/>
<text text-anchor="start" x="685.5" y="-353.5" font-family="Helvetica,sans-Serif" font-size="10.00">include/mini/integrator</text>
<text text-anchor="middle" x="741.5" y="-342.5" font-family="Helvetica,sans-Serif" font-size="10.00">/element.hpp</text>
</a>
</g>
</g>
<!-- Node2&#45;&gt;Node28 -->
<g id="edge48" class="edge">
<title>Node2&#45;&gt;Node28</title>
<path fill="none" stroke="midnightblue" d="M691.3,-395.6C702.47,-385.78 715.49,-374.34 725.47,-365.58"/>
<polygon fill="midnightblue" stroke="midnightblue" points="688.76,-393.17 683.56,-402.4 693.38,-398.43 688.76,-393.17"/>
</g>
<!-- Node3&#45;&gt;Node4 -->
<g id="edge3" class="edge">
<title>Node3&#45;&gt;Node4</title>
<path fill="none" stroke="midnightblue" d="M517.55,-338.05C435.44,-325.66 305.89,-306.13 228.07,-294.39"/>
<polygon fill="midnightblue" stroke="midnightblue" points="517.16,-341.53 527.57,-339.56 518.2,-334.6 517.16,-341.53"/>
</g>
<!-- Node3&#45;&gt;Node11 -->
<g id="edge12" class="edge">
<title>Node3&#45;&gt;Node11</title>
<path fill="none" stroke="midnightblue" d="M531.25,-332.85C491.64,-322.25 440.89,-308.68 403.25,-298.61"/>
<polygon fill="midnightblue" stroke="midnightblue" points="530.51,-336.27 541.07,-335.48 532.32,-329.51 530.51,-336.27"/>
</g>
<!-- Node3&#45;&gt;Node13 -->
<g id="edge14" class="edge">
<title>Node3&#45;&gt;Node13</title>
<path fill="none" stroke="midnightblue" d="M564.51,-329.45C550.05,-319.45 532.91,-307.6 519.86,-298.58"/>
<polygon fill="midnightblue" stroke="midnightblue" points="562.89,-332.59 573.1,-335.4 566.87,-326.83 562.89,-332.59"/>
</g>
<!-- Node3&#45;&gt;Node15 -->
<g id="edge16" class="edge">
<title>Node3&#45;&gt;Node15</title>
<path fill="none" stroke="midnightblue" d="M654.98,-332.85C694.11,-322.25 744.23,-308.68 781.4,-298.61"/>
<polygon fill="midnightblue" stroke="midnightblue" points="654.02,-329.48 645.28,-335.48 655.85,-336.24 654.02,-329.48"/>
</g>
<!-- Node17 -->
<g id="node17" class="node">
<title>Node17</title>
<g id="a_node17"><a xlink:href="integrator_2cell_8hpp.html" target="_top" xlink:title=" ">
<polygon fill="white" stroke="black" points="583.5,-268.5 583.5,-298.5 711.5,-298.5 711.5,-268.5 583.5,-268.5"/>
<text text-anchor="start" x="591.5" y="-286.5" font-family="Helvetica,sans-Serif" font-size="10.00">include/mini/integrator</text>
<text text-anchor="middle" x="647.5" y="-275.5" font-family="Helvetica,sans-Serif" font-size="10.00">/cell.hpp</text>
</a>
</g>
</g>
<!-- Node3&#45;&gt;Node17 -->
<g id="edge18" class="edge">
<title>Node3&#45;&gt;Node17</title>
<path fill="none" stroke="midnightblue" d="M611.82,-327.45C619.75,-317.9 628.8,-307 635.81,-298.58"/>
<polygon fill="midnightblue" stroke="midnightblue" points="608.92,-325.47 605.22,-335.4 614.3,-329.94 608.92,-325.47"/>
</g>
<!-- Node21 -->
<g id="node21" class="node">
<title>Node21</title>
<g id="a_node21"><a xlink:href="part_8hpp.html" target="_top" xlink:title=" ">
<polygon fill="white" stroke="black" points="798.5,-207 798.5,-226 948.5,-226 948.5,-207 798.5,-207"/>
<text text-anchor="middle" x="873.5" y="-214" font-family="Helvetica,sans-Serif" font-size="10.00">include/mini/mesh/part.hpp</text>
</a>
</g>
</g>
<!-- Node3&#45;&gt;Node21 -->
<g id="edge28" class="edge">
<title>Node3&#45;&gt;Node21</title>
<path fill="none" stroke="midnightblue" d="M647.56,-331.98C670.75,-323.47 697.68,-312.22 720.5,-299 739.66,-287.9 740.56,-279.47 759.5,-268 788.94,-250.18 825.79,-235.01 849.48,-226.08"/>
<polygon fill="midnightblue" stroke="midnightblue" points="646.11,-328.79 637.88,-335.46 648.48,-335.38 646.11,-328.79"/>
</g>
<!-- Node5 -->
<g id="node5" class="node">
<title>Node5</title>
<g id="a_node5"><a xlink:href="integrator_2hexahedron_8hpp.html" target="_top" xlink:title=" ">
<polygon fill="white" stroke="black" points="100.5,-201.5 100.5,-231.5 228.5,-231.5 228.5,-201.5 100.5,-201.5"/>
<text text-anchor="start" x="108.5" y="-219.5" font-family="Helvetica,sans-Serif" font-size="10.00">include/mini/integrator</text>
<text text-anchor="middle" x="164.5" y="-208.5" font-family="Helvetica,sans-Serif" font-size="10.00">/hexahedron.hpp</text>
</a>
</g>
</g>
<!-- Node4&#45;&gt;Node5 -->
<g id="edge4" class="edge">
<title>Node4&#45;&gt;Node5</title>
<path fill="none" stroke="midnightblue" d="M163.25,-258.11C163.53,-249.15 163.83,-239.32 164.07,-231.58"/>
<polygon fill="midnightblue" stroke="midnightblue" points="159.74,-258.29 162.93,-268.4 166.74,-258.51 159.74,-258.29"/>
</g>
<!-- Node6 -->
<g id="node6" class="node">
<title>Node6</title>
<g id="a_node6"><a xlink:href="quality_8hpp.html" target="_top" xlink:title=" ">
<polygon fill="white" stroke="black" points="0,-140 0,-159 163,-159 163,-140 0,-140"/>
<text text-anchor="middle" x="81.5" y="-147" font-family="Helvetica,sans-Serif" font-size="10.00">include/mini/mesh/quality.hpp</text>
</a>
</g>
</g>
<!-- Node4&#45;&gt;Node6 -->
<g id="edge11" class="edge">
<title>Node4&#45;&gt;Node6</title>
<path fill="none" stroke="midnightblue" d="M123.18,-262.93C111.11,-254.99 99.04,-244.65 91.5,-232 77.56,-208.61 78.86,-174.75 80.41,-159.07"/>
<polygon fill="midnightblue" stroke="midnightblue" points="121.55,-266.04 131.91,-268.3 125.22,-260.08 121.55,-266.04"/>
</g>
<!-- Node5&#45;&gt;Node6 -->
<g id="edge5" class="edge">
<title>Node5&#45;&gt;Node6</title>
<path fill="none" stroke="midnightblue" d="M138.33,-195.01C122.92,-182.94 104.24,-168.3 92.6,-159.19"/>
<polygon fill="midnightblue" stroke="midnightblue" points="136.46,-197.99 146.49,-201.4 140.78,-192.47 136.46,-197.99"/>
</g>
<!-- Node5&#45;&gt;Node7 -->
<g id="edge6" class="edge">
<title>Node5&#45;&gt;Node7</title>
<path fill="none" stroke="midnightblue" d="M192.88,-195.45C207.03,-185.45 223.81,-173.6 236.58,-164.58"/>
<polygon fill="midnightblue" stroke="midnightblue" points="190.61,-192.77 184.46,-201.4 194.65,-198.48 190.61,-192.77"/>
</g>
<!-- Node8 -->
<g id="node8" class="node">
<title>Node8</title>
<g id="a_node8"><a xlink:href="spatial_2dg_2lobatto_8hpp.html" target="_top" xlink:title=" ">
<polygon fill="white" stroke="black" points="115,-67.5 115,-97.5 228,-97.5 228,-67.5 115,-67.5"/>
<text text-anchor="start" x="123" y="-85.5" font-family="Helvetica,sans-Serif" font-size="10.00">include/mini/spatial</text>
<text text-anchor="middle" x="171.5" y="-74.5" font-family="Helvetica,sans-Serif" font-size="10.00">/dg/lobatto.hpp</text>
</a>
</g>
</g>
<!-- Node7&#45;&gt;Node8 -->
<g id="edge7" class="edge">
<title>Node7&#45;&gt;Node8</title>
<path fill="none" stroke="midnightblue" d="M229.91,-128.17C216.91,-118.23 201.6,-106.51 189.91,-97.58"/>
<polygon fill="midnightblue" stroke="midnightblue" points="227.99,-131.1 238.06,-134.4 232.24,-125.54 227.99,-131.1"/>
</g>
<!-- Node9 -->
<g id="node9" class="node">
<title>Node9</title>
<g id="a_node9"><a xlink:href="fr_2general_8hpp.html" target="_top" xlink:title=" ">
<polygon fill="white" stroke="black" points="285,-67.5 285,-97.5 398,-97.5 398,-67.5 285,-67.5"/>
<text text-anchor="start" x="293" y="-85.5" font-family="Helvetica,sans-Serif" font-size="10.00">include/mini/spatial</text>
<text text-anchor="middle" x="341.5" y="-74.5" font-family="Helvetica,sans-Serif" font-size="10.00">/fr/general.hpp</text>
</a>
</g>
</g>
<!-- Node7&#45;&gt;Node9 -->
<g id="edge8" class="edge">
<title>Node7&#45;&gt;Node9</title>
<path fill="none" stroke="midnightblue" d="M283.09,-128.17C296.09,-118.23 311.4,-106.51 323.09,-97.58"/>
<polygon fill="midnightblue" stroke="midnightblue" points="280.76,-125.54 274.94,-134.4 285.01,-131.1 280.76,-125.54"/>
</g>
<!-- Node10 -->
<g id="node10" class="node">
<title>Node10</title>
<g id="a_node10"><a xlink:href="spatial_2fr_2lobatto_8hpp.html" target="_top" xlink:title=" ">
<polygon fill="white" stroke="black" points="242,-0.5 242,-30.5 355,-30.5 355,-0.5 242,-0.5"/>
<text text-anchor="start" x="250" y="-18.5" font-family="Helvetica,sans-Serif" font-size="10.00">include/mini/spatial</text>
<text text-anchor="middle" x="298.5" y="-7.5" font-family="Helvetica,sans-Serif" font-size="10.00">/fr/lobatto.hpp</text>
</a>
</g>
</g>
<!-- Node7&#45;&gt;Node10 -->
<g id="edge10" class="edge">
<title>Node7&#45;&gt;Node10</title>
<path fill="none" stroke="midnightblue" d="M260.78,-124.55C264.03,-108.12 269.05,-85.95 275.5,-67 279.79,-54.41 286.13,-40.72 291.08,-30.78"/>
<polygon fill="midnightblue" stroke="midnightblue" points="257.34,-123.94 258.9,-134.42 264.21,-125.25 257.34,-123.94"/>
</g>
<!-- Node9&#45;&gt;Node10 -->
<g id="edge9" class="edge">
<title>Node9&#45;&gt;Node10</title>
<path fill="none" stroke="midnightblue" d="M326.53,-58.87C320.3,-49.46 313.27,-38.83 307.81,-30.58"/>
<polygon fill="midnightblue" stroke="midnightblue" points="323.73,-60.99 332.17,-67.4 329.57,-57.12 323.73,-60.99"/>
</g>
<!-- Node12 -->
<g id="node12" class="node">
<title>Node12</title>
<g id="a_node12"><a xlink:href="integrator_2pyramid_8hpp.html" target="_top" xlink:title=" ">
<polygon fill="white" stroke="black" points="288.5,-201.5 288.5,-231.5 416.5,-231.5 416.5,-201.5 288.5,-201.5"/>
<text text-anchor="start" x="296.5" y="-219.5" font-family="Helvetica,sans-Serif" font-size="10.00">include/mini/integrator</text>
<text text-anchor="middle" x="352.5" y="-208.5" font-family="Helvetica,sans-Serif" font-size="10.00">/pyramid.hpp</text>
</a>
</g>
</g>
<!-- Node11&#45;&gt;Node12 -->
<g id="edge13" class="edge">
<title>Node11&#45;&gt;Node12</title>
<path fill="none" stroke="midnightblue" d="M351.25,-258.11C351.53,-249.15 351.83,-239.32 352.07,-231.58"/>
<polygon fill="midnightblue" stroke="midnightblue" points="347.74,-258.29 350.93,-268.4 354.74,-258.51 347.74,-258.29"/>
</g>
<!-- Node14 -->
<g id="node14" class="node">
<title>Node14</title>
<g id="a_node14"><a xlink:href="integrator_2tetrahedron_8hpp.html" target="_top" xlink:title=" ">
<polygon fill="white" stroke="black" points="444.5,-201.5 444.5,-231.5 572.5,-231.5 572.5,-201.5 444.5,-201.5"/>
<text text-anchor="start" x="452.5" y="-219.5" font-family="Helvetica,sans-Serif" font-size="10.00">include/mini/integrator</text>
<text text-anchor="middle" x="508.5" y="-208.5" font-family="Helvetica,sans-Serif" font-size="10.00">/tetrahedron.hpp</text>
</a>
</g>
</g>
<!-- Node13&#45;&gt;Node14 -->
<g id="edge15" class="edge">
<title>Node13&#45;&gt;Node14</title>
<path fill="none" stroke="midnightblue" d="M502.84,-258.4C504.09,-249.37 505.47,-239.41 506.55,-231.58"/>
<polygon fill="midnightblue" stroke="midnightblue" points="499.36,-258.01 501.45,-268.4 506.29,-258.97 499.36,-258.01"/>
</g>
<!-- Node16 -->
<g id="node16" class="node">
<title>Node16</title>
<g id="a_node16"><a xlink:href="integrator_2wedge_8hpp.html" target="_top" xlink:title=" ">
<polygon fill="white" stroke="black" points="912.5,-134.5 912.5,-164.5 1040.5,-164.5 1040.5,-134.5 912.5,-134.5"/>
<text text-anchor="start" x="920.5" y="-152.5" font-family="Helvetica,sans-Serif" font-size="10.00">include/mini/integrator</text>
<text text-anchor="middle" x="976.5" y="-141.5" font-family="Helvetica,sans-Serif" font-size="10.00">/wedge.hpp</text>
</a>
</g>
</g>
<!-- Node15&#45;&gt;Node16 -->
<g id="edge17" class="edge">
<title>Node15&#45;&gt;Node16</title>
<path fill="none" stroke="midnightblue" d="M908.57,-265.05C926.81,-257.58 944.71,-246.98 957.5,-232 973.82,-212.88 976.76,-182.38 976.95,-164.62"/>
<polygon fill="midnightblue" stroke="midnightblue" points="907.13,-261.85 899.03,-268.68 909.62,-268.39 907.13,-261.85"/>
</g>
<!-- Node17&#45;&gt;Node5 -->
<g id="edge22" class="edge">
<title>Node17&#45;&gt;Node5</title>
<path fill="none" stroke="midnightblue" d="M573.43,-267.9C442.38,-247.16 407.38,-247.86 279.5,-232 263.02,-229.96 245.22,-227.72 228.67,-225.64"/>
<polygon fill="midnightblue" stroke="midnightblue" points="573.03,-271.38 583.45,-269.5 574.13,-264.47 573.03,-271.38"/>
</g>
<!-- Node17&#45;&gt;Node7 -->
<g id="edge27" class="edge">
<title>Node17&#45;&gt;Node7</title>
<path fill="none" stroke="midnightblue" d="M635.23,-259.37C623.9,-240.45 605.26,-214.67 581.5,-201 538.75,-176.4 405.7,-162.01 323.69,-155.24"/>
<polygon fill="midnightblue" stroke="midnightblue" points="632.32,-261.34 640.33,-268.28 638.4,-257.86 632.32,-261.34"/>
</g>
<!-- Node17&#45;&gt;Node12 -->
<g id="edge23" class="edge">
<title>Node17&#45;&gt;Node12</title>
<path fill="none" stroke="midnightblue" d="M574.05,-266.32C525.56,-255.63 462.67,-241.77 416.29,-231.55"/>
<polygon fill="midnightblue" stroke="midnightblue" points="573.33,-269.74 583.85,-268.48 574.84,-262.91 573.33,-269.74"/>
</g>
<!-- Node17&#45;&gt;Node14 -->
<g id="edge24" class="edge">
<title>Node17&#45;&gt;Node14</title>
<path fill="none" stroke="midnightblue" d="M608.22,-264.13C586.13,-253.8 558.99,-241.11 538.6,-231.58"/>
<polygon fill="midnightblue" stroke="midnightblue" points="606.8,-267.33 617.34,-268.4 609.76,-260.99 606.8,-267.33"/>
</g>
<!-- Node17&#45;&gt;Node16 -->
<g id="edge25" class="edge">
<title>Node17&#45;&gt;Node16</title>
<path fill="none" stroke="midnightblue" d="M646.43,-258.16C647.02,-239.82 651.04,-215.44 666.5,-201 684.2,-184.45 826.77,-166.54 912.28,-157.13"/>
<polygon fill="midnightblue" stroke="midnightblue" points="642.93,-258.4 646.42,-268.4 649.93,-258.4 642.93,-258.4"/>
</g>
<!-- Node18 -->
<g id="node18" class="node">
<title>Node18</title>
<g id="a_node18"><a xlink:href="basis_2linear_8hpp.html" target="_top" xlink:title=" ">
<polygon fill="white" stroke="black" points="675,-201.5 675,-231.5 780,-231.5 780,-201.5 675,-201.5"/>
<text text-anchor="start" x="683" y="-219.5" font-family="Helvetica,sans-Serif" font-size="10.00">include/mini/basis</text>
<text text-anchor="middle" x="727.5" y="-208.5" font-family="Helvetica,sans-Serif" font-size="10.00">/linear.hpp</text>
</a>
</g>
</g>
<!-- Node17&#45;&gt;Node18 -->
<g id="edge19" class="edge">
<title>Node17&#45;&gt;Node18</title>
<path fill="none" stroke="midnightblue" d="M672.87,-261.88C685.03,-252.01 699.28,-240.43 710.18,-231.58"/>
<polygon fill="midnightblue" stroke="midnightblue" points="670.41,-259.37 664.86,-268.4 674.83,-264.81 670.41,-259.37"/>
</g>
<!-- Node17&#45;&gt;Node21 -->
<g id="edge26" class="edge">
<title>Node17&#45;&gt;Node21</title>
<path fill="none" stroke="midnightblue" d="M706.01,-265.67C750.18,-252.97 808.95,-236.06 843.85,-226.03"/>
<polygon fill="midnightblue" stroke="midnightblue" points="704.9,-262.35 696.26,-268.48 706.84,-269.08 704.9,-262.35"/>
</g>
<!-- Node19 -->
<g id="node19" class="node">
<title>Node19</title>
<g id="a_node19"><a xlink:href="projection_8hpp.html" target="_top" xlink:title=" ">
<polygon fill="white" stroke="black" points="660.5,-134.5 660.5,-164.5 794.5,-164.5 794.5,-134.5 660.5,-134.5"/>
<text text-anchor="start" x="668.5" y="-152.5" font-family="Helvetica,sans-Serif" font-size="10.00">include/mini/polynomial</text>
<text text-anchor="middle" x="727.5" y="-141.5" font-family="Helvetica,sans-Serif" font-size="10.00">/projection.hpp</text>
</a>
</g>
</g>
<!-- Node18&#45;&gt;Node19 -->
<g id="edge20" class="edge">
<title>Node18&#45;&gt;Node19</title>
<path fill="none" stroke="midnightblue" d="M727.5,-191.11C727.5,-182.15 727.5,-172.32 727.5,-164.58"/>
<polygon fill="midnightblue" stroke="midnightblue" points="724,-191.4 727.5,-201.4 731,-191.4 724,-191.4"/>
</g>
<!-- Node20 -->
<g id="node20" class="node">
<title>Node20</title>
<g id="a_node20"><a xlink:href="extrapolation_8hpp.html" target="_top" xlink:title=" ">
<polygon fill="white" stroke="black" points="660.5,-67.5 660.5,-97.5 794.5,-97.5 794.5,-67.5 660.5,-67.5"/>
<text text-anchor="start" x="668.5" y="-85.5" font-family="Helvetica,sans-Serif" font-size="10.00">include/mini/polynomial</text>
<text text-anchor="middle" x="727.5" y="-74.5" font-family="Helvetica,sans-Serif" font-size="10.00">/extrapolation.hpp</text>
</a>
</g>
</g>
<!-- Node19&#45;&gt;Node20 -->
<g id="edge21" class="edge">
<title>Node19&#45;&gt;Node20</title>
<path fill="none" stroke="midnightblue" d="M727.5,-124.11C727.5,-115.15 727.5,-105.32 727.5,-97.58"/>
<polygon fill="midnightblue" stroke="midnightblue" points="724,-124.4 727.5,-134.4 731,-124.4 724,-124.4"/>
</g>
<!-- Node22&#45;&gt;Node21 -->
<g id="edge41" class="edge">
<title>Node22&#45;&gt;Node21</title>
<path fill="none" stroke="midnightblue" d="M1186.72,-327.87C1203.35,-310.41 1219.88,-285.91 1204.5,-268 1196.08,-258.2 1039.78,-237.66 945.01,-226.02"/>
<polygon fill="midnightblue" stroke="midnightblue" points="1183.82,-325.81 1179.18,-335.34 1188.75,-330.78 1183.82,-325.81"/>
</g>
<!-- Node22&#45;&gt;Node23 -->
<g id="edge30" class="edge">
<title>Node22&#45;&gt;Node23</title>
<path fill="none" stroke="midnightblue" d="M1214.19,-332.09C1245.34,-321.6 1284.51,-308.41 1313.7,-298.58"/>
<polygon fill="midnightblue" stroke="midnightblue" points="1212.74,-328.89 1204.38,-335.4 1214.97,-335.52 1212.74,-328.89"/>
</g>
<!-- Node24 -->
<g id="node24" class="node">
<title>Node24</title>
<g id="a_node24"><a xlink:href="integrator_2quadrangle_8hpp.html" target="_top" xlink:title=" ">
<polygon fill="white" stroke="black" points="1197.5,-201.5 1197.5,-231.5 1325.5,-231.5 1325.5,-201.5 1197.5,-201.5"/>
<text text-anchor="start" x="1205.5" y="-219.5" font-family="Helvetica,sans-Serif" font-size="10.00">include/mini/integrator</text>
<text text-anchor="middle" x="1261.5" y="-208.5" font-family="Helvetica,sans-Serif" font-size="10.00">/quadrangle.hpp</text>
</a>
</g>
</g>
<!-- Node22&#45;&gt;Node24 -->
<g id="edge40" class="edge">
<title>Node22&#45;&gt;Node24</title>
<path fill="none" stroke="midnightblue" d="M1201.8,-330.19C1214.77,-322.13 1228.23,-311.65 1237.5,-299 1252.41,-278.65 1258.11,-249.12 1260.25,-231.76"/>
<polygon fill="midnightblue" stroke="midnightblue" points="1199.81,-327.3 1192.96,-335.38 1203.35,-333.34 1199.81,-327.3"/>
</g>
<!-- Node22&#45;&gt;Node25 -->
<g id="edge32" class="edge">
<title>Node22&#45;&gt;Node25</title>
<path fill="none" stroke="midnightblue" d="M1150.71,-326.28C1146.01,-317.02 1140.75,-306.66 1136.65,-298.58"/>
<polygon fill="midnightblue" stroke="midnightblue" points="1147.69,-328.06 1155.34,-335.4 1153.93,-324.89 1147.69,-328.06"/>
</g>
<!-- Node27 -->
<g id="node27" class="node">
<title>Node27</title>
<g id="a_node27"><a xlink:href="integrator_2face_8hpp.html" target="_top" xlink:title=" ">
<polygon fill="white" stroke="black" points="917.5,-268.5 917.5,-298.5 1045.5,-298.5 1045.5,-268.5 917.5,-268.5"/>
<text text-anchor="start" x="925.5" y="-286.5" font-family="Helvetica,sans-Serif" font-size="10.00">include/mini/integrator</text>
<text text-anchor="middle" x="981.5" y="-275.5" font-family="Helvetica,sans-Serif" font-size="10.00">/face.hpp</text>
</a>
</g>
</g>
<!-- Node22&#45;&gt;Node27 -->
<g id="edge35" class="edge">
<title>Node22&#45;&gt;Node27</title>
<path fill="none" stroke="midnightblue" d="M1113.64,-331.96C1084.49,-321.48 1047.96,-308.37 1020.7,-298.58"/>
<polygon fill="midnightblue" stroke="midnightblue" points="1112.63,-335.31 1123.23,-335.4 1115,-328.72 1112.63,-335.31"/>
</g>
<!-- Node23&#45;&gt;Node24 -->
<g id="edge31" class="edge">
<title>Node23&#45;&gt;Node24</title>
<path fill="none" stroke="midnightblue" d="M1326.51,-262.45C1312.05,-252.45 1294.91,-240.6 1281.86,-231.58"/>
<polygon fill="midnightblue" stroke="midnightblue" points="1324.89,-265.59 1335.1,-268.4 1328.87,-259.83 1324.89,-265.59"/>
</g>
<!-- Node26 -->
<g id="node26" class="node">
<title>Node26</title>
<g id="a_node26"><a xlink:href="integrator_2triangle_8hpp.html" target="_top" xlink:title=" ">
<polygon fill="white" stroke="black" points="1004.5,-201.5 1004.5,-231.5 1132.5,-231.5 1132.5,-201.5 1004.5,-201.5"/>
<text text-anchor="start" x="1012.5" y="-219.5" font-family="Helvetica,sans-Serif" font-size="10.00">include/mini/integrator</text>
<text text-anchor="middle" x="1068.5" y="-208.5" font-family="Helvetica,sans-Serif" font-size="10.00">/triangle.hpp</text>
</a>
</g>
</g>
<!-- Node25&#45;&gt;Node26 -->
<g id="edge33" class="edge">
<title>Node25&#45;&gt;Node26</title>
<path fill="none" stroke="midnightblue" d="M1109.35,-261.02C1100.26,-251.34 1089.78,-240.17 1081.71,-231.58"/>
<polygon fill="midnightblue" stroke="midnightblue" points="1106.87,-263.5 1116.26,-268.4 1111.97,-258.71 1106.87,-263.5"/>
</g>
<!-- Node26&#45;&gt;Node16 -->
<g id="edge34" class="edge">
<title>Node26&#45;&gt;Node16</title>
<path fill="none" stroke="midnightblue" d="M1040.12,-195.45C1025.97,-185.45 1009.19,-173.6 996.42,-164.58"/>
<polygon fill="midnightblue" stroke="midnightblue" points="1038.35,-198.48 1048.54,-201.4 1042.39,-192.77 1038.35,-198.48"/>
</g>
<!-- Node27&#45;&gt;Node18 -->
<g id="edge36" class="edge">
<title>Node27&#45;&gt;Node18</title>
<path fill="none" stroke="midnightblue" d="M916.76,-265.93C874.38,-255.09 819.71,-241.1 780.03,-230.94"/>
<polygon fill="midnightblue" stroke="midnightblue" points="916.14,-269.39 926.7,-268.48 917.88,-262.61 916.14,-269.39"/>
</g>
<!-- Node27&#45;&gt;Node21 -->
<g id="edge39" class="edge">
<title>Node27&#45;&gt;Node21</title>
<path fill="none" stroke="midnightblue" d="M949.33,-263.14C928.81,-250.79 903.22,-235.39 887.63,-226.01"/>
<polygon fill="midnightblue" stroke="midnightblue" points="947.69,-266.24 958.07,-268.4 951.3,-260.24 947.69,-266.24"/>
</g>
<!-- Node27&#45;&gt;Node24 -->
<g id="edge37" class="edge">
<title>Node27&#45;&gt;Node24</title>
<path fill="none" stroke="midnightblue" d="M1051.78,-266.19C1097.63,-255.54 1156.89,-241.78 1200.71,-231.61"/>
<polygon fill="midnightblue" stroke="midnightblue" points="1050.86,-262.81 1041.91,-268.48 1052.44,-269.62 1050.86,-262.81"/>
</g>
<!-- Node27&#45;&gt;Node26 -->
<g id="edge38" class="edge">
<title>Node27&#45;&gt;Node26</title>
<path fill="none" stroke="midnightblue" d="M1008.71,-262.17C1022.02,-252.23 1037.7,-240.51 1049.66,-231.58"/>
<polygon fill="midnightblue" stroke="midnightblue" points="1006.29,-259.61 1000.38,-268.4 1010.48,-265.21 1006.29,-259.61"/>
</g>
<!-- Node28&#45;&gt;Node17 -->
<g id="edge49" class="edge">
<title>Node28&#45;&gt;Node17</title>
<path fill="none" stroke="midnightblue" d="M712.51,-329.45C698.05,-319.45 680.91,-307.6 667.86,-298.58"/>
<polygon fill="midnightblue" stroke="midnightblue" points="710.89,-332.59 721.1,-335.4 714.87,-326.83 710.89,-332.59"/>
</g>
<!-- Node28&#45;&gt;Node27 -->
<g id="edge50" class="edge">
<title>Node28&#45;&gt;Node27</title>
<path fill="none" stroke="midnightblue" d="M802.98,-332.85C842.11,-322.25 892.23,-308.68 929.4,-298.61"/>
<polygon fill="midnightblue" stroke="midnightblue" points="802.02,-329.48 793.28,-335.48 803.85,-336.24 802.02,-329.48"/>
</g>
</g>
</svg>
