<?xml version="1.0" encoding="UTF-8" standalone="no"?>
<!DOCTYPE svg PUBLIC "-//W3C//DTD SVG 1.1//EN"
 "http://www.w3.org/Graphics/SVG/1.1/DTD/svg11.dtd">
<!-- Generated by graphviz version 2.43.0 (0)
 -->
<!-- Title: include/mini/algebra/root.hpp Pages: 1 -->
<svg width="221pt" height="95pt"
 viewBox="0.00 0.00 221.00 95.00" xmlns="http://www.w3.org/2000/svg" xmlns:xlink="http://www.w3.org/1999/xlink">
<g id="graph0" class="graph" transform="scale(1 1) rotate(0) translate(4 91)">
<title>include/mini/algebra/root.hpp</title>
<polygon fill="white" stroke="transparent" points="-4,4 -4,-91 217,-91 217,4 -4,4"/>
<!-- Node1 -->
<g id="node1" class="node">
<title>Node1</title>
<g id="a_node1"><a xlink:title=" ">
<polygon fill="#bfbfbf" stroke="black" points="37.5,-56.5 37.5,-86.5 153.5,-86.5 153.5,-56.5 37.5,-56.5"/>
<text text-anchor="start" x="45.5" y="-74.5" font-family="Helvetica,sans-Serif" font-size="10.00">include/mini/algebra</text>
<text text-anchor="middle" x="95.5" y="-63.5" font-family="Helvetica,sans-Serif" font-size="10.00">/root.hpp</text>
</a>
</g>
</g>
<!-- Node2 -->
<g id="node2" class="node">
<title>Node2</title>
<g id="a_node2"><a xlink:title=" ">
<polygon fill="white" stroke="#bfbfbf" points="0,-0.5 0,-19.5 47,-19.5 47,-0.5 0,-0.5"/>
<text text-anchor="middle" x="23.5" y="-7.5" font-family="Helvetica,sans-Serif" font-size="10.00">vector</text>
</a>
</g>
</g>
<!-- Node1&#45;&gt;Node2 -->
<g id="edge1" class="edge">
<title>Node1&#45;&gt;Node2</title>
<path fill="none" stroke="midnightblue" d="M78.44,-56.4C67.44,-47.31 53.13,-35.49 41.88,-26.19"/>
<polygon fill="midnightblue" stroke="midnightblue" points="43.91,-23.33 33.98,-19.66 39.46,-28.73 43.91,-23.33"/>
</g>
<!-- Node3 -->
<g id="node3" class="node">
<title>Node3</title>
<g id="a_node3"><a xlink:title=" ">
<polygon fill="white" stroke="#bfbfbf" points="65.5,-0.5 65.5,-19.5 125.5,-19.5 125.5,-0.5 65.5,-0.5"/>
<text text-anchor="middle" x="95.5" y="-7.5" font-family="Helvetica,sans-Serif" font-size="10.00">iostream</text>
</a>
</g>
</g>
<!-- Node1&#45;&gt;Node3 -->
<g id="edge2" class="edge">
<title>Node1&#45;&gt;Node3</title>
<path fill="none" stroke="midnightblue" d="M95.5,-56.4C95.5,-48.47 95.5,-38.46 95.5,-29.86"/>
<polygon fill="midnightblue" stroke="midnightblue" points="99,-29.66 95.5,-19.66 92,-29.66 99,-29.66"/>
</g>
<!-- Node4 -->
<g id="node4" class="node">
<title>Node4</title>
<g id="a_node4"><a xlink:title=" ">
<polygon fill="white" stroke="#bfbfbf" points="144,-0.5 144,-19.5 213,-19.5 213,-0.5 144,-0.5"/>
<text text-anchor="middle" x="178.5" y="-7.5" font-family="Helvetica,sans-Serif" font-size="10.00">type_traits</text>
</a>
</g>
</g>
<!-- Node1&#45;&gt;Node4 -->
<g id="edge3" class="edge">
<title>Node1&#45;&gt;Node4</title>
<path fill="none" stroke="midnightblue" d="M115.17,-56.4C128.1,-47.13 144.99,-35.03 158.07,-25.65"/>
<polygon fill="midnightblue" stroke="midnightblue" points="160.33,-28.33 166.42,-19.66 156.26,-22.64 160.33,-28.33"/>
</g>
</g>
</svg>
