<?xml version="1.0" encoding="UTF-8" standalone="no"?>
<!DOCTYPE svg PUBLIC "-//W3C//DTD SVG 1.1//EN"
 "http://www.w3.org/Graphics/SVG/1.1/DTD/svg11.dtd">
<!-- Generated by graphviz version 2.43.0 (0)
 -->
<!-- Title: include/mini/riemann/rotated/multiple.hpp Pages: 1 -->
<svg width="482pt" height="218pt"
 viewBox="0.00 0.00 482.00 218.00" xmlns="http://www.w3.org/2000/svg" xmlns:xlink="http://www.w3.org/1999/xlink">
<g id="graph0" class="graph" transform="scale(1 1) rotate(0) translate(4 214)">
<title>include/mini/riemann/rotated/multiple.hpp</title>
<polygon fill="white" stroke="transparent" points="-4,4 -4,-214 478,-214 478,4 -4,4"/>
<!-- Node1 -->
<g id="node1" class="node">
<title>Node1</title>
<g id="a_node1"><a xlink:title=" ">
<polygon fill="#bfbfbf" stroke="black" points="150,-179.5 150,-209.5 270,-209.5 270,-179.5 150,-179.5"/>
<text text-anchor="start" x="158" y="-197.5" font-family="Helvetica,sans-Serif" font-size="10.00">include/mini/riemann</text>
<text text-anchor="middle" x="210" y="-186.5" font-family="Helvetica,sans-Serif" font-size="10.00">/rotated/multiple.hpp</text>
</a>
</g>
</g>
<!-- Node2 -->
<g id="node2" class="node">
<title>Node2</title>
<g id="a_node2"><a xlink:href="simple_8hpp.html" target="_top" xlink:title=" ">
<polygon fill="white" stroke="black" points="82,-112.5 82,-142.5 202,-142.5 202,-112.5 82,-112.5"/>
<text text-anchor="start" x="90" y="-130.5" font-family="Helvetica,sans-Serif" font-size="10.00">mini/riemann/rotated</text>
<text text-anchor="middle" x="142" y="-119.5" font-family="Helvetica,sans-Serif" font-size="10.00">/simple.hpp</text>
</a>
</g>
</g>
<!-- Node1&#45;&gt;Node2 -->
<g id="edge1" class="edge">
<title>Node1&#45;&gt;Node2</title>
<path fill="none" stroke="midnightblue" d="M195.25,-179.4C186.16,-170.71 174.33,-159.4 164.13,-149.66"/>
<polygon fill="midnightblue" stroke="midnightblue" points="166.37,-146.96 156.73,-142.58 161.54,-152.02 166.37,-146.96"/>
</g>
<!-- Node10 -->
<g id="node10" class="node">
<title>Node10</title>
<g id="a_node10"><a xlink:href="simple_2multiple_8hpp.html" target="_top" xlink:title=" ">
<polygon fill="white" stroke="black" points="226,-112.5 226,-142.5 344,-142.5 344,-112.5 226,-112.5"/>
<text text-anchor="start" x="234" y="-130.5" font-family="Helvetica,sans-Serif" font-size="10.00">mini/riemann/simple</text>
<text text-anchor="middle" x="285" y="-119.5" font-family="Helvetica,sans-Serif" font-size="10.00">/multiple.hpp</text>
</a>
</g>
</g>
<!-- Node1&#45;&gt;Node10 -->
<g id="edge9" class="edge">
<title>Node1&#45;&gt;Node10</title>
<path fill="none" stroke="midnightblue" d="M226.27,-179.4C236.4,-170.62 249.6,-159.18 260.92,-149.37"/>
<polygon fill="midnightblue" stroke="midnightblue" points="263.49,-151.77 268.76,-142.58 258.91,-146.48 263.49,-151.77"/>
</g>
<!-- Node3 -->
<g id="node3" class="node">
<title>Node3</title>
<g id="a_node3"><a xlink:title=" ">
<polygon fill="white" stroke="#bfbfbf" points="0,-56.5 0,-75.5 50,-75.5 50,-56.5 0,-56.5"/>
<text text-anchor="middle" x="25" y="-63.5" font-family="Helvetica,sans-Serif" font-size="10.00">cstring</text>
</a>
</g>
</g>
<!-- Node2&#45;&gt;Node3 -->
<g id="edge2" class="edge">
<title>Node2&#45;&gt;Node3</title>
<path fill="none" stroke="midnightblue" d="M114.27,-112.4C95.17,-102.68 69.94,-89.86 51.18,-80.31"/>
<polygon fill="midnightblue" stroke="midnightblue" points="52.52,-77.07 42.02,-75.66 49.35,-83.31 52.52,-77.07"/>
</g>
<!-- Node4 -->
<g id="node4" class="node">
<title>Node4</title>
<g id="a_node4"><a xlink:href="algebra_2eigen_8hpp.html" target="_top" xlink:title=" ">
<polygon fill="white" stroke="black" points="220.5,-56.5 220.5,-75.5 349.5,-75.5 349.5,-56.5 220.5,-56.5"/>
<text text-anchor="middle" x="285" y="-63.5" font-family="Helvetica,sans-Serif" font-size="10.00">mini/algebra/eigen.hpp</text>
</a>
</g>
</g>
<!-- Node2&#45;&gt;Node4 -->
<g id="edge3" class="edge">
<title>Node2&#45;&gt;Node4</title>
<path fill="none" stroke="midnightblue" d="M175.89,-112.4C199.88,-102.42 231.77,-89.15 254.88,-79.53"/>
<polygon fill="midnightblue" stroke="midnightblue" points="256.3,-82.73 264.19,-75.66 253.61,-76.27 256.3,-82.73"/>
</g>
<!-- Node9 -->
<g id="node9" class="node">
<title>Node9</title>
<g id="a_node9"><a xlink:href="index_8hpp.html" target="_top" xlink:title=" ">
<polygon fill="white" stroke="black" points="68,-56.5 68,-75.5 202,-75.5 202,-56.5 68,-56.5"/>
<text text-anchor="middle" x="135" y="-63.5" font-family="Helvetica,sans-Serif" font-size="10.00">mini/constant/index.hpp</text>
</a>
</g>
</g>
<!-- Node2&#45;&gt;Node9 -->
<g id="edge8" class="edge">
<title>Node2&#45;&gt;Node9</title>
<path fill="none" stroke="midnightblue" d="M140.34,-112.4C139.41,-104.47 138.23,-94.46 137.22,-85.86"/>
<polygon fill="midnightblue" stroke="midnightblue" points="140.66,-85.18 136.02,-75.66 133.71,-86 140.66,-85.18"/>
</g>
<!-- Node5 -->
<g id="node5" class="node">
<title>Node5</title>
<g id="a_node5"><a xlink:title=" ">
<polygon fill="white" stroke="#bfbfbf" points="146,-0.5 146,-19.5 210,-19.5 210,-0.5 146,-0.5"/>
<text text-anchor="middle" x="178" y="-7.5" font-family="Helvetica,sans-Serif" font-size="10.00">algorithm</text>
</a>
</g>
</g>
<!-- Node4&#45;&gt;Node5 -->
<g id="edge4" class="edge">
<title>Node4&#45;&gt;Node5</title>
<path fill="none" stroke="midnightblue" d="M267.81,-56.32C250.65,-47.66 224.05,-34.24 204.25,-24.25"/>
<polygon fill="midnightblue" stroke="midnightblue" points="205.65,-21.04 195.15,-19.65 202.5,-27.28 205.65,-21.04"/>
</g>
<!-- Node6 -->
<g id="node6" class="node">
<title>Node6</title>
<g id="a_node6"><a xlink:title=" ">
<polygon fill="white" stroke="#bfbfbf" points="228.5,-0.5 228.5,-19.5 275.5,-19.5 275.5,-0.5 228.5,-0.5"/>
<text text-anchor="middle" x="252" y="-7.5" font-family="Helvetica,sans-Serif" font-size="10.00">cmath</text>
</a>
</g>
</g>
<!-- Node4&#45;&gt;Node6 -->
<g id="edge5" class="edge">
<title>Node4&#45;&gt;Node6</title>
<path fill="none" stroke="midnightblue" d="M279.55,-56.08C274.99,-48.61 268.33,-37.72 262.71,-28.52"/>
<polygon fill="midnightblue" stroke="midnightblue" points="265.55,-26.46 257.35,-19.75 259.58,-30.11 265.55,-26.46"/>
</g>
<!-- Node7 -->
<g id="node7" class="node">
<title>Node7</title>
<g id="a_node7"><a xlink:title=" ">
<polygon fill="white" stroke="#bfbfbf" points="293.5,-0.5 293.5,-19.5 342.5,-19.5 342.5,-0.5 293.5,-0.5"/>
<text text-anchor="middle" x="318" y="-7.5" font-family="Helvetica,sans-Serif" font-size="10.00">cstdlib</text>
</a>
</g>
</g>
<!-- Node4&#45;&gt;Node7 -->
<g id="edge6" class="edge">
<title>Node4&#45;&gt;Node7</title>
<path fill="none" stroke="midnightblue" d="M290.45,-56.08C295.01,-48.61 301.67,-37.72 307.29,-28.52"/>
<polygon fill="midnightblue" stroke="midnightblue" points="310.42,-30.11 312.65,-19.75 304.45,-26.46 310.42,-30.11"/>
</g>
<!-- Node8 -->
<g id="node8" class="node">
<title>Node8</title>
<g id="a_node8"><a xlink:title=" ">
<polygon fill="white" stroke="#bfbfbf" points="361,-0.5 361,-19.5 435,-19.5 435,-0.5 361,-0.5"/>
<text text-anchor="middle" x="398" y="-7.5" font-family="Helvetica,sans-Serif" font-size="10.00">Eigen/Eigen</text>
</a>
</g>
</g>
<!-- Node4&#45;&gt;Node8 -->
<g id="edge7" class="edge">
<title>Node4&#45;&gt;Node8</title>
<path fill="none" stroke="midnightblue" d="M302.91,-56.44C321.25,-47.68 350.01,-33.94 371.09,-23.86"/>
<polygon fill="midnightblue" stroke="midnightblue" points="372.67,-26.99 380.18,-19.52 369.65,-20.67 372.67,-26.99"/>
</g>
<!-- Node10&#45;&gt;Node4 -->
<g id="edge11" class="edge">
<title>Node10&#45;&gt;Node4</title>
<path fill="none" stroke="midnightblue" d="M285,-112.4C285,-104.47 285,-94.46 285,-85.86"/>
<polygon fill="midnightblue" stroke="midnightblue" points="288.5,-85.66 285,-75.66 281.5,-85.66 288.5,-85.66"/>
</g>
<!-- Node11 -->
<g id="node11" class="node">
<title>Node11</title>
<g id="a_node11"><a xlink:title=" ">
<polygon fill="white" stroke="#bfbfbf" points="368,-56.5 368,-75.5 474,-75.5 474,-56.5 368,-56.5"/>
<text text-anchor="middle" x="421" y="-63.5" font-family="Helvetica,sans-Serif" font-size="10.00">Eigen/Eigenvalues</text>
</a>
</g>
</g>
<!-- Node10&#45;&gt;Node11 -->
<g id="edge10" class="edge">
<title>Node10&#45;&gt;Node11</title>
<path fill="none" stroke="midnightblue" d="M317.23,-112.4C339.84,-102.51 369.84,-89.38 391.76,-79.79"/>
<polygon fill="midnightblue" stroke="midnightblue" points="393.45,-82.87 401.21,-75.66 390.65,-76.46 393.45,-82.87"/>
</g>
</g>
</svg>
