<?xml version="1.0" encoding="UTF-8" standalone="no"?>
<!DOCTYPE svg PUBLIC "-//W3C//DTD SVG 1.1//EN"
 "http://www.w3.org/Graphics/SVG/1.1/DTD/svg11.dtd">
<!-- Generated by graphviz version 2.43.0 (0)
 -->
<!-- Title: include/mini/riemann/rotated/burgers.hpp Pages: 1 -->
<svg width="456pt" height="218pt"
 viewBox="0.00 0.00 456.00 218.00" xmlns="http://www.w3.org/2000/svg" xmlns:xlink="http://www.w3.org/1999/xlink">
<g id="graph0" class="graph" transform="scale(1 1) rotate(0) translate(4 214)">
<title>include/mini/riemann/rotated/burgers.hpp</title>
<polygon fill="white" stroke="transparent" points="-4,4 -4,-214 452,-214 452,4 -4,4"/>
<!-- Node1 -->
<g id="node1" class="node">
<title>Node1</title>
<g id="a_node1"><a xlink:title=" ">
<polygon fill="#bfbfbf" stroke="black" points="196,-179.5 196,-209.5 316,-209.5 316,-179.5 196,-179.5"/>
<text text-anchor="start" x="204" y="-197.5" font-family="Helvetica,sans-Serif" font-size="10.00">include/mini/riemann</text>
<text text-anchor="middle" x="256" y="-186.5" font-family="Helvetica,sans-Serif" font-size="10.00">/rotated/burgers.hpp</text>
</a>
</g>
</g>
<!-- Node2 -->
<g id="node2" class="node">
<title>Node2</title>
<g id="a_node2"><a xlink:href="simple_8hpp.html" target="_top" xlink:title=" ">
<polygon fill="white" stroke="black" points="128,-112.5 128,-142.5 248,-142.5 248,-112.5 128,-112.5"/>
<text text-anchor="start" x="136" y="-130.5" font-family="Helvetica,sans-Serif" font-size="10.00">mini/riemann/rotated</text>
<text text-anchor="middle" x="188" y="-119.5" font-family="Helvetica,sans-Serif" font-size="10.00">/simple.hpp</text>
</a>
</g>
</g>
<!-- Node1&#45;&gt;Node2 -->
<g id="edge1" class="edge">
<title>Node1&#45;&gt;Node2</title>
<path fill="none" stroke="midnightblue" d="M241.25,-179.4C232.16,-170.71 220.33,-159.4 210.13,-149.66"/>
<polygon fill="midnightblue" stroke="midnightblue" points="212.37,-146.96 202.73,-142.58 207.54,-152.02 212.37,-146.96"/>
</g>
<!-- Node10 -->
<g id="node10" class="node">
<title>Node10</title>
<g id="a_node10"><a xlink:href="simple_2burgers_8hpp.html" target="_top" xlink:title=" ">
<polygon fill="white" stroke="black" points="272,-112.5 272,-142.5 390,-142.5 390,-112.5 272,-112.5"/>
<text text-anchor="start" x="280" y="-130.5" font-family="Helvetica,sans-Serif" font-size="10.00">mini/riemann/simple</text>
<text text-anchor="middle" x="331" y="-119.5" font-family="Helvetica,sans-Serif" font-size="10.00">/burgers.hpp</text>
</a>
</g>
</g>
<!-- Node1&#45;&gt;Node10 -->
<g id="edge9" class="edge">
<title>Node1&#45;&gt;Node10</title>
<path fill="none" stroke="midnightblue" d="M272.27,-179.4C282.4,-170.62 295.6,-159.18 306.92,-149.37"/>
<polygon fill="midnightblue" stroke="midnightblue" points="309.49,-151.77 314.76,-142.58 304.91,-146.48 309.49,-151.77"/>
</g>
<!-- Node3 -->
<g id="node3" class="node">
<title>Node3</title>
<g id="a_node3"><a xlink:title=" ">
<polygon fill="white" stroke="#bfbfbf" points="0,-56.5 0,-75.5 50,-75.5 50,-56.5 0,-56.5"/>
<text text-anchor="middle" x="25" y="-63.5" font-family="Helvetica,sans-Serif" font-size="10.00">cstring</text>
</a>
</g>
</g>
<!-- Node2&#45;&gt;Node3 -->
<g id="edge2" class="edge">
<title>Node2&#45;&gt;Node3</title>
<path fill="none" stroke="midnightblue" d="M149.37,-112.4C121.66,-102.28 84.69,-88.79 58.28,-79.15"/>
<polygon fill="midnightblue" stroke="midnightblue" points="59.31,-75.8 48.72,-75.66 56.91,-82.37 59.31,-75.8"/>
</g>
<!-- Node4 -->
<g id="node4" class="node">
<title>Node4</title>
<g id="a_node4"><a xlink:href="algebra_2eigen_8hpp.html" target="_top" xlink:title=" ">
<polygon fill="white" stroke="black" points="220.5,-56.5 220.5,-75.5 349.5,-75.5 349.5,-56.5 220.5,-56.5"/>
<text text-anchor="middle" x="285" y="-63.5" font-family="Helvetica,sans-Serif" font-size="10.00">mini/algebra/eigen.hpp</text>
</a>
</g>
</g>
<!-- Node2&#45;&gt;Node4 -->
<g id="edge3" class="edge">
<title>Node2&#45;&gt;Node4</title>
<path fill="none" stroke="midnightblue" d="M210.99,-112.4C226.39,-102.95 246.59,-90.56 262,-81.11"/>
<polygon fill="midnightblue" stroke="midnightblue" points="264.19,-83.87 270.89,-75.66 260.53,-77.9 264.19,-83.87"/>
</g>
<!-- Node9 -->
<g id="node9" class="node">
<title>Node9</title>
<g id="a_node9"><a xlink:href="index_8hpp.html" target="_top" xlink:title=" ">
<polygon fill="white" stroke="black" points="68,-56.5 68,-75.5 202,-75.5 202,-56.5 68,-56.5"/>
<text text-anchor="middle" x="135" y="-63.5" font-family="Helvetica,sans-Serif" font-size="10.00">mini/constant/index.hpp</text>
</a>
</g>
</g>
<!-- Node2&#45;&gt;Node9 -->
<g id="edge8" class="edge">
<title>Node2&#45;&gt;Node9</title>
<path fill="none" stroke="midnightblue" d="M175.44,-112.4C167.66,-103.66 157.64,-92.41 149.52,-83.3"/>
<polygon fill="midnightblue" stroke="midnightblue" points="151.98,-80.8 142.71,-75.66 146.75,-85.45 151.98,-80.8"/>
</g>
<!-- Node5 -->
<g id="node5" class="node">
<title>Node5</title>
<g id="a_node5"><a xlink:title=" ">
<polygon fill="white" stroke="#bfbfbf" points="112,-0.5 112,-19.5 176,-19.5 176,-0.5 112,-0.5"/>
<text text-anchor="middle" x="144" y="-7.5" font-family="Helvetica,sans-Serif" font-size="10.00">algorithm</text>
</a>
</g>
</g>
<!-- Node4&#45;&gt;Node5 -->
<g id="edge4" class="edge">
<title>Node4&#45;&gt;Node5</title>
<path fill="none" stroke="midnightblue" d="M262.66,-56.44C239.25,-47.48 202.26,-33.31 175.81,-23.18"/>
<polygon fill="midnightblue" stroke="midnightblue" points="176.83,-19.82 166.24,-19.52 174.32,-26.36 176.83,-19.82"/>
</g>
<!-- Node6 -->
<g id="node6" class="node">
<title>Node6</title>
<g id="a_node6"><a xlink:title=" ">
<polygon fill="white" stroke="#bfbfbf" points="354.5,-0.5 354.5,-19.5 401.5,-19.5 401.5,-0.5 354.5,-0.5"/>
<text text-anchor="middle" x="378" y="-7.5" font-family="Helvetica,sans-Serif" font-size="10.00">cmath</text>
</a>
</g>
</g>
<!-- Node4&#45;&gt;Node6 -->
<g id="edge5" class="edge">
<title>Node4&#45;&gt;Node6</title>
<path fill="none" stroke="midnightblue" d="M299.94,-56.32C314.59,-47.82 337.13,-34.73 354.24,-24.8"/>
<polygon fill="midnightblue" stroke="midnightblue" points="356.2,-27.7 363.1,-19.65 352.69,-21.65 356.2,-27.7"/>
</g>
<!-- Node7 -->
<g id="node7" class="node">
<title>Node7</title>
<g id="a_node7"><a xlink:title=" ">
<polygon fill="white" stroke="#bfbfbf" points="194.5,-0.5 194.5,-19.5 243.5,-19.5 243.5,-0.5 194.5,-0.5"/>
<text text-anchor="middle" x="219" y="-7.5" font-family="Helvetica,sans-Serif" font-size="10.00">cstdlib</text>
</a>
</g>
</g>
<!-- Node4&#45;&gt;Node7 -->
<g id="edge6" class="edge">
<title>Node4&#45;&gt;Node7</title>
<path fill="none" stroke="midnightblue" d="M274.4,-56.32C264.54,-48.26 249.65,-36.08 237.78,-26.37"/>
<polygon fill="midnightblue" stroke="midnightblue" points="239.75,-23.46 229.8,-19.83 235.32,-28.88 239.75,-23.46"/>
</g>
<!-- Node8 -->
<g id="node8" class="node">
<title>Node8</title>
<g id="a_node8"><a xlink:title=" ">
<polygon fill="white" stroke="#bfbfbf" points="262,-0.5 262,-19.5 336,-19.5 336,-0.5 262,-0.5"/>
<text text-anchor="middle" x="299" y="-7.5" font-family="Helvetica,sans-Serif" font-size="10.00">Eigen/Eigen</text>
</a>
</g>
</g>
<!-- Node4&#45;&gt;Node8 -->
<g id="edge7" class="edge">
<title>Node4&#45;&gt;Node8</title>
<path fill="none" stroke="midnightblue" d="M287.31,-56.08C289.17,-48.93 291.84,-38.64 294.15,-29.69"/>
<polygon fill="midnightblue" stroke="midnightblue" points="297.61,-30.31 296.73,-19.75 290.83,-28.55 297.61,-30.31"/>
</g>
<!-- Node10&#45;&gt;Node4 -->
<g id="edge12" class="edge">
<title>Node10&#45;&gt;Node4</title>
<path fill="none" stroke="midnightblue" d="M320.1,-112.4C313.41,-103.75 304.82,-92.64 297.82,-83.58"/>
<polygon fill="midnightblue" stroke="midnightblue" points="300.58,-81.43 291.69,-75.66 295.04,-85.71 300.58,-81.43"/>
</g>
<!-- Node10&#45;&gt;Node6 -->
<g id="edge11" class="edge">
<title>Node10&#45;&gt;Node6</title>
<path fill="none" stroke="midnightblue" d="M339.97,-112.34C345.95,-102.44 353.67,-88.77 359,-76 365.37,-60.74 370.47,-42.63 373.78,-29.41"/>
<polygon fill="midnightblue" stroke="midnightblue" points="377.2,-30.16 376.13,-19.62 370.39,-28.53 377.2,-30.16"/>
</g>
<!-- Node11 -->
<g id="node11" class="node">
<title>Node11</title>
<g id="a_node11"><a xlink:title=" ">
<polygon fill="white" stroke="#bfbfbf" points="406,-56.5 406,-75.5 448,-75.5 448,-56.5 406,-56.5"/>
<text text-anchor="middle" x="427" y="-63.5" font-family="Helvetica,sans-Serif" font-size="10.00">array</text>
</a>
</g>
</g>
<!-- Node10&#45;&gt;Node11 -->
<g id="edge10" class="edge">
<title>Node10&#45;&gt;Node11</title>
<path fill="none" stroke="midnightblue" d="M353.75,-112.4C368.99,-102.95 388.99,-90.56 404.24,-81.11"/>
<polygon fill="midnightblue" stroke="midnightblue" points="406.38,-83.9 413.03,-75.66 402.69,-77.95 406.38,-83.9"/>
</g>
</g>
</svg>
