<?xml version="1.0" encoding="UTF-8" standalone="no"?>
<!DOCTYPE svg PUBLIC "-//W3C//DTD SVG 1.1//EN"
 "http://www.w3.org/Graphics/SVG/1.1/DTD/svg11.dtd">
<!-- Generated by graphviz version 2.43.0 (0)
 -->
<!-- Title: include/mini/riemann/rotated/double.hpp Pages: 1 -->
<svg width="624pt" height="218pt"
 viewBox="0.00 0.00 624.40 218.00" xmlns="http://www.w3.org/2000/svg" xmlns:xlink="http://www.w3.org/1999/xlink">
<g id="graph0" class="graph" transform="scale(1 1) rotate(0) translate(4 214)">
<title>include/mini/riemann/rotated/double.hpp</title>
<polygon fill="white" stroke="transparent" points="-4,4 -4,-214 620.4,-214 620.4,4 -4,4"/>
<!-- Node1 -->
<g id="node1" class="node">
<title>Node1</title>
<g id="a_node1"><a xlink:title=" ">
<polygon fill="#bfbfbf" stroke="black" points="236.9,-179.5 236.9,-209.5 356.9,-209.5 356.9,-179.5 236.9,-179.5"/>
<text text-anchor="start" x="244.9" y="-197.5" font-family="Helvetica,sans-Serif" font-size="10.00">include/mini/riemann</text>
<text text-anchor="middle" x="296.9" y="-186.5" font-family="Helvetica,sans-Serif" font-size="10.00">/rotated/double.hpp</text>
</a>
</g>
</g>
<!-- Node2 -->
<g id="node2" class="node">
<title>Node2</title>
<g id="a_node2"><a xlink:title=" ">
<polygon fill="white" stroke="#bfbfbf" points="37.9,-0.5 37.9,-19.5 101.9,-19.5 101.9,-0.5 37.9,-0.5"/>
<text text-anchor="middle" x="69.9" y="-7.5" font-family="Helvetica,sans-Serif" font-size="10.00">algorithm</text>
</a>
</g>
</g>
<!-- Node1&#45;&gt;Node2 -->
<g id="edge1" class="edge">
<title>Node1&#45;&gt;Node2</title>
<path fill="none" stroke="midnightblue" d="M236.7,-191C164.04,-184.19 46.21,-160.04 2.9,-76 -8.25,-54.35 16.78,-35.72 39.36,-24.02"/>
<polygon fill="midnightblue" stroke="midnightblue" points="40.99,-27.12 48.45,-19.59 37.93,-20.82 40.99,-27.12"/>
</g>
<!-- Node3 -->
<g id="node3" class="node">
<title>Node3</title>
<g id="a_node3"><a xlink:title=" ">
<polygon fill="white" stroke="#bfbfbf" points="385.4,-0.5 385.4,-19.5 432.4,-19.5 432.4,-0.5 385.4,-0.5"/>
<text text-anchor="middle" x="408.9" y="-7.5" font-family="Helvetica,sans-Serif" font-size="10.00">cmath</text>
</a>
</g>
</g>
<!-- Node1&#45;&gt;Node3 -->
<g id="edge2" class="edge">
<title>Node1&#45;&gt;Node3</title>
<path fill="none" stroke="midnightblue" d="M356.91,-180.5C376.92,-173 397.1,-161.27 408.9,-143 431.42,-108.15 422.08,-56.57 414.69,-29.35"/>
<polygon fill="midnightblue" stroke="midnightblue" points="418,-28.21 411.83,-19.6 411.29,-30.18 418,-28.21"/>
</g>
<!-- Node4 -->
<g id="node4" class="node">
<title>Node4</title>
<g id="a_node4"><a xlink:href="simple_8hpp.html" target="_top" xlink:title=" ">
<polygon fill="white" stroke="black" points="105.9,-112.5 105.9,-142.5 225.9,-142.5 225.9,-112.5 105.9,-112.5"/>
<text text-anchor="start" x="113.9" y="-130.5" font-family="Helvetica,sans-Serif" font-size="10.00">mini/riemann/rotated</text>
<text text-anchor="middle" x="165.9" y="-119.5" font-family="Helvetica,sans-Serif" font-size="10.00">/simple.hpp</text>
</a>
</g>
</g>
<!-- Node1&#45;&gt;Node4 -->
<g id="edge3" class="edge">
<title>Node1&#45;&gt;Node4</title>
<path fill="none" stroke="midnightblue" d="M268.48,-179.4C249.42,-169.94 224.13,-157.39 203.42,-147.12"/>
<polygon fill="midnightblue" stroke="midnightblue" points="204.78,-143.89 194.27,-142.58 201.67,-150.16 204.78,-143.89"/>
</g>
<!-- Node6 -->
<g id="node6" class="node">
<title>Node6</title>
<g id="a_node6"><a xlink:href="algebra_2eigen_8hpp.html" target="_top" xlink:title=" ">
<polygon fill="white" stroke="black" points="232.4,-56.5 232.4,-75.5 361.4,-75.5 361.4,-56.5 232.4,-56.5"/>
<text text-anchor="middle" x="296.9" y="-63.5" font-family="Helvetica,sans-Serif" font-size="10.00">mini/algebra/eigen.hpp</text>
</a>
</g>
</g>
<!-- Node1&#45;&gt;Node6 -->
<g id="edge19" class="edge">
<title>Node1&#45;&gt;Node6</title>
<path fill="none" stroke="midnightblue" d="M287.94,-179.1C282.4,-169.33 275.81,-155.88 272.9,-143 269.87,-129.56 269.56,-125.37 272.9,-112 275.34,-102.25 280.34,-92.29 285.14,-84.23"/>
<polygon fill="midnightblue" stroke="midnightblue" points="288.12,-86.08 290.53,-75.77 282.21,-82.32 288.12,-86.08"/>
</g>
<!-- Node10 -->
<g id="node10" class="node">
<title>Node10</title>
<g id="a_node10"><a xlink:href="simple_2double_8hpp.html" target="_top" xlink:title=" ">
<polygon fill="white" stroke="black" points="281.9,-112.5 281.9,-142.5 399.9,-142.5 399.9,-112.5 281.9,-112.5"/>
<text text-anchor="start" x="289.9" y="-130.5" font-family="Helvetica,sans-Serif" font-size="10.00">mini/riemann/simple</text>
<text text-anchor="middle" x="340.9" y="-119.5" font-family="Helvetica,sans-Serif" font-size="10.00">/double.hpp</text>
</a>
</g>
</g>
<!-- Node1&#45;&gt;Node10 -->
<g id="edge11" class="edge">
<title>Node1&#45;&gt;Node10</title>
<path fill="none" stroke="midnightblue" d="M306.45,-179.4C312.04,-171.13 319.24,-160.51 325.6,-151.1"/>
<polygon fill="midnightblue" stroke="midnightblue" points="328.67,-152.82 331.37,-142.58 322.87,-148.9 328.67,-152.82"/>
</g>
<!-- Node11 -->
<g id="node11" class="node">
<title>Node11</title>
<g id="a_node11"><a xlink:href="pi_8hpp.html" target="_top" xlink:title=" ">
<polygon fill="white" stroke="black" points="455.9,-118 455.9,-137 577.9,-137 577.9,-118 455.9,-118"/>
<text text-anchor="middle" x="516.9" y="-125" font-family="Helvetica,sans-Serif" font-size="10.00">mini/geometry/pi.hpp</text>
</a>
</g>
</g>
<!-- Node1&#45;&gt;Node11 -->
<g id="edge14" class="edge">
<title>Node1&#45;&gt;Node11</title>
<path fill="none" stroke="midnightblue" d="M344.37,-179.48C384.32,-167.67 440.74,-151 478.05,-139.98"/>
<polygon fill="midnightblue" stroke="midnightblue" points="479.44,-143.22 488.04,-137.03 477.45,-136.51 479.44,-143.22"/>
</g>
<!-- Node5 -->
<g id="node5" class="node">
<title>Node5</title>
<g id="a_node5"><a xlink:title=" ">
<polygon fill="white" stroke="#bfbfbf" points="163.9,-56.5 163.9,-75.5 213.9,-75.5 213.9,-56.5 163.9,-56.5"/>
<text text-anchor="middle" x="188.9" y="-63.5" font-family="Helvetica,sans-Serif" font-size="10.00">cstring</text>
</a>
</g>
</g>
<!-- Node4&#45;&gt;Node5 -->
<g id="edge4" class="edge">
<title>Node4&#45;&gt;Node5</title>
<path fill="none" stroke="midnightblue" d="M171.35,-112.4C174.52,-104.2 178.55,-93.78 181.95,-84.99"/>
<polygon fill="midnightblue" stroke="midnightblue" points="185.21,-86.25 185.55,-75.66 178.68,-83.72 185.21,-86.25"/>
</g>
<!-- Node4&#45;&gt;Node6 -->
<g id="edge5" class="edge">
<title>Node4&#45;&gt;Node6</title>
<path fill="none" stroke="midnightblue" d="M196.95,-112.4C218.63,-102.55 247.36,-89.5 268.45,-79.92"/>
<polygon fill="midnightblue" stroke="midnightblue" points="270.18,-82.98 277.84,-75.66 267.29,-76.61 270.18,-82.98"/>
</g>
<!-- Node9 -->
<g id="node9" class="node">
<title>Node9</title>
<g id="a_node9"><a xlink:href="index_8hpp.html" target="_top" xlink:title=" ">
<polygon fill="white" stroke="black" points="11.9,-56.5 11.9,-75.5 145.9,-75.5 145.9,-56.5 11.9,-56.5"/>
<text text-anchor="middle" x="78.9" y="-63.5" font-family="Helvetica,sans-Serif" font-size="10.00">mini/constant/index.hpp</text>
</a>
</g>
</g>
<!-- Node4&#45;&gt;Node9 -->
<g id="edge10" class="edge">
<title>Node4&#45;&gt;Node9</title>
<path fill="none" stroke="midnightblue" d="M145.28,-112.4C131.6,-103.04 113.69,-90.79 99.92,-81.38"/>
<polygon fill="midnightblue" stroke="midnightblue" points="101.79,-78.41 91.56,-75.66 97.84,-84.19 101.79,-78.41"/>
</g>
<!-- Node6&#45;&gt;Node2 -->
<g id="edge6" class="edge">
<title>Node6&#45;&gt;Node2</title>
<path fill="none" stroke="midnightblue" d="M260.93,-56.44C220.42,-46.81 154.68,-31.17 111.86,-20.98"/>
<polygon fill="midnightblue" stroke="midnightblue" points="112.57,-17.55 102.03,-18.64 110.95,-24.36 112.57,-17.55"/>
</g>
<!-- Node6&#45;&gt;Node3 -->
<g id="edge7" class="edge">
<title>Node6&#45;&gt;Node3</title>
<path fill="none" stroke="midnightblue" d="M314.9,-56.32C332.94,-47.62 360.95,-34.12 381.7,-24.11"/>
<polygon fill="midnightblue" stroke="midnightblue" points="383.46,-27.15 390.95,-19.65 380.42,-20.84 383.46,-27.15"/>
</g>
<!-- Node7 -->
<g id="node7" class="node">
<title>Node7</title>
<g id="a_node7"><a xlink:title=" ">
<polygon fill="white" stroke="#bfbfbf" points="199.4,-0.5 199.4,-19.5 248.4,-19.5 248.4,-0.5 199.4,-0.5"/>
<text text-anchor="middle" x="223.9" y="-7.5" font-family="Helvetica,sans-Serif" font-size="10.00">cstdlib</text>
</a>
</g>
</g>
<!-- Node6&#45;&gt;Node7 -->
<g id="edge8" class="edge">
<title>Node6&#45;&gt;Node7</title>
<path fill="none" stroke="midnightblue" d="M285.17,-56.32C274.06,-48.11 257.16,-35.6 243.92,-25.81"/>
<polygon fill="midnightblue" stroke="midnightblue" points="245.96,-22.97 235.84,-19.83 241.8,-28.59 245.96,-22.97"/>
</g>
<!-- Node8 -->
<g id="node8" class="node">
<title>Node8</title>
<g id="a_node8"><a xlink:title=" ">
<polygon fill="white" stroke="#bfbfbf" points="266.9,-0.5 266.9,-19.5 340.9,-19.5 340.9,-0.5 266.9,-0.5"/>
<text text-anchor="middle" x="303.9" y="-7.5" font-family="Helvetica,sans-Serif" font-size="10.00">Eigen/Eigen</text>
</a>
</g>
</g>
<!-- Node6&#45;&gt;Node8 -->
<g id="edge9" class="edge">
<title>Node6&#45;&gt;Node8</title>
<path fill="none" stroke="midnightblue" d="M298.06,-56.08C298.99,-48.93 300.32,-38.64 301.48,-29.69"/>
<polygon fill="midnightblue" stroke="midnightblue" points="304.95,-30.12 302.77,-19.75 298.01,-29.22 304.95,-30.12"/>
</g>
<!-- Node10&#45;&gt;Node3 -->
<g id="edge12" class="edge">
<title>Node10&#45;&gt;Node3</title>
<path fill="none" stroke="midnightblue" d="M349.33,-112.37C355.36,-102.25 363.65,-88.3 370.9,-76 380.32,-60.03 390.96,-41.8 398.59,-28.72"/>
<polygon fill="midnightblue" stroke="midnightblue" points="401.75,-30.25 403.76,-19.84 395.7,-26.72 401.75,-30.25"/>
</g>
<!-- Node10&#45;&gt;Node6 -->
<g id="edge13" class="edge">
<title>Node10&#45;&gt;Node6</title>
<path fill="none" stroke="midnightblue" d="M330.47,-112.4C324.15,-103.84 316.03,-92.87 309.37,-83.86"/>
<polygon fill="midnightblue" stroke="midnightblue" points="312.06,-81.62 303.3,-75.66 306.44,-85.78 312.06,-81.62"/>
</g>
<!-- Node11&#45;&gt;Node3 -->
<g id="edge15" class="edge">
<title>Node11&#45;&gt;Node3</title>
<path fill="none" stroke="midnightblue" d="M508.78,-117.82C490.8,-98.59 447.37,-52.14 424.15,-27.31"/>
<polygon fill="midnightblue" stroke="midnightblue" points="426.5,-24.7 417.11,-19.78 421.39,-29.48 426.5,-24.7"/>
</g>
<!-- Node11&#45;&gt;Node6 -->
<g id="edge18" class="edge">
<title>Node11&#45;&gt;Node6</title>
<path fill="none" stroke="midnightblue" d="M485.38,-117.98C446.66,-107.5 380.88,-89.71 338.17,-78.16"/>
<polygon fill="midnightblue" stroke="midnightblue" points="338.93,-74.74 328.36,-75.51 337.1,-81.5 338.93,-74.74"/>
</g>
<!-- Node12 -->
<g id="node12" class="node">
<title>Node12</title>
<g id="a_node12"><a xlink:title=" ">
<polygon fill="white" stroke="#bfbfbf" points="494.4,-56.5 494.4,-75.5 553.4,-75.5 553.4,-56.5 494.4,-56.5"/>
<text text-anchor="middle" x="523.9" y="-63.5" font-family="Helvetica,sans-Serif" font-size="10.00">numbers</text>
</a>
</g>
</g>
<!-- Node11&#45;&gt;Node12 -->
<g id="edge16" class="edge">
<title>Node11&#45;&gt;Node12</title>
<path fill="none" stroke="midnightblue" d="M517.9,-117.98C518.89,-109.58 520.43,-96.48 521.71,-85.66"/>
<polygon fill="midnightblue" stroke="midnightblue" points="525.21,-85.85 522.9,-75.51 518.26,-85.03 525.21,-85.85"/>
</g>
<!-- Node13 -->
<g id="node13" class="node">
<title>Node13</title>
<g id="a_node13"><a xlink:title=" ">
<polygon fill="white" stroke="#bfbfbf" points="571.4,-56.5 571.4,-75.5 616.4,-75.5 616.4,-56.5 571.4,-56.5"/>
<text text-anchor="middle" x="593.9" y="-63.5" font-family="Helvetica,sans-Serif" font-size="10.00">utility</text>
</a>
</g>
</g>
<!-- Node11&#45;&gt;Node13 -->
<g id="edge17" class="edge">
<title>Node11&#45;&gt;Node13</title>
<path fill="none" stroke="midnightblue" d="M527.93,-117.98C540.17,-108.52 560.13,-93.1 574.89,-81.69"/>
<polygon fill="midnightblue" stroke="midnightblue" points="577.12,-84.39 582.89,-75.51 572.84,-78.85 577.12,-84.39"/>
</g>
</g>
</svg>
