<?xml version="1.0" encoding="UTF-8" standalone="no"?>
<!DOCTYPE svg PUBLIC "-//W3C//DTD SVG 1.1//EN"
 "http://www.w3.org/Graphics/SVG/1.1/DTD/svg11.dtd">
<!-- Generated by graphviz version 2.43.0 (0)
 -->
<!-- Title: include/mini/aircraft/rotor.hpp Pages: 1 -->
<svg width="642pt" height="375pt"
 viewBox="0.00 0.00 642.00 375.00" xmlns="http://www.w3.org/2000/svg" xmlns:xlink="http://www.w3.org/1999/xlink">
<g id="graph0" class="graph" transform="scale(1 1) rotate(0) translate(4 371)">
<title>include/mini/aircraft/rotor.hpp</title>
<polygon fill="white" stroke="transparent" points="-4,4 -4,-371 638,-371 638,4 -4,4"/>
<!-- Node1 -->
<g id="node1" class="node">
<title>Node1</title>
<g id="a_node1"><a xlink:title=" ">
<polygon fill="#bfbfbf" stroke="black" points="111,-336.5 111,-366.5 225,-366.5 225,-336.5 111,-336.5"/>
<text text-anchor="start" x="119" y="-354.5" font-family="Helvetica,sans-Serif" font-size="10.00">include/mini/aircraft</text>
<text text-anchor="middle" x="168" y="-343.5" font-family="Helvetica,sans-Serif" font-size="10.00">/rotor.hpp</text>
</a>
</g>
</g>
<!-- Node2 -->
<g id="node2" class="node">
<title>Node2</title>
<g id="a_node2"><a xlink:title=" ">
<polygon fill="white" stroke="#bfbfbf" points="574,-112.5 574,-131.5 634,-131.5 634,-112.5 574,-112.5"/>
<text text-anchor="middle" x="604" y="-119.5" font-family="Helvetica,sans-Serif" font-size="10.00">concepts</text>
</a>
</g>
</g>
<!-- Node1&#45;&gt;Node2 -->
<g id="edge1" class="edge">
<title>Node1&#45;&gt;Node2</title>
<path fill="none" stroke="midnightblue" d="M225.19,-339.74C298.98,-324.55 430.2,-293.07 534,-244 575.91,-224.19 599.69,-228.64 622,-188 630.16,-173.13 623.33,-154.28 615.85,-140.71"/>
<polygon fill="midnightblue" stroke="midnightblue" points="618.68,-138.63 610.5,-131.9 612.7,-142.26 618.68,-138.63"/>
</g>
<!-- Node3 -->
<g id="node3" class="node">
<title>Node3</title>
<g id="a_node3"><a xlink:title=" ">
<polygon fill="white" stroke="#bfbfbf" points="55,-112.5 55,-131.5 115,-131.5 115,-112.5 55,-112.5"/>
<text text-anchor="middle" x="85" y="-119.5" font-family="Helvetica,sans-Serif" font-size="10.00">iostream</text>
</a>
</g>
</g>
<!-- Node1&#45;&gt;Node3 -->
<g id="edge2" class="edge">
<title>Node1&#45;&gt;Node3</title>
<path fill="none" stroke="midnightblue" d="M144.36,-336.35C117.36,-318.65 74.64,-285.55 57,-244 42.04,-208.76 61.3,-164.2 74.51,-140.2"/>
<polygon fill="midnightblue" stroke="midnightblue" points="77.54,-141.94 79.52,-131.53 71.48,-138.44 77.54,-141.94"/>
</g>
<!-- Node4 -->
<g id="node4" class="node">
<title>Node4</title>
<g id="a_node4"><a xlink:title=" ">
<polygon fill="white" stroke="#bfbfbf" points="129.5,-56.5 129.5,-75.5 174.5,-75.5 174.5,-56.5 129.5,-56.5"/>
<text text-anchor="middle" x="152" y="-63.5" font-family="Helvetica,sans-Serif" font-size="10.00">utility</text>
</a>
</g>
</g>
<!-- Node1&#45;&gt;Node4 -->
<g id="edge3" class="edge">
<title>Node1&#45;&gt;Node4</title>
<path fill="none" stroke="midnightblue" d="M110.65,-336.52C61.99,-320.83 0,-290.04 0,-235 0,-235 0,-235 0,-177 0,-118.52 74.74,-87.97 119.4,-74.93"/>
<polygon fill="midnightblue" stroke="midnightblue" points="120.55,-78.25 129.24,-72.2 118.67,-71.5 120.55,-78.25"/>
</g>
<!-- Node5 -->
<g id="node5" class="node">
<title>Node5</title>
<g id="a_node5"><a xlink:title=" ">
<polygon fill="white" stroke="#bfbfbf" points="66.5,-224.5 66.5,-243.5 113.5,-243.5 113.5,-224.5 66.5,-224.5"/>
<text text-anchor="middle" x="90" y="-231.5" font-family="Helvetica,sans-Serif" font-size="10.00">vector</text>
</a>
</g>
</g>
<!-- Node1&#45;&gt;Node5 -->
<g id="edge4" class="edge">
<title>Node1&#45;&gt;Node5</title>
<path fill="none" stroke="midnightblue" d="M157.04,-336.11C149.53,-326.11 139.44,-312.4 131,-300 120.13,-284.02 108.43,-265.32 100.33,-252.09"/>
<polygon fill="midnightblue" stroke="midnightblue" points="103.31,-250.26 95.12,-243.54 97.33,-253.9 103.31,-250.26"/>
</g>
<!-- Node6 -->
<g id="node6" class="node">
<title>Node6</title>
<g id="a_node6"><a xlink:href="pi_8hpp.html" target="_top" xlink:title=" ">
<polygon fill="white" stroke="black" points="284,-112.5 284,-131.5 406,-131.5 406,-112.5 284,-112.5"/>
<text text-anchor="middle" x="345" y="-119.5" font-family="Helvetica,sans-Serif" font-size="10.00">mini/geometry/pi.hpp</text>
</a>
</g>
</g>
<!-- Node1&#45;&gt;Node6 -->
<g id="edge5" class="edge">
<title>Node1&#45;&gt;Node6</title>
<path fill="none" stroke="midnightblue" d="M225.14,-341.17C279.54,-328.98 358.76,-301.93 398,-244 416.96,-216.01 415.61,-198.48 401,-168 394.75,-154.95 382.66,-144.49 371.32,-136.95"/>
<polygon fill="midnightblue" stroke="midnightblue" points="372.85,-133.79 362.5,-131.54 369.19,-139.75 372.85,-133.79"/>
</g>
<!-- Node13 -->
<g id="node13" class="node">
<title>Node13</title>
<g id="a_node13"><a xlink:href="blade_8hpp.html" target="_top" xlink:title=" ">
<polygon fill="white" stroke="black" points="140.5,-280.5 140.5,-299.5 267.5,-299.5 267.5,-280.5 140.5,-280.5"/>
<text text-anchor="middle" x="204" y="-287.5" font-family="Helvetica,sans-Serif" font-size="10.00">mini/aircraft/blade.hpp</text>
</a>
</g>
</g>
<!-- Node1&#45;&gt;Node13 -->
<g id="edge14" class="edge">
<title>Node1&#45;&gt;Node13</title>
<path fill="none" stroke="midnightblue" d="M176.53,-336.4C181.6,-328.02 188.07,-317.33 193.46,-308.42"/>
<polygon fill="midnightblue" stroke="midnightblue" points="196.58,-310.03 198.76,-299.66 190.59,-306.4 196.58,-310.03"/>
</g>
<!-- Node6&#45;&gt;Node4 -->
<g id="edge8" class="edge">
<title>Node6&#45;&gt;Node4</title>
<path fill="none" stroke="midnightblue" d="M313.91,-112.48C283.25,-104.05 234.81,-90.67 184.44,-76.39"/>
<polygon fill="midnightblue" stroke="midnightblue" points="185.25,-72.98 174.68,-73.62 183.34,-79.72 185.25,-72.98"/>
</g>
<!-- Node7 -->
<g id="node7" class="node">
<title>Node7</title>
<g id="a_node7"><a xlink:title=" ">
<polygon fill="white" stroke="#bfbfbf" points="360.5,-0.5 360.5,-19.5 407.5,-19.5 407.5,-0.5 360.5,-0.5"/>
<text text-anchor="middle" x="384" y="-7.5" font-family="Helvetica,sans-Serif" font-size="10.00">cmath</text>
</a>
</g>
</g>
<!-- Node6&#45;&gt;Node7 -->
<g id="edge6" class="edge">
<title>Node6&#45;&gt;Node7</title>
<path fill="none" stroke="midnightblue" d="M348.06,-112.37C354.38,-94.54 369,-53.3 377.52,-29.27"/>
<polygon fill="midnightblue" stroke="midnightblue" points="380.91,-30.19 380.95,-19.59 374.31,-27.85 380.91,-30.19"/>
</g>
<!-- Node8 -->
<g id="node8" class="node">
<title>Node8</title>
<g id="a_node8"><a xlink:title=" ">
<polygon fill="white" stroke="#bfbfbf" points="378.5,-56.5 378.5,-75.5 437.5,-75.5 437.5,-56.5 378.5,-56.5"/>
<text text-anchor="middle" x="408" y="-63.5" font-family="Helvetica,sans-Serif" font-size="10.00">numbers</text>
</a>
</g>
</g>
<!-- Node6&#45;&gt;Node8 -->
<g id="edge7" class="edge">
<title>Node6&#45;&gt;Node8</title>
<path fill="none" stroke="midnightblue" d="M355.12,-112.32C364.53,-104.26 378.74,-92.08 390.07,-82.37"/>
<polygon fill="midnightblue" stroke="midnightblue" points="392.38,-85 397.69,-75.83 387.82,-79.68 392.38,-85"/>
</g>
<!-- Node9 -->
<g id="node9" class="node">
<title>Node9</title>
<g id="a_node9"><a xlink:href="algebra_2eigen_8hpp.html" target="_top" xlink:title=" ">
<polygon fill="white" stroke="black" points="192.5,-56.5 192.5,-75.5 321.5,-75.5 321.5,-56.5 192.5,-56.5"/>
<text text-anchor="middle" x="257" y="-63.5" font-family="Helvetica,sans-Serif" font-size="10.00">mini/algebra/eigen.hpp</text>
</a>
</g>
</g>
<!-- Node6&#45;&gt;Node9 -->
<g id="edge9" class="edge">
<title>Node6&#45;&gt;Node9</title>
<path fill="none" stroke="midnightblue" d="M330.86,-112.32C317.13,-103.9 296.06,-90.97 279.94,-81.07"/>
<polygon fill="midnightblue" stroke="midnightblue" points="281.46,-77.9 271.1,-75.65 277.8,-83.87 281.46,-77.9"/>
</g>
<!-- Node9&#45;&gt;Node7 -->
<g id="edge11" class="edge">
<title>Node9&#45;&gt;Node7</title>
<path fill="none" stroke="midnightblue" d="M277.12,-56.44C298.02,-47.56 330.93,-33.56 354.72,-23.45"/>
<polygon fill="midnightblue" stroke="midnightblue" points="356.14,-26.65 363.97,-19.52 353.4,-20.21 356.14,-26.65"/>
</g>
<!-- Node10 -->
<g id="node10" class="node">
<title>Node10</title>
<g id="a_node10"><a xlink:title=" ">
<polygon fill="white" stroke="#bfbfbf" points="278,-0.5 278,-19.5 342,-19.5 342,-0.5 278,-0.5"/>
<text text-anchor="middle" x="310" y="-7.5" font-family="Helvetica,sans-Serif" font-size="10.00">algorithm</text>
</a>
</g>
</g>
<!-- Node9&#45;&gt;Node10 -->
<g id="edge10" class="edge">
<title>Node9&#45;&gt;Node10</title>
<path fill="none" stroke="midnightblue" d="M265.75,-56.08C273.47,-48.22 284.9,-36.57 294.22,-27.08"/>
<polygon fill="midnightblue" stroke="midnightblue" points="296.9,-29.34 301.41,-19.75 291.91,-24.44 296.9,-29.34"/>
</g>
<!-- Node11 -->
<g id="node11" class="node">
<title>Node11</title>
<g id="a_node11"><a xlink:title=" ">
<polygon fill="white" stroke="#bfbfbf" points="118.5,-0.5 118.5,-19.5 167.5,-19.5 167.5,-0.5 118.5,-0.5"/>
<text text-anchor="middle" x="143" y="-7.5" font-family="Helvetica,sans-Serif" font-size="10.00">cstdlib</text>
</a>
</g>
</g>
<!-- Node9&#45;&gt;Node11 -->
<g id="edge12" class="edge">
<title>Node9&#45;&gt;Node11</title>
<path fill="none" stroke="midnightblue" d="M238.94,-56.44C220.43,-47.68 191.42,-33.94 170.14,-23.86"/>
<polygon fill="midnightblue" stroke="midnightblue" points="171.51,-20.63 160.98,-19.52 168.52,-26.96 171.51,-20.63"/>
</g>
<!-- Node12 -->
<g id="node12" class="node">
<title>Node12</title>
<g id="a_node12"><a xlink:title=" ">
<polygon fill="white" stroke="#bfbfbf" points="186,-0.5 186,-19.5 260,-19.5 260,-0.5 186,-0.5"/>
<text text-anchor="middle" x="223" y="-7.5" font-family="Helvetica,sans-Serif" font-size="10.00">Eigen/Eigen</text>
</a>
</g>
</g>
<!-- Node9&#45;&gt;Node12 -->
<g id="edge13" class="edge">
<title>Node9&#45;&gt;Node12</title>
<path fill="none" stroke="midnightblue" d="M251.39,-56.08C246.63,-48.53 239.68,-37.49 233.85,-28.23"/>
<polygon fill="midnightblue" stroke="midnightblue" points="236.8,-26.35 228.51,-19.75 230.88,-30.08 236.8,-26.35"/>
</g>
<!-- Node13&#45;&gt;Node2 -->
<g id="edge15" class="edge">
<title>Node13&#45;&gt;Node2</title>
<path fill="none" stroke="midnightblue" d="M267.62,-282.46C370.08,-270.47 564.31,-241.16 605,-188 615.06,-174.86 613.27,-155.45 609.9,-141.26"/>
<polygon fill="midnightblue" stroke="midnightblue" points="613.26,-140.3 607.19,-131.62 606.53,-142.19 613.26,-140.3"/>
</g>
<!-- Node13&#45;&gt;Node3 -->
<g id="edge16" class="edge">
<title>Node13&#45;&gt;Node3</title>
<path fill="none" stroke="midnightblue" d="M207.11,-280.09C211.21,-266.65 216.61,-240.94 205,-224 179.95,-187.44 143.72,-218.96 112,-188 99.18,-175.49 92.19,-155.98 88.55,-141.6"/>
<polygon fill="midnightblue" stroke="midnightblue" points="91.96,-140.82 86.39,-131.81 85.13,-142.33 91.96,-140.82"/>
</g>
<!-- Node13&#45;&gt;Node5 -->
<g id="edge18" class="edge">
<title>Node13&#45;&gt;Node5</title>
<path fill="none" stroke="midnightblue" d="M185.94,-280.44C167.43,-271.68 138.42,-257.94 117.14,-247.86"/>
<polygon fill="midnightblue" stroke="midnightblue" points="118.51,-244.63 107.98,-243.52 115.52,-250.96 118.51,-244.63"/>
</g>
<!-- Node14 -->
<g id="node14" class="node">
<title>Node14</title>
<g id="a_node14"><a xlink:title=" ">
<polygon fill="white" stroke="#bfbfbf" points="131.5,-224.5 131.5,-243.5 196.5,-243.5 196.5,-224.5 131.5,-224.5"/>
<text text-anchor="middle" x="164" y="-231.5" font-family="Helvetica,sans-Serif" font-size="10.00">stdexcept</text>
</a>
</g>
</g>
<!-- Node13&#45;&gt;Node14 -->
<g id="edge17" class="edge">
<title>Node13&#45;&gt;Node14</title>
<path fill="none" stroke="midnightblue" d="M197.39,-280.08C191.74,-272.46 183.46,-261.26 176.55,-251.94"/>
<polygon fill="midnightblue" stroke="midnightblue" points="179.25,-249.7 170.48,-243.75 173.62,-253.87 179.25,-249.7"/>
</g>
<!-- Node15 -->
<g id="node15" class="node">
<title>Node15</title>
<g id="a_node15"><a xlink:href="section_8hpp.html" target="_top" xlink:title=" ">
<polygon fill="white" stroke="black" points="253.5,-224.5 253.5,-243.5 388.5,-243.5 388.5,-224.5 253.5,-224.5"/>
<text text-anchor="middle" x="321" y="-231.5" font-family="Helvetica,sans-Serif" font-size="10.00">mini/aircraft/section.hpp</text>
</a>
</g>
</g>
<!-- Node13&#45;&gt;Node15 -->
<g id="edge19" class="edge">
<title>Node13&#45;&gt;Node15</title>
<path fill="none" stroke="midnightblue" d="M222.54,-280.44C241.62,-271.64 271.57,-257.81 293.44,-247.72"/>
<polygon fill="midnightblue" stroke="midnightblue" points="294.93,-250.88 302.55,-243.52 292,-244.53 294.93,-250.88"/>
</g>
<!-- Node15&#45;&gt;Node2 -->
<g id="edge20" class="edge">
<title>Node15&#45;&gt;Node2</title>
<path fill="none" stroke="midnightblue" d="M388.69,-229.5C457.11,-224.59 556.66,-213.24 585,-188 598.01,-176.41 602.33,-156.45 603.65,-141.7"/>
<polygon fill="midnightblue" stroke="midnightblue" points="607.15,-141.83 604.18,-131.66 600.16,-141.46 607.15,-141.83"/>
</g>
<!-- Node15&#45;&gt;Node3 -->
<g id="edge22" class="edge">
<title>Node15&#45;&gt;Node3</title>
<path fill="none" stroke="midnightblue" d="M271.12,-224.42C224.84,-215.81 159.91,-201.86 138,-188 119.22,-176.13 104,-155.32 94.77,-140.44"/>
<polygon fill="midnightblue" stroke="midnightblue" points="97.69,-138.5 89.59,-131.67 91.66,-142.06 97.69,-138.5"/>
</g>
<!-- Node15&#45;&gt;Node4 -->
<g id="edge23" class="edge">
<title>Node15&#45;&gt;Node4</title>
<path fill="none" stroke="midnightblue" d="M253.32,-228.52C223.92,-223.03 191.56,-211.56 171,-188 146.03,-159.39 146.65,-111.82 149.31,-85.66"/>
<polygon fill="midnightblue" stroke="midnightblue" points="152.8,-85.94 150.55,-75.58 145.86,-85.08 152.8,-85.94"/>
</g>
<!-- Node16 -->
<g id="node16" class="node">
<title>Node16</title>
<g id="a_node16"><a xlink:title=" ">
<polygon fill="white" stroke="#bfbfbf" points="340,-168.5 340,-187.5 392,-187.5 392,-168.5 340,-168.5"/>
<text text-anchor="middle" x="366" y="-175.5" font-family="Helvetica,sans-Serif" font-size="10.00">cassert</text>
</a>
</g>
</g>
<!-- Node15&#45;&gt;Node16 -->
<g id="edge21" class="edge">
<title>Node15&#45;&gt;Node16</title>
<path fill="none" stroke="midnightblue" d="M328.43,-224.08C334.85,-216.38 344.31,-205.03 352.12,-195.65"/>
<polygon fill="midnightblue" stroke="midnightblue" points="354.99,-197.67 358.71,-187.75 349.62,-193.19 354.99,-197.67"/>
</g>
<!-- Node17 -->
<g id="node17" class="node">
<title>Node17</title>
<g id="a_node17"><a xlink:href="airfoil_8hpp.html" target="_top" xlink:title=" ">
<polygon fill="white" stroke="black" points="448,-168.5 448,-187.5 576,-187.5 576,-168.5 448,-168.5"/>
<text text-anchor="middle" x="512" y="-175.5" font-family="Helvetica,sans-Serif" font-size="10.00">mini/aircraft/airfoil.hpp</text>
</a>
</g>
</g>
<!-- Node15&#45;&gt;Node17 -->
<g id="edge24" class="edge">
<title>Node15&#45;&gt;Node17</title>
<path fill="none" stroke="midnightblue" d="M351.26,-224.44C383.96,-215.2 436.18,-200.44 472.18,-190.26"/>
<polygon fill="midnightblue" stroke="midnightblue" points="473.21,-193.61 481.88,-187.52 471.3,-186.87 473.21,-193.61"/>
</g>
<!-- Node19 -->
<g id="node19" class="node">
<title>Node19</title>
<g id="a_node19"><a xlink:href="frame_8hpp.html" target="_top" xlink:title=" ">
<polygon fill="white" stroke="black" points="180,-168.5 180,-187.5 322,-187.5 322,-168.5 180,-168.5"/>
<text text-anchor="middle" x="251" y="-175.5" font-family="Helvetica,sans-Serif" font-size="10.00">mini/geometry/frame.hpp</text>
</a>
</g>
</g>
<!-- Node15&#45;&gt;Node19 -->
<g id="edge28" class="edge">
<title>Node15&#45;&gt;Node19</title>
<path fill="none" stroke="midnightblue" d="M309.75,-224.32C299.2,-216.18 283.2,-203.84 270.56,-194.09"/>
<polygon fill="midnightblue" stroke="midnightblue" points="272.51,-191.17 262.45,-187.83 268.23,-196.71 272.51,-191.17"/>
</g>
<!-- Node17&#45;&gt;Node2 -->
<g id="edge25" class="edge">
<title>Node17&#45;&gt;Node2</title>
<path fill="none" stroke="midnightblue" d="M526.78,-168.32C541.27,-159.82 563.57,-146.73 580.49,-136.8"/>
<polygon fill="midnightblue" stroke="midnightblue" points="582.4,-139.74 589.26,-131.65 578.86,-133.7 582.4,-139.74"/>
</g>
<!-- Node17&#45;&gt;Node7 -->
<g id="edge26" class="edge">
<title>Node17&#45;&gt;Node7</title>
<path fill="none" stroke="midnightblue" d="M510.58,-168.16C508.26,-155.25 502.89,-130.71 493,-112 477.95,-83.52 470.53,-77.99 447,-56 434.59,-44.4 419.09,-33.29 406.57,-25.01"/>
<polygon fill="midnightblue" stroke="midnightblue" points="408.36,-22.01 398.06,-19.52 404.56,-27.89 408.36,-22.01"/>
</g>
<!-- Node18 -->
<g id="node18" class="node">
<title>Node18</title>
<g id="a_node18"><a xlink:title=" ">
<polygon fill="white" stroke="#bfbfbf" points="442,-112.5 442,-131.5 484,-131.5 484,-112.5 442,-112.5"/>
<text text-anchor="middle" x="463" y="-119.5" font-family="Helvetica,sans-Serif" font-size="10.00">array</text>
</a>
</g>
</g>
<!-- Node17&#45;&gt;Node18 -->
<g id="edge27" class="edge">
<title>Node17&#45;&gt;Node18</title>
<path fill="none" stroke="midnightblue" d="M503.91,-168.08C496.84,-160.3 486.41,-148.8 477.85,-139.37"/>
<polygon fill="midnightblue" stroke="midnightblue" points="480.25,-136.8 470.94,-131.75 475.07,-141.51 480.25,-136.8"/>
</g>
<!-- Node19&#45;&gt;Node2 -->
<g id="edge29" class="edge">
<title>Node19&#45;&gt;Node2</title>
<path fill="none" stroke="midnightblue" d="M306.93,-168.44C378.57,-157.49 500.96,-138.76 563.95,-129.13"/>
<polygon fill="midnightblue" stroke="midnightblue" points="564.54,-132.58 573.9,-127.6 563.48,-125.66 564.54,-132.58"/>
</g>
<!-- Node19&#45;&gt;Node3 -->
<g id="edge30" class="edge">
<title>Node19&#45;&gt;Node3</title>
<path fill="none" stroke="midnightblue" d="M224.7,-168.44C196.65,-159.32 152.06,-144.81 120.82,-134.65"/>
<polygon fill="midnightblue" stroke="midnightblue" points="121.77,-131.28 111.18,-131.52 119.61,-137.94 121.77,-131.28"/>
</g>
<!-- Node19&#45;&gt;Node4 -->
<g id="edge31" class="edge">
<title>Node19&#45;&gt;Node4</title>
<path fill="none" stroke="midnightblue" d="M243.23,-168.37C226.68,-149.97 187.7,-106.67 166.45,-83.05"/>
<polygon fill="midnightblue" stroke="midnightblue" points="169.02,-80.68 159.73,-75.59 163.82,-85.37 169.02,-80.68"/>
</g>
<!-- Node19&#45;&gt;Node6 -->
<g id="edge33" class="edge">
<title>Node19&#45;&gt;Node6</title>
<path fill="none" stroke="midnightblue" d="M266.1,-168.32C280.9,-159.82 303.69,-146.73 320.98,-136.8"/>
<polygon fill="midnightblue" stroke="midnightblue" points="323.01,-139.67 329.93,-131.65 319.52,-133.6 323.01,-139.67"/>
</g>
<!-- Node19&#45;&gt;Node9 -->
<g id="edge32" class="edge">
<title>Node19&#45;&gt;Node9</title>
<path fill="none" stroke="midnightblue" d="M251.47,-168.37C252.44,-150.62 254.67,-109.67 255.99,-85.6"/>
<polygon fill="midnightblue" stroke="midnightblue" points="259.48,-85.77 256.53,-75.59 252.49,-85.39 259.48,-85.77"/>
</g>
</g>
</svg>
