<?xml version="1.0" encoding="UTF-8" standalone="no"?>
<!DOCTYPE svg PUBLIC "-//W3C//DTD SVG 1.1//EN"
 "http://www.w3.org/Graphics/SVG/1.1/DTD/svg11.dtd">
<!-- Generated by graphviz version 2.43.0 (0)
 -->
<!-- Title: include/mini/aircraft/section.hpp Pages: 1 -->
<svg width="549pt" height="263pt"
 viewBox="0.00 0.00 549.00 263.00" xmlns="http://www.w3.org/2000/svg" xmlns:xlink="http://www.w3.org/1999/xlink">
<g id="graph0" class="graph" transform="scale(1 1) rotate(0) translate(4 259)">
<title>include/mini/aircraft/section.hpp</title>
<polygon fill="white" stroke="transparent" points="-4,4 -4,-259 545,-259 545,4 -4,4"/>
<!-- Node1 -->
<g id="node1" class="node">
<title>Node1</title>
<g id="a_node1"><a xlink:title=" ">
<polygon fill="#bfbfbf" stroke="black" points="186,-224.5 186,-254.5 300,-254.5 300,-224.5 186,-224.5"/>
<text text-anchor="start" x="194" y="-242.5" font-family="Helvetica,sans-Serif" font-size="10.00">include/mini/aircraft</text>
<text text-anchor="middle" x="243" y="-231.5" font-family="Helvetica,sans-Serif" font-size="10.00">/section.hpp</text>
</a>
</g>
</g>
<!-- Node2 -->
<g id="node2" class="node">
<title>Node2</title>
<g id="a_node2"><a xlink:title=" ">
<polygon fill="white" stroke="#bfbfbf" points="106,-112.5 106,-131.5 166,-131.5 166,-112.5 106,-112.5"/>
<text text-anchor="middle" x="136" y="-119.5" font-family="Helvetica,sans-Serif" font-size="10.00">concepts</text>
</a>
</g>
</g>
<!-- Node1&#45;&gt;Node2 -->
<g id="edge1" class="edge">
<title>Node1&#45;&gt;Node2</title>
<path fill="none" stroke="midnightblue" d="M222.39,-224.43C209.4,-215 192.74,-201.81 180,-188 166.47,-173.33 154.02,-154.17 145.84,-140.46"/>
<polygon fill="midnightblue" stroke="midnightblue" points="148.74,-138.48 140.69,-131.58 142.68,-141.99 148.74,-138.48"/>
</g>
<!-- Node3 -->
<g id="node3" class="node">
<title>Node3</title>
<g id="a_node3"><a xlink:title=" ">
<polygon fill="white" stroke="#bfbfbf" points="420,-168.5 420,-187.5 472,-187.5 472,-168.5 420,-168.5"/>
<text text-anchor="middle" x="446" y="-175.5" font-family="Helvetica,sans-Serif" font-size="10.00">cassert</text>
</a>
</g>
</g>
<!-- Node1&#45;&gt;Node3 -->
<g id="edge2" class="edge">
<title>Node1&#45;&gt;Node3</title>
<path fill="none" stroke="midnightblue" d="M290.85,-224.47C327.39,-213.76 376.96,-199.24 410.14,-189.51"/>
<polygon fill="midnightblue" stroke="midnightblue" points="411.26,-192.83 419.87,-186.66 409.29,-186.11 411.26,-192.83"/>
</g>
<!-- Node4 -->
<g id="node4" class="node">
<title>Node4</title>
<g id="a_node4"><a xlink:title=" ">
<polygon fill="white" stroke="#bfbfbf" points="438,-112.5 438,-131.5 498,-131.5 498,-112.5 438,-112.5"/>
<text text-anchor="middle" x="468" y="-119.5" font-family="Helvetica,sans-Serif" font-size="10.00">iostream</text>
</a>
</g>
</g>
<!-- Node1&#45;&gt;Node4 -->
<g id="edge3" class="edge">
<title>Node1&#45;&gt;Node4</title>
<path fill="none" stroke="midnightblue" d="M286.54,-224.41C312.32,-215.38 345.26,-202.63 373,-188 400.93,-173.27 430.56,-151.97 449.17,-137.81"/>
<polygon fill="midnightblue" stroke="midnightblue" points="451.34,-140.56 457.12,-131.68 447.07,-135.01 451.34,-140.56"/>
</g>
<!-- Node5 -->
<g id="node5" class="node">
<title>Node5</title>
<g id="a_node5"><a xlink:title=" ">
<polygon fill="white" stroke="#bfbfbf" points="180.5,-56.5 180.5,-75.5 225.5,-75.5 225.5,-56.5 180.5,-56.5"/>
<text text-anchor="middle" x="203" y="-63.5" font-family="Helvetica,sans-Serif" font-size="10.00">utility</text>
</a>
</g>
</g>
<!-- Node1&#45;&gt;Node5 -->
<g id="edge4" class="edge">
<title>Node1&#45;&gt;Node5</title>
<path fill="none" stroke="midnightblue" d="M232.19,-224.32C225.42,-214.64 217.22,-201.21 213,-188 201.92,-153.32 201.24,-110.35 201.97,-86.07"/>
<polygon fill="midnightblue" stroke="midnightblue" points="205.48,-85.9 202.4,-75.77 198.48,-85.61 205.48,-85.9"/>
</g>
<!-- Node6 -->
<g id="node6" class="node">
<title>Node6</title>
<g id="a_node6"><a xlink:href="airfoil_8hpp.html" target="_top" xlink:title=" ">
<polygon fill="white" stroke="black" points="0,-168.5 0,-187.5 128,-187.5 128,-168.5 0,-168.5"/>
<text text-anchor="middle" x="64" y="-175.5" font-family="Helvetica,sans-Serif" font-size="10.00">mini/aircraft/airfoil.hpp</text>
</a>
</g>
</g>
<!-- Node1&#45;&gt;Node6 -->
<g id="edge5" class="edge">
<title>Node1&#45;&gt;Node6</title>
<path fill="none" stroke="midnightblue" d="M200.58,-224.4C169.78,-214.16 128.59,-200.47 99.52,-190.81"/>
<polygon fill="midnightblue" stroke="midnightblue" points="100.38,-187.4 89.78,-187.57 98.17,-194.05 100.38,-187.4"/>
</g>
<!-- Node9 -->
<g id="node9" class="node">
<title>Node9</title>
<g id="a_node9"><a xlink:href="frame_8hpp.html" target="_top" xlink:title=" ">
<polygon fill="white" stroke="black" points="222,-168.5 222,-187.5 364,-187.5 364,-168.5 222,-168.5"/>
<text text-anchor="middle" x="293" y="-175.5" font-family="Helvetica,sans-Serif" font-size="10.00">mini/geometry/frame.hpp</text>
</a>
</g>
</g>
<!-- Node1&#45;&gt;Node9 -->
<g id="edge9" class="edge">
<title>Node1&#45;&gt;Node9</title>
<path fill="none" stroke="midnightblue" d="M254.85,-224.4C262.11,-215.75 271.45,-204.64 279.07,-195.58"/>
<polygon fill="midnightblue" stroke="midnightblue" points="281.97,-197.57 285.72,-187.66 276.61,-193.06 281.97,-197.57"/>
</g>
<!-- Node6&#45;&gt;Node2 -->
<g id="edge6" class="edge">
<title>Node6&#45;&gt;Node2</title>
<path fill="none" stroke="midnightblue" d="M75.57,-168.32C86.42,-160.18 102.88,-147.84 115.88,-138.09"/>
<polygon fill="midnightblue" stroke="midnightblue" points="118.32,-140.63 124.22,-131.83 114.12,-135.03 118.32,-140.63"/>
</g>
<!-- Node7 -->
<g id="node7" class="node">
<title>Node7</title>
<g id="a_node7"><a xlink:title=" ">
<polygon fill="white" stroke="#bfbfbf" points="230.5,-0.5 230.5,-19.5 277.5,-19.5 277.5,-0.5 230.5,-0.5"/>
<text text-anchor="middle" x="254" y="-7.5" font-family="Helvetica,sans-Serif" font-size="10.00">cmath</text>
</a>
</g>
</g>
<!-- Node6&#45;&gt;Node7 -->
<g id="edge7" class="edge">
<title>Node6&#45;&gt;Node7</title>
<path fill="none" stroke="midnightblue" d="M66.97,-168.28C71.78,-155.07 82.23,-129.67 97,-112 131.97,-70.18 188.75,-39.72 223.6,-23.74"/>
<polygon fill="midnightblue" stroke="midnightblue" points="225.11,-26.9 232.81,-19.62 222.25,-20.51 225.11,-26.9"/>
</g>
<!-- Node8 -->
<g id="node8" class="node">
<title>Node8</title>
<g id="a_node8"><a xlink:title=" ">
<polygon fill="white" stroke="#bfbfbf" points="8,-112.5 8,-131.5 50,-131.5 50,-112.5 8,-112.5"/>
<text text-anchor="middle" x="29" y="-119.5" font-family="Helvetica,sans-Serif" font-size="10.00">array</text>
</a>
</g>
</g>
<!-- Node6&#45;&gt;Node8 -->
<g id="edge8" class="edge">
<title>Node6&#45;&gt;Node8</title>
<path fill="none" stroke="midnightblue" d="M58.22,-168.08C53.33,-160.53 46.17,-149.49 40.17,-140.23"/>
<polygon fill="midnightblue" stroke="midnightblue" points="43.05,-138.24 34.67,-131.75 37.17,-142.05 43.05,-138.24"/>
</g>
<!-- Node9&#45;&gt;Node2 -->
<g id="edge10" class="edge">
<title>Node9&#45;&gt;Node2</title>
<path fill="none" stroke="midnightblue" d="M268.12,-168.44C241.71,-159.36 199.78,-144.94 170.26,-134.78"/>
<polygon fill="midnightblue" stroke="midnightblue" points="171.36,-131.46 160.76,-131.52 169.08,-138.08 171.36,-131.46"/>
</g>
<!-- Node9&#45;&gt;Node4 -->
<g id="edge11" class="edge">
<title>Node9&#45;&gt;Node4</title>
<path fill="none" stroke="midnightblue" d="M320.73,-168.44C350.43,-159.28 397.72,-144.69 430.67,-134.52"/>
<polygon fill="midnightblue" stroke="midnightblue" points="431.88,-137.81 440.4,-131.52 429.81,-131.12 431.88,-137.81"/>
</g>
<!-- Node9&#45;&gt;Node5 -->
<g id="edge12" class="edge">
<title>Node9&#45;&gt;Node5</title>
<path fill="none" stroke="midnightblue" d="M284.32,-168.31C275.6,-159.44 261.93,-145.15 251,-132 237.89,-116.22 224.09,-97.26 214.67,-83.9"/>
<polygon fill="midnightblue" stroke="midnightblue" points="217.51,-81.85 208.91,-75.65 211.77,-85.85 217.51,-81.85"/>
</g>
<!-- Node10 -->
<g id="node10" class="node">
<title>Node10</title>
<g id="a_node10"><a xlink:href="algebra_2eigen_8hpp.html" target="_top" xlink:title=" ">
<polygon fill="white" stroke="black" points="359.5,-56.5 359.5,-75.5 488.5,-75.5 488.5,-56.5 359.5,-56.5"/>
<text text-anchor="middle" x="424" y="-63.5" font-family="Helvetica,sans-Serif" font-size="10.00">mini/algebra/eigen.hpp</text>
</a>
</g>
</g>
<!-- Node9&#45;&gt;Node10 -->
<g id="edge13" class="edge">
<title>Node9&#45;&gt;Node10</title>
<path fill="none" stroke="midnightblue" d="M324.85,-168.39C345.74,-161.41 372.51,-149.78 391,-132 404.38,-119.14 413.26,-99.69 418.4,-85.41"/>
<polygon fill="midnightblue" stroke="midnightblue" points="421.8,-86.3 421.62,-75.7 415.15,-84.09 421.8,-86.3"/>
</g>
<!-- Node14 -->
<g id="node14" class="node">
<title>Node14</title>
<g id="a_node14"><a xlink:href="pi_8hpp.html" target="_top" xlink:title=" ">
<polygon fill="white" stroke="black" points="260,-112.5 260,-131.5 382,-131.5 382,-112.5 260,-112.5"/>
<text text-anchor="middle" x="321" y="-119.5" font-family="Helvetica,sans-Serif" font-size="10.00">mini/geometry/pi.hpp</text>
</a>
</g>
</g>
<!-- Node9&#45;&gt;Node14 -->
<g id="edge18" class="edge">
<title>Node9&#45;&gt;Node14</title>
<path fill="none" stroke="midnightblue" d="M297.62,-168.08C301.46,-160.69 307.02,-149.95 311.76,-140.81"/>
<polygon fill="midnightblue" stroke="midnightblue" points="314.97,-142.24 316.46,-131.75 308.75,-139.02 314.97,-142.24"/>
</g>
<!-- Node10&#45;&gt;Node7 -->
<g id="edge15" class="edge">
<title>Node10&#45;&gt;Node7</title>
<path fill="none" stroke="midnightblue" d="M397.06,-56.44C367.33,-47 319.43,-31.78 287.34,-21.59"/>
<polygon fill="midnightblue" stroke="midnightblue" points="288.12,-18.16 277.53,-18.47 286,-24.84 288.12,-18.16"/>
</g>
<!-- Node11 -->
<g id="node11" class="node">
<title>Node11</title>
<g id="a_node11"><a xlink:title=" ">
<polygon fill="white" stroke="#bfbfbf" points="317,-0.5 317,-19.5 381,-19.5 381,-0.5 317,-0.5"/>
<text text-anchor="middle" x="349" y="-7.5" font-family="Helvetica,sans-Serif" font-size="10.00">algorithm</text>
</a>
</g>
</g>
<!-- Node10&#45;&gt;Node11 -->
<g id="edge14" class="edge">
<title>Node10&#45;&gt;Node11</title>
<path fill="none" stroke="midnightblue" d="M411.95,-56.32C400.54,-48.11 383.17,-35.6 369.57,-25.81"/>
<polygon fill="midnightblue" stroke="midnightblue" points="371.43,-22.84 361.27,-19.83 367.34,-28.52 371.43,-22.84"/>
</g>
<!-- Node12 -->
<g id="node12" class="node">
<title>Node12</title>
<g id="a_node12"><a xlink:title=" ">
<polygon fill="white" stroke="#bfbfbf" points="399.5,-0.5 399.5,-19.5 448.5,-19.5 448.5,-0.5 399.5,-0.5"/>
<text text-anchor="middle" x="424" y="-7.5" font-family="Helvetica,sans-Serif" font-size="10.00">cstdlib</text>
</a>
</g>
</g>
<!-- Node10&#45;&gt;Node12 -->
<g id="edge16" class="edge">
<title>Node10&#45;&gt;Node12</title>
<path fill="none" stroke="midnightblue" d="M424,-56.08C424,-49.01 424,-38.86 424,-29.99"/>
<polygon fill="midnightblue" stroke="midnightblue" points="427.5,-29.75 424,-19.75 420.5,-29.75 427.5,-29.75"/>
</g>
<!-- Node13 -->
<g id="node13" class="node">
<title>Node13</title>
<g id="a_node13"><a xlink:title=" ">
<polygon fill="white" stroke="#bfbfbf" points="467,-0.5 467,-19.5 541,-19.5 541,-0.5 467,-0.5"/>
<text text-anchor="middle" x="504" y="-7.5" font-family="Helvetica,sans-Serif" font-size="10.00">Eigen/Eigen</text>
</a>
</g>
</g>
<!-- Node10&#45;&gt;Node13 -->
<g id="edge17" class="edge">
<title>Node10&#45;&gt;Node13</title>
<path fill="none" stroke="midnightblue" d="M436.85,-56.32C449.22,-47.98 468.13,-35.21 482.74,-25.35"/>
<polygon fill="midnightblue" stroke="midnightblue" points="484.85,-28.15 491.18,-19.65 480.93,-22.35 484.85,-28.15"/>
</g>
<!-- Node14&#45;&gt;Node5 -->
<g id="edge21" class="edge">
<title>Node14&#45;&gt;Node5</title>
<path fill="none" stroke="midnightblue" d="M302.3,-112.44C283.06,-103.64 252.85,-89.81 230.8,-79.72"/>
<polygon fill="midnightblue" stroke="midnightblue" points="232.16,-76.5 221.61,-75.52 229.25,-82.86 232.16,-76.5"/>
</g>
<!-- Node14&#45;&gt;Node7 -->
<g id="edge19" class="edge">
<title>Node14&#45;&gt;Node7</title>
<path fill="none" stroke="midnightblue" d="M308.6,-112.4C297.71,-104.23 282.21,-90.99 273,-76 264.25,-61.76 259.36,-43.28 256.74,-29.67"/>
<polygon fill="midnightblue" stroke="midnightblue" points="260.15,-28.86 255.04,-19.58 253.25,-30.03 260.15,-28.86"/>
</g>
<!-- Node14&#45;&gt;Node10 -->
<g id="edge22" class="edge">
<title>Node14&#45;&gt;Node10</title>
<path fill="none" stroke="midnightblue" d="M337.55,-112.32C353.99,-103.7 379.43,-90.36 398.47,-80.39"/>
<polygon fill="midnightblue" stroke="midnightblue" points="400.26,-83.4 407.49,-75.65 397.01,-77.2 400.26,-83.4"/>
</g>
<!-- Node15 -->
<g id="node15" class="node">
<title>Node15</title>
<g id="a_node15"><a xlink:title=" ">
<polygon fill="white" stroke="#bfbfbf" points="282.5,-56.5 282.5,-75.5 341.5,-75.5 341.5,-56.5 282.5,-56.5"/>
<text text-anchor="middle" x="312" y="-63.5" font-family="Helvetica,sans-Serif" font-size="10.00">numbers</text>
</a>
</g>
</g>
<!-- Node14&#45;&gt;Node15 -->
<g id="edge20" class="edge">
<title>Node14&#45;&gt;Node15</title>
<path fill="none" stroke="midnightblue" d="M319.51,-112.08C318.32,-104.93 316.61,-94.64 315.12,-85.69"/>
<polygon fill="midnightblue" stroke="midnightblue" points="318.55,-85.04 313.46,-75.75 311.65,-86.19 318.55,-85.04"/>
</g>
</g>
</svg>
