<?xml version="1.0" encoding="UTF-8" standalone="no"?>
<!DOCTYPE svg PUBLIC "-//W3C//DTD SVG 1.1//EN"
 "http://www.w3.org/Graphics/SVG/1.1/DTD/svg11.dtd">
<!-- Generated by graphviz version 2.43.0 (0)
 -->
<!-- Title: include/mini/mesh/shuffler.hpp Pages: 1 -->
<svg width="1611pt" height="308pt"
 viewBox="0.00 0.00 1611.00 308.00" xmlns="http://www.w3.org/2000/svg" xmlns:xlink="http://www.w3.org/1999/xlink">
<g id="graph0" class="graph" transform="scale(1 1) rotate(0) translate(4 304)">
<title>include/mini/mesh/shuffler.hpp</title>
<polygon fill="white" stroke="transparent" points="-4,4 -4,-304 1607,-304 1607,4 -4,4"/>
<!-- Node1 -->
<g id="node1" class="node">
<title>Node1</title>
<g id="a_node1"><a xlink:title=" ">
<polygon fill="#bfbfbf" stroke="black" points="566.5,-280.5 566.5,-299.5 733.5,-299.5 733.5,-280.5 566.5,-280.5"/>
<text text-anchor="middle" x="650" y="-287.5" font-family="Helvetica,sans-Serif" font-size="10.00">include/mini/mesh/shuffler.hpp</text>
</a>
</g>
</g>
<!-- Node2 -->
<g id="node2" class="node">
<title>Node2</title>
<g id="a_node2"><a xlink:title=" ">
<polygon fill="white" stroke="#bfbfbf" points="368,-112.5 368,-131.5 428,-131.5 428,-112.5 368,-112.5"/>
<text text-anchor="middle" x="398" y="-119.5" font-family="Helvetica,sans-Serif" font-size="10.00">concepts</text>
</a>
</g>
</g>
<!-- Node1&#45;&gt;Node2 -->
<g id="edge1" class="edge">
<title>Node1&#45;&gt;Node2</title>
<path fill="none" stroke="midnightblue" d="M566.3,-281.39C534.4,-275.19 499.21,-264.04 472,-244 436.1,-217.56 413.97,-168 404.08,-141.24"/>
<polygon fill="midnightblue" stroke="midnightblue" points="407.31,-139.87 400.69,-131.6 400.71,-142.2 407.31,-139.87"/>
</g>
<!-- Node3 -->
<g id="node3" class="node">
<title>Node3</title>
<g id="a_node3"><a xlink:title=" ">
<polygon fill="white" stroke="#bfbfbf" points="570,-0.5 570,-19.5 634,-19.5 634,-0.5 570,-0.5"/>
<text text-anchor="middle" x="602" y="-7.5" font-family="Helvetica,sans-Serif" font-size="10.00">algorithm</text>
</a>
</g>
</g>
<!-- Node1&#45;&gt;Node3 -->
<g id="edge2" class="edge">
<title>Node1&#45;&gt;Node3</title>
<path fill="none" stroke="midnightblue" d="M566.27,-289.22C427.55,-288.47 156.73,-281.99 70,-244 31.11,-226.96 0,-221.46 0,-179 0,-179 0,-179 0,-121 0,-64.05 422.3,-25.33 559.5,-14.26"/>
<polygon fill="midnightblue" stroke="midnightblue" points="559.94,-17.73 569.63,-13.45 559.39,-10.75 559.94,-17.73"/>
</g>
<!-- Node4 -->
<g id="node4" class="node">
<title>Node4</title>
<g id="a_node4"><a xlink:title=" ">
<polygon fill="white" stroke="#bfbfbf" points="590,-112.5 590,-131.5 642,-131.5 642,-112.5 590,-112.5"/>
<text text-anchor="middle" x="616" y="-119.5" font-family="Helvetica,sans-Serif" font-size="10.00">cassert</text>
</a>
</g>
</g>
<!-- Node1&#45;&gt;Node4 -->
<g id="edge3" class="edge">
<title>Node1&#45;&gt;Node4</title>
<path fill="none" stroke="midnightblue" d="M599.46,-280.45C549.79,-269 476.94,-243.32 445,-188 440.56,-180.3 439.57,-175.04 445,-168 445.53,-167.32 529.94,-145.32 579.95,-132.34"/>
<polygon fill="midnightblue" stroke="midnightblue" points="580.96,-135.7 589.76,-129.8 579.2,-128.92 580.96,-135.7"/>
</g>
<!-- Node5 -->
<g id="node5" class="node">
<title>Node5</title>
<g id="a_node5"><a xlink:title=" ">
<polygon fill="white" stroke="#bfbfbf" points="454,-168.5 454,-187.5 500,-187.5 500,-168.5 454,-168.5"/>
<text text-anchor="middle" x="477" y="-175.5" font-family="Helvetica,sans-Serif" font-size="10.00">cstdio</text>
</a>
</g>
</g>
<!-- Node1&#45;&gt;Node5 -->
<g id="edge4" class="edge">
<title>Node1&#45;&gt;Node5</title>
<path fill="none" stroke="midnightblue" d="M635.45,-280.35C620.46,-271.4 596.46,-256.93 576,-244 548.87,-226.85 518.02,-206.45 498.07,-193.14"/>
<polygon fill="midnightblue" stroke="midnightblue" points="499.98,-190.21 489.72,-187.56 496.09,-196.02 499.98,-190.21"/>
</g>
<!-- Node6 -->
<g id="node6" class="node">
<title>Node6</title>
<g id="a_node6"><a xlink:title=" ">
<polygon fill="white" stroke="#bfbfbf" points="1232,-224.5 1232,-243.5 1282,-243.5 1282,-224.5 1232,-224.5"/>
<text text-anchor="middle" x="1257" y="-231.5" font-family="Helvetica,sans-Serif" font-size="10.00">cstring</text>
</a>
</g>
</g>
<!-- Node1&#45;&gt;Node6 -->
<g id="edge5" class="edge">
<title>Node1&#45;&gt;Node6</title>
<path fill="none" stroke="midnightblue" d="M733.7,-286.24C844.88,-281.68 1047.15,-270.33 1218,-244 1219.27,-243.8 1220.57,-243.59 1221.88,-243.36"/>
<polygon fill="midnightblue" stroke="midnightblue" points="1222.8,-246.74 1231.93,-241.36 1221.44,-239.88 1222.8,-246.74"/>
</g>
<!-- Node7 -->
<g id="node7" class="node">
<title>Node7</title>
<g id="a_node7"><a xlink:title=" ">
<polygon fill="white" stroke="#bfbfbf" points="1503,-112.5 1503,-131.5 1541,-131.5 1541,-112.5 1503,-112.5"/>
<text text-anchor="middle" x="1522" y="-119.5" font-family="Helvetica,sans-Serif" font-size="10.00">map</text>
</a>
</g>
</g>
<!-- Node1&#45;&gt;Node7 -->
<g id="edge6" class="edge">
<title>Node1&#45;&gt;Node7</title>
<path fill="none" stroke="midnightblue" d="M733.59,-281.7C799.7,-274.91 894.02,-262.93 975,-244 1051.64,-226.08 1069.4,-215.88 1143,-188 1164.23,-179.96 1168.06,-173.84 1190,-168 1318.4,-133.83 1359.16,-159.68 1493.05,-131.79"/>
<polygon fill="midnightblue" stroke="midnightblue" points="1493.81,-135.21 1502.85,-129.69 1492.34,-128.37 1493.81,-135.21"/>
</g>
<!-- Node8 -->
<g id="node8" class="node">
<title>Node8</title>
<g id="a_node8"><a xlink:title=" ">
<polygon fill="white" stroke="#bfbfbf" points="1030,-168.5 1030,-187.5 1062,-187.5 1062,-168.5 1030,-168.5"/>
<text text-anchor="middle" x="1046" y="-175.5" font-family="Helvetica,sans-Serif" font-size="10.00">set</text>
</a>
</g>
</g>
<!-- Node1&#45;&gt;Node8 -->
<g id="edge7" class="edge">
<title>Node1&#45;&gt;Node8</title>
<path fill="none" stroke="midnightblue" d="M681.89,-280.46C745.53,-263.35 892.8,-223.47 1016,-188 1017.26,-187.64 1018.56,-187.26 1019.86,-186.88"/>
<polygon fill="midnightblue" stroke="midnightblue" points="1021.24,-190.12 1029.83,-183.92 1019.24,-183.41 1021.24,-190.12"/>
</g>
<!-- Node9 -->
<g id="node9" class="node">
<title>Node9</title>
<g id="a_node9"><a xlink:title=" ">
<polygon fill="white" stroke="#bfbfbf" points="1308.5,-112.5 1308.5,-131.5 1373.5,-131.5 1373.5,-112.5 1308.5,-112.5"/>
<text text-anchor="middle" x="1341" y="-119.5" font-family="Helvetica,sans-Serif" font-size="10.00">stdexcept</text>
</a>
</g>
</g>
<!-- Node1&#45;&gt;Node9 -->
<g id="edge8" class="edge">
<title>Node1&#45;&gt;Node9</title>
<path fill="none" stroke="midnightblue" d="M694.86,-280.49C738.67,-271.98 807.16,-258.15 866,-244 957.83,-221.91 982.31,-220.48 1071,-188 1090.79,-180.75 1093.95,-174.51 1114,-168 1190.72,-143.11 1215.13,-148.33 1298.54,-132.02"/>
<polygon fill="midnightblue" stroke="midnightblue" points="1299.33,-135.43 1308.45,-130.04 1297.96,-128.57 1299.33,-135.43"/>
</g>
<!-- Node10 -->
<g id="node10" class="node">
<title>Node10</title>
<g id="a_node10"><a xlink:title=" ">
<polygon fill="white" stroke="#bfbfbf" points="1559,-112.5 1559,-131.5 1603,-131.5 1603,-112.5 1559,-112.5"/>
<text text-anchor="middle" x="1581" y="-119.5" font-family="Helvetica,sans-Serif" font-size="10.00">string</text>
</a>
</g>
</g>
<!-- Node1&#45;&gt;Node10 -->
<g id="edge9" class="edge">
<title>Node1&#45;&gt;Node10</title>
<path fill="none" stroke="midnightblue" d="M733.86,-281.09C809.86,-273.41 924.81,-260.49 1024,-244 1256.56,-205.33 1316.56,-190.65 1548.94,-132.14"/>
<polygon fill="midnightblue" stroke="midnightblue" points="1549.86,-135.52 1558.7,-129.68 1548.15,-128.73 1549.86,-135.52"/>
</g>
<!-- Node11 -->
<g id="node11" class="node">
<title>Node11</title>
<g id="a_node11"><a xlink:title=" ">
<polygon fill="white" stroke="#bfbfbf" points="1391.5,-112.5 1391.5,-131.5 1484.5,-131.5 1484.5,-112.5 1391.5,-112.5"/>
<text text-anchor="middle" x="1438" y="-119.5" font-family="Helvetica,sans-Serif" font-size="10.00">unordered_map</text>
</a>
</g>
</g>
<!-- Node1&#45;&gt;Node11 -->
<g id="edge10" class="edge">
<title>Node1&#45;&gt;Node11</title>
<path fill="none" stroke="midnightblue" d="M717.25,-280.47C772.81,-272.81 853.55,-260.27 923,-244 1005.81,-224.6 1026.2,-217.45 1106,-188 1126.91,-180.28 1130.59,-174.21 1152,-168 1248.67,-139.95 1278.54,-147.84 1381.31,-132.22"/>
<polygon fill="midnightblue" stroke="midnightblue" points="1382.15,-135.63 1391.49,-130.64 1381.07,-128.72 1382.15,-135.63"/>
</g>
<!-- Node12 -->
<g id="node12" class="node">
<title>Node12</title>
<g id="a_node12"><a xlink:title=" ">
<polygon fill="white" stroke="#bfbfbf" points="647.5,-56.5 647.5,-75.5 692.5,-75.5 692.5,-56.5 647.5,-56.5"/>
<text text-anchor="middle" x="670" y="-63.5" font-family="Helvetica,sans-Serif" font-size="10.00">utility</text>
</a>
</g>
</g>
<!-- Node1&#45;&gt;Node12 -->
<g id="edge11" class="edge">
<title>Node1&#45;&gt;Node12</title>
<path fill="none" stroke="midnightblue" d="M566.27,-289.93C370.1,-289.52 -91.74,-272.06 57,-112 96.71,-69.27 515.77,-66.7 637.2,-66.87"/>
<polygon fill="midnightblue" stroke="midnightblue" points="637.35,-70.37 647.36,-66.89 637.37,-63.37 637.35,-70.37"/>
</g>
<!-- Node13 -->
<g id="node13" class="node">
<title>Node13</title>
<g id="a_node13"><a xlink:title=" ">
<polygon fill="white" stroke="#bfbfbf" points="66.5,-112.5 66.5,-131.5 113.5,-131.5 113.5,-112.5 66.5,-112.5"/>
<text text-anchor="middle" x="90" y="-119.5" font-family="Helvetica,sans-Serif" font-size="10.00">vector</text>
</a>
</g>
</g>
<!-- Node1&#45;&gt;Node13 -->
<g id="edge12" class="edge">
<title>Node1&#45;&gt;Node13</title>
<path fill="none" stroke="midnightblue" d="M566.29,-285.13C467.5,-277.52 300.78,-254.94 175,-188 149.3,-174.32 123.22,-153.04 106.85,-138.58"/>
<polygon fill="midnightblue" stroke="midnightblue" points="109,-135.81 99.23,-131.72 104.32,-141.01 109,-135.81"/>
</g>
<!-- Node14 -->
<g id="node14" class="node">
<title>Node14</title>
<g id="a_node14"><a xlink:href="cgns_8hpp.html" target="_top" xlink:title=" ">
<polygon fill="white" stroke="black" points="708.5,-168.5 708.5,-187.5 823.5,-187.5 823.5,-168.5 708.5,-168.5"/>
<text text-anchor="middle" x="766" y="-175.5" font-family="Helvetica,sans-Serif" font-size="10.00">mini/mesh/cgns.hpp</text>
</a>
</g>
</g>
<!-- Node1&#45;&gt;Node14 -->
<g id="edge13" class="edge">
<title>Node1&#45;&gt;Node14</title>
<path fill="none" stroke="midnightblue" d="M668.62,-280.39C684.35,-272.49 706.85,-259.64 723,-244 737.23,-230.21 749.26,-210.93 756.94,-196.95"/>
<polygon fill="midnightblue" stroke="midnightblue" points="760.16,-198.34 761.73,-187.86 753.97,-195.07 760.16,-198.34"/>
</g>
<!-- Node28 -->
<g id="node28" class="node">
<title>Node28</title>
<g id="a_node28"><a xlink:href="metis_8hpp.html" target="_top" xlink:title=" ">
<polygon fill="white" stroke="black" points="240,-168.5 240,-187.5 360,-187.5 360,-168.5 240,-168.5"/>
<text text-anchor="middle" x="300" y="-175.5" font-family="Helvetica,sans-Serif" font-size="10.00">mini/mesh/metis.hpp</text>
</a>
</g>
</g>
<!-- Node1&#45;&gt;Node28 -->
<g id="edge39" class="edge">
<title>Node1&#45;&gt;Node28</title>
<path fill="none" stroke="midnightblue" d="M566.45,-287.34C509.78,-283.41 434.47,-272.56 374,-244 349.73,-232.54 327.41,-210.7 313.77,-195.52"/>
<polygon fill="midnightblue" stroke="midnightblue" points="316.32,-193.13 307.12,-187.88 311.04,-197.72 316.32,-193.13"/>
</g>
<!-- Node31 -->
<g id="node31" class="node">
<title>Node31</title>
<g id="a_node31"><a xlink:href="mapper_8hpp.html" target="_top" xlink:title=" ">
<polygon fill="white" stroke="black" points="585.5,-224.5 585.5,-243.5 714.5,-243.5 714.5,-224.5 585.5,-224.5"/>
<text text-anchor="middle" x="650" y="-231.5" font-family="Helvetica,sans-Serif" font-size="10.00">mini/mesh/mapper.hpp</text>
</a>
</g>
</g>
<!-- Node1&#45;&gt;Node31 -->
<g id="edge48" class="edge">
<title>Node1&#45;&gt;Node31</title>
<path fill="none" stroke="midnightblue" d="M650,-280.08C650,-273.01 650,-262.86 650,-253.99"/>
<polygon fill="midnightblue" stroke="midnightblue" points="653.5,-253.75 650,-243.75 646.5,-253.75 653.5,-253.75"/>
</g>
<!-- Node14&#45;&gt;Node2 -->
<g id="edge14" class="edge">
<title>Node14&#45;&gt;Node2</title>
<path fill="none" stroke="midnightblue" d="M708.4,-170.73C644.64,-163.43 538.66,-150.23 438.19,-132.08"/>
<polygon fill="midnightblue" stroke="midnightblue" points="438.64,-128.6 428.18,-130.25 437.39,-135.49 438.64,-128.6"/>
</g>
<!-- Node14&#45;&gt;Node3 -->
<g id="edge16" class="edge">
<title>Node14&#45;&gt;Node3</title>
<path fill="none" stroke="midnightblue" d="M823.81,-168.56C903.95,-156.73 1039.45,-136.17 1043,-132 1048.76,-125.23 1048.54,-118.95 1043,-112 993.3,-49.63 744.97,-22.66 644.4,-14.17"/>
<polygon fill="midnightblue" stroke="midnightblue" points="644.54,-10.67 634.29,-13.34 643.97,-17.65 644.54,-10.67"/>
</g>
<!-- Node14&#45;&gt;Node4 -->
<g id="edge18" class="edge">
<title>Node14&#45;&gt;Node4</title>
<path fill="none" stroke="midnightblue" d="M742.23,-168.44C717.11,-159.4 677.29,-145.06 649.1,-134.92"/>
<polygon fill="midnightblue" stroke="midnightblue" points="650.25,-131.61 639.66,-131.52 647.88,-138.2 650.25,-131.61"/>
</g>
<!-- Node14&#45;&gt;Node7 -->
<g id="edge20" class="edge">
<title>Node14&#45;&gt;Node7</title>
<path fill="none" stroke="midnightblue" d="M823.74,-171.81C839.39,-170.49 856.34,-169.12 872,-168 1144.83,-148.53 1219.96,-181.94 1492.68,-131.75"/>
<polygon fill="midnightblue" stroke="midnightblue" points="1493.69,-135.12 1502.89,-129.85 1492.41,-128.24 1493.69,-135.12"/>
</g>
<!-- Node14&#45;&gt;Node9 -->
<g id="edge23" class="edge">
<title>Node14&#45;&gt;Node9</title>
<path fill="none" stroke="midnightblue" d="M823.76,-172.09C839.42,-170.76 856.36,-169.32 872,-168 1058.53,-152.22 1108.91,-159.74 1298.06,-131.95"/>
<polygon fill="midnightblue" stroke="midnightblue" points="1298.68,-135.4 1308.06,-130.47 1297.65,-128.48 1298.68,-135.4"/>
</g>
<!-- Node14&#45;&gt;Node10 -->
<g id="edge24" class="edge">
<title>Node14&#45;&gt;Node10</title>
<path fill="none" stroke="midnightblue" d="M823.74,-171.76C839.39,-170.44 856.34,-169.08 872,-168 1169.66,-147.47 1250.67,-181.62 1548.56,-131.84"/>
<polygon fill="midnightblue" stroke="midnightblue" points="1549.51,-135.23 1558.79,-130.11 1548.35,-128.32 1549.51,-135.23"/>
</g>
<!-- Node14&#45;&gt;Node11 -->
<g id="edge25" class="edge">
<title>Node14&#45;&gt;Node11</title>
<path fill="none" stroke="midnightblue" d="M823.75,-171.95C839.4,-170.62 856.35,-169.22 872,-168 1095.67,-150.63 1155.13,-158.18 1381.05,-132.14"/>
<polygon fill="midnightblue" stroke="midnightblue" points="1381.7,-135.58 1391.23,-130.95 1380.9,-128.63 1381.7,-135.58"/>
</g>
<!-- Node14&#45;&gt;Node12 -->
<g id="edge27" class="edge">
<title>Node14&#45;&gt;Node12</title>
<path fill="none" stroke="midnightblue" d="M758.47,-168.37C742.48,-150.05 704.95,-107.05 684.28,-83.36"/>
<polygon fill="midnightblue" stroke="midnightblue" points="686.71,-80.82 677.5,-75.59 681.44,-85.43 686.71,-80.82"/>
</g>
<!-- Node14&#45;&gt;Node13 -->
<g id="edge28" class="edge">
<title>Node14&#45;&gt;Node13</title>
<path fill="none" stroke="midnightblue" d="M708.35,-173.71C600.67,-167.34 361.69,-152.17 161,-132 148.76,-130.77 135.37,-129.15 123.55,-127.62"/>
<polygon fill="midnightblue" stroke="midnightblue" points="124,-124.15 113.63,-126.31 123.09,-131.08 124,-124.15"/>
</g>
<!-- Node15 -->
<g id="node15" class="node">
<title>Node15</title>
<g id="a_node15"><a xlink:title=" ">
<polygon fill="white" stroke="#bfbfbf" points="522,-112.5 522,-131.5 572,-131.5 572,-112.5 522,-112.5"/>
<text text-anchor="middle" x="547" y="-119.5" font-family="Helvetica,sans-Serif" font-size="10.00">ranges</text>
</a>
</g>
</g>
<!-- Node14&#45;&gt;Node15 -->
<g id="edge15" class="edge">
<title>Node14&#45;&gt;Node15</title>
<path fill="none" stroke="midnightblue" d="M729.79,-168.42C694.5,-160.01 639.06,-146.66 582.13,-132.25"/>
<polygon fill="midnightblue" stroke="midnightblue" points="582.79,-128.81 572.24,-129.74 581.07,-135.59 582.79,-128.81"/>
</g>
<!-- Node16 -->
<g id="node16" class="node">
<title>Node16</title>
<g id="a_node16"><a xlink:title=" ">
<polygon fill="white" stroke="#bfbfbf" points="736,-112.5 736,-131.5 778,-131.5 778,-112.5 736,-112.5"/>
<text text-anchor="middle" x="757" y="-119.5" font-family="Helvetica,sans-Serif" font-size="10.00">array</text>
</a>
</g>
</g>
<!-- Node14&#45;&gt;Node16 -->
<g id="edge17" class="edge">
<title>Node14&#45;&gt;Node16</title>
<path fill="none" stroke="midnightblue" d="M764.51,-168.08C763.32,-160.93 761.61,-150.64 760.12,-141.69"/>
<polygon fill="midnightblue" stroke="midnightblue" points="763.55,-141.04 758.46,-131.75 756.65,-142.19 763.55,-141.04"/>
</g>
<!-- Node17 -->
<g id="node17" class="node">
<title>Node17</title>
<g id="a_node17"><a xlink:title=" ">
<polygon fill="white" stroke="#bfbfbf" points="796,-112.5 796,-131.5 856,-131.5 856,-112.5 796,-112.5"/>
<text text-anchor="middle" x="826" y="-119.5" font-family="Helvetica,sans-Serif" font-size="10.00">iostream</text>
</a>
</g>
</g>
<!-- Node14&#45;&gt;Node17 -->
<g id="edge19" class="edge">
<title>Node14&#45;&gt;Node17</title>
<path fill="none" stroke="midnightblue" d="M775.64,-168.32C784.51,-160.34 797.87,-148.31 808.61,-138.65"/>
<polygon fill="midnightblue" stroke="midnightblue" points="811.09,-141.13 816.18,-131.83 806.41,-135.92 811.09,-141.13"/>
</g>
<!-- Node18 -->
<g id="node18" class="node">
<title>Node18</title>
<g id="a_node18"><a xlink:title=" ">
<polygon fill="white" stroke="#bfbfbf" points="446,-112.5 446,-131.5 504,-131.5 504,-112.5 446,-112.5"/>
<text text-anchor="middle" x="475" y="-119.5" font-family="Helvetica,sans-Serif" font-size="10.00">memory</text>
</a>
</g>
</g>
<!-- Node14&#45;&gt;Node18 -->
<g id="edge21" class="edge">
<title>Node14&#45;&gt;Node18</title>
<path fill="none" stroke="midnightblue" d="M713.02,-168.47C663.92,-160.37 588.62,-147.43 514.05,-132.12"/>
<polygon fill="midnightblue" stroke="midnightblue" points="514.51,-128.65 504.01,-130.05 513.09,-135.5 514.51,-128.65"/>
</g>
<!-- Node19 -->
<g id="node19" class="node">
<title>Node19</title>
<g id="a_node19"><a xlink:title=" ">
<polygon fill="white" stroke="#bfbfbf" points="874,-112.5 874,-131.5 930,-131.5 930,-112.5 874,-112.5"/>
<text text-anchor="middle" x="902" y="-119.5" font-family="Helvetica,sans-Serif" font-size="10.00">numeric</text>
</a>
</g>
</g>
<!-- Node14&#45;&gt;Node19 -->
<g id="edge22" class="edge">
<title>Node14&#45;&gt;Node19</title>
<path fill="none" stroke="midnightblue" d="M787.55,-168.44C810.03,-159.52 845.49,-145.44 870.98,-135.32"/>
<polygon fill="midnightblue" stroke="midnightblue" points="872.55,-138.46 880.55,-131.52 869.97,-131.95 872.55,-138.46"/>
</g>
<!-- Node20 -->
<g id="node20" class="node">
<title>Node20</title>
<g id="a_node20"><a xlink:title=" ">
<polygon fill="white" stroke="#bfbfbf" points="948,-112.5 948,-131.5 1034,-131.5 1034,-112.5 948,-112.5"/>
<text text-anchor="middle" x="991" y="-119.5" font-family="Helvetica,sans-Serif" font-size="10.00">unordered_set</text>
</a>
</g>
</g>
<!-- Node14&#45;&gt;Node20 -->
<g id="edge26" class="edge">
<title>Node14&#45;&gt;Node20</title>
<path fill="none" stroke="midnightblue" d="M801.65,-168.44C840.66,-159.08 903.27,-144.06 945.72,-133.87"/>
<polygon fill="midnightblue" stroke="midnightblue" points="946.61,-137.25 955.51,-131.52 944.97,-130.45 946.61,-137.25"/>
</g>
<!-- Node21 -->
<g id="node21" class="node">
<title>Node21</title>
<g id="a_node21"><a xlink:title=" ">
<polygon fill="white" stroke="#bfbfbf" points="1230,-112.5 1230,-131.5 1290,-131.5 1290,-112.5 1230,-112.5"/>
<text text-anchor="middle" x="1260" y="-119.5" font-family="Helvetica,sans-Serif" font-size="10.00">cgnslib.h</text>
</a>
</g>
</g>
<!-- Node14&#45;&gt;Node21 -->
<g id="edge29" class="edge">
<title>Node14&#45;&gt;Node21</title>
<path fill="none" stroke="midnightblue" d="M823.75,-169.62C828.57,-169.06 833.37,-168.51 838,-168 1004.72,-149.75 1050.49,-158.92 1219.84,-131.99"/>
<polygon fill="midnightblue" stroke="midnightblue" points="1220.53,-135.42 1229.84,-130.38 1219.42,-128.51 1220.53,-135.42"/>
</g>
<!-- Node22 -->
<g id="node22" class="node">
<title>Node22</title>
<g id="a_node22"><a xlink:href="pi_8hpp.html" target="_top" xlink:title=" ">
<polygon fill="white" stroke="black" points="1090,-112.5 1090,-131.5 1212,-131.5 1212,-112.5 1090,-112.5"/>
<text text-anchor="middle" x="1151" y="-119.5" font-family="Helvetica,sans-Serif" font-size="10.00">mini/geometry/pi.hpp</text>
</a>
</g>
</g>
<!-- Node14&#45;&gt;Node22 -->
<g id="edge30" class="edge">
<title>Node14&#45;&gt;Node22</title>
<path fill="none" stroke="midnightblue" d="M823.64,-168.92C892.06,-159.32 1006.15,-143.32 1079.96,-132.96"/>
<polygon fill="midnightblue" stroke="midnightblue" points="1080.69,-136.4 1090.1,-131.54 1079.71,-129.46 1080.69,-136.4"/>
</g>
<!-- Node22&#45;&gt;Node12 -->
<g id="edge33" class="edge">
<title>Node22&#45;&gt;Node12</title>
<path fill="none" stroke="midnightblue" d="M1089.59,-114.11C986.58,-102.54 782.44,-79.62 702.85,-70.69"/>
<polygon fill="midnightblue" stroke="midnightblue" points="703.23,-67.21 692.9,-69.57 702.45,-74.17 703.23,-67.21"/>
</g>
<!-- Node23 -->
<g id="node23" class="node">
<title>Node23</title>
<g id="a_node23"><a xlink:title=" ">
<polygon fill="white" stroke="#bfbfbf" points="1161.5,-0.5 1161.5,-19.5 1208.5,-19.5 1208.5,-0.5 1161.5,-0.5"/>
<text text-anchor="middle" x="1185" y="-7.5" font-family="Helvetica,sans-Serif" font-size="10.00">cmath</text>
</a>
</g>
</g>
<!-- Node22&#45;&gt;Node23 -->
<g id="edge31" class="edge">
<title>Node22&#45;&gt;Node23</title>
<path fill="none" stroke="midnightblue" d="M1153.67,-112.37C1159.18,-94.54 1171.93,-53.3 1179.35,-29.27"/>
<polygon fill="midnightblue" stroke="midnightblue" points="1182.74,-30.18 1182.34,-19.59 1176.05,-28.11 1182.74,-30.18"/>
</g>
<!-- Node24 -->
<g id="node24" class="node">
<title>Node24</title>
<g id="a_node24"><a xlink:title=" ">
<polygon fill="white" stroke="#bfbfbf" points="1090.5,-56.5 1090.5,-75.5 1149.5,-75.5 1149.5,-56.5 1090.5,-56.5"/>
<text text-anchor="middle" x="1120" y="-63.5" font-family="Helvetica,sans-Serif" font-size="10.00">numbers</text>
</a>
</g>
</g>
<!-- Node22&#45;&gt;Node24 -->
<g id="edge32" class="edge">
<title>Node22&#45;&gt;Node24</title>
<path fill="none" stroke="midnightblue" d="M1145.88,-112.08C1141.59,-104.61 1135.34,-93.72 1130.06,-84.52"/>
<polygon fill="midnightblue" stroke="midnightblue" points="1133.04,-82.68 1125.02,-75.75 1126.97,-86.17 1133.04,-82.68"/>
</g>
<!-- Node25 -->
<g id="node25" class="node">
<title>Node25</title>
<g id="a_node25"><a xlink:href="algebra_2eigen_8hpp.html" target="_top" xlink:title=" ">
<polygon fill="white" stroke="black" points="1206.5,-56.5 1206.5,-75.5 1335.5,-75.5 1335.5,-56.5 1206.5,-56.5"/>
<text text-anchor="middle" x="1271" y="-63.5" font-family="Helvetica,sans-Serif" font-size="10.00">mini/algebra/eigen.hpp</text>
</a>
</g>
</g>
<!-- Node22&#45;&gt;Node25 -->
<g id="edge34" class="edge">
<title>Node22&#45;&gt;Node25</title>
<path fill="none" stroke="midnightblue" d="M1170.01,-112.44C1189.59,-103.64 1220.31,-89.81 1242.73,-79.72"/>
<polygon fill="midnightblue" stroke="midnightblue" points="1244.39,-82.81 1252.07,-75.52 1241.52,-76.43 1244.39,-82.81"/>
</g>
<!-- Node25&#45;&gt;Node3 -->
<g id="edge35" class="edge">
<title>Node25&#45;&gt;Node3</title>
<path fill="none" stroke="midnightblue" d="M1206.25,-59.77C1070.15,-48.79 757.64,-23.56 644.16,-14.4"/>
<polygon fill="midnightblue" stroke="midnightblue" points="644.37,-10.91 634.12,-13.59 643.81,-17.89 644.37,-10.91"/>
</g>
<!-- Node25&#45;&gt;Node23 -->
<g id="edge36" class="edge">
<title>Node25&#45;&gt;Node23</title>
<path fill="none" stroke="midnightblue" d="M1257.18,-56.32C1243.77,-47.9 1223.18,-34.97 1207.41,-25.07"/>
<polygon fill="midnightblue" stroke="midnightblue" points="1209.11,-22.01 1198.78,-19.65 1205.39,-27.94 1209.11,-22.01"/>
</g>
<!-- Node26 -->
<g id="node26" class="node">
<title>Node26</title>
<g id="a_node26"><a xlink:title=" ">
<polygon fill="white" stroke="#bfbfbf" points="1239.5,-0.5 1239.5,-19.5 1288.5,-19.5 1288.5,-0.5 1239.5,-0.5"/>
<text text-anchor="middle" x="1264" y="-7.5" font-family="Helvetica,sans-Serif" font-size="10.00">cstdlib</text>
</a>
</g>
</g>
<!-- Node25&#45;&gt;Node26 -->
<g id="edge37" class="edge">
<title>Node25&#45;&gt;Node26</title>
<path fill="none" stroke="midnightblue" d="M1269.84,-56.08C1268.92,-48.93 1267.58,-38.64 1266.42,-29.69"/>
<polygon fill="midnightblue" stroke="midnightblue" points="1269.89,-29.22 1265.13,-19.75 1262.95,-30.12 1269.89,-29.22"/>
</g>
<!-- Node27 -->
<g id="node27" class="node">
<title>Node27</title>
<g id="a_node27"><a xlink:title=" ">
<polygon fill="white" stroke="#bfbfbf" points="1307,-0.5 1307,-19.5 1381,-19.5 1381,-0.5 1307,-0.5"/>
<text text-anchor="middle" x="1344" y="-7.5" font-family="Helvetica,sans-Serif" font-size="10.00">Eigen/Eigen</text>
</a>
</g>
</g>
<!-- Node25&#45;&gt;Node27 -->
<g id="edge38" class="edge">
<title>Node25&#45;&gt;Node27</title>
<path fill="none" stroke="midnightblue" d="M1282.73,-56.32C1293.84,-48.11 1310.74,-35.6 1323.98,-25.81"/>
<polygon fill="midnightblue" stroke="midnightblue" points="1326.1,-28.59 1332.06,-19.83 1321.94,-22.97 1326.1,-28.59"/>
</g>
<!-- Node28&#45;&gt;Node2 -->
<g id="edge40" class="edge">
<title>Node28&#45;&gt;Node2</title>
<path fill="none" stroke="midnightblue" d="M315.75,-168.32C331.32,-159.74 355.38,-146.49 373.46,-136.52"/>
<polygon fill="midnightblue" stroke="midnightblue" points="375.22,-139.55 382.29,-131.65 371.85,-133.42 375.22,-139.55"/>
</g>
<!-- Node28&#45;&gt;Node3 -->
<g id="edge42" class="edge">
<title>Node28&#45;&gt;Node3</title>
<path fill="none" stroke="midnightblue" d="M239.68,-169.63C191.29,-161.2 135.35,-144.19 161,-112 210.7,-49.63 459.03,-22.66 559.6,-14.17"/>
<polygon fill="midnightblue" stroke="midnightblue" points="560.03,-17.65 569.71,-13.34 559.46,-10.67 560.03,-17.65"/>
</g>
<!-- Node28&#45;&gt;Node12 -->
<g id="edge45" class="edge">
<title>Node28&#45;&gt;Node12</title>
<path fill="none" stroke="midnightblue" d="M290.81,-168.49C277.46,-155.12 255.85,-128.95 271,-112 295.29,-84.81 546.37,-72.01 637.33,-68.24"/>
<polygon fill="midnightblue" stroke="midnightblue" points="637.5,-71.73 647.36,-67.83 637.22,-64.74 637.5,-71.73"/>
</g>
<!-- Node28&#45;&gt;Node13 -->
<g id="edge46" class="edge">
<title>Node28&#45;&gt;Node13</title>
<path fill="none" stroke="midnightblue" d="M266.72,-168.44C227.55,-158.37 162.86,-141.74 123.56,-131.63"/>
<polygon fill="midnightblue" stroke="midnightblue" points="124.23,-128.19 113.67,-129.09 122.48,-134.97 124.23,-128.19"/>
</g>
<!-- Node28&#45;&gt;Node15 -->
<g id="edge41" class="edge">
<title>Node28&#45;&gt;Node15</title>
<path fill="none" stroke="midnightblue" d="M343.79,-168.42C384.85,-160.23 448.16,-147.21 511.96,-132.16"/>
<polygon fill="midnightblue" stroke="midnightblue" points="512.86,-135.54 521.78,-129.83 511.25,-128.73 512.86,-135.54"/>
</g>
<!-- Node28&#45;&gt;Node18 -->
<g id="edge43" class="edge">
<title>Node28&#45;&gt;Node18</title>
<path fill="none" stroke="midnightblue" d="M327.73,-168.44C357.43,-159.28 404.72,-144.69 437.67,-134.52"/>
<polygon fill="midnightblue" stroke="midnightblue" points="438.88,-137.81 447.4,-131.52 436.81,-131.12 438.88,-137.81"/>
</g>
<!-- Node29 -->
<g id="node29" class="node">
<title>Node29</title>
<g id="a_node29"><a xlink:title=" ">
<polygon fill="white" stroke="#bfbfbf" points="280.5,-112.5 280.5,-131.5 349.5,-131.5 349.5,-112.5 280.5,-112.5"/>
<text text-anchor="middle" x="315" y="-119.5" font-family="Helvetica,sans-Serif" font-size="10.00">type_traits</text>
</a>
</g>
</g>
<!-- Node28&#45;&gt;Node29 -->
<g id="edge44" class="edge">
<title>Node28&#45;&gt;Node29</title>
<path fill="none" stroke="midnightblue" d="M302.48,-168.08C304.49,-160.85 307.39,-150.41 309.89,-141.4"/>
<polygon fill="midnightblue" stroke="midnightblue" points="313.26,-142.32 312.57,-131.75 306.52,-140.45 313.26,-142.32"/>
</g>
<!-- Node30 -->
<g id="node30" class="node">
<title>Node30</title>
<g id="a_node30"><a xlink:title=" ">
<polygon fill="white" stroke="#bfbfbf" points="170.5,-112.5 170.5,-131.5 223.5,-131.5 223.5,-112.5 170.5,-112.5"/>
<text text-anchor="middle" x="197" y="-119.5" font-family="Helvetica,sans-Serif" font-size="10.00">metis.h</text>
</a>
</g>
</g>
<!-- Node28&#45;&gt;Node30 -->
<g id="edge47" class="edge">
<title>Node28&#45;&gt;Node30</title>
<path fill="none" stroke="midnightblue" d="M283.45,-168.32C267.01,-159.7 241.57,-146.36 222.53,-136.39"/>
<polygon fill="midnightblue" stroke="midnightblue" points="223.99,-133.2 213.51,-131.65 220.74,-139.4 223.99,-133.2"/>
</g>
<!-- Node31&#45;&gt;Node2 -->
<g id="edge49" class="edge">
<title>Node31&#45;&gt;Node2</title>
<path fill="none" stroke="midnightblue" d="M636.72,-224.46C612.33,-208.87 561.16,-176.61 542,-168 508.13,-152.78 467.6,-140.61 438.19,-132.79"/>
<polygon fill="midnightblue" stroke="midnightblue" points="438.83,-129.34 428.27,-130.21 437.07,-136.12 438.83,-129.34"/>
</g>
<!-- Node31&#45;&gt;Node4 -->
<g id="edge50" class="edge">
<title>Node31&#45;&gt;Node4</title>
<path fill="none" stroke="midnightblue" d="M647.33,-224.37C641.82,-206.54 629.07,-165.3 621.65,-141.27"/>
<polygon fill="midnightblue" stroke="midnightblue" points="624.95,-140.11 618.66,-131.59 618.26,-142.18 624.95,-140.11"/>
</g>
<!-- Node31&#45;&gt;Node5 -->
<g id="edge51" class="edge">
<title>Node31&#45;&gt;Node5</title>
<path fill="none" stroke="midnightblue" d="M622.59,-224.44C591.94,-214.88 542.32,-199.39 509.68,-189.2"/>
<polygon fill="midnightblue" stroke="midnightblue" points="510.72,-185.86 500.13,-186.22 508.63,-192.54 510.72,-185.86"/>
</g>
<!-- Node31&#45;&gt;Node7 -->
<g id="edge53" class="edge">
<title>Node31&#45;&gt;Node7</title>
<path fill="none" stroke="midnightblue" d="M714.75,-228.44C775.31,-222.93 867.76,-211.33 945,-188 965.18,-181.91 967.59,-173.28 988,-168 1203.07,-112.35 1270.67,-172.98 1492.87,-131.72"/>
<polygon fill="midnightblue" stroke="midnightblue" points="1493.71,-135.12 1502.88,-129.81 1492.4,-128.25 1493.71,-135.12"/>
</g>
<!-- Node31&#45;&gt;Node8 -->
<g id="edge55" class="edge">
<title>Node31&#45;&gt;Node8</title>
<path fill="none" stroke="midnightblue" d="M714.67,-228.37C788.24,-222.35 911.68,-209.9 1016,-188 1017.29,-187.73 1018.6,-187.43 1019.92,-187.11"/>
<polygon fill="midnightblue" stroke="midnightblue" points="1021.22,-190.38 1029.94,-184.36 1019.37,-183.63 1021.22,-190.38"/>
</g>
<!-- Node31&#45;&gt;Node10 -->
<g id="edge56" class="edge">
<title>Node31&#45;&gt;Node10</title>
<path fill="none" stroke="midnightblue" d="M714.55,-230.26C782.03,-226 890.37,-215.21 980,-188 999.4,-182.11 1001.41,-173.23 1021,-168 1245.46,-108.07 1315.96,-171.25 1548.66,-131.83"/>
<polygon fill="midnightblue" stroke="midnightblue" points="1549.53,-135.23 1558.78,-130.07 1548.33,-128.34 1549.53,-135.23"/>
</g>
<!-- Node31&#45;&gt;Node12 -->
<g id="edge58" class="edge">
<title>Node31&#45;&gt;Node12</title>
<path fill="none" stroke="midnightblue" d="M651.08,-224.08C654.22,-197.95 663.47,-121.21 667.76,-85.58"/>
<polygon fill="midnightblue" stroke="midnightblue" points="671.25,-85.92 668.97,-75.57 664.3,-85.08 671.25,-85.92"/>
</g>
<!-- Node31&#45;&gt;Node13 -->
<g id="edge59" class="edge">
<title>Node31&#45;&gt;Node13</title>
<path fill="none" stroke="midnightblue" d="M585.26,-232.51C501.89,-230.43 353.18,-221.74 231,-188 187.54,-176 140.67,-151.93 113.41,-136.68"/>
<polygon fill="midnightblue" stroke="midnightblue" points="115.04,-133.59 104.62,-131.7 111.59,-139.68 115.04,-133.59"/>
</g>
<!-- Node31&#45;&gt;Node14 -->
<g id="edge61" class="edge">
<title>Node31&#45;&gt;Node14</title>
<path fill="none" stroke="midnightblue" d="M668.38,-224.44C687.22,-215.68 716.73,-201.94 738.38,-191.86"/>
<polygon fill="midnightblue" stroke="midnightblue" points="740.12,-194.91 747.71,-187.52 737.16,-188.56 740.12,-194.91"/>
</g>
<!-- Node31&#45;&gt;Node18 -->
<g id="edge54" class="edge">
<title>Node31&#45;&gt;Node18</title>
<path fill="none" stroke="midnightblue" d="M642.57,-224.42C630.55,-210.94 605.58,-184.64 580,-168 558.61,-154.09 532.21,-142.8 511.23,-135.01"/>
<polygon fill="midnightblue" stroke="midnightblue" points="512.31,-131.67 501.71,-131.57 509.93,-138.26 512.31,-131.67"/>
</g>
<!-- Node31&#45;&gt;Node21 -->
<g id="edge60" class="edge">
<title>Node31&#45;&gt;Node21</title>
<path fill="none" stroke="midnightblue" d="M696.47,-224.47C733.76,-216.92 787.1,-204.54 832,-188 850.65,-181.13 852.92,-173.55 872,-168 1018.51,-125.36 1065.18,-156.19 1219.52,-132.02"/>
<polygon fill="midnightblue" stroke="midnightblue" points="1220.53,-135.4 1229.84,-130.35 1219.41,-128.49 1220.53,-135.4"/>
</g>
<!-- Node31&#45;&gt;Node28 -->
<g id="edge62" class="edge">
<title>Node31&#45;&gt;Node28</title>
<path fill="none" stroke="midnightblue" d="M594.54,-224.44C532.33,-214.85 431.52,-199.29 365.49,-189.1"/>
<polygon fill="midnightblue" stroke="midnightblue" points="365.62,-185.58 355.2,-187.52 364.55,-192.5 365.62,-185.58"/>
</g>
<!-- Node31&#45;&gt;Node29 -->
<g id="edge57" class="edge">
<title>Node31&#45;&gt;Node29</title>
<path fill="none" stroke="midnightblue" d="M626.8,-224.49C604.61,-216.09 570.44,-202.44 542,-188 526.71,-180.24 524.89,-174.46 509,-168 495.24,-162.4 412.47,-144.03 359.58,-132.56"/>
<polygon fill="midnightblue" stroke="midnightblue" points="360.27,-129.13 349.75,-130.44 358.79,-135.97 360.27,-129.13"/>
</g>
<!-- Node32 -->
<g id="node32" class="node">
<title>Node32</title>
<g id="a_node32"><a xlink:title=" ">
<polygon fill="white" stroke="#bfbfbf" points="880.5,-168.5 880.5,-187.5 935.5,-187.5 935.5,-168.5 880.5,-168.5"/>
<text text-anchor="middle" x="908" y="-175.5" font-family="Helvetica,sans-Serif" font-size="10.00">fstream</text>
</a>
</g>
</g>
<!-- Node31&#45;&gt;Node32 -->
<g id="edge52" class="edge">
<title>Node31&#45;&gt;Node32</title>
<path fill="none" stroke="midnightblue" d="M691.42,-224.44C734.92,-215.44 805.29,-200.83 866,-188 867.46,-187.69 868.95,-187.38 870.45,-187.06"/>
<polygon fill="midnightblue" stroke="midnightblue" points="871.39,-190.44 880.44,-184.93 869.93,-183.59 871.39,-190.44"/>
</g>
</g>
</svg>
