<?xml version="1.0" encoding="UTF-8" standalone="no"?>
<!DOCTYPE svg PUBLIC "-//W3C//DTD SVG 1.1//EN"
 "http://www.w3.org/Graphics/SVG/1.1/DTD/svg11.dtd">
<!-- Generated by graphviz version 2.43.0 (0)
 -->
<!-- Title: include/mini/riemann/simple/multiple.hpp Pages: 1 -->
<svg width="347pt" height="151pt"
 viewBox="0.00 0.00 347.00 151.00" xmlns="http://www.w3.org/2000/svg" xmlns:xlink="http://www.w3.org/1999/xlink">
<g id="graph0" class="graph" transform="scale(1 1) rotate(0) translate(4 147)">
<title>include/mini/riemann/simple/multiple.hpp</title>
<polygon fill="white" stroke="transparent" points="-4,4 -4,-147 343,-147 343,4 -4,4"/>
<!-- Node1 -->
<g id="node1" class="node">
<title>Node1</title>
<g id="a_node1"><a xlink:title=" ">
<polygon fill="#bfbfbf" stroke="black" points="61,-112.5 61,-142.5 181,-142.5 181,-112.5 61,-112.5"/>
<text text-anchor="start" x="69" y="-130.5" font-family="Helvetica,sans-Serif" font-size="10.00">include/mini/riemann</text>
<text text-anchor="middle" x="121" y="-119.5" font-family="Helvetica,sans-Serif" font-size="10.00">/simple/multiple.hpp</text>
</a>
</g>
</g>
<!-- Node2 -->
<g id="node2" class="node">
<title>Node2</title>
<g id="a_node2"><a xlink:title=" ">
<polygon fill="white" stroke="#bfbfbf" points="0,-56.5 0,-75.5 106,-75.5 106,-56.5 0,-56.5"/>
<text text-anchor="middle" x="53" y="-63.5" font-family="Helvetica,sans-Serif" font-size="10.00">Eigen/Eigenvalues</text>
</a>
</g>
</g>
<!-- Node1&#45;&gt;Node2 -->
<g id="edge1" class="edge">
<title>Node1&#45;&gt;Node2</title>
<path fill="none" stroke="midnightblue" d="M104.88,-112.4C94.6,-103.4 81.25,-91.72 70.67,-82.47"/>
<polygon fill="midnightblue" stroke="midnightblue" points="72.73,-79.61 62.89,-75.66 68.12,-84.88 72.73,-79.61"/>
</g>
<!-- Node3 -->
<g id="node3" class="node">
<title>Node3</title>
<g id="a_node3"><a xlink:href="algebra_2eigen_8hpp.html" target="_top" xlink:title=" ">
<polygon fill="white" stroke="black" points="124.5,-56.5 124.5,-75.5 253.5,-75.5 253.5,-56.5 124.5,-56.5"/>
<text text-anchor="middle" x="189" y="-63.5" font-family="Helvetica,sans-Serif" font-size="10.00">mini/algebra/eigen.hpp</text>
</a>
</g>
</g>
<!-- Node1&#45;&gt;Node3 -->
<g id="edge2" class="edge">
<title>Node1&#45;&gt;Node3</title>
<path fill="none" stroke="midnightblue" d="M137.12,-112.4C147.4,-103.4 160.75,-91.72 171.33,-82.47"/>
<polygon fill="midnightblue" stroke="midnightblue" points="173.88,-84.88 179.11,-75.66 169.27,-79.61 173.88,-84.88"/>
</g>
<!-- Node4 -->
<g id="node4" class="node">
<title>Node4</title>
<g id="a_node4"><a xlink:title=" ">
<polygon fill="white" stroke="#bfbfbf" points="50,-0.5 50,-19.5 114,-19.5 114,-0.5 50,-0.5"/>
<text text-anchor="middle" x="82" y="-7.5" font-family="Helvetica,sans-Serif" font-size="10.00">algorithm</text>
</a>
</g>
</g>
<!-- Node3&#45;&gt;Node4 -->
<g id="edge3" class="edge">
<title>Node3&#45;&gt;Node4</title>
<path fill="none" stroke="midnightblue" d="M171.81,-56.32C154.65,-47.66 128.05,-34.24 108.25,-24.25"/>
<polygon fill="midnightblue" stroke="midnightblue" points="109.65,-21.04 99.15,-19.65 106.5,-27.28 109.65,-21.04"/>
</g>
<!-- Node5 -->
<g id="node5" class="node">
<title>Node5</title>
<g id="a_node5"><a xlink:title=" ">
<polygon fill="white" stroke="#bfbfbf" points="132.5,-0.5 132.5,-19.5 179.5,-19.5 179.5,-0.5 132.5,-0.5"/>
<text text-anchor="middle" x="156" y="-7.5" font-family="Helvetica,sans-Serif" font-size="10.00">cmath</text>
</a>
</g>
</g>
<!-- Node3&#45;&gt;Node5 -->
<g id="edge4" class="edge">
<title>Node3&#45;&gt;Node5</title>
<path fill="none" stroke="midnightblue" d="M183.55,-56.08C178.99,-48.61 172.33,-37.72 166.71,-28.52"/>
<polygon fill="midnightblue" stroke="midnightblue" points="169.55,-26.46 161.35,-19.75 163.58,-30.11 169.55,-26.46"/>
</g>
<!-- Node6 -->
<g id="node6" class="node">
<title>Node6</title>
<g id="a_node6"><a xlink:title=" ">
<polygon fill="white" stroke="#bfbfbf" points="197.5,-0.5 197.5,-19.5 246.5,-19.5 246.5,-0.5 197.5,-0.5"/>
<text text-anchor="middle" x="222" y="-7.5" font-family="Helvetica,sans-Serif" font-size="10.00">cstdlib</text>
</a>
</g>
</g>
<!-- Node3&#45;&gt;Node6 -->
<g id="edge5" class="edge">
<title>Node3&#45;&gt;Node6</title>
<path fill="none" stroke="midnightblue" d="M194.45,-56.08C199.01,-48.61 205.67,-37.72 211.29,-28.52"/>
<polygon fill="midnightblue" stroke="midnightblue" points="214.42,-30.11 216.65,-19.75 208.45,-26.46 214.42,-30.11"/>
</g>
<!-- Node7 -->
<g id="node7" class="node">
<title>Node7</title>
<g id="a_node7"><a xlink:title=" ">
<polygon fill="white" stroke="#bfbfbf" points="265,-0.5 265,-19.5 339,-19.5 339,-0.5 265,-0.5"/>
<text text-anchor="middle" x="302" y="-7.5" font-family="Helvetica,sans-Serif" font-size="10.00">Eigen/Eigen</text>
</a>
</g>
</g>
<!-- Node3&#45;&gt;Node7 -->
<g id="edge6" class="edge">
<title>Node3&#45;&gt;Node7</title>
<path fill="none" stroke="midnightblue" d="M206.91,-56.44C225.25,-47.68 254.01,-33.94 275.09,-23.86"/>
<polygon fill="midnightblue" stroke="midnightblue" points="276.67,-26.99 284.18,-19.52 273.65,-20.67 276.67,-26.99"/>
</g>
</g>
</svg>
