<?xml version="1.0" encoding="UTF-8" standalone="no"?>
<!DOCTYPE svg PUBLIC "-//W3C//DTD SVG 1.1//EN"
 "http://www.w3.org/Graphics/SVG/1.1/DTD/svg11.dtd">
<!-- Generated by graphviz version 2.43.0 (0)
 -->
<!-- Title: include/mini/aircraft/source.hpp Pages: 1 -->
<svg width="1461pt" height="442pt"
 viewBox="0.00 0.00 1461.39 442.00" xmlns="http://www.w3.org/2000/svg" xmlns:xlink="http://www.w3.org/1999/xlink">
<g id="graph0" class="graph" transform="scale(1 1) rotate(0) translate(4 438)">
<title>include/mini/aircraft/source.hpp</title>
<polygon fill="white" stroke="transparent" points="-4,4 -4,-438 1457.39,-438 1457.39,4 -4,4"/>
<!-- Node1 -->
<g id="node1" class="node">
<title>Node1</title>
<g id="a_node1"><a xlink:title=" ">
<polygon fill="#bfbfbf" stroke="black" points="544,-403.5 544,-433.5 658,-433.5 658,-403.5 544,-403.5"/>
<text text-anchor="start" x="552" y="-421.5" font-family="Helvetica,sans-Serif" font-size="10.00">include/mini/aircraft</text>
<text text-anchor="middle" x="601" y="-410.5" font-family="Helvetica,sans-Serif" font-size="10.00">/source.hpp</text>
</a>
</g>
</g>
<!-- Node2 -->
<g id="node2" class="node">
<title>Node2</title>
<g id="a_node2"><a xlink:title=" ">
<polygon fill="white" stroke="#bfbfbf" points="55,-0.5 55,-19.5 119,-19.5 119,-0.5 55,-0.5"/>
<text text-anchor="middle" x="87" y="-7.5" font-family="Helvetica,sans-Serif" font-size="10.00">algorithm</text>
</a>
</g>
</g>
<!-- Node1&#45;&gt;Node2 -->
<g id="edge1" class="edge">
<title>Node1&#45;&gt;Node2</title>
<path fill="none" stroke="midnightblue" d="M543.69,-417.02C423.18,-415.23 147.74,-406.78 64,-367 27.38,-349.6 0,-342.54 0,-302 0,-302 0,-302 0,-121 0,-79.4 38.75,-44.33 64.53,-25.6"/>
<polygon fill="midnightblue" stroke="midnightblue" points="66.82,-28.27 73.02,-19.68 62.82,-22.53 66.82,-28.27"/>
</g>
<!-- Node3 -->
<g id="node3" class="node">
<title>Node3</title>
<g id="a_node3"><a xlink:title=" ">
<polygon fill="white" stroke="#bfbfbf" points="618.5,-174 618.5,-193 687.5,-193 687.5,-174 618.5,-174"/>
<text text-anchor="middle" x="653" y="-181" font-family="Helvetica,sans-Serif" font-size="10.00">type_traits</text>
</a>
</g>
</g>
<!-- Node1&#45;&gt;Node3 -->
<g id="edge2" class="edge">
<title>Node1&#45;&gt;Node3</title>
<path fill="none" stroke="midnightblue" d="M604.17,-403.28C613.16,-363.02 638.77,-248.27 648.85,-203.1"/>
<polygon fill="midnightblue" stroke="midnightblue" points="652.3,-203.72 651.06,-193.2 645.46,-202.2 652.3,-203.72"/>
</g>
<!-- Node4 -->
<g id="node4" class="node">
<title>Node4</title>
<g id="a_node4"><a xlink:title=" ">
<polygon fill="white" stroke="#bfbfbf" points="1067.5,-56.5 1067.5,-75.5 1112.5,-75.5 1112.5,-56.5 1067.5,-56.5"/>
<text text-anchor="middle" x="1090" y="-63.5" font-family="Helvetica,sans-Serif" font-size="10.00">utility</text>
</a>
</g>
</g>
<!-- Node1&#45;&gt;Node4 -->
<g id="edge3" class="edge">
<title>Node1&#45;&gt;Node4</title>
<path fill="none" stroke="midnightblue" d="M631.21,-403.44C665.29,-385.25 716,-350.1 716,-302 716,-302 716,-302 716,-244 716,-185.27 682.09,-155.08 722,-112 744.63,-87.58 971.06,-73.24 1057.08,-68.64"/>
<polygon fill="midnightblue" stroke="midnightblue" points="1057.52,-72.12 1067.32,-68.1 1057.15,-65.13 1057.52,-72.12"/>
</g>
<!-- Node5 -->
<g id="node5" class="node">
<title>Node5</title>
<g id="a_node5"><a xlink:title=" ">
<polygon fill="white" stroke="#bfbfbf" points="1392.5,-235.5 1392.5,-254.5 1439.5,-254.5 1439.5,-235.5 1392.5,-235.5"/>
<text text-anchor="middle" x="1416" y="-242.5" font-family="Helvetica,sans-Serif" font-size="10.00">vector</text>
</a>
</g>
</g>
<!-- Node1&#45;&gt;Node5 -->
<g id="edge4" class="edge">
<title>Node1&#45;&gt;Node5</title>
<path fill="none" stroke="midnightblue" d="M658.06,-415.78C819.5,-410.61 1271.85,-393.88 1333,-367 1366.1,-352.45 1372.11,-341.19 1392,-311 1401.41,-296.72 1407.77,-278.25 1411.57,-264.65"/>
<polygon fill="midnightblue" stroke="midnightblue" points="1415.06,-265.13 1414.16,-254.57 1408.28,-263.38 1415.06,-265.13"/>
</g>
<!-- Node6 -->
<g id="node6" class="node">
<title>Node6</title>
<g id="a_node6"><a xlink:href="algebra_2eigen_8hpp.html" target="_top" xlink:title=" ">
<polygon fill="white" stroke="black" points="204.5,-56.5 204.5,-75.5 333.5,-75.5 333.5,-56.5 204.5,-56.5"/>
<text text-anchor="middle" x="269" y="-63.5" font-family="Helvetica,sans-Serif" font-size="10.00">mini/algebra/eigen.hpp</text>
</a>
</g>
</g>
<!-- Node1&#45;&gt;Node6 -->
<g id="edge5" class="edge">
<title>Node1&#45;&gt;Node6</title>
<path fill="none" stroke="midnightblue" d="M543.92,-417.76C400.79,-416.87 38,-404.52 38,-302 38,-302 38,-302 38,-182.5 38,-111.38 126.67,-84.05 194.14,-73.55"/>
<polygon fill="midnightblue" stroke="midnightblue" points="194.96,-76.97 204.35,-72.06 193.95,-70.04 194.96,-76.97"/>
</g>
<!-- Node10 -->
<g id="node10" class="node">
<title>Node10</title>
<g id="a_node10"><a xlink:href="frame_8hpp.html" target="_top" xlink:title=" ">
<polygon fill="white" stroke="black" points="1118,-174 1118,-193 1260,-193 1260,-174 1118,-174"/>
<text text-anchor="middle" x="1189" y="-181" font-family="Helvetica,sans-Serif" font-size="10.00">mini/geometry/frame.hpp</text>
</a>
</g>
</g>
<!-- Node1&#45;&gt;Node10 -->
<g id="edge10" class="edge">
<title>Node1&#45;&gt;Node10</title>
<path fill="none" stroke="midnightblue" d="M658.07,-414.97C766.2,-407.38 1003.39,-376.94 1152,-255 1168.32,-241.61 1178.34,-219.1 1183.76,-203.12"/>
<polygon fill="midnightblue" stroke="midnightblue" points="1187.19,-203.88 1186.81,-193.29 1180.51,-201.81 1187.19,-203.88"/>
</g>
<!-- Node15 -->
<g id="node15" class="node">
<title>Node15</title>
<g id="a_node15"><a xlink:href="intersect_8hpp.html" target="_top" xlink:title=" ">
<polygon fill="white" stroke="black" points="66.5,-174 66.5,-193 221.5,-193 221.5,-174 66.5,-174"/>
<text text-anchor="middle" x="144" y="-181" font-family="Helvetica,sans-Serif" font-size="10.00">mini/geometry/intersect.hpp</text>
</a>
</g>
</g>
<!-- Node1&#45;&gt;Node15 -->
<g id="edge20" class="edge">
<title>Node1&#45;&gt;Node15</title>
<path fill="none" stroke="midnightblue" d="M573.44,-403.45C491.48,-361.66 249.97,-238.53 170.03,-197.77"/>
<polygon fill="midnightblue" stroke="midnightblue" points="171.6,-194.64 161.1,-193.22 168.42,-200.88 171.6,-194.64"/>
</g>
<!-- Node16 -->
<g id="node16" class="node">
<title>Node16</title>
<g id="a_node16"><a xlink:href="line_8hpp.html" target="_top" xlink:title=" ">
<polygon fill="white" stroke="black" points="456.5,-235.5 456.5,-254.5 587.5,-254.5 587.5,-235.5 456.5,-235.5"/>
<text text-anchor="middle" x="522" y="-242.5" font-family="Helvetica,sans-Serif" font-size="10.00">mini/integrator/line.hpp</text>
</a>
</g>
</g>
<!-- Node1&#45;&gt;Node16 -->
<g id="edge23" class="edge">
<title>Node1&#45;&gt;Node16</title>
<path fill="none" stroke="midnightblue" d="M594.54,-403.47C580.24,-372.44 545.98,-298.05 530.2,-263.81"/>
<polygon fill="midnightblue" stroke="midnightblue" points="533.31,-262.18 525.94,-254.56 526.95,-265.11 533.31,-262.18"/>
</g>
<!-- Node19 -->
<g id="node19" class="node">
<title>Node19</title>
<g id="a_node19"><a xlink:href="rotor_8hpp.html" target="_top" xlink:title=" ">
<polygon fill="white" stroke="black" points="1202,-347.5 1202,-366.5 1324,-366.5 1324,-347.5 1202,-347.5"/>
<text text-anchor="middle" x="1263" y="-354.5" font-family="Helvetica,sans-Serif" font-size="10.00">mini/aircraft/rotor.hpp</text>
</a>
</g>
</g>
<!-- Node1&#45;&gt;Node19 -->
<g id="edge31" class="edge">
<title>Node1&#45;&gt;Node19</title>
<path fill="none" stroke="midnightblue" d="M658.25,-413.1C762.91,-404.92 992.11,-386.46 1185,-367 1187.2,-366.78 1189.44,-366.55 1191.7,-366.31"/>
<polygon fill="midnightblue" stroke="midnightblue" points="1192.13,-369.78 1201.7,-365.24 1191.39,-362.82 1192.13,-369.78"/>
</g>
<!-- Node25 -->
<g id="node25" class="node">
<title>Node25</title>
<g id="a_node25"><a xlink:href="types_8hpp.html" target="_top" xlink:title=" ">
<polygon fill="white" stroke="black" points="278,-168.5 278,-198.5 388,-198.5 388,-168.5 278,-168.5"/>
<text text-anchor="start" x="286" y="-186.5" font-family="Helvetica,sans-Serif" font-size="10.00">mini/riemann/euler</text>
<text text-anchor="middle" x="333" y="-175.5" font-family="Helvetica,sans-Serif" font-size="10.00">/types.hpp</text>
</a>
</g>
</g>
<!-- Node1&#45;&gt;Node25 -->
<g id="edge52" class="edge">
<title>Node1&#45;&gt;Node25</title>
<path fill="none" stroke="midnightblue" d="M584.64,-403.28C539.02,-363.62 410.27,-251.68 356.77,-205.17"/>
<polygon fill="midnightblue" stroke="midnightblue" points="358.99,-202.46 349.15,-198.54 354.4,-207.74 358.99,-202.46"/>
</g>
<!-- Node6&#45;&gt;Node2 -->
<g id="edge6" class="edge">
<title>Node6&#45;&gt;Node2</title>
<path fill="none" stroke="midnightblue" d="M240.16,-56.44C209.14,-47.24 159.67,-32.56 125.38,-22.39"/>
<polygon fill="midnightblue" stroke="midnightblue" points="126.29,-19.01 115.7,-19.52 124.29,-25.72 126.29,-19.01"/>
</g>
<!-- Node7 -->
<g id="node7" class="node">
<title>Node7</title>
<g id="a_node7"><a xlink:title=" ">
<polygon fill="white" stroke="#bfbfbf" points="453.5,-0.5 453.5,-19.5 500.5,-19.5 500.5,-0.5 453.5,-0.5"/>
<text text-anchor="middle" x="477" y="-7.5" font-family="Helvetica,sans-Serif" font-size="10.00">cmath</text>
</a>
</g>
</g>
<!-- Node6&#45;&gt;Node7 -->
<g id="edge7" class="edge">
<title>Node6&#45;&gt;Node7</title>
<path fill="none" stroke="midnightblue" d="M301.96,-56.44C340.66,-46.4 404.49,-29.83 443.44,-19.71"/>
<polygon fill="midnightblue" stroke="midnightblue" points="444.45,-23.07 453.25,-17.16 442.7,-16.29 444.45,-23.07"/>
</g>
<!-- Node8 -->
<g id="node8" class="node">
<title>Node8</title>
<g id="a_node8"><a xlink:title=" ">
<polygon fill="white" stroke="#bfbfbf" points="204.5,-0.5 204.5,-19.5 253.5,-19.5 253.5,-0.5 204.5,-0.5"/>
<text text-anchor="middle" x="229" y="-7.5" font-family="Helvetica,sans-Serif" font-size="10.00">cstdlib</text>
</a>
</g>
</g>
<!-- Node6&#45;&gt;Node8 -->
<g id="edge8" class="edge">
<title>Node6&#45;&gt;Node8</title>
<path fill="none" stroke="midnightblue" d="M262.39,-56.08C256.74,-48.46 248.46,-37.26 241.55,-27.94"/>
<polygon fill="midnightblue" stroke="midnightblue" points="244.25,-25.7 235.48,-19.75 238.62,-29.87 244.25,-25.7"/>
</g>
<!-- Node9 -->
<g id="node9" class="node">
<title>Node9</title>
<g id="a_node9"><a xlink:title=" ">
<polygon fill="white" stroke="#bfbfbf" points="272,-0.5 272,-19.5 346,-19.5 346,-0.5 272,-0.5"/>
<text text-anchor="middle" x="309" y="-7.5" font-family="Helvetica,sans-Serif" font-size="10.00">Eigen/Eigen</text>
</a>
</g>
</g>
<!-- Node6&#45;&gt;Node9 -->
<g id="edge9" class="edge">
<title>Node6&#45;&gt;Node9</title>
<path fill="none" stroke="midnightblue" d="M275.61,-56.08C281.26,-48.46 289.54,-37.26 296.45,-27.94"/>
<polygon fill="midnightblue" stroke="midnightblue" points="299.38,-29.87 302.52,-19.75 293.75,-25.7 299.38,-29.87"/>
</g>
<!-- Node10&#45;&gt;Node4 -->
<g id="edge13" class="edge">
<title>Node10&#45;&gt;Node4</title>
<path fill="none" stroke="midnightblue" d="M1181.56,-173.82C1165.15,-154.67 1125.61,-108.54 1104.25,-83.63"/>
<polygon fill="midnightblue" stroke="midnightblue" points="1106.69,-81.1 1097.53,-75.78 1101.38,-85.65 1106.69,-81.1"/>
</g>
<!-- Node10&#45;&gt;Node6 -->
<g id="edge14" class="edge">
<title>Node10&#45;&gt;Node6</title>
<path fill="none" stroke="midnightblue" d="M1168.31,-173.93C1129.97,-158.48 1044.95,-126.24 970,-112 851.78,-89.54 499.27,-74.97 343.93,-69.47"/>
<polygon fill="midnightblue" stroke="midnightblue" points="343.66,-65.96 333.54,-69.1 343.41,-72.95 343.66,-65.96"/>
</g>
<!-- Node11 -->
<g id="node11" class="node">
<title>Node11</title>
<g id="a_node11"><a xlink:title=" ">
<polygon fill="white" stroke="#bfbfbf" points="839,-112.5 839,-131.5 899,-131.5 899,-112.5 839,-112.5"/>
<text text-anchor="middle" x="869" y="-119.5" font-family="Helvetica,sans-Serif" font-size="10.00">concepts</text>
</a>
</g>
</g>
<!-- Node10&#45;&gt;Node11 -->
<g id="edge11" class="edge">
<title>Node10&#45;&gt;Node11</title>
<path fill="none" stroke="midnightblue" d="M1138.75,-173.98C1082.8,-164.36 989.76,-147.97 910,-132 909.79,-131.96 909.57,-131.91 909.36,-131.87"/>
<polygon fill="midnightblue" stroke="midnightblue" points="909.93,-128.41 899.42,-129.81 908.5,-135.27 909.93,-128.41"/>
</g>
<!-- Node12 -->
<g id="node12" class="node">
<title>Node12</title>
<g id="a_node12"><a xlink:title=" ">
<polygon fill="white" stroke="#bfbfbf" points="1159,-112.5 1159,-131.5 1219,-131.5 1219,-112.5 1159,-112.5"/>
<text text-anchor="middle" x="1189" y="-119.5" font-family="Helvetica,sans-Serif" font-size="10.00">iostream</text>
</a>
</g>
</g>
<!-- Node10&#45;&gt;Node12 -->
<g id="edge12" class="edge">
<title>Node10&#45;&gt;Node12</title>
<path fill="none" stroke="midnightblue" d="M1189,-173.98C1189,-165.58 1189,-152.48 1189,-141.66"/>
<polygon fill="midnightblue" stroke="midnightblue" points="1192.5,-141.51 1189,-131.51 1185.5,-141.51 1192.5,-141.51"/>
</g>
<!-- Node13 -->
<g id="node13" class="node">
<title>Node13</title>
<g id="a_node13"><a xlink:href="pi_8hpp.html" target="_top" xlink:title=" ">
<polygon fill="white" stroke="black" points="1237,-112.5 1237,-131.5 1359,-131.5 1359,-112.5 1237,-112.5"/>
<text text-anchor="middle" x="1298" y="-119.5" font-family="Helvetica,sans-Serif" font-size="10.00">mini/geometry/pi.hpp</text>
</a>
</g>
</g>
<!-- Node10&#45;&gt;Node13 -->
<g id="edge15" class="edge">
<title>Node10&#45;&gt;Node13</title>
<path fill="none" stroke="midnightblue" d="M1204.62,-173.98C1222.59,-164.17 1252.32,-147.93 1273.41,-136.42"/>
<polygon fill="midnightblue" stroke="midnightblue" points="1275.31,-139.37 1282.41,-131.51 1271.96,-133.23 1275.31,-139.37"/>
</g>
<!-- Node13&#45;&gt;Node4 -->
<g id="edge18" class="edge">
<title>Node13&#45;&gt;Node4</title>
<path fill="none" stroke="midnightblue" d="M1265.04,-112.44C1225.92,-102.29 1161.12,-85.46 1122.3,-75.38"/>
<polygon fill="midnightblue" stroke="midnightblue" points="1123.11,-71.98 1112.55,-72.85 1121.35,-78.75 1123.11,-71.98"/>
</g>
<!-- Node13&#45;&gt;Node6 -->
<g id="edge19" class="edge">
<title>Node13&#45;&gt;Node6</title>
<path fill="none" stroke="midnightblue" d="M1236.95,-112.85C1233.92,-112.54 1230.93,-112.26 1228,-112 899.4,-83.21 505.73,-72.04 343.98,-68.45"/>
<polygon fill="midnightblue" stroke="midnightblue" points="343.74,-64.95 333.66,-68.23 343.58,-71.95 343.74,-64.95"/>
</g>
<!-- Node13&#45;&gt;Node7 -->
<g id="edge16" class="edge">
<title>Node13&#45;&gt;Node7</title>
<path fill="none" stroke="midnightblue" d="M1298.36,-112.13C1298.39,-97.75 1296.12,-69.6 1279,-56 1218.14,-7.66 655.14,-9.39 510.66,-10.64"/>
<polygon fill="midnightblue" stroke="midnightblue" points="510.58,-7.14 500.62,-10.73 510.65,-14.14 510.58,-7.14"/>
</g>
<!-- Node14 -->
<g id="node14" class="node">
<title>Node14</title>
<g id="a_node14"><a xlink:title=" ">
<polygon fill="white" stroke="#bfbfbf" points="1210.5,-56.5 1210.5,-75.5 1269.5,-75.5 1269.5,-56.5 1210.5,-56.5"/>
<text text-anchor="middle" x="1240" y="-63.5" font-family="Helvetica,sans-Serif" font-size="10.00">numbers</text>
</a>
</g>
</g>
<!-- Node13&#45;&gt;Node14 -->
<g id="edge17" class="edge">
<title>Node13&#45;&gt;Node14</title>
<path fill="none" stroke="midnightblue" d="M1288.68,-112.32C1280.11,-104.34 1267.19,-92.31 1256.81,-82.65"/>
<polygon fill="midnightblue" stroke="midnightblue" points="1259.19,-80.09 1249.49,-75.83 1254.42,-85.21 1259.19,-80.09"/>
</g>
<!-- Node15&#45;&gt;Node6 -->
<g id="edge22" class="edge">
<title>Node15&#45;&gt;Node6</title>
<path fill="none" stroke="midnightblue" d="M153.4,-173.82C174.39,-154.42 225.35,-107.33 252.05,-82.66"/>
<polygon fill="midnightblue" stroke="midnightblue" points="254.53,-85.14 259.5,-75.78 249.78,-80 254.53,-85.14"/>
</g>
<!-- Node15&#45;&gt;Node11 -->
<g id="edge21" class="edge">
<title>Node15&#45;&gt;Node11</title>
<path fill="none" stroke="midnightblue" d="M212.38,-173.98C230.75,-171.85 250.62,-169.7 269,-168 501.01,-146.57 560,-153.53 792,-132 803.92,-130.89 816.85,-129.47 828.65,-128.08"/>
<polygon fill="midnightblue" stroke="midnightblue" points="829.17,-131.55 838.68,-126.88 828.34,-124.6 829.17,-131.55"/>
</g>
<!-- Node16&#45;&gt;Node3 -->
<g id="edge25" class="edge">
<title>Node16&#45;&gt;Node3</title>
<path fill="none" stroke="midnightblue" d="M540.77,-235.48C562.85,-225.45 599.72,-208.7 625.14,-197.15"/>
<polygon fill="midnightblue" stroke="midnightblue" points="626.61,-200.33 634.27,-193.01 623.71,-193.96 626.61,-200.33"/>
</g>
<!-- Node16&#45;&gt;Node6 -->
<g id="edge26" class="edge">
<title>Node16&#45;&gt;Node6</title>
<path fill="none" stroke="midnightblue" d="M456.26,-241.59C389.42,-237.59 292.46,-227 269,-199 242.11,-166.9 253.61,-113.37 262.39,-85.36"/>
<polygon fill="midnightblue" stroke="midnightblue" points="265.78,-86.25 265.65,-75.66 259.15,-84.02 265.78,-86.25"/>
</g>
<!-- Node16&#45;&gt;Node7 -->
<g id="edge24" class="edge">
<title>Node16&#45;&gt;Node7</title>
<path fill="none" stroke="midnightblue" d="M486.99,-235.45C468.07,-228.84 446.32,-217.59 435,-199 400.99,-143.12 443.48,-62.87 465.41,-28.12"/>
<polygon fill="midnightblue" stroke="midnightblue" points="468.45,-29.87 470.97,-19.58 462.58,-26.05 468.45,-29.87"/>
</g>
<!-- Node17 -->
<g id="node17" class="node">
<title>Node17</title>
<g id="a_node17"><a xlink:href="legendre_8hpp.html" target="_top" xlink:title=" ">
<polygon fill="white" stroke="black" points="444,-174 444,-193 600,-193 600,-174 444,-174"/>
<text text-anchor="middle" x="522" y="-181" font-family="Helvetica,sans-Serif" font-size="10.00">mini/integrator/legendre.hpp</text>
</a>
</g>
</g>
<!-- Node16&#45;&gt;Node17 -->
<g id="edge27" class="edge">
<title>Node16&#45;&gt;Node17</title>
<path fill="none" stroke="midnightblue" d="M522,-235.48C522,-227.08 522,-213.98 522,-203.16"/>
<polygon fill="midnightblue" stroke="midnightblue" points="525.5,-203.01 522,-193.01 518.5,-203.01 525.5,-203.01"/>
</g>
<!-- Node17&#45;&gt;Node7 -->
<g id="edge29" class="edge">
<title>Node17&#45;&gt;Node7</title>
<path fill="none" stroke="midnightblue" d="M519.71,-173.76C512.69,-147.04 491.44,-66.02 481.82,-29.36"/>
<polygon fill="midnightblue" stroke="midnightblue" points="485.16,-28.3 479.24,-19.52 478.39,-30.08 485.16,-28.3"/>
</g>
<!-- Node17&#45;&gt;Node11 -->
<g id="edge28" class="edge">
<title>Node17&#45;&gt;Node11</title>
<path fill="none" stroke="midnightblue" d="M571.72,-173.98C640.95,-162.1 765.05,-140.82 828.79,-129.89"/>
<polygon fill="midnightblue" stroke="midnightblue" points="829.59,-133.31 838.86,-128.17 828.41,-126.41 829.59,-133.31"/>
</g>
<!-- Node18 -->
<g id="node18" class="node">
<title>Node18</title>
<g id="a_node18"><a xlink:title=" ">
<polygon fill="white" stroke="#bfbfbf" points="919,-112.5 919,-131.5 961,-131.5 961,-112.5 919,-112.5"/>
<text text-anchor="middle" x="940" y="-119.5" font-family="Helvetica,sans-Serif" font-size="10.00">array</text>
</a>
</g>
</g>
<!-- Node17&#45;&gt;Node18 -->
<g id="edge30" class="edge">
<title>Node17&#45;&gt;Node18</title>
<path fill="none" stroke="midnightblue" d="M571.28,-174C583.88,-171.93 597.43,-169.79 610,-168 742.07,-149.15 777.18,-158.14 908,-132 908.33,-131.93 908.66,-131.87 908.99,-131.8"/>
<polygon fill="midnightblue" stroke="midnightblue" points="909.85,-135.19 918.77,-129.46 908.23,-128.38 909.85,-135.19"/>
</g>
<!-- Node19&#45;&gt;Node4 -->
<g id="edge34" class="edge">
<title>Node19&#45;&gt;Node4</title>
<path fill="none" stroke="midnightblue" d="M1201.78,-350.04C1149.59,-343.82 1073.06,-331.94 1009,-311 902.06,-276.04 854.19,-241.88 830,-132 828.09,-123.32 824.28,-118.8 830,-112 858.65,-77.96 993.54,-69.67 1056.93,-67.65"/>
<polygon fill="midnightblue" stroke="midnightblue" points="1057.28,-71.14 1067.18,-67.36 1057.08,-64.14 1057.28,-71.14"/>
</g>
<!-- Node19&#45;&gt;Node5 -->
<g id="edge35" class="edge">
<title>Node19&#45;&gt;Node5</title>
<path fill="none" stroke="midnightblue" d="M1295.09,-347.4C1317.47,-340.27 1347.12,-328.45 1369,-311 1385.28,-298.02 1398.57,-278.03 1406.82,-263.65"/>
<polygon fill="midnightblue" stroke="midnightblue" points="1409.96,-265.19 1411.69,-254.74 1403.82,-261.83 1409.96,-265.19"/>
</g>
<!-- Node19&#45;&gt;Node11 -->
<g id="edge32" class="edge">
<title>Node19&#45;&gt;Node11</title>
<path fill="none" stroke="midnightblue" d="M1210.97,-347.49C1143.42,-334.84 1023.48,-306.79 933,-255 901.06,-236.72 887.47,-232.39 872,-199 863.69,-181.07 864.07,-158.12 865.82,-142.16"/>
<polygon fill="midnightblue" stroke="midnightblue" points="869.33,-142.33 867.23,-131.94 862.4,-141.37 869.33,-142.33"/>
</g>
<!-- Node19&#45;&gt;Node12 -->
<g id="edge33" class="edge">
<title>Node19&#45;&gt;Node12</title>
<path fill="none" stroke="midnightblue" d="M1289.21,-347.41C1305.85,-340.44 1326.06,-328.81 1336,-311 1357.59,-272.32 1400.59,-275.53 1306,-168 1295.44,-156 1258.48,-142.95 1228.89,-134.01"/>
<polygon fill="midnightblue" stroke="midnightblue" points="1229.77,-130.62 1219.18,-131.15 1227.78,-137.34 1229.77,-130.62"/>
</g>
<!-- Node19&#45;&gt;Node13 -->
<g id="edge36" class="edge">
<title>Node19&#45;&gt;Node13</title>
<path fill="none" stroke="midnightblue" d="M1310.07,-347.46C1357.19,-335.92 1425.91,-310.06 1449,-255 1473.54,-196.48 1386.61,-154.38 1334.48,-134.98"/>
<polygon fill="midnightblue" stroke="midnightblue" points="1335.47,-131.62 1324.88,-131.52 1333.1,-138.2 1335.47,-131.62"/>
</g>
<!-- Node20 -->
<g id="node20" class="node">
<title>Node20</title>
<g id="a_node20"><a xlink:href="blade_8hpp.html" target="_top" xlink:title=" ">
<polygon fill="white" stroke="black" points="1199.5,-291.5 1199.5,-310.5 1326.5,-310.5 1326.5,-291.5 1199.5,-291.5"/>
<text text-anchor="middle" x="1263" y="-298.5" font-family="Helvetica,sans-Serif" font-size="10.00">mini/aircraft/blade.hpp</text>
</a>
</g>
</g>
<!-- Node19&#45;&gt;Node20 -->
<g id="edge37" class="edge">
<title>Node19&#45;&gt;Node20</title>
<path fill="none" stroke="midnightblue" d="M1263,-347.08C1263,-340.01 1263,-329.86 1263,-320.99"/>
<polygon fill="midnightblue" stroke="midnightblue" points="1266.5,-320.75 1263,-310.75 1259.5,-320.75 1266.5,-320.75"/>
</g>
<!-- Node20&#45;&gt;Node5 -->
<g id="edge41" class="edge">
<title>Node20&#45;&gt;Node5</title>
<path fill="none" stroke="midnightblue" d="M1287.24,-291.44C1313.02,-282.35 1353.96,-267.9 1382.74,-257.74"/>
<polygon fill="midnightblue" stroke="midnightblue" points="1384.11,-260.97 1392.37,-254.34 1381.78,-254.37 1384.11,-260.97"/>
</g>
<!-- Node20&#45;&gt;Node11 -->
<g id="edge38" class="edge">
<title>Node20&#45;&gt;Node11</title>
<path fill="none" stroke="midnightblue" d="M1199.5,-294.8C1145.15,-289.03 1065.41,-277.41 999,-255 948.14,-237.84 926.22,-240.35 892,-199 878.43,-182.6 872.86,-158.35 870.58,-141.67"/>
<polygon fill="midnightblue" stroke="midnightblue" points="874.04,-141.08 869.47,-131.53 867.08,-141.85 874.04,-141.08"/>
</g>
<!-- Node20&#45;&gt;Node12 -->
<g id="edge39" class="edge">
<title>Node20&#45;&gt;Node12</title>
<path fill="none" stroke="midnightblue" d="M1275.21,-291.24C1285.35,-283.14 1299.04,-270.11 1305,-255 1315.67,-227.93 1293.09,-177.39 1285,-168 1270.4,-151.06 1248.04,-140.07 1228.57,-133.19"/>
<polygon fill="midnightblue" stroke="midnightblue" points="1229.6,-129.84 1219.01,-130.04 1227.41,-136.49 1229.6,-129.84"/>
</g>
<!-- Node21 -->
<g id="node21" class="node">
<title>Node21</title>
<g id="a_node21"><a xlink:title=" ">
<polygon fill="white" stroke="#bfbfbf" points="1230.5,-235.5 1230.5,-254.5 1295.5,-254.5 1295.5,-235.5 1230.5,-235.5"/>
<text text-anchor="middle" x="1263" y="-242.5" font-family="Helvetica,sans-Serif" font-size="10.00">stdexcept</text>
</a>
</g>
</g>
<!-- Node20&#45;&gt;Node21 -->
<g id="edge40" class="edge">
<title>Node20&#45;&gt;Node21</title>
<path fill="none" stroke="midnightblue" d="M1263,-291.08C1263,-284.01 1263,-273.86 1263,-264.99"/>
<polygon fill="midnightblue" stroke="midnightblue" points="1266.5,-264.75 1263,-254.75 1259.5,-264.75 1266.5,-264.75"/>
</g>
<!-- Node22 -->
<g id="node22" class="node">
<title>Node22</title>
<g id="a_node22"><a xlink:href="section_8hpp.html" target="_top" xlink:title=" ">
<polygon fill="white" stroke="black" points="1007.5,-235.5 1007.5,-254.5 1142.5,-254.5 1142.5,-235.5 1007.5,-235.5"/>
<text text-anchor="middle" x="1075" y="-242.5" font-family="Helvetica,sans-Serif" font-size="10.00">mini/aircraft/section.hpp</text>
</a>
</g>
</g>
<!-- Node20&#45;&gt;Node22 -->
<g id="edge42" class="edge">
<title>Node20&#45;&gt;Node22</title>
<path fill="none" stroke="midnightblue" d="M1233.21,-291.44C1201.17,-282.24 1150.07,-267.56 1114.65,-257.39"/>
<polygon fill="midnightblue" stroke="midnightblue" points="1115.23,-253.91 1104.65,-254.52 1113.29,-260.64 1115.23,-253.91"/>
</g>
<!-- Node22&#45;&gt;Node4 -->
<g id="edge46" class="edge">
<title>Node22&#45;&gt;Node4</title>
<path fill="none" stroke="midnightblue" d="M1075.72,-235.46C1078.01,-208.43 1085.15,-124.24 1088.38,-86.11"/>
<polygon fill="midnightblue" stroke="midnightblue" points="1091.89,-86.13 1089.25,-75.87 1084.92,-85.54 1091.89,-86.13"/>
</g>
<!-- Node22&#45;&gt;Node10 -->
<g id="edge51" class="edge">
<title>Node22&#45;&gt;Node10</title>
<path fill="none" stroke="midnightblue" d="M1091.33,-235.48C1110.21,-225.62 1141.51,-209.29 1163.58,-197.77"/>
<polygon fill="midnightblue" stroke="midnightblue" points="1165.45,-200.74 1172.7,-193.01 1162.21,-194.53 1165.45,-200.74"/>
</g>
<!-- Node22&#45;&gt;Node11 -->
<g id="edge43" class="edge">
<title>Node22&#45;&gt;Node11</title>
<path fill="none" stroke="midnightblue" d="M1016.29,-235.46C986.88,-229.03 951.9,-217.94 925,-199 903.61,-183.93 887.11,-158.1 877.73,-140.79"/>
<polygon fill="midnightblue" stroke="midnightblue" points="880.75,-139 873.05,-131.72 874.53,-142.21 880.75,-139"/>
</g>
<!-- Node22&#45;&gt;Node12 -->
<g id="edge45" class="edge">
<title>Node22&#45;&gt;Node12</title>
<path fill="none" stroke="midnightblue" d="M1142.72,-237.19C1192.2,-230.66 1253.27,-218.79 1269,-199 1277.57,-188.21 1275.96,-179.89 1269,-168 1260.14,-152.85 1244.09,-142.41 1228.69,-135.42"/>
<polygon fill="midnightblue" stroke="midnightblue" points="1229.83,-132.11 1219.25,-131.51 1227.15,-138.57 1229.83,-132.11"/>
</g>
<!-- Node23 -->
<g id="node23" class="node">
<title>Node23</title>
<g id="a_node23"><a xlink:title=" ">
<polygon fill="white" stroke="#bfbfbf" points="731,-112.5 731,-131.5 783,-131.5 783,-112.5 731,-112.5"/>
<text text-anchor="middle" x="757" y="-119.5" font-family="Helvetica,sans-Serif" font-size="10.00">cassert</text>
</a>
</g>
</g>
<!-- Node22&#45;&gt;Node23 -->
<g id="edge44" class="edge">
<title>Node22&#45;&gt;Node23</title>
<path fill="none" stroke="midnightblue" d="M1024.54,-235.43C987.14,-228.16 935.35,-216.16 892,-199 849.46,-182.16 803.85,-154.14 778.03,-137.24"/>
<polygon fill="midnightblue" stroke="midnightblue" points="779.72,-134.16 769.45,-131.55 775.85,-140 779.72,-134.16"/>
</g>
<!-- Node24 -->
<g id="node24" class="node">
<title>Node24</title>
<g id="a_node24"><a xlink:href="airfoil_8hpp.html" target="_top" xlink:title=" ">
<polygon fill="white" stroke="black" points="934,-174 934,-193 1062,-193 1062,-174 934,-174"/>
<text text-anchor="middle" x="998" y="-181" font-family="Helvetica,sans-Serif" font-size="10.00">mini/aircraft/airfoil.hpp</text>
</a>
</g>
</g>
<!-- Node22&#45;&gt;Node24 -->
<g id="edge47" class="edge">
<title>Node22&#45;&gt;Node24</title>
<path fill="none" stroke="midnightblue" d="M1063.97,-235.48C1051.73,-226.02 1031.77,-210.6 1017.01,-199.19"/>
<polygon fill="midnightblue" stroke="midnightblue" points="1019.06,-196.35 1009.01,-193.01 1014.78,-201.89 1019.06,-196.35"/>
</g>
<!-- Node24&#45;&gt;Node7 -->
<g id="edge49" class="edge">
<title>Node24&#45;&gt;Node7</title>
<path fill="none" stroke="midnightblue" d="M997.14,-173.59C995.18,-158.47 988.98,-127.9 970,-112 899.33,-52.79 610.09,-22.56 510.71,-13.77"/>
<polygon fill="midnightblue" stroke="midnightblue" points="510.89,-10.27 500.62,-12.89 510.28,-17.25 510.89,-10.27"/>
</g>
<!-- Node24&#45;&gt;Node11 -->
<g id="edge48" class="edge">
<title>Node24&#45;&gt;Node11</title>
<path fill="none" stroke="midnightblue" d="M979.52,-173.98C957.87,-163.99 921.79,-147.35 896.77,-135.81"/>
<polygon fill="midnightblue" stroke="midnightblue" points="897.99,-132.52 887.45,-131.51 895.06,-138.88 897.99,-132.52"/>
</g>
<!-- Node24&#45;&gt;Node18 -->
<g id="edge50" class="edge">
<title>Node24&#45;&gt;Node18</title>
<path fill="none" stroke="midnightblue" d="M989.69,-173.98C980.82,-164.87 966.55,-150.24 955.58,-138.98"/>
<polygon fill="midnightblue" stroke="midnightblue" points="957.78,-136.23 948.29,-131.51 952.77,-141.11 957.78,-136.23"/>
</g>
<!-- Node25&#45;&gt;Node6 -->
<g id="edge57" class="edge">
<title>Node25&#45;&gt;Node6</title>
<path fill="none" stroke="midnightblue" d="M325.15,-168.34C313.46,-147.24 291.5,-107.6 278.78,-84.65"/>
<polygon fill="midnightblue" stroke="midnightblue" points="281.71,-82.72 273.8,-75.67 275.59,-86.11 281.71,-82.72"/>
</g>
<!-- Node25&#45;&gt;Node7 -->
<g id="edge55" class="edge">
<title>Node25&#45;&gt;Node7</title>
<path fill="none" stroke="midnightblue" d="M345.84,-168.46C354.55,-158.61 366.06,-144.95 375,-132 397.05,-100.06 392.5,-85.25 418,-56 428.39,-44.08 442.38,-33.25 454.12,-25.2"/>
<polygon fill="midnightblue" stroke="midnightblue" points="456.16,-28.05 462.57,-19.62 452.3,-22.21 456.16,-28.05"/>
</g>
<!-- Node25&#45;&gt;Node11 -->
<g id="edge53" class="edge">
<title>Node25&#45;&gt;Node11</title>
<path fill="none" stroke="midnightblue" d="M388.26,-174.23C403.4,-172.07 419.82,-169.84 435,-168 593.31,-148.77 633.47,-149.26 792,-132 803.9,-130.7 816.83,-129.22 828.63,-127.84"/>
<polygon fill="midnightblue" stroke="midnightblue" points="829.14,-131.31 838.66,-126.66 828.32,-124.35 829.14,-131.31"/>
</g>
<!-- Node25&#45;&gt;Node23 -->
<g id="edge54" class="edge">
<title>Node25&#45;&gt;Node23</title>
<path fill="none" stroke="midnightblue" d="M388.05,-174.65C403.26,-172.49 419.77,-170.15 435,-168 538.61,-153.4 661,-136.35 720.65,-128.05"/>
<polygon fill="midnightblue" stroke="midnightblue" points="721.28,-131.5 730.7,-126.65 720.31,-124.56 721.28,-131.5"/>
</g>
<!-- Node26 -->
<g id="node26" class="node">
<title>Node26</title>
<g id="a_node26"><a xlink:title=" ">
<polygon fill="white" stroke="#bfbfbf" points="316,-112.5 316,-131.5 366,-131.5 366,-112.5 316,-112.5"/>
<text text-anchor="middle" x="341" y="-119.5" font-family="Helvetica,sans-Serif" font-size="10.00">cstring</text>
</a>
</g>
</g>
<!-- Node25&#45;&gt;Node26 -->
<g id="edge56" class="edge">
<title>Node25&#45;&gt;Node26</title>
<path fill="none" stroke="midnightblue" d="M334.9,-168.4C335.97,-160.38 337.34,-150.23 338.5,-141.57"/>
<polygon fill="midnightblue" stroke="midnightblue" points="341.97,-142.04 339.84,-131.66 335.03,-141.1 341.97,-142.04"/>
</g>
</g>
</svg>
