<?xml version="1.0" encoding="UTF-8" standalone="no"?>
<!DOCTYPE svg PUBLIC "-//W3C//DTD SVG 1.1//EN"
 "http://www.w3.org/Graphics/SVG/1.1/DTD/svg11.dtd">
<!-- Generated by graphviz version 2.43.0 (0)
 -->
<!-- Title: mini::mesh::cgns::NodeIndex&lt; Int &gt; Pages: 1 -->
<svg width="166pt" height="117pt"
 viewBox="0.00 0.00 166.00 117.00" xmlns="http://www.w3.org/2000/svg" xmlns:xlink="http://www.w3.org/1999/xlink">
<g id="graph0" class="graph" transform="scale(1 1) rotate(0) translate(4 113)">
<title>mini::mesh::cgns::NodeIndex&lt; Int &gt;</title>
<polygon fill="white" stroke="transparent" points="-4,4 -4,-113 162,-113 162,4 -4,4"/>
<!-- Node1 -->
<g id="node1" class="node">
<title>Node1</title>
<g id="a_node1"><a xlink:title="Index information of a Node.">
<polygon fill="#bfbfbf" stroke="black" points="0,-0.5 0,-30.5 158,-30.5 158,-0.5 0,-0.5"/>
<text text-anchor="start" x="8" y="-18.5" font-family="Helvetica,sans-Serif" font-size="10.00">mini::mesh::cgns::NodeIndex</text>
<text text-anchor="middle" x="79" y="-7.5" font-family="Helvetica,sans-Serif" font-size="10.00">&lt; Int &gt;</text>
</a>
</g>
</g>
<!-- Node2 -->
<g id="node2" class="node">
<title>Node2</title>
<g id="a_node2"><a xlink:title=" ">
<polygon fill="white" stroke="#bfbfbf" points="64.5,-89.5 64.5,-108.5 93.5,-108.5 93.5,-89.5 64.5,-89.5"/>
<text text-anchor="middle" x="79" y="-96.5" font-family="Helvetica,sans-Serif" font-size="10.00">Int</text>
</a>
</g>
</g>
<!-- Node2&#45;&gt;Node1 -->
<g id="edge1" class="edge">
<title>Node2&#45;&gt;Node1</title>
<path fill="none" stroke="#9a32cd" stroke-dasharray="5,2" d="M79,-79.23C79,-64.41 79,-44.05 79,-30.6"/>
<polygon fill="#9a32cd" stroke="#9a32cd" points="75.5,-79.28 79,-89.28 82.5,-79.28 75.5,-79.28"/>
<text text-anchor="middle" x="97" y="-63" font-family="Helvetica,sans-Serif" font-size="10.00"> i_node</text>
<text text-anchor="middle" x="97" y="-52" font-family="Helvetica,sans-Serif" font-size="10.00">i_zone</text>
</g>
</g>
</svg>
