<?xml version="1.0" encoding="UTF-8" standalone="no"?>
<!DOCTYPE svg PUBLIC "-//W3C//DTD SVG 1.1//EN"
 "http://www.w3.org/Graphics/SVG/1.1/DTD/svg11.dtd">
<!-- Generated by graphviz version 2.43.0 (0)
 -->
<!-- Title: mini::mesh::part::Coordinates&lt; Int, Scalar &gt; Pages: 1 -->
<svg width="530pt" height="127pt"
 viewBox="0.00 0.00 530.00 126.50" xmlns="http://www.w3.org/2000/svg" xmlns:xlink="http://www.w3.org/1999/xlink">
<g id="graph0" class="graph" transform="scale(1 1) rotate(0) translate(4 122.5)">
<title>mini::mesh::part::Coordinates&lt; Int, Scalar &gt;</title>
<polygon fill="white" stroke="transparent" points="-4,4 -4,-122.5 526,-122.5 526,4 -4,4"/>
<!-- Node1 -->
<g id="node1" class="node">
<title>Node1</title>
<g id="a_node1"><a xlink:title="Mimic CGNS&#39;s GridCoordinates_t, but partitioned.">
<polygon fill="#bfbfbf" stroke="black" points="361,-40 361,-70 522,-70 522,-40 361,-40"/>
<text text-anchor="start" x="369" y="-58" font-family="Helvetica,sans-Serif" font-size="10.00">mini::mesh::part::Coordinates</text>
<text text-anchor="middle" x="441.5" y="-47" font-family="Helvetica,sans-Serif" font-size="10.00">&lt; Int, Scalar &gt;</text>
</a>
</g>
</g>
<!-- Node2 -->
<g id="node2" class="node">
<title>Node2</title>
<g id="a_node2"><a xlink:href="classmini_1_1mesh_1_1cgns_1_1ShiftedVector.html" target="_top" xlink:title=" ">
<polygon fill="white" stroke="black" points="134,-88 134,-118 274,-118 274,-88 134,-88"/>
<text text-anchor="start" x="142" y="-106" font-family="Helvetica,sans-Serif" font-size="10.00">mini::mesh::cgns::Shifted</text>
<text text-anchor="middle" x="204" y="-95" font-family="Helvetica,sans-Serif" font-size="10.00">Vector&lt; Scalar &gt;</text>
</a>
</g>
</g>
<!-- Node2&#45;&gt;Node1 -->
<g id="edge1" class="edge">
<title>Node2&#45;&gt;Node1</title>
<path fill="none" stroke="#9a32cd" stroke-dasharray="5,2" d="M284.11,-86.88C310.72,-81.45 340.3,-75.42 366.51,-70.08"/>
<polygon fill="#9a32cd" stroke="#9a32cd" points="283.17,-83.5 274.07,-88.92 284.56,-90.36 283.17,-83.5"/>
<text text-anchor="middle" x="317.5" y="-109" font-family="Helvetica,sans-Serif" font-size="10.00"> x_</text>
<text text-anchor="middle" x="317.5" y="-98" font-family="Helvetica,sans-Serif" font-size="10.00">y_</text>
<text text-anchor="middle" x="317.5" y="-87" font-family="Helvetica,sans-Serif" font-size="10.00">z_</text>
</g>
<!-- Node3 -->
<g id="node3" class="node">
<title>Node3</title>
<g id="a_node3"><a xlink:title=" ">
<polygon fill="white" stroke="#bfbfbf" points="0,-68.5 0,-87.5 97,-87.5 97,-68.5 0,-68.5"/>
<text text-anchor="middle" x="48.5" y="-75.5" font-family="Helvetica,sans-Serif" font-size="10.00">std::vector&lt; T &gt;</text>
</a>
</g>
</g>
<!-- Node3&#45;&gt;Node2 -->
<g id="edge2" class="edge">
<title>Node3&#45;&gt;Node2</title>
<path fill="none" stroke="midnightblue" d="M107.25,-87.4C115.94,-88.82 124.99,-90.29 133.89,-91.74"/>
<polygon fill="midnightblue" stroke="midnightblue" points="107.66,-83.93 97.23,-85.77 106.53,-90.84 107.66,-83.93"/>
</g>
<!-- Node4 -->
<g id="node4" class="node">
<title>Node4</title>
<g id="a_node4"><a xlink:href="classmini_1_1mesh_1_1cgns_1_1ShiftedVector.html" target="_top" xlink:title=" ">
<polygon fill="white" stroke="black" points="134,-39 134,-69 274,-69 274,-39 134,-39"/>
<text text-anchor="start" x="142" y="-57" font-family="Helvetica,sans-Serif" font-size="10.00">mini::mesh::cgns::Shifted</text>
<text text-anchor="middle" x="204" y="-46" font-family="Helvetica,sans-Serif" font-size="10.00">Vector&lt; Int &gt;</text>
</a>
</g>
</g>
<!-- Node3&#45;&gt;Node4 -->
<g id="edge4" class="edge">
<title>Node3&#45;&gt;Node4</title>
<path fill="none" stroke="midnightblue" d="M107.25,-68.97C115.94,-67.61 124.99,-66.2 133.89,-64.81"/>
<polygon fill="midnightblue" stroke="midnightblue" points="106.57,-65.53 97.23,-70.54 107.65,-72.45 106.57,-65.53"/>
</g>
<!-- Node4&#45;&gt;Node1 -->
<g id="edge3" class="edge">
<title>Node4&#45;&gt;Node1</title>
<path fill="none" stroke="#9a32cd" stroke-dasharray="5,2" d="M284.1,-54.34C308.75,-54.44 335.95,-54.56 360.65,-54.66"/>
<polygon fill="#9a32cd" stroke="#9a32cd" points="284.08,-50.84 274.07,-54.29 284.05,-57.84 284.08,-50.84"/>
<text text-anchor="middle" x="317.5" y="-57" font-family="Helvetica,sans-Serif" font-size="10.00"> metis_id_</text>
</g>
<!-- Node5 -->
<g id="node5" class="node">
<title>Node5</title>
<g id="a_node5"><a xlink:title=" ">
<polygon fill="white" stroke="#bfbfbf" points="189.5,-0.5 189.5,-19.5 218.5,-19.5 218.5,-0.5 189.5,-0.5"/>
<text text-anchor="middle" x="204" y="-7.5" font-family="Helvetica,sans-Serif" font-size="10.00">Int</text>
</a>
</g>
</g>
<!-- Node5&#45;&gt;Node1 -->
<g id="edge5" class="edge">
<title>Node5&#45;&gt;Node1</title>
<path fill="none" stroke="#9a32cd" stroke-dasharray="5,2" d="M229.11,-12.11C256.78,-14.77 303.46,-19.99 343,-28 358.84,-31.21 375.88,-35.6 391.22,-39.91"/>
<polygon fill="#9a32cd" stroke="#9a32cd" points="229.1,-8.59 218.82,-11.15 228.45,-15.56 229.1,-8.59"/>
<text text-anchor="middle" x="317.5" y="-42" font-family="Helvetica,sans-Serif" font-size="10.00"> head_</text>
<text text-anchor="middle" x="317.5" y="-31" font-family="Helvetica,sans-Serif" font-size="10.00">size_</text>
</g>
</g>
</svg>
