<?xml version="1.0" encoding="UTF-8" standalone="no"?>
<!DOCTYPE svg PUBLIC "-//W3C//DTD SVG 1.1//EN"
 "http://www.w3.org/Graphics/SVG/1.1/DTD/svg11.dtd">
<!-- Generated by graphviz version 2.43.0 (0)
 -->
<!-- Title: mini::riemann::diffusive::Anisotropic&lt; S, K &gt;::Property Pages: 1 -->
<svg width="141pt" height="139pt"
 viewBox="0.00 0.00 141.00 139.00" xmlns="http://www.w3.org/2000/svg" xmlns:xlink="http://www.w3.org/1999/xlink">
<g id="graph0" class="graph" transform="scale(1 1) rotate(0) translate(4 135)">
<title>mini::riemann::diffusive::Anisotropic&lt; S, K &gt;::Property</title>
<polygon fill="white" stroke="transparent" points="-4,4 -4,-135 137,-135 137,4 -4,4"/>
<!-- Node1 -->
<g id="node1" class="node">
<title>Node1</title>
<g id="a_node1"><a xlink:title=" ">
<polygon fill="#bfbfbf" stroke="black" points="0,-0.5 0,-41.5 133,-41.5 133,-0.5 0,-0.5"/>
<text text-anchor="start" x="8" y="-29.5" font-family="Helvetica,sans-Serif" font-size="10.00">mini::riemann::diffusive</text>
<text text-anchor="start" x="8" y="-18.5" font-family="Helvetica,sans-Serif" font-size="10.00">::Anisotropic&lt; S, K &gt;::</text>
<text text-anchor="middle" x="66.5" y="-7.5" font-family="Helvetica,sans-Serif" font-size="10.00">Property</text>
</a>
</g>
</g>
<!-- Node2 -->
<g id="node2" class="node">
<title>Node2</title>
<g id="a_node2"><a xlink:title=" ">
<polygon fill="white" stroke="#bfbfbf" points="52,-111.5 52,-130.5 81,-130.5 81,-111.5 52,-111.5"/>
<text text-anchor="middle" x="66.5" y="-118.5" font-family="Helvetica,sans-Serif" font-size="10.00">S</text>
</a>
</g>
</g>
<!-- Node2&#45;&gt;Node1 -->
<g id="edge1" class="edge">
<title>Node2&#45;&gt;Node1</title>
<path fill="none" stroke="#9a32cd" stroke-dasharray="5,2" d="M66.5,-100.91C66.5,-83.81 66.5,-58.84 66.5,-41.59"/>
<polygon fill="#9a32cd" stroke="#9a32cd" points="63,-101.3 66.5,-111.3 70,-101.3 63,-101.3"/>
<text text-anchor="middle" x="71.5" y="-85" font-family="Helvetica,sans-Serif" font-size="10.00"> x</text>
<text text-anchor="middle" x="71.5" y="-74" font-family="Helvetica,sans-Serif" font-size="10.00">y</text>
<text text-anchor="middle" x="71.5" y="-63" font-family="Helvetica,sans-Serif" font-size="10.00">z</text>
</g>
</g>
</svg>
