<?xml version="1.0" encoding="UTF-8" standalone="no"?>
<!DOCTYPE svg PUBLIC "-//W3C//DTD SVG 1.1//EN"
 "http://www.w3.org/Graphics/SVG/1.1/DTD/svg11.dtd">
<!-- Generated by graphviz version 2.43.0 (0)
 -->
<!-- Title: include/mini/basis/taylor.hpp Pages: 1 -->
<svg width="541pt" height="151pt"
 viewBox="0.00 0.00 541.00 151.00" xmlns="http://www.w3.org/2000/svg" xmlns:xlink="http://www.w3.org/1999/xlink">
<g id="graph0" class="graph" transform="scale(1 1) rotate(0) translate(4 147)">
<title>include/mini/basis/taylor.hpp</title>
<polygon fill="white" stroke="transparent" points="-4,4 -4,-147 537,-147 537,4 -4,4"/>
<!-- Node1 -->
<g id="node1" class="node">
<title>Node1</title>
<g id="a_node1"><a xlink:title=" ">
<polygon fill="#bfbfbf" stroke="black" points="134.5,-112.5 134.5,-142.5 239.5,-142.5 239.5,-112.5 134.5,-112.5"/>
<text text-anchor="start" x="142.5" y="-130.5" font-family="Helvetica,sans-Serif" font-size="10.00">include/mini/basis</text>
<text text-anchor="middle" x="187" y="-119.5" font-family="Helvetica,sans-Serif" font-size="10.00">/taylor.hpp</text>
</a>
</g>
</g>
<!-- Node2 -->
<g id="node2" class="node">
<title>Node2</title>
<g id="a_node2"><a xlink:title=" ">
<polygon fill="white" stroke="#bfbfbf" points="0,-56.5 0,-75.5 60,-75.5 60,-56.5 0,-56.5"/>
<text text-anchor="middle" x="30" y="-63.5" font-family="Helvetica,sans-Serif" font-size="10.00">concepts</text>
</a>
</g>
</g>
<!-- Node1&#45;&gt;Node2 -->
<g id="edge1" class="edge">
<title>Node1&#45;&gt;Node2</title>
<path fill="none" stroke="midnightblue" d="M149.79,-112.4C123.22,-102.33 87.81,-88.91 62.39,-79.28"/>
<polygon fill="midnightblue" stroke="midnightblue" points="63.44,-75.93 52.84,-75.66 60.96,-82.47 63.44,-75.93"/>
</g>
<!-- Node3 -->
<g id="node3" class="node">
<title>Node3</title>
<g id="a_node3"><a xlink:title=" ">
<polygon fill="white" stroke="#bfbfbf" points="78,-56.5 78,-75.5 130,-75.5 130,-56.5 78,-56.5"/>
<text text-anchor="middle" x="104" y="-63.5" font-family="Helvetica,sans-Serif" font-size="10.00">cassert</text>
</a>
</g>
</g>
<!-- Node1&#45;&gt;Node3 -->
<g id="edge2" class="edge">
<title>Node1&#45;&gt;Node3</title>
<path fill="none" stroke="midnightblue" d="M167.33,-112.4C154.4,-103.13 137.51,-91.03 124.43,-81.65"/>
<polygon fill="midnightblue" stroke="midnightblue" points="126.24,-78.64 116.08,-75.66 122.17,-84.33 126.24,-78.64"/>
</g>
<!-- Node4 -->
<g id="node4" class="node">
<title>Node4</title>
<g id="a_node4"><a xlink:title=" ">
<polygon fill="white" stroke="#bfbfbf" points="189.5,-0.5 189.5,-19.5 236.5,-19.5 236.5,-0.5 189.5,-0.5"/>
<text text-anchor="middle" x="213" y="-7.5" font-family="Helvetica,sans-Serif" font-size="10.00">cmath</text>
</a>
</g>
</g>
<!-- Node1&#45;&gt;Node4 -->
<g id="edge3" class="edge">
<title>Node1&#45;&gt;Node4</title>
<path fill="none" stroke="midnightblue" d="M181.17,-112.34C176.07,-97.82 170.41,-74.78 177,-56 180.79,-45.21 188.37,-35.08 195.6,-27.18"/>
<polygon fill="midnightblue" stroke="midnightblue" points="198.33,-29.4 202.84,-19.81 193.33,-24.49 198.33,-29.4"/>
</g>
<!-- Node5 -->
<g id="node5" class="node">
<title>Node5</title>
<g id="a_node5"><a xlink:title=" ">
<polygon fill="white" stroke="#bfbfbf" points="186,-56.5 186,-75.5 246,-75.5 246,-56.5 186,-56.5"/>
<text text-anchor="middle" x="216" y="-63.5" font-family="Helvetica,sans-Serif" font-size="10.00">iostream</text>
</a>
</g>
</g>
<!-- Node1&#45;&gt;Node5 -->
<g id="edge4" class="edge">
<title>Node1&#45;&gt;Node5</title>
<path fill="none" stroke="midnightblue" d="M193.87,-112.4C197.91,-104.11 203.06,-93.55 207.37,-84.71"/>
<polygon fill="midnightblue" stroke="midnightblue" points="210.55,-86.18 211.78,-75.66 204.25,-83.11 210.55,-86.18"/>
</g>
<!-- Node6 -->
<g id="node6" class="node">
<title>Node6</title>
<g id="a_node6"><a xlink:title=" ">
<polygon fill="white" stroke="#bfbfbf" points="264.5,-56.5 264.5,-75.5 333.5,-75.5 333.5,-56.5 264.5,-56.5"/>
<text text-anchor="middle" x="299" y="-63.5" font-family="Helvetica,sans-Serif" font-size="10.00">type_traits</text>
</a>
</g>
</g>
<!-- Node1&#45;&gt;Node6 -->
<g id="edge5" class="edge">
<title>Node1&#45;&gt;Node6</title>
<path fill="none" stroke="midnightblue" d="M213.54,-112.4C231.66,-102.77 255.54,-90.09 273.44,-80.58"/>
<polygon fill="midnightblue" stroke="midnightblue" points="275.51,-83.44 282.7,-75.66 272.23,-77.26 275.51,-83.44"/>
</g>
<!-- Node7 -->
<g id="node7" class="node">
<title>Node7</title>
<g id="a_node7"><a xlink:href="algebra_2eigen_8hpp.html" target="_top" xlink:title=" ">
<polygon fill="white" stroke="black" points="351.5,-56.5 351.5,-75.5 480.5,-75.5 480.5,-56.5 351.5,-56.5"/>
<text text-anchor="middle" x="416" y="-63.5" font-family="Helvetica,sans-Serif" font-size="10.00">mini/algebra/eigen.hpp</text>
</a>
</g>
</g>
<!-- Node1&#45;&gt;Node7 -->
<g id="edge6" class="edge">
<title>Node1&#45;&gt;Node7</title>
<path fill="none" stroke="midnightblue" d="M239.54,-112.85C280.14,-102.3 335.63,-87.88 373.47,-78.05"/>
<polygon fill="midnightblue" stroke="midnightblue" points="374.38,-81.43 383.17,-75.53 372.61,-74.66 374.38,-81.43"/>
</g>
<!-- Node7&#45;&gt;Node4 -->
<g id="edge8" class="edge">
<title>Node7&#45;&gt;Node4</title>
<path fill="none" stroke="midnightblue" d="M383.83,-56.44C346.43,-46.49 284.97,-30.15 246.86,-20.01"/>
<polygon fill="midnightblue" stroke="midnightblue" points="247.33,-16.51 236.77,-17.32 245.53,-23.28 247.33,-16.51"/>
</g>
<!-- Node8 -->
<g id="node8" class="node">
<title>Node8</title>
<g id="a_node8"><a xlink:title=" ">
<polygon fill="white" stroke="#bfbfbf" points="309,-0.5 309,-19.5 373,-19.5 373,-0.5 309,-0.5"/>
<text text-anchor="middle" x="341" y="-7.5" font-family="Helvetica,sans-Serif" font-size="10.00">algorithm</text>
</a>
</g>
</g>
<!-- Node7&#45;&gt;Node8 -->
<g id="edge7" class="edge">
<title>Node7&#45;&gt;Node8</title>
<path fill="none" stroke="midnightblue" d="M403.95,-56.32C392.54,-48.11 375.17,-35.6 361.57,-25.81"/>
<polygon fill="midnightblue" stroke="midnightblue" points="363.43,-22.84 353.27,-19.83 359.34,-28.52 363.43,-22.84"/>
</g>
<!-- Node9 -->
<g id="node9" class="node">
<title>Node9</title>
<g id="a_node9"><a xlink:title=" ">
<polygon fill="white" stroke="#bfbfbf" points="391.5,-0.5 391.5,-19.5 440.5,-19.5 440.5,-0.5 391.5,-0.5"/>
<text text-anchor="middle" x="416" y="-7.5" font-family="Helvetica,sans-Serif" font-size="10.00">cstdlib</text>
</a>
</g>
</g>
<!-- Node7&#45;&gt;Node9 -->
<g id="edge9" class="edge">
<title>Node7&#45;&gt;Node9</title>
<path fill="none" stroke="midnightblue" d="M416,-56.08C416,-49.01 416,-38.86 416,-29.99"/>
<polygon fill="midnightblue" stroke="midnightblue" points="419.5,-29.75 416,-19.75 412.5,-29.75 419.5,-29.75"/>
</g>
<!-- Node10 -->
<g id="node10" class="node">
<title>Node10</title>
<g id="a_node10"><a xlink:title=" ">
<polygon fill="white" stroke="#bfbfbf" points="459,-0.5 459,-19.5 533,-19.5 533,-0.5 459,-0.5"/>
<text text-anchor="middle" x="496" y="-7.5" font-family="Helvetica,sans-Serif" font-size="10.00">Eigen/Eigen</text>
</a>
</g>
</g>
<!-- Node7&#45;&gt;Node10 -->
<g id="edge10" class="edge">
<title>Node7&#45;&gt;Node10</title>
<path fill="none" stroke="midnightblue" d="M428.85,-56.32C441.22,-47.98 460.13,-35.21 474.74,-25.35"/>
<polygon fill="midnightblue" stroke="midnightblue" points="476.85,-28.15 483.18,-19.65 472.93,-22.35 476.85,-28.15"/>
</g>
</g>
</svg>
