<?xml version="1.0" encoding="UTF-8" standalone="no"?>
<!DOCTYPE svg PUBLIC "-//W3C//DTD SVG 1.1//EN"
 "http://www.w3.org/Graphics/SVG/1.1/DTD/svg11.dtd">
<!-- Generated by graphviz version 2.43.0 (0)
 -->
<!-- Title: include/mini/basis/taylor.hpp Pages: 1 -->
<svg width="652pt" height="307pt"
 viewBox="0.00 0.00 651.50 307.00" xmlns="http://www.w3.org/2000/svg" xmlns:xlink="http://www.w3.org/1999/xlink">
<g id="graph0" class="graph" transform="scale(1 1) rotate(0) translate(4 303)">
<title>include/mini/basis/taylor.hpp</title>
<polygon fill="white" stroke="transparent" points="-4,4 -4,-303 647.5,-303 647.5,4 -4,4"/>
<!-- Node1 -->
<g id="node1" class="node">
<title>Node1</title>
<g id="a_node1"><a xlink:title=" ">
<polygon fill="#bfbfbf" stroke="black" points="344,-268.5 344,-298.5 449,-298.5 449,-268.5 344,-268.5"/>
<text text-anchor="start" x="352" y="-286.5" font-family="Helvetica,sans-Serif" font-size="10.00">include/mini/basis</text>
<text text-anchor="middle" x="396.5" y="-275.5" font-family="Helvetica,sans-Serif" font-size="10.00">/taylor.hpp</text>
</a>
</g>
</g>
<!-- Node2 -->
<g id="node2" class="node">
<title>Node2</title>
<g id="a_node2"><a xlink:href="lagrange_8hpp.html" target="_top" xlink:title=" ">
<polygon fill="white" stroke="black" points="147,-201.5 147,-231.5 252,-231.5 252,-201.5 147,-201.5"/>
<text text-anchor="start" x="155" y="-219.5" font-family="Helvetica,sans-Serif" font-size="10.00">include/mini/basis</text>
<text text-anchor="middle" x="199.5" y="-208.5" font-family="Helvetica,sans-Serif" font-size="10.00">/lagrange.hpp</text>
</a>
</g>
</g>
<!-- Node1&#45;&gt;Node2 -->
<g id="edge1" class="edge">
<title>Node1&#45;&gt;Node2</title>
<path fill="none" stroke="midnightblue" d="M344.15,-265.23C312.28,-254.71 272.09,-241.45 242.16,-231.58"/>
<polygon fill="midnightblue" stroke="midnightblue" points="343.16,-268.59 353.75,-268.4 345.35,-261.94 343.16,-268.59"/>
</g>
<!-- Node7 -->
<g id="node7" class="node">
<title>Node7</title>
<g id="a_node7"><a xlink:href="basis_2linear_8hpp.html" target="_top" xlink:title=" ">
<polygon fill="white" stroke="black" points="408,-201.5 408,-231.5 513,-231.5 513,-201.5 408,-201.5"/>
<text text-anchor="start" x="416" y="-219.5" font-family="Helvetica,sans-Serif" font-size="10.00">include/mini/basis</text>
<text text-anchor="middle" x="460.5" y="-208.5" font-family="Helvetica,sans-Serif" font-size="10.00">/linear.hpp</text>
</a>
</g>
</g>
<!-- Node1&#45;&gt;Node7 -->
<g id="edge7" class="edge">
<title>Node1&#45;&gt;Node7</title>
<path fill="none" stroke="midnightblue" d="M417.65,-261.02C427.18,-251.34 438.17,-240.17 446.64,-231.58"/>
<polygon fill="midnightblue" stroke="midnightblue" points="414.91,-258.81 410.39,-268.4 419.9,-263.73 414.91,-258.81"/>
</g>
<!-- Node10 -->
<g id="node10" class="node">
<title>Node10</title>
<g id="a_node10"><a xlink:href="reconstruct_8hpp.html" target="_top" xlink:title=" ">
<polygon fill="white" stroke="black" points="277.5,-201.5 277.5,-231.5 389.5,-231.5 389.5,-201.5 277.5,-201.5"/>
<text text-anchor="start" x="285.5" y="-219.5" font-family="Helvetica,sans-Serif" font-size="10.00">include/mini/limiter</text>
<text text-anchor="middle" x="333.5" y="-208.5" font-family="Helvetica,sans-Serif" font-size="10.00">/reconstruct.hpp</text>
</a>
</g>
</g>
<!-- Node1&#45;&gt;Node10 -->
<g id="edge10" class="edge">
<title>Node1&#45;&gt;Node10</title>
<path fill="none" stroke="midnightblue" d="M375.69,-261.02C366.3,-251.34 355.48,-240.17 347.14,-231.58"/>
<polygon fill="midnightblue" stroke="midnightblue" points="373.36,-263.65 382.83,-268.4 378.38,-258.78 373.36,-263.65"/>
</g>
<!-- Node13 -->
<g id="node13" class="node">
<title>Node13</title>
<g id="a_node13"><a xlink:href="weno_8hpp.html" target="_top" xlink:title=" ">
<polygon fill="white" stroke="black" points="531.5,-201.5 531.5,-231.5 643.5,-231.5 643.5,-201.5 531.5,-201.5"/>
<text text-anchor="start" x="539.5" y="-219.5" font-family="Helvetica,sans-Serif" font-size="10.00">include/mini/limiter</text>
<text text-anchor="middle" x="587.5" y="-208.5" font-family="Helvetica,sans-Serif" font-size="10.00">/weno.hpp</text>
</a>
</g>
</g>
<!-- Node1&#45;&gt;Node13 -->
<g id="edge14" class="edge">
<title>Node1&#45;&gt;Node13</title>
<path fill="none" stroke="midnightblue" d="M447.65,-265.09C478.49,-254.6 517.25,-241.41 546.14,-231.58"/>
<polygon fill="midnightblue" stroke="midnightblue" points="446.28,-261.86 437.94,-268.4 448.54,-268.49 446.28,-261.86"/>
</g>
<!-- Node3 -->
<g id="node3" class="node">
<title>Node3</title>
<g id="a_node3"><a xlink:href="polynomial_2hexahedron_8hpp.html" target="_top" xlink:title=" ">
<polygon fill="white" stroke="black" points="59.5,-134.5 59.5,-164.5 193.5,-164.5 193.5,-134.5 59.5,-134.5"/>
<text text-anchor="start" x="67.5" y="-152.5" font-family="Helvetica,sans-Serif" font-size="10.00">include/mini/polynomial</text>
<text text-anchor="middle" x="126.5" y="-141.5" font-family="Helvetica,sans-Serif" font-size="10.00">/hexahedron.hpp</text>
</a>
</g>
</g>
<!-- Node2&#45;&gt;Node3 -->
<g id="edge2" class="edge">
<title>Node2&#45;&gt;Node3</title>
<path fill="none" stroke="midnightblue" d="M176.03,-194.6C165,-184.78 152.16,-173.34 142.31,-164.58"/>
<polygon fill="midnightblue" stroke="midnightblue" points="173.86,-197.36 183.66,-201.4 178.52,-192.13 173.86,-197.36"/>
</g>
<!-- Node4 -->
<g id="node4" class="node">
<title>Node4</title>
<g id="a_node4"><a xlink:href="spatial_2dg_2lobatto_8hpp.html" target="_top" xlink:title=" ">
<polygon fill="white" stroke="black" points="198,-67.5 198,-97.5 311,-97.5 311,-67.5 198,-67.5"/>
<text text-anchor="start" x="206" y="-85.5" font-family="Helvetica,sans-Serif" font-size="10.00">include/mini/spatial</text>
<text text-anchor="middle" x="254.5" y="-74.5" font-family="Helvetica,sans-Serif" font-size="10.00">/dg/lobatto.hpp</text>
</a>
</g>
</g>
<!-- Node3&#45;&gt;Node4 -->
<g id="edge3" class="edge">
<title>Node3&#45;&gt;Node4</title>
<path fill="none" stroke="midnightblue" d="M163.22,-129.85C183.46,-119.58 208.17,-107.03 226.78,-97.58"/>
<polygon fill="midnightblue" stroke="midnightblue" points="161.61,-126.75 154.27,-134.4 164.78,-132.99 161.61,-126.75"/>
</g>
<!-- Node5 -->
<g id="node5" class="node">
<title>Node5</title>
<g id="a_node5"><a xlink:href="fr_2general_8hpp.html" target="_top" xlink:title=" ">
<polygon fill="white" stroke="black" points="0,-67.5 0,-97.5 113,-97.5 113,-67.5 0,-67.5"/>
<text text-anchor="start" x="8" y="-85.5" font-family="Helvetica,sans-Serif" font-size="10.00">include/mini/spatial</text>
<text text-anchor="middle" x="56.5" y="-74.5" font-family="Helvetica,sans-Serif" font-size="10.00">/fr/general.hpp</text>
</a>
</g>
</g>
<!-- Node3&#45;&gt;Node5 -->
<g id="edge4" class="edge">
<title>Node3&#45;&gt;Node5</title>
<path fill="none" stroke="midnightblue" d="M103.68,-127.31C93.18,-117.56 81.01,-106.26 71.66,-97.58"/>
<polygon fill="midnightblue" stroke="midnightblue" points="101.6,-130.16 111.31,-134.4 106.36,-125.03 101.6,-130.16"/>
</g>
<!-- Node6 -->
<g id="node6" class="node">
<title>Node6</title>
<g id="a_node6"><a xlink:href="spatial_2fr_2lobatto_8hpp.html" target="_top" xlink:title=" ">
<polygon fill="white" stroke="black" points="42,-0.5 42,-30.5 155,-30.5 155,-0.5 42,-0.5"/>
<text text-anchor="start" x="50" y="-18.5" font-family="Helvetica,sans-Serif" font-size="10.00">include/mini/spatial</text>
<text text-anchor="middle" x="98.5" y="-7.5" font-family="Helvetica,sans-Serif" font-size="10.00">/fr/lobatto.hpp</text>
</a>
</g>
</g>
<!-- Node3&#45;&gt;Node6 -->
<g id="edge6" class="edge">
<title>Node3&#45;&gt;Node6</title>
<path fill="none" stroke="midnightblue" d="M127.31,-124.08C127.29,-107.7 126.18,-85.78 121.5,-67 118.28,-54.1 111.85,-40.43 106.61,-30.57"/>
<polygon fill="midnightblue" stroke="midnightblue" points="123.8,-124.38 127.18,-134.42 130.8,-124.47 123.8,-124.38"/>
</g>
<!-- Node5&#45;&gt;Node6 -->
<g id="edge5" class="edge">
<title>Node5&#45;&gt;Node6</title>
<path fill="none" stroke="midnightblue" d="M71.12,-58.87C77.2,-49.46 84.07,-38.83 89.4,-30.58"/>
<polygon fill="midnightblue" stroke="midnightblue" points="68.1,-57.1 65.61,-67.4 73.98,-60.9 68.1,-57.1"/>
</g>
<!-- Node8 -->
<g id="node8" class="node">
<title>Node8</title>
<g id="a_node8"><a xlink:href="projection_8hpp.html" target="_top" xlink:title=" ">
<polygon fill="white" stroke="black" points="474.5,-134.5 474.5,-164.5 608.5,-164.5 608.5,-134.5 474.5,-134.5"/>
<text text-anchor="start" x="482.5" y="-152.5" font-family="Helvetica,sans-Serif" font-size="10.00">include/mini/polynomial</text>
<text text-anchor="middle" x="541.5" y="-141.5" font-family="Helvetica,sans-Serif" font-size="10.00">/projection.hpp</text>
</a>
</g>
</g>
<!-- Node7&#45;&gt;Node8 -->
<g id="edge8" class="edge">
<title>Node7&#45;&gt;Node8</title>
<path fill="none" stroke="midnightblue" d="M486.19,-194.88C498.5,-185.01 512.93,-173.43 523.96,-164.58"/>
<polygon fill="midnightblue" stroke="midnightblue" points="483.68,-192.41 478.08,-201.4 488.07,-197.87 483.68,-192.41"/>
</g>
<!-- Node9 -->
<g id="node9" class="node">
<title>Node9</title>
<g id="a_node9"><a xlink:href="extrapolation_8hpp.html" target="_top" xlink:title=" ">
<polygon fill="white" stroke="black" points="474.5,-67.5 474.5,-97.5 608.5,-97.5 608.5,-67.5 474.5,-67.5"/>
<text text-anchor="start" x="482.5" y="-85.5" font-family="Helvetica,sans-Serif" font-size="10.00">include/mini/polynomial</text>
<text text-anchor="middle" x="541.5" y="-74.5" font-family="Helvetica,sans-Serif" font-size="10.00">/extrapolation.hpp</text>
</a>
</g>
</g>
<!-- Node8&#45;&gt;Node9 -->
<g id="edge9" class="edge">
<title>Node8&#45;&gt;Node9</title>
<path fill="none" stroke="midnightblue" d="M541.5,-124.11C541.5,-115.15 541.5,-105.32 541.5,-97.58"/>
<polygon fill="midnightblue" stroke="midnightblue" points="538,-124.4 541.5,-134.4 545,-124.4 538,-124.4"/>
</g>
<!-- Node11 -->
<g id="node11" class="node">
<title>Node11</title>
<g id="a_node11"><a xlink:href="dg_2general_8hpp.html" target="_top" xlink:title=" ">
<polygon fill="white" stroke="black" points="212,-134.5 212,-164.5 325,-164.5 325,-134.5 212,-134.5"/>
<text text-anchor="start" x="220" y="-152.5" font-family="Helvetica,sans-Serif" font-size="10.00">include/mini/spatial</text>
<text text-anchor="middle" x="268.5" y="-141.5" font-family="Helvetica,sans-Serif" font-size="10.00">/dg/general.hpp</text>
</a>
</g>
</g>
<!-- Node10&#45;&gt;Node11 -->
<g id="edge11" class="edge">
<title>Node10&#45;&gt;Node11</title>
<path fill="none" stroke="midnightblue" d="M312.31,-194.31C302.56,-184.56 291.26,-173.26 282.58,-164.58"/>
<polygon fill="midnightblue" stroke="midnightblue" points="309.85,-196.8 319.4,-201.4 314.8,-191.85 309.85,-196.8"/>
</g>
<!-- Node12 -->
<g id="node12" class="node">
<title>Node12</title>
<g id="a_node12"><a xlink:href="with__limiter_8hpp.html" target="_top" xlink:title=" ">
<polygon fill="white" stroke="black" points="343,-134.5 343,-164.5 456,-164.5 456,-134.5 343,-134.5"/>
<text text-anchor="start" x="351" y="-152.5" font-family="Helvetica,sans-Serif" font-size="10.00">include/mini/spatial</text>
<text text-anchor="middle" x="399.5" y="-141.5" font-family="Helvetica,sans-Serif" font-size="10.00">/with_limiter.hpp</text>
</a>
</g>
</g>
<!-- Node10&#45;&gt;Node12 -->
<g id="edge13" class="edge">
<title>Node10&#45;&gt;Node12</title>
<path fill="none" stroke="midnightblue" d="M355.01,-194.31C364.91,-184.56 376.39,-173.26 385.21,-164.58"/>
<polygon fill="midnightblue" stroke="midnightblue" points="352.49,-191.89 347.82,-201.4 357.4,-196.87 352.49,-191.89"/>
</g>
<!-- Node11&#45;&gt;Node4 -->
<g id="edge12" class="edge">
<title>Node11&#45;&gt;Node4</title>
<path fill="none" stroke="midnightblue" d="M263.31,-124.4C261.36,-115.37 259.22,-105.41 257.53,-97.58"/>
<polygon fill="midnightblue" stroke="midnightblue" points="259.94,-125.36 265.46,-134.4 266.78,-123.88 259.94,-125.36"/>
</g>
</g>
</svg>
