<?xml version="1.0" encoding="UTF-8" standalone="no"?>
<!DOCTYPE svg PUBLIC "-//W3C//DTD SVG 1.1//EN"
 "http://www.w3.org/Graphics/SVG/1.1/DTD/svg11.dtd">
<!-- Generated by graphviz version 2.43.0 (0)
 -->
<!-- Title: include/mini/riemann/euler/types.hpp Pages: 1 -->
<svg width="846pt" height="173pt"
 viewBox="0.00 0.00 846.00 173.00" xmlns="http://www.w3.org/2000/svg" xmlns:xlink="http://www.w3.org/1999/xlink">
<g id="graph0" class="graph" transform="scale(1 1) rotate(0) translate(4 169)">
<title>include/mini/riemann/euler/types.hpp</title>
<polygon fill="white" stroke="transparent" points="-4,4 -4,-169 842,-169 842,4 -4,4"/>
<!-- Node1 -->
<g id="node1" class="node">
<title>Node1</title>
<g id="a_node1"><a xlink:title=" ">
<polygon fill="#bfbfbf" stroke="black" points="373,-134.5 373,-164.5 493,-164.5 493,-134.5 373,-134.5"/>
<text text-anchor="start" x="381" y="-152.5" font-family="Helvetica,sans-Serif" font-size="10.00">include/mini/riemann</text>
<text text-anchor="middle" x="433" y="-141.5" font-family="Helvetica,sans-Serif" font-size="10.00">/euler/types.hpp</text>
</a>
</g>
</g>
<!-- Node2 -->
<g id="node2" class="node">
<title>Node2</title>
<g id="a_node2"><a xlink:href="source_8hpp.html" target="_top" xlink:title=" ">
<polygon fill="white" stroke="black" points="0,-67.5 0,-97.5 114,-97.5 114,-67.5 0,-67.5"/>
<text text-anchor="start" x="8" y="-85.5" font-family="Helvetica,sans-Serif" font-size="10.00">include/mini/aircraft</text>
<text text-anchor="middle" x="57" y="-74.5" font-family="Helvetica,sans-Serif" font-size="10.00">/source.hpp</text>
</a>
</g>
</g>
<!-- Node1&#45;&gt;Node2 -->
<g id="edge1" class="edge">
<title>Node1&#45;&gt;Node2</title>
<path fill="none" stroke="midnightblue" d="M362.56,-138.04C299.81,-128.47 205.57,-113.48 124,-98 120.84,-97.4 117.61,-96.77 114.34,-96.11"/>
<polygon fill="midnightblue" stroke="midnightblue" points="362.32,-141.54 372.74,-139.58 363.38,-134.62 362.32,-141.54"/>
</g>
<!-- Node3 -->
<g id="node3" class="node">
<title>Node3</title>
<g id="a_node3"><a xlink:href="navier__stokes_8hpp.html" target="_top" xlink:title=" ">
<polygon fill="white" stroke="black" points="132.5,-67.5 132.5,-97.5 285.5,-97.5 285.5,-67.5 132.5,-67.5"/>
<text text-anchor="start" x="140.5" y="-85.5" font-family="Helvetica,sans-Serif" font-size="10.00">include/mini/riemann</text>
<text text-anchor="middle" x="209" y="-74.5" font-family="Helvetica,sans-Serif" font-size="10.00">/diffusive/navier_stokes.hpp</text>
</a>
</g>
</g>
<!-- Node1&#45;&gt;Node3 -->
<g id="edge2" class="edge">
<title>Node1&#45;&gt;Node3</title>
<path fill="none" stroke="midnightblue" d="M374.69,-131.58C338.31,-121.02 292.03,-107.59 257.63,-97.61"/>
<polygon fill="midnightblue" stroke="midnightblue" points="374.09,-135.05 384.67,-134.48 376.04,-128.33 374.09,-135.05"/>
</g>
<!-- Node4 -->
<g id="node4" class="node">
<title>Node4</title>
<g id="a_node4"><a xlink:href="ausm_8hpp.html" target="_top" xlink:title=" ">
<polygon fill="white" stroke="black" points="304,-67.5 304,-97.5 424,-97.5 424,-67.5 304,-67.5"/>
<text text-anchor="start" x="312" y="-85.5" font-family="Helvetica,sans-Serif" font-size="10.00">include/mini/riemann</text>
<text text-anchor="middle" x="364" y="-74.5" font-family="Helvetica,sans-Serif" font-size="10.00">/euler/ausm.hpp</text>
</a>
</g>
</g>
<!-- Node1&#45;&gt;Node4 -->
<g id="edge3" class="edge">
<title>Node1&#45;&gt;Node4</title>
<path fill="none" stroke="midnightblue" d="M410.51,-127.31C400.16,-117.56 388.16,-106.26 378.94,-97.58"/>
<polygon fill="midnightblue" stroke="midnightblue" points="408.35,-130.09 418.03,-134.4 413.15,-124.99 408.35,-130.09"/>
</g>
<!-- Node5 -->
<g id="node5" class="node">
<title>Node5</title>
<g id="a_node5"><a xlink:href="riemann_2euler_2eigen_8hpp.html" target="_top" xlink:title=" ">
<polygon fill="white" stroke="black" points="442,-67.5 442,-97.5 562,-97.5 562,-67.5 442,-67.5"/>
<text text-anchor="start" x="450" y="-85.5" font-family="Helvetica,sans-Serif" font-size="10.00">include/mini/riemann</text>
<text text-anchor="middle" x="502" y="-74.5" font-family="Helvetica,sans-Serif" font-size="10.00">/euler/eigen.hpp</text>
</a>
</g>
</g>
<!-- Node1&#45;&gt;Node5 -->
<g id="edge4" class="edge">
<title>Node1&#45;&gt;Node5</title>
<path fill="none" stroke="midnightblue" d="M455.49,-127.31C465.84,-117.56 477.84,-106.26 487.06,-97.58"/>
<polygon fill="midnightblue" stroke="midnightblue" points="452.85,-124.99 447.97,-134.4 457.65,-130.09 452.85,-124.99"/>
</g>
<!-- Node7 -->
<g id="node7" class="node">
<title>Node7</title>
<g id="a_node7"><a xlink:href="exact_8hpp.html" target="_top" xlink:title=" ">
<polygon fill="white" stroke="black" points="580,-67.5 580,-97.5 700,-97.5 700,-67.5 580,-67.5"/>
<text text-anchor="start" x="588" y="-85.5" font-family="Helvetica,sans-Serif" font-size="10.00">include/mini/riemann</text>
<text text-anchor="middle" x="640" y="-74.5" font-family="Helvetica,sans-Serif" font-size="10.00">/euler/exact.hpp</text>
</a>
</g>
</g>
<!-- Node1&#45;&gt;Node7 -->
<g id="edge6" class="edge">
<title>Node1&#45;&gt;Node7</title>
<path fill="none" stroke="midnightblue" d="M487.32,-131.44C520.87,-120.91 563.41,-107.55 595.06,-97.61"/>
<polygon fill="midnightblue" stroke="midnightblue" points="486.15,-128.14 477.66,-134.48 488.25,-134.82 486.15,-128.14"/>
</g>
<!-- Node8 -->
<g id="node8" class="node">
<title>Node8</title>
<g id="a_node8"><a xlink:href="hllc_8hpp.html" target="_top" xlink:title=" ">
<polygon fill="white" stroke="black" points="718,-67.5 718,-97.5 838,-97.5 838,-67.5 718,-67.5"/>
<text text-anchor="start" x="726" y="-85.5" font-family="Helvetica,sans-Serif" font-size="10.00">include/mini/riemann</text>
<text text-anchor="middle" x="778" y="-74.5" font-family="Helvetica,sans-Serif" font-size="10.00">/euler/hllc.hpp</text>
</a>
</g>
</g>
<!-- Node1&#45;&gt;Node8 -->
<g id="edge7" class="edge">
<title>Node1&#45;&gt;Node8</title>
<path fill="none" stroke="midnightblue" d="M503.25,-136.17C559.09,-126.24 639.14,-111.73 709,-98 711.88,-97.43 714.83,-96.85 717.81,-96.25"/>
<polygon fill="midnightblue" stroke="midnightblue" points="502.35,-132.77 493.12,-137.97 503.57,-139.67 502.35,-132.77"/>
</g>
<!-- Node6 -->
<g id="node6" class="node">
<title>Node6</title>
<g id="a_node6"><a xlink:href="euler_8hpp.html" target="_top" xlink:title=" ">
<polygon fill="white" stroke="black" points="442,-0.5 442,-30.5 562,-30.5 562,-0.5 442,-0.5"/>
<text text-anchor="start" x="450" y="-18.5" font-family="Helvetica,sans-Serif" font-size="10.00">include/mini/riemann</text>
<text text-anchor="middle" x="502" y="-7.5" font-family="Helvetica,sans-Serif" font-size="10.00">/rotated/euler.hpp</text>
</a>
</g>
</g>
<!-- Node5&#45;&gt;Node6 -->
<g id="edge5" class="edge">
<title>Node5&#45;&gt;Node6</title>
<path fill="none" stroke="midnightblue" d="M502,-57.11C502,-48.15 502,-38.32 502,-30.58"/>
<polygon fill="midnightblue" stroke="midnightblue" points="498.5,-57.4 502,-67.4 505.5,-57.4 498.5,-57.4"/>
</g>
</g>
</svg>
