<?xml version="1.0" encoding="UTF-8" standalone="no"?>
<!DOCTYPE svg PUBLIC "-//W3C//DTD SVG 1.1//EN"
 "http://www.w3.org/Graphics/SVG/1.1/DTD/svg11.dtd">
<!-- Generated by graphviz version 2.43.0 (0)
 -->
<!-- Title: include/mini/riemann/euler/types.hpp Pages: 1 -->
<svg width="444pt" height="151pt"
 viewBox="0.00 0.00 444.00 151.00" xmlns="http://www.w3.org/2000/svg" xmlns:xlink="http://www.w3.org/1999/xlink">
<g id="graph0" class="graph" transform="scale(1 1) rotate(0) translate(4 147)">
<title>include/mini/riemann/euler/types.hpp</title>
<polygon fill="white" stroke="transparent" points="-4,4 -4,-147 440,-147 440,4 -4,4"/>
<!-- Node1 -->
<g id="node1" class="node">
<title>Node1</title>
<g id="a_node1"><a xlink:title=" ">
<polygon fill="#bfbfbf" stroke="black" points="98,-112.5 98,-142.5 218,-142.5 218,-112.5 98,-112.5"/>
<text text-anchor="start" x="106" y="-130.5" font-family="Helvetica,sans-Serif" font-size="10.00">include/mini/riemann</text>
<text text-anchor="middle" x="158" y="-119.5" font-family="Helvetica,sans-Serif" font-size="10.00">/euler/types.hpp</text>
</a>
</g>
</g>
<!-- Node2 -->
<g id="node2" class="node">
<title>Node2</title>
<g id="a_node2"><a xlink:title=" ">
<polygon fill="white" stroke="#bfbfbf" points="0,-56.5 0,-75.5 60,-75.5 60,-56.5 0,-56.5"/>
<text text-anchor="middle" x="30" y="-63.5" font-family="Helvetica,sans-Serif" font-size="10.00">concepts</text>
</a>
</g>
</g>
<!-- Node1&#45;&gt;Node2 -->
<g id="edge1" class="edge">
<title>Node1&#45;&gt;Node2</title>
<path fill="none" stroke="midnightblue" d="M127.67,-112.4C106.48,-102.55 78.41,-89.5 57.8,-79.92"/>
<polygon fill="midnightblue" stroke="midnightblue" points="59.17,-76.7 48.63,-75.66 56.22,-83.05 59.17,-76.7"/>
</g>
<!-- Node3 -->
<g id="node3" class="node">
<title>Node3</title>
<g id="a_node3"><a xlink:title=" ">
<polygon fill="white" stroke="#bfbfbf" points="78,-56.5 78,-75.5 130,-75.5 130,-56.5 78,-56.5"/>
<text text-anchor="middle" x="104" y="-63.5" font-family="Helvetica,sans-Serif" font-size="10.00">cassert</text>
</a>
</g>
</g>
<!-- Node1&#45;&gt;Node3 -->
<g id="edge2" class="edge">
<title>Node1&#45;&gt;Node3</title>
<path fill="none" stroke="midnightblue" d="M145.2,-112.4C137.28,-103.66 127.06,-92.41 118.79,-83.3"/>
<polygon fill="midnightblue" stroke="midnightblue" points="121.17,-80.71 111.86,-75.66 115.99,-85.42 121.17,-80.71"/>
</g>
<!-- Node4 -->
<g id="node4" class="node">
<title>Node4</title>
<g id="a_node4"><a xlink:title=" ">
<polygon fill="white" stroke="#bfbfbf" points="140.5,-0.5 140.5,-19.5 187.5,-19.5 187.5,-0.5 140.5,-0.5"/>
<text text-anchor="middle" x="164" y="-7.5" font-family="Helvetica,sans-Serif" font-size="10.00">cmath</text>
</a>
</g>
</g>
<!-- Node1&#45;&gt;Node4 -->
<g id="edge3" class="edge">
<title>Node1&#45;&gt;Node4</title>
<path fill="none" stroke="midnightblue" d="M158.74,-112.34C159.81,-91.62 161.82,-53.02 163.02,-29.9"/>
<polygon fill="midnightblue" stroke="midnightblue" points="166.53,-29.84 163.55,-19.67 159.54,-29.47 166.53,-29.84"/>
</g>
<!-- Node5 -->
<g id="node5" class="node">
<title>Node5</title>
<g id="a_node5"><a xlink:title=" ">
<polygon fill="white" stroke="#bfbfbf" points="186,-56.5 186,-75.5 236,-75.5 236,-56.5 186,-56.5"/>
<text text-anchor="middle" x="211" y="-63.5" font-family="Helvetica,sans-Serif" font-size="10.00">cstring</text>
</a>
</g>
</g>
<!-- Node1&#45;&gt;Node5 -->
<g id="edge4" class="edge">
<title>Node1&#45;&gt;Node5</title>
<path fill="none" stroke="midnightblue" d="M170.56,-112.4C178.34,-103.66 188.36,-92.41 196.48,-83.3"/>
<polygon fill="midnightblue" stroke="midnightblue" points="199.25,-85.45 203.29,-75.66 194.02,-80.8 199.25,-85.45"/>
</g>
<!-- Node6 -->
<g id="node6" class="node">
<title>Node6</title>
<g id="a_node6"><a xlink:href="algebra_2eigen_8hpp.html" target="_top" xlink:title=" ">
<polygon fill="white" stroke="black" points="254.5,-56.5 254.5,-75.5 383.5,-75.5 383.5,-56.5 254.5,-56.5"/>
<text text-anchor="middle" x="319" y="-63.5" font-family="Helvetica,sans-Serif" font-size="10.00">mini/algebra/eigen.hpp</text>
</a>
</g>
</g>
<!-- Node1&#45;&gt;Node6 -->
<g id="edge5" class="edge">
<title>Node1&#45;&gt;Node6</title>
<path fill="none" stroke="midnightblue" d="M196.15,-112.4C223.53,-102.28 260.04,-88.79 286.13,-79.15"/>
<polygon fill="midnightblue" stroke="midnightblue" points="287.41,-82.41 295.57,-75.66 284.98,-75.84 287.41,-82.41"/>
</g>
<!-- Node6&#45;&gt;Node4 -->
<g id="edge7" class="edge">
<title>Node6&#45;&gt;Node4</title>
<path fill="none" stroke="midnightblue" d="M294.44,-56.44C268.25,-47.32 226.6,-32.81 197.43,-22.65"/>
<polygon fill="midnightblue" stroke="midnightblue" points="198.28,-19.24 187.68,-19.25 195.97,-25.85 198.28,-19.24"/>
</g>
<!-- Node7 -->
<g id="node7" class="node">
<title>Node7</title>
<g id="a_node7"><a xlink:title=" ">
<polygon fill="white" stroke="#bfbfbf" points="212,-0.5 212,-19.5 276,-19.5 276,-0.5 212,-0.5"/>
<text text-anchor="middle" x="244" y="-7.5" font-family="Helvetica,sans-Serif" font-size="10.00">algorithm</text>
</a>
</g>
</g>
<!-- Node6&#45;&gt;Node7 -->
<g id="edge6" class="edge">
<title>Node6&#45;&gt;Node7</title>
<path fill="none" stroke="midnightblue" d="M306.95,-56.32C295.54,-48.11 278.17,-35.6 264.57,-25.81"/>
<polygon fill="midnightblue" stroke="midnightblue" points="266.43,-22.84 256.27,-19.83 262.34,-28.52 266.43,-22.84"/>
</g>
<!-- Node8 -->
<g id="node8" class="node">
<title>Node8</title>
<g id="a_node8"><a xlink:title=" ">
<polygon fill="white" stroke="#bfbfbf" points="294.5,-0.5 294.5,-19.5 343.5,-19.5 343.5,-0.5 294.5,-0.5"/>
<text text-anchor="middle" x="319" y="-7.5" font-family="Helvetica,sans-Serif" font-size="10.00">cstdlib</text>
</a>
</g>
</g>
<!-- Node6&#45;&gt;Node8 -->
<g id="edge8" class="edge">
<title>Node6&#45;&gt;Node8</title>
<path fill="none" stroke="midnightblue" d="M319,-56.08C319,-49.01 319,-38.86 319,-29.99"/>
<polygon fill="midnightblue" stroke="midnightblue" points="322.5,-29.75 319,-19.75 315.5,-29.75 322.5,-29.75"/>
</g>
<!-- Node9 -->
<g id="node9" class="node">
<title>Node9</title>
<g id="a_node9"><a xlink:title=" ">
<polygon fill="white" stroke="#bfbfbf" points="362,-0.5 362,-19.5 436,-19.5 436,-0.5 362,-0.5"/>
<text text-anchor="middle" x="399" y="-7.5" font-family="Helvetica,sans-Serif" font-size="10.00">Eigen/Eigen</text>
</a>
</g>
</g>
<!-- Node6&#45;&gt;Node9 -->
<g id="edge9" class="edge">
<title>Node6&#45;&gt;Node9</title>
<path fill="none" stroke="midnightblue" d="M331.85,-56.32C344.22,-47.98 363.13,-35.21 377.74,-25.35"/>
<polygon fill="midnightblue" stroke="midnightblue" points="379.85,-28.15 386.18,-19.65 375.93,-22.35 379.85,-28.15"/>
</g>
</g>
</svg>
