<?xml version="1.0" encoding="UTF-8" standalone="no"?>
<!DOCTYPE svg PUBLIC "-//W3C//DTD SVG 1.1//EN"
 "http://www.w3.org/Graphics/SVG/1.1/DTD/svg11.dtd">
<!-- Generated by graphviz version 2.43.0 (0)
 -->
<!-- Title: include/mini/spatial/viscosity.hpp Pages: 1 -->
<svg width="1512pt" height="274pt"
 viewBox="0.00 0.00 1512.44 274.00" xmlns="http://www.w3.org/2000/svg" xmlns:xlink="http://www.w3.org/1999/xlink">
<g id="graph0" class="graph" transform="scale(1 1) rotate(0) translate(4 270)">
<title>include/mini/spatial/viscosity.hpp</title>
<polygon fill="white" stroke="transparent" points="-4,4 -4,-270 1508.44,-270 1508.44,4 -4,4"/>
<!-- Node1 -->
<g id="node1" class="node">
<title>Node1</title>
<g id="a_node1"><a xlink:title=" ">
<polygon fill="#bfbfbf" stroke="black" points="705.91,-235.5 705.91,-265.5 818.91,-265.5 818.91,-235.5 705.91,-235.5"/>
<text text-anchor="start" x="713.91" y="-253.5" font-family="Helvetica,sans-Serif" font-size="10.00">include/mini/spatial</text>
<text text-anchor="middle" x="762.41" y="-242.5" font-family="Helvetica,sans-Serif" font-size="10.00">/viscosity.hpp</text>
</a>
</g>
</g>
<!-- Node2 -->
<g id="node2" class="node">
<title>Node2</title>
<g id="a_node2"><a xlink:title=" ">
<polygon fill="white" stroke="#bfbfbf" points="156.41,-56.5 156.41,-75.5 216.41,-75.5 216.41,-56.5 156.41,-56.5"/>
<text text-anchor="middle" x="186.41" y="-63.5" font-family="Helvetica,sans-Serif" font-size="10.00">concepts</text>
</a>
</g>
</g>
<!-- Node1&#45;&gt;Node2 -->
<g id="edge1" class="edge">
<title>Node1&#45;&gt;Node2</title>
<path fill="none" stroke="midnightblue" d="M705.7,-248.45C568.99,-245.37 224.5,-234.24 115.41,-199 60.94,-181.4 33.45,-181.91 5.41,-132 -24.89,-78.07 83.48,-68.15 145.67,-66.79"/>
<polygon fill="midnightblue" stroke="midnightblue" points="146.01,-70.29 155.96,-66.64 145.91,-63.29 146.01,-70.29"/>
</g>
<!-- Node3 -->
<g id="node3" class="node">
<title>Node3</title>
<g id="a_node3"><a xlink:title=" ">
<polygon fill="white" stroke="#bfbfbf" points="1047.41,-0.5 1047.41,-19.5 1111.41,-19.5 1111.41,-0.5 1047.41,-0.5"/>
<text text-anchor="middle" x="1079.41" y="-7.5" font-family="Helvetica,sans-Serif" font-size="10.00">algorithm</text>
</a>
</g>
</g>
<!-- Node1&#45;&gt;Node3 -->
<g id="edge2" class="edge">
<title>Node1&#45;&gt;Node3</title>
<path fill="none" stroke="midnightblue" d="M819.33,-241.8C859.81,-234.7 914.57,-221.7 958.41,-199 999.29,-177.83 1011.38,-169.98 1037.41,-132 1059.54,-99.71 1071.09,-54.61 1076.15,-29.59"/>
<polygon fill="midnightblue" stroke="midnightblue" points="1079.62,-30.1 1078.03,-19.62 1072.74,-28.8 1079.62,-30.1"/>
</g>
<!-- Node4 -->
<g id="node4" class="node">
<title>Node4</title>
<g id="a_node4"><a xlink:title=" ">
<polygon fill="white" stroke="#bfbfbf" points="749.41,-56.5 749.41,-75.5 801.41,-75.5 801.41,-56.5 749.41,-56.5"/>
<text text-anchor="middle" x="775.41" y="-63.5" font-family="Helvetica,sans-Serif" font-size="10.00">cassert</text>
</a>
</g>
</g>
<!-- Node1&#45;&gt;Node4 -->
<g id="edge3" class="edge">
<title>Node1&#45;&gt;Node4</title>
<path fill="none" stroke="midnightblue" d="M807.63,-235.49C890.17,-208.77 1053.97,-149.84 1022.41,-112 996.01,-80.36 873.89,-70.91 811.82,-68.13"/>
<polygon fill="midnightblue" stroke="midnightblue" points="811.82,-64.63 801.69,-67.71 811.53,-71.62 811.82,-64.63"/>
</g>
<!-- Node5 -->
<g id="node5" class="node">
<title>Node5</title>
<g id="a_node5"><a xlink:title=" ">
<polygon fill="white" stroke="#bfbfbf" points="1164.91,-0.5 1164.91,-19.5 1211.91,-19.5 1211.91,-0.5 1164.91,-0.5"/>
<text text-anchor="middle" x="1188.41" y="-7.5" font-family="Helvetica,sans-Serif" font-size="10.00">cmath</text>
</a>
</g>
</g>
<!-- Node1&#45;&gt;Node5 -->
<g id="edge4" class="edge">
<title>Node1&#45;&gt;Node5</title>
<path fill="none" stroke="midnightblue" d="M819.11,-249.38C913.22,-248.01 1096.03,-239.98 1143.41,-199 1193.1,-156.02 1193.11,-68.85 1190.36,-30.2"/>
<polygon fill="midnightblue" stroke="midnightblue" points="1193.82,-29.52 1189.47,-19.86 1186.84,-30.12 1193.82,-29.52"/>
</g>
<!-- Node6 -->
<g id="node6" class="node">
<title>Node6</title>
<g id="a_node6"><a xlink:title=" ">
<polygon fill="white" stroke="#bfbfbf" points="14.91,-112.5 14.91,-131.5 69.91,-131.5 69.91,-112.5 14.91,-112.5"/>
<text text-anchor="middle" x="42.41" y="-119.5" font-family="Helvetica,sans-Serif" font-size="10.00">fstream</text>
</a>
</g>
</g>
<!-- Node1&#45;&gt;Node6 -->
<g id="edge5" class="edge">
<title>Node1&#45;&gt;Node6</title>
<path fill="none" stroke="midnightblue" d="M705.45,-247.28C580.36,-241.97 285.19,-226.81 189.41,-199 141.57,-185.11 91.09,-155.17 63.5,-137.29"/>
<polygon fill="midnightblue" stroke="midnightblue" points="65.34,-134.31 55.06,-131.73 61.49,-140.16 65.34,-134.31"/>
</g>
<!-- Node7 -->
<g id="node7" class="node">
<title>Node7</title>
<g id="a_node7"><a xlink:title=" ">
<polygon fill="white" stroke="#bfbfbf" points="87.91,-112.5 87.91,-131.5 152.91,-131.5 152.91,-112.5 87.91,-112.5"/>
<text text-anchor="middle" x="120.41" y="-119.5" font-family="Helvetica,sans-Serif" font-size="10.00">functional</text>
</a>
</g>
</g>
<!-- Node1&#45;&gt;Node7 -->
<g id="edge6" class="edge">
<title>Node1&#45;&gt;Node7</title>
<path fill="none" stroke="midnightblue" d="M705.81,-246.59C592.84,-240.33 343.21,-224.07 261.41,-199 215.51,-184.93 167.39,-155.27 140.92,-137.45"/>
<polygon fill="midnightblue" stroke="midnightblue" points="142.73,-134.45 132.5,-131.69 138.77,-140.22 142.73,-134.45"/>
</g>
<!-- Node8 -->
<g id="node8" class="node">
<title>Node8</title>
<g id="a_node8"><a xlink:title=" ">
<polygon fill="white" stroke="#bfbfbf" points="413.41,-174 413.41,-193 457.41,-193 457.41,-174 413.41,-174"/>
<text text-anchor="middle" x="435.41" y="-181" font-family="Helvetica,sans-Serif" font-size="10.00">limits</text>
</a>
</g>
</g>
<!-- Node1&#45;&gt;Node8 -->
<g id="edge7" class="edge">
<title>Node1&#45;&gt;Node8</title>
<path fill="none" stroke="midnightblue" d="M705.83,-243.27C646.61,-235.93 551.3,-221.75 471.41,-199 468.97,-198.31 466.47,-197.5 463.98,-196.64"/>
<polygon fill="midnightblue" stroke="midnightblue" points="465.17,-193.34 454.58,-193.09 462.7,-199.89 465.17,-193.34"/>
</g>
<!-- Node9 -->
<g id="node9" class="node">
<title>Node9</title>
<g id="a_node9"><a xlink:title=" ">
<polygon fill="white" stroke="#bfbfbf" points="171.41,-112.5 171.41,-131.5 229.41,-131.5 229.41,-112.5 171.41,-112.5"/>
<text text-anchor="middle" x="200.41" y="-119.5" font-family="Helvetica,sans-Serif" font-size="10.00">memory</text>
</a>
</g>
</g>
<!-- Node1&#45;&gt;Node9 -->
<g id="edge8" class="edge">
<title>Node1&#45;&gt;Node9</title>
<path fill="none" stroke="midnightblue" d="M705.54,-245.97C603.7,-239.14 394.39,-222.68 325.41,-199 284.3,-184.89 242.29,-155.68 218.96,-137.87"/>
<polygon fill="midnightblue" stroke="midnightblue" points="221.01,-135.03 210.97,-131.65 216.71,-140.55 221.01,-135.03"/>
</g>
<!-- Node10 -->
<g id="node10" class="node">
<title>Node10</title>
<g id="a_node10"><a xlink:title=" ">
<polygon fill="white" stroke="#bfbfbf" points="247.91,-112.5 247.91,-131.5 294.91,-131.5 294.91,-112.5 247.91,-112.5"/>
<text text-anchor="middle" x="271.41" y="-119.5" font-family="Helvetica,sans-Serif" font-size="10.00">vector</text>
</a>
</g>
</g>
<!-- Node1&#45;&gt;Node10 -->
<g id="edge9" class="edge">
<title>Node1&#45;&gt;Node10</title>
<path fill="none" stroke="midnightblue" d="M705.69,-249.88C630,-248.62 492.9,-240.14 384.41,-199 346.91,-184.78 309.49,-156.04 288.51,-138.26"/>
<polygon fill="midnightblue" stroke="midnightblue" points="290.67,-135.5 280.82,-131.6 286.09,-140.79 290.67,-135.5"/>
</g>
<!-- Node11 -->
<g id="node11" class="node">
<title>Node11</title>
<g id="a_node11"><a xlink:title=" ">
<polygon fill="white" stroke="#bfbfbf" points="513.91,-112.5 513.91,-131.5 578.91,-131.5 578.91,-112.5 513.91,-112.5"/>
<text text-anchor="middle" x="546.41" y="-119.5" font-family="Helvetica,sans-Serif" font-size="10.00">stdexcept</text>
</a>
</g>
</g>
<!-- Node1&#45;&gt;Node11 -->
<g id="edge10" class="edge">
<title>Node1&#45;&gt;Node11</title>
<path fill="none" stroke="midnightblue" d="M705.65,-246.98C665.47,-242.37 612.67,-230.24 577.41,-199 560.7,-184.19 552.83,-159.04 549.24,-141.76"/>
<polygon fill="midnightblue" stroke="midnightblue" points="552.65,-140.95 547.45,-131.72 545.76,-142.18 552.65,-140.95"/>
</g>
<!-- Node12 -->
<g id="node12" class="node">
<title>Node12</title>
<g id="a_node12"><a xlink:title=" ">
<polygon fill="white" stroke="#bfbfbf" points="857.41,-112.5 857.41,-131.5 901.41,-131.5 901.41,-112.5 857.41,-112.5"/>
<text text-anchor="middle" x="879.41" y="-119.5" font-family="Helvetica,sans-Serif" font-size="10.00">string</text>
</a>
</g>
</g>
<!-- Node1&#45;&gt;Node12 -->
<g id="edge11" class="edge">
<title>Node1&#45;&gt;Node12</title>
<path fill="none" stroke="midnightblue" d="M775.38,-235.48C797.19,-211.9 841.09,-164.43 864.27,-139.36"/>
<polygon fill="midnightblue" stroke="midnightblue" points="867.06,-141.51 871.28,-131.79 861.92,-136.75 867.06,-141.51"/>
</g>
<!-- Node13 -->
<g id="node13" class="node">
<title>Node13</title>
<g id="a_node13"><a xlink:title=" ">
<polygon fill="white" stroke="#bfbfbf" points="450.91,-56.5 450.91,-75.5 519.91,-75.5 519.91,-56.5 450.91,-56.5"/>
<text text-anchor="middle" x="485.41" y="-63.5" font-family="Helvetica,sans-Serif" font-size="10.00">type_traits</text>
</a>
</g>
</g>
<!-- Node1&#45;&gt;Node13 -->
<g id="edge12" class="edge">
<title>Node1&#45;&gt;Node13</title>
<path fill="none" stroke="midnightblue" d="M705.73,-246.16C661.38,-241.21 599.83,-229.01 554.41,-199 514.43,-172.58 496.17,-115.24 489.14,-85.59"/>
<polygon fill="midnightblue" stroke="midnightblue" points="492.53,-84.72 486.97,-75.7 485.7,-86.22 492.53,-84.72"/>
</g>
<!-- Node14 -->
<g id="node14" class="node">
<title>Node14</title>
<g id="a_node14"><a xlink:title=" ">
<polygon fill="white" stroke="#bfbfbf" points="919.91,-112.5 919.91,-131.5 1012.91,-131.5 1012.91,-112.5 919.91,-112.5"/>
<text text-anchor="middle" x="966.41" y="-119.5" font-family="Helvetica,sans-Serif" font-size="10.00">unordered_map</text>
</a>
</g>
</g>
<!-- Node1&#45;&gt;Node14 -->
<g id="edge13" class="edge">
<title>Node1&#45;&gt;Node14</title>
<path fill="none" stroke="midnightblue" d="M785.02,-235.48C824.3,-211.12 904.69,-161.27 943.9,-136.96"/>
<polygon fill="midnightblue" stroke="midnightblue" points="945.84,-139.87 952.49,-131.63 942.15,-133.93 945.84,-139.87"/>
</g>
<!-- Node15 -->
<g id="node15" class="node">
<title>Node15</title>
<g id="a_node15"><a xlink:title=" ">
<polygon fill="white" stroke="#bfbfbf" points="1107.91,-112.5 1107.91,-131.5 1152.91,-131.5 1152.91,-112.5 1107.91,-112.5"/>
<text text-anchor="middle" x="1130.41" y="-119.5" font-family="Helvetica,sans-Serif" font-size="10.00">utility</text>
</a>
</g>
</g>
<!-- Node1&#45;&gt;Node15 -->
<g id="edge14" class="edge">
<title>Node1&#45;&gt;Node15</title>
<path fill="none" stroke="midnightblue" d="M818.99,-249.88C910.25,-249.19 1083.84,-242.07 1124.41,-199 1138.63,-183.9 1137.69,-158.82 1134.82,-141.63"/>
<polygon fill="midnightblue" stroke="midnightblue" points="1138.22,-140.76 1132.8,-131.65 1131.35,-142.15 1138.22,-140.76"/>
</g>
<!-- Node16 -->
<g id="node16" class="node">
<title>Node16</title>
<g id="a_node16"><a xlink:title=" ">
<polygon fill="white" stroke="#bfbfbf" points="1059.41,-174 1059.41,-193 1115.41,-193 1115.41,-174 1059.41,-174"/>
<text text-anchor="middle" x="1087.41" y="-181" font-family="Helvetica,sans-Serif" font-size="10.00">iomanip</text>
</a>
</g>
</g>
<!-- Node1&#45;&gt;Node16 -->
<g id="edge15" class="edge">
<title>Node1&#45;&gt;Node16</title>
<path fill="none" stroke="midnightblue" d="M819.08,-242.04C876.62,-233.85 968.01,-219.14 1045.41,-199 1048.45,-198.21 1051.58,-197.3 1054.7,-196.34"/>
<polygon fill="midnightblue" stroke="midnightblue" points="1056.09,-199.57 1064.5,-193.13 1053.91,-192.92 1056.09,-199.57"/>
</g>
<!-- Node17 -->
<g id="node17" class="node">
<title>Node17</title>
<g id="a_node17"><a xlink:href="algebra_2eigen_8hpp.html" target="_top" xlink:title=" ">
<polygon fill="white" stroke="black" points="1209.91,-56.5 1209.91,-75.5 1338.91,-75.5 1338.91,-56.5 1209.91,-56.5"/>
<text text-anchor="middle" x="1274.41" y="-63.5" font-family="Helvetica,sans-Serif" font-size="10.00">mini/algebra/eigen.hpp</text>
</a>
</g>
</g>
<!-- Node1&#45;&gt;Node17 -->
<g id="edge16" class="edge">
<title>Node1&#45;&gt;Node17</title>
<path fill="none" stroke="midnightblue" d="M818.99,-249.91C982.33,-250.5 1445.86,-247.81 1491.41,-199 1547.31,-139.1 1407.75,-96.61 1327.02,-77.82"/>
<polygon fill="midnightblue" stroke="midnightblue" points="1327.53,-74.35 1317,-75.54 1325.97,-81.17 1327.53,-74.35"/>
</g>
<!-- Node20 -->
<g id="node20" class="node">
<title>Node20</title>
<g id="a_node20"><a xlink:href="fem_8hpp.html" target="_top" xlink:title=" ">
<polygon fill="white" stroke="black" points="586.41,-174 586.41,-193 704.41,-193 704.41,-174 586.41,-174"/>
<text text-anchor="middle" x="645.41" y="-181" font-family="Helvetica,sans-Serif" font-size="10.00">mini/spatial/fem.hpp</text>
</a>
</g>
</g>
<!-- Node1&#45;&gt;Node20 -->
<g id="edge21" class="edge">
<title>Node1&#45;&gt;Node20</title>
<path fill="none" stroke="midnightblue" d="M737.02,-235.4C717.04,-224.29 689.37,-208.92 669.68,-197.98"/>
<polygon fill="midnightblue" stroke="midnightblue" points="671.16,-194.8 660.72,-193.01 667.76,-200.92 671.16,-194.8"/>
</g>
<!-- Node21 -->
<g id="node21" class="node">
<title>Node21</title>
<g id="a_node21"><a xlink:href="riemann_2concept_8hpp.html" target="_top" xlink:title=" ">
<polygon fill="white" stroke="black" points="313.41,-112.5 313.41,-131.5 457.41,-131.5 457.41,-112.5 313.41,-112.5"/>
<text text-anchor="middle" x="385.41" y="-119.5" font-family="Helvetica,sans-Serif" font-size="10.00">mini/riemann/concept.hpp</text>
</a>
</g>
</g>
<!-- Node1&#45;&gt;Node21 -->
<g id="edge40" class="edge">
<title>Node1&#45;&gt;Node21</title>
<path fill="none" stroke="midnightblue" d="M705.75,-248.98C616.21,-246.97 447.67,-237.95 404.41,-199 388.49,-184.67 384.97,-159.2 384.61,-141.73"/>
<polygon fill="midnightblue" stroke="midnightblue" points="388.11,-141.64 384.74,-131.6 381.11,-141.55 388.11,-141.64"/>
</g>
<!-- Node24 -->
<g id="node24" class="node">
<title>Node24</title>
<g id="a_node24"><a xlink:href="riemann_2diffusive_2linear_8hpp.html" target="_top" xlink:title=" ">
<polygon fill="white" stroke="black" points="1209.91,-168.5 1209.91,-198.5 1336.91,-198.5 1336.91,-168.5 1209.91,-168.5"/>
<text text-anchor="start" x="1217.91" y="-186.5" font-family="Helvetica,sans-Serif" font-size="10.00">mini/riemann/diffusive</text>
<text text-anchor="middle" x="1273.41" y="-175.5" font-family="Helvetica,sans-Serif" font-size="10.00">/linear.hpp</text>
</a>
</g>
</g>
<!-- Node1&#45;&gt;Node24 -->
<g id="edge41" class="edge">
<title>Node1&#45;&gt;Node24</title>
<path fill="none" stroke="midnightblue" d="M818.97,-244.14C901.8,-236 1060.89,-219.32 1195.41,-199 1196.71,-198.8 1198.02,-198.6 1199.35,-198.39"/>
<polygon fill="midnightblue" stroke="midnightblue" points="1200.31,-201.78 1209.62,-196.72 1199.18,-194.87 1200.31,-201.78"/>
</g>
<!-- Node25 -->
<g id="node25" class="node">
<title>Node25</title>
<g id="a_node25"><a xlink:href="direct_8hpp.html" target="_top" xlink:title=" ">
<polygon fill="white" stroke="black" points="1354.91,-168.5 1354.91,-198.5 1481.91,-198.5 1481.91,-168.5 1354.91,-168.5"/>
<text text-anchor="start" x="1362.91" y="-186.5" font-family="Helvetica,sans-Serif" font-size="10.00">mini/riemann/diffusive</text>
<text text-anchor="middle" x="1418.41" y="-175.5" font-family="Helvetica,sans-Serif" font-size="10.00">/direct.hpp</text>
</a>
</g>
</g>
<!-- Node1&#45;&gt;Node25 -->
<g id="edge44" class="edge">
<title>Node1&#45;&gt;Node25</title>
<path fill="none" stroke="midnightblue" d="M819.03,-246.73C921.88,-241.22 1146.39,-227.08 1344.84,-199.13"/>
<polygon fill="midnightblue" stroke="midnightblue" points="1345.47,-202.57 1354.87,-197.7 1344.48,-195.64 1345.47,-202.57"/>
</g>
<!-- Node17&#45;&gt;Node3 -->
<g id="edge17" class="edge">
<title>Node17&#45;&gt;Node3</title>
<path fill="none" stroke="midnightblue" d="M1243.51,-56.44C1210.13,-47.2 1156.81,-32.44 1120.06,-22.26"/>
<polygon fill="midnightblue" stroke="midnightblue" points="1120.73,-18.81 1110.16,-19.52 1118.87,-25.56 1120.73,-18.81"/>
</g>
<!-- Node17&#45;&gt;Node5 -->
<g id="edge18" class="edge">
<title>Node17&#45;&gt;Node5</title>
<path fill="none" stroke="midnightblue" d="M1260.59,-56.32C1247.18,-47.9 1226.58,-34.97 1210.82,-25.07"/>
<polygon fill="midnightblue" stroke="midnightblue" points="1212.52,-22.01 1202.19,-19.65 1208.8,-27.94 1212.52,-22.01"/>
</g>
<!-- Node18 -->
<g id="node18" class="node">
<title>Node18</title>
<g id="a_node18"><a xlink:title=" ">
<polygon fill="white" stroke="#bfbfbf" points="1242.91,-0.5 1242.91,-19.5 1291.91,-19.5 1291.91,-0.5 1242.91,-0.5"/>
<text text-anchor="middle" x="1267.41" y="-7.5" font-family="Helvetica,sans-Serif" font-size="10.00">cstdlib</text>
</a>
</g>
</g>
<!-- Node17&#45;&gt;Node18 -->
<g id="edge19" class="edge">
<title>Node17&#45;&gt;Node18</title>
<path fill="none" stroke="midnightblue" d="M1273.25,-56.08C1272.32,-48.93 1270.99,-38.64 1269.83,-29.69"/>
<polygon fill="midnightblue" stroke="midnightblue" points="1273.3,-29.22 1268.54,-19.75 1266.36,-30.12 1273.3,-29.22"/>
</g>
<!-- Node19 -->
<g id="node19" class="node">
<title>Node19</title>
<g id="a_node19"><a xlink:title=" ">
<polygon fill="white" stroke="#bfbfbf" points="1310.41,-0.5 1310.41,-19.5 1384.41,-19.5 1384.41,-0.5 1310.41,-0.5"/>
<text text-anchor="middle" x="1347.41" y="-7.5" font-family="Helvetica,sans-Serif" font-size="10.00">Eigen/Eigen</text>
</a>
</g>
</g>
<!-- Node17&#45;&gt;Node19 -->
<g id="edge20" class="edge">
<title>Node17&#45;&gt;Node19</title>
<path fill="none" stroke="midnightblue" d="M1286.14,-56.32C1297.25,-48.11 1314.15,-35.6 1327.39,-25.81"/>
<polygon fill="midnightblue" stroke="midnightblue" points="1329.51,-28.59 1335.47,-19.83 1325.35,-22.97 1329.51,-28.59"/>
</g>
<!-- Node20&#45;&gt;Node3 -->
<g id="edge22" class="edge">
<title>Node20&#45;&gt;Node3</title>
<path fill="none" stroke="midnightblue" d="M648.43,-173.67C653.46,-159.71 664.5,-132.07 679.41,-112 701.35,-82.45 707.07,-71.59 740.41,-56 792.27,-31.76 958.36,-18.5 1037.16,-13.44"/>
<polygon fill="midnightblue" stroke="midnightblue" points="1037.46,-16.93 1047.22,-12.81 1037.02,-9.94 1037.46,-16.93"/>
</g>
<!-- Node20&#45;&gt;Node4 -->
<g id="edge23" class="edge">
<title>Node20&#45;&gt;Node4</title>
<path fill="none" stroke="midnightblue" d="M650.93,-173.91C660.3,-159.79 680.43,-131.34 702.41,-112 716.53,-99.58 734.49,-88.45 749.06,-80.38"/>
<polygon fill="midnightblue" stroke="midnightblue" points="750.93,-83.35 758.07,-75.53 747.61,-77.18 750.93,-83.35"/>
</g>
<!-- Node20&#45;&gt;Node6 -->
<g id="edge24" class="edge">
<title>Node20&#45;&gt;Node6</title>
<path fill="none" stroke="midnightblue" d="M586.18,-177.75C457.59,-167.37 158.67,-142.83 80.47,-131.97"/>
<polygon fill="midnightblue" stroke="midnightblue" points="80.64,-128.46 70.23,-130.41 79.58,-135.38 80.64,-128.46"/>
</g>
<!-- Node20&#45;&gt;Node7 -->
<g id="edge25" class="edge">
<title>Node20&#45;&gt;Node7</title>
<path fill="none" stroke="midnightblue" d="M586.22,-177.11C479.76,-167.29 258.9,-146.3 163.3,-131.95"/>
<polygon fill="midnightblue" stroke="midnightblue" points="163.78,-128.48 153.36,-130.41 162.71,-135.4 163.78,-128.48"/>
</g>
<!-- Node20&#45;&gt;Node9 -->
<g id="edge26" class="edge">
<title>Node20&#45;&gt;Node9</title>
<path fill="none" stroke="midnightblue" d="M586.13,-177.19C508.64,-169.8 368.56,-154.88 239.84,-132.09"/>
<polygon fill="midnightblue" stroke="midnightblue" points="240.26,-128.61 229.8,-130.3 239.03,-135.5 240.26,-128.61"/>
</g>
<!-- Node20&#45;&gt;Node10 -->
<g id="edge27" class="edge">
<title>Node20&#45;&gt;Node10</title>
<path fill="none" stroke="midnightblue" d="M586.2,-175.9C520.02,-168.05 409.55,-153.48 305.2,-131.94"/>
<polygon fill="midnightblue" stroke="midnightblue" points="305.62,-128.45 295.12,-129.83 304.19,-135.3 305.62,-128.45"/>
</g>
<!-- Node20&#45;&gt;Node11 -->
<g id="edge28" class="edge">
<title>Node20&#45;&gt;Node11</title>
<path fill="none" stroke="midnightblue" d="M631.22,-173.98C615.05,-164.25 588.38,-148.23 569.27,-136.74"/>
<polygon fill="midnightblue" stroke="midnightblue" points="570.94,-133.66 560.57,-131.51 567.33,-139.66 570.94,-133.66"/>
</g>
<!-- Node20&#45;&gt;Node12 -->
<g id="edge29" class="edge">
<title>Node20&#45;&gt;Node12</title>
<path fill="none" stroke="midnightblue" d="M681.45,-173.98C720.14,-164.74 783.62,-149.29 847.28,-132.23"/>
<polygon fill="midnightblue" stroke="midnightblue" points="848.34,-135.57 857.09,-129.59 846.52,-128.81 848.34,-135.57"/>
</g>
<!-- Node20&#45;&gt;Node13 -->
<g id="edge30" class="edge">
<title>Node20&#45;&gt;Node13</title>
<path fill="none" stroke="midnightblue" d="M640.04,-173.57C630.87,-158.96 610.9,-129.82 587.41,-112 568.33,-97.53 543.86,-86.53 523.67,-79.03"/>
<polygon fill="midnightblue" stroke="midnightblue" points="524.74,-75.7 514.14,-75.63 522.39,-82.29 524.74,-75.7"/>
</g>
<!-- Node20&#45;&gt;Node14 -->
<g id="edge31" class="edge">
<title>Node20&#45;&gt;Node14</title>
<path fill="none" stroke="midnightblue" d="M691.4,-173.98C749.2,-163.26 848.36,-144.88 910.48,-133.37"/>
<polygon fill="midnightblue" stroke="midnightblue" points="911.31,-136.77 920.5,-131.51 910.03,-129.89 911.31,-136.77"/>
</g>
<!-- Node20&#45;&gt;Node15 -->
<g id="edge32" class="edge">
<title>Node20&#45;&gt;Node15</title>
<path fill="none" stroke="midnightblue" d="M704.88,-175.2C808.13,-162.54 1017.2,-136.89 1097.75,-127.01"/>
<polygon fill="midnightblue" stroke="midnightblue" points="1098.3,-130.47 1107.8,-125.77 1097.45,-123.52 1098.3,-130.47"/>
</g>
<!-- Node20&#45;&gt;Node21 -->
<g id="edge33" class="edge">
<title>Node20&#45;&gt;Node21</title>
<path fill="none" stroke="midnightblue" d="M608.16,-173.98C561.92,-163.39 483.01,-145.34 432.59,-133.8"/>
<polygon fill="midnightblue" stroke="midnightblue" points="433.12,-130.33 422.59,-131.51 431.56,-137.15 433.12,-130.33"/>
</g>
<!-- Node22 -->
<g id="node22" class="node">
<title>Node22</title>
<g id="a_node22"><a xlink:href="ode_8hpp.html" target="_top" xlink:title=" ">
<polygon fill="white" stroke="black" points="711.41,-112.5 711.41,-131.5 839.41,-131.5 839.41,-112.5 711.41,-112.5"/>
<text text-anchor="middle" x="775.41" y="-119.5" font-family="Helvetica,sans-Serif" font-size="10.00">mini/temporal/ode.hpp</text>
</a>
</g>
</g>
<!-- Node20&#45;&gt;Node22 -->
<g id="edge36" class="edge">
<title>Node20&#45;&gt;Node22</title>
<path fill="none" stroke="midnightblue" d="M664.03,-173.98C685.85,-163.99 722.21,-147.35 747.43,-135.81"/>
<polygon fill="midnightblue" stroke="midnightblue" points="749.18,-138.85 756.82,-131.51 746.27,-132.49 749.18,-138.85"/>
</g>
<!-- Node23 -->
<g id="node23" class="node">
<title>Node23</title>
<g id="a_node23"><a xlink:href="index_8hpp.html" target="_top" xlink:title=" ">
<polygon fill="white" stroke="black" points="1256.41,-112.5 1256.41,-131.5 1390.41,-131.5 1390.41,-112.5 1256.41,-112.5"/>
<text text-anchor="middle" x="1323.41" y="-119.5" font-family="Helvetica,sans-Serif" font-size="10.00">mini/constant/index.hpp</text>
</a>
</g>
</g>
<!-- Node20&#45;&gt;Node23 -->
<g id="edge39" class="edge">
<title>Node20&#45;&gt;Node23</title>
<path fill="none" stroke="midnightblue" d="M704.69,-177.3C827.45,-166.52 1109.43,-141.78 1246.2,-129.78"/>
<polygon fill="midnightblue" stroke="midnightblue" points="1246.54,-133.26 1256.19,-128.9 1245.93,-126.29 1246.54,-133.26"/>
</g>
<!-- Node21&#45;&gt;Node2 -->
<g id="edge34" class="edge">
<title>Node21&#45;&gt;Node2</title>
<path fill="none" stroke="midnightblue" d="M353.88,-112.44C319.42,-103.09 264.12,-88.09 226.58,-77.9"/>
<polygon fill="midnightblue" stroke="midnightblue" points="227.06,-74.4 216.49,-75.16 225.22,-81.16 227.06,-74.4"/>
</g>
<!-- Node21&#45;&gt;Node13 -->
<g id="edge35" class="edge">
<title>Node21&#45;&gt;Node13</title>
<path fill="none" stroke="midnightblue" d="M401.48,-112.32C417.37,-103.74 441.92,-90.49 460.37,-80.52"/>
<polygon fill="midnightblue" stroke="midnightblue" points="462.25,-83.49 469.38,-75.65 458.92,-77.33 462.25,-83.49"/>
</g>
<!-- Node22&#45;&gt;Node4 -->
<g id="edge37" class="edge">
<title>Node22&#45;&gt;Node4</title>
<path fill="none" stroke="midnightblue" d="M775.41,-112.08C775.41,-105.01 775.41,-94.86 775.41,-85.99"/>
<polygon fill="midnightblue" stroke="midnightblue" points="778.91,-85.75 775.41,-75.75 771.91,-85.75 778.91,-85.75"/>
</g>
<!-- Node22&#45;&gt;Node17 -->
<g id="edge38" class="edge">
<title>Node22&#45;&gt;Node17</title>
<path fill="none" stroke="midnightblue" d="M839.49,-113.03C842.51,-112.68 845.49,-112.33 848.41,-112 971.42,-97.92 1114.6,-83.12 1199.69,-74.49"/>
<polygon fill="midnightblue" stroke="midnightblue" points="1200.18,-77.96 1209.78,-73.47 1199.48,-71 1200.18,-77.96"/>
</g>
<!-- Node24&#45;&gt;Node17 -->
<g id="edge42" class="edge">
<title>Node24&#45;&gt;Node17</title>
<path fill="none" stroke="midnightblue" d="M1262.65,-168.41C1253.24,-154.34 1241.87,-131.99 1247.41,-112 1250.2,-101.92 1255.92,-91.83 1261.38,-83.77"/>
<polygon fill="midnightblue" stroke="midnightblue" points="1264.23,-85.79 1267.26,-75.64 1258.56,-81.69 1264.23,-85.79"/>
</g>
<!-- Node24&#45;&gt;Node23 -->
<g id="edge43" class="edge">
<title>Node24&#45;&gt;Node23</title>
<path fill="none" stroke="midnightblue" d="M1285.26,-168.4C1292.52,-159.75 1301.86,-148.64 1309.48,-139.58"/>
<polygon fill="midnightblue" stroke="midnightblue" points="1312.38,-141.57 1316.13,-131.66 1307.02,-137.06 1312.38,-141.57"/>
</g>
<!-- Node25&#45;&gt;Node17 -->
<g id="edge45" class="edge">
<title>Node25&#45;&gt;Node17</title>
<path fill="none" stroke="midnightblue" d="M1418.3,-168.23C1417.42,-152.53 1413.66,-127.48 1399.41,-112 1384.17,-95.45 1362.39,-84.98 1341.27,-78.35"/>
<polygon fill="midnightblue" stroke="midnightblue" points="1342.21,-74.98 1331.64,-75.57 1340.27,-81.71 1342.21,-74.98"/>
</g>
<!-- Node25&#45;&gt;Node23 -->
<g id="edge46" class="edge">
<title>Node25&#45;&gt;Node23</title>
<path fill="none" stroke="midnightblue" d="M1395.89,-168.4C1380.81,-158.95 1361.02,-146.56 1345.94,-137.11"/>
<polygon fill="midnightblue" stroke="midnightblue" points="1347.56,-134 1337.23,-131.66 1343.85,-139.93 1347.56,-134"/>
</g>
</g>
</svg>
