<?xml version="1.0" encoding="UTF-8" standalone="no"?>
<!DOCTYPE svg PUBLIC "-//W3C//DTD SVG 1.1//EN"
 "http://www.w3.org/Graphics/SVG/1.1/DTD/svg11.dtd">
<!-- Generated by graphviz version 2.43.0 (0)
 -->
<!-- Title: include/mini/limiter/weno.hpp Pages: 1 -->
<svg width="1004pt" height="207pt"
 viewBox="0.00 0.00 1003.50 207.00" xmlns="http://www.w3.org/2000/svg" xmlns:xlink="http://www.w3.org/1999/xlink">
<g id="graph0" class="graph" transform="scale(1 1) rotate(0) translate(4 203)">
<title>include/mini/limiter/weno.hpp</title>
<polygon fill="white" stroke="transparent" points="-4,4 -4,-203 999.5,-203 999.5,4 -4,4"/>
<!-- Node1 -->
<g id="node1" class="node">
<title>Node1</title>
<g id="a_node1"><a xlink:title=" ">
<polygon fill="#bfbfbf" stroke="black" points="338,-168.5 338,-198.5 450,-198.5 450,-168.5 338,-168.5"/>
<text text-anchor="start" x="346" y="-186.5" font-family="Helvetica,sans-Serif" font-size="10.00">include/mini/limiter</text>
<text text-anchor="middle" x="394" y="-175.5" font-family="Helvetica,sans-Serif" font-size="10.00">/weno.hpp</text>
</a>
</g>
</g>
<!-- Node2 -->
<g id="node2" class="node">
<title>Node2</title>
<g id="a_node2"><a xlink:title=" ">
<polygon fill="white" stroke="#bfbfbf" points="25,-56.5 25,-75.5 77,-75.5 77,-56.5 25,-56.5"/>
<text text-anchor="middle" x="51" y="-63.5" font-family="Helvetica,sans-Serif" font-size="10.00">cassert</text>
</a>
</g>
</g>
<!-- Node1&#45;&gt;Node2 -->
<g id="edge1" class="edge">
<title>Node1&#45;&gt;Node2</title>
<path fill="none" stroke="midnightblue" d="M337.95,-178.59C262.01,-172.38 131.4,-158.2 92,-132 75.21,-120.83 63.96,-100.2 57.56,-85.17"/>
<polygon fill="midnightblue" stroke="midnightblue" points="60.81,-83.87 53.89,-75.84 54.29,-86.43 60.81,-83.87"/>
</g>
<!-- Node3 -->
<g id="node3" class="node">
<title>Node3</title>
<g id="a_node3"><a xlink:title=" ">
<polygon fill="white" stroke="#bfbfbf" points="25.5,-0.5 25.5,-19.5 72.5,-19.5 72.5,-0.5 25.5,-0.5"/>
<text text-anchor="middle" x="49" y="-7.5" font-family="Helvetica,sans-Serif" font-size="10.00">cmath</text>
</a>
</g>
</g>
<!-- Node1&#45;&gt;Node3 -->
<g id="edge2" class="edge">
<title>Node1&#45;&gt;Node3</title>
<path fill="none" stroke="midnightblue" d="M337.89,-181.1C248.58,-177.83 79.37,-167.07 32,-132 3.31,-110.76 -7.28,-89.14 6,-56 10.68,-44.33 20,-33.97 28.76,-26.14"/>
<polygon fill="midnightblue" stroke="midnightblue" points="31.06,-28.78 36.51,-19.7 26.58,-23.4 31.06,-28.78"/>
</g>
<!-- Node4 -->
<g id="node4" class="node">
<title>Node4</title>
<g id="a_node4"><a xlink:title=" ">
<polygon fill="white" stroke="#bfbfbf" points="91,-0.5 91,-19.5 155,-19.5 155,-0.5 91,-0.5"/>
<text text-anchor="middle" x="123" y="-7.5" font-family="Helvetica,sans-Serif" font-size="10.00">algorithm</text>
</a>
</g>
</g>
<!-- Node1&#45;&gt;Node4 -->
<g id="edge3" class="edge">
<title>Node1&#45;&gt;Node4</title>
<path fill="none" stroke="midnightblue" d="M337.78,-178.17C257.48,-171.24 114.63,-155.96 69,-132 32.54,-112.85 -6.78,-90.3 16,-56 23.95,-44.04 56.2,-31.45 83.24,-22.64"/>
<polygon fill="midnightblue" stroke="midnightblue" points="84.44,-25.93 92.91,-19.57 82.32,-19.26 84.44,-25.93"/>
</g>
<!-- Node5 -->
<g id="node5" class="node">
<title>Node5</title>
<g id="a_node5"><a xlink:title=" ">
<polygon fill="white" stroke="#bfbfbf" points="653.5,-112.5 653.5,-131.5 718.5,-131.5 718.5,-112.5 653.5,-112.5"/>
<text text-anchor="middle" x="686" y="-119.5" font-family="Helvetica,sans-Serif" font-size="10.00">functional</text>
</a>
</g>
</g>
<!-- Node1&#45;&gt;Node5 -->
<g id="edge4" class="edge">
<title>Node1&#45;&gt;Node5</title>
<path fill="none" stroke="midnightblue" d="M450.14,-171.36C498.66,-161.68 570.92,-147.16 643.66,-132.05"/>
<polygon fill="midnightblue" stroke="midnightblue" points="644.38,-135.48 653.45,-130.01 642.95,-128.63 644.38,-135.48"/>
</g>
<!-- Node6 -->
<g id="node6" class="node">
<title>Node6</title>
<g id="a_node6"><a xlink:title=" ">
<polygon fill="white" stroke="#bfbfbf" points="737,-112.5 737,-131.5 793,-131.5 793,-112.5 737,-112.5"/>
<text text-anchor="middle" x="765" y="-119.5" font-family="Helvetica,sans-Serif" font-size="10.00">iomanip</text>
</a>
</g>
</g>
<!-- Node1&#45;&gt;Node6 -->
<g id="edge5" class="edge">
<title>Node1&#45;&gt;Node6</title>
<path fill="none" stroke="midnightblue" d="M450.11,-175.56C514.61,-167.24 623.81,-152.1 726.83,-132.09"/>
<polygon fill="midnightblue" stroke="midnightblue" points="727.64,-135.5 736.78,-130.14 726.29,-128.63 727.64,-135.5"/>
</g>
<!-- Node7 -->
<g id="node7" class="node">
<title>Node7</title>
<g id="a_node7"><a xlink:title=" ">
<polygon fill="white" stroke="#bfbfbf" points="281,-56.5 281,-75.5 341,-75.5 341,-56.5 281,-56.5"/>
<text text-anchor="middle" x="311" y="-63.5" font-family="Helvetica,sans-Serif" font-size="10.00">iostream</text>
</a>
</g>
</g>
<!-- Node1&#45;&gt;Node7 -->
<g id="edge6" class="edge">
<title>Node1&#45;&gt;Node7</title>
<path fill="none" stroke="midnightblue" d="M344.88,-168.28C327.24,-160.55 309.2,-148.97 299,-132 290.43,-117.73 295.42,-98.77 301.36,-85.01"/>
<polygon fill="midnightblue" stroke="midnightblue" points="304.68,-86.19 305.88,-75.67 298.38,-83.15 304.68,-86.19"/>
</g>
<!-- Node8 -->
<g id="node8" class="node">
<title>Node8</title>
<g id="a_node8"><a xlink:title=" ">
<polygon fill="white" stroke="#bfbfbf" points="811,-112.5 811,-131.5 867,-131.5 867,-112.5 811,-112.5"/>
<text text-anchor="middle" x="839" y="-119.5" font-family="Helvetica,sans-Serif" font-size="10.00">numeric</text>
</a>
</g>
</g>
<!-- Node1&#45;&gt;Node8 -->
<g id="edge7" class="edge">
<title>Node1&#45;&gt;Node8</title>
<path fill="none" stroke="midnightblue" d="M450.08,-177.63C527.01,-170.48 669.73,-155.6 800.59,-132.07"/>
<polygon fill="midnightblue" stroke="midnightblue" points="801.58,-135.45 810.79,-130.22 800.33,-128.56 801.58,-135.45"/>
</g>
<!-- Node9 -->
<g id="node9" class="node">
<title>Node9</title>
<g id="a_node9"><a xlink:title=" ">
<polygon fill="white" stroke="#bfbfbf" points="359.5,-56.5 359.5,-75.5 428.5,-75.5 428.5,-56.5 359.5,-56.5"/>
<text text-anchor="middle" x="394" y="-63.5" font-family="Helvetica,sans-Serif" font-size="10.00">type_traits</text>
</a>
</g>
</g>
<!-- Node1&#45;&gt;Node9 -->
<g id="edge8" class="edge">
<title>Node1&#45;&gt;Node9</title>
<path fill="none" stroke="midnightblue" d="M351.56,-168.39C322.23,-156.15 290.99,-136.55 306,-112 315.74,-96.09 333.06,-85.58 349.78,-78.75"/>
<polygon fill="midnightblue" stroke="midnightblue" points="351.34,-81.91 359.5,-75.14 348.9,-75.35 351.34,-81.91"/>
</g>
<!-- Node10 -->
<g id="node10" class="node">
<title>Node10</title>
<g id="a_node10"><a xlink:title=" ">
<polygon fill="white" stroke="#bfbfbf" points="885.5,-112.5 885.5,-131.5 930.5,-131.5 930.5,-112.5 885.5,-112.5"/>
<text text-anchor="middle" x="908" y="-119.5" font-family="Helvetica,sans-Serif" font-size="10.00">utility</text>
</a>
</g>
</g>
<!-- Node1&#45;&gt;Node10 -->
<g id="edge9" class="edge">
<title>Node1&#45;&gt;Node10</title>
<path fill="none" stroke="midnightblue" d="M450.12,-179.72C538.63,-174.65 716.07,-161.75 875.41,-131.78"/>
<polygon fill="midnightblue" stroke="midnightblue" points="876.23,-135.18 885.39,-129.87 874.91,-128.31 876.23,-135.18"/>
</g>
<!-- Node11 -->
<g id="node11" class="node">
<title>Node11</title>
<g id="a_node11"><a xlink:title=" ">
<polygon fill="white" stroke="#bfbfbf" points="948.5,-112.5 948.5,-131.5 995.5,-131.5 995.5,-112.5 948.5,-112.5"/>
<text text-anchor="middle" x="972" y="-119.5" font-family="Helvetica,sans-Serif" font-size="10.00">vector</text>
</a>
</g>
</g>
<!-- Node1&#45;&gt;Node11 -->
<g id="edge10" class="edge">
<title>Node1&#45;&gt;Node11</title>
<path fill="none" stroke="midnightblue" d="M450.27,-180.67C548,-176.75 755.42,-165.2 938.28,-132.02"/>
<polygon fill="midnightblue" stroke="midnightblue" points="939.15,-135.42 948.35,-130.17 937.88,-128.54 939.15,-135.42"/>
</g>
<!-- Node12 -->
<g id="node12" class="node">
<title>Node12</title>
<g id="a_node12"><a xlink:href="taylor_8hpp.html" target="_top" xlink:title=" ">
<polygon fill="white" stroke="black" points="101.5,-112.5 101.5,-131.5 220.5,-131.5 220.5,-112.5 101.5,-112.5"/>
<text text-anchor="middle" x="161" y="-119.5" font-family="Helvetica,sans-Serif" font-size="10.00">mini/basis/taylor.hpp</text>
</a>
</g>
</g>
<!-- Node1&#45;&gt;Node12 -->
<g id="edge11" class="edge">
<title>Node1&#45;&gt;Node12</title>
<path fill="none" stroke="midnightblue" d="M339.08,-168.47C297.83,-157.94 242.13,-143.72 204.07,-134"/>
<polygon fill="midnightblue" stroke="midnightblue" points="204.87,-130.59 194.31,-131.51 203.14,-137.37 204.87,-130.59"/>
</g>
<!-- Node17 -->
<g id="node17" class="node">
<title>Node17</title>
<g id="a_node17"><a xlink:href="polynomial_2concept_8hpp.html" target="_top" xlink:title=" ">
<polygon fill="white" stroke="black" points="315,-112.5 315,-131.5 473,-131.5 473,-112.5 315,-112.5"/>
<text text-anchor="middle" x="394" y="-119.5" font-family="Helvetica,sans-Serif" font-size="10.00">mini/polynomial/concept.hpp</text>
</a>
</g>
</g>
<!-- Node1&#45;&gt;Node17 -->
<g id="edge22" class="edge">
<title>Node1&#45;&gt;Node17</title>
<path fill="none" stroke="midnightblue" d="M394,-168.4C394,-160.47 394,-150.46 394,-141.86"/>
<polygon fill="midnightblue" stroke="midnightblue" points="397.5,-141.66 394,-131.66 390.5,-141.66 397.5,-141.66"/>
</g>
<!-- Node18 -->
<g id="node18" class="node">
<title>Node18</title>
<g id="a_node18"><a xlink:href="riemann_2concept_8hpp.html" target="_top" xlink:title=" ">
<polygon fill="white" stroke="black" points="491,-112.5 491,-131.5 635,-131.5 635,-112.5 491,-112.5"/>
<text text-anchor="middle" x="563" y="-119.5" font-family="Helvetica,sans-Serif" font-size="10.00">mini/riemann/concept.hpp</text>
</a>
</g>
</g>
<!-- Node1&#45;&gt;Node18 -->
<g id="edge25" class="edge">
<title>Node1&#45;&gt;Node18</title>
<path fill="none" stroke="midnightblue" d="M434.05,-168.4C462.92,-158.24 501.45,-144.67 528.86,-135.02"/>
<polygon fill="midnightblue" stroke="midnightblue" points="530.14,-138.28 538.41,-131.66 527.82,-131.68 530.14,-138.28"/>
</g>
<!-- Node12&#45;&gt;Node2 -->
<g id="edge13" class="edge">
<title>Node12&#45;&gt;Node2</title>
<path fill="none" stroke="midnightblue" d="M143.33,-112.32C125.61,-103.62 98.1,-90.12 77.72,-80.11"/>
<polygon fill="midnightblue" stroke="midnightblue" points="79.15,-76.92 68.63,-75.65 76.07,-83.2 79.15,-76.92"/>
</g>
<!-- Node12&#45;&gt;Node3 -->
<g id="edge14" class="edge">
<title>Node12&#45;&gt;Node3</title>
<path fill="none" stroke="midnightblue" d="M152.22,-112.37C133.41,-93.89 89.01,-50.29 65.03,-26.74"/>
<polygon fill="midnightblue" stroke="midnightblue" points="67.34,-24.1 57.75,-19.59 62.43,-29.1 67.34,-24.1"/>
</g>
<!-- Node12&#45;&gt;Node7 -->
<g id="edge15" class="edge">
<title>Node12&#45;&gt;Node7</title>
<path fill="none" stroke="midnightblue" d="M184.77,-112.44C209.9,-103.4 249.71,-89.06 277.9,-78.92"/>
<polygon fill="midnightblue" stroke="midnightblue" points="279.12,-82.2 287.35,-75.52 276.75,-75.61 279.12,-82.2"/>
</g>
<!-- Node12&#45;&gt;Node9 -->
<g id="edge16" class="edge">
<title>Node12&#45;&gt;Node9</title>
<path fill="none" stroke="midnightblue" d="M197.92,-112.44C238.99,-102.92 305.34,-87.55 349.31,-77.36"/>
<polygon fill="midnightblue" stroke="midnightblue" points="350.21,-80.74 359.16,-75.08 348.63,-73.92 350.21,-80.74"/>
</g>
<!-- Node13 -->
<g id="node13" class="node">
<title>Node13</title>
<g id="a_node13"><a xlink:title=" ">
<polygon fill="white" stroke="#bfbfbf" points="447,-56.5 447,-75.5 507,-75.5 507,-56.5 447,-56.5"/>
<text text-anchor="middle" x="477" y="-63.5" font-family="Helvetica,sans-Serif" font-size="10.00">concepts</text>
</a>
</g>
</g>
<!-- Node12&#45;&gt;Node13 -->
<g id="edge12" class="edge">
<title>Node12&#45;&gt;Node13</title>
<path fill="none" stroke="midnightblue" d="M220.64,-112.47C274.57,-104.49 356.38,-91.75 436.54,-76.19"/>
<polygon fill="midnightblue" stroke="midnightblue" points="437.67,-79.53 446.81,-74.17 436.33,-72.66 437.67,-79.53"/>
</g>
<!-- Node14 -->
<g id="node14" class="node">
<title>Node14</title>
<g id="a_node14"><a xlink:href="algebra_2eigen_8hpp.html" target="_top" xlink:title=" ">
<polygon fill="white" stroke="black" points="133.5,-56.5 133.5,-75.5 262.5,-75.5 262.5,-56.5 133.5,-56.5"/>
<text text-anchor="middle" x="198" y="-63.5" font-family="Helvetica,sans-Serif" font-size="10.00">mini/algebra/eigen.hpp</text>
</a>
</g>
</g>
<!-- Node12&#45;&gt;Node14 -->
<g id="edge17" class="edge">
<title>Node12&#45;&gt;Node14</title>
<path fill="none" stroke="midnightblue" d="M167.11,-112.08C172.29,-104.53 179.85,-93.49 186.2,-84.23"/>
<polygon fill="midnightblue" stroke="midnightblue" points="189.24,-85.98 192.01,-75.75 183.47,-82.02 189.24,-85.98"/>
</g>
<!-- Node14&#45;&gt;Node3 -->
<g id="edge19" class="edge">
<title>Node14&#45;&gt;Node3</title>
<path fill="none" stroke="midnightblue" d="M174.39,-56.44C149.55,-47.44 110.23,-33.19 82.25,-23.05"/>
<polygon fill="midnightblue" stroke="midnightblue" points="83.1,-19.63 72.5,-19.52 80.71,-26.21 83.1,-19.63"/>
</g>
<!-- Node14&#45;&gt;Node4 -->
<g id="edge18" class="edge">
<title>Node14&#45;&gt;Node4</title>
<path fill="none" stroke="midnightblue" d="M185.95,-56.32C174.54,-48.11 157.17,-35.6 143.57,-25.81"/>
<polygon fill="midnightblue" stroke="midnightblue" points="145.43,-22.84 135.27,-19.83 141.34,-28.52 145.43,-22.84"/>
</g>
<!-- Node15 -->
<g id="node15" class="node">
<title>Node15</title>
<g id="a_node15"><a xlink:title=" ">
<polygon fill="white" stroke="#bfbfbf" points="173.5,-0.5 173.5,-19.5 222.5,-19.5 222.5,-0.5 173.5,-0.5"/>
<text text-anchor="middle" x="198" y="-7.5" font-family="Helvetica,sans-Serif" font-size="10.00">cstdlib</text>
</a>
</g>
</g>
<!-- Node14&#45;&gt;Node15 -->
<g id="edge20" class="edge">
<title>Node14&#45;&gt;Node15</title>
<path fill="none" stroke="midnightblue" d="M198,-56.08C198,-49.01 198,-38.86 198,-29.99"/>
<polygon fill="midnightblue" stroke="midnightblue" points="201.5,-29.75 198,-19.75 194.5,-29.75 201.5,-29.75"/>
</g>
<!-- Node16 -->
<g id="node16" class="node">
<title>Node16</title>
<g id="a_node16"><a xlink:title=" ">
<polygon fill="white" stroke="#bfbfbf" points="241,-0.5 241,-19.5 315,-19.5 315,-0.5 241,-0.5"/>
<text text-anchor="middle" x="278" y="-7.5" font-family="Helvetica,sans-Serif" font-size="10.00">Eigen/Eigen</text>
</a>
</g>
</g>
<!-- Node14&#45;&gt;Node16 -->
<g id="edge21" class="edge">
<title>Node14&#45;&gt;Node16</title>
<path fill="none" stroke="midnightblue" d="M210.86,-56.32C223.22,-47.98 242.13,-35.21 256.74,-25.35"/>
<polygon fill="midnightblue" stroke="midnightblue" points="258.85,-28.15 265.18,-19.65 254.94,-22.35 258.85,-28.15"/>
</g>
<!-- Node17&#45;&gt;Node9 -->
<g id="edge24" class="edge">
<title>Node17&#45;&gt;Node9</title>
<path fill="none" stroke="midnightblue" d="M394,-112.08C394,-105.01 394,-94.86 394,-85.99"/>
<polygon fill="midnightblue" stroke="midnightblue" points="397.5,-85.75 394,-75.75 390.5,-85.75 397.5,-85.75"/>
</g>
<!-- Node17&#45;&gt;Node13 -->
<g id="edge23" class="edge">
<title>Node17&#45;&gt;Node13</title>
<path fill="none" stroke="midnightblue" d="M407.34,-112.32C420.17,-103.98 439.79,-91.21 454.94,-81.35"/>
<polygon fill="midnightblue" stroke="midnightblue" points="457.23,-84.04 463.7,-75.65 453.41,-78.17 457.23,-84.04"/>
</g>
<!-- Node18&#45;&gt;Node9 -->
<g id="edge27" class="edge">
<title>Node18&#45;&gt;Node9</title>
<path fill="none" stroke="midnightblue" d="M536.23,-112.44C507.67,-103.32 462.27,-88.81 430.47,-78.65"/>
<polygon fill="midnightblue" stroke="midnightblue" points="431.25,-75.23 420.66,-75.52 429.12,-81.89 431.25,-75.23"/>
</g>
<!-- Node18&#45;&gt;Node13 -->
<g id="edge26" class="edge">
<title>Node18&#45;&gt;Node13</title>
<path fill="none" stroke="midnightblue" d="M549.19,-112.32C535.77,-103.9 515.18,-90.97 499.42,-81.07"/>
<polygon fill="midnightblue" stroke="midnightblue" points="501.12,-78.01 490.79,-75.65 497.39,-83.94 501.12,-78.01"/>
</g>
</g>
</svg>
