<?xml version="1.0" encoding="UTF-8" standalone="no"?>
<!DOCTYPE svg PUBLIC "-//W3C//DTD SVG 1.1//EN"
 "http://www.w3.org/Graphics/SVG/1.1/DTD/svg11.dtd">
<!-- Generated by graphviz version 2.43.0 (0)
 -->
<!-- Title: include/mini/spatial/with_viscosity.hpp Pages: 1 -->
<svg width="1217pt" height="263pt"
 viewBox="0.00 0.00 1217.01 263.00" xmlns="http://www.w3.org/2000/svg" xmlns:xlink="http://www.w3.org/1999/xlink">
<g id="graph0" class="graph" transform="scale(1 1) rotate(0) translate(4 259)">
<title>include/mini/spatial/with_viscosity.hpp</title>
<polygon fill="white" stroke="transparent" points="-4,4 -4,-259 1213.01,-259 1213.01,4 -4,4"/>
<!-- Node1 -->
<g id="node1" class="node">
<title>Node1</title>
<g id="a_node1"><a xlink:title=" ">
<polygon fill="#bfbfbf" stroke="black" points="419.72,-224.5 419.72,-254.5 532.72,-254.5 532.72,-224.5 419.72,-224.5"/>
<text text-anchor="start" x="427.72" y="-242.5" font-family="Helvetica,sans-Serif" font-size="10.00">include/mini/spatial</text>
<text text-anchor="middle" x="476.22" y="-231.5" font-family="Helvetica,sans-Serif" font-size="10.00">/with_viscosity.hpp</text>
</a>
</g>
</g>
<!-- Node2 -->
<g id="node2" class="node">
<title>Node2</title>
<g id="a_node2"><a xlink:title=" ">
<polygon fill="white" stroke="#bfbfbf" points="262.22,-56.5 262.22,-75.5 322.22,-75.5 322.22,-56.5 262.22,-56.5"/>
<text text-anchor="middle" x="292.22" y="-63.5" font-family="Helvetica,sans-Serif" font-size="10.00">concepts</text>
</a>
</g>
</g>
<!-- Node1&#45;&gt;Node2 -->
<g id="edge1" class="edge">
<title>Node1&#45;&gt;Node2</title>
<path fill="none" stroke="midnightblue" d="M419.62,-234.61C305.36,-225.42 53.79,-197.99 4.22,-132 -1.11,-124.89 -1.56,-118.75 4.22,-112 35.6,-75.34 180.06,-68.33 251.7,-67.13"/>
<polygon fill="midnightblue" stroke="midnightblue" points="252.18,-70.63 262.14,-66.99 252.09,-63.63 252.18,-70.63"/>
</g>
<!-- Node3 -->
<g id="node3" class="node">
<title>Node3</title>
<g id="a_node3"><a xlink:title=" ">
<polygon fill="white" stroke="#bfbfbf" points="996.22,-0.5 996.22,-19.5 1060.22,-19.5 1060.22,-0.5 996.22,-0.5"/>
<text text-anchor="middle" x="1028.22" y="-7.5" font-family="Helvetica,sans-Serif" font-size="10.00">algorithm</text>
</a>
</g>
</g>
<!-- Node1&#45;&gt;Node3 -->
<g id="edge2" class="edge">
<title>Node1&#45;&gt;Node3</title>
<path fill="none" stroke="midnightblue" d="M532.93,-239.19C687.77,-239.74 1111.96,-231.92 1198.22,-132 1242.04,-81.24 1133.62,-40.63 1070.21,-22.02"/>
<polygon fill="midnightblue" stroke="midnightblue" points="1071.02,-18.62 1060.44,-19.23 1069.09,-25.35 1071.02,-18.62"/>
</g>
<!-- Node4 -->
<g id="node4" class="node">
<title>Node4</title>
<g id="a_node4"><a xlink:title=" ">
<polygon fill="white" stroke="#bfbfbf" points="13.72,-112.5 13.72,-131.5 58.72,-131.5 58.72,-112.5 13.72,-112.5"/>
<text text-anchor="middle" x="36.22" y="-119.5" font-family="Helvetica,sans-Serif" font-size="10.00">utility</text>
</a>
</g>
</g>
<!-- Node1&#45;&gt;Node4 -->
<g id="edge3" class="edge">
<title>Node1&#45;&gt;Node4</title>
<path fill="none" stroke="midnightblue" d="M420.19,-224.43C343.2,-204.99 200.17,-168.46 68.74,-132.37"/>
<polygon fill="midnightblue" stroke="midnightblue" points="69.46,-128.94 58.89,-129.66 67.6,-135.69 69.46,-128.94"/>
</g>
<!-- Node5 -->
<g id="node5" class="node">
<title>Node5</title>
<g id="a_node5"><a xlink:href="fem_8hpp.html" target="_top" xlink:title=" ">
<polygon fill="white" stroke="black" points="564.22,-168.5 564.22,-187.5 682.22,-187.5 682.22,-168.5 564.22,-168.5"/>
<text text-anchor="middle" x="623.22" y="-175.5" font-family="Helvetica,sans-Serif" font-size="10.00">mini/spatial/fem.hpp</text>
</a>
</g>
</g>
<!-- Node1&#45;&gt;Node5 -->
<g id="edge4" class="edge">
<title>Node1&#45;&gt;Node5</title>
<path fill="none" stroke="midnightblue" d="M511.06,-224.4C535.73,-214.42 568.51,-201.15 592.26,-191.53"/>
<polygon fill="midnightblue" stroke="midnightblue" points="593.88,-194.65 601.83,-187.66 591.25,-188.17 593.88,-194.65"/>
</g>
<!-- Node5&#45;&gt;Node3 -->
<g id="edge5" class="edge">
<title>Node5&#45;&gt;Node3</title>
<path fill="none" stroke="midnightblue" d="M682.52,-177.93C776.73,-178.12 954.65,-172.88 1000.22,-132 1029.16,-106.05 1031.23,-56.66 1029.92,-29.7"/>
<polygon fill="midnightblue" stroke="midnightblue" points="1033.41,-29.38 1029.22,-19.65 1026.42,-29.87 1033.41,-29.38"/>
</g>
<!-- Node5&#45;&gt;Node4 -->
<g id="edge15" class="edge">
<title>Node5&#45;&gt;Node4</title>
<path fill="none" stroke="midnightblue" d="M563.87,-176.11C463.43,-173.76 253.6,-165.16 68.69,-131.93"/>
<polygon fill="midnightblue" stroke="midnightblue" points="69.25,-128.47 58.79,-130.12 67.99,-135.36 69.25,-128.47"/>
</g>
<!-- Node6 -->
<g id="node6" class="node">
<title>Node6</title>
<g id="a_node6"><a xlink:title=" ">
<polygon fill="white" stroke="#bfbfbf" points="735.22,-56.5 735.22,-75.5 787.22,-75.5 787.22,-56.5 735.22,-56.5"/>
<text text-anchor="middle" x="761.22" y="-63.5" font-family="Helvetica,sans-Serif" font-size="10.00">cassert</text>
</a>
</g>
</g>
<!-- Node5&#45;&gt;Node6 -->
<g id="edge6" class="edge">
<title>Node5&#45;&gt;Node6</title>
<path fill="none" stroke="midnightblue" d="M651.67,-168.4C672.15,-161.16 699.53,-149.19 719.22,-132 734.21,-118.92 745.91,-99.22 753.11,-84.94"/>
<polygon fill="midnightblue" stroke="midnightblue" points="756.39,-86.21 757.55,-75.67 750.07,-83.19 756.39,-86.21"/>
</g>
<!-- Node7 -->
<g id="node7" class="node">
<title>Node7</title>
<g id="a_node7"><a xlink:title=" ">
<polygon fill="white" stroke="#bfbfbf" points="935.72,-112.5 935.72,-131.5 990.72,-131.5 990.72,-112.5 935.72,-112.5"/>
<text text-anchor="middle" x="963.22" y="-119.5" font-family="Helvetica,sans-Serif" font-size="10.00">fstream</text>
</a>
</g>
</g>
<!-- Node5&#45;&gt;Node7 -->
<g id="edge7" class="edge">
<title>Node5&#45;&gt;Node7</title>
<path fill="none" stroke="midnightblue" d="M682.43,-169.83C741.55,-162.3 835.19,-149.4 925.54,-131.98"/>
<polygon fill="midnightblue" stroke="midnightblue" points="926.26,-135.4 935.4,-130.06 924.92,-128.53 926.26,-135.4"/>
</g>
<!-- Node8 -->
<g id="node8" class="node">
<title>Node8</title>
<g id="a_node8"><a xlink:title=" ">
<polygon fill="white" stroke="#bfbfbf" points="1047.72,-112.5 1047.72,-131.5 1112.72,-131.5 1112.72,-112.5 1047.72,-112.5"/>
<text text-anchor="middle" x="1080.22" y="-119.5" font-family="Helvetica,sans-Serif" font-size="10.00">functional</text>
</a>
</g>
</g>
<!-- Node5&#45;&gt;Node8 -->
<g id="edge8" class="edge">
<title>Node5&#45;&gt;Node8</title>
<path fill="none" stroke="midnightblue" d="M682.49,-171.99C762.38,-164.9 908.95,-150.69 1033.22,-132 1034.69,-131.78 1036.18,-131.55 1037.68,-131.3"/>
<polygon fill="midnightblue" stroke="midnightblue" points="1038.41,-134.73 1047.67,-129.58 1037.22,-127.83 1038.41,-134.73"/>
</g>
<!-- Node9 -->
<g id="node9" class="node">
<title>Node9</title>
<g id="a_node9"><a xlink:title=" ">
<polygon fill="white" stroke="#bfbfbf" points="1131.22,-112.5 1131.22,-131.5 1189.22,-131.5 1189.22,-112.5 1131.22,-112.5"/>
<text text-anchor="middle" x="1160.22" y="-119.5" font-family="Helvetica,sans-Serif" font-size="10.00">memory</text>
</a>
</g>
</g>
<!-- Node5&#45;&gt;Node9 -->
<g id="edge9" class="edge">
<title>Node5&#45;&gt;Node9</title>
<path fill="none" stroke="midnightblue" d="M682.33,-174.4C774.17,-169.77 956.78,-158.15 1120.59,-132.05"/>
<polygon fill="midnightblue" stroke="midnightblue" points="1121.54,-135.44 1130.85,-130.39 1120.42,-128.53 1121.54,-135.44"/>
</g>
<!-- Node10 -->
<g id="node10" class="node">
<title>Node10</title>
<g id="a_node10"><a xlink:title=" ">
<polygon fill="white" stroke="#bfbfbf" points="76.72,-112.5 76.72,-131.5 123.72,-131.5 123.72,-112.5 76.72,-112.5"/>
<text text-anchor="middle" x="100.22" y="-119.5" font-family="Helvetica,sans-Serif" font-size="10.00">vector</text>
</a>
</g>
</g>
<!-- Node5&#45;&gt;Node10 -->
<g id="edge10" class="edge">
<title>Node5&#45;&gt;Node10</title>
<path fill="none" stroke="midnightblue" d="M564.18,-175.07C473.38,-171.34 294.02,-160.95 133.91,-132.01"/>
<polygon fill="midnightblue" stroke="midnightblue" points="134.34,-128.54 123.88,-130.17 133.08,-135.42 134.34,-128.54"/>
</g>
<!-- Node11 -->
<g id="node11" class="node">
<title>Node11</title>
<g id="a_node11"><a xlink:title=" ">
<polygon fill="white" stroke="#bfbfbf" points="141.72,-112.5 141.72,-131.5 206.72,-131.5 206.72,-112.5 141.72,-112.5"/>
<text text-anchor="middle" x="174.22" y="-119.5" font-family="Helvetica,sans-Serif" font-size="10.00">stdexcept</text>
</a>
</g>
</g>
<!-- Node5&#45;&gt;Node11 -->
<g id="edge11" class="edge">
<title>Node5&#45;&gt;Node11</title>
<path fill="none" stroke="midnightblue" d="M564,-172.34C486.56,-165.83 346.54,-152.62 217.26,-132.02"/>
<polygon fill="midnightblue" stroke="midnightblue" points="217.61,-128.53 207.18,-130.39 216.5,-135.44 217.61,-128.53"/>
</g>
<!-- Node12 -->
<g id="node12" class="node">
<title>Node12</title>
<g id="a_node12"><a xlink:title=" ">
<polygon fill="white" stroke="#bfbfbf" points="225.22,-112.5 225.22,-131.5 269.22,-131.5 269.22,-112.5 225.22,-112.5"/>
<text text-anchor="middle" x="247.22" y="-119.5" font-family="Helvetica,sans-Serif" font-size="10.00">string</text>
</a>
</g>
</g>
<!-- Node5&#45;&gt;Node12 -->
<g id="edge12" class="edge">
<title>Node5&#45;&gt;Node12</title>
<path fill="none" stroke="midnightblue" d="M564.06,-171.88C497.26,-165.51 385.24,-153.07 279.4,-131.73"/>
<polygon fill="midnightblue" stroke="midnightblue" points="280,-128.28 269.5,-129.71 278.6,-135.14 280,-128.28"/>
</g>
<!-- Node13 -->
<g id="node13" class="node">
<title>Node13</title>
<g id="a_node13"><a xlink:title=" ">
<polygon fill="white" stroke="#bfbfbf" points="617.72,-56.5 617.72,-75.5 686.72,-75.5 686.72,-56.5 617.72,-56.5"/>
<text text-anchor="middle" x="652.22" y="-63.5" font-family="Helvetica,sans-Serif" font-size="10.00">type_traits</text>
</a>
</g>
</g>
<!-- Node5&#45;&gt;Node13 -->
<g id="edge13" class="edge">
<title>Node5&#45;&gt;Node13</title>
<path fill="none" stroke="midnightblue" d="M654.25,-168.44C672.26,-161.69 693.46,-150.3 704.22,-132 715.36,-113.08 694.96,-93.72 676.54,-81.11"/>
<polygon fill="midnightblue" stroke="midnightblue" points="678.37,-78.12 668.06,-75.65 674.58,-84.01 678.37,-78.12"/>
</g>
<!-- Node14 -->
<g id="node14" class="node">
<title>Node14</title>
<g id="a_node14"><a xlink:title=" ">
<polygon fill="white" stroke="#bfbfbf" points="287.72,-112.5 287.72,-131.5 380.72,-131.5 380.72,-112.5 287.72,-112.5"/>
<text text-anchor="middle" x="334.22" y="-119.5" font-family="Helvetica,sans-Serif" font-size="10.00">unordered_map</text>
</a>
</g>
</g>
<!-- Node5&#45;&gt;Node14 -->
<g id="edge14" class="edge">
<title>Node5&#45;&gt;Node14</title>
<path fill="none" stroke="midnightblue" d="M577.43,-168.44C526.49,-158.92 444.19,-143.55 389.65,-133.36"/>
<polygon fill="midnightblue" stroke="midnightblue" points="390.28,-129.91 379.8,-131.52 388.99,-136.79 390.28,-129.91"/>
</g>
<!-- Node15 -->
<g id="node15" class="node">
<title>Node15</title>
<g id="a_node15"><a xlink:href="riemann_2concept_8hpp.html" target="_top" xlink:title=" ">
<polygon fill="white" stroke="black" points="551.22,-112.5 551.22,-131.5 695.22,-131.5 695.22,-112.5 551.22,-112.5"/>
<text text-anchor="middle" x="623.22" y="-119.5" font-family="Helvetica,sans-Serif" font-size="10.00">mini/riemann/concept.hpp</text>
</a>
</g>
</g>
<!-- Node5&#45;&gt;Node15 -->
<g id="edge16" class="edge">
<title>Node5&#45;&gt;Node15</title>
<path fill="none" stroke="midnightblue" d="M623.22,-168.08C623.22,-161.01 623.22,-150.86 623.22,-141.99"/>
<polygon fill="midnightblue" stroke="midnightblue" points="626.72,-141.75 623.22,-131.75 619.72,-141.75 626.72,-141.75"/>
</g>
<!-- Node16 -->
<g id="node16" class="node">
<title>Node16</title>
<g id="a_node16"><a xlink:href="ode_8hpp.html" target="_top" xlink:title=" ">
<polygon fill="white" stroke="black" points="789.22,-112.5 789.22,-131.5 917.22,-131.5 917.22,-112.5 789.22,-112.5"/>
<text text-anchor="middle" x="853.22" y="-119.5" font-family="Helvetica,sans-Serif" font-size="10.00">mini/temporal/ode.hpp</text>
</a>
</g>
</g>
<!-- Node5&#45;&gt;Node16 -->
<g id="edge19" class="edge">
<title>Node5&#45;&gt;Node16</title>
<path fill="none" stroke="midnightblue" d="M659.67,-168.44C699.62,-159.06 763.81,-143.99 807.21,-133.8"/>
<polygon fill="midnightblue" stroke="midnightblue" points="808.02,-137.21 816.95,-131.52 806.42,-130.39 808.02,-137.21"/>
</g>
<!-- Node21 -->
<g id="node21" class="node">
<title>Node21</title>
<g id="a_node21"><a xlink:href="index_8hpp.html" target="_top" xlink:title=" ">
<polygon fill="white" stroke="black" points="399.22,-112.5 399.22,-131.5 533.22,-131.5 533.22,-112.5 399.22,-112.5"/>
<text text-anchor="middle" x="466.22" y="-119.5" font-family="Helvetica,sans-Serif" font-size="10.00">mini/constant/index.hpp</text>
</a>
</g>
</g>
<!-- Node5&#45;&gt;Node21 -->
<g id="edge26" class="edge">
<title>Node5&#45;&gt;Node21</title>
<path fill="none" stroke="midnightblue" d="M598.35,-168.44C571.94,-159.36 530.01,-144.94 500.48,-134.78"/>
<polygon fill="midnightblue" stroke="midnightblue" points="501.58,-131.46 490.99,-131.52 499.3,-138.08 501.58,-131.46"/>
</g>
<!-- Node15&#45;&gt;Node2 -->
<g id="edge17" class="edge">
<title>Node15&#45;&gt;Node2</title>
<path fill="none" stroke="midnightblue" d="M570.78,-112.44C504.74,-101.67 392.71,-83.39 332.82,-73.62"/>
<polygon fill="midnightblue" stroke="midnightblue" points="333.06,-70.12 322.62,-71.96 331.93,-77.02 333.06,-70.12"/>
</g>
<!-- Node15&#45;&gt;Node13 -->
<g id="edge18" class="edge">
<title>Node15&#45;&gt;Node13</title>
<path fill="none" stroke="midnightblue" d="M628.01,-112.08C631.98,-104.69 637.75,-93.95 642.66,-84.81"/>
<polygon fill="midnightblue" stroke="midnightblue" points="645.88,-86.22 647.52,-75.75 639.71,-82.91 645.88,-86.22"/>
</g>
<!-- Node16&#45;&gt;Node6 -->
<g id="edge20" class="edge">
<title>Node16&#45;&gt;Node6</title>
<path fill="none" stroke="midnightblue" d="M838.44,-112.32C823.96,-103.82 801.65,-90.73 784.73,-80.8"/>
<polygon fill="midnightblue" stroke="midnightblue" points="786.37,-77.7 775.97,-75.65 782.82,-83.74 786.37,-77.7"/>
</g>
<!-- Node17 -->
<g id="node17" class="node">
<title>Node17</title>
<g id="a_node17"><a xlink:href="algebra_2eigen_8hpp.html" target="_top" xlink:title=" ">
<polygon fill="white" stroke="black" points="805.72,-56.5 805.72,-75.5 934.72,-75.5 934.72,-56.5 805.72,-56.5"/>
<text text-anchor="middle" x="870.22" y="-63.5" font-family="Helvetica,sans-Serif" font-size="10.00">mini/algebra/eigen.hpp</text>
</a>
</g>
</g>
<!-- Node16&#45;&gt;Node17 -->
<g id="edge21" class="edge">
<title>Node16&#45;&gt;Node17</title>
<path fill="none" stroke="midnightblue" d="M856.03,-112.08C858.31,-104.85 861.6,-94.41 864.43,-85.4"/>
<polygon fill="midnightblue" stroke="midnightblue" points="867.81,-86.34 867.47,-75.75 861.13,-84.24 867.81,-86.34"/>
</g>
<!-- Node17&#45;&gt;Node3 -->
<g id="edge22" class="edge">
<title>Node17&#45;&gt;Node3</title>
<path fill="none" stroke="midnightblue" d="M895.26,-56.44C921.84,-47.36 964.03,-32.94 993.75,-22.78"/>
<polygon fill="midnightblue" stroke="midnightblue" points="994.98,-26.06 1003.31,-19.52 992.71,-19.44 994.98,-26.06"/>
</g>
<!-- Node18 -->
<g id="node18" class="node">
<title>Node18</title>
<g id="a_node18"><a xlink:title=" ">
<polygon fill="white" stroke="#bfbfbf" points="771.72,-0.5 771.72,-19.5 818.72,-19.5 818.72,-0.5 771.72,-0.5"/>
<text text-anchor="middle" x="795.22" y="-7.5" font-family="Helvetica,sans-Serif" font-size="10.00">cmath</text>
</a>
</g>
</g>
<!-- Node17&#45;&gt;Node18 -->
<g id="edge23" class="edge">
<title>Node17&#45;&gt;Node18</title>
<path fill="none" stroke="midnightblue" d="M858.17,-56.32C846.76,-48.11 829.39,-35.6 815.79,-25.81"/>
<polygon fill="midnightblue" stroke="midnightblue" points="817.65,-22.84 807.49,-19.83 813.56,-28.52 817.65,-22.84"/>
</g>
<!-- Node19 -->
<g id="node19" class="node">
<title>Node19</title>
<g id="a_node19"><a xlink:title=" ">
<polygon fill="white" stroke="#bfbfbf" points="836.72,-0.5 836.72,-19.5 885.72,-19.5 885.72,-0.5 836.72,-0.5"/>
<text text-anchor="middle" x="861.22" y="-7.5" font-family="Helvetica,sans-Serif" font-size="10.00">cstdlib</text>
</a>
</g>
</g>
<!-- Node17&#45;&gt;Node19 -->
<g id="edge24" class="edge">
<title>Node17&#45;&gt;Node19</title>
<path fill="none" stroke="midnightblue" d="M868.74,-56.08C867.55,-48.93 865.83,-38.64 864.34,-29.69"/>
<polygon fill="midnightblue" stroke="midnightblue" points="867.78,-29.04 862.68,-19.75 860.87,-30.19 867.78,-29.04"/>
</g>
<!-- Node20 -->
<g id="node20" class="node">
<title>Node20</title>
<g id="a_node20"><a xlink:title=" ">
<polygon fill="white" stroke="#bfbfbf" points="904.22,-0.5 904.22,-19.5 978.22,-19.5 978.22,-0.5 904.22,-0.5"/>
<text text-anchor="middle" x="941.22" y="-7.5" font-family="Helvetica,sans-Serif" font-size="10.00">Eigen/Eigen</text>
</a>
</g>
</g>
<!-- Node17&#45;&gt;Node20 -->
<g id="edge25" class="edge">
<title>Node17&#45;&gt;Node20</title>
<path fill="none" stroke="midnightblue" d="M881.63,-56.32C892.33,-48.18 908.57,-35.84 921.39,-26.09"/>
<polygon fill="midnightblue" stroke="midnightblue" points="923.77,-28.67 929.61,-19.83 919.53,-23.1 923.77,-28.67"/>
</g>
</g>
</svg>
