<?xml version="1.0" encoding="UTF-8" standalone="no"?>
<!DOCTYPE svg PUBLIC "-//W3C//DTD SVG 1.1//EN"
 "http://www.w3.org/Graphics/SVG/1.1/DTD/svg11.dtd">
<!-- Generated by graphviz version 2.43.0 (0)
 -->
<!-- Title: include/mini/spatial/with_limiter.hpp Pages: 1 -->
<svg width="1636pt" height="263pt"
 viewBox="0.00 0.00 1635.50 263.00" xmlns="http://www.w3.org/2000/svg" xmlns:xlink="http://www.w3.org/1999/xlink">
<g id="graph0" class="graph" transform="scale(1 1) rotate(0) translate(4 259)">
<title>include/mini/spatial/with_limiter.hpp</title>
<polygon fill="white" stroke="transparent" points="-4,4 -4,-259 1631.5,-259 1631.5,4 -4,4"/>
<!-- Node1 -->
<g id="node1" class="node">
<title>Node1</title>
<g id="a_node1"><a xlink:title=" ">
<polygon fill="#bfbfbf" stroke="black" points="516,-224.5 516,-254.5 629,-254.5 629,-224.5 516,-224.5"/>
<text text-anchor="start" x="524" y="-242.5" font-family="Helvetica,sans-Serif" font-size="10.00">include/mini/spatial</text>
<text text-anchor="middle" x="572.5" y="-231.5" font-family="Helvetica,sans-Serif" font-size="10.00">/with_limiter.hpp</text>
</a>
</g>
</g>
<!-- Node2 -->
<g id="node2" class="node">
<title>Node2</title>
<g id="a_node2"><a xlink:title=" ">
<polygon fill="white" stroke="#bfbfbf" points="150.5,-56.5 150.5,-75.5 210.5,-75.5 210.5,-56.5 150.5,-56.5"/>
<text text-anchor="middle" x="180.5" y="-63.5" font-family="Helvetica,sans-Serif" font-size="10.00">concepts</text>
</a>
</g>
</g>
<!-- Node1&#45;&gt;Node2 -->
<g id="edge1" class="edge">
<title>Node1&#45;&gt;Node2</title>
<path fill="none" stroke="midnightblue" d="M515.63,-236.45C386.74,-230.47 78.64,-208.35 15.5,-132 -20.59,-88.35 80.39,-73.87 140.08,-69.18"/>
<polygon fill="midnightblue" stroke="midnightblue" points="140.62,-72.65 150.35,-68.43 140.12,-65.66 140.62,-72.65"/>
</g>
<!-- Node3 -->
<g id="node3" class="node">
<title>Node3</title>
<g id="a_node3"><a xlink:title=" ">
<polygon fill="white" stroke="#bfbfbf" points="614,-112.5 614,-131.5 659,-131.5 659,-112.5 614,-112.5"/>
<text text-anchor="middle" x="636.5" y="-119.5" font-family="Helvetica,sans-Serif" font-size="10.00">utility</text>
</a>
</g>
</g>
<!-- Node1&#45;&gt;Node3 -->
<g id="edge2" class="edge">
<title>Node1&#45;&gt;Node3</title>
<path fill="none" stroke="midnightblue" d="M580.35,-224.34C592.04,-203.24 614.01,-163.6 626.72,-140.65"/>
<polygon fill="midnightblue" stroke="midnightblue" points="629.91,-142.11 631.7,-131.67 623.79,-138.72 629.91,-142.11"/>
</g>
<!-- Node4 -->
<g id="node4" class="node">
<title>Node4</title>
<g id="a_node4"><a xlink:href="fem_8hpp.html" target="_top" xlink:title=" ">
<polygon fill="white" stroke="black" points="961.5,-168.5 961.5,-187.5 1079.5,-187.5 1079.5,-168.5 961.5,-168.5"/>
<text text-anchor="middle" x="1020.5" y="-175.5" font-family="Helvetica,sans-Serif" font-size="10.00">mini/spatial/fem.hpp</text>
</a>
</g>
</g>
<!-- Node1&#45;&gt;Node4 -->
<g id="edge3" class="edge">
<title>Node1&#45;&gt;Node4</title>
<path fill="none" stroke="midnightblue" d="M629.24,-230.96C711.31,-220.06 862.98,-199.92 951.44,-188.17"/>
<polygon fill="midnightblue" stroke="midnightblue" points="951.93,-191.64 961.38,-186.85 951.01,-184.7 951.93,-191.64"/>
</g>
<!-- Node22 -->
<g id="node22" class="node">
<title>Node22</title>
<g id="a_node22"><a xlink:href="reconstruct_8hpp.html" target="_top" xlink:title=" ">
<polygon fill="white" stroke="black" points="433.5,-168.5 433.5,-187.5 585.5,-187.5 585.5,-168.5 433.5,-168.5"/>
<text text-anchor="middle" x="509.5" y="-175.5" font-family="Helvetica,sans-Serif" font-size="10.00">mini/limiter/reconstruct.hpp</text>
</a>
</g>
</g>
<!-- Node1&#45;&gt;Node22 -->
<g id="edge26" class="edge">
<title>Node1&#45;&gt;Node22</title>
<path fill="none" stroke="midnightblue" d="M557.57,-224.4C548.13,-215.49 535.92,-203.95 526.17,-194.74"/>
<polygon fill="midnightblue" stroke="midnightblue" points="528.34,-191.98 518.67,-187.66 523.54,-197.07 528.34,-191.98"/>
</g>
<!-- Node4&#45;&gt;Node3 -->
<g id="edge14" class="edge">
<title>Node4&#45;&gt;Node3</title>
<path fill="none" stroke="midnightblue" d="M961.21,-172.1C892.96,-165.87 777.4,-153.48 668.93,-131.8"/>
<polygon fill="midnightblue" stroke="midnightblue" points="669.62,-128.37 659.13,-129.81 668.23,-135.23 669.62,-128.37"/>
</g>
<!-- Node5 -->
<g id="node5" class="node">
<title>Node5</title>
<g id="a_node5"><a xlink:title=" ">
<polygon fill="white" stroke="#bfbfbf" points="557.5,-0.5 557.5,-19.5 621.5,-19.5 621.5,-0.5 557.5,-0.5"/>
<text text-anchor="middle" x="589.5" y="-7.5" font-family="Helvetica,sans-Serif" font-size="10.00">algorithm</text>
</a>
</g>
</g>
<!-- Node4&#45;&gt;Node5 -->
<g id="edge4" class="edge">
<title>Node4&#45;&gt;Node5</title>
<path fill="none" stroke="midnightblue" d="M1047.04,-168.43C1077.61,-157.19 1121.25,-136.03 1101.5,-112 1041.94,-39.54 743.75,-18.22 631.94,-12.72"/>
<polygon fill="midnightblue" stroke="midnightblue" points="631.87,-9.21 621.71,-12.23 631.54,-16.2 631.87,-9.21"/>
</g>
<!-- Node6 -->
<g id="node6" class="node">
<title>Node6</title>
<g id="a_node6"><a xlink:title=" ">
<polygon fill="white" stroke="#bfbfbf" points="697.5,-56.5 697.5,-75.5 749.5,-75.5 749.5,-56.5 697.5,-56.5"/>
<text text-anchor="middle" x="723.5" y="-63.5" font-family="Helvetica,sans-Serif" font-size="10.00">cassert</text>
</a>
</g>
</g>
<!-- Node4&#45;&gt;Node6 -->
<g id="edge5" class="edge">
<title>Node4&#45;&gt;Node6</title>
<path fill="none" stroke="midnightblue" d="M1020.69,-168.33C1020.5,-154.23 1017.89,-126.48 1001.5,-112 966.2,-80.82 826.54,-71.08 759.62,-68.17"/>
<polygon fill="midnightblue" stroke="midnightblue" points="759.67,-64.67 749.53,-67.76 759.38,-71.67 759.67,-64.67"/>
</g>
<!-- Node7 -->
<g id="node7" class="node">
<title>Node7</title>
<g id="a_node7"><a xlink:title=" ">
<polygon fill="white" stroke="#bfbfbf" points="1413,-112.5 1413,-131.5 1468,-131.5 1468,-112.5 1413,-112.5"/>
<text text-anchor="middle" x="1440.5" y="-119.5" font-family="Helvetica,sans-Serif" font-size="10.00">fstream</text>
</a>
</g>
</g>
<!-- Node4&#45;&gt;Node7 -->
<g id="edge6" class="edge">
<title>Node4&#45;&gt;Node7</title>
<path fill="none" stroke="midnightblue" d="M1079.55,-172.31C1153,-165.97 1282.35,-153.18 1402.58,-131.96"/>
<polygon fill="midnightblue" stroke="midnightblue" points="1403.47,-135.35 1412.7,-130.15 1402.24,-128.46 1403.47,-135.35"/>
</g>
<!-- Node8 -->
<g id="node8" class="node">
<title>Node8</title>
<g id="a_node8"><a xlink:title=" ">
<polygon fill="white" stroke="#bfbfbf" points="1486,-112.5 1486,-131.5 1551,-131.5 1551,-112.5 1486,-112.5"/>
<text text-anchor="middle" x="1518.5" y="-119.5" font-family="Helvetica,sans-Serif" font-size="10.00">functional</text>
</a>
</g>
</g>
<!-- Node4&#45;&gt;Node8 -->
<g id="edge7" class="edge">
<title>Node4&#45;&gt;Node8</title>
<path fill="none" stroke="midnightblue" d="M1079.58,-173.42C1164.98,-167.75 1328.04,-155.07 1475.74,-132.12"/>
<polygon fill="midnightblue" stroke="midnightblue" points="1476.56,-135.53 1485.89,-130.52 1475.47,-128.62 1476.56,-135.53"/>
</g>
<!-- Node9 -->
<g id="node9" class="node">
<title>Node9</title>
<g id="a_node9"><a xlink:title=" ">
<polygon fill="white" stroke="#bfbfbf" points="1569.5,-112.5 1569.5,-131.5 1627.5,-131.5 1627.5,-112.5 1569.5,-112.5"/>
<text text-anchor="middle" x="1598.5" y="-119.5" font-family="Helvetica,sans-Serif" font-size="10.00">memory</text>
</a>
</g>
</g>
<!-- Node4&#45;&gt;Node9 -->
<g id="edge8" class="edge">
<title>Node4&#45;&gt;Node9</title>
<path fill="none" stroke="midnightblue" d="M1079.58,-174.97C1177.47,-170.96 1379.53,-160.02 1559.24,-131.98"/>
<polygon fill="midnightblue" stroke="midnightblue" points="1559.8,-135.43 1569.13,-130.41 1558.71,-128.52 1559.8,-135.43"/>
</g>
<!-- Node10 -->
<g id="node10" class="node">
<title>Node10</title>
<g id="a_node10"><a xlink:title=" ">
<polygon fill="white" stroke="#bfbfbf" points="677,-112.5 677,-131.5 724,-131.5 724,-112.5 677,-112.5"/>
<text text-anchor="middle" x="700.5" y="-119.5" font-family="Helvetica,sans-Serif" font-size="10.00">vector</text>
</a>
</g>
</g>
<!-- Node4&#45;&gt;Node10 -->
<g id="edge9" class="edge">
<title>Node4&#45;&gt;Node10</title>
<path fill="none" stroke="midnightblue" d="M961.4,-168.87C904.19,-160.7 815.1,-147.16 738.5,-132 737.05,-131.71 735.56,-131.41 734.07,-131.09"/>
<polygon fill="midnightblue" stroke="midnightblue" points="734.68,-127.64 724.16,-128.89 733.16,-134.48 734.68,-127.64"/>
</g>
<!-- Node11 -->
<g id="node11" class="node">
<title>Node11</title>
<g id="a_node11"><a xlink:title=" ">
<polygon fill="white" stroke="#bfbfbf" points="927,-112.5 927,-131.5 992,-131.5 992,-112.5 927,-112.5"/>
<text text-anchor="middle" x="959.5" y="-119.5" font-family="Helvetica,sans-Serif" font-size="10.00">stdexcept</text>
</a>
</g>
</g>
<!-- Node4&#45;&gt;Node11 -->
<g id="edge10" class="edge">
<title>Node4&#45;&gt;Node11</title>
<path fill="none" stroke="midnightblue" d="M1010.7,-168.32C1001.68,-160.34 988.1,-148.31 977.18,-138.65"/>
<polygon fill="midnightblue" stroke="midnightblue" points="979.29,-135.84 969.48,-131.83 974.65,-141.08 979.29,-135.84"/>
</g>
<!-- Node12 -->
<g id="node12" class="node">
<title>Node12</title>
<g id="a_node12"><a xlink:title=" ">
<polygon fill="white" stroke="#bfbfbf" points="1048.5,-112.5 1048.5,-131.5 1092.5,-131.5 1092.5,-112.5 1048.5,-112.5"/>
<text text-anchor="middle" x="1070.5" y="-119.5" font-family="Helvetica,sans-Serif" font-size="10.00">string</text>
</a>
</g>
</g>
<!-- Node4&#45;&gt;Node12 -->
<g id="edge11" class="edge">
<title>Node4&#45;&gt;Node12</title>
<path fill="none" stroke="midnightblue" d="M1028.76,-168.08C1035.97,-160.3 1046.61,-148.8 1055.35,-139.37"/>
<polygon fill="midnightblue" stroke="midnightblue" points="1058.17,-141.47 1062.4,-131.75 1053.04,-136.71 1058.17,-141.47"/>
</g>
<!-- Node13 -->
<g id="node13" class="node">
<title>Node13</title>
<g id="a_node13"><a xlink:title=" ">
<polygon fill="white" stroke="#bfbfbf" points="345,-56.5 345,-75.5 414,-75.5 414,-56.5 345,-56.5"/>
<text text-anchor="middle" x="379.5" y="-63.5" font-family="Helvetica,sans-Serif" font-size="10.00">type_traits</text>
</a>
</g>
</g>
<!-- Node4&#45;&gt;Node13 -->
<g id="edge12" class="edge">
<title>Node4&#45;&gt;Node13</title>
<path fill="none" stroke="midnightblue" d="M961.36,-171.46C910.08,-165.45 834.43,-153.67 771.5,-132 753.46,-125.79 751.74,-117.64 733.5,-112 604.1,-71.97 562.41,-96.69 424.16,-75.93"/>
<polygon fill="midnightblue" stroke="midnightblue" points="424.46,-72.44 414.04,-74.36 423.38,-79.35 424.46,-72.44"/>
</g>
<!-- Node14 -->
<g id="node14" class="node">
<title>Node14</title>
<g id="a_node14"><a xlink:title=" ">
<polygon fill="white" stroke="#bfbfbf" points="1149,-112.5 1149,-131.5 1242,-131.5 1242,-112.5 1149,-112.5"/>
<text text-anchor="middle" x="1195.5" y="-119.5" font-family="Helvetica,sans-Serif" font-size="10.00">unordered_map</text>
</a>
</g>
</g>
<!-- Node4&#45;&gt;Node14 -->
<g id="edge13" class="edge">
<title>Node4&#45;&gt;Node14</title>
<path fill="none" stroke="midnightblue" d="M1048.23,-168.44C1077.93,-159.28 1125.22,-144.69 1158.17,-134.52"/>
<polygon fill="midnightblue" stroke="midnightblue" points="1159.38,-137.81 1167.9,-131.52 1157.32,-131.12 1159.38,-137.81"/>
</g>
<!-- Node15 -->
<g id="node15" class="node">
<title>Node15</title>
<g id="a_node15"><a xlink:href="riemann_2concept_8hpp.html" target="_top" xlink:title=" ">
<polygon fill="white" stroke="black" points="199.5,-112.5 199.5,-131.5 343.5,-131.5 343.5,-112.5 199.5,-112.5"/>
<text text-anchor="middle" x="271.5" y="-119.5" font-family="Helvetica,sans-Serif" font-size="10.00">mini/riemann/concept.hpp</text>
</a>
</g>
</g>
<!-- Node4&#45;&gt;Node15 -->
<g id="edge15" class="edge">
<title>Node4&#45;&gt;Node15</title>
<path fill="none" stroke="midnightblue" d="M961.1,-173.83C846.2,-167.52 585.29,-152.29 354.21,-132.02"/>
<polygon fill="midnightblue" stroke="midnightblue" points="354.19,-128.51 343.92,-131.12 353.58,-135.48 354.19,-128.51"/>
</g>
<!-- Node16 -->
<g id="node16" class="node">
<title>Node16</title>
<g id="a_node16"><a xlink:href="ode_8hpp.html" target="_top" xlink:title=" ">
<polygon fill="white" stroke="black" points="780.5,-112.5 780.5,-131.5 908.5,-131.5 908.5,-112.5 780.5,-112.5"/>
<text text-anchor="middle" x="844.5" y="-119.5" font-family="Helvetica,sans-Serif" font-size="10.00">mini/temporal/ode.hpp</text>
</a>
</g>
</g>
<!-- Node4&#45;&gt;Node16 -->
<g id="edge18" class="edge">
<title>Node4&#45;&gt;Node16</title>
<path fill="none" stroke="midnightblue" d="M992.61,-168.44C962.75,-159.28 915.19,-144.69 882.05,-134.52"/>
<polygon fill="midnightblue" stroke="midnightblue" points="882.85,-131.1 872.26,-131.52 880.79,-137.8 882.85,-131.1"/>
</g>
<!-- Node21 -->
<g id="node21" class="node">
<title>Node21</title>
<g id="a_node21"><a xlink:href="index_8hpp.html" target="_top" xlink:title=" ">
<polygon fill="white" stroke="black" points="1260.5,-112.5 1260.5,-131.5 1394.5,-131.5 1394.5,-112.5 1260.5,-112.5"/>
<text text-anchor="middle" x="1327.5" y="-119.5" font-family="Helvetica,sans-Serif" font-size="10.00">mini/constant/index.hpp</text>
</a>
</g>
</g>
<!-- Node4&#45;&gt;Node21 -->
<g id="edge25" class="edge">
<title>Node4&#45;&gt;Node21</title>
<path fill="none" stroke="midnightblue" d="M1069.15,-168.44C1123.38,-158.9 1211.05,-143.48 1268.99,-133.29"/>
<polygon fill="midnightblue" stroke="midnightblue" points="1269.84,-136.7 1279.09,-131.52 1268.63,-129.8 1269.84,-136.7"/>
</g>
<!-- Node15&#45;&gt;Node2 -->
<g id="edge16" class="edge">
<title>Node15&#45;&gt;Node2</title>
<path fill="none" stroke="midnightblue" d="M256.88,-112.32C242.55,-103.82 220.49,-90.73 203.75,-80.8"/>
<polygon fill="midnightblue" stroke="midnightblue" points="205.47,-77.75 195.09,-75.65 201.9,-83.77 205.47,-77.75"/>
</g>
<!-- Node15&#45;&gt;Node13 -->
<g id="edge17" class="edge">
<title>Node15&#45;&gt;Node13</title>
<path fill="none" stroke="midnightblue" d="M288.85,-112.32C306.17,-103.66 333.02,-90.24 353,-80.25"/>
<polygon fill="midnightblue" stroke="midnightblue" points="354.81,-83.26 362.19,-75.65 351.68,-77 354.81,-83.26"/>
</g>
<!-- Node16&#45;&gt;Node6 -->
<g id="edge19" class="edge">
<title>Node16&#45;&gt;Node6</title>
<path fill="none" stroke="midnightblue" d="M825.33,-112.44C805.59,-103.64 774.62,-89.81 752.01,-79.72"/>
<polygon fill="midnightblue" stroke="midnightblue" points="753.14,-76.4 742.59,-75.52 750.29,-82.79 753.14,-76.4"/>
</g>
<!-- Node17 -->
<g id="node17" class="node">
<title>Node17</title>
<g id="a_node17"><a xlink:href="algebra_2eigen_8hpp.html" target="_top" xlink:title=" ">
<polygon fill="white" stroke="black" points="432,-56.5 432,-75.5 561,-75.5 561,-56.5 432,-56.5"/>
<text text-anchor="middle" x="496.5" y="-63.5" font-family="Helvetica,sans-Serif" font-size="10.00">mini/algebra/eigen.hpp</text>
</a>
</g>
</g>
<!-- Node16&#45;&gt;Node17 -->
<g id="edge20" class="edge">
<title>Node16&#45;&gt;Node17</title>
<path fill="none" stroke="midnightblue" d="M789.36,-112.44C727.51,-102.85 627.27,-87.29 561.62,-77.1"/>
<polygon fill="midnightblue" stroke="midnightblue" points="561.8,-73.59 551.39,-75.52 560.73,-80.51 561.8,-73.59"/>
</g>
<!-- Node17&#45;&gt;Node5 -->
<g id="edge21" class="edge">
<title>Node17&#45;&gt;Node5</title>
<path fill="none" stroke="midnightblue" d="M511.44,-56.32C526.09,-47.82 548.64,-34.73 565.74,-24.8"/>
<polygon fill="midnightblue" stroke="midnightblue" points="567.71,-27.7 574.6,-19.65 564.19,-21.65 567.71,-27.7"/>
</g>
<!-- Node18 -->
<g id="node18" class="node">
<title>Node18</title>
<g id="a_node18"><a xlink:title=" ">
<polygon fill="white" stroke="#bfbfbf" points="293,-0.5 293,-19.5 340,-19.5 340,-0.5 293,-0.5"/>
<text text-anchor="middle" x="316.5" y="-7.5" font-family="Helvetica,sans-Serif" font-size="10.00">cmath</text>
</a>
</g>
</g>
<!-- Node17&#45;&gt;Node18 -->
<g id="edge22" class="edge">
<title>Node17&#45;&gt;Node18</title>
<path fill="none" stroke="midnightblue" d="M467.98,-56.44C435.91,-46.82 383.89,-31.21 349.93,-21.03"/>
<polygon fill="midnightblue" stroke="midnightblue" points="350.6,-17.57 340.02,-18.05 348.59,-24.28 350.6,-17.57"/>
</g>
<!-- Node19 -->
<g id="node19" class="node">
<title>Node19</title>
<g id="a_node19"><a xlink:title=" ">
<polygon fill="white" stroke="#bfbfbf" points="481,-0.5 481,-19.5 530,-19.5 530,-0.5 481,-0.5"/>
<text text-anchor="middle" x="505.5" y="-7.5" font-family="Helvetica,sans-Serif" font-size="10.00">cstdlib</text>
</a>
</g>
</g>
<!-- Node17&#45;&gt;Node19 -->
<g id="edge23" class="edge">
<title>Node17&#45;&gt;Node19</title>
<path fill="none" stroke="midnightblue" d="M497.99,-56.08C499.18,-48.93 500.9,-38.64 502.39,-29.69"/>
<polygon fill="midnightblue" stroke="midnightblue" points="505.85,-30.19 504.04,-19.75 498.95,-29.04 505.85,-30.19"/>
</g>
<!-- Node20 -->
<g id="node20" class="node">
<title>Node20</title>
<g id="a_node20"><a xlink:title=" ">
<polygon fill="white" stroke="#bfbfbf" points="388.5,-0.5 388.5,-19.5 462.5,-19.5 462.5,-0.5 388.5,-0.5"/>
<text text-anchor="middle" x="425.5" y="-7.5" font-family="Helvetica,sans-Serif" font-size="10.00">Eigen/Eigen</text>
</a>
</g>
</g>
<!-- Node17&#45;&gt;Node20 -->
<g id="edge24" class="edge">
<title>Node17&#45;&gt;Node20</title>
<path fill="none" stroke="midnightblue" d="M485.1,-56.32C474.39,-48.18 458.16,-35.84 445.34,-26.09"/>
<polygon fill="midnightblue" stroke="midnightblue" points="447.2,-23.1 437.12,-19.83 442.96,-28.67 447.2,-23.1"/>
</g>
<!-- Node22&#45;&gt;Node3 -->
<g id="edge34" class="edge">
<title>Node22&#45;&gt;Node3</title>
<path fill="none" stroke="midnightblue" d="M529.63,-168.44C550.53,-159.56 583.44,-145.56 607.22,-135.45"/>
<polygon fill="midnightblue" stroke="midnightblue" points="608.64,-138.65 616.47,-131.52 605.9,-132.21 608.64,-138.65"/>
</g>
<!-- Node22&#45;&gt;Node5 -->
<g id="edge29" class="edge">
<title>Node22&#45;&gt;Node5</title>
<path fill="none" stroke="midnightblue" d="M515.69,-168.5C527.73,-151.63 554.52,-112.39 570.5,-76 577.15,-60.86 582.23,-42.74 585.46,-29.48"/>
<polygon fill="midnightblue" stroke="midnightblue" points="588.88,-30.19 587.72,-19.66 582.06,-28.62 588.88,-30.19"/>
</g>
<!-- Node22&#45;&gt;Node6 -->
<g id="edge27" class="edge">
<title>Node22&#45;&gt;Node6</title>
<path fill="none" stroke="midnightblue" d="M520.5,-168.31C537.81,-154.91 572.83,-129 605.5,-112 632.05,-98.19 663.84,-86.31 687.73,-78.23"/>
<polygon fill="midnightblue" stroke="midnightblue" points="689.05,-81.48 697.44,-75.01 686.85,-74.84 689.05,-81.48"/>
</g>
<!-- Node22&#45;&gt;Node10 -->
<g id="edge35" class="edge">
<title>Node22&#45;&gt;Node10</title>
<path fill="none" stroke="midnightblue" d="M539.77,-168.44C574.33,-158.67 630.73,-142.73 666.7,-132.56"/>
<polygon fill="midnightblue" stroke="midnightblue" points="668.05,-135.81 676.72,-129.73 666.14,-129.08 668.05,-135.81"/>
</g>
<!-- Node22&#45;&gt;Node13 -->
<g id="edge33" class="edge">
<title>Node22&#45;&gt;Node13</title>
<path fill="none" stroke="midnightblue" d="M509.28,-168.28C508.48,-154.61 505.01,-128.05 490.5,-112 480.34,-100.75 445.74,-87.72 417.84,-78.58"/>
<polygon fill="midnightblue" stroke="midnightblue" points="418.9,-75.25 408.31,-75.52 416.76,-81.91 418.9,-75.25"/>
</g>
<!-- Node22&#45;&gt;Node18 -->
<g id="edge28" class="edge">
<title>Node22&#45;&gt;Node18</title>
<path fill="none" stroke="midnightblue" d="M433.43,-175.59C301.84,-172.36 43.08,-162.21 15.5,-132 -64.12,-44.79 188.59,-19.27 282.67,-12.89"/>
<polygon fill="midnightblue" stroke="midnightblue" points="283.06,-16.37 292.81,-12.23 282.61,-9.38 283.06,-16.37"/>
</g>
<!-- Node23 -->
<g id="node23" class="node">
<title>Node23</title>
<g id="a_node23"><a xlink:title=" ">
<polygon fill="white" stroke="#bfbfbf" points="51.5,-112.5 51.5,-131.5 107.5,-131.5 107.5,-112.5 51.5,-112.5"/>
<text text-anchor="middle" x="79.5" y="-119.5" font-family="Helvetica,sans-Serif" font-size="10.00">iomanip</text>
</a>
</g>
</g>
<!-- Node22&#45;&gt;Node23 -->
<g id="edge30" class="edge">
<title>Node22&#45;&gt;Node23</title>
<path fill="none" stroke="midnightblue" d="M433.39,-171.12C356.17,-164.5 233.08,-152.21 117.77,-132.03"/>
<polygon fill="midnightblue" stroke="midnightblue" points="118.17,-128.54 107.71,-130.24 116.94,-135.44 118.17,-128.54"/>
</g>
<!-- Node24 -->
<g id="node24" class="node">
<title>Node24</title>
<g id="a_node24"><a xlink:title=" ">
<polygon fill="white" stroke="#bfbfbf" points="228.5,-56.5 228.5,-75.5 288.5,-75.5 288.5,-56.5 228.5,-56.5"/>
<text text-anchor="middle" x="258.5" y="-63.5" font-family="Helvetica,sans-Serif" font-size="10.00">iostream</text>
</a>
</g>
</g>
<!-- Node22&#45;&gt;Node24 -->
<g id="edge31" class="edge">
<title>Node22&#45;&gt;Node24</title>
<path fill="none" stroke="midnightblue" d="M433.35,-175.15C307.71,-171.31 68.22,-160.32 42.5,-132 2.33,-87.77 -25.07,-128.15 218.38,-76.19"/>
<polygon fill="midnightblue" stroke="midnightblue" points="219.25,-79.58 228.29,-74.06 217.77,-72.74 219.25,-79.58"/>
</g>
<!-- Node25 -->
<g id="node25" class="node">
<title>Node25</title>
<g id="a_node25"><a xlink:title=" ">
<polygon fill="white" stroke="#bfbfbf" points="125.5,-112.5 125.5,-131.5 181.5,-131.5 181.5,-112.5 125.5,-112.5"/>
<text text-anchor="middle" x="153.5" y="-119.5" font-family="Helvetica,sans-Serif" font-size="10.00">numeric</text>
</a>
</g>
</g>
<!-- Node22&#45;&gt;Node25 -->
<g id="edge32" class="edge">
<title>Node22&#45;&gt;Node25</title>
<path fill="none" stroke="midnightblue" d="M434.07,-168.48C371.55,-160.94 280.2,-148.79 191.67,-132.07"/>
<polygon fill="midnightblue" stroke="midnightblue" points="192.2,-128.61 181.72,-130.17 190.89,-135.48 192.2,-128.61"/>
</g>
<!-- Node26 -->
<g id="node26" class="node">
<title>Node26</title>
<g id="a_node26"><a xlink:href="taylor_8hpp.html" target="_top" xlink:title=" ">
<polygon fill="white" stroke="black" points="362,-112.5 362,-131.5 481,-131.5 481,-112.5 362,-112.5"/>
<text text-anchor="middle" x="421.5" y="-119.5" font-family="Helvetica,sans-Serif" font-size="10.00">mini/basis/taylor.hpp</text>
</a>
</g>
</g>
<!-- Node22&#45;&gt;Node26 -->
<g id="edge36" class="edge">
<title>Node22&#45;&gt;Node26</title>
<path fill="none" stroke="midnightblue" d="M495.36,-168.32C481.64,-159.9 460.57,-146.97 444.44,-137.07"/>
<polygon fill="midnightblue" stroke="midnightblue" points="445.96,-133.9 435.61,-131.65 442.3,-139.87 445.96,-133.9"/>
</g>
<!-- Node26&#45;&gt;Node2 -->
<g id="edge37" class="edge">
<title>Node26&#45;&gt;Node2</title>
<path fill="none" stroke="midnightblue" d="M382.76,-112.46C344.15,-103.93 282.89,-90.34 220.71,-76.26"/>
<polygon fill="midnightblue" stroke="midnightblue" points="221.26,-72.8 210.73,-74 219.71,-79.62 221.26,-72.8"/>
</g>
<!-- Node26&#45;&gt;Node6 -->
<g id="edge38" class="edge">
<title>Node26&#45;&gt;Node6</title>
<path fill="none" stroke="midnightblue" d="M469.36,-112.44C529.98,-101.6 633.1,-83.17 687.48,-73.44"/>
<polygon fill="midnightblue" stroke="midnightblue" points="688.13,-76.88 697.36,-71.67 686.9,-69.99 688.13,-76.88"/>
</g>
<!-- Node26&#45;&gt;Node13 -->
<g id="edge41" class="edge">
<title>Node26&#45;&gt;Node13</title>
<path fill="none" stroke="midnightblue" d="M414.57,-112.08C408.57,-104.38 399.75,-93.03 392.46,-83.65"/>
<polygon fill="midnightblue" stroke="midnightblue" points="395.21,-81.5 386.31,-75.75 389.69,-85.79 395.21,-81.5"/>
</g>
<!-- Node26&#45;&gt;Node17 -->
<g id="edge42" class="edge">
<title>Node26&#45;&gt;Node17</title>
<path fill="none" stroke="midnightblue" d="M433.55,-112.32C444.97,-104.11 462.33,-91.6 475.94,-81.81"/>
<polygon fill="midnightblue" stroke="midnightblue" points="478.16,-84.52 484.23,-75.83 474.07,-78.84 478.16,-84.52"/>
</g>
<!-- Node26&#45;&gt;Node18 -->
<g id="edge39" class="edge">
<title>Node26&#45;&gt;Node18</title>
<path fill="none" stroke="midnightblue" d="M393.34,-112.45C374.74,-105.44 351.19,-93.75 336.5,-76 325.58,-62.79 320.61,-43.66 318.36,-29.57"/>
<polygon fill="midnightblue" stroke="midnightblue" points="321.82,-29.03 317.07,-19.56 314.88,-29.93 321.82,-29.03"/>
</g>
<!-- Node26&#45;&gt;Node24 -->
<g id="edge40" class="edge">
<title>Node26&#45;&gt;Node24</title>
<path fill="none" stroke="midnightblue" d="M395.67,-112.44C368.25,-103.36 324.73,-88.94 294.07,-78.78"/>
<polygon fill="midnightblue" stroke="midnightblue" points="294.8,-75.34 284.21,-75.52 292.6,-81.98 294.8,-75.34"/>
</g>
</g>
</svg>
